<svg xmlns="http://www.w3.org/2000/svg" viewBox="0 0 960 720"><path d="m0 0h960v720h-960z" style="fill:#281402"/><g style="stroke-linejoin:round;stroke-width:.7"><path d="m959 720h1v-1.5-1.5h-.5-.5l-.5-21-.5-21v-28-28h-.5-.5l-14 .5-14 .5 14.5-1.5 14.5-1.5v-2-2-1.5-1.5-2-2-2-2-1-1-1.5-1.5-2-2-1-1l.5 1 .5 1v2 2 1 1 1.5 1.5l.5 2 .5 2v-20-20-20-20-6-6h-.5-.5l-12.5 1-12.5 1 11.5-3.5 11.5-3.5-14.5-2.5-14.5-2.5 16-3.5 16-3.5v-1.5-1.5-2-2-2-2-2.5-2.5-2-2-2.5-2.5h-.5-.5l-16-3-16-3 16.5-4 16.5-4v-1.5-1.5-2.5-2.5-2-2-2-2-2.5-2.5-2-2-2.5-2.5-2-2-2.5-2.5-2-2-1-1h-.5-.5l-7.5.5-7.5.5-17.5-.5-17.5-.5-7-3-7-3-17.5-2.5-17.5-2.5h-17-17l-17-1-17-1-2-3-2-3 17-2 17-2-8.5-3-8.5-3h-13-13l17-2 17-2 15.5-.5 15.5-.5 1-4 1-4h-16-16l-17-1-17-1-4-5-4-5-8.5-3.5-8.5-3.5-15.5.5-15.5.5-18-1-18-1h-19-19l14.5 2.5 14.5 2.5-9 4-9 4-9-3-9-3-12 5-12 5 1 .5 1 .5h1 1 .5.5l.5.5.5.5.5.5.5.5h1 1 1.5 1.5v1 1l-.5.5-.5.5v1 1l.5 1 .5 1 .5.5.5.5v1 1l-.5 1.5-.5 1.5-6-8-6-8-13-4.5-13-4.5-11.5 4.5-11.5 4.5-.5 13.5-.5 13.5 1.5.5 1.5.5 1.5-1 1.5-1 1.5-.5 1.5-.5 1.5-1 1.5-1 1-1 1-1h2.5 2.5 2 2l2 .5 2 .5-.5 1.5-.5 1.5-1.5.5-1.5.5-1 1-1 1 6.5 1.5 6.5 1.5 8 .5 8 .5.5 1.5.5 1.5h1 1l.5-.5.5-.5h1 1l.5-.5.5-.5.5-1 .5-1 .5-.5.5-.5-.5-.5-.5-.5-1-.5-1-.5 1.5-.5 1.5-.5 1.5.5 1.5.5 1 1.5 1 1.5h1 1l1-1.5 1-1.5 1.5-.5 1.5-.5h1 1l2 .5 2 .5h2 2l2 .5 2 .5.5.5.5.5-12.5 2.5-12.5 2.5-24.5 5-24.5 5-1.5-.5-1.5-.5v-1-1l-1-.5-1-.5-.5-1-.5-1-13 .5-13 .5-22 3-22 3 20.5 12 20.5 12 .5-1 .5-1 .5-1 .5-1h2 2 2.5 2.5 1 1l2-.5 2-.5 1-1 1-1 1.5-.5 1.5-.5 1-.5 1-.5h1 1 1.5 1.5 2.5 2.5l2-.5 2-.5v1.5 1.5l1.5.5 1.5.5-.5-1.5-.5-1.5 2 .5 2 .5h1 1 1.5 1.5l1 1 1 1 1.5.5 1.5.5 14.5 5.5 14.5 5.5h-.5-.5l-.5-.5-.5-.5-.5-.5-.5-.5-.5-.5-.5-.5-1 .5-1 .5h-1-1-1-1l-.5-.5-.5-.5h-1.5-1.5l-.5-.5-.5-.5-.5-.5-.5-.5h-1-1l-1 .5-1 .5-.5.5-.5.5.5.5.5.5.5.5.5.5.5.5.5.5 1 .5 1 .5.5.5.5.5.5.5.5.5.5 1 .5 1 .5 1 .5 1v1.5 1.5l1 1 1 1-1 1.5-1 1.5 1.5.5 1.5.5.5 1 .5 1 10 3 10 3 12 5 12 5-.5.5-.5.5 10.5 2.5 10.5 2.5v-2-2l-.5-1-.5-1v-1.5-1.5l-.5-1-.5-1-1-1-1-1-1-.5-1-.5-.5-.5-.5-.5-.5-.5-.5-.5-.5-.5-.5-.5-.5-1-.5-1-.5-.5-.5-.5-.5-.5-.5-.5-.5-.5-.5-.5 1-.5 1-.5 1-1.5 1-1.5 1-.5 1-.5h1 1l1.5 1 1.5 1 1 1 1 1 1.5 1 1.5 1 1 1 1 1 .5-1.5.5-1.5h1.5 1.5l2-.5 2-.5-6-12.5-6-12.5-1 .5-1 .5-1 .5-1 .5v.5.5l-.5 1-.5 1-6 6-6 6-.5-1.5-.5-1.5-.5-1.5-.5-1.5.5-2 .5-2 .5-1.5.5-1.5 1-1.5 1-1.5 1-1 1-1 1.5-.5 1.5-.5 1.5-1 1.5-1 1-1 1-1 2-1 2-1 1-.5 1-.5h3 3l-1-.5-1-.5-.5-.5-.5-.5-1 .5-1 .5h-2-2l-.5-.5-.5-.5v-1-1-1-1h1.5 1.5 1 1l.5.5.5.5h1 1 1.5 1.5v1 1l.5.5.5.5h1 1l-.5 1.5-.5 1.5v1 1l1 1.5 1 1.5 1 1 1 1v-1.5-1.5l-.5-.5-.5-.5v-1-1l.5-1 .5-1 .5-.5.5-.5v-1-1h1 1l.5-1 .5-1 .5-.5.5-.5v1 1l.5-.5.5-.5 1-.5 1-.5h1 1l.5-.5.5-.5h1 1 1 1 1.5 1.5 1 1l1-.5 1-.5 5.5-2 5.5-2 18.5 5.5 18.5 5.5v.5.5l2 .5 2 .5 2 .5 2 .5 1.5.5 1.5.5 1.5 1 1.5 1 1.5.5 1.5.5 1 1 1 1 1.5 1 1.5 1 2 .5 2 .5 1 1 1 1 1-1 1-1v1.5 1.5 2 2l.5.5.5.5v1 1h1.5 1.5l1.5.5 1.5.5h1 1l.5-1 .5-1 .5-1.5.5-1.5h1 1l1 .5 1 .5 1 1 1 1 .5.5.5.5.5.5.5.5.5.5.5.5-.5 1.5-.5 1.5-2.5 13-2.5 13 2-.5 2-.5 1 1.5 1 1.5h1 1l1 1.5 1 1.5 1-.5 1-.5 1-.5 1-.5.5-1 .5-1 1.5-.5 1.5-.5v-1-1l.5-1 .5-1 .5-1.5.5-1.5v-1-1-1.5-1.5l-.5-1.5-.5-1.5-.5-.5-.5-.5-.5-.5-.5-.5v-1-1l-.5-1-.5-1-1-1.5-1-1.5-.5-1.5-.5-1.5-1.5-1-1.5-1 11.5 13 11.5 13-.5 2-.5 2-.5 1.5-.5 1.5-.5 1.5-.5 1.5-1.5 1-1.5 1-1 1-1 1-1.5 1-1.5 1-1 1-1 1-1 1.5-1 1.5-1 2-1 2 1.5-.5 1.5-.5 1-.5 1-.5.5-.5.5-.5.5-.5.5-.5v-1-1l.5-1 .5-1 .5-.5.5-.5h1 1l.5.5.5.5-.5 1.5-.5 1.5-10 16.5-10 16.5v1.5 1.5l2 5.5 2 5.5-.5 1.5-.5 1.5h-1-1v1.5 1.5l-1.5.5-1.5.5-1.5.5-1.5.5-2 .5-2 .5-2 .5-2 .5-.5.5-.5.5-.5 1-.5 1-1 1-1 1-1.5.5-1.5.5h-2-2l-2 .5-2 .5-1.5.5-1.5.5h-2.5-2.5-2-2l-19-.5-19-.5-3.5-3.5-3.5-3.5.5-1 .5-1-15-5.5-15-5.5 15 3 15 3v-1-1h1.5 1.5 2 2l-1-1-1-1h-1-1-1-1l-.5-.5-.5-.5h-1.5-1.5l-.5-.5-.5-.5h-1-1v-1-1-.5-.5h-1-1l-.5-.5-.5-.5-.5-.5-.5-.5 1-.5 1-.5h2 2l-1.5-.5-1.5-.5h-1-1-1.5-1.5l-1-.5-1-.5-1-.5-1-.5h-1.5-1.5l-1.5-.5-1.5-.5-.5-.5-.5-.5-1-.5-1-.5-1.5-.5-1.5-.5h-1-1l-.5.5-.5.5-.5.5-.5.5-1-.5-1-.5-.5-1-.5-1-.5-2.5-.5-2.5-.5-1.5-.5-1.5.5-2 .5-2v-2-2l-.5-1-.5-1v-1.5-1.5l-.5-1-.5-1 .5-1.5.5-1.5h.5.5l-2-1-2-1v1.5 1.5 1 1l.5.5.5.5-.5.5-.5.5v1.5 1.5l.5.5.5.5.5.5.5.5v1 1l-.5 2-.5 2-1 1-1 1 .5 1.5.5 1.5.5 2 .5 2-.5 1.5-.5 1.5-.5-.5-.5-.5v1.5 1.5l1 1 1 1 .5 1 .5 1 .5.5.5.5-.5 1.5-.5 1.5.5 2 .5 2-1.5.5-1.5.5v1.5 1.5l-1 1-1 1-1 .5-1 .5.5.5.5.5 15.5 4.5 15.5 4.5 17.5 2.5 17.5 2.5 18.5-1.5 18.5-1.5 13.5-6.5 13.5-6.5 6.5-5 6.5-5 3.5 12 3.5 12-14.5 4.5-14.5 4.5h-15.5-15.5l-19.5.5-19.5.5-19 1-19 1-9 9-9 9-8.5 23-8.5 23-1 1-1 1-.5 1.5-.5 1.5-.5.5-.5.5-.5 1-.5 1-.5 1.5-.5 1.5-.5.5-.5.5-1 1.5-1 1.5-.5 1.5-.5 1.5-.5 1.5-.5 1.5-.5 1.5-.5 1.5-1 1.5-1 1.5-1 1-1 1-1 1.5-1 1.5-1 1-1 1-1 1.5-1 1.5-.5 1-.5 1-9.5 11-9.5 11-13.5 10.5-13.5 10.5h20.5 20.5 20 20 20 20 20 20 20 20 20 20 20 20 20 20 17.5 17.5" style="fill:#d5ac78;stroke:#d5ac78"/><path d="m959 717h1v-.5-.5h-.5-.5l.5-32 .5-32v-1.5-1.5-2-2-2-2-2.5-2.5-2-2-2.5-2.5-2-2-2.5-2.5-2-2-2-2-2-2l-.5-2-.5-2v-1.5-1.5-1-1-2-2l-.5-1-.5-1v1 1 2 2 1.5 1.5 1 1 2 2 2 2 1.5 1.5 2 2 1 1 28 28l.5 21 .5 21" style="fill:#c1b5a1;stroke:#c1b5a1"/><path d="m959 716h1v-21.5-21.5-10.5-10.5l-.5 32-.5 32" style="fill:#d5ac78;stroke:#d5ac78"/><g style="fill:#bc9157;stroke:#bc9157"><path d="m959 514h1v-1.5-1.5-2-2-2.5-2.5-2-2-.5-.5l-16 3.5-16 3.5 14.5 2.5 14.5 2.5-11.5 3.5-11.5 3.5 12.5-1 12.5-1"/><path d="m959 472h1v-1.5-1.5-2-2-2.5-2.5-1-1l-16.5 4-16.5 4 16 3 16 3"/><path d="m959 413h1v-1.5-1.5-2-2-2.5-2.5-2-2-2.5-2.5-2-2-2.5-2.5-2-2-2-2-2.5-2.5-1.5-1.5h-.5-.5l-15.5-2.5-15.5-2.5 13-4 13-4-2-1-2-1-1.5-.5-1.5-.5-1-1-1-1-1.5-1-1.5-1h-2-2l-1-1-1-1h-.5-.5-11-11l-9.5-4.5-9.5-4.5-4.5-1.5-4.5-1.5-15.5-.5-15.5-.5-17.5-1.5-17.5-1.5-16.5-1.5-16.5-1.5-17 1.5-17 1.5-11.5-2.5-11.5-2.5-17-2-17-2h-17-17l-8.5 8.5-8.5 8.5-8.5-5.5-8.5-5.5 2-8 2-8-2.5-5.5-2.5-5.5-13.5-2.5-13.5-2.5-17.5 2.5-17.5 2.5 13.5.5 13.5.5 11.5 1.5 11.5 1.5-14 2-14 2-14.5 1.5-14.5 1.5-3 15-3 15 .5 12.5.5 12.5-.5 9.5-.5 9.5-1-.5-1-.5v-1-1l-.5-2-.5-2-4-15.5-4-15.5-6.5 4.5-6.5 4.5-7.5 1.5-7.5 1.5 9.5 3.5 9.5 3.5-12.5 8-12.5 8v1.5 1.5 1 1 1.5 1.5 1 1l.5.5.5.5v1 1l-.5 1-.5 1 .5 1.5.5 1.5v1 1 1.5 1.5l-.5 1.5-.5 1.5v1 1l-.5 1-.5 1v1.5 1.5l22-3 22-3 13-.5 13-.5-.5-1.5-.5-1.5-1.5-.5-1.5-.5h-1-1l-.5-.5-.5-.5-.5-.5-.5-.5-1-.5-1-.5-.5-.5-.5-.5-.5-.5-.5-.5-.5-.5-.5-.5.5-1 .5-1 .5.5.5.5h1 1l.5.5.5.5 1 .5 1 .5.5.5.5.5.5.5.5.5.5-.5.5-.5-.5-1-.5-1-1-1-1-1 .5-13.5.5-13.5 11.5-4.5 11.5-4.5 13 4.5 13 4.5 12-5 12-5 9 3 9 3 9-4 9-4-14.5-2.5-14.5-2.5h19 19l18 1 18 1 15.5-.5 15.5-.5 8.5 3.5 8.5 3.5 4 5 4 5 17 1 17 1h16 16l-1 4-1 4-15.5.5-15.5.5-17 2-17 2h13 13l8.5 3 8.5 3-17 2-17 2 2 3 2 3 17 1 17 1h17 17l17.5 2.5 17.5 2.5 7 3 7 3 17.5.5 17.5.5 7.5-.5 7.5-.5"/></g><path d="m959 367h1v-1.5-1.5-2-2-2-2h-.5-.5l-1.5-.5-1.5-.5-1-.5-1-.5-13 4-13 4 15.5 2.5 15.5 2.5" style="fill:#b07d47;stroke:#b07d47"/><path d="m959 356h1v-.5-.5h-.5-.5l-13-7.5-13-7.5-12.5-7.5-12.5-7.5-25-14.5-25-14.5-12.5-7.5-12.5-7.5-13-7-13-7-19.5-6.5-19.5-6.5h-.5-.5-2.5-2.5-2.5-2.5-.5-.5-21.5-21.5-22.5-22.5-2-2-.5-.5-1-1-1.5-1.5l-.5.5-.5.5h-21-21l-39 .5-39 .5h-.5-.5-2-2-1-1-1.5-1.5-2-2-1-1l-1 .5-1 .5h-2-2-1-1-1.5-1.5l-1-1-1-1-.5 1.5-.5 1.5 20-.5 20-.5h20 20l17.5-.5 17.5-.5h20 20l18.5-.5 18.5-.5h18 18l18.5 1.5 18.5 1.5 15 5 15 5 15 8.5 15 8.5 1 .5 1 .5 1.5.5 1.5.5.5.5.5.5h1 1l1 .5 1 .5.5.5.5.5.5.5.5.5.5.5.5.5 1 .5 1 .5.5.5.5.5h1 1l.5 1 .5 1 1.5.5 1.5.5 1 .5 1 .5 1 1 1 1 2.5 1 2.5 1 1 .5 1 .5 1.5 1 1.5 1 1.5.5 1.5.5 1.5 1 1.5 1 1 1 1 1 1.5.5 1.5.5 1.5 1 1.5 1 1.5.5 1.5.5 1 1 1 1 1.5 1 1.5 1 1 1 1 1 2 .5 2 .5 1 1 1 1 1 .5 1 .5 18 10.5 18 10.5 1 1 1 1h2 2l1.5 1 1.5 1 1 1 1 1 1.5.5 1.5.5 2 1 2 1 1 .5 1 .5 1.5.5 1.5.5" style="fill:#7b4e22;stroke:#7b4e22"/><path d="m959 355h1v-1.5-1.5-2-2-2.5-2.5-2-2-2.5-2.5h-.5-.5l-11.5-7-11.5-7 12-4.5 12-4.5v-2-2h-.5-.5l-15.5-6-15.5-6-12.5 2.5-12.5 2.5-9 3-9 3-13.5-5-13.5-5 25 14.5 25 14.5 12.5 7.5 12.5 7.5 13 7.5 13 7.5" style="fill:#3d2b0f;stroke:#3d2b0f"/><path d="m959 334h1v-1.5-1.5-2-2-2.5-2.5-2-2-2.5-2.5-1-1l-12 4.5-12 4.5 11.5 7 11.5 7" style="fill:#573d1a;stroke:#573d1a"/><path d="m959 307h1v-21.5-21.5-20-20-20-20-20-20-10.5-10.5h-.5-.5l.5-5 .5-5v-2.5-2.5-2-2-2.5-2.5-2-2-2-2h-.5-.5l-9 6-9 6-7-4-7-4-.5-9.5-.5-9.5 6 10 6 10 9.5-7.5 9.5-7.5.5-9 .5-9-12 1-12 1-11.5 6.5-11.5 6.5-11 9-11 9v11 11l-14.5 3.5-14.5 3.5-19-1-19-1-18.5.5-18.5.5-19.5.5-19.5.5-15.5-2.5-15.5-2.5-19-1-19-1-17.5.5-17.5.5h-16-16l-15.5-.5-15.5-.5-17.5 2.5-17.5 2.5-13-1-13-1-7.5.5-7.5.5-13.5-13.5-13.5-13.5h-.5-.5l-8-2-8-2-7.5-6.5-7.5-6.5.5-10.5.5-10.5 3.5-11.5 3.5-11.5-4-11-4-11-6 6-6 6 .5 18.5.5 18.5v20 20l-9 10-9 10-14.5 4.5-14.5 4.5-6.5-1.5-6.5-1.5-11.5-3-11.5-3-19.5-.5-19.5-.5h-18-18l-16 4-16 4-2 17-2 17 2 18 2 18 3 16 3 16 2-12 2-12 11.5-2.5 11.5-2.5 12-1 12-1 14 2 14 2-11.5 4.5-11.5 4.5-14.5.5-14.5.5-3 14-3 14h-11-11l11 9.5 11 9.5h2 2 1 1 2 2l27.5-.5 27.5-.5 27-.5 27-.5 1-.5 1-.5h2 2 2 2 2.5 2.5l1 1 1 1v2.5 2.5l.5-1.5.5-1.5v-2.5-2.5-2-2-2-2-1.5-1.5l6-10 6-10 18.5 1.5 18.5 1.5 26-3.5 26-3.5 12 6 12 6 2.5 11 2.5 11h2.5 2.5 2 2l1.5-.5 1.5-.5h2.5 2.5 2 2 2.5 2.5 2 2 2.5 2.5 2 2 1.5 1.5l19-1 19-1h17 17 20 20 19 19l19.5 1 19.5 1 19.5 6.5 19.5 6.5 13 7 13 7 12.5 7.5 12.5 7.5 13.5 5 13.5 5 9-3 9-3 12.5-2.5 12.5-2.5 15.5 6 15.5 6" style="fill:#281402;stroke:#281402"/><g style="fill:#3d2b0f;stroke:#3d2b0f"><path d="m959 123h1v-1.5-1.5-2-2-1.5-1.5l-.5 5-.5 5"/><path d="m959 91h1v-21.5-21.5-20-20-4-4h-16-16-20-20-20-20-3-3l-.5 1-.5 1h-17-17l-16 1-16 1 9 1 9 1-4.5 6-4.5 6-3.5 8-3.5 8-2.5 7.5-2.5 7.5 4.5 3.5 4.5 3.5-2 7-2 7 4.5 7.5 4.5 7.5-6 5-6 5-7.5 12.5-7.5 12.5 11 .5 11 .5-1 .5-1 .5-.5.5-.5.5h-1-1-1-1l-.5-.5-.5-.5h-1-1-1.5-1.5l-.5.5-.5.5h-1-1l-.5-.5-.5-.5-1 .5-1 .5h-1-1-1-1l.5-1.5.5-1.5-14.5 1-14.5 1-10-3-10-3h-16-16l-18.5.5-18.5.5h-17-17-18.5-18.5l-18.5.5-18.5.5h-19-19l-9.5-11.5-9.5-11.5 13.5 13.5 13.5 13.5 7.5-.5 7.5-.5 13 1 13 1 17.5-2.5 17.5-2.5 15.5.5 15.5.5h16 16l17.5-.5 17.5-.5 19 1 19 1 15.5 2.5 15.5 2.5 19.5-.5 19.5-.5 18.5-.5 18.5-.5 19 1 19 1 14.5-3.5 14.5-3.5v-11-11l11-9 11-9 11.5-6.5 11.5-6.5 12-1 12-1-.5 9-.5 9-9.5 7.5-9.5 7.5-6-10-6-10 .5 9.5.5 9.5 7 4 7 4 9-6 9-6"/></g><path d="m957 619h1v-1-1l-14.5 1.5-14.5 1.5 14-.5 14-.5" style="fill:#bc9157;stroke:#bc9157"/><path d="m942 118l-29-1 13 1 13 1 1.5-.5 1.5-.5" style="fill:#3d2b0f;stroke:#3d2b0f"/><path d="m935 345h1l-18-10.5-18-10.5h-.5-.5l-6-4-6-4h-.5-.5l-11.5-7-11.5-7-2.5-1-2.5-1-1-1-1-1-1-.5-1-.5-1.5-.5-1.5-.5h-.5-.5l-8-5-8-5-1-.5-1-.5h-.5-.5l-12.5 1.5-12.5 1.5-11.5-2.5-11.5-2.5-7.5-.5-7.5-.5-15.5.5-15.5.5-18-.5-18-.5h-17-17l-15 1-15 1-17.5-.5-17.5-.5-18 1-18 1-16.5 1.5-16.5 1.5h-9-9l-4.5-12-4.5-12 1 21.5 1 21.5-2 16-2 16 1-.5 1-.5.5 1.5.5 1.5-.5 1.5-.5 1.5v1.5 1.5 2 2l-.5.5-.5.5-1-.5-1-.5.5 1.5.5 1.5-.5 1-.5 1 .5.5.5.5.5-.5.5-.5.5 1 .5 1v2 2 1 1 1.5 1.5 1 1l-.5 1.5-.5 1.5-3-6-3-6-.5.5-.5.5v9.5 9.5l1.5-.5 1.5-.5v-1-1h1 1l.5.5.5.5-.5 1.5-.5 1.5v.5.5l1.5-.5 1.5-.5 12.5-8 12.5-8-9.5-3.5-9.5-3.5 7.5-1.5 7.5-1.5 6.5-4.5 6.5-4.5 4 15.5 4 15.5-.5-19-.5-19 3.5 22 3.5 22-.5 1.5-.5 1.5-1-1-1-1 .5-9.5.5-9.5-.5-12.5-.5-12.5 3-15 3-15 14.5-1.5 14.5-1.5 14-2 14-2-11.5-1.5-11.5-1.5-13.5-.5-13.5-.5 17.5-2.5 17.5-2.5 13.5 2.5 13.5 2.5 2.5 5.5 2.5 5.5-2 8-2 8 8.5 5.5 8.5 5.5 8.5-8.5 8.5-8.5h17 17l17 2 17 2 11.5 2.5 11.5 2.5 17-1.5 17-1.5 16.5 1.5 16.5 1.5 17.5 1.5 17.5 1.5 15.5.5 15.5.5 4.5 1.5 4.5 1.5 9.5 4.5 9.5 4.5h11 11" style="fill:#b07d47;stroke:#b07d47"/><path d="m916 97l-20 4 5 2 5 2 5-4 5-4" style="fill:#3d2b0f;stroke:#3d2b0f"/><g style="fill:#9a6b36;stroke:#9a6b36"><path d="m899 324h1l-1-.5-1-.5-1-1-1-1-2-.5-2-.5-1-1-1-1-1.5-1-1.5-1 6 4 6 4"/><path d="m886 316h1l-1-1-1-1-1.5-.5-1.5-.5-1.5-1-1.5-1-1.5-.5-1.5-.5-1-1-1-1-1.5-1-1.5-1-1.5-.5-1.5-.5-1.5-1-1.5-1-1-.5-1-.5 11.5 7 11.5 7"/></g><path d="m885 151l-27-1h5 5l6.5-1.5 6.5-1.5 2 2 2 2" style="fill:#3d2b0f;stroke:#3d2b0f"/><path d="m878 347l-31-5 13 2 13 2 2.5.5 2.5.5" style="fill:#b07d47;stroke:#b07d47"/><path d="m850 296h1l-.5-1-.5-1h-1-1l-.5-.5-.5-.5-1-.5-1-.5-.5-.5-.5-.5-.5-.5-.5-.5-.5-.5-.5-.5-1-.5-1-.5h-1-1l-.5-.5-.5-.5-1.5-.5-1.5-.5 8 5 8 5" style="fill:#9a6b36;stroke:#9a6b36"/><path d="m847 476l-23-26 .5-1.5.5-1.5 1 1 1 1 1 1 1 1h1 1l.5 1 .5 1 1 1 1 1 1 1 1 1 1 1 1 1 .5.5.5.5.5 1 .5 1v1.5 1.5l-1.5.5-1.5.5-.5.5-.5.5h-.5-.5l.5 1.5.5 1.5-.5 1.5-.5 1.5-.5 2.5-.5 2.5-1 1.5-1 1.5-1 1-1 1h-2-2l-1 .5-1 .5-1-1.5-1-1.5h-1-1l-1-1.5-1-1.5-2 .5-2 .5 1 1 1 1v1 1l1 1 1 1 1 .5 1 .5v1.5 1.5l-.5 1.5-.5 1.5v1 1l-.5.5-.5.5-1 .5-1 .5-.5-.5-.5-.5h-1-1l-.5-.5-.5-.5-1-.5-1-.5h-2-2-1-1l-1 .5-1 .5-1.5.5-1.5.5h-1-1-1.5-1.5l-2 .5-2 .5-.5.5-.5.5-1 .5-1 .5-2 .5-2 .5.5.5.5.5h2 2l2 .5 2 .5 1 .5 1 .5h1.5 1.5 1.5 1.5l.5-.5.5-.5h1 1 1 1 1.5 1.5 1 1 2 2l1-.5 1-.5.5.5.5.5v1 1l.5.5.5.5v1.5 1.5.5.5 1 1l1-.5 1-.5 1-1 1-1-.5-1.5-.5-1.5 1-.5 1-.5 1 1 1 1 1-1 1-1 1.5-1 1.5-1 1-2 1-2 1-1.5 1-1.5 1-1 1-1 1.5-1 1.5-1 1-1 1-1 1.5-1 1.5-1 .5-1.5.5-1.5.5-1.5.5-1.5.5-2 .5-2" style="fill:#9d8464;stroke:#9d8464"/><path d="m844 562l-7-24-6.5 5-6.5 5-13.5 6.5-13.5 6.5-18.5 1.5-18.5 1.5-17.5-2.5-17.5-2.5-15.5-4.5-15.5-4.5-14-5-14-5-5-1-5-1 4-5 4-5 17-6 17-6 .5-2 .5-2v-1-1l-.5-.5-.5-.5-.5-.5-.5-.5v-1.5-1.5l.5-.5.5-.5-.5-.5-.5-.5v-1-1-1.5-1.5l-.5 1-.5 1-2 .5-2 .5-14 7-14 7-12.5 7.5-12.5 7.5-15.5 4.5-15.5 4.5-11.5 6.5-11.5 6.5-16 4-16 4-5 8-5 8-10.5-2.5-10.5-2.5-12 7-12 7-14.5 4.5-14.5 4.5-14.5 2.5-14.5 2.5 8.5 10.5 8.5 10.5 17.5 2.5 17.5 2.5-12-8-12-8 7-2 7-2 15 1 15 1 15.5-2.5 15.5-2.5 7-4 7-4 7-8 7-8 11 2 11 2 13-5 13-5 10-5.5 10-5.5 14.5-.5 14.5-.5 11.5 3.5 11.5 3.5v1.5 1.5l-.5 1.5-.5 1.5-.5 2-.5 2-.5 1.5-.5 1.5v2.5 2.5l-.5 1.5-.5 1.5-6.5 13.5-6.5 13.5-9.5 10.5-9.5 10.5-11.5 8.5-11.5 8.5-12.5 7.5-12.5 7.5-20.5 9-20.5 9h-.5-.5l-28 6-28 6h-.5-.5l-18.5 1.5-18.5 1.5h-19-19l-17.5-2.5-17.5-2.5-16.5-3.5-16.5-3.5-15.5-4.5-15.5-4.5-13-7-13-7-13-7-13-7-11.5-8.5-11.5-8.5-8.5-11.5-8.5-11.5-4.5-15.5-4.5-15.5 1-17 1-17 7-13 7-13 9.5-10.5 9.5-10.5 14.5-11 14.5-11 .5-1 .5-1 1.5-1 1.5-1 1.5-.5 1.5-.5 1.5-.5 1.5-.5.5-.5.5-.5 1-.5 1-.5 1.5-.5 1.5-.5.5-.5.5-.5 1-.5 1-.5 1.5-1 1.5-1 13-2.5 13-2.5 11-6 11-6 33-6 33-6 20.5-7 20.5-7 18.5-.5 18.5-.5 17.5 8.5 17.5 8.5-20.5-12-20.5-12v-1.5-1.5l.5-1 .5-1v-1-1l.5-1.5.5-1.5v-1.5-1.5-1-1l-.5-1.5-.5-1.5.5-1 .5-1v-1-1l-.5-.5-.5-.5v-1-1-1.5-1.5-1-1-1.5-1.5l-1.5.5-1.5.5-18 5.5-18 5.5-19.5-1.5-19.5-1.5h-.5-.5l-.5-1-.5-1h-2.5-2.5l-1.5-.5-1.5-.5-1-1-1-1-1.5-1-1.5-1-.5-.5-.5-.5-.5.5-.5.5 1 1.5 1 1.5v.5.5l32 4.5 32 4.5 1.5-.5 1.5-.5h1 1l1-.5 1-.5h1 1l.5-.5.5-.5h1 1l1-.5 1-.5h1 1l.5-.5.5-.5.5-.5.5-.5 1-.5 1-.5 1-.5 1-.5 1-1 1-1 .5-.5.5-.5.5.5.5.5v1 1 1.5 1.5 2 2l.5.5.5.5v1.5 1.5 2 2l-.5 1.5-.5 1.5v1.5 1.5l-.5 1.5-.5 1.5v2 2l-2 .5-2 .5h-2-2-1.5-1.5-3-3-2-2l-2 .5-2 .5-2 .5-2 .5-24.5 7-24.5 7-.5.5-.5.5-2-.5-2-.5h-1-1l-1 .5-1 .5h-2-2l-.5.5-.5.5-16.5 2.5-16.5 2.5-13 3-13 3-8.5 1.5-8.5 1.5-13 8.5-13 8.5-.5 1.5-.5 1.5-17.5 7.5-17.5 7.5-2 .5-2 .5-.5.5-.5.5h-1.5-1.5-1-1-1-1-1-1-1.5-1.5l-.5.5-.5.5-.5.5-.5.5h1 1 1 1 1 1 1.5 1.5l1.5.5 1.5.5h2 2l2-.5 2-.5 1 .5 1 .5-10 10-10 10-13 24.5-13 24.5-.5 1-.5 1-1 1.5-1 1.5v1 1l1 1 1 1-.5 1.5-.5 1.5v2.5 2.5l.5 1.5.5 1.5v2.5 2.5l.5 2 .5 2 6 15.5 6 15.5 10.5 13.5 10.5 13.5 24.5 15 24.5 15 14 6.5 14 6.5 14 4 14 4 29 5 29 5h19 19l18.5-1 18.5-1 17.5-2.5 17.5-2.5 15.5-4.5 15.5-4.5 15-5 15-5 23.5-14 23.5-14 15-11 15-11-.5 2-.5 2v2 2l8.5-23 8.5-23 9-9 9-9 19-1 19-1 19.5-.5 19.5-.5h15.5 15.5l14.5-4.5 14.5-4.5" style="fill:#dac9ab;stroke:#dac9ab"/><path d="m841 496l1-3-.5-.5-.5-.5h-1-1l-.5.5-.5.5-.5 1-.5 1v1 1l-.5.5-.5.5-.5.5-.5.5-1 .5-1 .5-1.5.5-1.5.5-1.5 1-1.5 1-1 1-1 1-1-1-1-1-1 .5-1 .5.5 1.5.5 1.5-1 1-1 1-1 .5-1 .5-1.5 1.5-1.5 1.5 1 .5 1 .5.5-.5.5-.5.5-.5.5-.5 1-.5 1-.5.5-.5.5-.5h1 1v-1-1l.5-.5.5-.5 1-.5 1-.5h1 1 1 1l-.5 1.5-.5 1.5-.5 1-.5 1h-1-1l-.5.5-.5.5-1 .5-1 .5-.5.5-.5.5h-1-1l-.5.5-.5.5h-1.5-1.5-1-1l-1 1-1 1h1.5 1.5l1.5.5 1.5.5h2 2l1 .5 1 .5-9 2-9 2 2-2.5 2-2.5-2-.5-2-.5h-1.5-1.5-1.5-1.5l.5.5.5.5.5.5.5.5v1 1l-.5-.5-.5-.5-1-.5-1-.5-.5-.5-.5-.5h-1-1-1-1l1 .5 1 .5.5.5.5.5v1 1l-.5 1.5-.5 1.5-1 .5-1 .5-1.5-.5-1.5-.5-2 .5-2 .5-1.5-.5-1.5-.5-3 .5-3 .5 3 .5 3 .5 1.5.5 1.5.5v1 1l-.5 1-.5 1-2 1-2 1 19-2.5 19-2.5 10-16.5 10-16.5" style="fill:#bc9157;stroke:#bc9157"/><path d="m841 2l1-2h-20.5-20.5-20-20-20-20-20-20-20-20-20-20-20-20-20-20-20-20-11-11l1.5.5 1.5.5h1.5 1.5 1 1l.5.5.5.5h-1-1v.5.5h2 2l-.5 1.5-.5 1.5-.5 1-.5 1 3.5 13.5 3.5 13.5.5 30 .5 30 9.5 11.5 9.5 11.5h19 19l18.5-.5 18.5-.5h18.5 18.5 17 17l18.5-.5 18.5-.5h16 16l10 3 10 3 14.5-1 14.5-1 7.5-12.5 7.5-12.5 6-5 6-5-4.5-7.5-4.5-7.5 2-7 2-7-4.5-3.5-4.5-3.5 2.5-7.5 2.5-7.5 3.5-8 3.5-8 4.5-6 4.5-6-9-1-9-1 16-1 16-1h17 17" style="fill:#573d1a;stroke:#573d1a"/><path d="m840 465v-3l-.5-1-.5-1-.5-.5-.5-.5-1-1-1-1-1-1-1-1-1-1-1-1-1 1-1 1 1 .5 1 .5.5.5.5.5v1 1l.5.5.5.5.5 1 .5 1 1 2 1 2 1.5-.5 1.5-.5" style="fill:#9a6b36;stroke:#9a6b36"/><path d="m836 467l1-1-1-2-1-2-.5-1-.5-1-.5-.5-.5-.5v-1-1l-.5-.5-.5-.5-1-.5-1-.5 1-1 1-1-.5-1-.5-1h-1-1l-1-1-1-1-1-1-1-1-.5 1.5-.5 1.5 1.5 1 1.5 1 .5 1.5.5 1.5 1.5 1 1.5 1 .5 2 .5 2 1 1 1 1 .5 2 .5 2h.5.5" style="fill:#b07d47;stroke:#b07d47"/><path d="m835 473l1-3-.5-1.5-.5-1.5-.5-2-.5-2-1-1-1-1-.5-2-.5-2-1.5-1-1.5-1 1 1.5 1 1.5.5 1 .5 1v1 1l.5.5.5.5.5.5.5.5.5 1.5.5 1.5v1.5 1.5 1 1l-.5 1.5-.5 1.5-.5 1-.5 1v1 1l-1.5.5-1.5.5-.5 1-.5 1-1 .5-1 .5h2 2l1-1 1-1 1-1.5 1-1.5.5-2.5.5-2.5" style="fill:#bc9157;stroke:#bc9157"/><path d="m831 285h1l-15-8.5-15-8.5-15-5-15-5-18.5-1.5-18.5-1.5h-18-18l-18.5.5-18.5.5h-20-20l-17.5.5-17.5.5h-20-20l-20 .5-20 .5v1.5 1.5l-.5 1-.5 1v.5.5l4.5 12 4.5 12h9 9l16.5-1.5 16.5-1.5 18-1 18-1 17.5.5 17.5.5 15-1 15-1h17 17l18 .5 18 .5 15.5-.5 15.5-.5 7.5.5 7.5.5 11.5 2.5 11.5 2.5 12.5-1.5 12.5-1.5" style="fill:#9a6b36;stroke:#9a6b36"/><path d="m830 509l1-3h-1-1-1-1l-1 .5-1 .5-.5.5-.5.5v1 1h-1-1l-.5.5-.5.5-1 .5-1 .5-.5.5-.5.5-.5.5-.5.5-1-.5-1-.5-1 1-1 1h-1-1l-1 .5-1 .5-1 .5-1 .5 2 .5 2 .5 1-.5 1-.5 1-1 1-1h1 1 1.5 1.5l.5-.5.5-.5h1 1l.5-.5.5-.5 1-.5 1-.5.5-.5.5-.5h1 1l.5-1 .5-1" style="fill:#9d8464;stroke:#9d8464"/><path d="m825 543l-4-11h-.5-.5l-1 .5-1 .5-1 1-1 1-2 1-2 1-1 .5-1 .5h-1-1l-.5.5-.5.5h-1-1l-1 .5-1 .5-.5.5-.5.5-.5.5-.5.5h-1-1l-1 .5-1 .5h-1.5-1.5l-2-.5-2-.5-1-1-1-1-1.5-.5-1.5-.5-2 .5-2 .5-1.5-.5-1.5-.5h-2.5-2.5l-1.5.5-1.5.5h-1.5-1.5l2 .5 2 .5h1 1l.5-.5.5-.5.5.5.5.5h1.5 1.5 2 2l.5.5.5.5h1.5 1.5l1.5.5 1.5.5.5.5.5.5.5 1 .5 1 .5 1.5.5 1.5.5.5.5.5h1.5 1.5v1.5 1.5l-1 .5-1 .5h-2.5-2.5l-.5.5-.5.5-2 .5-2 .5-1 .5-1 .5h1.5 1.5l1 .5 1 .5 1.5-.5 1.5-.5h1 1l.5-.5.5-.5h1 1l1-.5 1-.5h1 1l.5-.5.5-.5.5-.5.5-.5h1.5 1.5l.5-.5.5-.5h1 1l.5.5.5.5 2-.5 2-.5 2-.5 2-.5 1.5-.5 1.5-.5 1.5-.5 1.5-.5v-1.5-1.5h1 1l.5-1.5.5-1.5" style="fill:#bc9157;stroke:#bc9157"/><path d="m825 519l-2-1h-2-2l-1.5-.5-1.5-.5h-1.5-1.5l-1 .5-1 .5-2 2.5-2 2.5 9-2 9-2" style="fill:#bda685;stroke:#bda685"/><path d="m820 532h1v-1.5-1.5l-19 2.5-19 2.5-1 .5-1 .5-1.5.5-1.5.5h-1.5-1.5-2-2l-1.5-.5-1.5-.5h-2.5-2.5-2-2l-3-.5-3-.5-.5 1.5-.5 1.5 2 .5 2 .5 1.5.5 1.5.5 1 .5 1 .5h3 3 1.5 1.5l1.5-.5 1.5-.5h2.5 2.5l1.5.5 1.5.5 2-.5 2-.5 1.5.5 1.5.5 1 1 1 1 2 .5 2 .5-1-.5-1-.5-1.5-1-1.5-1-.5-1-.5-1-2-.5-2-.5 1.5-.5 1.5-.5 2-.5 2-.5 1-1 1-1h2 2l1.5.5 1.5.5 2-.5 2-.5 1 1.5 1 1.5 1-1 1-1 2-.5 2-.5.5.5.5.5-.5 1.5-.5 1.5 2-1 2-1 1-1 1-1 1-.5 1-.5" style="fill:#9d8464;stroke:#9d8464"/><path d="m820 489v-3l-1-.5-1-.5-1-1-1-1-1-.5-1-.5-.5-.5-.5-.5-1-.5-1-.5-.5-.5-.5-.5-1-.5-1-.5h-.5-.5l-1-.5-1-.5h-1-1l-1-.5-1-.5-1.5-.5-1.5-.5-1.5-1-1.5-1-1-1-1-1-1.5-.5-1.5-.5-.5-.5-.5-.5-1-.5-1-.5-1.5-.5-1.5-.5h-1-1l-1-.5-1-.5-.5-1.5-.5-1.5-.5-1.5-.5-1.5-6.5-9-6.5-9 12-3.5 12-3.5-1-1-1-1-1.5-.5-1.5-.5-1.5-1-1.5-1-1.5-.5-1.5-.5-2-.5-2-.5-2-.5-2-.5h-.5-.5-1.5-1.5-1.5-1.5-1-1l-1-.5-1-.5h-2-2l-.5-.5-.5-.5h-1.5-1.5l-1.5-.5-1.5-.5h-2-2l-.5-.5-.5-.5h-1.5-1.5-2-2-1-1-1.5-1.5-1.5-1.5-.5-.5l2 9.5 2 9.5-10.5 13.5-10.5 13.5 1.5 15.5 1.5 15.5 20.5 2 20.5 2-17.5-7-17.5-7v-2-2l35.5 5 35.5 5 2-.5 2-.5h1.5 1.5 1 1l1.5-.5 1.5-.5 1-.5 1-.5h1 1 2 2l1 .5 1 .5.5.5.5.5h1 1l.5.5.5.5 1-.5 1-.5.5-.5.5-.5v-1-1l.5-1.5.5-1.5" style="fill:#faf3da;stroke:#faf3da"/><path d="m819 453l1-3-.5-.5-.5-.5-.5-.5-.5-.5-.5-.5-.5-.5-1-1-1-1-1-.5-1-.5h-1-1l-.5 1.5-.5 1.5-.5 1-.5 1h-1-1l-1.5-.5-1.5-.5h-1.5-1.5v-1-1l-.5-.5-.5-.5v-2-2l3 10 3 10-14-.5-14-.5 1.5 1 1.5 1 1 1 1 1 1.5 1 1.5 1 1.5.5 1.5.5 1.5.5 1.5.5 1.5 1 1.5 1 1 1 1 1 1.5 1 1.5 1 1.5.5 1.5.5 1.5 1 1.5 1 1 .5 1 .5 1 .5 1 .5.5.5.5.5 1 .5 1 .5.5.5.5.5 1 .5 1 .5v-1-1l-1-1-1-1 2.5-13 2.5-13" style="fill:#dac9ab;stroke:#dac9ab"/><path d="m818 508v-1h-.5-.5l-1 .5-1 .5-1.5.5-1.5.5h-1-1l-1 .5-1 .5-1.5-.5-1.5-.5h-1-1l-.5.5-.5.5-.5.5-.5.5-1 .5-1 .5.5.5.5.5.5-.5.5-.5h1 1v1 1l-.5.5-.5.5h-1.5-1.5-1-1l-.5-.5-.5-.5h-1.5-1.5-1-1l-.5.5-.5.5h-1-1-1.5-1.5-1-1l-.5-.5-.5-.5h-1-1l-.5-.5-.5-.5h-1.5-1.5l-.5-.5-.5-.5h-1-1-1-1l-.5-.5-.5-.5-1-.5-1-.5h-1-1l-1-.5-1-.5h-1-1-.5-.5l-1 .5-1 .5-1-.5-1-.5h-2-2-1-1-1.5-1.5l-1.5.5-1.5.5-.5 1.5-.5 1.5v1 1l-.5.5-.5.5.5.5.5.5.5.5.5.5-.5 1-.5 1-.5.5-.5.5-1 .5-1 .5h-2-2-1.5-1.5l22.5 4.5 22.5 4.5-23.5-4.5-23.5-4.5-2-.5-2-.5-1-1.5-1-1.5 1.5-.5 1.5-.5h2.5 2.5l1-1 1-1h-3-3l-10-7-10-7-1-.5-1-.5h-2-2l-1.5-1-1.5-1-1-1-1-1-1.5-1-1.5-1-1.5.5-1.5.5 2 1.5 2 1.5 2 1 2 1 1 .5 1 .5.5.5.5.5h1.5 1.5l1 1 1 1-.5 1.5-.5 1.5-1 .5-1 .5h-3-3l.5 1 .5 1v2 2l-.5 2-.5 2 .5 1.5.5 1.5.5 2.5.5 2.5v-1.5-1.5-2-2l-.5-1.5-.5-1.5 1-1.5 1-1.5 1.5.5 1.5.5 1 1.5 1 1.5 1.5.5 1.5.5 2 1 2 1 1 .5 1 .5h1 1 1 1l.5.5.5.5 1 .5 1 .5v1 1l.5.5.5.5.5-.5.5-.5v1 1l-.5 1-.5 1v1 1l-1 .5-1 .5 1 .5 1 .5h1.5 1.5 1 1l1.5.5 1.5.5.5.5.5.5h1.5 1.5l-1-.5-1-.5 1.5-.5 1.5-.5h2 2l2 .5 2 .5h2 2 1.5 1.5l3 .5 3 .5h2 2 2.5 2.5l1.5.5 1.5.5h2 2 1.5 1.5l1.5-.5 1.5-.5 1-.5 1-.5 2-1 2-1 .5-1 .5-1v-1-1l-1.5-.5-1.5-.5-3-.5-3-.5 8-4 8-4h1 1 1 1l.5.5.5.5 1 .5 1 .5.5.5.5.5v-1-1l-.5-.5-.5-.5-.5-.5-.5-.5h1.5 1.5 1.5 1.5l1-.5 1-.5 1-.5 1-.5h1 1l1-1 1-1 1.5-1.5 1.5-1.5v-1-1" style="fill:#bda685;stroke:#bda685"/><path d="m817 507h1v-1.5-1.5l-.5-.5-.5-.5v-1-1l-.5-.5-.5-.5-1 .5-1 .5.5 1.5.5 1.5.5 1 .5 1-28-1-28-1h-1.5-1.5-1.5-1.5l-20.5-2-20.5-2h-.5-.5l-1 .5-1 .5 10 7 10 7 1-.5 1-.5.5-1 .5-1v-1-1l.5-.5.5-.5h1 1 1.5 1.5 2 2 1 1l1-.5 1-.5h2 2 1 1l.5-1 .5-1 1.5-.5 1.5-.5.5.5.5.5 1 .5 1 .5 1 1 1 1h1 1l19.5 2.5 19.5 2.5v-1-1h-1-1l-.5.5-.5.5-.5-.5-.5-.5 1-.5 1-.5.5-.5.5-.5.5-.5.5-.5h1 1l1.5.5 1.5.5 1-.5 1-.5h1 1l1.5-.5 1.5-.5 1-.5 1-.5" style="fill:#dac9ab;stroke:#dac9ab"/><path d="m816 506l-1-2-.5-1.5-.5-1.5-.5 1.5-.5 1.5h-26.5-26.5l28 1 28 1" style="fill:#e7dcbf;stroke:#e7dcbf"/><path d="m813 534l-1-1-2 .5-2 .5-1 1-1 1-1-1.5-1-1.5-2 .5-2 .5.5 1 .5 1-.5 1-.5 1-1 .5-1 .5h-2.5-2.5l-2.5-.5-2.5-.5.5 1 .5 1 1.5 1 1.5 1 1 .5 1 .5h1.5 1.5l1-.5 1-.5h1 1l.5-.5.5-.5.5-.5.5-.5 1-.5 1-.5h1 1l.5-.5.5-.5h1 1l1-.5 1-.5.5-1.5.5-1.5" style="fill:#b07d47;stroke:#b07d47"/><path d="m813 504l1-3h-2-2-1-1-1.5-1.5-1-1-1-1l-.5.5-.5.5h-1.5-1.5-1.5-1.5-.5-.5-2.5-2.5-1-1-2-2-2-2-1.5-1.5-1-1-1-1v-1-1l-1-.5-1-.5h-1-1l-.5.5-.5.5h-1-1l-1 .5-1 .5h-1-1l-.5.5-.5.5.5 1 .5 1h26.5 26.5" style="fill:#faf3da;stroke:#faf3da"/><path d="m807 554l1-1-.5-.5-.5-.5h-1-1l-.5.5-.5.5h-1.5-1.5l-.5.5-.5.5-.5.5-.5.5h-1-1l-1 .5-1 .5h-1-1l-.5.5-.5.5h-1-1l-1.5.5-1.5.5-1-.5-1-.5h-1.5-1.5l-.5.5-.5.5h-1-1l-.5.5-.5.5-.5.5-.5.5h1 1l1 .5 1 .5h2 2 2.5 2.5l1.5-.5 1.5-.5 2-.5 2-.5h2 2l1.5-.5 1.5-.5 1-1 1-1 .5-1 .5-1" style="fill:#9d8464;stroke:#9d8464"/><g style="fill:#e7dcbf;stroke:#e7dcbf"><path d="m807 478h1l-1-.5-1-.5-1.5-1-1.5-1-1.5-.5-1.5-.5-1.5-1-1.5-1-1-1-1-1-1.5-1-1.5-1-1.5-.5-1.5-.5-1.5-.5-1.5-.5-1.5-1-1.5-1-1-1-1-1-1.5-1-1.5-1 .5 1.5.5 1.5.5 1.5.5 1.5 1 .5 1 .5h1 1l1.5.5 1.5.5 1 .5 1 .5.5.5.5.5 1.5.5 1.5.5 1 1 1 1 1.5 1 1.5 1 1.5.5 1.5.5 1 .5 1 .5h1 1l1 .5 1 .5"/><path d="m806 461l-6-20v-1.5-1.5l-1 1-1 1-1-1-1-1-2-.5-2-.5-1.5-1-1.5-1-12 3.5-12 3.5 6.5 9 6.5 9 14 .5 14 .5"/></g><path d="m805 309l-28-4-15.5.5-15.5.5-16.5.5-16.5.5-16.5-.5-16.5-.5-16.5.5-16.5.5 11.5 4.5 11.5 4.5 15.5-1.5 15.5-1.5h18 18l17-1 17-1 16.5-1 16.5-1h.5.5" style="fill:#bc9157;stroke:#bc9157"/><path d="m805 29h-12l-.5 2.5-.5 2.5 6.5-2.5 6.5-2.5" style="fill:#573d1a;stroke:#573d1a"/><path d="m802 515l1-1-19.5-2.5-19.5-2.5 1 .5 1 .5h1 1l1 .5 1 .5.5.5.5.5h1 1 1 1l.5.5.5.5h1.5 1.5l.5.5.5.5h1 1l.5.5.5.5h1 1 1.5 1.5 1 1l.5-.5.5-.5h1 1 1.5 1.5l.5.5.5.5h1 1 1.5 1.5" style="fill:#c1b5a1;stroke:#c1b5a1"/><path d="m801 536l-1-2-1.5-.5-1.5-.5h-2-2l-1 1-1 1-2 .5-2 .5-1.5.5-1.5.5 2 .5 2 .5 2.5.5 2.5.5h2.5 2.5l1-.5 1-.5.5-1 .5-1" style="fill:#827661;stroke:#827661"/><path d="m797 525l1-3v-1-1l-.5-.5-.5-.5-1-.5-1-.5-8 4-8 4 3-.5 3-.5 1.5.5 1.5.5 2-.5 2-.5 1.5.5 1.5.5 1-.5 1-.5" style="fill:#9d8464;stroke:#9d8464"/><path d="m796 553v-3h-1.5-1.5l-.5-.5-.5-.5-.5-1.5-.5-1.5-.5-1-.5-1-.5-.5-.5-.5-1.5-.5-1.5-.5h-1.5-1.5l-.5-.5-.5-.5h-2-2-1.5-1.5l-.5-.5-.5-.5-.5.5-.5.5h-1-1l-2-.5-2-.5h-3-3-.5-.5-2-2l-1.5-.5-1.5-.5-2-.5-2-.5-1.5-.5-1.5-.5h-2.5-2.5l-2-1-2-1h-1.5-1.5l26 5 26 5-2 .5-2 .5h-2-2-1-1-1.5-1.5-3-3l1 .5 1 .5h2 2 1 1 1.5 1.5l.5 1.5.5 1.5 1.5.5 1.5.5.5 1 .5 1-1 1-1 1h-1-1l-2 .5-2 .5 2 .5 2 .5h1.5 1.5l1-.5 1-.5 2-.5 2-.5.5-.5.5-.5h2.5 2.5l1-.5 1-.5" style="fill:#d5ac78;stroke:#d5ac78"/><path d="m793 502h1l-1-.5-1-.5-2-.5-2-.5h-2-2l-.5-.5-.5-.5 2-.5 2-.5 1-.5 1-.5-3.5 2.5-3.5 2.5h2 2 1 1 2.5 2.5" style="fill:#dac9ab;stroke:#dac9ab"/><path d="m789 497l1-1-35.5-5-35.5-5 1 1 1 1v1 1h-1-1l17.5 7 17.5 7h1.5 1.5 1.5 1.5l-.5-1-.5-1 .5-.5.5-.5h1 1l1-.5 1-.5h1 1l.5-.5.5-.5h1 1l1 .5 1 .5v1 1h1 1 1 1 1.5 1.5 2 2l3.5-2.5 3.5-2.5" style="fill:#e7dcbf;stroke:#e7dcbf"/><g style="fill:#dac9ab;stroke:#dac9ab"><path d="m786 545l-52-10-.5-.5-.5-.5h-2-2l-1 .5-1 .5.5.5.5.5.5.5.5.5h1 1v.5.5 1 1h1 1l.5.5.5.5h1.5 1.5l.5.5.5.5h1 1 1 1l1 1 1 1h1.5 1.5 2 2l1 1 1 1h2.5 2.5 2 2 2.5 2.5 3 3 1.5 1.5 1 1 2 2l2-.5 2-.5"/><path d="m783 553l-1-2-1.5-.5-1.5-.5h-.5-.5l-1-.5-1-.5h-2-2l-2-.5-2-.5h-2-2l-2-.5-2-.5h-2-2-2-2-2.5-2.5-2-2l-3-.5-3-.5-15-3-15-3 15 5.5 15 5.5 1.5.5 1.5.5 1.5-.5 1.5-.5h-1-1l-.5-.5-.5-.5h-1-1-1.5-1.5l-.5-.5-.5-.5-.5-.5-.5-.5h1 1 1.5 1.5 2 2 1 1 1.5 1.5 2 2 1 1 1.5 1.5l1.5.5 1.5.5 1.5.5 1.5.5h1 1 1.5 1.5l.5.5.5.5.5.5.5.5h1 1v1 1l-1 .5-1 .5-.5.5-.5.5h-1.5-1.5-2-2-1-1l-1 .5-1 .5h2 2l1.5.5 1.5.5h1 1l1-.5 1-.5h2 2l1.5-.5 1.5-.5 2-.5 2-.5h1 1l1-1 1-1"/></g><path d="m781 558l1-1h-1.5-1.5-.5-.5l-21-2-21-2 3.5 3.5 3.5 3.5 19 .5 19 .5-1-.5-1-.5h-1-1l.5-.5.5-.5.5-.5.5-.5h1 1" style="fill:#bc9157;stroke:#bc9157"/><path d="m781 121l-22-1-.5 1.5-.5 1.5h1 1 1 1l1-.5 1-.5.5.5.5.5h1 1l.5-.5.5-.5h1.5 1.5 1 1l.5.5.5.5h1 1 1 1l.5-.5.5-.5 1-.5 1-.5" style="fill:#573d1a;stroke:#573d1a"/><path d="m779 531l-45-9h-1-1l23.5 4.5 23.5 4.5" style="fill:#dac9ab;stroke:#dac9ab"/><g style="fill:#bda685;stroke:#bda685"><path d="m778 557h1l-2-.5-2-.5-1.5.5-1.5.5h-2-2l-1 .5-1 .5h-1-1l-1.5-.5-1.5-.5h-2-2l-1.5-.5-1.5-.5-1.5-.5-1.5-.5h-1-1-1-1l-.5-.5-.5-.5-1-.5-1-.5h-1-1l-1-.5-1-.5-1.5-.5-1.5-.5-.5 1-.5 1 21 2 21 2"/><path d="m778 550h1l-.5-1.5-.5-1.5h-1.5-1.5-1-1-2-2l-1-.5-1-.5h-2.5-2.5-2-2-2.5-2.5l-1-1-1-1h-2-2-1.5-1.5-2-2-1.5-1.5v1 1l3 .5 3 .5h2 2 2.5 2.5 2 2 2 2l2 .5 2 .5h2 2l2 .5 2 .5h2 2l1 .5 1 .5"/></g><path d="m774 368l-29-5-14.5 1.5-14.5 1.5 4.5.5 4.5.5 13 2 13 2 11.5-1.5 11.5-1.5" style="fill:#bc9157;stroke:#bc9157"/><path d="m771 554v-2h-1-1l-.5-.5-.5-.5-.5-.5-.5-.5h-1.5-1.5-1-1l-1.5-.5-1.5-.5h-1.5-1.5-1.5-1.5-2.5-2.5-2-2v1 1l2 .5 2 .5 1.5.5 1.5.5 1.5 1 1.5 1h2 2 2.5 2.5 3 3l1-.5 1-.5" style="fill:#faf3da;stroke:#faf3da"/><path d="m769 427h1v-.5-.5h-.5-.5-1.5-1.5-1-1l-1-.5-1-.5h-1-1-1-1l-.5-.5-.5-.5h-1-1-1.5-1.5l-.5-.5-.5-.5h-1-1l-.5-.5-.5-.5h-1.5-1.5-1-1l-.5-.5-.5-.5h-1-1-1-1l-1 .5-1 .5h-1-1-1-1-1-1l-1 .5-1 .5h1.5 1.5 1.5 1.5 1 1 2 2 1.5 1.5l.5.5.5.5h2 2l1.5.5 1.5.5h1.5 1.5l.5.5.5.5h2 2l1 .5 1 .5h1 1 1.5 1.5 1.5 1.5" style="fill:#e7dcbf;stroke:#e7dcbf"/><path d="m769 426h1l-18.5-5.5-18.5-5.5-5.5 2-5.5 2h3 3l1.5-.5 1.5-.5.5.5.5.5-1.5 1-1.5 1-1.5.5-1.5.5h-1-1-1.5-1.5l-1.5.5-1.5.5-.5.5-.5.5h-1.5-1.5l1.5.5 1.5.5 2-.5 2-.5 1.5-.5 1.5-.5h1.5 1.5.5.5l1-.5 1-.5h1 1 1 1 1 1l1-.5 1-.5h1 1 1 1l.5.5.5.5h1 1 1.5 1.5l.5.5.5.5h1 1l.5.5.5.5h1.5 1.5 1 1l.5.5.5.5h1 1 1 1l1 .5 1 .5h1 1 1.5 1.5" style="fill:#dac9ab;stroke:#dac9ab"/><path d="m769 92l-12-6 3 4 3 4 3-1 3-1" style="fill:#3d2b0f;stroke:#3d2b0f"/><path d="m768 556l1-1h-3-3-2.5-2.5-2-2l-1.5-1-1.5-1-1.5-.5-1.5-.5-2-.5-2-.5v-1-1h2 2 2.5 2.5 1.5 1.5 1.5 1.5l-1.5-.5-1.5-.5h-1.5-1.5-1-1-2-2-1.5-1.5-1-1-2-2-1.5-1.5-1-1l.5.5.5.5.5.5.5.5h1.5 1.5 1 1l.5.5.5.5h1 1l-1.5.5-1.5.5 1 .5 1 .5h1 1l1 .5 1 .5.5.5.5.5h1 1 1 1l1.5.5 1.5.5 1.5.5 1.5.5 1-.5 1-.5h1 1 2 2 1.5 1.5" style="fill:#e7dcbf;stroke:#e7dcbf"/><path d="m767 254h1l-19.5-1-19.5-1h-19-19-20-20-17-17l-19 1-19 1h39.5 39.5 1.5 1.5 1 1 .5.5 2 2l20.5-.5 20.5-.5 24 .5 24 .5h2.5 2.5 2.5 2.5" style="fill:#3d2b0f;stroke:#3d2b0f"/><path d="m761 509h1l-1-1-1-1-1-.5-1-.5-.5-.5-.5-.5-1.5.5-1.5.5-.5 1-.5 1h-1-1-2-2l-1 .5-1 .5h-1-1-2-2-1.5-1.5-1-1l-.5.5-.5.5v1 1l-.5 1-.5 1-1 .5-1 .5h3 3l-1 1-1 1h2 2l1.5-1 1.5-1 1.5-1 1.5-1 .5-1.5.5-1.5 1.5-.5 1.5-.5h1.5 1.5 1 1 2 2l1 .5 1 .5 1-.5 1-.5" style="fill:#d5ac78;stroke:#d5ac78"/><path d="m760 540h1l-1-.5-1-.5-1.5-.5-1.5-.5-2-.5-2-.5.5-1.5.5-1.5h-1.5-1.5-2-2l-2-.5-2-.5h-2-2l-1.5.5-1.5.5 1 .5 1 .5 2 1 2 1h2.5 2.5l1.5.5 1.5.5 2 .5 2 .5 1.5.5 1.5.5h2 2" style="fill:#bc9157;stroke:#bc9157"/><path d="m756 254h1l-24-.5-24-.5-20.5.5-20.5.5h22.5 22.5 21.5 21.5" style="fill:#573d1a;stroke:#573d1a"/><path d="m750 271l-37-1 6 1 6 1 12.5-.5 12.5-.5" style="fill:#b07d47;stroke:#b07d47"/><path d="m746 166l-9 7-1.5 13.5-1.5 13.5 2-4 2-4 4-13 4-13" style="fill:#3d2b0f;stroke:#3d2b0f"/><path d="m745 518l-1-1-.5-.5-.5-.5.5-.5.5-.5v-1-1l-1.5 1-1.5 1-1.5 1-1.5 1h-2-2-2.5-2.5l-1.5.5-1.5.5 1 1.5 1 1.5 2 .5 2 .5h1 1 1.5 1.5 2 2l1-.5 1-.5.5-.5.5-.5.5-1 .5-1" style="fill:#bc9157;stroke:#bc9157"/><path d="m732 419l-1-1-1.5.5-1.5.5h-3-3l-1 .5-1 .5h-1-1-1.5-1.5-1-1-1-1l-.5.5-.5.5h-1-1l-1 .5-1 .5-.5.5-.5.5v-1-1l-.5.5-.5.5-.5 1-.5 1h-1-1v1 1l-.5.5-.5.5-.5 1-.5 1v1 1l.5.5.5.5v1.5 1.5l1.5-1 1.5-1 1-.5 1-.5.5-1 .5-1 .5-1.5.5-1.5.5-.5.5-.5.5-.5.5-.5h1 1l1.5-.5 1.5-.5h1.5 1.5l.5-.5.5-.5 1.5-.5 1.5-.5h1.5 1.5 1 1l1.5-.5 1.5-.5 1.5-1 1.5-1" style="fill:#bda685;stroke:#bda685"/><path d="m731 442l-4-19h-1.5-1.5l-1.5.5-1.5.5-2 .5-2 .5-1.5-.5-1.5-.5-1.5.5-1.5.5h-1-1l-.5.5-.5.5-.5.5-.5.5-.5 1.5-.5 1.5-.5 1-.5 1-1 1.5-1 1.5-1 1-1 1 1.5.5 1.5.5 1.5-1 1.5-1 1 1 1 1 1 .5 1 .5 1.5.5 1.5.5h2.5 2.5 2 2v1.5 1.5l-1 1-1 1-1 .5-1 .5-1.5.5-1.5.5-.5.5-.5.5-1 .5-1 .5-1 1-1 1-.5.5-.5.5v1 1l-.5.5-.5.5.5 1 .5 1v1 1l.5.5.5.5.5.5.5.5v1.5 1.5l-1 1-1 1v1.5 1.5l10.5-13.5 10.5-13.5" style="fill:#e7dcbf;stroke:#e7dcbf"/><path d="m726 527v-2l-.5.5-.5.5-.5-.5-.5-.5v-1-1l-1-.5-1-.5-.5-.5-.5-.5h-1-1-1-1l-1-.5-1-.5-.5 1-.5 1h-1.5-1.5l-1-.5-1-.5-.5.5-.5.5v1 1l-.5.5-.5.5-.5.5-.5.5-1 .5-1 .5-1-.5-1-.5.5 1 .5 1 1 .5 1 .5.5-.5.5-.5.5-.5.5-.5h1 1l1.5.5 1.5.5 1 .5 1 .5.5.5.5.5 1.5.5 1.5.5h1.5 1.5l1 .5 1 .5 1-.5 1-.5v-1-1l.5-1 .5-1" style="fill:#bc9157;stroke:#bc9157"/><g style="fill:#dac9ab;stroke:#dac9ab"><path d="m723 443v-3h-2-2-2.5-2.5l-1.5-.5-1.5-.5-1-.5-1-.5-1-1-1-1-1.5 1-1.5 1-1.5-.5-1.5-.5 1-1 1-1 1-1.5 1-1.5-1 .5-1 .5-1.5 1-1.5 1-1-1-1-1-1-1.5-1-1.5h-.5-.5l-1 .5-1 .5-1.5 1-1.5 1-1 1-1 1-1 .5-1 .5 6 12.5 6 12.5h1.5 1.5 1 1l2 .5 2 .5.5 2 .5 2 1 1.5 1 1.5v-1.5-1.5l1-1 1-1v-1.5-1.5l-.5-.5-.5-.5-.5-.5-.5-.5v-1-1l-.5-1-.5-1 .5-.5.5-.5v-1-1l.5-.5.5-.5 1-1 1-1 1-.5 1-.5.5-.5.5-.5 1.5-.5 1.5-.5 1-.5 1-.5 1-1 1-1"/><path d="m721 490v-2l-1-1-1-1v2 2h1 1"/></g><path d="m714 522l1-2-2-1-2-1-1.5-.5-1.5-.5-1-1.5-1-1.5-1.5-.5-1.5-.5-1 1.5-1 1.5.5 1.5.5 1.5v2 2 1.5 1.5l1 .5 1 .5 1-.5 1-.5.5-.5.5-.5.5-.5.5-.5v-1-1l.5-.5.5-.5 1 .5 1 .5h1.5 1.5" style="fill:#9d8464;stroke:#9d8464"/><path d="m713 661l-29-1-12 4-12 4-1.5 5.5-1.5 5.5 6-5 6-5 9.5 2.5 9.5 2.5-3-4-3-4 14.5-2.5 14.5-2.5h1 1" style="fill:#dac9ab;stroke:#dac9ab"/><path d="m712 500h1l-1.5-15.5-1.5-15.5-1-1.5-1-1.5-.5 1.5-.5 1.5-1-1-1-1-1.5-.5-1.5-.5-2-.5-2-.5-1.5-.5-1.5-.5-2 .5-2 .5v1 1l.5 2 .5 2-.5.5-.5.5h-1-1l-1 1.5-1 1.5h-1.5-1.5v1.5 1.5l.5 1 .5 1v2 2l1-.5 1-.5h1 1l.5-.5.5-.5v-1-1l.5-1 .5-1v1 1 1 1l-.5 1.5-.5 1.5-.5 1-.5 1-.5 1.5-.5 1.5h-2-2l-1.5-1-1.5-1-1.5-.5-1.5-.5-2-.5-2-.5-1-1-1-1-1.5-.5-1.5-.5-2-.5-2-.5h-1.5-1.5l-1.5-.5-1.5-.5 17.5 9 17.5 9-1 1-1 1 2-.5 2-.5.5-1 .5-1-2-1.5-2-1.5 1.5-.5 1.5-.5 1.5 1 1.5 1 1 1 1 1 1.5 1 1.5 1h2 2l1 .5 1 .5 1-.5 1-.5" style="fill:#9d8464;stroke:#9d8464"/><path d="m708 507l1-3-1-1-1-1h-1.5-1.5l-.5-.5-.5-.5-1-.5-1-.5h-.5-.5l-.5 1.5-.5 1.5.5 1 .5 1v1.5 1.5h3 3l1-.5 1-.5" style="fill:#bc9157;stroke:#bc9157"/><g style="fill:#bda685;stroke:#bda685"><path d="m707 469l1-3-.5-2-.5-2-2-.5-2-.5h-1-1-1.5-1.5l-2 .5-2 .5h-1.5-1.5l-.5 1.5-.5 1.5-1-1-1-1-1.5-1-1.5-1-1-1-1-1-1.5-1-1.5-1h-1-1l-1 .5-1 .5 2 .5 2 .5 1.5 1 1.5 1-.5 1.5-.5 1.5-.5 2-.5 2 1.5.5 1.5.5.5.5.5.5-1 1.5-1 1.5.5 1 .5 1h1.5 1.5l1-1.5 1-1.5h1 1l.5-.5.5-.5-.5-2-.5-2v-1-1l2-.5 2-.5 1.5.5 1.5.5 2 .5 2 .5 1.5.5 1.5.5 1 1 1 1"/><path d="m700 535l-1-1-.5-1-.5-1-1-1-1-1v-1.5-1.5l-9.5-1-9.5-1 8 12 8 12 1-.5 1-.5 1-1 1-1v-1.5-1.5l1.5-.5 1.5-.5-.5-2-.5-2 .5-1.5.5-1.5"/></g><path d="m697 528l1-3-.5-2-.5-2-.5-1.5-.5-1.5 1-1 1-1-17 6-17 6-4 5-4 5 5 1 5 1 14 5 14 5-.5-.5-.5-.5-8-12-8-12 9.5 1 9.5 1 .5.5.5.5" style="fill:#c1b5a1;stroke:#c1b5a1"/><path d="m696 428l1-3h-1-1l-.5-.5-.5-.5v-1-1h-1.5-1.5-1-1l-.5-.5-.5-.5h-1-1-1.5-1.5v1 1 1 1l.5.5.5.5h2 2l1-.5 1-.5.5.5.5.5 1 .5 1 .5 1.5.5 1.5.5" style="fill:#dac9ab;stroke:#dac9ab"/><path d="m695 430h1v-1-1l-1.5-.5-1.5-.5h-3-3l-1 .5-1 .5h2 2l.5.5.5.5-1.5 1.5-1.5 1.5-1.5 1-1.5 1-1.5.5-1.5.5.5 1.5.5 1.5 1-.5 1-.5 1-.5 1-.5 1-.5 1-.5 1-1 1-1 1.5-1 1.5-1 1-.5 1-.5" style="fill:#bda685;stroke:#bda685"/><path d="m694 499l-35-18-22-8-22-8-1.5-.5-1.5-.5-.5-.5-.5-.5-1-.5-1-.5h-2-2l-.5-.5-.5-.5-1-.5-1-.5-1.5-.5-1.5-.5-.5-.5-.5-.5-1-.5-1-.5-1.5-.5-1.5-.5-.5-.5-.5-.5-1-.5-1-.5-2-.5-2-.5h-.5-.5l-16-4.5-16-4.5-1-.5-1-.5-1-1-1-1-1.5-1.5-1.5-1.5-17.5-8.5-17.5-8.5-18.5.5-18.5.5 2.5 2 2.5 2-.5 8.5-.5 8.5 9.5 2.5 9.5 2.5-7 3.5-7 3.5-10.5 5.5-10.5 5.5 6 11 6 11 24 6.5 24 6.5-1 2.5-1 2.5-1 1-1 1-1 1.5-1 1.5-.5 1.5-.5 1.5-1 1-1 1-1.5 1-1.5 1-1 1-1 1-1.5 1-1.5 1-1 .5-1 .5-1 1-1 1-.5.5-.5.5-10.5 9.5-10.5 9.5-11 9-11 9-10.5 9.5-10.5 9.5-16 14-16 14 4.5 1.5 4.5 1.5 11.5-6.5 11.5-6.5 16-4 16-4 14-6 14-6 13-6 13-6 11-2.5 11-2.5 15-5 15-5 12-8 12-8 16-4 16-4 14-6 14-6 17-8 17-8 1-1 1-1" style="fill:#faf3da;stroke:#faf3da"/><path d="m691 567l-23-7-14.5.5-14.5.5-10 5.5-10 5.5-13 5-13 5-11-2-11-2-7 8-7 8-7 4-7 4-15.5 2.5-15.5 2.5-15-1-15-1-7 2-7 2 12 8 12 8-17.5-2.5-17.5-2.5-8.5-10.5-8.5-10.5 14.5-2.5 14.5-2.5 14.5-4.5 14.5-4.5 12-7 12-7 10.5 2.5 10.5 2.5 5-8 5-8 16-4 16-4 11.5-6.5 11.5-6.5 15.5-4.5 15.5-4.5 12.5-7.5 12.5-7.5 14-7 14-7-17 8-17 8-14 6-14 6-16 4-16 4-12 8-12 8-15 5-15 5-11 2.5-11 2.5-13 6-13 6-14 6-14 6-16 4-16 4-11.5 6.5-11.5 6.5-4.5-1.5-4.5-1.5-1.5 1-1.5 1-.5 1.5-.5 1.5.5 2 .5 2v2 2l-.5 2-.5 2 .5 1 .5 1 .5 1 .5 1v1 1l.5 1 .5 1v1 1l.5.5.5.5.5.5.5.5.5 1 .5 1 .5.5.5.5 1 1 1 1 8 2 8 2 23 3.5 23 3.5-1 .5-1 .5-2 1-2 1 1 .5 1 .5 1.5-.5 1.5-.5 1.5-.5 1.5-.5.5.5.5.5-27.5 8-27.5 8h-18-18l4-9 4-9-2.5-6.5-2.5-6.5-15-2-15-2h-17-17l-9.5-8.5-9.5-8.5-14-6-14-6 2.5-13.5 2.5-13.5-3.5-13.5-3.5-13.5 10.5-9.5 10.5-9.5-5.5-7.5-5.5-7.5 10.5-7.5 10.5-7.5-.5-2.5-.5-2.5-3-12-3-12-14.5 11-14.5 11-9.5 10.5-9.5 10.5-7 13-7 13-1 17-1 17 4.5 15.5 4.5 15.5 8.5 11.5 8.5 11.5 11.5 8.5 11.5 8.5 13 7 13 7 13 7 13 7 15.5 4.5 15.5 4.5 16.5 3.5 16.5 3.5 17.5 2.5 17.5 2.5h19 19l18.5-1.5 18.5-1.5h-17.5-17.5-16-16l-14.5-3.5-14.5-3.5 3.5-7.5 3.5-7.5 15.5-4.5 15.5-4.5 15-5 15-5 15.5-4.5 15.5-4.5 15-5 15-5 13.5-6.5 13.5-6.5 13.5-6.5 13.5-6.5 13.5-6.5 13.5-6.5 21.5-13 21.5-13-1.5.5-1.5.5h-.5-.5l-13.5 7.5-13.5 7.5-13 7-13 7-10 4-10 4 18-10.5 18-10.5 17.5-8.5 17.5-8.5 1-.5 1-.5.5-1 .5-1 1.5-.5 1.5-.5h1 1l1-.5 1-.5 1-1 1-1 1.5-1 1.5-1 1.5-.5 1.5-.5.5.5.5.5-.5 1-.5 1 1-.5 1-.5.5-.5.5-.5 1-.5 1-.5 1.5-.5 1.5-.5.5-.5.5-.5.5-.5.5-.5.5-.5.5-.5 1 .5 1 .5v1 1 1 1 1 1l-.5 1.5-.5 1.5v1.5 1.5l-.5 2-.5 2-.5 1.5-.5 1.5v2 2 2.5 2.5l.5-1.5.5-1.5v-2.5-2.5l.5-1.5.5-1.5.5-2 .5-2 .5-1.5.5-1.5v-1.5-1.5" style="fill:#e7dcbf;stroke:#e7dcbf"/><path d="m690 485l1-3v-1-1-1-1l-.5 1-.5 1v1 1l-.5.5-.5.5h-1-1l-1 .5-1 .5-10.5-2.5-10.5-2.5-1 1.5-1 1.5h1.5 1.5l2 .5 2 .5 1.5.5 1.5.5 1 1 1 1 2 .5 2 .5 1.5.5 1.5.5 1.5 1 1.5 1h2 2l.5-1.5.5-1.5.5-1 .5-1" style="fill:#bda685;stroke:#bda685"/><path d="m690 429l-1-1h-2-2l-2 1-2 1-1 1-1 1-1.5 1-1.5 1-1.5.5-1.5.5-1 1-1 1-1 1.5-1 1.5-.5 1.5-.5 1.5-.5 2-.5 2 .5 1.5.5 1.5.5 1.5.5 1.5.5-1 .5-1-.5-2-.5-2v-2-2l1-1.5 1-1.5 1-1 1-1 1.5 1 1.5 1 1.5.5 1.5.5 1.5-1 1.5-1v-.5-.5l-.5-1.5-.5-1.5 1.5-.5 1.5-.5 1.5-1 1.5-1 1.5-1.5 1.5-1.5" style="fill:#bc9157;stroke:#bc9157"/><path d="m689 569l1-3v-1-1-1-1-1-1l-1-.5-1-.5-.5.5-.5.5-.5.5-.5.5-.5.5-.5.5-1.5.5-1.5.5-1 .5-1 .5-.5.5-.5.5-1 .5-1 .5-1 1-1 1h-1-1l-.5.5-.5.5-1 .5-1 .5-.5.5-.5.5-.5.5-.5.5-1.5.5-1.5.5-21.5 13-21.5 13-13.5 6.5-13.5 6.5-13.5 6.5-13.5 6.5-13.5 6.5-13.5 6.5-15 5-15 5-15.5 4.5-15.5 4.5-15 5-15 5-15.5 4.5-15.5 4.5-3.5 7.5-3.5 7.5 14.5 3.5 14.5 3.5h16 16 17.5 17.5.5.5l28.5-6 28.5-6 20.5-9 20.5-9 12.5-7.5 12.5-7.5 11.5-8.5 11.5-8.5 9.5-10.5 9.5-10.5 6.5-13.5 6.5-13.5v-2.5-2.5-2-2l.5-1.5.5-1.5.5-2 .5-2v-1.5-1.5" style="fill:#faf3da;stroke:#faf3da"/><path d="m685 470l-1-1-1.5-.5-1.5-.5.5-2 .5-2 .5-1.5.5-1.5-1.5-1-1.5-1-2-.5-2-.5-1 1.5-1 1.5-1 .5-1 .5.5.5.5.5.5.5.5.5.5.5.5.5.5 1 .5 1 .5.5.5.5.5.5.5.5.5.5.5.5 1 .5 1 .5 1 1 1 1 1-1.5 1-1.5" style="fill:#bc9157;stroke:#bc9157"/><path d="m681 441l1-2-1.5 1-1.5 1-.5 1.5-.5 1.5v1.5 1.5 1 1l-.5.5-.5.5v.5.5l.5.5.5.5h-1-1l-.5-.5-.5-.5-.5-1-.5-1-.5-.5-.5-.5-.5-.5-.5-.5-.5.5-.5.5-.5 1.5-.5 1.5-.5 1-.5 1 6-6 6-6" style="fill:#bda685;stroke:#bda685"/><path d="m680 272l-34-2h-18-18l-13.5 3.5-13.5 3.5 11 1 11 1 12.5-.5 12.5-.5h14 14l7.5-.5 7.5-.5 3.5-2.5 3.5-2.5" style="fill:#b07d47;stroke:#b07d47"/><path d="m678 564l-1-1-1.5.5-1.5.5-1.5 1-1.5 1-1 1-1 1-1 .5-1 .5h-1-1l-1.5.5-1.5.5-.5 1-.5 1-1 .5-1 .5 1.5.5 1.5.5 1.5-.5 1.5-.5 1.5-.5 1.5-.5.5-.5.5-.5.5-.5.5-.5 1-.5 1-.5.5-.5.5-.5h1 1l1-1 1-1 .5-1 .5-1" style="fill:#dac9ab;stroke:#dac9ab"/><path d="m678 444l1-3-1.5-.5-1.5-.5-1.5-1-1.5-1-1 1-1 1-1 1.5-1 1.5v2 2l.5 2 .5 2 .5-1.5.5-1.5.5-.5.5-.5.5.5.5.5.5.5.5.5.5 1 .5 1 .5.5.5.5h1 1l-.5-.5-.5-.5v-.5-.5l.5-.5.5-.5v-1-1-1.5-1.5" style="fill:#9d8464;stroke:#9d8464"/><path d="m672 634l1-4h-.5-.5v1.5 1.5l-.5 1.5-.5 1.5-1 1-1 1-1 .5-1 .5-1 1-1 1-2 .5-2 .5v2 2 1 1l1 2.5 1 2.5 1-1.5 1-1.5.5-.5.5-.5.5-1.5.5-1.5.5-1 .5-1 .5-.5.5-.5.5-1.5.5-1.5 1-1 1-1v-2-2" style="fill:#b07d47;stroke:#b07d47"/><path d="m672 630h1l-15 11-15 11 2-.5 2-.5v1 1l-12 9-12 9 8.5 6.5 8.5 6.5 1.5-.5 1.5-.5.5-1.5.5-1.5 1.5-2 1.5-2-6.5-3.5-6.5-3.5 14.5-8 14.5-8-1-2.5-1-2.5v-1-1-2-2l2-.5 2-.5 1-1 1-1 1-.5 1-.5 1-1 1-1 .5-1.5.5-1.5v-1.5-1.5" style="fill:#9a6b36;stroke:#9a6b36"/><path d="m665 478l-24-10-10-3-10-3h-.5-.5l-1.5.5-1.5.5-1 1-1 1 22 8 22 8 1.5.5 1.5.5 1-1.5 1-1.5.5-.5.5-.5" style="fill:#dac9ab;stroke:#dac9ab"/><path d="m662 656l1-3-14.5 8-14.5 8 6.5 3.5 6.5 3.5 1.5-.5 1.5-.5 1-1.5 1-1.5 1-1 1-1 1-1.5 1-1.5 1-1 1-1 1-1.5 1-1.5.5-1.5.5-1.5.5-1.5.5-1.5" style="fill:#b07d47;stroke:#b07d47"/><path d="m661 574h1l-1.5-.5-1.5-.5-17.5 8.5-17.5 8.5 2-.5 2-.5 1.5-.5 1.5-.5 1.5-1 1.5-1 1.5-.5 1.5-.5.5.5.5.5-25 12.5-25 12.5 10-4 10-4 13-7 13-7 13.5-7.5 13.5-7.5" style="fill:#c1b5a1;stroke:#c1b5a1"/><path d="m657 255l1-1h-39.5-39.5-1.5-1.5-2-2-2.5-2.5-2-2-2.5-2.5-2-2-2.5-2.5l-1.5.5-1.5.5h-2-2-2.5-2.5v.5.5l39-.5 39-.5h21 21" style="fill:#573d1a;stroke:#573d1a"/><path d="m655 398l-1-1-2-.5-2-.5h-2-2l-2-.5-2-.5h-1-1l-1.5.5-1.5.5-1 1.5-1 1.5h-1-1l-1-1.5-1-1.5-1.5-.5-1.5-.5-1.5.5-1.5.5 2 .5 2 .5v1.5 1.5l-.5 1-.5 1-1.5.5-1.5.5-1.5 1-1.5 1-1.5.5-1.5.5-2 .5-2 .5-1.5.5-1.5.5-1-.5-1-.5 1-1 1-1 1.5-1 1.5-1 1.5-.5 1.5-.5.5-1 .5-1-8-.5-8-.5-6.5-1.5-6.5-1.5-2 .5-2 .5v1 1h-.5-.5l-1-1-1-1-1-.5-1-.5-1.5.5-1.5.5-.5.5-.5.5-.5 1-.5 1 .5 1.5.5 1.5v1 1l.5 1 .5 1 .5 1.5.5 1.5.5.5.5.5.5 1 .5 1 24.5-5 24.5-5 12.5-2.5 12.5-2.5" style="fill:#bc9157;stroke:#bc9157"/><path d="m649 677l1-2-1.5.5-1.5.5-1.5 2-1.5 2-.5 1.5-.5 1.5-1.5.5-1.5.5-20.5 18-20.5 18h2 2l13.5-10.5 13.5-10.5 9.5-11 9.5-11" style="fill:#9d8464;stroke:#9d8464"/><g style="fill:#3d2b0f;stroke:#3d2b0f"><path d="m649 234l1-3h-1-1l-2 .5-2 .5h-2-2l1.5 1 1.5 1 .5.5.5.5-.5 2-.5 2 1.5.5 1.5.5 1-1 1-1v-1.5-1.5l.5-.5.5-.5"/><path d="m649 188l-20-6-14 2-14 2-12.5.5-12.5.5 7.5 3.5 7.5 3.5 11.5.5 11.5.5 13-1 13-1 4.5-2.5 4.5-2.5"/><path d="m648 207l-23-9-13 1-13 1-13.5.5-13.5.5-5.5 10.5-5.5 10.5 7.5 9.5 7.5 9.5 9-4 9-4 8.5-9.5 8.5-9.5 12-2 12-2 6.5-1.5 6.5-1.5"/></g><path d="m647 653v-2l-2 .5-2 .5-23.5 14-23.5 14-15 5-15 5-15.5 4.5-15.5 4.5-17.5 2.5-17.5 2.5-18.5 1-18.5 1h-19-19l16 7 16 7h21.5 21.5 20 20 20 20 9.5 9.5l20.5-18 20.5-18-8.5-6.5-8.5-6.5 12-9 12-9" style="fill:#7b4e22;stroke:#7b4e22"/><path d="m643 383l-1-1-1 1-1 1-1 1.5-1 1.5-1.5.5-1.5.5-1 1.5-1 1.5 1 1 1 1 2-.5 2-.5 1-1 1-1 .5-1.5.5-1.5.5-2 .5-2" style="fill:#bc9157;stroke:#bc9157"/><path d="m638 586l-1-1-1.5.5-1.5.5-1.5 1-1.5 1-1.5.5-1.5.5-2 .5-2 .5-18 10.5-18 10.5 25-12.5 25-12.5" style="fill:#bda685;stroke:#bda685"/><path d="m635 319l1-3h-2-2l-2-.5-2-.5-1.5-.5-1.5-.5-1 1.5-1 1.5.5 1.5.5 1.5h2.5 2.5 2 2l1-.5 1-.5" style="fill:#b07d47;stroke:#b07d47"/><path d="m631 384l1-3v-1-1l-.5-.5-.5-.5-.5-1-.5-1v-1-1l.5-.5.5-.5v-1-1h-1.5-1.5-1-1l-.5-.5-.5-.5-.5-.5-.5-.5h-.5-.5-1-1l-1-.5-1-.5 6 8 6 8" style="fill:#dac9ab;stroke:#dac9ab"/><path d="m629 444l-29-11-1 1-1 1 .5.5.5.5.5.5.5.5.5 1 .5 1 1 1 1 1v1 1l-1 1.5-1 1.5h-2-2l1 1.5 1 1.5 1.5.5 1.5.5.5 1.5.5 1.5-.5 1.5-.5 1.5.5.5.5.5 1.5-1.5 1.5-1.5 1-1 1-1-1-1.5-1-1.5-1.5-.5-1.5-.5 1-1.5 1-1.5 1.5-.5 1.5-.5 1.5.5 1.5.5 1 1.5 1 1.5 1 1.5 1 1.5.5-1 .5-1-.5-1-.5-1-.5-.5-.5-.5-.5-.5-.5-.5-1-.5-1-.5-.5-.5-.5-.5-.5-.5-.5-.5-.5-.5-.5-.5.5-.5.5-.5 1-.5 1-.5h1 1l.5.5.5.5.5.5.5.5h1.5 1.5l.5.5.5.5h1 1 1 1l1-.5 1-.5.5.5.5.5.5.5.5.5.5.5.5.5h.5.5" style="fill:#bc9157;stroke:#bc9157"/><path d="m629 400v-3l-2-.5-2-.5 1 .5 1 .5.5.5.5.5-.5.5-.5.5-.5 1-.5 1-.5.5-.5.5h-1-1l-.5.5-.5.5h-1-1l-.5-1.5-.5-1.5-.5 1-.5 1-1.5.5-1.5.5-1.5 1-1.5 1-1 1-1 1 1 .5 1 .5 1.5-.5 1.5-.5 2-.5 2-.5 1.5-.5 1.5-.5 1.5-1 1.5-1 1.5-.5 1.5-.5.5-1 .5-1" style="fill:#b07d47;stroke:#b07d47"/><path d="m628 348l-14-10-12.5-.5-12.5-.5-2.5-.5-2.5-.5 6-4 6-4-9-3-9-3-3 3.5-3 3.5 1 .5 1 .5v1 1l1-.5 1-.5 1 .5 1 .5 1.5.5 1.5.5.5.5.5.5.5 1 .5 1-.5 2-.5 2-.5 1.5-.5 1.5v2 2 1 1l-.5 1.5-.5 1.5h-1.5-1.5l-1 1-1 1-2-.5-2-.5v-1.5-1.5l-1-.5-1-.5 13.5 2 13.5 2 16-2.5 16-2.5" style="fill:#d5ac78;stroke:#d5ac78"/><path d="m620 462h1l-.5-1-.5-1-1.5-.5-1.5-.5 1-1.5 1-1.5-1-1-1-1v-1.5-1.5l-.5-1-.5-1-.5 1-.5 1 .5 1.5.5 1.5-.5 1.5-.5 1.5-.5-.5-.5-.5-.5-.5-.5-.5-.5-1-.5-1h-1-1l-.5.5-.5.5-.5 1-.5 1-1-1-1-1-1.5 1.5-1.5 1.5-.5-.5-.5-.5h-1.5-1.5l.5-.5.5-.5-.5-.5-.5-.5-.5.5-.5.5-1-.5-1-.5-.5-1.5-.5-1.5h-1-1-1.5-1.5-1-1l-.5.5-.5.5-.5-1.5-.5-1.5-1 .5-1 .5.5.5.5.5.5 1 .5 1 2 .5 2 .5 1 .5 1 .5.5.5.5.5 1.5.5 1.5.5 1 .5 1 .5.5.5.5.5 1.5.5 1.5.5 1 .5 1 .5.5.5.5.5h2 2l1 .5 1 .5.5.5.5.5 1.5.5 1.5.5 1-1 1-1 1.5-.5 1.5-.5" style="fill:#bda685;stroke:#bda685"/><path d="m619 2l-41-1 7.5.5 7.5.5h13 13" style="fill:#615542;stroke:#615542"/><path d="m615 457l1-3-.5-1.5-.5-1.5-1-1.5-1-1.5-1-1.5-1-1.5-1.5-.5-1.5-.5-1.5.5-1.5.5-1 1.5-1 1.5 1.5.5 1.5.5 1 1.5 1 1.5-1 1-1 1 1 1 1 1 .5-1 .5-1 .5-.5.5-.5h1 1l.5 1 .5 1 .5.5.5.5.5.5.5.5" style="fill:#b07d47;stroke:#b07d47"/><path d="m603 443v-2l-1-1-1-1h-.5-.5-.5-.5l.5 1 .5 1-.5 1.5-.5 1.5h-1.5-1.5l-1.5-.5-1.5-.5-1-1.5-1-1.5-.5 1.5-.5 1.5h-2-2l-.5.5-.5.5 1 .5 1 .5 1 1 1 1-1.5 1-1.5 1 .5 1.5.5 1.5.5-.5.5-.5h1 1 1.5 1.5 1 1l.5 1.5.5 1.5 1 .5 1 .5.5-.5.5-.5.5.5.5.5-.5.5-.5.5h1.5 1.5l.5-1.5.5-1.5-.5-1.5-.5-1.5-1.5-.5-1.5-.5-1-1.5-1-1.5h2 2l1-1.5 1-1.5" style="fill:#d5ac78;stroke:#d5ac78"/><path d="m600 439h1l-.5-1-.5-1-.5-.5-.5-.5-.5-.5-.5-.5 1-1 1-1-1.5-.5-1.5-.5-1-1-1-1h-1.5-1.5-1-1l-2-.5-2-.5.5 1.5.5 1.5-1.5-.5-1.5-.5v-1.5-1.5l-2 .5-2 .5.5 1 .5 1 1 1.5 1 1.5v1 1l-1.5 1-1.5 1-.5.5-.5.5v1.5 1.5l.5 1 .5 1 .5 1 .5 1 .5-.5.5-.5.5-.5.5-.5-.5-.5-.5-.5v-1.5-1.5l.5-.5.5-.5.5-.5.5-.5.5-.5.5-.5.5-.5.5-.5 1-.5 1-.5.5-.5.5-.5.5-.5.5-.5.5-.5.5-.5.5 1 .5 1v1 1h1 1l.5.5.5.5.5.5.5.5 1.5.5 1.5.5h.5.5" style="fill:#bda685;stroke:#bda685"/><g style="fill:#dac9ab;stroke:#dac9ab"><path d="m599 444l1-3-.5-1-.5-1-1.5-.5-1.5-.5-.5-.5-.5-.5-.5-.5-.5-.5h-1-1v-1-1l-.5-1-.5-1-.5.5-.5.5-.5.5-.5.5-.5.5-.5.5-1 .5-1 .5-.5.5-.5.5-.5.5-.5.5-.5.5-.5.5-.5.5-.5.5v1.5 1.5l.5.5.5.5-.5.5-.5.5-.5.5-.5.5-.5-1-.5-1-.5-1-.5-1h-2.5-2.5l1 .5 1 .5-.5 1-.5 1-1-.5-1-.5-.5 1-.5 1-.5-.5-.5-.5h-1-1l-.5-.5-.5-.5-.5-.5-.5-.5-1-.5-1-.5-.5-.5-.5-.5h-1-1l-.5-.5-.5-.5h-1.5-1.5l-.5-.5-.5-.5h-1-1-1-1l-.5-1-.5-1h-1-1l-.5-.5-.5-.5h-1-1l-.5 1-.5 1 1.5 1.5 1.5 1.5 1 1 1 1 1 .5 1 .5 16.5 2.5 16.5 2.5 1.5-1 1.5-1-1-1-1-1-1-.5-1-.5.5-.5.5-.5h2 2l.5-1.5.5-1.5 1 1.5 1 1.5 1.5.5 1.5.5h1.5 1.5"/><path d="m595 393l1-3-2-.5-2-.5h-2-2-2.5-2.5l-1 1-1 1 1 1 1 1v1 1l-1 .5-1 .5 1 .5 1 .5 1 1 1 1h.5.5v-1-1l2-.5 2-.5 1-1 1-1 1.5-.5 1.5-.5"/></g><path d="m585 453h1l-.5-1-.5-1-.5-.5-.5-.5 1-.5 1-.5-16.5-2.5-16.5-2.5 16 4.5 16 4.5" style="fill:#e7dcbf;stroke:#e7dcbf"/><path d="m583 436v-2l-1-1.5-1-1.5-.5-1-.5-1h-2.5-2.5-1.5-1.5-1-1l-1 .5-1 .5h2.5 2.5l1.5.5 1.5.5-1 2.5-1 2.5 1-.5 1-.5.5-.5.5-.5.5-.5.5-.5.5 1 .5 1-.5.5-.5.5 1 1 1 1 1.5-1 1.5-1" style="fill:#9d8464;stroke:#9d8464"/><path d="m583 395v-2l-1-1-1-1-1.5 1-1.5 1-1.5.5-1.5.5-1.5 1-1.5 1-1.5-.5-1.5-.5 1 1 1 1 .5 1 .5 1-.5.5-.5.5-.5-.5-.5-.5-.5-.5-.5-.5-1-.5-1-.5-.5-.5-.5-.5h-1-1l-.5-.5-.5-.5-.5 1-.5 1 .5.5.5.5.5.5.5.5.5.5.5.5 1 .5 1 .5.5.5.5.5.5.5.5.5h1 1l1.5.5 1.5.5.5 1.5.5 1.5.5 1 .5 1 1 .5 1 .5v1 1l1.5.5 1.5.5-.5-1-.5-1-.5-.5-.5-.5-.5-1.5-.5-1.5-.5-1-.5-1v-1-1l-.5-1.5-.5-1.5.5-1 .5-1 .5-.5.5-.5 1.5-.5 1.5-.5 1-.5 1-.5" style="fill:#bda685;stroke:#bda685"/><path d="m582 340l1-4-.5-1-.5-1-.5-.5-.5-.5-1.5-.5-1.5-.5-1-.5-1-.5-1 .5-1 .5-1 .5-1 .5v1.5 1.5l-.5 2-.5 2 .5 2.5.5 2.5h1 1l1 1.5 1 1.5 1-1 1-1-1-1.5-1-1.5h1 1 1.5 1.5l.5-1.5.5-1.5" style="fill:#e7dcbf;stroke:#e7dcbf"/><path d="m580 352l1-3v-1-1-2-2h-1.5-1.5-1-1l1 1.5 1 1.5-1 1-1 1-1-1.5-1-1.5h-1-1l.5 1.5.5 1.5-1 1-1 1v1.5 1.5l2 .5 2 .5 1-1 1-1h1.5 1.5" style="fill:#dac9ab;stroke:#dac9ab"/><path d="m579 439l1-1-1-1-1-1 .5-.5.5-.5-.5-1-.5-1-.5.5-.5.5-.5.5-.5.5-1 .5-1 .5-1 1-1 1h-1.5-1.5v1 1l.5.5.5.5 2 .5 2 .5h2.5 2.5v-1.5-1.5" style="fill:#bc9157;stroke:#bc9157"/><path d="m575 445l1-2-1-.5-1-.5-2-.5-2-.5-.5-.5-.5-.5v-1-1h1.5 1.5l1-1 1-1 1-2.5 1-2.5-1.5-.5-1.5-.5h-2.5-2.5l-1.5.5-1.5.5-1 1-1 1-2 .5-2 .5h-1-1-2.5-2.5-2-2l-.5 1-.5 1h1 1l.5.5.5.5h1 1l.5 1 .5 1h1 1 1 1l.5.5.5.5h1.5 1.5l.5.5.5.5h1 1l.5.5.5.5 1 .5 1 .5.5.5.5.5.5.5.5.5h1 1l.5.5.5.5.5-1 .5-1 1 .5 1 .5" style="fill:#b07d47;stroke:#b07d47"/><path d="m574 330l-2-1-.5 1-.5 1-.5 2-.5 2-1 1-1 1v2.5 2.5l.5 1.5.5 1.5v1.5 1.5.5.5l1 .5 1 .5 1-1 1-1-.5-1.5-.5-1.5-.5-2.5-.5-2.5.5-2 .5-2v-1.5-1.5l1-.5 1-.5v-1-1" style="fill:#bda685;stroke:#bda685"/><path d="m566 621l-25 9-5.5 2-5.5 2-.5 1-.5 1h1.5 1.5l1-1 1-1 .5-.5.5-.5h1 1 1 1l.5-1 .5-1h2 2l.5-.5.5-.5 1-.5 1-.5 1.5-.5 1.5-.5h1 1l1-.5 1-.5 2.5-.5 2.5-.5 1-1 1-1 1.5-1 1.5-1 1-.5 1-.5" style="fill:#786449;stroke:#786449"/><path d="m565 686h1l-28.5 6-28.5 6 28-6 28-6" style="fill:#e7dcbf;stroke:#e7dcbf"/><g style="fill:#d5ac78;stroke:#d5ac78"><path d="m560 334l1-3v-2-2h-1.5-1.5-2-2l-.5 2-.5 2-.5 1.5-.5 1.5 1.5 1 1.5 1 .5 1.5.5 1.5 1.5.5 1.5.5v-1.5-1.5l.5-1.5.5-1.5"/><path d="m559 396l-21-19-4.5 6.5-4.5 6.5 1 4 1 4 14-1 14-1"/></g><path d="m558 627l1-1-2.5.5-2.5.5-1 .5-1 .5h-1-1l-1.5.5-1.5.5-1 .5-1 .5-.5.5-.5.5h-2-2l-.5 1-.5 1h-1-1-1-1l-.5.5-.5.5-1 1-1 1h-1.5-1.5l.5-1 .5-1-3.5 4-3.5 4 14-6 14-6 3.5-1.5 3.5-1.5" style="fill:#827661;stroke:#827661"/><path d="m554 383l-7-44 .5 19 .5 19 .5 2 .5 2v1 1l1 .5 1 .5 1 1 1 1 .5-1.5.5-1.5" style="fill:#9a6b36;stroke:#9a6b36"/><g style="fill:#3d2b0f;stroke:#3d2b0f"><path d="m550 152l-14-12-6 6-6 6 8.5 6.5 8.5 6.5 4.5-6.5 4.5-6.5"/><path d="m536 256h1v-.5-.5l-2.5-11-2.5-11-12-6-12-6 .5 2 .5 2v2 2 2.5 2.5 2 2 2.5 2.5l-.5 1.5-.5 1.5v2.5 2.5 2 2l1 1 1 1h1.5 1.5 1 1 2 2l1-.5 1-.5h1 1 2 2 1.5 1.5 1 1 2 2"/></g><path d="m522 501l-48-13-6-11-6-11 10.5-5.5 10.5-5.5 7-3.5 7-3.5-9.5-2.5-9.5-2.5.5-8.5.5-8.5-2.5-2-2.5-2-20.5 7-20.5 7h2 2l-.5 1-.5 1-.5 1.5-.5 1.5.5 2 .5 2 .5 1.5.5 1.5 1 1.5 1 1.5.5 1.5.5 1.5v1 1l-2 1-2 1v.5.5l3.5-8 3.5-8 4 13.5 4 13.5 6 13 6 13 24.5 8.5 24.5 8.5-1 1-1 1-.5 1-.5 1-1 .5-1 .5-.5.5-.5.5-1.5 2-1.5 2 1-.5 1-.5 1.5-1 1.5-1 1-1 1-1 1.5-1 1.5-1 1-1 1-1 .5-1.5.5-1.5 1-1.5 1-1.5 1-1 1-1 1-2.5 1-2.5" style="fill:#e7dcbf;stroke:#e7dcbf"/><path d="m512 513l-49-17-6-13-6-13-4-13.5-4-13.5-3.5 8-3.5 8 1 .5 1 .5h1.5 1.5l.5-.5.5-.5.5-.5.5-.5.5-.5.5-.5 1 .5 1 .5v1 1l.5.5.5.5v1 1l.5 1 .5 1 .5.5.5.5v1 1l.5.5.5.5-.5 1.5-.5 1.5-1 .5-1 .5-.5-1.5-.5-1.5-.5-2-.5-2-.5-1.5-.5-1.5-1 .5-1 .5 1 1 1 1 .5.5.5.5v1.5 1.5 1 1l.5.5.5.5-.5 1.5-.5 1.5-10 11-10 11-2.5-7.5-2.5-7.5-10.5-1.5-10.5-1.5-11.5 6-11.5 6-.5-1.5-.5-1.5-.5-1.5-.5-1.5 1.5-1 1.5-1 17 5.5 17 5.5-8 7-8 7 14.5-1.5 14.5-1.5 16.5-12.5 16.5-12.5 1 1.5 1 1.5.5 1.5.5 1.5-.5 1.5-.5 1.5-1.5-.5-1.5-.5-.5 2-.5 2 .5 1 .5 1v1 1 1 1 1 1l-.5 1-.5 1v1 1 1 1 2 2l26 3.5 26 3.5 1-.5 1-.5.5-1 .5-1 1-1 1-1" style="fill:#dac9ab;stroke:#dac9ab"/><path d="m508 307l-2-43v-.5-.5l-3.5-14.5-3.5-14.5 2-.5 2-.5.5.5.5.5v1 1 1 1l.5 1 .5 1v2 2l-.5.5-.5.5v1.5 1.5 2 2 1 1l-8 9-8 9 .5-9.5.5-9.5 5-9.5 5-9.5-4.5-2-4.5-2h-23.5-23.5l16 2.5 16 2.5-17 2-17 2-4 9.5-4 9.5 8 4 8 4 10.5-.5 10.5-.5-10 4-10 4-9 5-9 5-2.5 4.5-2.5 4.5 10.5 4.5 10.5 4.5-7 1-7 1-2.5 3.5-2.5 3.5 1.5 2.5 1.5 2.5-1.5 16-1.5 16h1.5 1.5l1.5.5 1.5.5h1 1 1.5 1.5l1.5.5 1.5.5h1 1 1.5 1.5l1.5.5 1.5.5h1 1 1 1l1-.5 1-.5 7-5 7-5-2-4-2-4-7-6-7-6 8.5-3 8.5-3 .5-3.5.5-3.5 5.5 1.5 5.5 1.5 2.5-3.5 2.5-3.5.5-10.5.5-10.5 8 5 8 5-.5 20-.5 20v1.5 1.5l-.5.5-.5.5-1 .5-1 .5-1.5.5-1.5.5-.5.5-.5.5h-1-1v1 1l1 .5 1 .5 1.5-.5 1.5-.5.5-.5.5-.5h1.5 1.5.5.5l2-16 2-16" style="fill:#bc9157;stroke:#bc9157"/><path d="m508 246l1-3v-2.5-2.5-2-2-2.5-2.5-2-2l-.5-2-.5-2-26 3.5-26 3.5-18.5-1.5-18.5-1.5-6 10-6 10h.5.5v-.5-.5-1.5-1.5-1-1-1.5-1.5-2-2l.5-.5.5-.5-.5-.5-.5-.5v-1-1h.5.5 1 1 1.5 1.5l.5-1 .5-1 1 .5 1 .5 2 .5 2 .5h2 2l2 .5 2 .5h2 2 2 2l3 .5 3 .5h23.5 23.5l4.5 2 4.5 2 3.5 14.5 3.5 14.5.5-1 .5-1v-1.5-1.5l.5-1.5.5-1.5v-2-2-2.5-2.5" style="fill:#573d1a;stroke:#573d1a"/><path d="m506 519l1-1h-.5-.5l-1 .5-1 .5h-1-1-1-1-1.5-1.5-1-1-1-1-1-1l-1 .5-1 .5v1 1l1 .5 1 .5 1 .5 1 .5 2-.5 2-.5 1.5-.5 1.5-.5v.5.5l.5 1 .5 1 1-1 1-1 1.5-2 1.5-2" style="fill:#dac9ab;stroke:#dac9ab"/><path d="m506 518h1l-26-3.5-26-3.5-.5 1-.5 1-.5.5-.5.5v.5.5l-.5.5-.5.5.5.5.5.5h1 1l.5 1 .5 1 1.5-.5 1.5-.5 1-1.5 1-1.5.5-1.5.5-1.5 1.5 1 1.5 1v1 1l13 3.5 13 3.5-1-.5-1-.5v-1-1l1-.5 1-.5h1 1 1 1 1 1 1.5 1.5 1 1 1 1l1-.5 1-.5" style="fill:#d5ac78;stroke:#d5ac78"/><path d="m506 344l1-3-.5-1.5-.5-1.5-1 .5-1 .5h-.5-.5l-23 5-23 5-1 .5-1 .5h-1-1-1-1l-1.5-.5-1.5-.5h-1.5-1.5-1-1l-1.5-.5-1.5-.5h-1.5-1.5-1-1l-1.5-.5-1.5-.5h-1.5-1.5l-2.5-.5-2.5-.5-1.5-1-1.5-1-1.5-.5-1.5-.5-1.5-1-1.5-1h-1-1l-1-.5-1-.5-1-18.5-1-18.5-.5-28.5-.5-28.5-.5 32.5-.5 32.5v-2.5-2.5-2-2-2-2l-.5-2-.5-2 .5 19.5.5 19.5 1 30 1 30 .5-2 .5-2v-1-1-1-1l1.5.5 1.5.5-1-1.5-1-1.5v-1.5-1.5l.5-1.5.5-1.5v-1-1-1.5-1.5-1-1-1-1-1.5-1.5-2-2-1.5-1.5-2-2h1 1l.5.5.5.5 1 .5 1 .5h1 1l.5.5.5.5h1 1l1 .5 1 .5h1 1l.5.5.5.5h1 1l1 .5 1 .5 2.5.5 2.5.5h2 2l2 .5 2 .5h2 2 2.5 2.5 2 2 2.5 2.5 2.5 2.5l18-3 18-3 .5-1 .5-1-.5-1.5-.5-1.5 1 .5 1 .5.5-.5.5-.5v-2-2-1.5-1.5" style="fill:#573d1a;stroke:#573d1a"/><path d="m505 372l1-3v-1-1-1.5-1.5-1-1-2-2l-.5-1-.5-1-.5.5-.5.5-.5-.5-.5-.5h-.5-.5l-1 1-1 1-.5 1-.5 1 3 6 3 6" style="fill:#9a6b36;stroke:#9a6b36"/><path d="m504 254v-2-2-2-1.5-1.5l.5-.5.5-.5v-2-2l-.5-1-.5-1v-1-1-1-1l-.5-.5-.5-.5-2 .5-2 .5-5 9.5-5 9.5-.5 9.5-.5 9.5 8-9 8-9" style="fill:#d5ac78;stroke:#d5ac78"/><path d="m503 406l1-3v-2-2-1.5-1.5l-.5-.5-.5-.5v-2-2-1.5-1.5-1-1l-.5-.5-.5-.5-.5.5-.5.5-1 1-1 1h1.5 1.5l-.5 1.5-.5 1.5v3 3 2.5 2.5 2 2l-1 1-1 1-.5 2-.5 2-.5 1.5-.5 1.5-2 .5-2 .5-1 .5-1 .5h1.5 1.5 2 2l2-.5 2-.5v-2-2l.5-1.5.5-1.5v-1.5-1.5" style="fill:#573d1a;stroke:#573d1a"/><g style="fill:#d5ac78;stroke:#d5ac78"><path d="m503 381l1-3-.5-.5-.5-.5h-1-1v1 1l-1.5.5-1.5.5-.5 1-.5 1-1 .5-1 .5h-1-1l-1 .5-1 .5-1.5-.5-1.5-.5h-1-1-1-1-1-1l-1 .5-1 .5-1.5.5-1.5.5-.5.5-.5.5-1 .5-1 .5-1 1-1 1-.5.5-.5.5-1 .5-1 .5-1 1-1 1 18-5.5 18-5.5v-.5-.5"/><path d="m503 331l1-40-8-5-8-5-.5 10.5-.5 10.5-2.5 3.5-2.5 3.5-5.5-1.5-5.5-1.5-.5 3.5-.5 3.5-8.5 3-8.5 3 7 6 7 6 2 4 2 4-7 5-7 5 23-5 23-5h-1.5-1.5l-.5.5-.5.5-1.5.5-1.5.5-1-.5-1-.5v-1-1h1 1l.5-.5.5-.5 1.5-.5 1.5-.5 1-.5 1-.5.5-.5.5-.5v-1.5-1.5"/><path d="m502 356h1l-18 3-18 3 8.5 9.5 8.5 9.5 7.5-10.5 7.5-10.5.5-1 .5-1 1-1 1-1"/></g><g style="fill:#3d2b0f;stroke:#3d2b0f"><path d="m502 349l-20 4-17.5-.5-17.5-.5 1 .5 1 .5h1.5 1.5 1 1 1.5 1.5l1 .5 1 .5-1 1-1 1 1 1 1 1-.5.5-.5.5h-1.5-1.5-2-2-1-1-1-1-1-1-2-2l20-.5 20-.5 10.5-4.5 10.5-4.5"/><path d="m501 391l1-3h-1.5-1.5l-1 .5-1 .5-1 .5-1 .5-.5.5-.5.5-.5.5-.5.5h-1-1l-1 .5-1 .5h-1-1l-.5.5-.5.5h-1-1l-1 .5-1 .5h-1-1l-1.5.5-1.5.5.5.5.5.5-.5 1-.5 1 .5 1.5.5 1.5-.5 1.5-.5 1.5-.5 2-.5 2v2 2l-.5 1.5-.5 1.5v.5.5l-1 1-1 1 2-.5 2-.5 2-.5 2-.5h2 2 3 3l1-.5 1-.5 2-.5 2-.5.5-1.5.5-1.5.5-2 .5-2 1-1 1-1v-2-2-2.5-2.5-3-3"/></g><path d="m500 526l1-1-.5-1-.5-1v-.5-.5l-1.5.5-1.5.5-.5 1-.5 1-1 1-1 1-.5 1-.5 1-1 1-1 1-.5.5-.5.5-1 .5-1 .5-1 1-1 1-.5.5-.5.5v1 1l-.5.5-.5.5-.5-1-.5-1h-2-2-.5-.5l-1.5-.5-1.5-.5h-1-1l-.5-.5-.5-.5h-1-1l-1-.5-1-.5-.5-.5-.5-.5-.5-.5-.5-.5-.5-.5-.5-.5-1-.5-1-.5-.5-.5-.5-.5-.5-.5-.5-.5.5-.5.5-.5.5-.5.5-.5.5-2 .5-2-.5-1.5-.5-1.5.5-.5.5-.5.5-1 .5-1v-1-1l-1.5-1-1.5-1-.5 1.5-.5 1.5-1 1.5-1 1.5-1.5.5-1.5.5h-.5-.5l-1 .5-1 .5h-2-2l-1.5-1-1.5-1-1-1-1-1-1.5-1-1.5-1-1-1-1-1-.5-1.5-.5-1.5 1-1 1-1 1-1 1-1 .5-1.5.5-1.5 1.5-1 1.5-1 .5-1.5.5-1.5 1.5-1 1.5-1 1-1 1-1 1-1.5 1-1.5 1-1 1-1 2-.5 2-.5-.5-1.5-.5-1.5-1-1.5-1-1.5h-.5-.5l-16 12.5-16 12.5-14.5 1.5-14.5 1.5 8-7 8-7h-.5-.5-.5-.5l-2 .5-2 .5-.5-.5-.5-.5-1-.5-1-.5-1.5-.5-1.5-.5-2-.5-2-.5-1 1-1 1 1.5.5 1.5.5.5.5.5.5 1 .5 1 .5 1.5.5 1.5.5h1 1 1.5 1.5.5.5l-1 1-1 1-1.5.5-1.5.5-1.5 1-1.5 1h-2-2l-1.5-.5-1.5-.5-1.5-1-1.5-1h-1-1l-1.5-1-1.5-1-1-.5-1-.5-1.5-.5-1.5-.5-.5.5-.5.5-1-.5-1-.5 1-1 1-1-.5-.5-.5-.5-1-.5-1-.5v1 1l-16 2-16 2-20 4.5-20 4.5-10.5 7.5-10.5 7.5 5.5 7.5 5.5 7.5-10.5 9.5-10.5 9.5 3.5 13.5 3.5 13.5-2.5 13.5-2.5 13.5 14 6 14 6 9.5 8.5 9.5 8.5h17 17l15 2 15 2 2.5 6.5 2.5 6.5-4 9-4 9h18 18l-4.5-11.5-4.5-11.5-4.5-11-4.5-11-.5-1-.5-1 .5-2 .5-2v-2-2l-.5-2-.5-2 .5-1.5.5-1.5 1.5-1 1.5-1 16-14 16-14 10.5-9.5 10.5-9.5 11-9 11-9 10.5-9.5 10.5-9.5" style="fill:#9d8464;stroke:#9d8464"/><path d="m498 361l1-1-7.5 10.5-7.5 10.5-8.5-9.5-8.5-9.5h-2.5-2.5-2.5-2.5-2-2-2.5-2.5-2-2l-2-.5-2-.5h-2-2l6.5 14 6.5 14-1-.5-1-.5-1-1-1-1-1.5.5-1.5.5-2 .5-2 .5h-2-2-2.5-2.5l-.5 1-.5 1 19.5 1.5 19.5 1.5 1-1 1-1 1-.5 1-.5.5-.5.5-.5 1-1 1-1 1-.5 1-.5.5-.5.5-.5 1.5-.5 1.5-.5 1-.5 1-.5h1 1 1 1 1 1l1.5.5 1.5.5 1-.5 1-.5h1 1l1-.5 1-.5.5-1 .5-1v-9.5-9.5" style="fill:#bc9157;stroke:#bc9157"/><path d="m496 525l1-2-2 .5-2 .5-1-.5-1-.5-13-3.5-13-3.5-.5 1-.5 1-.5.5-.5.5.5 1.5.5 1.5 1 .5 1 .5 1 .5 1 .5 1 .5 1 .5v1 1 1.5 1.5l1 1 1 1 1.5 1 1.5 1 1.5.5 1.5.5.5 1 .5 1h2 2l.5 1 .5 1 .5-.5.5-.5v-1-1l.5-.5.5-.5 1-1 1-1 1-.5 1-.5.5-.5.5-.5 1-1 1-1 .5-1 .5-1 1-1 1-1" style="fill:#bda685;stroke:#bda685"/><path d="m491 162v-2l-.5-1.5-.5-1.5-1-1.5-1-1.5v-2-2l-1-1.5-1-1.5-1-1-1-1-1.5-1-1.5-1-1.5.5-1.5.5h-2-2l-2-.5-2-.5h-.5-.5l1 .5 1 .5v1 1l.5 1 .5 1 1 1 1 1 .5.5.5.5 1 .5 1 .5-.5 2-.5 2-1 1-1 1-1.5.5-1.5.5h-1-1l-.5-.5-.5-.5-.5-.5-.5-.5-.5-1-.5-1v-1-1l-.5-.5-.5-.5v-1-1l-.5-1-.5-1 .5-1.5.5-1.5.5-1 .5-1 1 11 1 11 11.5-1.5 11.5-1.5" style="fill:#3d2b0f;stroke:#3d2b0f"/><path d="m478 537h1l-.5-1-.5-1-1.5-.5-1.5-.5-1.5-1-1.5-1-1-1-1-1v-1.5-1.5-1-1l-1-.5-1-.5-1-.5-1-.5-1-.5-1-.5-.5 2-.5 2-.5.5-.5.5-.5.5-.5.5.5.5.5.5.5.5.5.5 1 .5 1 .5.5.5.5.5.5.5.5.5.5.5.5.5 1 .5 1 .5h1 1l.5.5.5.5h1 1l1.5.5 1.5.5" style="fill:#bc9157;stroke:#bc9157"/><path d="m478 397l-1-1-32-4.5-32-4.5 5.5 23 5.5 23 24.5-7 24.5-7 1-1 1-1v-.5-.5l.5-1.5.5-1.5v-2-2l.5-2 .5-2 .5-1.5.5-1.5-.5-1.5-.5-1.5.5-1 .5-1" style="fill:#281402;stroke:#281402"/><path d="m477 278l-15 11h1 1l6.5-5.5 6.5-5.5" style="fill:#b07d47;stroke:#b07d47"/><path d="m476 156l1-4-1-.5-1-.5-.5-.5-.5-.5-1-1-1-1-.5-1-.5-1v-1-1l-1-.5-1-.5h-1.5-1.5l-.5 1-.5 1-.5 1.5-.5 1.5.5 1 .5 1v1 1l.5.5.5.5v1 1l.5 1 .5 1 .5.5.5.5.5.5.5.5h1 1l1.5-.5 1.5-.5 1-1 1-1" style="fill:#573d1a;stroke:#573d1a"/><path d="m475 235l-32-5-3-.5-3-.5h-2-2-2-2l-2-.5-2-.5h-2-2l-2-.5-2-.5-1-.5-1-.5-.5 1-.5 1 1 .5 1 .5h1.5 1.5l.5.5.5.5h1.5 1.5l1 .5 1 .5 2 .5 2 .5h2.5 2.5l1.5.5 1.5.5h2.5 2.5l1.5.5 1.5.5v1 1l-15 2.5-15 2.5 2.5 7.5 2.5 7.5 4 5 4 5-7 3-7 3v16.5 16.5l.5 18 .5 18 1.5 1 1.5 1 1.5.5 1.5.5 1.5 1 1.5 1 2.5.5 2.5.5 1.5-16 1.5-16-1.5-2.5-1.5-2.5 2.5-3.5 2.5-3.5 7-1 7-1-10.5-4.5-10.5-4.5 2.5-4.5 2.5-4.5 9-5 9-5 10-4 10-4-10.5.5-10.5.5-8-4-8-4 4-9.5 4-9.5 17-2 17-2" style="fill:#b07d47;stroke:#b07d47"/><path d="m475 95h1l-.5-30-.5-30-3.5-13.5-3.5-13.5h-3.5-3.5-.5-.5l-12-1.5-12-1.5-2 16-2 16v20 20 20 20l-19 1-19 1h-20-20-20-20-18-18l-16.5 1.5-16.5 1.5-6 13-6 13-1.5 8.5-1.5 8.5-3.5-1.5-3.5-1.5-1.5 4.5-1.5 4.5-2 11-2 11-2-16-2-16-1-10-1-10-3-17-3-17-1.5-15-1.5-15-1.5-15.5-1.5-15.5-3-23-3-23h-21-21-7.5-7.5l-6.5 1-6.5 1 7.5 5.5 7.5 5.5 3 5 3 5 1.5 5.5 1.5 5.5-14.5 3-14.5 3 16.5 2.5 16.5 2.5-7 7-7 7 1.5 12.5 1.5 12.5 3 9 3 9-6 2-6 2 3 2 3 2-4.5 7.5-4.5 7.5-1.5 9.5-1.5 9.5 6.5 1.5 6.5 1.5 5.5 5.5 5.5 5.5-7.5 2.5-7.5 2.5 3.5 6.5 3.5 6.5 1.5 10.5 1.5 10.5 1 7 1 7v5 5l-3.5 5-3.5 5 5 11 5 11-4 2-4 2-.5 10.5-.5 10.5 3.5 6.5 3.5 6.5 6.5 8 6.5 8-5 7-5 7-7-2-7-2 3 7 3 7-4.5 5.5-4.5 5.5-7 10-7 10-18 19-18 19h1 1l14-13.5 14-13.5 1-.5 1-.5h.5.5l1-1.5 1-1.5.5-1 .5-1 12.5-14 12.5-14 9.5-10.5 9.5-10.5 9.5-10 9.5-10 10-10 10-10-2-16-2-16-2.5-17.5-2.5-17.5-2-16-2-16-2.5-16.5-2.5-16.5-1.5-16.5-1.5-16.5-2.5-17.5-2.5-17.5-2.5-17.5-2.5-17.5-1.5-18.5-1.5-18.5 2 13 2 13 2.5 16.5 2.5 16.5 2.5 17.5 2.5 17.5 2 17 2 17 2.5 17.5 2.5 17.5 2.5 17.5 2.5 17.5 2 17 2 17 3 17 3 17 7-8 7-8-1.5-17.5-1.5-17.5 2.5 6.5 2.5 6.5 2 13 2 13 5.5-7.5 5.5-7.5 15.5 7.5 15.5 7.5-11-9.5-11-9.5h11 11l3-14 3-14 14.5-.5 14.5-.5 11.5-4.5 11.5-4.5-14-2-14-2-12 1-12 1-11.5 2.5-11.5 2.5-2 12-2 12-3-16-3-16-2-18-2-18 2-17 2-17 16-4 16-4h18 18l19.5.5 19.5.5 11.5 3 11.5 3 6.5 1.5 6.5 1.5 14.5-4.5 14.5-4.5 9-10 9-10v-20-20l-.5-18.5-.5-18.5 6-6 6-6 4 11 4 11-3.5 11.5-3.5 11.5-.5 10.5-.5 10.5 7.5 6.5 7.5 6.5 8 2 8 2" style="fill:#3d2b0f;stroke:#3d2b0f"/><path d="m474 658l-1-1-1.5.5-1.5.5-1.5.5-1.5.5-1-.5-1-.5-16.5 4.5-16.5 4.5-11.5-11.5-11.5-11.5-1-1-1-1-.5-.5-.5-.5-.5-1-.5-1-.5-.5-.5-.5-.5-.5-.5-.5v-1-1l-.5-1-.5-1v-1-1l-.5-1-.5-1 4.5 11 4.5 11 4.5 11.5 4.5 11.5 27.5-8 27.5-8" style="fill:#c1b5a1;stroke:#c1b5a1"/><path d="m474 31l-18 10 1.5 13.5 1.5 13.5 1.5-10.5 1.5-10.5 6-8 6-8" style="fill:#281402;stroke:#281402"/><path d="m471 655l-46-7-8-2-8-2 11.5 11.5 11.5 11.5 16.5-4.5 16.5-4.5 2-1 2-1 1-.5 1-.5" style="fill:#dac9ab;stroke:#dac9ab"/><path d="m470 549v-2l-1-1-1-1-1-1.5-1-1.5v-1-1-.5-.5h-1-1v3 3l.5 1.5.5 1.5v1 1l-1 1.5-1 1.5-1 1-1 1-.5 1-.5 1v.5.5l2-1 2-1 1-1.5 1-1.5 1.5-.5 1.5-.5.5-1.5.5-1.5" style="fill:#615542;stroke:#615542"/><path d="m469 377l-11 1 5 1 5 1 .5-1.5.5-1.5" style="fill:#9a6b36;stroke:#9a6b36"/><path d="m469 6l1-3h-2-2v-.5-.5h1 1l-.5-.5-.5-.5h-1-1-1.5-1.5l-1.5-.5-1.5-.5h-3.5-3.5-2-2-2-2-.5-.5v.5.5l1 .5 1 .5h2 2l.5.5.5.5h1.5 1.5l1.5.5 1.5.5.5.5.5.5 1 .5 1 .5 1 1 1 1h3.5 3.5l.5-1 .5-1" style="fill:#7b4e22;stroke:#7b4e22"/><path d="m466 629l-26-16 8 7 8 7 5 1 5 1" style="fill:#faf3da;stroke:#faf3da"/><path d="m465 550v-2l-.5-1.5-.5-1.5v-3-3l-.5-1-.5-1-1.5-1-1.5-1-.5-1.5-.5-1.5-1-1.5-1-1.5-1.5-.5-1.5-.5h-1-1l-2-.5-2-.5-.5.5-.5.5h1.5 1.5l.5 1.5.5 1.5 1 1 1 1 1 1.5 1 1.5 1.5-.5 1.5-.5 1.5 1 1.5 1 .5 1.5.5 1.5-.5.5-.5.5-.5 1-.5 1 1 1 1 1v1.5 1.5h-2-2l-1.5 1-1.5 1-1 1-1 1h-2-2v1.5 1.5l1.5.5 1.5.5 2-.5 2-.5 2 1 2 1 .5-1 .5-1 1-1 1-1 1-1.5 1-1.5" style="fill:#573d1a;stroke:#573d1a"/><path d="m462 548v-3l-1-1-1-1 .5-1 .5-1 .5-.5.5-.5-.5-1.5-.5-1.5-1.5-1-1.5-1-1.5.5-1.5.5-1-1.5-1-1.5-1-1-1-1-.5-1.5-.5-1.5h-1.5-1.5-.5-.5v1.5 1.5l-1.5 3.5-1.5 3.5-.5 8.5-.5 8.5-7.5-6-7.5-6-1 1-1 1 .5 1.5.5 1.5h1 1l.5 1 .5 1 1.5.5 1.5.5-.5 1.5-.5 1.5h-1.5-1.5l-1-.5-1-.5-.5 1-.5 1h-1-1l-.5.5-.5.5-.5.5-.5.5 1 .5 1 .5h1 1l.5-.5.5-.5h1 1v1 1l-.5 1-.5 1-1 .5-1 .5-1.5-.5-1.5-.5v-1-1l-1 .5-1 .5-1 1-1 1-.5.5-.5.5h-.5-.5v-2-2h1 1l1-.5 1-.5-1.5-.5-1.5-.5h-1-1l-1.5-.5-1.5-.5-6.5-1.5-6.5-1.5-11.5-3.5-11.5-3.5-1 .5-1 .5-1 1-1 1-1 .5-1 .5.5-1.5.5-1.5-.5-2-.5-2 7 9 7 9 5.5 4.5 5.5 4.5 8-1 8-1 11.5 3 11.5 3-.5 1.5-.5 1.5-.5.5-.5.5.5 1 .5 1 10-8.5 10-8.5 3.5-2.5 3.5-2.5v-.5-.5l-2-1-2-1-2 .5-2 .5-1.5-.5-1.5-.5v-1.5-1.5h2 2l1-1 1-1 1.5-1 1.5-1h2 2" style="fill:#3d2b0f;stroke:#3d2b0f"/><path d="m460 308v-2l-1-1-1-1-1.5-1-1.5-1-1.5.5-1.5.5v2.5 2.5l1 1 1 1 2-.5 2-.5 1-.5 1-.5" style="fill:#b07d47;stroke:#b07d47"/><path d="m460 8h1l-1-1-1-1-1-.5-1-.5-.5-.5-.5-.5-1.5-.5-1.5-.5h-1.5-1.5l-.5-.5-.5-.5h-2-2-.5-.5-21-21-20-20-20-20l-10.5-.5-10.5-.5h20 20 20 20 31 31v-.5-.5h-21.5-21.5-20-20-20-20-20-20-20-20-20-20-4-4l3 23 3 23 1.5 15.5 1.5 15.5 1.5 15 1.5 15 3 17 3 17 1 10 1 10 2 16 2 16 2-11 2-11 1.5-4.5 1.5-4.5 3.5 1.5 3.5 1.5 1.5-8.5 1.5-8.5 6-13 6-13 16.5-1.5 16.5-1.5h18 18 20 20 20 20l19-1 19-1v-20-20-20-20l2-16 2-16 12 1.5 12 1.5" style="fill:#573d1a;stroke:#573d1a"/><path d="m459 490l1-3-2 .5-2 .5-1 1-1 1-1 1.5-1 1.5-1 1-1 1-1.5 1-1.5 1-.5 1.5-.5 1.5-1.5 1-1.5 1-.5 1.5-.5 1.5-1 1-1 1-1 1-1 1 8.5-8 8.5-8 .5-2 .5-2 1.5.5 1.5.5" style="fill:#d5ac78;stroke:#d5ac78"/><path d="m459 354l-2-1h-1.5-1.5-1-1-1.5-1.5l-1-.5-1-.5-17-3.5-17-3.5 8.5 5.5 8.5 5.5 5.5 1.5 5.5 1.5h2 2 1 1 1 1 1 1 2 2 1.5 1.5l.5-.5.5-.5-1-1-1-1 1-1 1-1" style="fill:#281402;stroke:#281402"/><path d="m456 720h1l-16-7-16-7-29-5-29-5-14-4-14-4-14-6.5-14-6.5h-.5-.5l-15 1.5-15 1.5-15.5 3.5-15.5 3.5 8 15.5 8 15.5 1 .5 1 .5.5.5.5.5h1 1l.5 1 .5 1h22 22 20 20 20 20 19.5 19.5 11 11" style="fill:#573d1a;stroke:#573d1a"/><path d="m456 481h1l-16.5 12.5-16.5 12.5 16-12.5 16-12.5" style="fill:#d5ac78;stroke:#d5ac78"/><path d="m455 519h1l-.5-1-.5-1h-1-1l-.5-.5-.5-.5.5-.5.5-.5v-.5-.5l.5-.5.5-.5.5-1 .5-1v-2-2-1-1-1-1l.5-1 .5-1v-1-1-1-1-1-1l-.5-1-.5-1-8.5 8-8.5 8 .5 1.5.5 1.5 1 1 1 1 1.5 1 1.5 1 1 1 1 1 1.5 1 1.5 1h2 2l1-.5 1-.5" style="fill:#bda685;stroke:#bda685"/><path d="m449 472l1-3-.5-.5-.5-.5v-1-1l-.5-.5-.5-.5-.5-1-.5-1v-1-1l-.5-.5-.5-.5v-1-1l-1-.5-1-.5-.5.5-.5.5-.5.5-.5.5-.5.5-.5.5h-1.5-1.5l-1-.5-1-.5v-.5-.5h-2-2-1-1l-1 .5-1 .5-.5 1.5-.5 1.5h1 1l.5 1 .5 1 1 1 1 1v1 1 1.5 1.5l1.5.5 1.5.5 1.5-1 1.5-1 1-1 1-1 1-2 1-2 1-.5 1-.5.5 1.5.5 1.5.5 2 .5 2 .5 1.5.5 1.5 1-.5 1-.5" style="fill:#d5ac78;stroke:#d5ac78"/><path d="m449 389l-13-28-2.5-.5-2.5-.5-1-.5-1-.5h-1-1l-.5-.5-.5-.5h-1-1l-1-.5-1-.5h-1-1l-.5-.5-.5-.5h-1-1l-1-.5-1-.5-.5-.5-.5-.5h-1-1v2 2l13.5 13.5 13.5 13.5-1 .5-1 .5h-2-2-2.5-2.5l-1.5-.5-1.5-.5-2-.5-2-.5-1.5-.5-1.5-.5-1.5-1-1.5-1-1 1-1 1 1.5 1 1.5 1 1 1 1 1 1.5.5 1.5.5h2.5 2.5l.5 1 .5 1h.5.5l.5-1 .5-1h2.5 2.5 2 2l2-.5 2-.5 1.5-.5 1.5-.5 1 1 1 1 1 .5 1 .5" style="fill:#b07d47;stroke:#b07d47"/><path d="m446 531v-3l-6.5-8-6.5-8h-3-3l1 .5 1 .5 1 1.5 1 1.5v2 2l-1 1.5-1 1.5v1 1l.5 1 .5 1-6-2.5-6-2.5 1 6.5 1 6.5 2-.5 2-.5-.5 1.5-.5 1.5 1 1 1 1 1 2 1 2 7.5 6 7.5 6 .5-8.5.5-8.5 1.5-3.5 1.5-3.5" style="fill:#573d1a;stroke:#573d1a"/><path d="m445 476l1-3-.5-.5-.5-.5v-1-1-1.5-1.5l-.5-.5-.5-.5-1-1-1-1-1 2-1 2-1 1-1 1-1.5 1-1.5 1-1.5-.5-1.5-.5v-1.5-1.5-1-1l-1-1-1-1-.5-1-.5-1h-1-1l.5-1.5.5-1.5 1-.5 1-.5h1 1 2 2l-15.5 1-15.5 1-14.5 17-14.5 17v-1-1l11.5-6 11.5-6 10.5 1.5 10.5 1.5 2.5 7.5 2.5 7.5 10-11 10-11" style="fill:#e7dcbf;stroke:#e7dcbf"/><path d="m445 236v-2l-1.5-.5-1.5-.5h-2.5-2.5l-1.5-.5-1.5-.5h-2.5-2.5l-2-.5-2-.5 1 .5 1 .5 1.5.5 1.5.5v1 1l-9 8.5-9 8.5-.5 17.5-.5 17.5v26.5 26.5l1 .5 1 .5h1 1l-.5-18-.5-18v-16.5-16.5l7-3 7-3-4-5-4-5-2.5-7.5-2.5-7.5 15-2.5 15-2.5" style="fill:#9a6b36;stroke:#9a6b36"/><path d="m444 2h1l-1-.5-1-.5h-31-31-20-20-20-20l10.5.5 10.5.5h20 20 20 20 21 21" style="fill:#615542;stroke:#615542"/><path d="m440 456v-2l-.5-1.5-.5-1.5-1-1.5-1-1.5-.5-1.5-.5-1.5-.5-2-.5-2 .5-1.5.5-1.5.5-1 .5-1h-2-2l-33 6-33 6-11 6-11 6-13 2.5-13 2.5 1.5.5 1.5.5h1 1l-.5 1.5-.5 1.5-1.5 7-1.5 7-11-3.5-11-3.5-.5 1-.5 1 3 12 3 12 .5 2.5.5 2.5 20-4.5 20-4.5 16-2 16-2 14.5-17 14.5-17 15.5-1 15.5-1 2-1 2-1" style="fill:#faf3da;stroke:#faf3da"/><path d="m439 385l-27-27 10.5 13 10.5 13-1.5.5-1.5.5h-1-1l-1-.5-1-.5h-1-1l-.5-.5-.5-.5h-1-1l-.5-.5-.5-.5-1-.5-1-.5h-1-1l-.5-.5-.5-.5h-1-1l-.5 1-.5 1 .5.5.5.5 1-1 1-1 1.5 1 1.5 1 1.5.5 1.5.5 2 .5 2 .5 1.5.5 1.5.5h2.5 2.5 2 2l1-.5 1-.5" style="fill:#9a6b36;stroke:#9a6b36"/><path d="m434 574l-23-6-8 1-8 1-5.5-4.5-5.5-4.5-7-9-7-9 .5-1 .5-1 2-.5 2-.5 1.5.5 1.5.5v1.5 1.5l-1 1-1 1 11.5 3.5 11.5 3.5 5-2 5-2 .5-6.5.5-6.5-7.5-5.5-7.5-5.5-7.5 2.5-7.5 2.5-16-2-16-2-.5.5-.5.5-1 .5-1 .5-1 .5-1 .5-.5.5-.5.5-1-.5-1-.5-1-1-1-1-.5-.5-.5-.5-1 .5-1 .5-1 1-1 1-.5.5-.5.5h-1-1-1-1v-1.5-1.5-1-1l.5-.5.5-.5h1 1l.5-1 .5-1 .5-1 .5-1h-1.5-1.5l-1-.5-1-.5-1.5-.5-1.5-.5-1-1.5-1-1.5-.5.5-.5.5-.5 1.5-.5 1.5-.5.5-.5.5-1 1-1 1h-.5-.5l-1-1.5-1-1.5-.5-1.5-.5-1.5-1-1.5-1-1.5-1-1-1-1-1.5.5-1.5.5-1.5 1-1.5 1-1.5-.5-1.5-.5h-.5-.5l.5 1.5.5 1.5-.5.5-.5.5h-1-1v.5.5l.5.5.5.5.5.5.5.5v1 1l-.5 1-.5 1-.5.5-.5.5-.5.5-.5.5v1 1l.5 1 .5 1 1.5.5 1.5.5-.5 1.5-.5 1.5-1.5.5-1.5.5.5 1 .5 1 1.5.5 1.5.5 1-1.5 1-1.5 1 1 1 1 1 1 1 1-2 .5-2 .5-1.5-.5-1.5-.5-1 1.5-1 1.5h-1-1l-.5 1-.5 1 7 3 7 3 9 7 9 7-4 3-4 3-3-3-3-3-4 5-4 5-.5 9.5-.5 9.5 5.5 3.5 5.5 3.5 12.5 4.5 12.5 4.5-1 1.5-1 1.5-.5 3-.5 3 .5.5.5.5 18.5-.5 18.5-.5 1.5-1 1.5-1 .5-.5.5-.5h1 1l.5-.5.5-.5 1-.5 1-.5 1.5-.5 1.5-.5h1 1l1 .5 1 .5 1 1 1 1h1 1l.5-.5.5-.5.5-.5.5-.5-.5-1-.5-1-.5-.5-.5-.5.5-.5.5-.5 1.5.5 1.5.5 10.5-9 10.5-9 6-6 6-6h.5.5l-.5-1-.5-1 .5-.5.5-.5.5-1.5.5-1.5" style="fill:#281402;stroke:#281402"/><path d="m433 384l-21-26v1.5 1.5 2 2 1.5 1.5 1 1 1 1 1.5 1.5 1 1l-.5 1.5-.5 1.5v1.5 1.5l.5-.5.5-.5.5-1 .5-1h1 1l.5.5.5.5h1 1l1 .5 1 .5.5.5.5.5h1 1l.5.5.5.5h1 1l1 .5 1 .5h1 1l1.5-.5 1.5-.5" style="fill:#7b4e22;stroke:#7b4e22"/><path d="m431 554l1-3-1.5-.5-1.5-.5-.5-1-.5-1h-1-1l-.5-1.5-.5-1.5 1-1 1-1-1-2-1-2-1-1-1-1 .5-1.5.5-1.5-2 .5-2 .5-1 1-1 1-1 .5-1 .5-1.5.5-1.5.5-.5.5-.5.5v1 1h1 1v1.5 1.5 1 1 1 1l-.5.5-.5.5-.5-1-.5-1-1.5.5-1.5.5-5 2-5 2 6.5 1.5 6.5 1.5v-.5-.5-2-2l1.5-1 1.5-1 1-1 1-1 1 1.5 1 1.5 1-1 1-1 2-.5 2-.5 1 1 1 1-1 1-1 1 1.5 1.5 1.5 1.5h1.5 1.5" style="fill:#615542;stroke:#615542"/><path d="m430 527l-1-2v-1-1l1-1.5 1-1.5v-2-2l-1-1.5-1-1.5-1-.5-1-.5-12 1-12 1-5.5-1.5-5.5-1.5-6.5-5.5-6.5-5.5 4 7 4 7h-6-6l-5.5-6.5-5.5-6.5-1.5.5-1.5.5-1 1.5-1 1.5-1.5.5-1.5.5-1.5 1-1.5 1-1.5-.5-1.5-.5-.5-1.5-.5-1.5-1.5-1-1.5-1h-1-1-2.5-2.5l-1.5.5-1.5.5-1.5.5-1.5.5 6.5 2 6.5 2 1.5 7.5 1.5 7.5-.5 1.5-.5 1.5 16 2 16 2 7.5-2.5 7.5-2.5 7.5 5.5 7.5 5.5-.5 6.5-.5 6.5 1.5-.5 1.5-.5.5 1 .5 1 .5-.5.5-.5v-1-1-1-1-1.5-1.5h-1-1v-1-1l.5-.5.5-.5 1.5-.5 1.5-.5 1-.5 1-.5 1-1 1-1-1-6.5-1-6.5 6 2.5 6 2.5" style="fill:#3d2b0f;stroke:#3d2b0f"/><path d="m430 235v-2l-1.5-.5-1.5-.5-1-.5-1-.5-1-.5-1-.5h-1.5-1.5l-.5-.5-.5-.5h-1.5-1.5l-1-.5-1-.5h-1.5-1.5-1-1-.5-.5v1 1l.5.5.5.5-.5.5-.5.5v2 2 1.5 1.5 1 1 1.5 1.5.5.5.5.5l.5 28.5.5 28.5 1 18.5 1 18.5v-26.5-26.5l.5-17.5.5-17.5 9-8.5 9-8.5" style="fill:#7b4e22;stroke:#7b4e22"/><path d="m428 559v-2h-1-1l-.5.5-.5.5h-1-1l-1-.5-1-.5.5-.5.5-.5.5-.5.5-.5h1 1l.5-1 .5-1 1 .5 1 .5-1.5-1.5-1.5-1.5 1-1 1-1-1-1-1-1-2 .5-2 .5-1 1-1 1-1-1.5-1-1.5-1 1-1 1-1.5 1-1.5 1v2 2 .5.5l1.5.5 1.5.5h1 1l1.5.5 1.5.5-1 .5-1 .5h-1-1v2 2h.5.5l.5-.5.5-.5 1-1 1-1 1-.5 1-.5v1 1l1.5.5 1.5.5 1-.5 1-.5.5-1 .5-1" style="fill:#827661;stroke:#827661"/><path d="m423 434l1-1h-.5-.5l-2-.5-2-.5-1-1-1-1-1.5-1-1.5-1-.5-1.5-.5-1.5-1-1.5-1-1.5-.5-1.5-.5-1.5-.5-2-.5-2-.5-1.5-.5-1.5.5-2 .5-2h-.5-.5l-.5.5-.5.5-17 2.5-17 2.5-19.5 2.5-19.5 2.5-1 1-1 1-.5 2-.5 2 .5 1.5.5 1.5-1 1-1 1h-2.5-2.5l-1-1-1-1-1.5 1-1.5 1-1 1-1 1 1.5 1 1.5 1-.5 1.5-.5 1.5 1.5.5 1.5.5 1.5.5 1.5.5.5-.5.5-.5 1 .5 1 .5 1.5.5 1.5.5.5.5.5.5h1.5 1.5l1.5-.5 1.5-.5v1 1l-.5 1-.5 1-1.5.5-1.5.5 9.5-5 9.5-5 15.5-4.5 15.5-4.5 13 4 13 4h2 2l1-.5 1-.5h1 1l2 .5 2 .5" style="fill:#573d1a;stroke:#573d1a"/><path d="m423 433h1l-5.5-23-5.5-23v-.5-.5l-1.5-.5-1.5-.5v1 1 1 1l-.5 2-.5 2v1.5 1.5 2 2 2 2 2 2l-.5 2-.5 2 .5 1.5.5 1.5.5 2 .5 2 .5 1.5.5 1.5 1 1.5 1 1.5.5 1.5.5 1.5 1.5 1 1.5 1 1 1 1 1 2 .5 2 .5" style="fill:#3d2b0f;stroke:#3d2b0f"/><path d="m414 670v-2l-.5-1.5-.5-1.5-.5-2-.5-2-.5-1.5-.5-1.5-1-1.5-1-1.5-1-1-1-1h-1.5-1.5l-1 1-1 1-1 1-1 1-.5 1-.5 1 1-.5 1-.5 1-.5 1-.5v1 1l.5 1 .5 1v1.5 1.5l-.5 1.5-.5 1.5h-1-1-1-1l-.5-.5-.5-.5h-1.5-1.5l-.5.5-.5.5-.5.5-.5.5.5.5.5.5-.5.5-.5.5-1-.5-1-.5-.5-.5-.5-.5h-1-1l-.5.5-.5.5-1-.5-1-.5-1 1-1 1 2 .5 2 .5 1.5.5 1.5.5h2 2 2.5 2.5 2 2 2.5 2.5l1.5-.5 1.5-.5 1.5-.5 1.5-.5" style="fill:#615542;stroke:#615542"/><path d="m410 495h1l-17-5.5-17-5.5 1.5.5 1.5.5v1 1h1.5 1.5l1.5.5 1.5.5 1 .5 1 .5h1.5 1.5l1.5.5 1.5.5 1.5.5 1.5.5 2 .5 2 .5 1.5.5 1.5.5 2.5 1 2.5 1h.5.5" style="fill:#d5ac78;stroke:#d5ac78"/><path d="m410 435l1-1-13-4-13-4-15.5 4.5-15.5 4.5-9.5 5-9.5 5h-1.5-1.5l-.5.5-.5.5-.5.5-.5.5-1-.5-1-.5-.5.5-.5.5h-1-1l-.5-.5-.5-.5-1 .5-1 .5h-1-1-1-1l-.5-.5-.5-.5.5-1 .5-1h1 1l-.5-1-.5-1h-.5-.5l-7 3-7 3 7.5-4 7.5-4 2-1 2-1-1.5-.5-1.5-.5.5-1.5.5-1.5-1.5-1-1.5-1 1-1 1-1 1.5-1 1.5-1 1 1 1 1h2.5 2.5l1-1 1-1-.5-1.5-.5-1.5.5-2 .5-2 1-1 1-1 12-11.5 12-11.5.5-.5.5-.5-16.5-1.5-16.5-1.5 2 1 2 1 1.5.5 1.5.5 2 .5 2 .5 1 1 1 1-.5 1.5-.5 1.5-2 .5-2 .5-1.5-.5-1.5-.5-2-.5-2-.5-1.5-.5-1.5-.5-1.5-1-1.5-1 .5-.5.5-.5 1.5-1 1.5-1 .5-1 .5-1h-2.5-2.5l-1-.5-1-.5-2 .5-2 .5-1.5.5-1.5.5h-1-1l-1 .5-1 .5-1.5.5-1.5.5-.5.5-.5.5-1 .5-1 .5.5 1 .5 1 1 .5 1 .5h2 2 1 1l.5-.5.5-.5.5-.5.5-.5.5.5.5.5-1 .5-1 .5-.5 2-.5 2-1.5.5-1.5.5-1.5 1-1.5 1 1.5.5 1.5.5h2 2l.5 1 .5 1-1.5.5-1.5.5-.5 1.5-.5 1.5.5 1 .5 1 .5.5.5.5.5 1 .5 1v1.5 1.5l-1.5.5-1.5.5-1 .5-1 .5-1 1-1 1-2 .5-2 .5-1 1-1 1-1 .5-1 .5-1 .5-1 .5-1.5.5-1.5.5h-.5-.5l-17.5 3-17.5 3-16 4-16 4-15.5 18-15.5 18 8.5-12 8.5-12 2.5 7.5 2.5 7.5 8.5-1.5 8.5-1.5 1.5 1 1.5 1 28.5-2 28.5-2-1.5 1-1.5 1h-.5-.5l-.5 1-.5 1-1.5 2-1.5 2-1.5.5-1.5.5-1 1-1 1v1.5 1.5l14.5-8 14.5-8 13-8.5 13-8.5 8.5-1.5 8.5-1.5 13-3 13-3 16.5-2.5 16.5-2.5" style="fill:#7b4e22;stroke:#7b4e22"/><path d="m408 498h-1-1.5-1.5-1-1l-1.5-.5-1.5-.5-1-.5-1-.5-.5-.5-.5-.5-1.5-.5-1.5-.5 1-1 1-1 2 .5 2 .5 1.5.5 1.5.5 1 .5 1 .5.5.5.5.5 2-.5 2-.5-2.5-1-2.5-1-1.5-.5-1.5-.5-2-.5-2-.5-1.5-.5-1.5-.5-1.5-.5-1.5-.5h-1.5-1.5-.5-.5l-2 .5-2 .5v1 1l1 .5 1 .5-1 2-1 2 1 .5 1 .5 1.5 1 1.5 1h1 1l1.5 1 1.5 1 1.5.5 1.5.5h2 2l1.5-1 1.5-1 1.5-.5 1.5-.5 1-1 1-1" style="fill:#bc9157;stroke:#bc9157"/><path d="m408 408h1v-2-2-2-2-2-2-1.5-1.5l-1-30-1-30-.5-19.5-.5-19.5-.5-1.5-.5-1.5v-1-1-1.5-1.5-2-2-1-1-1.5-1.5l-.5-1.5-.5-1.5.5-.5.5-.5-.5-.5-.5-.5v-1-1-1.5-1.5-2-2-2-2h-.5-.5l-34 .5-34 .5h-.5-.5-3-3-3-3l-.5.5-.5.5h-20-20l-19 1-19 1-15 5-15 5-10.5 9.5-10.5 9.5-10 10-10 10-13 13.5-13 13.5-12.5 14-12.5 14 12.5-3.5 12.5-3.5 14.5-2.5 14.5-2.5 17.5-.5 17.5-.5 5-4 5-4-10.5-2-10.5-2-12 1-12 1-4.5-4.5-4.5-4.5 17-2 17-2 16-1 16-1 8-4 8-4 7.5 10.5 7.5 10.5 3.5-1.5 3.5-1.5 9.5-5.5 9.5-5.5-9.5-4.5-9.5-4.5 15-7.5 15-7.5 3-2 3-2-16.5 3.5-16.5 3.5 15-5 15-5 .5-3.5.5-3.5h-17-17l11.5-2.5 11.5-2.5 15.5-2 15.5-2 16-1 16-1 17-1 17-1-2-2-2-2-8.5.5-8.5.5-11-1-11-1-16-1-16-1 5.5-2.5 5.5-2.5 15-2 15-2 18.5-.5 18.5-.5 6 26.5 6 26.5v1.5 1.5 1 1 1.5 1.5 2 2 1 1l.5 1 .5 1v2 2l-.5.5-.5.5.5.5.5.5v1 1 1.5 1.5l-.5 1.5-.5 1.5v1 1l.5 1.5.5 1.5.5 1 .5 1v2.5 2.5 2 2 2.5 2.5 1.5 1.5 2.5 2.5 2.5 2.5l-.5 1.5-.5 1.5.5 2 .5 2v1.5 1.5l.5 2.5.5 2.5v2 2 2 2 1 1 1.5 1.5 1.5 1.5" style="fill:#7b4e22;stroke:#7b4e22"/><path d="m407 409l1-1v-1.5-1.5-1.5-1.5-1-1-2-2-2-2l-.5-2.5-.5-2.5v3 3 2 2 1.5 1.5.5.5 2 2l-.5 1.5-.5 1.5h-3.5-3.5l-1.5.5-1.5.5-2 .5-2 .5h-2.5-2.5l-19 2.5-19 2.5 2-5.5 2-5.5v-1.5-1.5l.5-.5.5-.5-.5-.5-.5-.5h1 1l.5-.5.5-.5 1-1 1-1-12 11.5-12 11.5 19.5-2.5 19.5-2.5 17-2.5 17-2.5" style="fill:#9a6b36;stroke:#9a6b36"/><path d="m407 311l1-65v-.5-.5h-.5-.5v1.5 1.5 2 2 2 2 2.5 2.5l-.5 1.5-.5 1.5v-2.5-2.5l-1-1-1-1h-2.5-2.5-2-2-2-2l-1 .5-1 .5h2 2 1 1 1.5 1.5 1 1 1 1l1 .5 1 .5v2 2 2 2 1.5 1.5 1 1l.5.5.5.5-.5.5-.5.5.5 1.5.5 1.5v1.5 1.5 1 1 2 2 1.5 1.5 1 1l.5 1.5.5 1.5.5 2 .5 2v2 2 2 2 2.5 2.5" style="fill:#3d2b0f;stroke:#3d2b0f"/><path d="m406 408l1-3v-2-2h-.5-.5l-.5.5-.5.5h-1-1-1-1-1-1l-1-.5-1-.5-.5-.5-.5-.5-.5.5-.5.5h-1-1l-1 .5-1 .5-.5.5-.5.5-.5.5-.5.5-.5.5-.5.5v1 1l-.5 1.5-.5 1.5h2.5 2.5l2-.5 2-.5 1.5-.5 1.5-.5h3.5 3.5" style="fill:#b07d47;stroke:#b07d47"/><path d="m406 401h1v-.5-.5h-.5-.5l-3-2.5-3-2.5-6.5-.5-6.5-.5-7.5 4.5-7.5 4.5-9.5.5-9.5.5-2 5.5-2 5.5 19-2.5 19-2.5.5-1.5.5-1.5v-1-1l.5-.5.5-.5.5-.5.5-.5.5-.5.5-.5 1-.5 1-.5h1 1l.5-.5.5-.5.5.5.5.5 1 .5 1 .5h1 1 1 1 1 1l.5-.5.5-.5" style="fill:#bc9157;stroke:#bc9157"/><path d="m406 400h1v-1.5-1.5-2-2-3-3-1.5-1.5l-.5-2-.5-2 .5-1.5.5-1.5v-2.5-2.5-2.5-2.5h-.5-.5l-10.5-4.5-10.5-4.5-4-3-4-3 14.5-2 14.5-2-.5-1.5-.5-1.5v-1-1l.5-1.5.5-1.5v-1.5-1.5-1-1l-.5-.5-.5-.5.5-.5.5-.5v-2-2l-.5-1-.5-1v-1-1-2-2-1.5-1.5-1-1-1.5-1.5h-.5-.5l-9-6-9-6-10 4.5-10 4.5-1 3.5-1 3.5 2 17 2 17-4.5 22-4.5 22-.5.5-.5.5-1 1-1 1-.5.5-.5.5h-1-1l.5.5.5.5-.5.5-.5.5v1.5 1.5l9.5-.5 9.5-.5 7.5-4.5 7.5-4.5 6.5.5 6.5.5 3 2.5 3 2.5" style="fill:#b07d47;stroke:#b07d47"/><path d="m406 367h1v-1.5-1.5-2.5-2.5-2-2-2.5-2.5l-.5-1-.5-1-14.5 2-14.5 2 4 3 4 3 10.5 4.5 10.5 4.5" style="fill:#bc9157;stroke:#bc9157"/><path d="m404 664v-3l-.5-1-.5-1v-1-1l-1 .5-1 .5-1 .5-1 .5-2 1-2 1-1.5.5-1.5.5-1.5 1-1.5 1-1.5.5-1.5.5-.5 1.5-.5 1.5 1 .5 1 .5.5-.5.5-.5h1 1l.5.5.5.5 1 .5 1 .5.5-.5.5-.5-.5-.5-.5-.5.5-.5.5-.5.5-.5.5-.5h1.5 1.5l.5.5.5.5h1 1 1 1l.5-1.5.5-1.5" style="fill:#7b4e22;stroke:#7b4e22"/><path d="m404 313h1l-6-26.5-6-26.5-18.5.5-18.5.5-15 2-15 2-5.5 2.5-5.5 2.5 16 1 16 1 11 1 11 1 8.5-.5 8.5-.5 2 2 2 2-17 1-17 1-16 1-16 1-15.5 2-15.5 2-11.5 2.5-11.5 2.5h17 17l-.5 3.5-.5 3.5-15 5-15 5 16.5-3.5 16.5-3.5-3 2-3 2 11 7 11 7v-2-2l8-5 8-5 8 7 8 7-15 4-15 4-4 2-4 2 17.5-2.5 17.5-2.5 4.5 8.5 4.5 8.5 1.5 15 1.5 15v1.5 1.5l-.5.5-.5.5-.5.5-.5.5-.5.5-.5.5v1.5 1.5l-.5.5-.5.5-.5-.5-.5-.5-.5.5-.5.5h-1.5-1.5l-.5 1-.5 1-1.5 1.5-1.5 1.5-1.5.5-1.5.5h-2.5-2.5l-1.5.5-1.5.5h-2-2l-2.5-.5-2.5-.5-1 1-1 1h-1-1l-.5.5-.5.5-.5-1-.5-1h-1-1l-.5.5-.5.5-1 .5-1 .5 1 .5 1 .5h2.5 2.5l16.5 1.5 16.5 1.5 4.5-22 4.5-22-2-17-2-17 1-3.5 1-3.5 10-4.5 10-4.5 9 6 9 6" style="fill:#9a6b36;stroke:#9a6b36"/><path d="m403 259h1l-1-.5-1-.5h-1-1-1-1-1.5-1.5-1-1-2-2l-27 .5-27 .5v.5.5l34-.5 34-.5" style="fill:#573d1a;stroke:#573d1a"/><path d="m402 210l-16-18-8 10-8 10 9-8 9-8 4.5 8.5 4.5 8.5 2.5-1.5 2.5-1.5" style="fill:#3d2b0f;stroke:#3d2b0f"/><path d="m401 642v-2l-.5-1.5-.5-1.5-.5-2-.5-2v-2-2-1.5-1.5-2-2-2.5-2.5l-.5-.5-.5-.5v2 2 2.5 2.5l-.5.5-.5.5h-1-1l-1.5-1-1.5-1-1-1-1-1-.5-1.5-.5-1.5-1.5 1-1.5 1h-2-2l-2 .5-2 .5-1.5.5-1.5.5-2.5.5-2.5.5 15 8 15 8 .5 1 .5 1" style="fill:#827661;stroke:#827661"/><path d="m399 640h1l-15-8-15-8 7 7 7 7 7.5 1 7.5 1" style="fill:#786449;stroke:#786449"/><path d="m398 611l1-1-1.5-.5-1.5-.5-.5.5-.5.5.5.5.5.5.5 1 .5 1-.5.5-.5.5-.5.5-.5.5h-1-1l-1-1-1-1-1-.5-1-.5h-1-1l-1.5.5-1.5.5-1 .5-1 .5-.5.5-.5.5h-1-1l-.5.5-.5.5-1.5 1-1.5 1 2.5-1 2.5-1 1.5-.5 1.5-.5 2-.5 2-.5 1.5.5 1.5.5 1.5 1 1.5 1 .5 1.5.5 1.5 1 1 1 1v-1.5-1.5l.5-1.5.5-1.5.5-2 .5-2v-.5-.5" style="fill:#3d2b0f;stroke:#3d2b0f"/><path d="m397 626l1-1-2-1-2-1-1-1.5-1-1.5-1-1-1-1-1.5-1-1.5-1-1.5.5-1.5.5-1.5 1-1.5 1-1.5.5-1.5.5-1.5.5-1.5.5-2 .5-2 .5-.5 1-.5 1 2.5-.5 2.5-.5 1.5-.5 1.5-.5 2-.5 2-.5h2 2l1.5-1 1.5-1 .5 1.5.5 1.5 1 1 1 1 1.5 1 1.5 1h1 1" style="fill:#786449;stroke:#786449"/><path d="m387 514l-8-14h-2.5-2.5-2.5-2.5l-1.5.5-1.5.5h-1-1l5.5 6.5 5.5 6.5h6 6" style="fill:#281402;stroke:#281402"/><path d="m387 489h1l-1-.5-1-.5-1.5-.5-1.5-.5h-1.5-1.5v-1-1l-1.5-.5-1.5-.5-1.5 1-1.5 1 .5 1.5.5 1.5.5 1.5.5 1.5 1 .5 1 .5.5.5.5.5-1 1-1 1 1 .5 1 .5.5-.5.5-.5 1.5.5 1.5.5 1-2 1-2-1-.5-1-.5v-1-1l2-.5 2-.5" style="fill:#bda685;stroke:#bda685"/><g style="fill:#3d2b0f;stroke:#3d2b0f"><path d="m386 187v-2l.5-1.5.5-1.5-1-1.5-1-1.5-.5 1.5-.5 1.5-2-.5-2-.5-1.5-.5-1.5-.5-.5 1-.5 1 1 1 1 1 1 1 1 1 2 .5 2 .5h1 1"/><path d="m379 610l-13-7 3.5 6.5 3.5 6.5 3-3 3-3"/></g><path d="m378 544v-3l-1.5-.5-1.5-.5-2 .5-2 .5-.5 1-.5 1 .5 2 .5 2-.5 1.5-.5 1.5 1-.5 1-.5 1-1 1-1 1-.5 1-.5 1-1 1-1" style="fill:#573d1a;stroke:#573d1a"/><g style="fill:#3d2b0f;stroke:#3d2b0f"><path d="m374 619l1-1-18.5.5-18.5.5 1 .5 1 .5 1 .5 1 .5 1.5.5 1.5.5.5.5.5.5h1.5 1.5l1.5.5 1.5.5 1 1 1 1h1 1l1 .5 1 .5 1-1 1-1h1 1l1.5-.5 1.5-.5 1-.5 1-.5 1.5-1 1.5-1 1.5-.5 1.5-.5.5-.5.5-.5"/><path d="m368 542l-15-1-13-1-13-1 2.5 6.5 2.5 6.5v11 11l-.5 6.5-.5 6.5 9.5-10.5 9.5-10.5 6.5-6.5 6.5-6.5 2.5-5.5 2.5-5.5"/></g><path d="m365 631v-2l-1-1-1-1 1-1.5 1-1.5-1.5.5-1.5.5h-1-1l-1 1-1 1-1-.5-1-.5h-1-1l-1-1-1-1-1.5-.5-1.5-.5h-1.5-1.5l-.5-.5-.5-.5-1.5-.5-1.5-.5-1-.5-1-.5-1-.5-1-.5-.5-.5-.5-.5-1-.5-1-.5.5 1 .5 1 .5 1 .5 1 1.5.5 1.5.5 1.5.5 1.5.5 2 .5 2 .5 1.5.5 1.5.5 1.5 1 1.5 1 1.5.5 1.5.5 1.5 1 1.5 1 2 1 2 1 1-.5 1-.5" style="fill:#573d1a;stroke:#573d1a"/><path d="m363 372l-3-30-4.5-8.5-4.5-8.5-17.5 2.5-17.5 2.5 4-2 4-2 15-4 15-4-8-7-8-7-8 5-8 5v2 2l-11-7-11-7 2.5 13 2.5 13h-2-2l-.5.5-.5.5h-1-1l-.5-.5-.5-.5h-1-1-1.5-1.5-1-1l-.5.5-.5.5v1 1l.5 1 .5 1v1 1l-.5.5-.5.5-.5.5-.5.5h1.5 1.5v1 1l.5 1 .5 1 1.5-1 1.5-1 2-.5 2-.5 1 1 1 1v1.5 1.5l-.5 1.5-.5 1.5h-1.5-1.5-1-1l-1-1.5-1-1.5-.5-1-.5-1-2.5 13-2.5 13-4 4-4 4 4.5 9.5 4.5 9.5 1.5.5 1.5.5 1 1 1 1 2.5.5 2.5.5 1.5-1.5 1.5-1.5 9.5-4.5 9.5-4.5-1.5.5-1.5.5-2 .5-2 .5h-1-1l-.5 1-.5 1h2.5 2.5l2-.5 2-.5 1-.5 1-.5.5-.5.5-.5h1 1l.5 1 .5 1 .5-.5.5-.5h1 1l1-1 1-1 12-3 12-3h1.5 1.5l.5-.5.5-.5.5.5.5.5.5-.5.5-.5v-1.5-1.5l.5-.5.5-.5.5-.5.5-.5.5-.5.5-.5v-1.5-1.5" style="fill:#b07d47;stroke:#b07d47"/><path d="m362 633l1-1-2-1-2-1-1.5-1-1.5-1-1.5-.5-1.5-.5-1.5-1-1.5-1-1.5-.5-1.5-.5-2-.5-2-.5-1.5-.5-1.5-.5-1.5-.5-1.5-.5h-.5-.5l-20-6-20-6-1-.5-1-.5h-1.5-1.5-1-1l-1-.5-1-.5-1-1-1-1-.5-2-.5-2-.5-1.5-.5-1.5-.5-1.5-.5-1.5v-1-1l-.5-1.5-.5-1.5-1 1-1 1-.5 2-.5 2 .5 1.5.5 1.5 1 1.5 1 1.5-.5 1.5-.5 1.5.5 2 .5 2 1 1 1 1 .5 1 .5 1 17.5 2.5 17.5 2.5 2.5 1.5 2.5 1.5 18 6.5 18 6.5 1-.5 1-.5" style="fill:#786449;stroke:#786449"/><path d="m362 312l-30-12 6 2 6 2 8.5 7.5 8.5 7.5.5-3.5.5-3.5" style="fill:#7b4e22;stroke:#7b4e22"/><path d="m359 635l1-1-18-6.5-18-6.5 10.5 9 10.5 9 7-2 7-2" style="fill:#827661;stroke:#827661"/><g style="fill:#bc9157;stroke:#bc9157"><path d="m356 354v-2l-.5-1.5-.5-1.5-1-1.5-1-1.5-1-1-1-1-1.5 1-1.5 1v1 1h1.5 1.5v1 1 1 1 1 1l-.5 1-.5 1-.5 1.5-.5 1.5 1-1 1-1 1.5-1 1.5-1 1-.5 1-.5"/><path d="m353 384l1-2-12 3-12 3 2.5.5 2.5.5h2 2l1.5-.5 1.5-.5h2.5 2.5l1.5-.5 1.5-.5 1.5-1.5 1.5-1.5"/></g><path d="m351 354v-2-1-1-1-1h-1.5-1.5v-1-1l-2.5 1-2.5 1-1.5.5-1.5.5 1 1.5 1 1.5v2 2l-.5 1.5-.5 1.5h1 1l.5-1 .5-1 1 1 1 1 .5.5.5.5 1-.5 1-.5.5-1.5.5-1.5.5-1 .5-1" style="fill:#d5ac78;stroke:#d5ac78"/><path d="m350 368v-2l-.5-1.5-.5-1.5v-1.5-1.5-.5-.5l-1 .5-1 .5-.5-.5-.5-.5-1-1-1-1-.5 1-.5 1h-1-1l.5-1.5.5-1.5v-2-2l-1-1.5-1-1.5v9.5 9.5h5 5" style="fill:#bc9157;stroke:#bc9157"/><path d="m349 523l-3-15-6.5-2-6.5-2h-1-1l-1 1-1 1 1 1.5 1 1.5-1 1-1 1-.5 1.5-.5 1.5 2 .5 2 .5 1-1 1-1 1.5 1 1.5 1-.5 1.5-.5 1.5-1.5 1-1.5 1 1 .5 1 .5h2 2l.5-.5.5-.5.5-1 .5-1 1 1 1 1 1 1.5 1 1.5 1.5 1.5 1.5 1.5.5-1.5.5-1.5" style="fill:#281402;stroke:#281402"/><g style="fill:#3d2b0f;stroke:#3d2b0f"><path d="m347 527l1-1-1.5-1.5-1.5-1.5-1-1.5-1-1.5-1-1-1-1-.5 1-.5 1-.5.5-.5.5h-2-2l-1-.5-1-.5-.5 1-.5 1-.5 1-.5 1h-1-1l-.5.5-.5.5v1 1 1.5 1.5h1 1 1 1l.5-.5.5-.5 1-1 1-1 1-.5 1-.5.5.5.5.5 1 1 1 1 1 .5 1 .5.5-.5.5-.5 1-.5 1-.5 1-.5 1-.5"/><path d="m340 609l-25-9-5.5-3.5-5.5-3.5.5-9.5.5-9.5 4-5 4-5 3 3 3 3 4-3 4-3-9-7-9-7-7-3-7-3 .5 6.5.5 6.5-5 8-5 8v1.5 1.5 1.5 1.5l.5.5.5.5v1 1 1 1l.5.5.5.5.5 1 .5 1v1 1l.5.5.5.5-.5 1.5-.5 1.5-1-.5-1-.5-1-1-1-1v-2.5-2.5h-1-1l8.5 11.5 8.5 11.5 17.5 4.5 17.5 4.5 1 .5 1 .5.5-3 .5-3 1-1.5 1-1.5"/></g><g style="fill:#786449;stroke:#786449"><path d="m339 442v-2l-1.5.5-1.5.5h-1.5-1.5l-.5-.5-.5-.5-1.5-.5-1.5-.5-1-.5-1-.5-.5.5-.5.5-1.5-.5-1.5-.5-2 1-2 1v1 1l.5 1 .5 1h-1-1l-.5 1-.5 1 .5.5.5.5h1 1 1 1l1-.5 1-.5.5.5.5.5h1 1l.5-.5.5-.5 1 .5 1 .5.5-.5.5-.5.5-.5.5-.5h1.5 1.5l1.5-.5 1.5-.5.5-1 .5-1"/><path d="m338 401l1-3-1-1-1-1-2-.5-2-.5-1.5-.5-1.5-.5-2-1-2-1-.5 1-.5 1-1.5 1-1.5 1-.5.5-.5.5 1.5 1 1.5 1 1.5.5 1.5.5 2 .5 2 .5 1.5.5 1.5.5 2-.5 2-.5"/></g><path d="m336 621h1l-.5-1-.5-1-.5-1-.5-1h-.5-.5l-.5-2-.5-2-.5-1.5-.5-1.5-1.5-1-1.5-1h-2-2-2.5-2.5l-1.5.5-1.5.5h-2-2-2.5-2.5-2-2-2.5-2.5-1.5-1.5l20 6 20 6" style="fill:#615542;stroke:#615542"/><path d="m336 518l1-3-1.5-1-1.5-1-1 1-1 1-2-.5-2-.5.5-1.5.5-1.5 1-1 1-1-1-1.5-1-1.5 1-1 1-1-2 1.5-2 1.5-1.5.5-1.5.5-1.5-1-1.5-1-1.5.5-1.5.5-.5 1-.5 1 1 1 1 1-.5 1-.5 1 .5 1.5.5 1.5.5 1.5.5 1.5-1 1.5-1 1.5 1-1 1-1 .5-.5.5-.5.5-1.5.5-1.5.5-.5.5-.5 1 1.5 1 1.5 1.5.5 1.5.5 1 .5 1 .5h1.5 1.5l1.5-1 1.5-1" style="fill:#3d2b0f;stroke:#3d2b0f"/><path d="m334 617h1l-17.5-4.5-17.5-4.5-8.5-11.5-8.5-11.5-.5 1.5-.5 1.5-.5 1-.5 1 .5 1.5.5 1.5v1 1l.5 1.5.5 1.5.5 1.5.5 1.5.5 2 .5 2 1 1 1 1 1 .5 1 .5h1 1 1.5 1.5l1 .5 1 .5h1.5 1.5 2.5 2.5 2 2 2.5 2.5 2 2l1.5-.5 1.5-.5h2.5 2.5 2 2l1.5 1 1.5 1 .5 1.5.5 1.5.5 2 .5 2" style="fill:#573d1a;stroke:#573d1a"/><path d="m334 260h1v-.5-.5l-27.5.5-27.5.5h2 2 2 2 2.5 2.5 2 2 2 2 2.5 2.5 2 2 2.5 2.5 2 2 1.5 1.5 3 3 3 3" style="fill:#3d2b0f;stroke:#3d2b0f"/><path d="m329 425l1-3-1.5-.5-1.5-.5-2 .5-2 .5h-2-2l-1.5 1-1.5 1 1 1 1 1h2.5 2.5 2 2l1-.5 1-.5" style="fill:#9a6b36;stroke:#9a6b36"/><path d="m326 192l-19-5-11 1-11 1-11 1-11 1 12.5 2.5 12.5 2.5 12-1 12-1 7-1 7-1" style="fill:#3d2b0f;stroke:#3d2b0f"/><path d="m323 469l1-3h-1-1l-1.5-.5-1.5-.5-1.5 1-1.5 1-1 .5-1 .5-.5.5-.5.5-1.5.5-1.5.5-1 .5-1 .5-.5.5-.5.5-1.5.5-1.5.5-1.5.5-1.5.5-1.5 1-1.5 1 11 3.5 11 3.5 1.5-7 1.5-7" style="fill:#e7dcbf;stroke:#e7dcbf"/><path d="m321 261l1-1h-1.5-1.5-2-2-2.5-2.5-2-2-2.5-2.5-2-2-2-2-2.5-2.5-2-2-2-2-2-2-1-1-2-2l-15.5-7.5-15.5-7.5-5.5 7.5-5.5 7.5-2-13-2-13-2.5-6.5-2.5-6.5 1.5 17.5 1.5 17.5-7 8-7 8-3-17-3-17-2-17-2-17-2.5-17.5-2.5-17.5-2.5-17.5-2.5-17.5-2-17-2-17-2.5-17.5-2.5-17.5-2.5-16.5-2.5-16.5-2-13-2-13 1.5 18.5 1.5 18.5 2.5 17.5 2.5 17.5 2.5 17.5 2.5 17.5 1.5 16.5 1.5 16.5 2.5 16.5 2.5 16.5 2 16 2 16 2.5 17.5 2.5 17.5 2 16 2 16-10 10-10 10-9.5 10-9.5 10-9.5 10.5-9.5 10.5 13-13.5 13-13.5 10-10 10-10 10.5-9.5 10.5-9.5 15-5 15-5 19-1 19-1h20 20" style="fill:#573d1a;stroke:#573d1a"/><path d="m320 388l-19 9h.5.5l1-.5 1-.5.5-.5.5-.5 1.5-.5 1.5-.5 1-.5 1-.5h1 1l1.5-.5 1.5-.5h-2.5-2.5l.5-1 .5-1h1 1l2-.5 2-.5 1.5-.5 1.5-.5" style="fill:#bc9157;stroke:#bc9157"/><g style="fill:#573d1a;stroke:#573d1a"><path d="m318 442h1v-1-1l-7.5 4-7.5 4 7-3 7-3"/><path d="m314 431l-21 3-13 6-13 6-10 2-10 2-5.5 8.5-5.5 8.5 7.5-3.5 7.5-3.5 13-6 13-6 13-7 13-7 5.5-1.5 5.5-1.5"/></g><path d="m314 399l-1-1-.5.5-.5.5-.5.5-.5.5h-1-1-2-2l-1-.5-1-.5-.5-1-.5-1h-.5-.5l-1.5 1.5-1.5 1.5-2.5-.5-2.5-.5 1.5 1 1.5 1 .5 1 .5 1h1.5 1.5 1.5 1.5l2 .5 2 .5h2 2l.5-2 .5-2 1-.5 1-.5" style="fill:#9a6b36;stroke:#9a6b36"/><path d="m313 410l-1-2h-2-2l-1.5-.5-1.5-.5 1.5-1 1.5-1 1.5-.5 1.5-.5h-2-2l-2-.5-2-.5h-1.5-1.5-1.5-1.5v1.5 1.5l-2-1-2-1-1.5-1-1.5-1-1 1-1 1 1.5 1 1.5 1-1 .5-1 .5 1 1 1 1 1.5 1 1.5 1 2 .5 2 .5h2 2l2-1 2-1 .5.5.5.5-.5 1-.5 1 1.5.5 1.5.5.5-1.5.5-1.5 1.5-.5 1.5-.5" style="fill:#786449;stroke:#786449"/><path d="m312 638l1-3-1.5-.5-1.5-.5h-2.5-2.5-2-2l-1.5 1-1.5 1 .5 1.5.5 1.5h2.5 2.5 2 2 2 2v-.5-.5" style="fill:#faf3da;stroke:#faf3da"/><path d="m312 422v-3l-.5-1-.5-1-.5-.5-.5-.5-.5-1-.5-1-1.5-.5-1.5-.5.5-1 .5-1-.5-.5-.5-.5-.5 1-.5 1v1 1 1 1l.5 1.5.5 1.5 1-1.5 1-1.5.5 1.5.5 1.5.5 1 .5 1h-2-2l-.5 1.5-.5 1.5-2 .5-2 .5-1 1-1 1-1.5 1-1.5 1 .5.5.5.5 1-.5 1-.5 1-1 1-1 2-.5 2-.5 1-1 1-1 1-.5 1-.5 1.5-.5 1.5-.5" style="fill:#b07d47;stroke:#b07d47"/><path d="m310 675h1l-24.5-15-24.5-15h-.5-.5l-9.5-8.5-9.5-8.5-6.5-20.5-6.5-20.5-.5-2-.5-2v-2.5-2.5l-.5-1.5-.5-1.5v-2.5-2.5l.5-1.5.5-1.5-1-1-1-1-1 .5-1 .5-1 1-1 1-.5 1.5-.5 1.5-.5 1.5-.5 1.5-.5 2-.5 2-1 1-1 1-.5 2-.5 2-.5 1.5-.5 1.5-1 1.5-1 1.5-.5 2-.5 2-.5 18.5-.5 18.5 4 16 4 16 7.5 12 7.5 12 15.5 14.5 15.5 14.5-8-15.5-8-15.5 15.5-3.5 15.5-3.5 15-1.5 15-1.5" style="fill:#7b4e22;stroke:#7b4e22"/><path d="m310 421l-1-2-.5-1.5-.5-1.5-1 1.5-1 1.5-.5-1.5-.5-1.5v-1-1-1-1l.5-1 .5-1-2 1-2 1h-2-2l-2-.5-2-.5-1.5-1-1.5-1-12.5-1-12.5-1-2 7-2 7-5 4-5 4-10.5 1-10.5 1 30.5.5 30.5.5 1.5-.5 1.5-.5 1-.5 1-.5-.5-.5-.5-.5 1.5-1 1.5-1 1-1 1-1 2-.5 2-.5.5-1.5.5-1.5h2 2" style="fill:#bc9157;stroke:#bc9157"/><path d="m307 469l1-3-14.5 8-14.5 8h-1-1-.5-.5l-2 1-2 1 17.5-7.5 17.5-7.5" style="fill:#786449;stroke:#786449"/><path d="m305 330l-5-26-15 7.5-15 7.5 9.5 4.5 9.5 4.5-9.5 5.5-9.5 5.5-3.5 1.5-3.5 1.5-7.5-10.5-7.5-10.5-8 4-8 4-16 1-16 1-17 2-17 2 4.5 4.5 4.5 4.5 12-1 12-1 10.5 2 10.5 2-5 4-5 4-17.5.5-17.5.5-14.5 2.5-14.5 2.5-12.5 3.5-12.5 3.5-.5 1-.5 1-1 1.5-1 1.5h-.5-.5l-1 .5-1 .5 13.5 1.5 13.5 1.5 2.5 3.5 2.5 3.5.5 1.5.5 1.5 23 .5 23 .5-8 3-8 3-14 2-14 2-17.5.5-17.5.5-18 6-18 6-.5 1.5-.5 1.5-.5.5-.5.5-1 .5-1 .5-.5.5-.5.5-.5.5-.5.5-.5.5-.5.5-.5.5-.5.5-.5.5-.5.5-1 1.5-1 1.5 1.5.5 1.5.5 2 .5 2 .5 1.5-.5 1.5-.5 2 .5 2 .5h1 1l1.5-.5 1.5-.5 2 .5 2 .5h2 2l1 .5 1 .5-11 5-11 5 2.5 5.5 2.5 5.5-15.5 2.5-15.5 2.5-11.5 7.5-11.5 7.5-9.5 10-9.5 10-3.5 7.5-3.5 7.5v2.5 2.5 2 2 2.5 2.5 2 2 2.5 2.5l18-1 18-1 14-1 14-1-.5-7.5-.5-7.5h-13-13l4-.5 4-.5 13-3.5 13-3.5-5.5-6.5-5.5-6.5 6.5-6.5 6.5-6.5 14-3 14-3 6.5-3.5 6.5-3.5 6.5-3.5 6.5-3.5 19-1 19-1 17.5-1.5 17.5-1.5 6-5 6-5-11.5-1.5-11.5-1.5-4.5-6.5-4.5-6.5-14.5-.5-14.5-.5 4-2.5 4-2.5 2-3 2-3 10.5-1.5 10.5-1.5 15-3 15-3 11.5-2.5 11.5-2.5 18-3.5 18-3.5 1 .5 1 .5.5.5.5.5.5.5.5.5.5.5.5.5.5.5.5.5h1 1l1 .5 1 .5.5.5.5.5.5.5.5.5h1.5 1.5l-4.5-9.5-4.5-9.5 4-4 4-4 2.5-13 2.5-13-.5-1-.5-1v-1-1h-1.5-1.5l.5-.5.5-.5.5-.5.5-.5v-1-1l-.5-1-.5-1v-1-1l.5-.5.5-.5h1 1 1.5 1.5 1 1l.5.5.5.5h1 1l.5-.5.5-.5h2 2" style="fill:#9a6b36;stroke:#9a6b36"/><path d="m300 534l1-3-1.5-.5-1.5-.5-.5-1-.5-1v-1-1l.5-.5.5-.5.5-.5.5-.5.5-1 .5-1v-1-1l-.5-.5-.5-.5-.5-.5-.5-.5v-.5-.5h1 1l.5-.5.5-.5-.5-1.5-.5-1.5-2.5 1-2.5 1-1 1-1 1-.5 2-.5 2-.5 1.5-.5 1.5.5 2 .5 2 .5 1.5.5 1.5 1 1.5 1 1.5 1 .5 1 .5 1.5-.5 1.5-.5" style="fill:#3d2b0f;stroke:#3d2b0f"/><path d="m300 348l1-3v-1.5-1.5l-1-1-1-1-2 .5-2 .5-1.5 1-1.5 1 .5 1 .5 1 1 1.5 1 1.5h1 1 1.5 1.5" style="fill:#9a6b36;stroke:#9a6b36"/><path d="m298 579v-2l-.5-1.5-.5-1.5-1.5-1-1.5-1-1 1-1 1v2.5 2.5l.5 1.5.5 1.5 2-.5 2-.5.5-1 .5-1" style="fill:#573d1a;stroke:#573d1a"/><path d="m297 406v-3l-.5-1-.5-1-1.5-1-1.5-1-1-1-1-1-1.5-.5-1.5-.5h-1.5-1.5l-.5-.5-.5-.5-.5-.5-.5-.5-1-.5-1-.5h-1-1l-.5-.5-.5-.5-.5-.5-.5-.5-.5-.5-.5-.5-.5-.5-.5-.5-1-.5-1-.5-1 1-1 1-.5.5-.5.5.5 1 .5 1 1 1 1 1 .5.5.5.5.5 1 .5 1 1.5.5 1.5.5.5.5.5.5.5 1 .5 1 1.5.5 1.5.5 1 1 1 1 .5.5.5.5 1.5.5 1.5.5 1-.5 1-.5-1.5-1-1.5-1 1-1 1-1 1.5 1 1.5 1 2 1 2 1" style="fill:#7b4e22;stroke:#7b4e22"/><path d="m292 468l-57 4 21 5 21 5h1 1v-1.5-1.5l1-1 1-1 1.5-.5 1.5-.5 1.5-2 1.5-2 1-3.5 1-3.5.5 1 .5 1-.5 1-.5 1v.5.5l1.5-1 1.5-1" style="fill:#9a6b36;stroke:#9a6b36"/><path d="m291 432h1l-30.5-.5-30.5-.5 10.5-1 10.5-1 5-4 5-4 2-7 2-7 12.5 1 12.5 1-1-1-1-1-1.5-.5-1.5-.5-.5-.5-.5-.5-1-1-1-1-1.5-.5-1.5-.5-.5-1-.5-1-.5-.5-.5-.5-1.5-.5-1.5-.5-.5-1-.5-1-.5-.5-.5-.5-1-1-1-1-.5-1-.5-1 .5-.5.5-.5 1-1 1-1-18 3.5-18 3.5-11.5 2.5-11.5 2.5-15 3-15 3-10.5 1.5-10.5 1.5-2 3-2 3-4 2.5-4 2.5 14.5.5 14.5.5 4.5 6.5 4.5 6.5 11.5 1.5 11.5 1.5-6 5-6 5-17.5 1.5-17.5 1.5-19 1-19 1-6.5 3.5-6.5 3.5-6.5 3.5-6.5 3.5-14 3-14 3-6.5 6.5-6.5 6.5 5.5 6.5 5.5 6.5-13 3.5-13 3.5-4 .5-4 .5h13 13l.5 7.5.5 7.5-14 1-14 1-18 1-18 1v3 3 2 2 2.5 2.5 2 2 2.5 2.5 2 2 2 2 2.5 2.5 2 2 2.5 2.5 1 1l18.5 5 18.5 5-8.5-1-8.5-1-10 9-10 9v3 3 2 2 2 2 2.5 2.5 2 2 2.5 2.5 2 2 .5.5l3.5-5.5 3.5-5.5 12 2 12 2 4.5-2.5 4.5-2.5-8-6-8-6 3.5-2.5 3.5-2.5 5.5-2.5 5.5-2.5 2.5 8.5 2.5 8.5 2.5-6.5 2.5-6.5 8.5-2.5 8.5-2.5h17 17l15.5-1.5 15.5-1.5 15.5-1.5 15.5-1.5 15.5-2.5 15.5-2.5 7.5 4 7.5 4h.5.5l.5-2 .5-2 1-1.5 1-1.5.5-1.5.5-1.5.5-2 .5-2 1-1 1-1 .5-2 .5-2 .5-1.5.5-1.5.5-1.5.5-1.5 1-1 1-1 1-.5 1-.5v-1-1l-11 2-11 2-15 .5-15 .5-6-6-6-6 4.5-3.5 4.5-3.5-7-3-7-3-16.5.5-16.5.5h-15-15-15-15v-3-3l6.5-6.5 6.5-6.5 9.5.5 9.5.5 14.5-2 14.5-2 16.5-.5 16.5-.5 4-10 4-10-14-1-14-1 4-7 4-7 3.5 2.5 3.5 2.5 12-4 12-4 18 4 18 4-1.5-.5-1.5-.5-1.5-1-1.5-1-.5-1.5-.5-1.5-1.5-1-1.5-1-1 1-1 1-2 .5-2 .5-1-1-1-1-1-.5-1-.5 15.5-18 15.5-18 16-4 16-4 17.5-3 17.5-3" style="fill:#b07d47;stroke:#b07d47"/><path d="m290 467l-1-2h-1.5-1.5-2-2l-1.5.5-1.5.5h-2.5-2.5v1 1l1 1.5 1 1.5h2 2l2-.5 2-.5 2.5-.5 2.5-.5.5-1 .5-1" style="fill:#bc9157;stroke:#bc9157"/><path d="m289 593l1-3-.5-.5-.5-.5v-1-1l-.5-1-.5-1-.5-.5-.5-.5v-1-1-1-1l-.5-.5-.5-.5v-1.5-1.5-1.5-1.5l-.5 2.5-.5 2.5v2 2l-1 1-1 1v.5.5h1 1v2.5 2.5l1 1 1 1 1 .5 1 .5" style="fill:#573d1a;stroke:#573d1a"/><path d="m288 470h1v-.5-.5l-2.5.5-2.5.5-2 .5-2 .5h-2-2l-1-1.5-1-1.5v-1-1h2.5 2.5l1.5-.5 1.5-.5h2 2 1.5 1.5l-1 3.5-1 3.5.5-1 .5-1" style="fill:#b07d47;stroke:#b07d47"/><path d="m283 613h1l-.5-1-.5-1-1-1-1-1-.5-2-.5-2 .5-1.5.5-1.5-1-1.5-1-1.5-.5-1.5-.5-1.5.5-2 .5-2-1 1-1 1-.5 1.5-.5 1.5-.5 2-.5 2 .5 1.5.5 1.5.5 2 .5 2 1 1 1 1 1.5 1 1.5 1 .5.5.5.5" style="fill:#827661;stroke:#827661"/><path d="m281 524l-1-1-1.5-.5-1.5-.5-2 .5-2 .5h-2-2v1.5 1.5l1 1 1 1 1.5 1 1.5 1 1.5-.5 1.5-.5.5-1.5.5-1.5 1.5-1 1.5-1" style="fill:#faf3da;stroke:#faf3da"/><path d="m276 482h1l-21-5-21-5-1.5-1-1.5-1-1.5-.5-1.5-.5-.5.5-.5.5v1.5 1.5l.5 1.5.5 1.5h1 1l.5.5.5.5.5.5.5.5 1 .5 1 .5.5.5.5.5h1 1l.5.5.5.5 1 .5 1 .5 1.5.5 1.5.5h1 1l1 .5 1 .5h1.5 1.5v-.5-.5l-1.5-.5-1.5-.5h-1-1l-1-.5-1-.5-.5-.5-.5-.5h-1-1l-.5-.5-.5-.5h-1.5-1.5l-.5-.5-.5-.5-.5-.5-.5-.5-.5-.5-.5-.5-1-.5-1-.5-.5-.5-.5-.5.5-.5.5-.5h1 1l1 .5 1 .5.5.5.5.5 1 .5 1 .5 17.5 2.5 17.5 2.5-1 .5-1 .5-1.5 1-1.5 1h-2-2-2-2-3.5-3.5l1.5.5 1.5.5h1.5 1.5 1 1 1 1 2 2l2-.5 2-.5 2-1 2-1" style="fill:#b07d47;stroke:#b07d47"/><path d="m275 489l-2-1-2 .5-2 .5-.5.5-.5.5-4.5 5-4.5 5-5.5 6.5-5.5 6.5-9 10-9 10-.5 12.5-.5 12.5 13-24.5 13-24.5 10-10 10-10" style="fill:#bda685;stroke:#bda685"/><path d="m274 481l-35-5 1 1 1 1 1.5.5 1.5.5h1 1l1 .5 1 .5 1.5.5 1.5.5h1 1 1 1 1 1 1.5 1.5 1 1 1 1 1 1v1 1h-1.5-1.5-2.5-2.5-2-2-1.5-1.5v.5.5h1.5 1.5 3.5 3.5 2 2 2 2l1.5-1 1.5-1 1-.5 1-.5" style="fill:#bc9157;stroke:#bc9157"/><g style="fill:#9a6b36;stroke:#9a6b36"><path d="m271 306l-27 3-7.5 2.5-7.5 2.5 14.5 1.5 14.5 1.5 6.5-5.5 6.5-5.5"/><path d="m270 720h1l-.5-1-.5-1h-1-1l-.5-.5-.5-.5-1-.5-1-.5-15.5-14.5-15.5-14.5-7.5-12-7.5-12-4-16-4-16 .5-18.5.5-18.5h-.5-.5l-1 17.5-1 17.5 3.5 16.5 3.5 16.5 7.5 12 7.5 12 18 17 18 17h1.5 1.5"/></g><path d="m268 490l1-1h-2-2l-26 .5-26 .5-18-4-18-4-12 4-12 4-3.5-2.5-3.5-2.5-4 7-4 7 14 1 14 1-4 10-4 10-16.5.5-16.5.5-14.5 2-14.5 2-9.5-.5-9.5-.5-6.5 6.5-6.5 6.5v3 3h15 15 15 15l16.5-.5 16.5-.5 7 3 7 3-4.5 3.5-4.5 3.5 6 6 6 6 15-.5 15-.5 11-2 11-2 1-1.5 1-1.5.5-1 .5-1 .5-12.5.5-12.5 9-10 9-10 5.5-6.5 5.5-6.5 4.5-5 4.5-5" style="fill:#bc9157;stroke:#bc9157"/><path d="m267 486l1-1h-2-2-1-1-1-1-1.5-1.5l-1.5-.5-1.5-.5h-1.5-1.5-1.5-1.5l-1-.5-1-.5h-1-1l-1.5-.5-1.5-.5-1-.5-1-.5-.5-.5-.5-.5h-1-1l-.5-.5-.5-.5-1-.5-1-.5-.5-.5-.5-.5-.5-.5-.5-.5h-1-1l-.5-1.5-.5-1.5v-1.5-1.5l.5-.5.5-.5 1.5.5 1.5.5-8.5 1.5-8.5 1.5-2.5-7.5-2.5-7.5-8.5 12-8.5 12 1 .5 1 .5 1 1 1 1 2-.5 2-.5 1-1 1-1 1.5 1 1.5 1 .5 1.5.5 1.5 1.5 1 1.5 1 1.5.5 1.5.5 26-.5 26-.5-1.5-.5-1.5-.5h-1.5-1.5-1-1-1-1-1-1l.5-.5.5-.5.5-.5.5-.5h1.5 1.5 1 1 1 1 1 1 1.5 1.5" style="fill:#9a6b36;stroke:#9a6b36"/><path d="m266 720h1l-18-17-18-17-7.5-12-7.5-12-3.5-16.5-3.5-16.5 1-17.5 1-17.5-7.5-4-7.5-4-15.5 2.5-15.5 2.5-15.5 1.5-15.5 1.5-15.5 1.5-15.5 1.5h-17-17l-8.5 2.5-8.5 2.5-2.5 6.5-2.5 6.5-2.5-8.5-2.5-8.5-5.5 2.5-5.5 2.5-3.5 2.5-3.5 2.5 8 6 8 6-4.5 2.5-4.5 2.5-12-2-12-2-3.5 5.5-3.5 5.5v1.5 1.5h2 2 1.5 1.5l1.5.5 1.5.5 1 1.5 1 1.5h-2-2l1.5 1 1.5 1 1 1 1 1v1 1l-.5 1-.5 1-.5 1-.5 1-1.5.5-1.5.5h-1-1l-.5-1-.5-1 1-1 1-1h1 1v-.5-.5l-1.5-.5-1.5-.5-.5-.5-.5-.5-1-.5-1-.5-1.5.5-1.5.5v2.5 2.5 2 2 2 2 2.5 2.5 2 2 1.5 1.5l12.5 3.5 12.5 3.5 12.5.5 12.5.5 9 7.5 9 7.5-11 1-11 1-11.5-1-11.5-1-11.5 3.5-11.5 3.5v2 2 2 2 2 2l1-1.5 1-1.5.5 1 .5 1 .5 1.5.5 1.5 1 1.5 1 1.5h1 1v1 1l-.5 1.5-.5 1.5h20.5 20.5 20 20 20 20 5.5 5.5l-.5-1-.5-1v-.5-.5-1-1l.5-1 .5-1v-1-1l.5-.5.5-.5h1.5 1.5l1.5.5 1.5.5h1 1l.5 1 .5 1-.5 1-.5 1-1.5-.5-1.5-.5-1.5.5-1.5.5.5 2.5.5 2.5h21.5 21.5 20 20 20 20" style="fill:#bc9157;stroke:#bc9157"/><path d="m266 483v-2h-1-1-1-1-1-1-1.5-1.5-1-1-1-1-1-1l-1.5-.5-1.5-.5-1-.5-1-.5h-1-1l-1.5-.5-1.5-.5-1-1-1-1-1-.5-1-.5-.5-.5-.5-.5-1-.5-1-.5h-1-1l-.5.5-.5.5.5.5.5.5 1 .5 1 .5.5.5.5.5.5.5.5.5.5.5.5.5h1.5 1.5l.5.5.5.5h1 1l.5.5.5.5 1 .5 1 .5h1 1l1.5.5 1.5.5h1.5 1.5 2 2 2.5 2.5 1.5 1.5" style="fill:#d5ac78;stroke:#d5ac78"/><path d="m262 360l1-3-.5-1.5-.5-1.5-2-.5-2-.5-1 1-1 1h-2.5-2.5l-1 1-1 1v1.5 1.5h2 2l1 1 1 1h2.5 2.5l1-1 1-1" style="fill:#b07d47;stroke:#b07d47"/><path d="m261 645h1l-10.5-13.5-10.5-13.5-6-15.5-6-15.5 6.5 20.5 6.5 20.5 9.5 8.5 9.5 8.5" style="fill:#786449;stroke:#786449"/><g style="fill:#573d1a;stroke:#573d1a"><path d="m245 242l-5-31-3.5 8.5-3.5 8.5 6 7 6 7"/><path d="m240 204l-11-13 4.5 4.5 4.5 4.5 1 2 1 2"/></g><g style="fill:#d5ac78;stroke:#d5ac78"><path d="m225 697l-5-19-5.5 2.5-5.5 2.5-8.5 1.5-8.5 1.5-12 3-12 3-10.5 3.5-10.5 3.5-10 2-10 2 11 2 11 2 6.5 2 6.5 2h3 3l5-2 5-2 12-1 12-1 11.5-4 11.5-4"/><path d="m206 627l-11-3-8.5 1.5-8.5 1.5-3 5-3 5 13.5-2.5 13.5-2.5 3.5-2.5 3.5-2.5"/></g><path d="m194 387l-46-1-.5-1.5-.5-1.5-2.5-3.5-2.5-3.5-13.5-1.5-13.5-1.5-14 13.5-14 13.5-.5.5-.5.5-.5 1-.5 1-1 1-1 1-.5.5-.5.5-1 .5-1 .5-.5 1.5-.5 1.5 18-6 18-6 17.5-.5 17.5-.5 14-2 14-2 8-3 8-3" style="fill:#7b4e22;stroke:#7b4e22"/><path d="m191 683v-2l-.5-1.5-.5-1.5-.5-2-.5-2-1.5.5-1.5.5-1 1.5-1 1.5v1 1l1.5 1 1.5 1 1.5.5 1.5.5h.5.5" style="fill:#d5ac78;stroke:#d5ac78"/><path d="m163 45l-22-8 9 4 9 4h2 2" style="fill:#573d1a;stroke:#573d1a"/><path d="m162 307l-13-16-3.5-6.5-3.5-6.5.5-10.5.5-10.5 4-2 4-2-5-11-5-11 3.5-5 3.5-5v-5-5l-1-7-1-7-1.5-10.5-1.5-10.5-3.5-6.5-3.5-6.5 7.5-2.5 7.5-2.5-5.5-5.5-5.5-5.5-6.5-1.5-6.5-1.5 1.5-9.5 1.5-9.5 4.5-7.5 4.5-7.5-3-2-3-2 6-2 6-2-3-9-3-9-1.5-12.5-1.5-12.5 7-7 7-7-16.5-2.5-16.5-2.5 14.5-3 14.5-3-1.5-5.5-1.5-5.5-3-5-3-5-7.5-5.5-7.5-5.5 6.5-1 6.5-1h-21-21-20-20-10-10l1 .5 1 .5h1.5 1.5l1 .5 1 .5-15.5 1.5-15.5 1.5-4.5 7.5-4.5 7.5v21 21 14.5 14.5h1 1 1.5 1.5l1.5.5 1.5.5.5.5.5.5 1 .5 1 .5v1.5 1.5l-5 10.5-5 10.5-.5 12.5-.5 12.5v1.5 1.5 2 2 2.5 2.5 2 2 2.5 2.5.5.5l1 .5 1 .5 1.5-.5 1.5-.5h2 2l-.5-1-.5-1-.5-.5-.5-.5h-1.5-1.5l-.5-.5-.5-.5-.5-.5-.5-.5-.5-.5-.5-.5v-1-1l.5-1 .5-1h1 1l.5-.5.5-.5.5.5.5.5-.5 1-.5 1 .5.5.5.5h1 1l.5.5.5.5.5.5.5.5 1 .5 1 .5.5-.5.5-.5h1 1l-.5 1.5-.5 1.5-1 .5-1 .5-1.5.5-1.5.5 3 3 3 3 6-2 6-2 7-7 7-7 5.5 11.5 5.5 11.5 7.5-4.5 7.5-4.5 3 16 3 16 3.5 16.5 3.5 16.5 3 17 3 17 2.5 16.5 2.5 16.5-15-2-15-2-11-4.5-11-4.5-10.5-1.5-10.5-1.5-9-11.5-9-11.5v22 22 20 20 20 20 20 20 14 14l3-2 3-2 9-7 9-7 8.5-4.5 8.5-4.5 5 5 5 5 10-10 10-10 .5-1 .5-1 .5-1.5.5-1.5.5-.5.5-.5h.5.5l1-1 1-1 .5-.5.5-.5.5-.5.5-.5.5-.5.5-.5 1-.5 1-.5.5-.5.5-.5 1-1 1-1 18-19 18-19 7-10 7-10 4.5-5.5 4.5-5.5-3-7-3-7 7 2 7 2 5-7 5-7" style="fill:#281402;stroke:#281402"/><path d="m148 715l1-2-.5-1-.5-1h-1-1l-1.5-.5-1.5-.5h-1.5-1.5l-.5.5-.5.5v1 1l-.5 1-.5 1v1 1 .5.5l.5 1 .5 1h2 2l-.5-2.5-.5-2.5 1.5-.5 1.5-.5 1.5.5 1.5.5" style="fill:#d5ac78;stroke:#d5ac78"/><path d="m103 346l-13-7-6 4-6 4 12.5-.5 12.5-.5" style="fill:#3d2b0f;stroke:#3d2b0f"/><g style="fill:#7b4e22;stroke:#7b4e22"><path d="m97 448v-2l-1.5-.5-1.5-.5h-1.5-1.5l-1.5.5-1.5.5-2 .5-2 .5v1 1l1.5 1 1.5 1 1.5-.5 1.5-.5 1.5-.5 1.5-.5 2-.5 2-.5"/><path d="m97 426l-2-1h-2-2l-2-.5-2-.5-1.5.5-1.5.5h-1-1l-2-.5-2-.5-1.5.5-1.5.5-2-.5-2-.5-1.5-.5-1.5-.5-.5-.5-.5-.5-1 .5-1 .5-1 1-1 1-10 11-10 11-10.5 9.5-10.5 9.5-11 11.5-11 11.5v1.5 1.5 2.5 2.5 2 2 .5.5l3.5-7.5 3.5-7.5 9.5-10 9.5-10 11.5-7.5 11.5-7.5 15.5-2.5 15.5-2.5-2.5-5.5-2.5-5.5 11-5 11-5"/></g><path d="m91 299l-5-33-3-17-3-17-3.5-16.5-3.5-16.5-3-16-3-16-7.5 4.5-7.5 4.5-5.5-11.5-5.5-11.5-7 7-7 7-6 2-6 2-3-3-3-3h-2-2l-1.5.5-1.5.5-1-.5-1-.5v3 3 2 2 2.5 2.5 2 2 2 2l9 1 9 1 7.5-.5 7.5-.5-3.5 2.5-3.5 2.5 4 3 4 3 1 3.5 1 3.5-18 3-18 3v1.5 1.5l10.5-2.5 10.5-2.5-3 3-3 3 11.5 1.5 11.5 1.5-1 .5-1 .5h-2-2l-1.5-.5-1.5-.5-2 .5-2 .5h-2-2-1.5-1.5-2-2l-2 .5-2 .5h-2-2-2-2l-1 .5-1 .5v1.5 1.5 2 2 2.5 2.5 2 2 2.5 2.5 2 2 2.5 2.5 2 2 1.5 1.5l9 11.5 9 11.5 10.5 1.5 10.5 1.5 11 4.5 11 4.5 15 2 15 2" style="fill:#3d2b0f;stroke:#3d2b0f"/><path d="m86 401l1-1h-1-1l-1 1-1 1-.5.5-.5.5-1 .5-1 .5-.5.5-.5.5-.5.5-.5.5-.5.5-.5.5-1 1-1 1h-.5-.5l-.5.5-.5.5-.5 1.5-.5 1.5-.5 1-.5 1-.5.5-.5.5-1 1.5-1 1.5-.5.5-.5.5-.5.5-.5.5-.5.5-.5.5-1 1.5-1 1.5 1-1 1-1 1-.5 1-.5.5.5.5.5 1-1.5 1-1.5.5-.5.5-.5.5-.5.5-.5.5-.5.5-.5.5-.5.5-.5.5-.5.5-.5 1-.5 1-.5.5-.5.5-.5.5-1.5.5-1.5.5-1.5.5-1.5 1-.5 1-.5.5-.5.5-.5 1-1 1-1 .5-1 .5-1" style="fill:#573d1a;stroke:#573d1a"/><g style="fill:#b07d47;stroke:#b07d47"><path d="m83 539l1-3-.5-1.5-.5-1.5-.5-1-.5-1-1 1-1 1-2 .5-2 .5v1 1l-.5 1-.5 1 .5 1.5.5 1.5 1.5-.5 1.5-.5 2-.5 2-.5"/><path d="m74 679v-2l-1-1-1-1h-2.5-2.5l-1.5-.5-1.5-.5-.5 2-.5 2 1 1 1 1h1.5 1.5 2 2l1-.5 1-.5"/></g><path d="m70 416l1-1-10 10-10 10-5-5-5-5-8.5 4.5-8.5 4.5-9 7-9 7-3 2-3 2v3.5 3.5 2 2 2 2 2.5 2.5 2 2 2.5 2.5 2 2 2 2l11-11.5 11-11.5 10.5-9.5 10.5-9.5 10-11 10-11 1-1.5 1-1.5.5-.5.5-.5.5-.5.5-.5.5-.5.5-.5 1-1.5 1-1.5" style="fill:#3d2b0f;stroke:#3d2b0f"/><path d="m68 691l-18-15-12.5-.5-12.5-.5-12.5-3.5-12.5-3.5v3 3 2.5 2.5 2 2 2 2 2.5 2.5 2 2 1 1l11.5-3.5 11.5-3.5 11.5 1 11.5 1 11-1 11-1" style="fill:#b07d47;stroke:#b07d47"/><path d="m60 192l-4-6-8.5 3.5-8.5 3.5 10.5-.5 10.5-.5" style="fill:#281402;stroke:#281402"/><g style="fill:#3d2b0f;stroke:#3d2b0f"><path d="m40 2l-2-1h-1.5-1.5l-1-.5-1-.5h-16.5-16.5v4.5 4.5 5.5 5.5l4.5-7.5 4.5-7.5 15.5-1.5 15.5-1.5"/><path d="m39 150l1-3-.5-1.5-.5-1.5-1.5-1-1.5-1-1.5.5-1.5.5-.5 2-.5 2-.5 1.5-.5 1.5 1.5 1 1.5 1 1-1 1-1h1 1 .5.5"/></g><path d="m38 220l-23-3 3-3 3-3-10.5 2.5-10.5 2.5v2.5 2.5 1 1l1-.5 1-.5h2 2 2 2l2-.5 2-.5h2 2 1.5 1.5 2 2l2-.5 2-.5 1.5.5 1.5.5h2 2l1-.5 1-.5" style="fill:#281402;stroke:#281402"/><path d="m37 583l-37-10v3 3 2 2 2 2 2.5 2.5 2 2 1.5 1.5l10-9 10-9 8.5 1 8.5 1" style="fill:#9a6b36;stroke:#9a6b36"/><path d="m36 207l-2-7-4-3-4-3 3.5-2.5 3.5-2.5-7.5.5-7.5.5-9-1-9-1v2 2 2 2 2.5 2.5 2 2 2.5 2.5 1.5 1.5l18-3 18-3" style="fill:#281402;stroke:#281402"/><g style="fill:#3d2b0f;stroke:#3d2b0f"><path d="m35 107l-8-14 2.5 6.5 2.5 6.5 1.5.5 1.5.5"/><path d="m29 142l-20-4 4.5 7.5 4.5 7.5 4.5-2.5 4.5-2.5 1-3 1-3"/><path d="m14 163l1-3h-1-1l-.5.5-.5.5-1-.5-1-.5-.5-.5-.5-.5-.5-.5-.5-.5h-1-1l-.5-.5-.5-.5.5-1 .5-1-.5-.5-.5-.5-.5.5-.5.5h-1-1l-.5 1-.5 1v1 1l.5.5.5.5.5.5.5.5.5.5.5.5h1.5 1.5l.5.5.5.5.5 1 .5 1 1.5-.5 1.5-.5 1-.5 1-.5"/></g><path d="m13 645v-2l-1-1-1-1-1.5-1-1.5-1h2 2l-1-1.5-1-1.5-1.5-.5-1.5-.5h-1.5-1.5-2-2v3 3 1 1l1.5-.5 1.5-.5 1 .5 1 .5.5.5.5.5 1.5.5 1.5.5v.5.5h-1-1l-1 1-1 1 .5 1 .5 1h1 1l1.5-.5 1.5-.5.5-1 .5-1 .5-1 .5-1" style="fill:#b07d47;stroke:#b07d47"/><path d="m11 97v-3l-1-.5-1-.5-.5-.5-.5-.5-1.5-.5-1.5-.5h-1.5-1.5-1-1v20.5 20.5 5.5 5.5l.5-12.5.5-12.5 5-10.5 5-10.5" style="fill:#3d2b0f;stroke:#3d2b0f"/><path d="m8 717v-2h-1-1l-1-1.5-1-1.5-.5-1.5-.5-1.5-.5-1-.5-1-1 1.5-1 1.5v2 2 2 2 1 1h1 1 2.5 2.5l.5-1.5.5-1.5" style="fill:#b07d47;stroke:#b07d47"/></g></svg>