<svg xmlns="http://www.w3.org/2000/svg" viewBox="0 0 960 536"><g style="fill:#0a061e"><path d="m0 0h960v536h-960z"/><path d="m959 536h1v-12.5-12.5-13.5-13.5-13-13-11.5-11.5-13-13-13.5-13.5-13.5-13.5-13-13-13.5-13.5-13-13-11.5-11.5-13-13-11.5-11.5-13-13-13.5-13.5-13-13-11.5-11.5-13-13-13.5-13.5-13.5-13.5-11-11h-2-2-13.5-13.5-13-13-11.5-11.5-13-13-11.5-11.5-13-13-13.5-13.5-13-13-11.5-11.5-13-13-13.5-13.5-13.5-13.5-13-13-13.5-13.5-13-13-11.5-11.5-13-13-11.5-11.5-13-13-13.5-13.5-13-13-11.5-11.5-13-13-13.5-13.5-13.5-13.5-13-13-13.5-13.5-13-13-11.5-11.5-13-13-13.5-13.5-13.5-13.5-13-13-13.5-13.5-13-13-11.5-11.5-13-13-3-3v8.5 8.5 13 13 13.5 13.5 13 13 11.5 11.5 13 13 13.5 13.5 13.5 13.5 13 13 13.5 13.5 13 13 11.5 11.5 13 13 11.5 11.5 13 13 13.5 13.5 13 13 11.5 11.5 13 13 13.5 13.5 13.5 13.5 2 2h11 11 13.5 13.5 13 13 11.5 11.5 13 13 11.5 11.5 13 13 13.5 13.5 13 13 11.5 11.5 13 13 13.5 13.5 13.5 13.5 13 13 13.5 13.5 13 13 11.5 11.5 13 13 11.5 11.5 13 13 13.5 13.5 13 13 11.5 11.5 13 13 13.5 13.5 13.5 13.5 13 13 13.5 13.5 13 13 11.5 11.5 13 13 11.5 11.5 13 13 13.5 13.5 13 13 11.5 11.5 13 13 9 9" style="stroke:#0a061e;stroke-linejoin:round;stroke-width:.7"/></g><g style="stroke-linejoin:round;stroke-width:.7"><g style="fill:#4a0a31;stroke:#4a0a31"><path d="m738 462l-15-1-9.5 4-9.5 4-8.5 2.5-8.5 2.5-8 3.5-8 3.5-4.5 8.5-4.5 8.5 8-.5 8-.5 8.5-5 8.5-5 8.5-4.5 8.5-4.5 8-5.5 8-5.5 5-2.5 5-2.5"/><path d="m658 292l1-3v-2-2-2.5-2.5l-.5-1.5-.5-1.5-1-1-1-1 .5 2 .5 2 .5 2 .5 2v2 2l-.5 1.5-.5 1.5-.5 1-.5 1-11.5.5-11.5.5-11.5.5-11.5.5-6.5-7.5-6.5-7.5-.5-11.5-.5-11.5v-17.5-17.5l-.5 13-.5 13v13 13l1 10.5 1 10.5 12.5.5 12.5.5 12.5-1 12.5-1 5.5-.5 5.5-.5"/></g><g style="fill:#8e0c36;stroke:#8e0c36"><path d="m657 290l1-3v-2-2l-.5-2-.5-2-.5-2-.5-2-1.5.5-1.5.5-1.5-.5-1.5-.5-1.5-1-1.5-1-1.5-.5-1.5-.5-1-1-1-1-1.5-1-1.5-1v-.5-.5l-1-.5-1-.5-.5-.5-.5-.5-1-.5-1-.5-1.5-.5-1.5-.5.5.5.5.5 1 .5 1 .5 1 1 1 1 1 1.5 1 1.5 1 1 1 1 1.5.5 1.5.5.5.5.5.5.5 1 .5 1 2 .5 2 .5h2 2l1.5.5 1.5.5.5 2 .5 2v2 2 2 2"/><path d="m656 292l1-2h-.5-.5l-11.5 1-11.5 1-10.5.5-10.5.5-7.5-7-7.5-7 6.5 7.5 6.5 7.5 11.5-.5 11.5-.5 11.5-.5 11.5-.5"/></g><path d="m656 290h1v-2-2-2-2l-.5-2-.5-2-1.5-.5-1.5-.5h-2-2l.5 1.5.5 1.5-.5 2-.5 2-1 1-1 1-.5.5-.5.5h-1-1-1-1l-1-.5-1-.5-1.5-.5-1.5-.5-.5.5-.5.5-10.5 1.5-10.5 1.5-6.5-5-6.5-5v-12-12l.5-16 .5-16v-1.5-1.5l-.5-2-.5-2-.5-1-.5-1-.5-1-.5-1-1.5 11-1.5 11v11 11 11.5 11.5l7.5 7 7.5 7 10.5-.5 10.5-.5 11.5-1 11.5-1" style="fill:#e3184a;stroke:#e3184a"/><path d="m649 284l1-4-.5-1.5-.5-1.5-2-.5-2-.5-.5-1-.5-1-.5-.5-.5-.5-1.5-.5-1.5-.5-1-1-1-1-1-1.5-1-1.5-1-1-1-1-1-.5-1-.5-.5-.5-.5-.5 1.5.5 1.5.5 1 .5 1 .5.5.5.5.5 1 .5 1 .5-1-1-1-1-1.5-1-1.5-1-1-1-1-1h-2.5-2.5v1 1 1.5 1.5l1 .5 1 .5 1 1 1 1v1.5 1.5l1 1 1 1 .5 1 .5 1-.5.5-.5.5-1 .5-1 .5-1.5.5-1.5.5-.5.5-.5.5h-2-2-1.5-1.5-1-1-1-1-1-1l-1-.5-1-.5-.5-.5-.5-.5-.5-.5-.5-.5-.5-1-.5-1v2 2l1 1 1 1h2.5 2.5 2 2 1.5 1.5 1.5 1.5 1.5 1.5 2 2l.5-.5.5-.5 1-.5 1-.5 1.5-.5 1.5-.5.5-.5.5-.5.5-1 .5-1 1 1 1 1h1 1l.5 1 .5 1 .5 1 .5 1 .5.5.5.5-10 1-10 1-10.5.5-10.5.5 1 .5 1 .5 1.5.5 1.5.5 2 .5 2 .5h2 2l1.5-.5 1.5-.5 2-.5 2-.5h2 2l3-.5 3-.5 1.5.5 1.5.5 1 .5 1 .5h1 1 1 1l.5-.5.5-.5 1-1 1-1" style="fill:#f28569;stroke:#f28569"/><path d="m648 282l-1-1-.5.5-.5.5-12 .5-12 .5-8.5-.5-8.5-.5 1 1.5 1 1.5 10.5-.5 10.5-.5 10-1 10-1" style="fill:#f4b48b;stroke:#f4b48b"/><path d="m646 282l1-1-.5-1-.5-1-.5-1-.5-1h-1-1l-1-1-1-1-.5 1-.5 1-.5.5-.5.5-1.5.5-1.5.5-1 .5-1 .5-.5.5-.5.5h-2-2-1.5-1.5-1.5-1.5l-.5.5-.5.5-7.5-5.5-7.5-5.5-.5-12.5-.5-12.5-.5-2-.5-2v-1-1h-.5-.5v2 2 2 2 1 1 1.5 1.5l.5 1.5.5 1.5v1 1 1.5 1.5 2 2 1 1 1.5 1.5 1.5 1.5 2 2l-.5 1-.5 1 .5 1.5.5 1.5 8.5.5 8.5.5 12-.5 12-.5" style="fill:#d9dcb0;stroke:#d9dcb0"/><path d="m636 463l-7-17 3-.5 3-.5-5.5-7.5-5.5-7.5-4 .5-4 .5-10-1-10-1-6 .5-6 .5-3.5 2.5-3.5 2.5.5 1.5.5 1.5v2 2 2.5 2.5 2 2 2 2l.5 2 .5 2-.5 1.5-.5 1.5-2.5-2.5-2.5-2.5.5-12 .5-12-.5-1-.5-1-1.5-.5-1.5-.5h-2.5-2.5-2-2l-1.5 1-1.5 1h-1-1l-2-.5-2-.5h-2-2-1.5-1.5l-1.5 1.5-1.5 1.5v1 1l1 .5 1 .5v1 1 1 1 1 1 1.5 1.5 1 1 1 1 1 1 1.5 1.5 1 1 1 1 1 1 1.5 1.5l-.5 1.5-.5 1.5v1 1 1.5 1.5l6-5 6-5 2.5 4 2.5 4 7.5 1.5 7.5 1.5 6-4.5 6-4.5 7.5 4 7.5 4 9.5-.5 9.5-.5 7.5-4 7.5-4" style="fill:#374a53;stroke:#374a53"/><path d="m636 286l1-1-3 .5-3 .5h-2-2l-2 .5-2 .5-1.5.5-1.5.5h-2-2l-2-.5-2-.5-1.5-.5-1.5-.5-1-.5-1-.5-1-1.5-1-1.5-.5-1.5-.5-1.5-.5-11.5-.5-11.5v-16.5-16.5l-.5 16-.5 16v12 12l6.5 5 6.5 5 10.5-1.5 10.5-1.5" style="fill:#f55566;stroke:#f55566"/><path d="m633 466l1-3v-2-2-2.5-2.5l-1-1-1-1-1-1.5-1-1.5-1-1-1-1-1.5-1-1.5-1-.5-.5-.5-.5-1-.5-1-.5v-2-2l3.5 8.5 3.5 8.5-2.5 4-2.5 4 4.5 1.5 4.5 1.5v-.5-.5" style="fill:#b3bb93;stroke:#b3bb93"/><path d="m633 277l1-1h-.5-.5l-9-2.5-9-2.5-.5-11-.5-11-.5-11.5-.5-11.5-5.5-7.5-5.5-7.5 1.5 1 1.5 1v2 2l.5 2 .5 2v2 2l.5 2 .5 2v2 2l.5 2 .5 2v2 2 3.5 3.5l1 11 1 11 9 4.5 9 4.5 1.5-.5 1.5-.5 1-.5 1-.5" style="fill:#e3184a;stroke:#e3184a"/><path d="m633 276h1l-.5-1-.5-1-1-1-1-1v-1.5-1.5l-1-1-1-1-1-.5-1-.5v1.5 1.5l.5 1 .5 1v1.5 1.5l-6-4.5-6-4.5-.5-16-.5-16v-2-2-.5-.5h-.5-.5l-2.5-9.5-2.5-9.5-6.5 6-6.5 6v17.5 17.5l.5 11.5.5 11.5v-11.5-11.5-11-11l1.5-11 1.5-11 1-.5 1-.5 5.5 7.5 5.5 7.5.5 11.5.5 11.5.5 11 .5 11 9 2.5 9 2.5" style="fill:#8e0c36;stroke:#8e0c36"/><path d="m631 436v-2l-1-1-1-1-2 .5-2 .5-1 1-1 1-.5 2-.5 2v2 2l1 .5 1 .5v-2-2l.5-1.5.5-1.5 1.5-1 1.5-1 1.5.5 1.5.5" style="fill:#d9dcb0;stroke:#d9dcb0"/><path d="m629 464l-9-15-4.5-2-4.5-2 2.5 6.5 2.5 6.5v2.5 2.5l4.5.5 4.5.5h2 2" style="fill:#0a061e;stroke:#0a061e"/><path d="m628 274v-3l-.5-1-.5-1v-1.5-1.5-1.5-1.5l-4.5 5-4.5 5-.5-11-.5-11-1-9-1-9 .5 16 .5 16 6 4.5 6 4.5" style="fill:#4a0a31;stroke:#4a0a31"/><path d="m627 280l1-1-9-4.5-9-4.5-1-11-1-11v1.5 1.5 2 2 1 1 1.5 1.5l.5 1.5.5 1.5v1 1 1.5 1.5 2 2 1.5 1.5l.5 1 .5 1 .5.5.5.5.5.5.5.5 1 .5 1 .5h1 1 1 1 1 1 1.5 1.5 2 2" style="fill:#f55566;stroke:#f55566"/><path d="m624 391l-12-12-10 .5-10 .5-10.5-.5-10.5-.5h-8.5-8.5l-2 8.5-2 8.5.5-1.5.5-1.5.5 1 .5 1-.5 1.5-.5 1.5.5 1 .5 1v2 2l-.5 1.5-.5 1.5.5 2 .5 2-.5 1.5-.5 1.5v1.5 1.5l.5 1.5.5 1.5 1.5-.5 1.5-.5h9 9l10.5.5 10.5.5 6.5-5 6.5-5-4-9-4-9 3 .5 3 .5 3 4 3 4 2.5 9 2.5 9 1.5-9.5 1.5-9.5 2.5-4 2.5-4v-.5-.5" style="fill:#374a53;stroke:#374a53"/><path d="m622 282l1-1h-1.5-1.5-2-2-2.5-2.5l-1-1-1-1v-2-2h-.5-.5v-1.5-1.5-1.5-1.5-1-1l-.5-1-.5-1v-2-2-2.5-2.5-2-2l-.5-3-.5-3 .5 12.5.5 12.5 7.5 5.5 7.5 5.5" style="fill:#f4b48b;stroke:#f4b48b"/><path d="m621 386h-14l3.5 8 3.5 8 1.5 4.5 1.5 4.5-.5-11-.5-11 2.5-1.5 2.5-1.5" style="fill:#d9dcb0;stroke:#d9dcb0"/><path d="m617 470l1-3-.5-.5-.5-.5h-2.5-2.5l-1.5-.5-1.5-.5v-2.5-2.5-2-2l1-1.5 1-1.5 1.5-.5 1.5-.5v-2-2h-2.5-2.5l-.5-1-.5-1-.5 2-.5 2-.5-1.5-.5-1.5v3 3 2 2 2.5 2.5 2 2 2 2h2.5 2.5l1.5.5 1.5.5 1.5-.5 1.5-.5" style="fill:#b3bb93;stroke:#b3bb93"/><path d="m615 437l1-3-1.5-.5-1.5-.5h-2.5-2.5l-1.5.5-1.5.5.5 2 .5 2v2 2 2.5 2.5l.5 1.5.5 1.5.5-2 .5-2v-2-2-2-2l1.5-1 1.5-1h2 2v.5.5" style="fill:#d9dcb0;stroke:#d9dcb0"/><path d="m614 228h1l-2-10.5-2-10.5h-11.5-11.5l4 5 4 5v2 2l6.5-6 6.5-6 2.5 9.5 2.5 9.5" style="fill:#4a0a31;stroke:#4a0a31"/><path d="m608 275h1v-1.5-1.5-2-2-1.5-1.5-1-1l-.5-1.5-.5-1.5v-1.5-1.5-1-1-2-2-1.5-1.5-3.5-3.5-2-2l-.5-2-.5-2v-2-2l-.5-2-.5-2v-2-2l-.5-2-.5-2v-2-2l-1.5-1-1.5-1-1 .5-1 .5.5 1 .5 1 1.5.5 1.5.5v2 2l.5 1.5.5 1.5v2.5 2.5 2 2l.5 2 .5 2v2 2 3.5 3.5l.5 3 .5 3v2 2 2.5 2.5 2 2l.5 1 .5 1v1 1 1.5 1.5 1.5 1.5" style="fill:#f28569;stroke:#f28569"/><path d="m605 273v-3-1.5-1.5-1-1-2-2-1.5-1.5-1-1l-.5-1.5-.5-1.5v-1.5-1.5-1-1-2-2-2-2h.5.5v1 1l.5 2 .5 2v-3.5-3.5-2-2l-.5-2-.5-2v-2-2-2.5-2.5l-.5-1.5-.5-1.5v-2-2l-1.5-.5-1.5-.5.5 1 .5 1 .5 2 .5 2v1.5 1.5 16.5 16.5l.5 11.5.5 11.5.5-1 .5-1v-2-2" style="fill:#f4b48b;stroke:#f4b48b"/><path d="m603 461l-5-17-2 4.5-2 4.5 4.5 4 4.5 4" style="fill:#0a061e;stroke:#0a061e"/><path d="m603 411l-7-17 3.5-3 3.5-3-6-1-6-1 2.5 8 2.5 8-1.5 5.5-1.5 5.5 5 .5 5 .5v-1.5-1.5" style="fill:#d9dcb0;stroke:#d9dcb0"/><path d="m601 467l1-3-1 1-1 1h-2.5-2.5l-.5-1.5-.5-1.5-1-1.5-1-1.5-.5-1.5-.5-1.5v-2.5-2.5-2-2-2-2-.5-.5l-.5 1.5-.5 1.5v2 2h-1-1v2.5 2.5l.5 2 .5 2v2 2l1 1.5 1 1.5.5 1.5.5 1.5 1 1 1 1h2.5 2.5l1-1 1-1v-1-1" style="fill:#b3bb93;stroke:#b3bb93"/><path d="m599 437v-2l-.5-1.5-.5-1.5-2 .5-2 .5-1 1-1 1-1 1.5-1 1.5-.5 1.5-.5 1.5-.5 2-.5 2v2 2 .5.5h1 1v-2-2l.5-1.5.5-1.5.5-2 .5-2 .5-1.5.5-1.5h2.5 2.5l.5.5.5.5" style="fill:#d9dcb0;stroke:#d9dcb0"/><path d="m587 201l-19-5-13 .5-13 .5h-3.5-3.5l-2 .5-2 .5h11 11l10.5 1.5 10.5 1.5-11 1.5-11 1.5-11.5.5-11.5.5-11 .5-11 .5-11 1-11 1 2.5 2 2.5 2 4 6.5 4 6.5-7 3.5-7 3.5-3.5 7-3.5 7-1 10-1 10-.5 10.5-.5 10.5-10.5 4-10.5 4 9.5 1 9.5 1 6.5-5 6.5-5-3-8-3-8 4-9.5 4-9.5 5.5-7.5 5.5-7.5 2-8.5 2-8.5 3-6 3-6 10-.5 10-.5-4 2-4 2-4.5 9-4.5 9-1.5 11.5-1.5 11.5 1.5 10 1.5 10 1 12 1 12-.5-12-.5-12v-12-12l.5-12 .5-12 5.5-6.5 5.5-6.5 11.5-.5 11.5-.5 11 .5 11 .5 1 .5 1 .5-11.5-2.5-11.5-2.5 1.5-1 1.5-1 12.5-.5 12.5-.5 5.5-1.5 5.5-1.5" style="fill:#4a0a31;stroke:#4a0a31"/><path d="m585 416l-9-13v-6.5-6.5l1.5-4.5 1.5-4.5-3 7.5-3 7.5.5 10.5.5 10.5 5.5-.5 5.5-.5" style="fill:#d9dcb0;stroke:#d9dcb0"/><path d="m584 470v-2-2-2-1-1-1.5-1.5-2-2-1-1l-.5-2-.5-2v3.5 3.5 2 2 2 2l-.5-2-.5-2v-2-2l-.5-1.5-.5-1.5v2.5 2.5 2.5 2.5 2 2 1.5 1.5h1.5 1.5" style="fill:#b3bb93;stroke:#b3bb93"/><path d="m584 468l1-3v-2-2-2.5-2.5-2-2-2.5-2.5-2-2-2.5-2.5-2-2h-.5-.5-.5-.5v2 2 1.5 1.5 2 2 2 2l.5 2 .5 2v1 1 2 2 1.5 1.5 1 1 2 2" style="fill:#6a7d4f;stroke:#6a7d4f"/><path d="m583 434h1l-1-.5-1-.5-1 1-1 1 .5 2 .5 2v2 2 2.5 2.5 2 2 .5.5l.5 1.5.5 1.5v2 2l.5 2 .5 2v-2-2-2-2-3.5-3.5-2-2-2-2-1.5-1.5-2-2" style="fill:#d9dcb0;stroke:#d9dcb0"/><path d="m578 462l1-3-.5-2-.5-2v-2-2-2-2-2.5-2.5-2-2l-.5-1.5-.5-1.5-1.5-1-1.5-1-.5 12-.5 12 2.5 2.5 2.5 2.5" style="fill:#16542c;stroke:#16542c"/><path d="m575 470v-2l-.5-1.5-.5-1.5-.5-2-.5-2-.5-1.5-.5-1.5-.5-2-.5-2v-.5-.5l-.5 1-.5 1h-.5-.5l-1.5-.5-1.5-.5 1.5-1 1.5-1-2-1-2-1-.5 3-.5 3-.5 1.5-.5 1.5h1.5 1.5l4.5 5.5 4.5 5.5" style="fill:#b3bb93;stroke:#b3bb93"/><path d="m574 201l-21-3h-11-11l-1 .5-1 .5h-2-2-.5-.5l-12 .5-12 .5-11 .5-11 .5-12.5.5-12.5.5-11 .5-11 .5-12.5.5-12.5.5-11 .5-11 .5-12 1-12 1-11 .5-11 .5-12 .5-12 .5-10.5 1-10.5 1-6.5 2-6.5 2 12 .5 12 .5h11.5 11.5v2.5 2.5l-6 5.5-6 5.5-14-5-14-5-3 10-3 10-1.5 9.5-1.5 9.5-.5 11-.5 11 1.5 10.5 1.5 10.5h11.5 11.5l4.5-6 4.5-6 5-3.5 5-3.5 3 8.5 3 8.5 7.5-3 7.5-3 3.5-6 3.5-6h4.5 4.5l3.5 8.5 3.5 8.5 9.5 3 9.5 3 9.5-1 9.5-1 6.5-4 6.5-4 4.5-8 4.5-8 3-8.5 3-8.5.5-9 .5-9-3-6.5-3-6.5-5-6-5-6-9.5-3-9.5-3-9 2.5-9 2.5-6.5 5-6.5 5-6.5 3-6.5 3-2-7.5-2-7.5-5.5-3-5.5-3 12-.5 12-.5 11-.5 11-.5h11.5 11.5l11.5-1 11.5-1h11 11l-8.5 2.5-8.5 2.5.5 8 .5 8 8 7 8 7v11.5 11.5 13 13l10.5-4 10.5-4 .5-10.5.5-10.5 1-10 1-10 3.5-7 3.5-7 7-3.5 7-3.5-4-6.5-4-6.5-2.5-2-2.5-2 11-1 11-1 11-.5 11-.5 11.5-.5 11.5-.5 11-1.5 11-1.5" style="fill:#8e0c36;stroke:#8e0c36"/><path d="m573 446l-11-13 .5 13 .5 13 .5-1.5.5-1.5.5-3 .5-3v-3.5-3.5-2-2l1-1 1-1 2 .5 2 .5.5 1.5.5 1.5v2.5 2.5l-.5 1.5-.5 1.5-1 1.5-1 1.5-1.5 1-1.5 1 1.5.5 1.5.5h.5.5l.5-1 .5-1 1-1.5 1-1.5v-2-2" style="fill:#d9dcb0;stroke:#d9dcb0"/><g style="fill:#4a0a31;stroke:#4a0a31"><path d="m572 318l-8 6-4.5-1-4.5-1-6-2-6-2 4 7.5 4 7.5 4.5 8.5 4.5 8.5 3.5-9 3.5-9 2.5-7 2.5-7"/><path d="m572 223v-2-1-1l-.5-2-.5-2v-1-1h-.5-.5l-6 6.5-6 6.5-10 2.5-10 2.5 5 5 5 5 4.5 6 4.5 6-8 4-8 4-1.5 8-1.5 8 16 1 16 1-10.5-1.5-10.5-1.5-.5-6.5-.5-6.5 6.5-7 6.5-7-7.5-5.5-7.5-5.5 5.5-5 5.5-5 7.5-2.5 7.5-2.5"/></g><path d="m571 449l1-3v-2.5-2.5l-.5-1.5-.5-1.5-2-.5-2-.5-1 1-1 1v2 2 3.5 3.5l2 1 2 1 1-1.5 1-1.5" style="fill:#374a53;stroke:#374a53"/><g style="fill:#8e0c36;stroke:#8e0c36"><path d="m570 317l-7 13-5-4.5-5-4.5-1.5 2.5-1.5 2.5 5 6.5 5 6.5 1.5-1.5 1.5-1.5 3.5-9.5 3.5-9.5"/><path d="m570 213h1v-.5-.5l-1-.5-1-.5-4.5 7-4.5 7-11 .5-11 .5-2 8-2 8 10.5 2 10.5 2 1 .5 1 .5-1 2-1 2v1.5 1.5l-.5 1.5-.5 1.5h-1.5-1.5-2-2l-2 .5-2 .5h-2-2l-2 .5-2 .5h-2-2l-.5 1.5-.5 1.5v2.5 2.5 2 2 2.5 2.5l1 2 1 2h1.5 1.5l2-.5 2-.5h2 2 2 2 2.5 2.5 2 2 2.5 2.5 2 2l2 .5 2 .5v2 2l-.5 1.5-.5 1.5-8 4-8 4h-13-13l-6.5-5-6.5-5v-13-13l.5-12.5.5-12.5 1.5-10 1.5-10 11.5-1.5 11.5-1.5h14.5 14.5l-11-.5-11-.5-11.5.5-11.5.5-5.5 6.5-5.5 6.5-.5 12-.5 12v12 12l.5 12 .5 12h3 3l1 .5 1 .5h3 3 2.5 2.5 2 2l2-.5 2-.5h2 2 2 2 2.5 2.5l1.5-.5 1.5-.5h3.5 3.5l3-.5 3-.5.5-1.5.5-1.5v-2-2-2.5-2.5-1.5-1.5l-16-1-16-1 1.5-8 1.5-8 8-4 8-4-4.5-6-4.5-6-5-5-5-5 10-2.5 10-2.5 6-6.5 6-6.5"/></g><path d="m568 287l1-3v-2-2l-2-.5-2-.5h-2-2-2.5-2.5-2-2-2.5-2.5-2-2-2-2l-2 .5-2 .5h-1.5-1.5l1 .5 1 .5h1.5 1.5l1.5.5 1.5.5h2.5 2.5 2 2 2.5 2.5l1.5-.5 1.5-.5h2 2 1 1l1 .5 1 .5v1.5 1.5l-1 1-1 1-.5-.5-.5-.5h-1-1-1-1-1.5-1.5l-9 3-9 3-8-3-8-3-.5-11-.5-11 .5-10.5.5-10.5.5-11 .5-11 8-3.5 8-3.5 13.5-.5 13.5-.5v1.5 1.5h-2-2-1-1-1-1l-1 .5-1 .5-.5.5-.5.5.5.5.5.5.5.5.5.5-.5.5-.5.5h-1-1l-1 .5-1 .5h-1-1l-.5.5-.5.5h-1-1l-1 .5-1 .5h-1-1-1-1l-.5.5-.5.5h-2-2l-.5 9-.5 9 10.5 1.5 10.5 1.5-10.5-2-10.5-2 2-8 2-8 11-.5 11-.5 4.5-7 4.5-7h-14.5-14.5l-11.5 1.5-11.5 1.5-1.5 10-1.5 10-.5 12.5-.5 12.5v13 13l6.5 5 6.5 5h13 13l8-4 8-4" style="fill:#e3184a;stroke:#e3184a"/><path d="m567 412v-20l-6.5-5-6.5-5v13 13l4.5 4 4.5 4 2-2 2-2" style="fill:#d9dcb0;stroke:#d9dcb0"/><path d="m565 285v-3l-1-.5-1-.5h-1-1-2-2l-1.5.5-1.5.5h-2.5-2.5-2-2-2.5-2.5l-1.5-.5-1.5-.5h-1.5-1.5l-1-.5-1-.5-1-2-1-2v-2.5-2.5-2-2-2.5-2.5l.5-1.5.5-1.5 2-1 2-1 1-.5 1-.5h1.5 1.5l-.5-1-.5-1h-2-2l-1-.5-1-.5.5-1 .5-1 1.5.5 1.5.5h1 1l1-.5 1-.5 1.5-.5 1.5-.5h1 1 1.5 1.5 2 2l1 .5 1 .5 1-2 1-2-1-.5-1-.5-10.5-1.5-10.5-1.5.5-9 .5-9 1-.5 1-.5 1.5-1 1.5-1h2 2l1.5-.5 1.5-.5 1.5-1 1.5-1 .5-1 .5-1h-2-2l-.5.5-.5.5h-1.5-1.5l-.5.5-.5.5h-1-1l-.5.5-.5.5-1 .5-1 .5h-1-1l-.5.5-.5.5-.5.5-.5.5-1 .5-1 .5-1 1-1 1v1 1 1.5 1.5l-.5 1-.5 1v1.5 1.5 3 3l.5 1 .5 1 .5.5.5.5h1 1l1 .5 1 .5 1.5.5 1.5.5h1 1 1.5 1.5 2 2 1 1 1.5 1.5 2 2v1 1h-2-2-2.5-2.5-2-2-1-1l-.5.5-.5.5h-1.5-1.5l-.5-.5-.5-.5h-1-1l-.5.5-.5.5-1.5.5-1.5.5.5 1 .5 1-.5 2-.5 2-.5 1.5-.5 1.5v2 2l3.5 9.5 3.5 9.5 14 .5 14 .5-2 .5-2 .5-2.5.5-2.5.5h.5.5 1.5 1.5 1 1 1 1l.5.5.5.5 1-1 1-1" style="fill:#f28569;stroke:#f28569"/><path d="m565 216v-3l-.5 1-.5 1h-2.5-2.5-2-2l-.5.5-.5.5-1.5.5-1.5.5-.5 1-.5 1-1.5 1-1.5 1-1.5.5-1.5.5h-2-2l-1.5 1-1.5 1-1 .5-1 .5h2 2l.5-.5.5-.5h1 1 1 1l1-.5 1-.5h1 1l.5-.5.5-.5h1 1l1-.5 1-.5h1 1l.5-.5.5-.5-.5-.5-.5-.5-.5-.5-.5-.5.5-.5.5-.5 1-.5 1-.5h1 1 1 1 2 2" style="fill:#f55566;stroke:#f55566"/><path d="m564 410l1-3v-2-2l-1.5-1-1.5-1-1.5-.5-1.5-.5-1 1.5-1 1.5v2 2 2.5 2.5l1.5.5 1.5.5 1.5-.5 1.5-.5.5-1 .5-1" style="fill:#374a53;stroke:#374a53"/><path d="m564 215l1-2h-.5-.5-2-2-1-1-1.5-1.5-2-2l-.5.5-.5.5h-1.5-1.5-2-2l-1 .5-1 .5h2.5 2.5l.5.5.5.5-2.5.5-2.5.5h-2-2l-2 .5-2 .5h-2-2l-.5.5-.5.5-.5 1-.5 1 .5 1.5.5 1.5-.5 2-.5 2v2.5 2.5l.5-1 .5-1v-1.5-1.5-1-1l1-1 1-1 1-.5 1-.5.5-.5.5-.5.5-.5.5-.5h1 1l1-.5 1-.5.5-.5.5-.5h1 1l.5-.5.5-.5h1.5 1.5l.5-.5.5-.5h2 2l1.5-.5 1.5-.5.5-.5.5-.5h2 2 2.5 2.5" style="fill:#f4b48b;stroke:#f4b48b"/><path d="m564 213h1l-13.5.5-13.5.5-8 3.5-8 3.5-.5 11-.5 11-.5 10.5-.5 10.5.5 11 .5 11 8 3 8 3 9-3 9-3h-.5-.5-1.5-1.5l-1 .5-1 .5-.5.5-.5.5-1 .5-1 .5-.5.5-.5.5h-1-1l-1 .5-1 .5h-1-1-1-1-1-1-1.5-1.5-1-1-1-1l-.5-.5-.5-.5-1-1-1-1-1.5-12-1.5-12 .5-10 .5-10 .5-11.5.5-11.5 1-2 1-2h2 2l2-.5 2-.5h2 2l1.5-.5 1.5-.5 1-.5 1-.5h2 2 1.5 1.5l.5-.5.5-.5h2 2 1.5 1.5 1 1 2 2" style="fill:#f55566;stroke:#f55566"/><g style="fill:#16542c;stroke:#16542c"><path d="m564 138l1-3v-2-2l-.5-2-.5-2-.5-1.5-.5-1.5v-2.5-2.5l-.5-1.5-.5-1.5-.5-2-.5-2-.5-1.5-.5-1.5h-.5-.5v1.5 1.5l.5 1.5.5 1.5.5 1.5.5 1.5v2.5 2.5l.5 1.5.5 1.5.5 2 .5 2v2 2l-.5 1.5-.5 1.5-2.5 9.5-2.5 9.5-12 12-12 12h-.5-.5l-1 1-1 1h-1-1l-.5.5-.5.5-1 .5-1 .5h-1-1-1-1l-.5.5-.5.5-1 .5-1 .5h-1-1l-.5.5-.5.5-1 .5-1 .5 10-3 10-3 8-5.5 8-5.5 5.5-7.5 5.5-7.5 2-9 2-9"/><path d="m564 62l1-3-.5-1.5-.5-1.5-1.5-1-1.5-1-.5-1.5-.5-1.5-1.5-1-1.5-1v1 1l1 1 1 1-1 8.5-1 8.5-1 13-1 13v-1.5-1.5-2.5-2.5-2-2l.5-2 .5-2v-2-2l1-1.5 1-1.5.5-1.5.5-1.5.5-1.5.5-1.5 1-1.5 1-1.5 1-1 1-1"/></g><path d="m563 393l1-3-.5-1.5-.5-1.5-1.5-1-1.5-1-1 1-1 1-.5 1-.5 1v2 2l1 1.5 1 1.5 1.5-.5 1.5-.5.5-1 .5-1" style="fill:#374a53;stroke:#374a53"/><path d="m563 284l-28-1-3.5-9.5-3.5-9.5-.5 2-.5 2v2 2 2.5 2.5 2 2l1 1 1 1 1 .5 1 .5h3 3 2.5 2.5 2 2 2.5 2.5l.5.5.5.5h-2-2l-1.5.5-1.5.5h-2.5-2.5-3-3l-.5.5-.5.5h-2-2l-1-.5-1-.5-1.5-11-1.5-11v-9.5-9.5-12-12l-.5 11.5-.5 11.5-.5 10-.5 10 1.5 12 1.5 12 1 .5 1 .5h2 2 2.5 2.5l1.5-.5 1.5-.5 2-.5 2-.5h3 3l1-.5 1-.5h1.5 1.5l2.5-.5 2.5-.5 2-.5 2-.5" style="fill:#f4b48b;stroke:#f4b48b"/><path d="m562 296l1-1h-3.5-3.5l-1.5.5-1.5.5h-2.5-2.5-2-2-2-2l-2 .5-2 .5h-2-2-2.5-2.5-3-3l3 .5 3 .5h2 2l2 .5 2 .5 1.5-.5 1.5-.5h2.5 2.5l1.5-.5 1.5-.5h2 2 2.5 2.5l1.5-.5 1.5-.5h2 2" style="fill:#4a0a31;stroke:#4a0a31"/><path d="m562 137l1-3v-2-2l-.5-2-.5-2-.5-1.5-.5-1.5v-2.5-2.5l-.5-1.5-.5-1.5-.5-1.5-.5-1.5v-1.5-1.5l-.5-2.5-.5-2.5-.5-2-.5-2-.5-1.5-.5-1.5-.5-.5-.5-.5 1-13 1-13 1-8.5 1-8.5-.5 1.5-.5 1.5-4 9-4 9v10.5 10.5l3.5 19 3.5 19-2.5 10-2.5 10-5 6.5-5 6.5-7.5 4.5-7.5 4.5 1 .5 1 .5 1 1 1 1 1 1 1 1 12-12 12-12 2.5-9.5 2.5-9.5" style="fill:#14852f;stroke:#14852f"/><path d="m559 422v-2h-2-2v-.5-.5l-1.5.5-1.5.5-.5-1.5-.5-1.5v-1.5-1.5l.5-1.5.5-1.5-.5-2-.5-2 .5-1.5.5-1.5v-2-2l-.5-1-.5-1 .5-1.5.5-1.5-.5-1-.5-1-.5 1.5-.5 1.5-2 .5-2 .5-1-1-1-1-.5-.5-.5-.5v1.5 1.5 2 2 2 2 2.5 2.5l-.5 1.5-.5 1.5v2.5 2.5 2 2 2 2 2.5 2.5 1.5 1.5l1.5-1.5 1.5-1.5h1.5 1.5 2 2l2 .5 2 .5h1 1l-1-1-1-1-.5-2-.5-2 .5-1.5.5-1.5h1 1l.5-.5.5-.5" style="fill:#16542c;stroke:#16542c"/><path d="m558 56l1-3-1-1-1-1-1.5-1-1.5-1-1-1-1-1-.5-.5-.5-.5-.5-1-.5-1-1-1-1-1-.5-.5-.5-.5-.5-1-.5-1-1-1-1-1-1-1-1-1-.5-.5-.5-.5-1-.5-1-.5.5 1.5.5 1.5.5 1 .5 1 1.5 1.5 1.5 1.5 1 1.5 1 1.5 1 1 1 1 1 1.5 1 1.5 1 1 1 1 1 1 1 1v1.5 1.5.5.5 1.5 1.5l-1 1.5-1 1.5-.5 1.5-.5 1.5-1 1.5-1 1.5v2 2l-.5 2-.5 2v2 2 2 2 2.5 2.5l.5 1.5.5 1.5.5 1 .5 1v-10.5-10.5l4-9 4-9" style="fill:#97a56d;stroke:#97a56d"/><path d="m557 448l-9-15-.5 12-.5 12v1.5 1.5l.5-1.5.5-1.5v-1-1-1.5-1.5l.5-1.5.5-1.5v-3-3-2-2l1.5-1 1.5-1 1 1 1 1 1 1.5 1 1.5v2 2l-.5 1.5-.5 1.5-.5 1.5-.5 1.5-.5 1-.5 1-.5.5-.5.5 1.5-1 1.5-1 1-1 1-1v-1.5-1.5" style="fill:#d9dcb0;stroke:#d9dcb0"/><path d="m557 133l-7-38-.5-1-.5-1-.5-1.5-.5-1.5v-2.5-2.5-2-2-2-2l.5-2 .5-2v-2-2l1-1.5 1-1.5.5-1.5.5-1.5 1-1.5 1-1.5v-1.5-1.5l-1 .5-1 .5-.5 1-.5 1-.5.5-.5.5-.5.5-.5.5-3 10-3 10-12.5 1-12.5 1h-1.5-1.5l-1.5.5-1.5.5h3 3 2 2 2.5 2.5 2 2 2 2l2 .5 2 .5.5.5.5.5h-.5-.5l4.5 7.5 4.5 7.5 2.5 10.5 2.5 10.5v2.5 2.5 2 2 2.5 2.5l-.5 1.5-.5 1.5-4.5 9-4.5 9-8 5.5-8 5.5-15.5 4.5-15.5 4.5h-2-2-2-2l-2 .5-2 .5h-.5-.5-1.5-1.5l-.5.5-.5.5h-1.5-1.5l-1.5.5-1.5.5-.5.5-.5.5-1 .5-1 .5-1.5.5-1.5.5h-1-1l-.5.5-.5.5h-1-1-1.5-1.5l-1.5-.5-1.5-.5-.5-.5-.5-.5h-1.5-1.5l-1.5-.5-1.5-.5-1-.5-1-.5-1-.5-1-.5h-1.5-1.5-1-1-1.5-1.5-2-2-1-1l-.5-.5-.5-.5h-1-1-1.5-1.5-1.5-1.5l-10.5-1.5-10.5-1.5-9-8.5-9-8.5h-1.5-1.5l-1-9.5-1-9.5 3.5-8.5 3.5-8.5 3-11 3-11-.5-10-.5-10 1-10 1-10 1-.5 1-.5 1-1 1-1 .5-1.5.5-1.5.5-.5.5-.5 1-.5 1-.5 1-1 1-1 1-1.5 1-1.5 1-1 1-1h1.5 1.5l.5-1 .5-1 7 1 7 1 19.5-2.5 19.5-2.5 7.5-1.5 7.5-1.5 10 1.5 10 1.5 14-1.5 14-1.5h1.5 1.5l1-1 1-1 1.5-.5 1.5-.5 1.5-.5 1.5-.5.5.5.5.5.5 1 .5 1 1 .5 1 .5-.5-1-.5-1-.5-1.5-.5-1.5 1 .5 1 .5.5.5.5.5 1 1 1 1 1 1 1 1 .5 1 .5 1 .5.5.5.5 1 1 1 1 .5 1 .5 1 .5.5.5.5 1 1 1 1 1.5 1 1.5 1v-1-1l-6.5-7-6.5-7-9-.5-9-.5-11 2.5-11 2.5-12-1-12-1-9.5 1-9.5 1-10.5 2.5-10.5 2.5h-10.5-10.5l-8.5.5-8.5.5-5.5 6-5.5 6-4.5 7-4.5 7 1 .5 1 .5.5 1.5.5 1.5.5 1.5.5 1.5.5 2 .5 2 .5 1.5.5 1.5v2.5 2.5 2 2l-.5 1.5-.5 1.5-4 10-4 10-3 10.5-3 10.5-.5 11.5-.5 11.5 1 1.5 1 1.5 4.5 4.5 4.5 4.5 14 5.5 14 5.5h2.5 2.5l-9.5-2.5-9.5-2.5-2.5-2-2.5-2 9.5 3.5 9.5 3.5h11.5 11.5l11 2 11 2 8.5-1 8.5-1 11-2 11-2 10-1 10-1-1 .5-1 .5h1 1l2-.5 2-.5 1.5-.5 1.5-.5.5-.5.5-.5 2-.5 2-.5 7.5-4.5 7.5-4.5 5-6.5 5-6.5 2.5-10 2.5-10" style="fill:#374a53;stroke:#374a53"/><path d="m556 132l-2-22v4.5 4.5l1 6.5 1 6.5" style="fill:#b3bb93;stroke:#b3bb93"/><path d="m555 449l1-3v-2-2l-1-1.5-1-1.5-1-1-1-1-1.5 1-1.5 1v2 2 3 3 1.5 1.5l.5.5.5.5h1 1l1-.5 1-.5.5-1.5.5-1.5" style="fill:#374a53;stroke:#374a53"/><path d="m555 249v-2h-2-2-1.5-1.5-1-1-2-2-1.5-1.5-1-1l-1.5-.5-1.5-.5-1-.5-1-.5h-1-1l-.5-.5-.5-.5-.5-1-.5-1v1.5 1.5l.5 1 .5 1 2 .5 2 .5h2 2 1 1 1.5 1.5l2 .5 2 .5h2.5 2.5 2 2" style="fill:#f4b48b;stroke:#f4b48b"/><path d="m554 257l1-3v-1.5-1.5l-1-.5-1-.5h-2-2-1.5-1.5-1-1l-1.5.5-1.5.5-1 .5-1 .5h-1-1l-1.5-.5-1.5-.5-.5 1-.5 1h2 2 1 1 1.5 1.5 1 1l.5.5.5.5h1 1l.5.5.5.5-1 .5-1 .5-2 .5-2 .5h-2-2-1.5-1.5l-2 1-2 1h2 2l2-.5 2-.5h2 2l2-.5 2-.5h2 2 1.5 1.5" style="fill:#e3184a;stroke:#e3184a"/><path d="m554 56v-3l-1-1-1-1-1-1-1-1-1-1.5-1-1.5-1-1-1-1-1-1.5-1-1.5-1.5-1.5-1.5-1.5-1-.5-1-.5-.5-1-.5-1-.5-.5-.5-.5-1.5.5-1.5.5-1.5.5-1.5.5-1 1-1 1h-1.5-1.5-.5-.5l-2 1-2 1-1 .5-1 .5.5.5.5.5 1 .5 1 .5.5 1.5.5 1.5 14.5 6 14.5 6 1-.5 1-.5v-.5-.5" style="fill:#14852f;stroke:#14852f"/><path d="m553 454l1-2-1 .5-1 .5h-1-1l-.5-.5-.5-.5v-1.5-1.5l-.5 1.5-.5 1.5v1.5 1.5 1 1l-.5 1.5-.5 1.5v2.5 2.5l-.5 1.5-.5 1.5 1 1 1 1 .5-1 .5-1v-2-2-2.5-2.5l.5-1.5.5-1.5 1-.5 1-.5.5-.5.5-.5" style="fill:#b3bb93;stroke:#b3bb93"/><path d="m552 285l-1-1h-2.5-2.5-2-2-2.5-2.5-3-3l-.5 1-.5 1h2 2 3 3 2.5 2.5l1.5-.5 1.5-.5h2 2" style="fill:#d9dcb0;stroke:#d9dcb0"/><path d="m552 140l1-3v-2.5-2.5-2-2h-.5-.5l-3-9.5-3-9.5-5-6.5-5-6.5-12.5.5-12.5.5-12 1-12 1-20.5 1.5-20.5 1.5 3 6 3 6 4.5 6.5 4.5 6.5 6-5.5 6-5.5 6-6 6-6 8.5-2 8.5-2 3.5 8.5 3.5 8.5 5.5 7.5 5.5 7.5 1.5 11 1.5 11-5.5 8-5.5 8-8 4-8 4 15.5-4.5 15.5-4.5 8-5.5 8-5.5 4.5-9 4.5-9" style="fill:#0a061e;stroke:#0a061e"/><path d="m552 128h1v-2.5-2.5h-.5-.5l-3-9-3-9-6-6-6-6-7.5-1-7.5-1-10.5 1.5-10.5 1.5-12 .5-12 .5-11 .5-11 .5-11 .5-11 .5-17-.5-17-.5v1.5 1.5 1.5 1.5l-2.5 10.5-2.5 10.5-4 7.5-4 7.5v10.5 10.5l1.5-10.5 1.5-10.5 3.5-9 3.5-9 4-7.5 4-7.5 15-1 15-1 1.5-.5 1.5-.5h1 1 1 1l1 .5 1 .5h1 1l.5-.5.5-.5h1.5 1.5l20.5-1.5 20.5-1.5 12-1 12-1 12.5-.5 12.5-.5 5 6.5 5 6.5 3 9.5 3 9.5" style="fill:#16542c;stroke:#16542c"/><path d="m552 123h1l-2.5-10.5-2.5-10.5-4.5-7.5-4.5-7.5h-2-2l-1.5.5-1.5.5h-2.5-2.5-2-2l-.5 1-.5 1-1.5.5-1.5.5 7.5 1 7.5 1 6 6 6 6 3 9 3 9" style="fill:#14852f;stroke:#14852f"/><path d="m551 60l1-2-14.5-6-14.5-6h-.5-.5l-1 .5-1 .5-1.5.5-1.5.5-.5.5-.5.5h-1.5-1.5l-1.5.5-1.5.5v1 1h2.5 2.5l9-3 9-3 8.5 7.5 8.5 7.5.5-.5.5-.5" style="fill:#16542c;stroke:#16542c"/><path d="m549 62l1-1-8.5-7.5-8.5-7.5-9 3-9 3 1.5.5 1.5.5.5.5.5.5.5 1 .5 1 .5.5.5.5v1 1 1 1l.5.5.5.5.5 1 .5 1v1 1 1 1l-.5 1.5-.5 1.5v1.5 1.5l-.5 1.5-.5 1.5-.5 1.5-.5 1.5-1 2-1 2 12.5-1 12.5-1 3-10 3-10" style="fill:#0a061e;stroke:#0a061e"/><path d="m548 288l1-1h-3-3l-2 .5-2 .5-1.5.5-1.5.5h-2.5-2.5-2-2l-1-.5-1-.5 1 1 1 1 .5.5.5.5h1 1 1 1 1.5 1.5 1 1 1 1 1 1l1-.5 1-.5h1 1l.5-.5.5-.5 1-.5 1-.5" style="fill:#f28569;stroke:#f28569"/><path d="m548 255l-1-1h-1-1l-.5-.5-.5-.5h-1-1-1.5-1.5-1-1-2-2l1 .5 1 .5h2 2l.5 1 .5 1h-1.5-1.5l-1 .5-1 .5h1.5 1.5 2 2l2-.5 2-.5 1-.5 1-.5" style="fill:#f55566;stroke:#f55566"/><path d="m547 216l-1-1h-2.5-2.5l-1.5.5-1.5.5h-2-2l-2 .5-2 .5h-2-2l-1 2-1 2v12 12 9.5 9.5l1.5 11 1.5 11-.5-1.5-.5-1.5-.5-2-.5-2 .5-1.5.5-1.5-.5-2-.5-2 .5-1.5.5-1.5-.5-1.5-.5-1.5v-2.5-2.5l.5-1.5.5-1.5.5-2 .5-2 1-1.5 1-1.5 1.5-.5 1.5-.5.5-.5.5-.5h1 1l.5.5.5.5h1.5 1.5l.5-.5.5-.5h1 1 2 2l-2-.5-2-.5h-1.5-1.5-1-1-2-2l-2-.5-2-.5-1 .5-1 .5-.5-1.5-.5-1.5-.5-1.5-.5-1.5v-1-1-1.5-1.5-2-2l.5-.5.5-.5v-1.5-1.5-2-2-2.5-2.5l2-1 2-1h2 2l2-.5 2-.5h2 2l2.5-.5 2.5-.5" style="fill:#d9dcb0;stroke:#d9dcb0"/><path d="m543 469v-2l.5-1.5.5-1.5v-1.5-1.5-1-1-1-1-1-1-1.5-1.5-1-1-1-1-1-1-1.5-1.5-1-1-1-1-1-1l-1-.5-1-.5v2 2l.5.5.5.5v1 1 1 1 1.5 1.5 1 1 1 1l-.5 1.5-.5 1.5v1.5 1.5 2 2 2.5 2.5 2 2l-.5 1.5-.5 1.5v3 3l.5-1 .5-1v-2.5-2.5l.5-.5.5-.5v-1.5-1.5" style="fill:#16542c;stroke:#16542c"/><g style="fill:#374a53;stroke:#374a53"><path d="m543 385l-8-14h-13.5-13.5-6-6-.5-.5l-.5.5-.5.5h1.5 1.5 1.5 1.5 2 2 2.5 2.5 2 2 2.5 2.5 3 3 2 2 2 2 2 2 2.5 2.5l.5 1.5.5 1.5v2.5 2.5 2 2l.5 1 .5 1v-.5-.5"/><path d="m543 191v-2l-1 1-1 1-2 .5-2 .5-1.5.5-1.5.5-1.5 1-1.5 1-1.5.5-1.5.5-1.5 1-1.5 1v.5.5h2 2l1-.5 1-.5 2-.5 2-.5 1.5-.5 1.5-.5 1.5-1 1.5-1 1-1 1-1v-.5-.5"/></g><path d="m542 455l1-3v-1-1-1-1-1.5-1.5-1-1-1-1l-.5-.5-.5-.5v-2-2-1-1-1.5-1.5-2.5-2.5-2-2-2-2-2.5-2.5-2-2-1-1-1.5-1.5-2-2l-.5 1-.5 1v2 2 2.5 2.5 2.5 2.5 1.5 1.5 2.5 2.5 2 2 2 2 2.5 2.5 2 2 2.5 2.5 2 2 2.5 2.5 2 2l-.5 1.5-.5 1.5v2.5 2.5 2 2l-.5 1.5-.5 1.5v2 2l-.5.5-.5.5h-1.5-1.5-2-2-2.5-2.5-2-2-2.5-2.5-.5-.5-1.5-1.5-2-2-1-1-1-1-1-1-1.5-1.5-1-1-1-1-1-1-1.5-1.5-2-2-1-1-1.5-1.5-2.5-2.5l13 .5 13 .5 18.5.5 18.5.5.5-.5.5-.5v-3-3l.5-1.5.5-1.5v-2-2-2.5-2.5-2-2-1.5-1.5" style="fill:#6a7d4f;stroke:#6a7d4f"/><path d="m542 413l1-3v-2.5-2.5-2-2-2-2-1.5-1.5-3-3-1-1l-.5-1-.5-1v-2-2-2.5-2.5l-.5-1.5-.5-1.5h-2.5-2.5-2-2-2-2-2-2v.5.5h2 2 2 2 2.5 2.5l1.5.5 1.5.5.5 2 .5 2v2 2l-.5 1.5-.5 1.5v2 2 2 2 1 1 1.5 1.5 2 2 2.5 2.5 2 2 2.5 2.5h.5.5v-2.5-2.5-2.5-2.5-2-2l.5-1 .5-1v2 2 1.5 1.5 1 1 2 2" style="fill:#b3bb93;stroke:#b3bb93"/><path d="m540 462l1-3v-2-2-2.5-2.5-2-2-2.5-2.5-2-2-2.5-2.5-2-2-2-2-2.5-2.5-1.5-1.5h-.5-.5v2 2 2 2 2.5 2.5 2 2 2.5 2.5 3 3 1.5 1.5 1 1 1.5 1.5 2 2 1 1 2 2" style="fill:#97a56d;stroke:#97a56d"/><path d="m540 385l1-3v-2-2l-.5-2-.5-2-1.5-.5-1.5-.5h-2.5-2.5-2-2-2-2-.5-.5-1.5-1.5-2-2-2.5-2.5l-.5.5-.5.5h-1.5-1.5-1.5-1.5-1-1-1-1-1-1-1.5-1.5-1-1-1-1-1-1-1.5-1.5-1-1-1-1-2-2-.5-.5-12-12l-12.5.5-12.5.5h-13.5-13.5-13-13l-11 .5-11 .5h-13-13l-11 .5-11 .5-12 1-12 1-3 22-3 22h.5.5.5.5l.5 1.5.5 1.5.5.5.5.5v-2.5-2.5h1 1v2.5 2.5l1 1 1 1 1.5-1 1.5-1v-1-1l.5-1 .5-1-1.5-8.5-1.5-8.5 2.5-10 2.5-10 10 1 10 1 4-1.5 4-1.5-1 6-1 6-.5 7-.5 7 4-5 4-5 6-6.5 6-6.5-1 6-1 6-1.5 6-1.5 6-4 5-4 5h-8.5-8.5-3-3l-1-8.5-1-8.5.5-6.5.5-6.5-1.5 7-1.5 7-3.5 8.5-3.5 8.5.5 1.5.5 1.5.5 1.5.5 1.5 1 1.5 1 1.5v-1-1l1-1.5 1-1.5 1.5.5 1.5.5.5 2 .5 2h2.5 2.5l-.5-1.5-.5-1.5 1-1 1-1h1.5 1.5l-1 1-1 1v1.5 1.5l1-1 1-1 .5 1 .5 1-1 1.5-1 1.5 1-1 1-1 1.5.5 1.5.5.5-1.5.5-1.5h1 1 1.5 1.5l1 1 1 1v1 1l.5 2 .5 2h1 1v1 1l2-.5 2-.5 1 1 1 1h1.5 1.5l6.5-4 6.5-4 6.5-1 6.5-1 5.5.5 5.5.5 4 1.5 4 1.5 5.5 3 5.5 3 1-1.5 1-1.5v-1.5-1.5-1.5-1.5l1.5-.5 1.5-.5h1 1 1 1 1 1l.5 1 .5 1 .5.5.5.5v1.5 1.5l.5 2 .5 2 .5 1 .5 1 6-6 6-6 2.5 11 2.5 11 .5 1 .5 1v-1.5-1.5l1-1.5 1-1.5 1 1 1 1 .5-.5.5-.5v-1-1-1.5-1.5l.5-1 .5-1v-3-3-2-2l1.5-1 1.5-1h2 2 2 2l.5 2 .5 2v2 2l.5-2 .5-2v-2-2h2.5 2.5 2 2l1 1.5 1 1.5.5 1.5.5 1.5v2 2 1 1l.5 1 .5 1-.5 2-.5 2v3 3l2.5-.5 2.5-.5 1-2.5 1-2.5 3.5-9 3.5-9 4 2.5 4 2.5 6 3.5 6 3.5 1-1.5 1-1.5 6-2.5 6-2.5 1.5-2 1.5-2 7.5.5 7.5.5v3 3 2.5 2.5 2 2 2.5 2.5 2 2l2-.5 2-.5 1 1.5 1 1.5-2.5-5.5-2.5-5.5 4-8.5 4-8.5 2 10.5 2 10.5 2 2.5 2 2.5 3.5-6.5 3.5-6.5v-3-3-2.5-2.5-2-2-2.5-2.5-2-2-2-2-2.5-2.5-2-2-2.5-2.5-2-2-1.5-1.5-1-1-2-2-2-2" style="fill:#d9dcb0;stroke:#d9dcb0"/><path d="m540 87l-1-1-2-.5-2-.5h-2-2-2-2-2.5-2.5-2-2-3-3-1.5-1.5-1.5-1.5v.5.5h2 2 2.5 2.5 2 2l.5.5.5.5-11.5.5-11.5.5-12.5.5-12.5.5-18 1.5-18 1.5 3.5 1 3.5 1-11 .5-11 .5 12.5.5 12.5.5 10.5-1 10.5-1 12.5-.5 12.5-.5 15.5-2.5 15.5-2.5h2 2 2.5 2.5l1.5-.5 1.5-.5h2 2 .5.5" style="fill:#97a56d;stroke:#97a56d"/><path d="m539 481h1l-18.5-.5-18.5-.5-13-.5-13-.5h-.5-.5-2-2-2-2-1-1-1-1-1-1-1.5-1.5-1-1-1-1-1-1-1.5-1.5-1-1-1-1-1-1-2-2-.5-.5-12-12-12.5-12.5l-14.5-.5-14.5-.5h-1.5-1.5-1.5-1.5-2.5-2.5-2-2-2.5-2.5-2-2-2-2-1-1-1.5-1.5-2-2-2.5-2.5-3-3-.5-.5-1.5-1.5-1-1-1-1-1-1-1.5-1.5-2-2-1-1-1.5-1.5-2-2-1-1-1-1-1-1-1.5-1.5-1.5-1.5l11.5.5 11.5.5h13 13 13.5 13.5l12.5.5 12.5.5h11.5 11.5 13 13l13 .5 13 .5h12.5 12.5 13 13 13.5 13.5 5 5" style="fill:#374a53;stroke:#374a53"/><path d="m539 474l1-3v-2-2-2.5-2.5-2-2-1-1-2-2-1.5-1.5-1-1-1.5-1.5l-3.5 6.5-3.5 6.5-2-2.5-2-2.5v2 2 1.5 1.5 2 2l-.5 1.5-.5 1.5-.5 2-.5 2-2 .5-2 .5-1.5-.5-1.5-.5-1-1.5-1-1.5-.5-1.5-.5-1.5v-2.5-2.5l1-1 1-1 1.5 1 1.5 1-1-1.5-1-1.5-2 .5-2 .5v2 2 2 2l-.5 2-.5 2v.5.5h-2.5-2.5l-3-5-3-5-2 1.5-2 1.5-5.5 3.5-5.5 3.5-1.5-14.5-1.5-14.5-1 1.5-1 1.5v2 2 2.5 2.5 2 2l-.5 1.5-.5 1.5v2 2l-1 1.5-1 1.5-5.5.5-5.5.5h-4-4l-.5-1-.5-1-2-8-2-8-1 2.5-1 2.5-2.5.5-2.5.5-3 7-3 7-13-5-13-5 2 .5 2 .5.5.5.5.5v1 1 1 1l-.5 1.5-.5 1.5-.5 1-.5 1h-2-2l-2-.5-2-.5-.5-1.5-.5-1.5v-2.5-2.5l.5-1.5.5-1.5v-2-2-2.5-2.5h-.5-.5l-.5-1.5-.5-1.5-2 5-2 5 .5 7 .5 7-3.5-13.5-3.5-13.5-.5-1-.5-1-.5-2-.5-2v2 2 2 2 2.5 2.5 2 2l-.5 1.5-.5 1.5-6.5 6-6.5 6 1.5-15.5 1.5-15.5-1 1.5-1 1.5v2 2 1 1 1 1l-.5 1.5-.5 1.5-3.5 9-3.5 9-3-9.5-3-9.5-1 3-1 3-2 3.5-2 3.5-3 1-3 1-3 .5-3 .5-9-1-9-1-2 2-2 2-1-14-1-14h-1.5-1.5l-1-1-1-1-2 .5-2 .5v-1-1h-1-1v1.5 1.5 2 2l-.5 2-.5 2-3.5 10-3.5 10-4-5-4-5-6 5.5-6 5.5-3-6-3-6-2.5 5-2.5 5-1.5-7.5-1.5-7.5 1.5-10 1.5-10 3.5 3.5 3.5 3.5h2.5 2.5l-1.5 11.5-1.5 11.5 4-16 4-16-.5-2-.5-2-1.5-.5-1.5-.5-1 1.5-1 1.5v1 1l-1-1.5-1-1.5-.5-1.5-.5-1.5-.5-1.5-.5-1.5-.5 1-.5 1v1 1l-1.5 1-1.5 1-1-1-1-1v-2.5-2.5h-1-1v2.5 2.5l-.5-.5-.5-.5-.5-1.5-.5-1.5h-.5-.5-.5-.5l-1.5 9.5-1.5 9.5-1.5 10.5-1.5 10.5 4.5 6.5 4.5 6.5 12 .5 12 .5h2 2 3.5 3.5 12 12 11.5 11.5l20.5.5 20.5.5h3 3 2 2 2.5 2.5 2 2 2.5 2.5 2 2 2.5 2.5 3 3 1.5 1.5 2 2 2.5 2.5 2 2 2.5 2.5 2 2 2.5 2.5 2 2 1.5 1.5 1.5 1.5 1.5 1.5 2 2 2.5 2.5 2 2 2.5 2.5 2 2 2.5 2.5 2 2l1.5.5 1.5.5h2.5 2.5 2 2 2.5 2.5 2 2 1.5 1.5l.5-.5.5-.5v-2-2" style="fill:#b3bb93;stroke:#b3bb93"/><path d="m539 354l-16-2-2-9.5-2-9.5 8-5 8-5-5-3.5-5-3.5-7 6-7 6 1 11.5 1 11.5 10 3.5 10 3.5 3-2 3-2" style="fill:#4a0a31;stroke:#4a0a31"/><path d="m534 321h-16l-3 10.5-3 10.5 6 7 6 7-3-2.5-3-2.5-.5-10.5-.5-10.5 8.5-4.5 8.5-4.5" style="fill:#8e0c36;stroke:#8e0c36"/><path d="m533 287l1-1h-2-2l.5-1 .5-1-1-.5-1-.5-1-1-1-1v-2-2-2.5-2.5-2-2l.5-2 .5-2v-2-2l.5-1.5.5-1.5.5-2 .5-2-.5-1-.5-1-1 1.5-1 1.5-.5 2-.5 2-.5 1.5-.5 1.5v2.5 2.5l.5 1.5.5 1.5-.5 1.5-.5 1.5.5 2 .5 2-.5 1.5-.5 1.5.5 2 .5 2 .5 1.5.5 1.5 1 .5 1 .5h2 2" style="fill:#f3e189;stroke:#f3e189"/><path d="m532 180h1l-1-1-1-1-1-1-1-1-1-.5-1-.5-2 .5-2 .5-.5.5-.5.5-1.5.5-1.5.5-2 .5-2 .5-.5.5-.5.5-8 3-8 3-10 2.5-10 2.5-11.5 2-11.5 2v.5.5l9.5-.5 9.5-.5 11-2.5 11-2.5 8.5-1 8.5-1 1-.5 1-.5.5-.5.5-.5h1 1l1-.5 1-.5.5-.5.5-.5h1 1 1 1l1-.5 1-.5.5-.5.5-.5h1 1l1-1 1-1" style="fill:#6a7d4f;stroke:#6a7d4f"/><path d="m529 412l-6-18 2.5-5 2.5-5-5 6-5 6 3 7.5 3 7.5-2.5 3.5-2.5 3.5 5-3 5-3" style="fill:#b3bb93;stroke:#b3bb93"/><path d="m529 219l1-1-2 1-2 1v2.5 2.5 2 2 1.5 1.5l-.5.5-.5.5v2 2 1.5 1.5 1 1l.5 1.5.5 1.5.5 1.5.5 1.5 1-.5 1-.5-.5-1-.5-1v-1.5-1.5-3-3-1.5-1.5-2.5-2.5l.5-2 .5-2-.5-1.5-.5-1.5.5-1 .5-1" style="fill:#f3e189;stroke:#f3e189"/><g style="fill:#374a53;stroke:#374a53"><path d="m528 466l1-3v-2-2-1.5-1.5-2-2l-2-10.5-2-10.5-4 8.5-4 8.5 2.5 5.5 2.5 5.5-1.5-1-1.5-1-1 1-1 1v2.5 2.5l.5 1.5.5 1.5 1 1.5 1 1.5 1.5.5 1.5.5 2-.5 2-.5.5-2 .5-2"/><path d="m527 414l-5-19 2.5-5 2.5-5-3 8-3 8 3 3.5 3 3.5v3 3"/></g><path d="m525 38h1l-14 1.5-14 1.5-10-1.5-10-1.5-7.5 1.5-7.5 1.5h9 9l5.5 3 5.5 3 7.5-.5 7.5-.5 7-3 7-3 2-1 2-1" style="fill:#97a56d;stroke:#97a56d"/><path d="m524 199h1v-.5-.5l-11.5.5-11.5.5-13 .5-13 .5-12.5.5-12.5.5-11 .5-11 .5h-11-11l-12.5 1-12.5 1-12.5 1-12.5 1-12.5.5-12.5.5-13 .5-13 .5-12 1-12 1-7.5 4-7.5 4-3 10-3 10-2 11.5-2 11.5-1.5 12-1.5 12-1.5 11.5-1.5 11.5h4.5 4.5l2-11 2-11 1.5-10 1.5-10 2-11 2-11 1-12.5 1-12.5 7 1.5 7 1.5 14 5 14 5 6-5.5 6-5.5v-2.5-2.5h-11.5-11.5l-12-.5-12-.5 6.5-2 6.5-2 10.5-1 10.5-1 12-.5 12-.5 11-.5 11-.5 12-1 12-1 11-.5 11-.5 12.5-.5 12.5-.5 11-.5 11-.5 12.5-.5 12.5-.5 11-.5 11-.5 12-.5 12-.5" style="fill:#4a0a31;stroke:#4a0a31"/><path d="m523 373h1v-.5-.5h-3-3-2.5-2.5-2-2-2.5-2.5-2-2-1.5-1.5-1.5-1.5-1.5-1.5-1.5-1.5-2-2l1.5.5 1.5.5h1 1 1 1 1.5 1.5 1 1 1 1 1 1 1.5 1.5 1 1 1 1 2 2 2.5 2.5 2 2 1.5 1.5" style="fill:#5c6e8e;stroke:#5c6e8e"/><path d="m523 154l-3-22-5.5-7.5-5.5-7.5-3.5-8.5-3.5-8.5-8.5 2-8.5 2-6 6-6 6-6 5.5-6 5.5-4.5-6.5-4.5-6.5-3-6-3-6h-1.5-1.5l-.5.5-.5.5h-1-1l-1-.5-1-.5h-1-1-1-1l-1.5.5-1.5.5-.5.5-.5.5-5.5 7-5.5 7-4 9.5-4 9.5-3 10-3 10 8.5 11 8.5 11h1.5 1.5 1.5 1.5 1 1l.5.5.5.5h1 1 2 2 1.5 1.5 1 1 1.5 1.5l1 .5 1 .5 8-4.5 8-4.5 10.5 3.5 10.5 3.5 2-.5 2-.5h2 2 2 2l8-4 8-4 5.5-8 5.5-8" style="fill:#4a0a31;stroke:#4a0a31"/><path d="m522 90l1-2-15.5 2.5-15.5 2.5-12.5.5-12.5.5-10.5 1-10.5 1-12.5-.5-12.5-.5 11-.5 11-.5-3.5-1-3.5-1h-2-2l-.5-.5-.5-.5-1 .5-1 .5h-1-1-2-2l-11.5 1-11.5 1 13-2 13-2 12.5-.5 12.5-.5 11-.5 11-.5 16.5-1 16.5-1v-.5-.5l-9.5-.5-9.5-.5-10.5 1.5-10.5 1.5-20 1-20 1h-2.5-2.5-1.5-1.5-3-3l-1.5.5-1.5.5h-2.5-2.5-3-3-.5-.5l-1 .5-1 .5-1 .5-1 .5v-2.5-2.5l-.5-1.5-.5-1.5v2 2 2.5 2.5 2.5 2.5l.5-1.5.5-1.5 1.5.5 1.5.5 17 .5 17 .5 11-.5 11-.5 11-.5 11-.5 12-.5 12-.5 10.5-1.5 10.5-1.5 1.5-.5 1.5-.5" style="fill:#6a7d4f;stroke:#6a7d4f"/><path d="m522 71l1-3v-1-1-1-1l-.5-1-.5-1-.5-.5-.5-.5v-1-1-1-1l-.5-.5-.5-.5-.5-1-.5-1-.5-.5-.5-.5-1.5-.5-1.5-.5h-2.5-2.5-2.5-2.5-2-2-1-1-1.5-1.5l-1.5-.5-1.5-.5-.5-.5-.5-.5h-1.5-1.5l-2.5-.5-2.5-.5h-.5-.5l-.5 1-.5 1-2 .5-2 .5-1.5.5-1.5.5h-1-1-1-1-1-1-1.5-1.5l-1-.5-1-.5-1.5.5-1.5.5h-1.5-1.5-.5-.5l9.5 1.5 9.5 1.5 10-1.5 10-1.5 11.5 8.5 11.5 8.5v1.5 1.5l-.5 2-.5 2-.5 1.5-.5 1.5-1 2-1 2h1.5 1.5l1-2 1-2 .5-1.5.5-1.5.5-1.5.5-1.5v-1.5-1.5" style="fill:#4a0a31;stroke:#4a0a31"/><path d="m522 46h1l-.5-1.5-.5-1.5-1-.5-1-.5-.5-.5-.5-.5 1-.5 1-.5-7 3-7 3-7.5.5-7.5.5-5.5-3-5.5-3h-9-9l-.5.5-.5.5-9.5 3-9.5 3-13-.5-13-.5.5 1 .5 1v1.5 1.5l1.5 1 1.5 1h1 1 1 1l1 .5 1 .5 2 .5 2 .5 1.5-.5 1.5-.5h3 3l-1 1-1 1 1.5 1 1.5 1h2 2v-1.5-1.5-1-1h2 2l2-.5 2-.5h2 2 .5.5l2-1 2-1 1-1 1-1 1.5-1 1.5-1 1.5-.5 1.5-.5 1.5-1 1.5-1 1 1 1 1 2 .5 2 .5 1.5.5 1.5.5 1 .5 1 .5 2.5.5 2.5.5h1.5 1.5l.5.5.5.5 1.5.5 1.5.5h1.5 1.5 1 1 2 2 2.5 2.5v-1-1l1.5-.5 1.5-.5h1.5 1.5l.5-.5.5-.5 1.5-.5 1.5-.5 1-.5 1-.5" style="fill:#6a7d4f;stroke:#6a7d4f"/><path d="m521 154l-3-21-7.5-6-7.5-6-.5-9.5-.5-9.5-7 3.5-7 3.5-4.5 8.5-4.5 8.5-4 8.5-4 8.5 1 7.5 1 7.5 7 6 7 6 10.5-1 10.5-1 6.5-6.5 6.5-6.5v-.5-.5" style="fill:#8e0c36;stroke:#8e0c36"/><path d="m520 152l1-3v-2-2l-.5-2-.5-2-.5-1.5-.5-1.5-1-1.5-1-1.5-1-1-1-1-1.5-.5-1.5-.5 1 1.5 1 1.5.5 1 .5 1 .5 1 .5 1 .5 1 .5 1 .5 1.5.5 1.5v1.5 1.5 2 2l-1 1.5-1 1.5-.5 1.5-.5 1.5-1 .5-1 .5-.5.5-.5.5-.5 1.5-.5 1.5-1 1-1 1-1.5 1-1.5 1-1.5.5-1.5.5-1 .5-1 .5 2.5-.5 2.5-.5 2-.5 2-.5 1-1 1-1 1-1 1-1 1-1.5 1-1.5 1-1 1-1 1-1.5 1-1.5v-1-1" style="fill:#e3184a;stroke:#e3184a"/><path d="m520 87l-1-1h-2-2-2.5-2.5-2-2l-16.5 1-16.5 1-11 .5-11 .5-12.5.5-12.5.5-.5.5-.5.5-1 .5-1 .5h2 2 1 1l1-.5 1-.5.5.5.5.5h2 2l18-1.5 18-1.5 12.5-.5 12.5-.5 11.5-.5 11.5-.5" style="fill:#b3bb93;stroke:#b3bb93"/><path d="m519 70l-23-17-10 1.5-10 1.5-9.5-1.5-9.5-1.5h-2-2l-2 .5-2 .5h-2-2v1 1 1.5 1.5h-2-2l-1.5-1-1.5-1 1-1 1-1h-3-3v1 1l-1.5.5-1.5.5-1.5 1-1.5 1h1.5 1.5 1.5 1.5 1 1l.5.5.5.5.5 1 .5 1 1 1 1 1 .5.5.5.5.5.5.5.5v1 1l-.5 1.5-.5 1.5v1.5 1.5 1.5 1.5l-.5.5-.5.5v1.5 1.5l-1 1-1 1-2-.5-2-.5-.5-1-.5-1h-.5-.5l-.5 1.5-.5 1.5-.5.5-.5.5-1-.5-1-.5-1-1-1-1-.5.5-.5.5-.5-1-.5-1v-2-2-2.5-2.5l.5-1.5.5-1.5v-2-2l.5-1 .5-1v-1-1l-1.5 1.5-1.5 1.5v2 2l-1 1.5-1 1.5v2 2 2 2 1.5 1.5l.5 1.5.5 1.5 1.5 1 1.5 1 .5 1 .5 1 20-1 20-1 10.5-1.5 10.5-1.5 9.5.5 9.5.5h1.5 1.5 1.5 1.5l1.5-.5 1.5-.5 1-2 1-2 .5-1.5.5-1.5.5-2 .5-2v-1.5-1.5" style="fill:#8e0c36;stroke:#8e0c36"/><path d="m518 147v-3l-.5-1.5-.5-1.5-.5-1-.5-1 .5 2 .5 2v2.5 2.5l-.5 1.5-.5 1.5-.5 1-.5 1-.5.5-.5.5h-1.5-1.5l1-1 1-1 1-1.5 1-1.5v-2-2-1-1-1-1l-.5-1-.5-1v-2-2l-1-1.5-1-1.5-1-1-1-1-1.5-.5-1.5-.5-1.5-.5-1.5-.5h-.5-.5-1-1l-.5.5-.5.5h-1.5-1.5-2.5-2.5l-1-1-1-1v-2.5-2.5l.5-1.5.5-1.5.5-1.5.5-1.5 1-1 1-1 .5-2 .5-2 1-.5 1-.5 1-.5 1-.5v-1-1l.5-.5.5-.5-.5-1-.5-1-5.5 6.5-5.5 6.5-4 7.5-4 7.5-2 6-2 6 .5 2 .5 2 .5 2 .5 2 .5 1.5.5 1.5 1 .5 1 .5.5.5.5.5.5.5.5.5.5.5.5.5 1 .5 1 .5.5.5.5.5.5.5.5.5h1 1l.5.5.5.5h1.5 1.5 1 1 1 1 1 1l1-.5 1-.5h1 1l.5-.5.5-.5.5-.5.5-.5.5-1 .5-1h1 1l.5-1 .5-1 .5 1 .5 1 1 .5 1 .5 1-.5 1-.5.5-1.5.5-1.5 1-1.5 1-1.5v-2-2" style="fill:#f4b48b;stroke:#f4b48b"/><path d="m516 479h1l-1.5-.5-1.5-.5h-2-2-2.5-2.5-2-2-2.5-2.5-2-2-2.5-2.5-2-2-1.5-1.5-1.5-1.5v.5.5h2.5 2.5 1.5 1.5 1 1 2 2 1.5 1.5 1 1 1 1 1 1 1.5 1.5 1 1 1 1 1 1 2 2 1.5 1.5" style="fill:#8293a0;stroke:#8293a0"/><path d="m516 406l-2-22-5 7.5-5 7.5 1.5 10.5 1.5 10.5 4.5-7 4.5-7" style="fill:#b3bb93;stroke:#b3bb93"/><g style="fill:#f28569;stroke:#f28569"><path d="m516 151l1-3v-2.5-2.5l-.5-2-.5-2-.5-1-.5-1-.5-1-.5-1v2 2l.5 1 .5 1v1 1 1 1 2 2l-1 1.5-1 1.5-1 1-1 1h1.5 1.5l.5-.5.5-.5.5-1 .5-1"/><path d="m516 76l-1-15-6.5-.5-6.5-.5 1-.5 1-.5 1-1 1-1 .5 1 .5 1-.5.5-.5.5 1.5 1 1.5 1 1 1 1 1 1.5.5 1.5.5v1.5 1.5l-3 3-3 3-3-7-3-7-4 7-4 7 1-8.5 1-8.5-6.5.5-6.5.5.5 1 .5 1 1.5.5 1.5.5v-1.5-1.5h2 2l2-.5 2-.5.5 1.5.5 1.5v1 1l-2.5 7.5-2.5 7.5-4.5-7.5-4.5-7.5 2.5 9 2.5 9 9 .5 9 .5 5.5-2.5 5.5-2.5"/></g><path d="m515 469l1-4v-2-2-2-2-2-2-2.5-2.5-2-2-2.5-2.5-3-3h-.5-.5v1.5 1.5 1.5 1.5 2 2 1 1 1.5 1.5 2 2 1 1 1.5 1.5 2 2 1 1 1.5 1.5 1.5 1.5" style="fill:#8293a0;stroke:#8293a0"/><path d="m515 433h1l-7.5-.5-7.5-.5-1.5 2-1.5 2-6 2.5-6 2.5 1.5 14.5 1.5 14.5 5.5-3.5 5.5-3.5 2-1.5 2-1.5 3 5 3 5h2.5 2.5-.5-.5v-.5-.5h-.5-.5v-1.5-1.5-2-2-2-2-2.5-2.5-2-2l-.5-2-.5-2-.5-1.5-.5-1.5 1.5-.5 1.5-.5v-1.5-1.5l.5-2.5.5-2.5" style="fill:#6a7d4f;stroke:#6a7d4f"/><path d="m515 178l-20 2-11 2-11 2-8.5 1-8.5 1-11-2-11-2h-11.5-11.5l-9.5-3.5-9.5-3.5 2.5 2 2.5 2 9.5 2.5 9.5 2.5 11.5.5 11.5.5 9.5 2 9.5 2 8.5-2 8.5-2 19-3 19-3 1-.5 1-.5" style="fill:#d9dcb0;stroke:#d9dcb0"/><path d="m514 470h1v-.5-.5-1.5-1.5-1.5-1.5-1-1-2-2-1.5-1.5-1-1-2-2-1.5-1.5-1-1-2-2-1.5-1.5-1.5-1.5l-.5 2.5-.5 2.5v1.5 1.5 1.5 1.5 1.5 1.5 2 2 1 1 1.5 1.5 2 2 1 1 1.5 1.5 2 2 .5.5" style="fill:#5c6e8e;stroke:#5c6e8e"/><path d="m514 409l-1-23-3.5 8-3.5 8 3 8 3 8 1-4.5 1-4.5" style="fill:#374a53;stroke:#374a53"/><path d="m514 180l1-1h-1-1l-19 3-19 3-8.5 2-8.5 2-9.5-2-9.5-2-11.5-.5-11.5-.5h-2.5-2.5l1 1 1 1h2 2l.5 1.5.5 1.5v.5.5l1.5.5 1.5.5h2 2 2.5 2.5 2 2 1.5 1.5l-1-1-1-1h-1-1l1-.5 1-.5.5-.5.5-.5h1 1 1 1 1.5 1.5 1 1l.5.5.5.5.5.5.5.5-1 .5-1 .5-2 .5-2 .5v.5.5h3 3l2 .5 2 .5 2 1 2 1 11.5-2 11.5-2 10-2.5 10-2.5 8-3 8-3" style="fill:#97a56d;stroke:#97a56d"/><path d="m514 68v-3l-1.5-.5-1.5-.5-1-1-1-1-1.5-1-1.5-1 .5-.5.5-.5-.5-1-.5-1-1 1-1 1-1 .5-1 .5 3 7 3 7 3-3 3-3" style="fill:#b3bb93;stroke:#b3bb93"/><path d="m513 469h1v-2-2-1.5-1.5-1-1-2-2-1.5-1.5-1-1-2-2-1.5-1.5-1.5-1.5l-1.5.5-1.5.5.5 1.5.5 1.5.5 2 .5 2v2 2 2.5 2.5 2 2 2 2 1.5 1.5" style="fill:#374a53;stroke:#374a53"/><path d="m512 409l-3-19 .5 11 .5 11 1-1.5 1-1.5" style="fill:#b3bb93;stroke:#b3bb93"/><path d="m512 159l1-1-1-.5-1-.5-.5-1-.5-1-.5 2-.5 2-8.5 3-8.5 3-6.5-5.5-6.5-5.5-.5-1.5-.5-1.5-.5-2-.5-2-.5-2-.5-2 3.5 9.5 3.5 9.5 9 3 9 3 1-.5 1-.5 1.5-.5 1.5-.5 1.5-1 1.5-1 1-1 1-1 .5-1.5.5-1.5" style="fill:#f55566;stroke:#f55566"/><path d="m511 405l1-3v-2-2l-.5-2-.5-2-1-1-1-1v2.5 2.5 2 2 2.5 2.5 2 2h1 1v-2.5-2.5" style="fill:#d9dcb0;stroke:#d9dcb0"/><path d="m510 374l1-1h-2-2-1-1-1-1-1.5-1.5-1-1-1-1-1-1-1.5-1.5-1-1-1-1l-1.5-.5-1.5-.5h-2-2-1.5-1.5v.5.5l.5.5.5.5h2 2 1 1 1 1 1.5 1.5 1 1 1 1 1 1 1.5 1.5 1 1 1 1 1 1 1.5 1.5 1.5 1.5" style="fill:#b3bb93;stroke:#b3bb93"/><path d="m510 147l-10-14-6.5 1.5-6.5 1.5-1.5 1-1.5 1 .5 2 .5 2-.5 1.5-.5 1.5-1 1.5-1 1.5.5 1.5.5 1.5 1 1 1 1-.5-2-.5-2 .5-1.5.5-1.5 1-1 1-1 1.5-1 1.5-1 2-1 2-1 1-.5 1-.5 2-.5 2-.5 1.5.5 1.5.5 1.5.5 1.5.5 1 1.5 1 1.5 1 1 1 1v1 1" style="fill:#f28569;stroke:#f28569"/><path d="m509 459l-1-3 .5 2 .5 2v-.5-.5" style="fill:#374a53;stroke:#374a53"/><path d="m509 159l1-4-.5 1-.5 1h-1-1l-.5 1-.5 1-.5.5-.5.5-.5.5-.5.5h-1-1l-1 .5-1 .5h-1-1-1-1-1-1-1.5-1.5l-.5-.5-.5-.5h-1-1l-.5-.5-.5-.5-.5-.5-.5-.5-1-.5-1-.5-.5-.5-.5-.5-.5-.5-.5-.5-.5-.5-.5-.5-1-.5-1-.5 6.5 5.5 6.5 5.5 8.5-3 8.5-3" style="fill:#f28569;stroke:#f28569"/><path d="m507 150l1-3-.5-1.5-.5-1.5-1-1.5-1-1.5-1.5-.5-1.5-.5h-2.5-2.5-1.5-1.5l-.5 1-.5 1-1 .5-1 .5-1 1-1 1-.5.5-.5.5v1 1 1 1l.5 1 .5 1 .5.5.5.5h1 1l.5.5.5.5.5 1 .5 1 1.5-.5 1.5-.5h2.5 2.5l1-1 1-1 1.5-1 1.5-1v-.5-.5" style="fill:#8e0c36;stroke:#8e0c36"/><path d="m505 446l-2-10-.5 11-.5 11 .5-1.5.5-1.5 1-4.5 1-4.5" style="fill:#374a53;stroke:#374a53"/><path d="m504 106v-2l-1.5-.5-1.5-.5h-1-1l.5 1 .5 1-.5.5-.5.5v1 1l-1 .5-1 .5 1 1 1 1v1 1l-.5 1-.5 1v1 1l-.5.5-.5.5v1 1l-.5.5-.5.5-.5 1-.5 1v2 2l3 .5 3 .5h1 1l-2-.5-2-.5-1-1-1-1 .5-2 .5-2 .5-1.5.5-1.5 1-1 1-1 .5-2 .5-2 .5-1.5.5-1.5.5-1.5.5-1.5" style="fill:#e3184a;stroke:#e3184a"/><path d="m502 389l-11 1-.5 13-.5 13 5.5-2.5 5.5-2.5.5-5 .5-5v-6-6" style="fill:#8293a0;stroke:#8293a0"/><path d="m501 327l-9-5-2 .5-2 .5-6 1-6 1-.5 11-.5 11-5-1-5-1-2-9.5-2-9.5-7-1-7-1-4 9.5-4 9.5-7.5 3.5-7.5 3.5-5.5-4-5.5-4 6.5-6.5 6.5-6.5v-4.5-4.5l-8.5 2.5-8.5 2.5 8.5-1.5 8.5-1.5-2 2.5-2 2.5-5.5 6.5-5.5 6.5 3 7 3 7h8 8l-10.5 1.5-10.5 1.5-1.5-16-1.5-16-3 10.5-3 10.5 4 7.5 4 7.5 11-2 11-2 10-1.5 10-1.5 9.5 2 9.5 2 6-6 6-6 5 5.5 5 5.5 3-10 3-10 .5-5 .5-5" style="fill:#4a0a31;stroke:#4a0a31"/><path d="m500 389l-7 7 1.5 10 1.5 10-.5-6.5-.5-6.5-.5-6-.5-6 3-1 3-1" style="fill:#374a53;stroke:#374a53"/><path d="m500 169l1-1-9-3-9-3-3.5-9.5-3.5-9.5 2.5 10 2.5 10 8.5 3 8.5 3h1 1" style="fill:#e3184a;stroke:#e3184a"/><path d="m500 129l1-1-3-.5-3-.5v-2-2l-1-1-1-1v-1.5-1.5l.5-2 .5-2-1 1-1 1-.5 1.5-.5 1.5-.5 1.5-.5 1.5v2.5 2.5l1 1 1 1h2.5 2.5 1.5 1.5" style="fill:#f28569;stroke:#f28569"/><path d="m499 326l-5 5-3-1.5-3-1.5-5.5-1.5-5.5-1.5v11.5 11.5l1.5 2.5 1.5 2.5 3.5-6 3.5-6 4.5 5.5 4.5 5.5 1.5-12 1.5-12v-1-1" style="fill:#8e0c36;stroke:#8e0c36"/><path d="m499 113v-2l-1-1-1-1-1 .5-1 .5-.5 2-.5 2-.5 2-.5 2v1.5 1.5l1 1 1 1 .5-1 .5-1 .5-.5.5-.5v-1-1l.5-.5.5-.5v-1-1l.5-1 .5-1" style="fill:#f55566;stroke:#f55566"/><path d="m497 453l-5-15-2.5 6-2.5 6 2 6 2 6-1-9.5-1-9.5 3.5 6.5 3.5 6.5.5-1.5.5-1.5" style="fill:#374a53;stroke:#374a53"/><path d="m496 62v-2l-.5-1.5-.5-1.5-2 .5-2 .5h-2-2v1.5 1.5l-1.5-.5-1.5-.5-.5-1-.5-1-.5.5-.5.5v1.5 1.5l4.5 7.5 4.5 7.5 2.5-7.5 2.5-7.5" style="fill:#b3bb93;stroke:#b3bb93"/><path d="m495 371h1l-10.5-2-10.5-2h-13.5-13.5l-10.5-.5-10.5-.5-1 .5-1 .5 2 1 2 1h2 2v1 1l-10.5-.5-10.5-.5-12.5.5-12.5.5-11-.5-11-.5-.5.5-.5.5-.5.5-.5.5v.5.5h2.5 2.5 2 2 2 2 2.5 2.5l1.5-.5 1.5-.5h2.5 2.5 1 1l2 .5 2 .5h3 3 2 2 2 2 2 2 1.5 1.5l11-1 11-1 19.5.5 19.5.5h1.5 1.5 2 2 2 2 1.5 1.5 1.5 1.5l.5-.5.5-.5" style="fill:#16542c;stroke:#16542c"/><path d="m495 227l1-3v-.5-.5h-.5-.5l-1 1-1 1-.5.5-.5.5-1.5-.5-1.5-.5-2 .5-2 .5h-2-2l-2 .5-2 .5-2 1-2 1-.5 1-.5 1-1.5 11-1.5 11-2.5 16.5-2.5 16.5 1 1 1 1h-1.5-1.5l-1.5.5-1.5.5-.5-1.5-.5-1.5v-12-12l.5-10 .5-10-11-11.5-11-11.5 5.5 5.5 5.5 5.5 3.5 7 3.5 7-.5 12.5-.5 12.5v12.5 12.5l8-3 8-3 1-10.5 1-10.5.5-12.5.5-12.5 5-6.5 5-6.5 5.5-1 5.5-1" style="fill:#e3184a;stroke:#e3184a"/><path d="m495 223h1v-1.5-1.5-1-1h-.5-.5l-1.5-1-1.5-1-.5.5-.5.5h-1.5-1.5-1-1-1.5-1.5-1-1-1-1-1-1-1.5-1.5-1-1-1-1-1.5-1.5l.5 1 .5 1-1 1.5-1 1.5.5 2 .5 2-1 1-1 1v2.5 2.5 2 2 3 3l.5 2 .5 2 .5-2.5.5-2.5-.5-2-.5-2v-2-2l1.5-1 1.5-1 .5-1.5.5-1.5v-2-2-.5-.5l-.5-1-.5-1 1-1 1-1h2 2 2.5 2.5 2 2l2.5.5 2.5.5.5 1 .5 1 1.5 1 1.5 1 1-1 1-1" style="fill:#f4b48b;stroke:#f4b48b"/><path d="m495 218h1l-10.5-2-10.5-2-13 .5-13 .5-1.5.5-1.5.5h2 2 2.5 2.5 2 2 2 2 2.5 2.5 2 2 2.5 2.5 2 2 2.5 2.5 3 3l1.5 1 1.5 1" style="fill:#e3184a;stroke:#e3184a"/><path d="m493 454l1-3v-2-2l-.5-2-.5-2-.5-.5-.5-.5-.5 2-.5 2-.5 1.5-.5 1.5v2.5 2.5l.5 1.5.5 1.5v2 2l1-1.5 1-1.5v-2-2" style="fill:#d9dcb0;stroke:#d9dcb0"/><path d="m493 156h1l-.5-1-.5-1-.5-.5-.5-.5h-1-1l-.5-.5-.5-.5-.5-1-.5-1v-1-1-1-1l.5-.5.5-.5 1-1 1-1 1-.5 1-.5.5-1 .5-1-2 1-2 1-1.5 1-1.5 1-.5 1.5-.5 1.5v2 2l1 1.5 1 1.5 1.5.5 1.5.5 1 .5 1 .5" style="fill:#e3184a;stroke:#e3184a"/><path d="m492 226l1-1-1.5-1-1.5-1-.5-1-.5-1-.5 1-.5 1-1.5.5-1.5.5h-2.5-2.5-2-2-3-3v.5.5h1.5 1.5v1 1 1 1l2-1 2-1 2-.5 2-.5h2 2l2-.5 2-.5 1.5.5 1.5.5" style="fill:#f55566;stroke:#f55566"/><path d="m492 132v-2h-1-1l-2 .5-2 .5h-1-1l-1 1.5-1 1.5-.5 1.5-.5 1.5-.5 2-.5 2 .5-.5.5-.5 1-1 1-1h.5.5l1.5-1 1.5-1 1-.5 1-.5 1.5-1 1.5-1v-.5-.5" style="fill:#d9dcb0;stroke:#d9dcb0"/><path d="m491 217l1-1h-3-3-2.5-2.5-2-2-2.5-2.5-2-2-2.5-2.5-2-2-2-2v.5.5h1.5 1.5 3 3 1.5 1.5 1.5 1.5 1 1 1 1 1.5 1.5 1 1 1 1 1 1 1.5 1.5 1 1 1.5 1.5" style="fill:#f28569;stroke:#f28569"/><path d="m488 415l1-21-6-3.5-6-3.5-.5 12.5-.5 12.5 6 2.5 6 2.5v-1-1" style="fill:#8293a0;stroke:#8293a0"/><path d="m488 223l1-2-2.5-.5-2.5-.5h-2-2-2.5-2.5-2-2l-1 1-1 1 .5 1 .5 1h3 3 2 2 2.5 2.5l1.5-.5 1.5-.5" style="fill:#e3184a;stroke:#e3184a"/><path d="m487 408v-2l-.5-1.5-.5-1.5v-2.5-2.5h-1-1l-1 .5-1 .5 1 .5 1 .5v1.5 1.5l.5.5.5.5.5 1 .5 1-.5 2-.5 2-.5 1-.5 1-1.5.5-1.5.5 1.5 1 1.5 1-1 1.5-1 1.5h-2-2l2 .5 2 .5 1.5-.5 1.5-.5 1-1.5 1-1.5v-2-2-1.5-1.5" style="fill:#374a53;stroke:#374a53"/><path d="m487 205l-18-2-13 .5-13 .5 8 2 8 2 10.5-1 10.5-1 3.5-.5 3.5-.5" style="fill:#e3184a;stroke:#e3184a"/><path d="m485 410l1-4-.5-1-.5-1-.5-.5-.5-.5v-1.5-1.5l-1-.5-1-.5-.5 1.5-.5 1.5v1 1l-.5 2-.5 2 .5 2.5.5 2.5 1.5-.5 1.5-.5.5-1 .5-1" style="fill:#d9dcb0;stroke:#d9dcb0"/><path d="m484 390l-5 7 1 8 1 8-.5-2.5-.5-2.5.5-2 .5-2v-1-1l.5-1.5.5-1.5-1-2-1-2 .5-2 .5-2 1.5-.5 1.5-.5" style="fill:#374a53;stroke:#374a53"/><path d="m483 460l1-3v-2-2-2.5-2.5-2-2l-6-3.5-6-3.5-4-2.5-4-2.5-3.5 9-3.5 9 2 8 2 8 .5 1 .5 1h4 4l5.5-.5 5.5-.5-.5-1-.5-1-1-1-1-1-3-7-3-7 3-6.5 3-6.5 2 9 2 9v3 3l-.5 2-.5 2v1.5 1.5l1-1.5 1-1.5v-2-2" style="fill:#6a7d4f;stroke:#6a7d4f"/><path d="m483 179h1l-10.5-3.5-10.5-3.5-8 4.5-8 4.5 1 .5 1 .5 1.5.5 1.5.5h1.5 1.5l.5.5.5.5 1.5.5 1.5.5h1.5 1.5 1 1l.5-.5.5-.5h1 1l1.5-.5 1.5-.5 1-.5 1-.5.5-.5.5-.5 1.5-.5 1.5-.5h1.5 1.5l.5-.5.5-.5h1.5 1.5" style="fill:#0a061e;stroke:#0a061e"/><path d="m483 49h1l-1-.5-1-.5-1.5-.5-1.5-.5-2-.5-2-.5-1-1-1-1-1.5 1-1.5 1-1.5.5-1.5.5-1.5 1-1.5 1-1 1-1 1-2 1-2 1h1.5 1.5l1.5-.5 1.5-.5 1-.5 1-.5.5-.5.5-.5h1 1l.5-.5.5-.5 1-.5 1-.5.5-.5.5-.5h1 1l.5.5.5.5h1.5 1.5l.5.5.5.5h1.5 1.5" style="fill:#16542c;stroke:#16542c"/><path d="m482 454l-4-18-3 6.5-3 6.5 3 7 3 7-1.5-10.5-1.5-10.5 2.5 7.5 2.5 7.5-.5 2-.5 2-.5 1-.5 1 1 1 1 1 .5 1 .5 1v-1.5-1.5l.5-2 .5-2v-3-3" style="fill:#374a53;stroke:#374a53"/><path d="m482 59l1-1-2.5.5-2.5.5-2-.5-2-.5-.5 1.5-.5 1.5v1 1h1.5 1.5l.5 1 .5 1v1 1l-5 6-5 6-1.5-6-1.5-6 4 1.5 4 1.5-5-5.5-5-5.5-7.5.5-7.5.5h1 1l2-.5 2-.5 1 1 1 1 1 1.5 1 1.5 1 1 1 1v2 2l-.5 2-.5 2v2 2l-1 .5-1 .5-.5.5-.5.5h-1-1l-.5.5-.5.5h-1-1l-1-.5-1-.5-.5.5-.5.5-.5-.5-.5-.5-.5-.5-.5-.5-.5 1-.5 1 8-2 8-2 1-5.5 1-5.5 5.5 8 5.5 8 3-9 3-9 1.5-1 1.5-1v-1.5-1.5" style="fill:#f28569;stroke:#f28569"/><path d="m482 51l1-2h-1.5-1.5l-.5-.5-.5-.5h-1.5-1.5l-.5-.5-.5-.5h-1-1l-.5.5-.5.5-1 .5-1 .5-.5.5-.5.5h-1-1l-.5.5-.5.5-1 .5-1 .5 1 .5 1 .5h1.5 1.5 1 1 1 1 1 1l1.5-.5 1.5-.5 2-.5 2-.5" style="fill:#0a061e;stroke:#0a061e"/><path d="m480 457l-5-15 1.5 10.5 1.5 10.5.5-1 .5-1 .5-2 .5-2" style="fill:#b3bb93;stroke:#b3bb93"/><path d="m477 374h1l-.5-.5-.5-.5h-.5-.5-13-13-17-17-1.5-1.5-2-2-2-2-2-2l-.5.5-.5.5h-1.5-1.5-1.5-1.5-2-2-1-1-1.5-1.5-2-2-1-1-1-1-1-1-1.5-1.5-1-1-1-1-1-1-1.5-1.5-2-2l-1-.5-1-.5h-1.5-1.5-2.5-2.5-2-2-2.5-2.5l-1.5.5-1.5.5h2.5 2.5 1 1 1 1 1 1l.5.5.5.5h-1.5-1.5-2-2-2.5-2.5-2-2-2.5-2.5-2-2-2-2-2.5-2.5l-1.5-.5-1.5-.5-13 .5-13 .5-5 8.5-5 8.5-1.5 11.5-1.5 11.5-1 10.5-1 10.5-2 11-2 11 1.5 10 1.5 10h1 1l2-.5 2-.5h1 1 1 1 1 1 1 1 1.5 1.5 1 1 1 1 1 1 1 1 1.5 1.5 2 2l-12-.5-12-.5-4.5-6.5-4.5-6.5 1.5-10.5 1.5-10.5 1.5-9.5 1.5-9.5 3-22 3-22 12-1 12-1 11-.5 11-.5h13 13l11-.5 11-.5h13 13 13.5 13.5l12.5-.5 12.5-.5h12 12" style="fill:#8293a0;stroke:#8293a0"/><path d="m477 67v-2l-.5-1-.5-1h-1.5-1.5v1.5 1.5 2 2h-.5-.5l-4-1.5-4-1.5 1.5 6 1.5 6 5-6 5-6" style="fill:#b3bb93;stroke:#b3bb93"/><path d="m476 479h1v-.5-.5h-1.5-1.5-2-2-2.5-2.5-2-2-2.5-2.5-2-2-2.5-2.5-2-2-1.5-1.5v.5.5h2 2 1 1 1 1 1 1 1.5 1.5 1 1 1 1 1 1 1.5 1.5 1 1 1 1 1 1 2 2 2 2" style="fill:#97a56d;stroke:#97a56d"/><path d="m476 373h1v-.5-.5l-19.5-.5-19.5-.5-11 1-11 1h17 17 13 13" style="fill:#374a53;stroke:#374a53"/><path d="m473 227v-2h-1.5-1.5v2 2l-.5 1.5-.5 1.5-1.5 1-1.5 1v2 2l.5 2 .5 2-.5 2.5-.5 2.5v2.5 2.5 1 1 1 1l-.5 1.5-.5 1.5v.5.5 1.5 1.5 1.5 1.5 1 1 1.5 1.5l-.5 2-.5 2v2 2 1.5 1.5l-.5 1.5-.5 1.5-1.5 1-1.5 1v-2-2-3-3l-.5 1.5-.5 1.5v3 3l.5 1.5.5 1.5 1.5-.5 1.5-.5h1.5 1.5l-1-1-1-1 1.5-11 1.5-11 3-17.5 3-17.5v-1-1" style="fill:#f28569;stroke:#f28569"/><path d="m472 231l1-2-3 17.5-3 17.5-1.5 11-1.5 11 2.5-16.5 2.5-16.5 1.5-11 1.5-11" style="fill:#f55566;stroke:#f55566"/><path d="m469 357l-7-13-2.5-11-2.5-11-6 6-6 6-3.5 8-3.5 8 8 1 8 1 7.5 2.5 7.5 2.5" style="fill:#8e0c36;stroke:#8e0c36"/><path d="m468 411v-24l-5.5 4-5.5 4-.5 12.5-.5 12.5 6-4.5 6-4.5" style="fill:#8293a0;stroke:#8293a0"/><path d="m468 219l-1-2h-1.5-1.5l-9.5 1-9.5 1 9 6.5 9 6.5-.5.5-.5.5v1.5 1.5l1-.5 1-.5-.5 1.5-.5 1.5v2 2 1.5 1.5 2 2 1.5 1.5l.5-1 .5-1v-2-2l.5-1.5.5-1.5v-3-3-2-2-2.5-2.5l1-1 1-1-.5-2-.5-2 1-1.5 1-1.5" style="fill:#d9dcb0;stroke:#d9dcb0"/><g style="fill:#374a53;stroke:#374a53"><path d="m467 448l-8-14 3 8.5 3 8.5v.5.5l1-.5 1-.5v-1.5-1.5"/><path d="m467 402l-3-15-2.5 2-2.5 2-.5 12.5-.5 12.5 3-.5 3-.5 1.5-6.5 1.5-6.5"/><path d="m466 464l1-3-.5-1.5-.5-1.5-.5-2-.5-2v-1-1l-3.5 6.5-3.5 6.5 1.5-5 1.5-5 2.5 4.5 2.5 4.5"/></g><path d="m466 402h1v-1.5-1.5l-.5-2-.5-2-.5-1.5-.5-1.5-.5-.5-.5-.5h-1-1l-.5.5-.5.5-.5 1-.5 1v1 1 1 1 1 1 1.5 1.5 2 2 1 1 1 1l.5.5.5.5h1.5 1.5l.5-.5.5-.5v-1-1l.5-.5.5-.5v-1.5-1.5-1.5-1.5" style="fill:#8293a0;stroke:#8293a0"/><path d="m466 395l1 4v1.5 1.5l-1.5-7.5-1.5-7.5-2.5 2-2.5 2-.5 12.5-.5 12.5 3-.5 3-.5 1.5-6.5 1.5-6.5h-.5-.5v1.5 1.5 1.5 1.5l-.5.5-.5.5v1 1l-.5.5-.5.5h-1.5-1.5l-.5-.5-.5-.5v-1-1-1-1-2-2-1.5-1.5-1-1-1-1-1-1l.5-1 .5-1 .5-.5.5-.5h1 1l.5.5.5.5.5 1.5.5 1.5" style="fill:#374a53;stroke:#374a53"/><path d="m465 447l1-3v-2-2l-2-.5-2-.5-.5 1.5-.5 1.5v2.5 2.5l1.5.5 1.5.5.5-.5.5-.5" style="fill:#b3bb93;stroke:#b3bb93"/><path d="m465 259l1-3v-1-1-1-1-2.5-2.5l-.5-2-.5-2-.5 1.5-.5 1.5v2 2l-.5 1-.5 1v.5.5 1.5 1.5 1 1 1 1 1 1 1.5 1.5 1 1 2 2l.5-1 .5-1v-1-1-1-1-1-1l.5-1.5.5-1.5v-.5-.5" style="fill:#f3e189;stroke:#f3e189"/><path d="m464 403l1-3v-2-2l-.5-2-.5-2-1 1-1 1v2.5 2.5l-.5 1.5-.5 1.5v2.5 2.5 2 2l1-1 1-1 .5-2 .5-2v-1-1" style="fill:#d9dcb0;stroke:#d9dcb0"/><g style="fill:#f4b48b;stroke:#f4b48b"><path d="m464 275l1-4v-1.5-1.5-1-1-1.5-1.5-1.5-1.5l-.5 1.5-.5 1.5v1 1 1 1 1 1l-.5 1-.5 1v1.5 1.5 1.5 1.5l-.5 2-.5 2-.5 1.5-.5 1.5v-2-2-2.5-2.5-2-2-3.5-3.5l-.5 2.5-.5 2.5v2 2 2 2 3 3 2 2l1.5-1 1.5-1 .5-1.5.5-1.5v-1.5-1.5-2-2"/><path d="m463 238l1-3-1 .5-1 .5v3 3 2 2l-.5 2-.5 2v2 2 1 1 1.5 1.5 1 1 1.5 1.5l.5-1 .5-1v-2-2l.5-2.5.5-2.5v-.5-.5-1.5-1.5-2-2-1.5-1.5-2-2"/><path d="m463 232l-18-13 9.5-1 9.5-1h-3-3-1.5-1.5-3-3-2-2-2.5-2.5l-.5 1.5-.5 1.5h2.5 2.5 2 2l1.5.5 1.5.5 2 .5 2 .5.5.5.5.5 1 .5 1 .5 1.5.5 1.5.5v1 1l.5.5.5.5v1 1 1.5 1.5l.5-.5.5-.5"/></g><path d="m462 281l1-4v-1.5-1.5-1.5-1.5-2-2-1-1-1.5-1.5-1-1-1-1-1-1-1.5-1.5l-.5 2.5-.5 2.5v2 2l-.5 1-.5 1v3.5 3.5 2 2 2.5 2.5 2 2l.5-1.5.5-1.5" style="fill:#d9dcb0;stroke:#d9dcb0"/><path d="m462 42l1-1-19.5 2.5-19.5 2.5-7-1-7-1 1 .5 1 .5 1 1 1 1h1.5 1.5l13 .5 13 .5 9.5-3 9.5-3" style="fill:#97a56d;stroke:#97a56d"/><path d="m461 250l1-4v-2-2-3-3-1.5-1.5h-.5-.5v-1.5-1.5l-1-1-1-1-1-1-1-1-1.5-.5-1.5-.5-1.5-2-1.5-2-1.5-.5-1.5-.5h-2-2-2.5-2.5l.5-1.5.5-1.5h2.5 2.5 2 2 3 3v-.5-.5h-2.5-2.5-2-2-2.5-2.5l-1.5 1-1.5 1v.5.5l11 11.5 11 11.5-.5 10-.5 10v12 12-3-3l.5-1.5.5-1.5v-2-2-2-2l.5-2.5.5-2.5v-1.5-1.5-1-1-1.5-1.5-1-1-2-2" style="fill:#f55566;stroke:#f55566"/><path d="m461 233h1v-1.5-1.5-1-1l-.5-.5-.5-.5v-1-1l-1.5-.5-1.5-.5-1-.5-1-.5-.5-.5-.5-.5-2-.5-2-.5 1.5 2 1.5 2 1.5.5 1.5.5 1 1 1 1 1 1 1 1v1.5 1.5" style="fill:#f28569;stroke:#f28569"/><path d="m459 159l-2-20-7.5-6-7.5-6 1.5-10.5 1.5-10.5-8 1.5-8 1.5-4.5 8.5-4.5 8.5-3.5 8-3.5 8-1 10-1 10 7.5 6 7.5 6 11-2 11-2 5.5-5.5 5.5-5.5" style="fill:#8e0c36;stroke:#8e0c36"/><path d="m458 74l1-4v-2-2l-1-1-1-1-1-1.5-1-1.5-1-1-1-1-2 .5-2 .5h-1-1l-.5 1.5-.5 1.5v2 2l-1.5 1-1.5 1v2 2l-.5 2-.5 2 .5 1.5.5 1.5.5.5.5.5.5-1 .5-1 .5.5.5.5.5.5.5.5.5-.5.5-.5 1 .5 1 .5h1 1l.5-.5.5-.5h1 1l.5-.5.5-.5 1-.5 1-.5v-2-2" style="fill:#b3bb93;stroke:#b3bb93"/><path d="m456 156l1-3v-2-2l-.5-2-.5-2-.5-1.5-.5-1.5-1-1.5-1-1.5-1-1-1-1-1.5-1-1.5-1-1-.5-1-.5 1 1 1 1 1 1.5 1 1.5 1 1 1 1 1 2 1 2 .5 1.5.5 1.5v1 1 1.5 1.5l-.5 1-.5 1-.5 1.5-.5 1.5-.5 1.5-.5 1.5-1 1-1 1-1 1.5-1 1.5 1.5-.5 1.5-.5 1-1.5 1-1.5 1-1 1-1 .5-2 .5-2" style="fill:#e3184a;stroke:#e3184a"/><path d="m455 390l-4 6-4-4.5-4-4.5-1 12-1 12h2.5 2.5l3.5 4.5 3.5 4.5 1-10.5 1-10.5v-4.5-4.5" style="fill:#b3bb93;stroke:#b3bb93"/><path d="m455 343l1-3-.5-1.5-.5-1.5-.5-2-.5-2-1.5.5-1.5.5-1 1.5-1 1.5-.5 1.5-.5 1.5.5 2 .5 2h2 2l1-.5 1-.5" style="fill:#4a0a31;stroke:#4a0a31"/><path d="m454 196h1v-.5-.5l-2-1-2-1-2-.5-2-.5h-3-3-.5-.5-1.5-1.5-1.5-1.5-1-1-1.5-1.5-2-2-2-2l2 .5 2 .5h2 2 2.5 2.5l1.5.5 1.5.5h2.5 2.5 2 2l2 .5 2 .5 1.5.5 1.5.5h.5.5" style="fill:#16542c;stroke:#16542c"/><path d="m454 155l1-2v-1.5-1.5-1-1l-.5-1.5-.5-1.5v1.5 1.5l-.5 2-.5 2v2 2l-1 1-1 1-.5-1-.5-1-1 1-1 1 .5 1.5.5 1.5-1 1.5-1 1.5-.5 1-.5 1h1 1l1-1.5 1-1.5 1-1 1-1 .5-1.5.5-1.5.5-1.5.5-1.5" style="fill:#f55566;stroke:#f55566"/><path d="m453 246l-16-14-.5-8-.5-8 8.5-2.5 8.5-2.5h-11-11l-11.5 1-11.5 1h-11.5-11.5l-11 .5-11 .5-12 .5-12 .5 5.5 3 5.5 3 2 7.5 2 7.5 6.5-3 6.5-3 6.5-5 6.5-5 9-2.5 9-2.5 9.5 3 9.5 3 5 6 5 6 3 6.5 3 6.5-.5 9-.5 9-3 8.5-3 8.5-4.5 8-4.5 8-6.5 4-6.5 4-9.5 1-9.5 1-9.5-3-9.5-3-3.5-8.5-3.5-8.5h-4.5-4.5l-3.5 6-3.5 6-7.5 3-7.5 3-3-8.5-3-8.5-5 3.5-5 3.5-4.5 6-4.5 6h-11.5-11.5l-1.5-10.5-1.5-10.5.5-11 .5-11 1.5-9.5 1.5-9.5 3-10 3-10-5 8-5 8-2 11-2 11-.5 11-.5 11 2 11 2 11 9 2.5 9 2.5 10.5-2.5 10.5-2.5 8-.5 8-.5 9.5-1.5 9.5-1.5 6.5 4 6.5 4 9 4 9 4 11-.5 11-.5 7-6 7-6 7-6.5 7-6.5 6.5-2.5 6.5-2.5 4.5 5 4.5 5v-13-13-11.5-11.5" style="fill:#4a0a31;stroke:#4a0a31"/><path d="m453 152l1-4v-1.5-1.5l-1-2-1-2-.5 1-.5 1 .5.5.5.5v1.5 1.5l-.5 2-.5 2-.5 1-.5 1-1.5 1-1.5 1-.5 1.5-.5 1.5-.5 1-.5 1-.5 1-.5 1-.5 1-.5 1-1 1-1 1h-2-2l-1.5.5-1.5.5h-1-1-1.5-1.5l-1.5-.5-1.5-.5h-1-1l-1-.5-1-.5-1-1-1-1-1-1.5-1-1.5-.5-1.5-.5-1.5-1-1.5-1-1.5.5 2 .5 2 .5 1.5.5 1.5 1 1.5 1 1.5 1 1 1 1 1.5 1 1.5 1 1.5.5 1.5.5 1 .5 1 .5h1.5 1.5 1.5 1.5 1 1l1-.5 1-.5 1.5-.5 1.5-.5.5-.5.5-.5 1.5-.5 1.5-.5.5-1 .5-1 1-1.5 1-1.5-.5-1.5-.5-1.5 1-1 1-1 .5 1 .5 1 1-1 1-1v-2-2" style="fill:#f28569;stroke:#f28569"/><path d="m453 70v-2l-1.5-.5-1.5-.5-.5 2-.5 2v2 2 1.5 1.5l1.5-.5 1.5-.5.5-2 .5-2v-1.5-1.5" style="fill:#6a7d4f;stroke:#6a7d4f"/><path d="m452 415v-12l-3.5-8-3.5-8 1 7 1 7 2.5 8 2.5 8v-1-1" style="fill:#374a53;stroke:#374a53"/><path d="m451 151l1-4v-1.5-1.5l-.5-.5-.5-.5.5-1 .5-1-1-1-1-1-1-1.5-1-1.5-1-1-1-1-1.5-1-1.5-1-1.5-.5-1.5-.5h-2-2l-1-1.5-1-1.5v-.5-.5l-.5 1-.5 1v1.5 1.5l-.5.5-.5.5-1.5-.5-1.5-.5-1 .5-1 .5 1 1.5 1 1.5 2-.5 2-.5h1.5 1.5l1 1 1 1 2-.5 2-.5 1.5.5 1.5.5 1 1.5 1 1.5.5 1.5.5 1.5v1 1 2.5 2.5l-.5 2-.5 2-1 1-1 1-.5.5-.5.5-1.5 1.5-1.5 1.5-1.5.5-1.5.5-1 .5-1 .5-1.5.5-1.5.5-1.5-.5-1.5-.5.5-.5.5-.5h-1.5-1.5v1 1l-.5-.5-.5-.5-1 .5-1 .5 1 .5 1 .5 2 .5 2 .5h2 2l1.5-1 1.5-1 1.5-.5 1.5-.5 2-1 2-1 .5-1 .5-1 .5-1.5.5-1.5 1.5-1 1.5-1 .5-1 .5-1" style="fill:#f3e189;stroke:#f3e189"/><path d="m450 450l1-4-.5-1-.5-1v-1-1-2-2l-.5-1.5-.5-1.5-1-1.5-1-1.5h-2-2-2.5-2.5v2 2l-.5 2-.5 2v1.5 1.5 2 2 2 2l-.5 1.5-.5 1.5v-2.5-2.5l-.5-1.5-.5-1.5h-1-1-1-1l-.5-1-.5-1 .5-1.5.5-1.5 3-.5 3-.5v-2-2l-.5-2-.5-2h-2-2-2-2l-1.5 1-1.5 1v2 2 3 3 1.5 1.5 2 2l-.5 1.5-.5 1.5-.5 2-.5 2-1-1-1-1-1.5 2-1.5 2 13 5 13 5 3-7 3-7v-3-3" style="fill:#8293a0;stroke:#8293a0"/><path d="m448 145v-2l-.5-1.5-.5-1.5-1-1.5-1-1.5-1.5-.5-1.5-.5-2 .5-2 .5-1-1-1-1h-1.5-1.5l-2 .5-2 .5h-.5-.5l-1 1-1 1-1.5.5-1.5.5-1 1.5-1 1.5.5.5.5.5 6.5-2 6.5-2 5.5 4.5 5.5 4.5-.5 2-.5 2-.5 1-.5 1 .5 1 .5 1 1-1 1-1 .5-2 .5-2v-2.5-2.5" style="fill:#f4b48b;stroke:#f4b48b"/><path d="m447 460l1-3v-2-2-2.5-2.5-2-2-2.5-2.5l-.5-1.5-.5-1.5-1.5-1-1.5-1-.5.5-.5.5 1.5.5 1.5.5v1.5 1.5l-.5.5-.5.5.5 2 .5 2 .5.5.5.5v1.5 1.5 2 2l-.5 1.5-.5 1.5v1.5 1.5l-.5 1.5-.5 1.5-1 1-1 1 1 1 1 1h.5.5l.5-1.5.5-1.5v-1-1" style="fill:#374a53;stroke:#374a53"/><path d="m447 189l-1-1-.5-.5-.5-.5h-1-1-1.5-1.5-1-1-1-1l-.5.5-.5.5-1 .5-1 .5h1 1l1 1 1 1h2 2l2-.5 2-.5 1-.5 1-.5" style="fill:#14852f;stroke:#14852f"/><path d="m447 167l1-1h-1-1l-1.5.5-1.5.5-.5.5-.5.5-1.5.5-1.5.5-1 .5-1 .5h-1-1-1.5-1.5-1.5-1.5-2.5-2.5l2 .5 2 .5 1.5.5 1.5.5h2.5 2.5l1.5-.5 1.5-.5 2-.5 2-.5 1.5-.5 1.5-.5.5-1 .5-1" style="fill:#e3184a;stroke:#e3184a"/><path d="m446 455l1-3v-2-2-1.5-1.5l-.5-.5-.5-.5-.5-2-.5-2h-.5-.5l-1 .5-1 .5-.5.5-.5.5v1 1 1 1 1.5 1.5 1 1l-.5.5-.5.5v1 1 1 1 1.5 1.5 1 1l.5.5.5.5 1 .5 1 .5 1-1 1-1 .5-1.5.5-1.5v-1.5-1.5" style="fill:#b3bb93;stroke:#b3bb93"/><path d="m446 148l-11-9-6.5 2-6.5 2 1 1 1 1-1 1-1 1v1 1l-.5 1-.5 1 .5 1.5.5 1.5v1 1l1 .5 1 .5.5 1 .5 1 1-.5 1-.5-1-1.5-1-1.5v-1-1-1-1l.5-.5.5-.5v-1-1l.5-1 .5-1 1-.5 1-.5 2-1 2-1h2 2l2 .5 2 .5 1 1 1 1 1 1 1 1v2 2l.5-2 .5-2" style="fill:#f28569;stroke:#f28569"/><path d="m444 440h1l-3 5.5-3 5.5 2 6 2 6-1-.5-1-.5-.5-.5-.5-.5v-1-1-1.5-1.5-1-1-1-1l.5-.5.5-.5v-1-1-1.5-1.5-1-1-1-1l.5-.5.5-.5 1-.5 1-.5" style="fill:#374a53;stroke:#374a53"/><path d="m444 162l1-2-2 1-2 1-1.5.5-1.5.5-1.5 1-1.5 1h-2-2l-2-.5-2-.5-1-.5-1-.5-1-.5-1-.5-2-2-2-2-1-.5-1-.5.5 1.5.5 1.5 1 1.5 1 1.5 1 1 1 1 1 .5 1 .5h1 1l1.5.5 1.5.5h1.5 1.5 1 1l1.5-.5 1.5-.5h2 2l1-1 1-1 .5-1 .5-1" style="fill:#f4b48b;stroke:#f4b48b"/><path d="m444 157l1-1-.5-1-.5-1 .5-1 .5-1v-2-2l-1-1-1-1-1-1-1-1-2-.5-2-.5h-2-2l-2 1-2 1h1.5 1.5l1.5-.5 1.5-.5h2 2l1.5 1 1.5 1 .5 1.5.5 1.5-.5 2-.5 2-.5 1.5-.5 1.5-1.5 1-1.5 1-1.5.5-1.5.5h-2-2l-2-.5-2-.5-1 .5-1 .5-.5.5-.5.5-.5 1-.5 1 1 .5 1 .5 1-.5 1-.5.5.5.5.5v-1-1h1.5 1.5l-.5.5-.5.5 1.5.5 1.5.5 1.5-.5 1.5-.5 1-.5 1-.5 1.5-.5 1.5-.5 1.5-1.5 1.5-1.5" style="fill:#f55566;stroke:#f55566"/><path d="m442 153l1-4-.5-1.5-.5-1.5-1.5-1-1.5-1h-2-2l-1.5.5-1.5.5h-1.5-1.5l-1 .5-1 .5-.5 1-.5 1v1 1l-.5.5-.5.5v1 1 1 1l1 1.5 1 1.5 2 .5 2 .5h2 2l1.5-.5 1.5-.5 1.5-1 1.5-1 .5-1.5.5-1.5" style="fill:#8e0c36;stroke:#8e0c36"/><path d="m442 112h-12l-4.5 9-4.5 9-4 9-4 9 1 8.5 1 8.5 4.5 2.5 4.5 2.5h2.5 2.5l-1-.5-1-.5-1.5-.5-1.5-.5-1.5-1-1.5-1-1-1-1-1-1-1.5-1-1.5-.5-1.5-.5-1.5-.5-2-.5-2 1 1.5 1 1.5 1 .5 1 .5-.5-1-.5-1v-1-1l-.5-1.5-.5-1.5-.5-2-.5-2 .5-1.5.5-1.5.5-1.5.5-1.5 1-1.5 1-1.5.5-1.5.5-1.5 1-1.5 1-1.5.5.5.5.5 1.5-.5 1.5-.5v-1.5-1.5-1-1l-1-.5-1-.5.5-1.5.5-1.5.5-.5.5-.5h.5.5 1 1l1-2.5 1-2.5 1-1 1-1 .5-2 .5-2 .5 1.5.5 1.5v1 1l-1 .5-1 .5-.5.5-.5.5v1 1l.5 1 .5 1v1 1 1.5 1.5l.5-1 .5-1 1-1.5 1-1.5.5-1.5.5-1.5 1-1.5 1-1.5.5-1.5.5-1.5.5-.5.5-.5" style="fill:#f55566;stroke:#f55566"/><path d="m441 72l1-3v-1-1l-.5-.5-.5-.5-.5-.5-.5-.5-1-1-1-1 .5 1 .5 1v1 1 1.5 1.5 1.5 1.5 2 2 2 2h-1-1l-.5-.5-.5-.5-1.5.5-1.5.5.5 1 .5 1 2 .5 2 .5 1-1 1-1v-1.5-1.5l.5-.5.5-.5v-1.5-1.5-1.5-1.5" style="fill:#f28569;stroke:#f28569"/><path d="m440 396l-4-4-2 7.5-2 7.5-.5-11.5-.5-11.5-2 9.5-2 9.5 4 9 4 9 2.5-9 2.5-9v-3.5-3.5" style="fill:#b3bb93;stroke:#b3bb93"/><g style="fill:#6a7d4f;stroke:#6a7d4f"><path d="m440 192h1v-.5-.5h-2-2-1.5-1.5-2-2-2.5-2.5-2-2l-1.5-.5-1.5-.5v-.5-.5l-.5-1.5-.5-1.5h-2-2v1.5 1.5l1 .5 1 .5 1.5.5 1.5.5 1 .5 1 .5h.5.5 2 2 2 2 1.5 1.5 1 1 1.5 1.5 1.5 1.5"/><path d="m439 479h1v-.5-.5h-3-3-2.5-2.5-2-2-2.5-2.5-2-2-2.5-2.5-2-2-3-3-.5-.5-2.5-2.5-2.5-2.5-2-2-2.5-2.5-2-2-2-2-1-1-1.5-1.5-2-2-1.5-1.5l14.5.5 14.5.5h12.5 12.5 12 12"/></g><path d="m439 73v-3-1.5-1.5-1-1l-.5-1-.5-1h-.5-.5l-1-.5-1-.5-.5.5-.5.5.5 1 .5 1h-2-2l-.5.5-.5.5-1-.5-1-.5-1-1-1-1v2 2 1 1l.5 1 .5 1v1 1 1 1 1 1 1.5 1.5h1 1l.5-.5.5-.5h1 1l.5 1 .5 1 1.5-.5 1.5-.5.5.5.5.5h1 1v-2-2-2-2" style="fill:#b3bb93;stroke:#b3bb93"/><path d="m437 411l-3 1-2.5-6-2.5-6 3 9 3 9 1-3.5 1-3.5" style="fill:#374a53;stroke:#374a53"/><path d="m437 63h1l-.5-1-.5-1-.5-.5-.5-.5h-1-1-1.5-1.5-1.5-1.5l-1 .5-1 .5v1 1l1 1 1 1 1 .5 1 .5.5-.5.5-.5h2 2l-.5-1-.5-1 .5-.5.5-.5 1 .5 1 .5" style="fill:#97a56d;stroke:#97a56d"/><path d="m436 454l1-3v-2-2-2-2-1.5-1.5l-3 .5-3 .5-.5 1.5-.5 1.5.5 1 .5 1h1 1 1 1l.5 1.5.5 1.5v2.5 2.5" style="fill:#d9dcb0;stroke:#d9dcb0"/><path d="m436 116v-2l-.5-1.5-.5-1.5-.5 2-.5 2-1 1-1 1-1 2.5-1 2.5-.5 1.5-.5 1.5v1.5 1.5l.5.5.5.5.5.5.5.5 1 1 1 1v-1.5-1.5l.5-1 .5-1v-1.5-1.5-1-1l-.5-1-.5-1v-1-1l.5-.5.5-.5 1-.5 1-.5" style="fill:#f28569;stroke:#f28569"/><path d="m434 439l1-3-1-1-1-1h-2.5-2.5l-.5 1.5-.5 1.5v2.5 2.5 2 2l1 1.5 1 1.5h2 2l-.5 1.5-.5 1.5-1.5.5-1.5.5h2.5 2.5v-2.5-2.5h-2-2l-1-1.5-1-1.5v-2-2l1.5-1 1.5-1h1.5 1.5" style="fill:#374a53;stroke:#374a53"/><path d="m434 57v-2l-1.5.5-1.5.5-2-.5-2-.5-.5 1-.5 1-.5.5-.5.5-1 1-1 1-1 1-1 1-1 1.5-1 1.5v2 2l-1 1-1 1v2.5 2.5l-.5 1.5-.5 1.5.5 2 .5 2 .5 1.5.5 1.5v1.5 1.5h1.5 1.5 2.5 2.5l-.5-1-.5-1-1.5-1-1.5-1-.5-1.5-.5-1.5v-1.5-1.5-2-2-2-2l1-1.5 1-1.5v-2-2l1.5-1.5 1.5-1.5 1-.5 1-.5 1.5-1 1.5-1 1.5-.5 1.5-.5" style="fill:#4a0a31;stroke:#4a0a31"/><g style="fill:#374a53;stroke:#374a53"><path d="m433 469l1-3-.5-1.5-.5-1.5-2-.5-2-.5-1-1-1-1 .5-2 .5-2 .5-1.5.5-1.5v5.5 5.5l2 2.5 2 2.5"/><path d="m433 371v-2h-2-2l-2-1-2-1-10-.5-10-.5-9 .5-9 .5h-10-10l-1 1.5-1 1.5 11 .5 11 .5 12.5-.5 12.5-.5 10.5.5 10.5.5"/></g><path d="m433 354h-16l-3-7-3-7 5.5-6.5 5.5-6.5 2-2.5 2-2.5-8.5 1.5-8.5 1.5 1.5 16 1.5 16 10.5-1.5 10.5-1.5" style="fill:#8e0c36;stroke:#8e0c36"/><path d="m432 133l1-1-1-1-1-1-.5-.5-.5-.5-.5-.5-.5-.5v-1.5-1.5l.5-1.5.5-1.5h-1-1-.5-.5l-.5.5-.5.5-.5 1.5-.5 1.5 1 .5 1 .5v1 1 1.5 1.5.5.5l1-.5 1-.5 1.5.5 1.5.5" style="fill:#f4b48b;stroke:#f4b48b"/><path d="m432 81h1l-.5-1-.5-1h-1-1l-.5.5-.5.5h-1-1v-1.5-1.5-1-1-1-1-1-1l-.5-1-.5-1v-1-1-2-2l-.5 1-.5 1v2 2l-.5 1.5-.5 1.5v2.5 2.5 2 2l.5 1 .5 1 .5-.5.5-.5 1 1 1 1 1 .5 1 .5.5-.5.5-.5.5-1.5.5-1.5" style="fill:#f55566;stroke:#f55566"/><path d="m430 104l1-1-15 1-15 1-4 7.5-4 7.5-3.5 9-3.5 9-1.5 10.5-1.5 10.5 9 8.5 9 8.5 10.5 1.5 10.5 1.5-8.5-11-8.5-11 3-10 3-10 4-9.5 4-9.5 5.5-7 5.5-7" style="fill:#0a061e;stroke:#0a061e"/><path d="m428 136h1l-1-1.5-1-1.5v-.5-.5l-1.5.5-1.5.5-.5-.5-.5-.5-1 1.5-1 1.5-.5 1.5-.5 1.5-1 1.5-1 1.5-.5 1.5-.5 1.5-.5 1.5-.5 1.5.5 2 .5 2v-1.5-1.5l.5-1.5.5-1.5v-1-1l1.5-.5 1.5-.5 1-1.5 1-1.5 1.5-.5 1.5-.5 1-1 1-1" style="fill:#d9dcb0;stroke:#d9dcb0"/><path d="m426 256l-2-22-6.5-7-6.5-7-10.5-.5-10.5-.5-7.5 4-7.5 4-5.5 7.5-5.5 7.5-2 9.5-2 9.5.5 8 .5 8 .5-11.5.5-11.5 3.5-9 3.5-9 6.5-5.5 6.5-5.5 10.5-1 10.5-1 7 5 7 5 2.5 9.5 2.5 9.5-.5 1-.5 1-1 1.5-1 1.5v2 2l-.5 2-.5 2 .5 1.5.5 1.5 1.5.5 1.5.5v3 3l1-.5 1-.5.5-2 .5-2v-2-2l.5-2 .5-2v-2-2-1-1" style="fill:#e3184a;stroke:#e3184a"/><path d="m426 57l1-2-1-.5-1-.5h-1-1-1-1l-1.5-1-1.5-1-6.5 2.5-6.5 2.5-6 5.5-6 5.5 2 11 2 11h.5.5l-1-9-1-9 5-6.5 5-6.5 10-1 10-1" style="fill:#16542c;stroke:#16542c"/><path d="m425 406l-2-22-5 7.5-5 7.5 1.5 10.5 1.5 10.5 4.5-6 4.5-6v-1-1" style="fill:#b3bb93;stroke:#b3bb93"/><path d="m425 91l1-1-13 2-13 2 11.5-1 11.5-1 1-.5 1-.5" style="fill:#97a56d;stroke:#97a56d"/><path d="m425 58l1-1-10 1-10 1-5 6.5-5 6.5 1 9 1 9h3 3 2.5 2.5l1.5-.5 1.5-.5h3 3v-1.5-1.5l-.5-1.5-.5-1.5-.5-2-.5-2 .5-1.5.5-1.5v-2.5-2.5l1-1 1-1v-2-2l1-1.5 1-1.5 1-1 1-1 1-1 1-1" style="fill:#0a061e;stroke:#0a061e"/><path d="m424 454l1-3v-2-2-1.5-1.5l-.5 1-.5 1v1.5 1.5 1 1l-.5.5-.5.5-1-1-1-1-1 1.5-1 1.5v1.5 1.5l-.5-1-.5-1v3 3l1.5-2 1.5-2 1 1 1 1 .5-2 .5-2" style="fill:#b3bb93;stroke:#b3bb93"/><path d="m424 160l1-1-.5-1-.5-1-1-.5-1-.5v-1-1l-.5-1.5-.5-1.5.5-1 .5-1v-1-1l1-1 1-1-1-1-1-1-.5-.5-.5-.5-1.5.5-1.5.5v1 1l-.5 1.5-.5 1.5v1.5 1.5l.5 1.5.5 1.5v1 1l.5 1 .5 1 2 2 2 2 .5-1 .5-1" style="fill:#f3e189;stroke:#f3e189"/><path d="m423 408l-1-23 .5 5 .5 5v6.5 6.5" style="fill:#374a53;stroke:#374a53"/><path d="m422 469l1-3v-1-1-1-1l-.5-.5-.5-.5-2-.5-2-.5v-3-3l-2.5-11-2.5-11-6 6-6 6 3.5 13.5 3.5 13.5-.5-7-.5-7 2-5 2-5-1.5-.5-1.5-.5-1-.5-1-.5.5-1.5.5-1.5.5-.5.5-.5h1 1 1 1 .5.5v1 1 1 1 1 1 1.5 1.5 2.5 2.5 2 2l-.5 1.5-.5 1.5v2.5 2.5l.5 1.5.5 1.5 2 .5 2 .5h2 2l.5-1 .5-1" style="fill:#16542c;stroke:#16542c"/><path d="m422 413l1-3v-1-1l-4-3.5-4-3.5 1.5 6.5 1.5 6.5 2-.5 2-.5" style="fill:#374a53;stroke:#374a53"/><path d="m422 252l-5-19-7-5-7-5-10.5 1-10.5 1-6.5 5.5-6.5 5.5-3.5 9-3.5 9-.5 11.5-.5 11.5v1.5 1.5l.5 1.5.5 1.5.5 1.5.5 1.5 1 1.5 1 1.5 1 1 1 1 1 1.5 1 1.5 1 1 1 1 1.5 1 1.5 1 1.5.5 1.5.5 1.5.5 1.5.5h1.5 1.5 1.5 1.5 1.5 1.5 2.5 2.5l1.5-.5 1.5-.5 2-.5 2-.5 1.5-.5 1.5-.5 1.5-1 1.5-1 2-1 2-1 2-1.5 2-1.5.5-1.5.5-1.5 1-1.5 1-1.5 1-1 1-1 .5-2 .5-2 .5-1.5.5-1.5v-3-3l-1.5-.5-1.5-.5-.5-1.5-.5-1.5.5-2 .5-2v-2-2l1-1.5 1-1.5.5-1 .5-1" style="fill:#f55566;stroke:#f55566"/><path d="m421 465l-5-19h-.5-.5l2.5 8.5 2.5 8.5.5 1 .5 1" style="fill:#374a53;stroke:#374a53"/><path d="m421 399v-2-2-2h-1.5-1.5l-.5 1.5-.5 1.5v2.5 2.5 2 2 2.5 2.5h1 1l.5-1.5.5-1.5.5-2 .5-2v-2-2" style="fill:#d9dcb0;stroke:#d9dcb0"/><path d="m420 253l1-3v-2-2l-.5-2-.5-2-.5-1.5-.5-1.5-.5-2-.5-2-1-1-1-1-.5 1-.5 1 1 .5 1 .5v1.5 1.5 1 1l-.5.5-.5.5.5.5.5.5.5 1 .5 1 .5 1.5.5 1.5.5 2 .5 2v.5.5" style="fill:#f28569;stroke:#f28569"/><path d="m419 192h1l-1-.5-1-.5-1.5-.5-1.5-.5-1-.5-1-.5v-1.5-1.5l-1-1-1-1-14-5.5-14-5.5-4.5-4.5-4.5-4.5 5 7.5 5 7.5 8.5 5 8.5 5 9 1.5 9 1.5" style="fill:#14852f;stroke:#14852f"/><path d="m418 253l1-3v-1-1l-.5-1.5-.5-1.5-.5-1-.5-1-.5-.5-.5-.5.5-.5.5-.5v-1-1-1.5-1.5l-1-.5-1-.5-1.5-1.5-1.5-1.5h-.5-.5l.5 1 .5 1-.5 1.5-.5 1.5v.5.5l.5.5.5.5 1 .5 1 .5v1.5 1.5l.5.5.5.5v1.5 1.5l.5 1.5.5 1.5.5.5.5.5v2 2h.5.5v-1-1" style="fill:#f3e189;stroke:#f3e189"/><path d="m418 49l-1-2h-1.5-1.5l-1-1-1-1-1-.5-1-.5-.5 1-.5 1h-1.5-1.5l-1 1-1 1-1 1.5-1 1.5-1 1-1 1-1 .5-1 .5-.5.5-.5.5-.5 1.5-.5 1.5-1 1-1 1-1 .5-1 .5-1 1.5-1 1.5-1 1.5-1 1.5-.5 1.5-.5 1.5 1 1.5 1 1.5.5 1.5.5 1.5.5 1.5.5 1.5.5 2.5.5 2.5.5 1.5.5 1.5v2.5 2.5l1-.5 1-.5 1-.5 1-.5-2-11-2-11 6-5.5 6-5.5 6.5-2.5 6.5-2.5v-1.5-1.5" style="fill:#14852f;stroke:#14852f"/><path d="m417 277l1-3-.5-1.5-.5-1.5v-1-1l-.5-1-.5-1v-1-1l-.5.5-.5.5-.5 1-.5 1v1 1l-.5.5-.5.5v1 1l-.5 1-.5 1-.5.5-.5.5-.5.5-.5.5v1 1l-.5 1-.5 1-1 1-1 1-.5.5-.5.5-1 1.5-1 1.5-.5.5-.5.5-1 1.5-1 1.5-1 1-1 1h-1-1l-1 .5-1 .5h-2-2l-.5.5-.5.5h-1.5-1.5-2-2l-2-.5-2-.5-1.5-.5-1.5-.5.5-1 .5-1 1.5-.5 1.5-.5-4.5-7.5-4.5-7.5 2-13.5 2-13.5 1-1 1-1 .5-1.5.5-1.5.5-2 .5-2 1-1 1-1 1.5-1 1.5-1 1-1 1-1 1.5-.5 1.5-.5 2-.5 2-.5 1.5-.5 1.5-.5h2.5 2.5l1.5.5 1.5.5-1.5-1-1.5-1-.5-.5-.5-.5-1-.5-1-.5-1.5-.5-1.5-.5-.5-.5-.5-.5h-1.5-1.5l-1.5.5-1.5.5-1.5.5-1.5.5-1.5 1-1.5 1-1 1-1 1-1.5 1-1.5 1-1 1-1 1-1 1.5-1 1.5h-.5-.5l-.5 1-.5 1-2 9.5-2 9.5 2 15 2 15v1 1h1 1l.5 1 .5 1 .5.5.5.5.5.5.5.5h1 1l1 .5 1 .5 1.5.5 1.5.5 1 .5 1 .5 10.5-2.5 10.5-2.5 5.5-7.5 5.5-7.5v-.5-.5" style="fill:#f3e189;stroke:#f3e189"/><path d="m417 261l1-3v-1.5-1.5h-.5-.5l-.5 1.5-.5 1.5-.5-2-.5-2-.5-2-.5-2-.5-1.5-.5-1.5-.5-2-.5-2v-2-2l-.5-.5-.5-.5-1-.5-1-.5-.5-.5-.5-.5-.5-.5-.5-.5-.5-.5-.5-.5-1-1.5-1-1.5-1.5-.5-1.5-.5h-2.5-2.5l-1.5.5-1.5.5-2 .5-2 .5-1.5.5-1.5.5-1 1-1 1-1.5 1-1.5 1-1 1-1 1-.5 2-.5 2 .5.5.5.5 1-1 1-1 .5-.5.5-.5.5-1 .5-1 .5-.5.5-.5.5-1 .5-1 .5-.5.5-.5.5-.5.5-.5h1 1l1-.5 1-.5 1.5-.5 1.5-.5h1 1 1.5 1.5l2 1 2 1 1 .5 1 .5 1 1.5 1 1.5.5 1.5.5 1.5.5 2 .5 2 .5 1 .5 1 .5 2.5.5 2.5.5 1.5.5 1.5 1.5 1 1.5 1v2 2l-.5 1.5-.5 1.5-.5 2-.5 2-1 1.5-1 1.5-.5 1.5-.5 1.5-.5 2-.5 2-1 1-1 1-1 1.5-1 1.5-1 1-1 1-1 1-1 1-1.5 1-1.5 1h-1.5-1.5l-.5.5-.5.5-8.5-2.5-8.5-2.5-1-18.5-1-18.5-2 13.5-2 13.5 4.5 7.5 4.5 7.5 2.5 1 2.5 1h2 2l2-.5 2-.5h2 2l1.5-1 1.5-1 2-1 2-1 1-1.5 1-1.5.5-.5.5-.5 1-1 1-1 .5-1 .5-1v-1-1l.5-.5.5-.5.5-.5.5-.5.5-1 .5-1v-1-1l.5-.5.5-.5v-1-1l.5-1 .5-1 .5-.5.5-.5v1 1l.5 1 .5 1v-1.5-1.5-2.5-2.5" style="fill:#f4b48b;stroke:#f4b48b"/><path d="m416 258l1-3v-2-2l-.5-.5-.5-.5-.5-1.5-.5-1.5v-1.5-1.5l-.5-.5-.5-.5v-1.5-1.5l-1-.5-1-.5v2 2l.5 2 .5 2 .5 1.5.5 1.5.5 2 .5 2 .5 2 .5 2" style="fill:#d9dcb0;stroke:#d9dcb0"/><path d="m414 264l1-3v-2-2l-1.5-1-1.5-1-.5-1.5-.5-1.5-.5-2.5-.5-2.5v1.5 1.5 1 1 1.5 1.5l.5.5.5.5v1 1 1 1l-.5 1.5-.5 1.5-3 9-3 9-8.5 3-8.5 3-6-12.5-6-12.5 1 10.5 1 10.5 9 3 9 3h1.5 1.5l1.5-1 1.5-1 1-1 1-1 1-1 1-1 1-1.5 1-1.5 1-1 1-1 .5-2 .5-2 .5-1.5.5-1.5 1-1.5 1-1.5.5-2 .5-2" style="fill:#f55566;stroke:#f55566"/><path d="m412 450h1v-1.5-1.5-1-1-1-1-1-1h-.5-.5-1-1-1-1l-.5.5-.5.5-.5 1.5-.5 1.5 1 .5 1 .5 1.5.5 1.5.5.5 1.5.5 1.5" style="fill:#d9dcb0;stroke:#d9dcb0"/><path d="m411 397l-10-12-1 12.5-1 12.5 2 1 2 1 2 4.5 2 4.5 1.5-9.5 1.5-9.5.5-2.5.5-2.5" style="fill:#b3bb93;stroke:#b3bb93"/><path d="m411 237l1-3-.5-1-.5-1-1.5-1.5-1.5-1.5-1.5-.5-1.5-.5-1.5-1-1.5-1-1-1-1-1h-2.5-2.5-2-2v.5.5h1.5 1.5l.5.5.5.5 1.5.5 1.5.5 1 .5 1 .5.5.5.5.5 1.5 1 1.5 1 1 1.5 1 1.5.5.5.5.5.5.5.5.5.5.5.5.5 1 .5 1 .5v-.5-.5" style="fill:#d9dcb0;stroke:#d9dcb0"/><path d="m410 439l-6-2-1 9.5-1 9.5 3.5-1.5 3.5-1.5-2-3.5-2-3.5 2.5-3.5 2.5-3.5" style="fill:#374a53;stroke:#374a53"/><g style="fill:#e3184a;stroke:#e3184a"><path d="m410 295l1-2-2 1-2 1-1.5 1-1.5 1-1.5.5-1.5.5-2 .5-2 .5-1.5.5-1.5.5h-2.5-2.5-1.5-1.5-1.5-1.5l2 1 2 1h2 2 2.5 2.5 2 2l1.5-1 1.5-1 1.5-.5 1.5-.5 1-1.5 1-1.5 1-.5 1-.5"/><path d="m410 263l1-3v-1-1-1-1l-.5-.5-.5-.5v-1.5-1.5-1-1-1.5-1.5l-.5-1-.5-1v2 2 2.5 2.5 2 2l-.5 1.5-.5 1.5-3 9-3 9-9 2-9 2-3.5-8-3.5-8 2-12.5 2-12.5-1 1-1 1-1 2.5-1 2.5-.5 1.5-.5 1.5-.5 1.5-.5 1.5v3.5 3.5l6 12.5 6 12.5 8.5-3 8.5-3 3-9 3-9"/></g><path d="m409 398l-7-9 3 .5 3 .5-3.5 5.5-3.5 5.5v7.5 7.5l3-1 3-1v-4.5-4.5l1-3.5 1-3.5" style="fill:#374a53;stroke:#374a53"/><path d="m408 261l1-3v-2-2-2.5-2.5-2-2l-.5-2-.5-2-.5-1.5-.5-1.5-1-1.5-1-1.5-1-.5-1-.5-.5.5-.5.5-1-.5-1-.5h-1-1l-1.5.5-1.5.5-2 .5-2 .5-1.5.5-1.5.5-1.5 1-1.5 1-1.5 1-1.5 1-.5.5-.5.5-2 12.5-2 12.5 3.5 8 3.5 8 9-2 9-2 3-9 3-9" style="fill:#8e0c36;stroke:#8e0c36"/><path d="m408 210v-2h-2-2l-2-.5-2-.5h-2-2l-2 .5-2 .5-1.5.5-1.5.5 2 .5 2 .5 1.5.5 1.5.5h2 2l2-.5 2-.5h2 2" style="fill:#e3184a;stroke:#e3184a"/><path d="m403 288l1-1-2 1-2 1-1.5 1-1.5 1h-2-2l-2 .5-2 .5h-2-2l-2.5-1-2.5-1-1.5.5-1.5.5-.5 1-.5 1 1.5.5 1.5.5 2 .5 2 .5h2 2 1.5 1.5l.5-.5.5-.5h2 2l1-.5 1-.5h1 1l1-1 1-1 1-1.5 1-1.5" style="fill:#d9dcb0;stroke:#d9dcb0"/><path d="m402 235l1-1-2-1-2-1h-1.5-1.5-1-1l-1.5.5-1.5.5-1 .5-1 .5h-1-1l-.5.5-.5.5-.5.5-.5.5-.5 1-.5 1-.5.5-.5.5-.5 1-.5 1 1.5-1 1.5-1 1.5-1 1.5-1 1.5-.5 1.5-.5 2-.5 2-.5 1.5-.5 1.5-.5h1 1l1 .5 1 .5" style="fill:#e3184a;stroke:#e3184a"/><path d="m400 478h1l-20.5-.5-20.5-.5h-11.5-11.5-12-12v.5.5h3 3 2.5 2.5 2 2 1.5 1.5 1 1 2 2 2 2 2.5 2.5 2 2 2.5 2.5 1.5 1.5 1.5 1.5 1.5 1.5 2 2 1.5 1.5 1 1 2 2 2 2 2.5 2.5 2 2 2.5 2.5 2.5 2.5" style="fill:#97a56d;stroke:#97a56d"/><path d="m400 374l1-1h-3-3l-2-.5-2-.5h-1-1-2.5-2.5l-1.5.5-1.5.5h-2.5-2.5-2-2-2-2-2.5-2.5-2-2-1-1l1 .5 1 .5h2 2 1.5 1.5 1 1 1 1 1 1 1.5 1.5 1 1 1 1 1 1 2 2 1.5 1.5 1 1 2 2 1.5 1.5 1.5 1.5" style="fill:#374a53;stroke:#374a53"/><path d="m398 458l1-3v-2-2-2.5-2.5-2-2-2-2-1.5-1.5l-.5-.5-.5-.5-.5-1-.5-1h-1-1-1-1-1-1l-1.5.5-1.5.5v1.5 1.5 1.5 1.5l-1.5 15.5-1.5 15.5 6.5-6 6.5-6" style="fill:#6a7d4f;stroke:#6a7d4f"/><path d="m397 454l-4-20-2.5 11-2.5 11 1-1 1-1 3-5.5 3-5.5v11 11l.5-5.5.5-5.5" style="fill:#374a53;stroke:#374a53"/><path d="m396 102v-3-1.5-1.5l-1.5-.5-1.5-.5-.5 1.5-.5 1.5-.5 1-.5 1v.5.5l-3 11-3 11-3.5 8.5-3.5 8.5 1 9.5 1 9.5h1.5 1.5v-10.5-10.5l4-7.5 4-7.5 2.5-10.5 2.5-10.5" style="fill:#14852f;stroke:#14852f"/><path d="m395 405l1-3-.5-1.5-.5-1.5h-1.5-1.5l-1 1-1 1-.5 2-.5 2 1 1 1 1 2-.5 2-.5v-.5-.5" style="fill:#374a53;stroke:#374a53"/><path d="m395 355v-18l-5-8.5-5-8.5-5 8-5 8-4.5 6-4.5 6 4 6 4 6 8-1.5 8-1.5 2.5-1 2.5-1" style="fill:#4a0a31;stroke:#4a0a31"/><path d="m394 290l1-1-9-3-9-3-1-10.5-1-10.5v-3.5-3.5l.5-1.5.5-1.5.5-1.5.5-1.5 1-2.5 1-2.5-.5-.5-.5-.5-.5 1.5-.5 1.5-1 1-1 1 1 18.5 1 18.5 8.5 2.5 8.5 2.5" style="fill:#f28569;stroke:#f28569"/><path d="m392 354v-20l-5.5-5-5.5-5-4 9-4 9-1.5 7-1.5 7 7.5-3.5 7.5-3.5 3.5 2.5 3.5 2.5" style="fill:#8e0c36;stroke:#8e0c36"/><path d="m391 100l1-2v-2.5-2.5-2.5-2.5-2-2l-.5-2.5-.5-2.5-.5-1.5-.5-1.5-.5-1.5-.5-1.5-1-1.5-1-1.5.5-1.5.5-1.5 1-1.5 1-1.5 1-1.5 1-1.5-1 10-1 10 .5 10 .5 10v-.5-.5" style="fill:#97a56d;stroke:#97a56d"/><path d="m387 97l1-3v-2-2-2.5-2.5l-.5-1.5-.5-1.5-.5-2-.5-2-.5-1.5-.5-1.5-.5-1.5-.5-1.5-1-.5-1-.5.5 1.5.5 1.5v1.5 1.5l.5 1.5.5 1.5.5 2 .5 2 1 1 1 1v2.5 2.5 2 2 1 1" style="fill:#16542c;stroke:#16542c"/><path d="m386 392l-4 4-1 11.5-1 11.5 3-8 3-8v-5.5-5.5" style="fill:#b3bb93;stroke:#b3bb93"/><path d="m386 343l1-3-.5-1.5-.5-1.5h-1.5-1.5l-1 1-1 1 .5 2 .5 2 1.5.5 1.5.5.5-.5.5-.5" style="fill:#4a0a31;stroke:#4a0a31"/><path d="m385 453l1-3v-1-1-1-1-2-2l-5.5-3-5.5-3-4-1.5-4-1.5-5.5-.5-5.5-.5-6.5 1-6.5 1-6.5 4-6.5 4 1 14 1 14 2-2 2-2 9 1 9 1v-1.5-1.5l-.5-1.5-.5-1.5-1.5-.5-1.5-.5-1-1.5-1-1.5.5-1.5.5-1.5h1.5 1.5l1-1 1-1 1-.5 1-.5v2 2l-.5 1.5-.5 1.5v2 2 1 1l-.5 1.5-.5 1.5 3-.5 3-.5 3-1 3-1 2-3.5 2-3.5 1-3 1-3 3 9.5 3 9.5 3.5-9 3.5-9" style="fill:#5c6e8e;stroke:#5c6e8e"/><path d="m384 446l-8-6-1 10.5-1 10.5 2.5-10.5 2.5-10.5 1.5 9 1.5 9 1-6 1-6" style="fill:#374a53;stroke:#374a53"/><path d="m384 298h1l-1-.5-1-.5-1.5-.5-1.5-.5-1-.5-1-.5h-1-1l-.5-.5-.5-.5-.5-.5-.5-.5-.5-1-.5-1h-1-1v-1-1l-1.5-1-1.5-1-.5-1.5-.5-1.5-.5-1.5-.5-1.5-.5-2-.5-2-.5-1.5-.5-1.5v-2.5-2.5-2-2-2.5-2.5l.5-1.5.5-1.5v-2.5-2.5l-1.5 10.5-1.5 10.5 4 9.5 4 9.5 7 3 7 3" style="fill:#f4b48b;stroke:#f4b48b"/><g style="fill:#b3bb93;stroke:#b3bb93"><path d="m380 391h-10l-1.5 6-1.5 6-2-8-2-8-5 1.5-5 1.5-3.5 1.5-3.5 1.5-3-2.5-3-2.5-.5 12.5-.5 12.5 3.5-1 3.5-1 3.5 3.5 3.5 3.5 1.5-10 1.5-10 .5 2.5.5 2.5.5 9 .5 9 2.5-4.5 2.5-4.5 5 1.5 5 1.5 1.5-8.5 1.5-8.5 2-3.5 2-3.5"/><path d="m377 134l-3 15 1-1.5 1-1.5.5-6 .5-6"/></g><path d="m376 404l-5 3h.5.5l2-1.5 2-1.5" style="fill:#374a53;stroke:#374a53"/><path d="m371 325l-12 4-4 3.5-4 3.5-4.5-6.5-4.5-6.5.5 9 .5 9 3 10 3 10 6-4.5 6-4.5 3-10 3-10 2-3.5 2-3.5" style="fill:#4a0a31;stroke:#4a0a31"/><path d="m371 240l1-2-1 1.5-1 1.5-1 1.5-1 1.5-.5 1.5-.5 1.5-.5 2-.5 2-.5.5-.5.5v2.5 2.5l-.5 1.5-.5 1.5v2.5 2.5 2 2 2.5 2.5l.5 1.5.5 1.5.5 2 .5 2 .5 1.5.5 1.5.5 1.5.5 1.5 1.5 1 1.5 1-2-15-2-15 2-9.5 2-9.5" style="fill:#d9dcb0;stroke:#d9dcb0"/><path d="m370 442l1-3v-2-2h-1.5-1.5l-.5 1.5-.5 1.5v2.5 2.5l1 1 1 1v2.5 2.5l.5.5.5.5v-2-2-2.5-2.5" style="fill:#374a53;stroke:#374a53"/><path d="m369 326l-10 8-4.5 8-4.5 8-.5-10.5-.5-10.5-3.5-2-3.5-2 2 11 2 11 2 4.5 2 4.5 5-7 5-7 4.5-8 4.5-8" style="fill:#8e0c36;stroke:#8e0c36"/><path d="m364 371l1-1-1.5-1.5-1.5-1.5h-1.5-1.5l-1.5.5-1.5.5-2 .5-2 .5 1 1 1 1 2 .5 2 .5h2 2 .5.5l.5-.5.5-.5" style="fill:#374a53;stroke:#374a53"/><path d="m355 459l1-3v-2-2l-1 .5-1 .5-1 1-1 1h-1.5-1.5l-.5 1.5-.5 1.5 1 1.5 1 1.5 1.5.5 1.5.5.5 1.5.5 1.5v1.5 1.5l.5-1.5.5-1.5v-1-1-2-2" style="fill:#b3bb93;stroke:#b3bb93"/><g style="fill:#374a53;stroke:#374a53"><path d="m352 409l1-3-.5-1.5-.5-1.5-1-.5-1-.5-.5 1.5-.5 1.5v2.5 2.5 2 2 2.5 2.5l1-1 1-1 .5-1.5.5-1.5v-2.5-2.5"/><path d="m349 375l-1-1h-1-1-1-1-1-1-2.5-2.5-3.5-3.5-2-2-2.5-2.5-2-2-2-2-.5-.5l1.5.5 1.5.5h2.5 2.5 2 2 2 2 2.5 2.5 2 2 2.5 2.5 2 2 1.5 1.5"/></g><path d="m348 229l1-3v-2-2l-1.5-1-1.5-1-1.5.5-1.5.5h-2.5-2.5-1-1l-2 .5-2 .5v.5.5l1 .5 1 .5 1 .5 1 .5 2 1 2 1 1 1 1 1 1 .5 1 .5v1 1l.5 1 .5 1v2 2 1 1 1.5 1.5 2 2l-.5 1.5-.5 1.5-.5 11.5-.5 11.5-5 9.5-5 9.5-.5.5-.5.5-1.5-.5-1.5-.5-1-1.5-1-1.5v-2-2-2.5-2.5-2-2l-.5 12-.5 12 7.5-2 7.5-2 1.5-11.5 1.5-11.5 1.5-10 1.5-10 .5-12 .5-12" style="fill:#e3184a;stroke:#e3184a"/><path d="m344 410l1-3-.5-1.5-.5-1.5-1 1.5-1 1.5-.5 1.5-.5 1.5v2.5 2.5 2 2l1-1.5 1-1.5v-1-1l.5-.5.5-.5v-1.5-1.5" style="fill:#374a53;stroke:#374a53"/><path d="m344 250l1-3v-2-2-1.5-1.5-1-1-2-2l-.5-1-.5-1v-1-1l-1-.5-1-.5.5 2 .5 2v2.5 2.5 2 2 2.5 2.5 2 2l-.5 1.5-.5 1.5v2 2 2.5 2.5l-.5 1.5-.5 1.5v2 2 1 1 1.5 1.5l-.5 1.5-.5 1.5-.5 2-.5 2-.5 1.5-.5 1.5-.5 2-.5 2-2 1-2 1v.5.5l5-9.5 5-9.5.5-11.5.5-11.5" style="fill:#f55566;stroke:#f55566"/><path d="m343 456l1-3-.5-1.5-.5-1.5-1 .5-1 .5-.5 1.5-.5 1.5.5 2 .5 2v2 2l1 1.5 1 1.5v-2-2-2-2-.5-.5" style="fill:#b3bb93;stroke:#b3bb93"/><path d="m342 254l1-3v-2-2-2.5-2.5-2-2-2.5-2.5l-.5-2-.5-2-1-1-1-1-2-1-2-1h-.5-.5v.5.5l2 1.5 2 1.5 1 1.5 1 1.5v1 1l.5.5.5.5-.5 1.5-.5 1.5v1.5 1.5 2 2 2.5 2.5l-.5 1.5-.5 1.5v2 2l-.5 2-.5 2v1.5 1.5 2 2l-.5 1.5-.5 1.5v1.5 1.5 2 2l-.5 1.5-.5 1.5-.5 2-.5 2-1.5-.5-1.5-.5v.5.5 1.5 1.5 1.5 1.5l2-1 2-1 .5-2 .5-2 .5-1.5.5-1.5.5-2 .5-2 .5-1.5.5-1.5v-1.5-1.5-1-1-2-2l.5-1.5.5-1.5v-2.5-2.5-2-2" style="fill:#f28569;stroke:#f28569"/><path d="m341 447l-1-3-4 3.5-4 3.5v7 7l3-1.5 3-1.5 1-2 1-2 .5-5.5.5-5.5" style="fill:#374a53;stroke:#374a53"/><path d="m341 238l1-3-.5-.5-.5-.5v-1-1l-1-1.5-1-1.5.5 1 .5 1v2 2 1 1 3 3 2 2l-.5 2-.5 2v2 2 3 3l.5-2 .5-2v-2-2l.5-1.5.5-1.5v-2.5-2.5-2-2-1.5-1.5" style="fill:#f4b48b;stroke:#f4b48b"/><path d="m340 237v-2-2-2l-.5-1-.5-1-2-1.5-2-1.5v2 2 1.5 1.5 2 2l-.5.5-.5.5v1.5 1.5l.5 1.5.5 1.5-.5 1.5-.5 1.5v1.5 1.5l-.5 1-.5 1 .5 2 .5 2-.5 1.5-.5 1.5v2.5 2.5l-.5 1.5-.5 1.5v2.5 2.5 2 2 2 2l-.5 2-.5 2v3 3l.5-1 .5-1 .5-1.5.5-1.5v-.5-.5l.5-1.5.5-1.5 1-1 1-1 .5-2 .5-2v-2-2-2-2l.5-.5.5-.5v-1.5-1.5l.5-1 .5-1v-3-3-2-2l.5-2 .5-2v-2-2-3-3" style="fill:#f3e189;stroke:#f3e189"/><g style="fill:#f4b48b;stroke:#f4b48b"><path d="m338 271l1-3v-2-2-1.5-1.5l-.5 1-.5 1v1.5 1.5l-.5.5-.5.5v2 2 2 2l-.5 2-.5 2-1 1-1 1-.5 1.5-.5 1.5 1.5.5 1.5.5.5-2 .5-2 .5-1.5.5-1.5v-2-2-1.5-1.5"/><path d="m335 225h1l-1-.5-1-.5-1-.5-1-.5-1.5 1.5-1.5 1.5-1 1-1 1-1 1.5-1 1.5-1 1-1 1-1 1.5-1 1.5-.5 1.5-.5 1.5-1 1-1 1-1 1.5-1 1.5-.5 1-.5 1-.5.5-.5.5v1 1l1.5-.5 1.5-.5v-1-1l1-.5 1-.5v-1-1l1-.5 1-.5 1-1.5 1-1.5.5-1 .5-1 .5-.5.5-.5v-1-1l.5-.5.5-.5.5-1 .5-1 .5-.5.5-.5.5-.5.5-.5.5-.5.5-.5v-1-1l1-.5 1-.5 1.5.5 1.5.5v-.5-.5"/></g><path d="m334 388l-12 13-4 5-4 5 .5-7 .5-7 1-6 1-6-4 1.5-4 1.5-10-1-10-1-2.5 10-2.5 10 1.5 8.5 1.5 8.5 3.5-8.5 3.5-8.5 1.5-7 1.5-7-.5 6.5-.5 6.5 1 8.5 1 8.5h3 3 8.5 8.5l4-5 4-5 1.5-6 1.5-6 1-6 1-6" style="fill:#b3bb93;stroke:#b3bb93"/><path d="m334 247l1-3-.5-1.5-.5-1.5v-1.5-1.5l.5-.5.5-.5v-2-2-1.5-1.5-2-2l-1.5-.5-1.5-.5-1 .5-1 .5v1 1l-.5.5-.5.5-.5.5-.5.5-.5.5-.5.5-.5 1-.5 1-.5.5-.5.5v1 1l-.5.5-.5.5-.5 1-.5 1 1.5-1 1.5-1 1-1.5 1-1.5h1 1l.5 2 .5 2v2 2 2.5 2.5 2 2l-.5 1.5-.5 1.5v2 2l.5.5.5.5-.5.5-.5.5.5.5.5.5v1.5 1.5l-.5.5-.5.5v1 1 1 1 1.5 1.5 1 1 1 1 1 1 1 1l-.5.5-.5.5.5 1 .5 1v1 1l-.5.5-.5.5.5.5.5.5.5 1.5.5 1.5v-3-3l.5-2 .5-2v-2-2-2-2-2.5-2.5l.5-1.5.5-1.5v-2.5-2.5l.5-1.5.5-1.5-.5-2-.5-2 .5-1 .5-1v-1.5-1.5" style="fill:#d9dcb0;stroke:#d9dcb0"/><path d="m332 390l-8 6 1 9.5 1 9.5-1-4-1-4 .5-5 .5-5 3.5-3.5 3.5-3.5" style="fill:#374a53;stroke:#374a53"/><path d="m332 293l1-1v-.5-.5-1.5-1.5-1.5-1.5l-.5 1.5-.5 1.5-.5 1-.5 1-.5-1.5-.5-1.5-.5-.5-.5-.5.5-.5.5-.5v-1-1l-.5-1-.5-1 .5-.5.5-.5v-1-1-1-1-1-1-1-1-1.5-1.5-1-1-1-1l.5-.5.5-.5v-1.5-1.5l-.5-.5-.5-.5.5-.5.5-.5-.5-.5-.5-.5v-2-2l-1-1.5-1-1.5-1.5 1-1.5 1-1 1-1 1-1 1-1 1-1 2-1 2 1-.5 1-.5 1-1.5 1-1.5 1-1 1-1 2 .5 2 .5-.5 1.5-.5 1.5v2.5 2.5 2 2l-.5 1.5-.5 1.5v2.5 2.5 2 2 2.5 2.5 2 2l1 1.5 1 1.5 1.5.5 1.5.5" style="fill:#f4b48b;stroke:#f4b48b"/><path d="m330 254l1-3v-2-2-2.5-2.5-2-2l-.5-2-.5-2h-1-1l-1 1.5-1 1.5-1.5 1-1.5 1-1 1.5-1 1.5-.5 1-.5 1v1.5 1.5l-1 1-1 1-.5.5-.5.5-.5 1-.5 1-1 1-1 1v1 1l-1-.5-1-.5v1 1l-.5.5-.5.5-.5 1-.5 1-1 1-1 1-1 1-1 1-1-.5-1-.5.5 1 .5 1 1.5 1 1.5 1 2.5-.5 2.5-.5 1-.5 1-.5 1-.5 1-.5 1-1.5 1-1.5 1-2 1-2 1-1 1-1 1-1 1-1 1.5-1 1.5-1 1 1.5 1 1.5" style="fill:#f3e189;stroke:#f3e189"/><path d="m328 259l1-3-2-.5-2-.5-1 1-1 1-1 1.5-1 1.5-1 .5-1 .5-1 1.5-1 1.5-1 .5-1 .5-1 .5-1 .5-.5.5-.5.5-2 .5-2 .5-2 .5-2 .5 1 .5 1 .5h2 2l1.5-.5 1.5-.5 1.5-1 1.5-1 1-1 1-1 1.5-1 1.5-1 1.5-.5 1.5-.5 1-1 1-1 1-.5 1-.5" style="fill:#f28569;stroke:#f28569"/><path d="m327 454l1-3-.5-1.5-.5-1.5-2-.5-2-.5-1 1-1 1-.5 2-.5 2 1 1 1 1 2 .5 2 .5.5-1 .5-1" style="fill:#374a53;stroke:#374a53"/><path d="m327 271l1-3v-2-2-2.5-2.5l-1 .5-1 .5-1 1-1 1-1.5.5-1.5.5-1.5 1-1.5 1-1 1-1 1-1.5 1-1.5 1-1.5.5-1.5.5h-2-2l-1-.5-1-.5h-.5-.5l4 9.5 4 9.5 4.5-7 4.5-7 3.5-1.5 3.5-1.5" style="fill:#e3184a;stroke:#e3184a"/><path d="m320 390l-8 10 2.5 8 2.5 8-2.5-3.5-2.5-3.5 1-5.5 1-5.5 2-3 2-3 1-1 1-1" style="fill:#374a53;stroke:#374a53"/><path d="m320 244l1-2-1 .5-1 .5v1 1l-1 .5-1 .5v1 1l-1.5.5-1.5.5h-.5-.5l-1.5-.5-1.5-.5-1.5-.5-1.5-.5-1-1-1-1 .5 1 .5 1v1 1l1 .5 1 .5 1.5.5 1.5.5v1 1l-5.5-3-5.5-3-3-9-3-9-1-.5-1-.5-1.5.5-1.5.5-.5 2-.5 2-.5 1.5-.5 1.5v2 2 1.5 1.5l.5-2 .5-2v-2-2l.5-.5.5-.5v1 1 1 1l1 .5 1 .5h1 1v1 1 1 1l1 .5 1 .5.5.5.5.5.5.5.5.5v1 1l.5 1 .5 1v2 2l1 1 1 1 1 1.5 1 1.5 1 2 1 2 1 .5 1 .5 1-1 1-1 1-1 1-1 .5-1 .5-1 .5-.5.5-.5v-1-1l1 .5 1 .5v-1-1l1-1 1-1 .5-1 .5-1 .5-.5.5-.5 1-1 1-1v-1.5-1.5" style="fill:#d9dcb0;stroke:#d9dcb0"/><path d="m318 450l1-4v-2-2-1.5-1.5l-.5-2-.5-2v-1-1l-1-1-1-1h-1.5-1.5-1-1l-.5 1.5-.5 1.5-.5.5-.5.5-2 10.5-2 10.5v-10.5-10.5l1-1.5 1-1.5-.5-1-.5-1-1 1-1 1v-1.5-1.5l1-1 1-1h-1.5-1.5l-1 1-1 1 .5 1.5.5 1.5h-2.5-2.5l-4 16-4 16 1.5-11.5 1.5-11.5h-2.5-2.5l-3.5-3.5-3.5-3.5-1.5 10-1.5 10 1.5 7.5 1.5 7.5 2.5-5 2.5-5 3 6 3 6 6-5.5 6-5.5 4 5 4 5 3.5-10 3.5-10" style="fill:#374a53;stroke:#374a53"/><path d="m314 247l1-1-3.5-8.5-3.5-8.5-9.5-3-9.5-3-.5 1.5-.5 1.5 2.5.5 2.5.5 1 .5 1 .5h1 1l1 .5 1 .5 1 1 1 1 1 1 1 1v1 1l.5 1 .5 1 1 1 1 1 .5.5.5.5.5 1 .5 1 1 1 1 1 .5.5.5.5 1.5 1 1.5 1" style="fill:#e3184a;stroke:#e3184a"/><path d="m313 453l1-3v-2-2l-.5-2-.5-2-1 1-1 1-.5 2-.5 2v2 2l-.5 2-.5 2v2 2h1 1l1-1.5 1-1.5v-2-2" style="fill:#b3bb93;stroke:#b3bb93"/><path d="m313 249h1v-1-1l-1.5-1-1.5-1-.5-.5-.5-.5-1-1-1-1-.5-1-.5-1-.5-.5-.5-.5-1-1-1-1-.5-1-.5-1v-1-1l-1-1-1-1-1-1-1-1-1-.5-1-.5h-1-1l-1-.5-1-.5-.5.5-.5.5 1 .5 1 .5 1.5.5 1.5.5 1 1 1 1 1 1 1 1 .5 2 .5 2 .5 1.5.5 1.5 1 2 1 2 1 1 1 1 1.5.5 1.5.5 1.5.5 1.5.5" style="fill:#f28569;stroke:#f28569"/><path d="m312 478h1v-.5-.5h-3.5-3.5-2-2-2-2-1.5-1.5-1-1-1-1-1-1-1-1-1.5-1.5-1-1-1-1-1-1-1-1l-2 .5-2 .5h1.5 1.5 1.5 1.5 1.5 1.5 1 1 1 1 1 1 2 2 1.5 1.5 1 1 2 2 1.5 1.5 1 1 1 1 1 1 1.5 1.5" style="fill:#6a7d4f;stroke:#6a7d4f"/><path d="m312 267l1-1-2.5.5-2.5.5-1.5-1-1.5-1-.5-1-.5-1-1-2-1-2-1-1.5-1-1.5-1-1-1-1-.5.5-.5.5v1.5 1.5l.5-1 .5-1 .5 1 .5 1-2.5 10-2.5 10-1.5 6-1.5 6 3-16 3-16-3.5 10-3.5 10-2 7.5-2 7.5v3 3l-1.5-9.5-1.5-9.5v-1.5-1.5-1.5-1.5-2-2l.5-.5.5-.5v-1.5-1.5-2-2l.5-.5.5-.5v-1-1-1-1-1.5-1.5-1-1l.5-.5.5-.5v-1-1-1.5-1.5l.5-1 .5-1v-.5-.5-1.5-1.5-2-2l.5-1.5.5-1.5.5-2 .5-2 1.5-.5 1.5-.5.5-.5.5-.5-2.5-.5-2.5-.5-2 11.5-2 11.5-1.5 12-1.5 12-1.5 11.5-1.5 11.5 7.5 3 7.5 3 .5-.5.5-.5.5-1.5.5-1.5 1-.5 1-.5h1 1 1 1l.5-.5.5-.5h1 1l1.5-.5 1.5-.5-5.5-7.5-5.5-7.5 3-6 3-6 .5.5.5.5h.5.5l2-.5 2-.5 2-.5 2-.5" style="fill:#f4b48b;stroke:#f4b48b"/><path d="m311 253v-2l-1.5-.5-1.5-.5-1-.5-1-.5v-1-1l-.5-1-.5-1-1-2-1-2-.5-1.5-.5-1.5-.5-2-.5-2-1-1-1-1-1-1-1-1-1.5-.5-1.5-.5 3 9 3 9 5.5 3 5.5 3" style="fill:#f3e189;stroke:#f3e189"/><path d="m309 435l1-1-1.5-.5-1.5-.5-1 1-1 1v10.5 10.5l2-10.5 2-10.5" style="fill:#b3bb93;stroke:#b3bb93"/><path d="m307 300v-2-1.5-1.5l-1.5.5-1.5.5h-1-1l-.5.5-.5.5h-1-1-1-1l-1 .5-1 .5-.5 1.5-.5 1.5h2.5 2.5 2 2 2 2v-.5-.5" style="fill:#e3184a;stroke:#e3184a"/><path d="m305 420l-2-14-2.5 6-2.5 6 2.5-1.5 2.5-1.5 1 2.5 1 2.5" style="fill:#374a53;stroke:#374a53"/><path d="m299 466l1-3h-1-1-1.5-1.5-1-1l-.5 2-.5 2 1.5.5 1.5.5 2-.5 2-.5v-.5-.5" style="fill:#0a061e;stroke:#0a061e"/><path d="m299 258l-1-2-.5 1-.5 1-3 16-3 16 1.5-6 1.5-6 2.5-10 2.5-10" style="fill:#f28569;stroke:#f28569"/><path d="m297 255l1-1v-2-2l-.5-1-.5-1v-1-1l-.5-.5-.5-.5-.5-.5-.5-.5-1-.5-1-.5v-1-1-1-1h-1-1l-1-.5-1-.5v-1-1-1-1l-.5.5-.5.5v2 2l-.5 2-.5 2v.5.5 1.5 1.5 1.5 1.5 1 1 1 1l-.5 1.5-.5 1.5v1.5 1.5l-.5 1.5-.5 1.5.5 1.5.5 1.5-.5 2-.5 2-.5 1.5-.5 1.5v2.5 2.5l-.5 1-.5 1 1.5 9.5 1.5 9.5v-3-3l2-7.5 2-7.5 3.5-10 3.5-10v-1.5-1.5" style="fill:#f3e189;stroke:#f3e189"/><path d="m288 451l1-3-.5-.5-.5-.5h-2.5-2.5l-1-1-1-1v2.5 2.5l-.5 1.5-.5 1.5h1.5 1.5l1.5.5 1.5.5h1 1v-1.5-1.5" style="fill:#0a061e;stroke:#0a061e"/><path d="m286 257l1-3v-1-1-1-1-1.5-1.5-1.5-1.5l-.5 1-.5 1v1.5 1.5 1 1l-.5.5-.5.5v1 1 1.5 1.5 1 1 1 1l-.5.5-.5.5v2 2 1.5 1.5l-.5.5-.5.5v2 2 1.5 1.5 1.5 1.5l.5-1 .5-1v-2.5-2.5l.5-1.5.5-1.5.5-2 .5-2-.5-1.5-.5-1.5.5-1.5.5-1.5v-1.5-1.5" style="fill:#d9dcb0;stroke:#d9dcb0"/><path d="m270 231l-5 1-2 11.5-2 11.5-2 11-2 11-1 10.5-1 10.5 3.5-4.5 3.5-4.5 1.5-10 1.5-10 2-11 2-11 .5-8 .5-8" style="fill:#8e0c36;stroke:#8e0c36"/><path d="m134 492l1-3v-2-2l-1-1.5-1-1.5-1-1-1-1-1.5-1-1.5-1-1.5.5-1.5.5-2 .5-2 .5-.5 1.5-.5 1.5 1.5-.5 1.5-.5h2 2l1.5 1 1.5 1 1 1 1 1-.5 1.5-.5 1.5-1 1-1 1-.5.5-.5.5-.5.5-.5.5h-1-1-1.5-1.5l-.5-.5-.5-.5-.5-.5-.5-.5-.5-.5-.5-.5-.5-.5-.5-.5-.5-1.5-.5-1.5-.5 1-.5 1-.5 1.5-.5 1.5 1 1.5 1 1.5 1.5.5 1.5.5h1.5 1.5 2 2l1.5-1 1.5-1 1.5-.5 1.5-.5h.5.5" style="fill:#4a0a31;stroke:#4a0a31"/><path d="m131 489l1-3-1-1-1-1-1.5-1-1.5-1h-2-2l-1.5.5-1.5.5-1.5 1-1.5 1v.5.5l.5 1.5.5 1.5.5.5.5.5.5.5.5.5.5.5.5.5.5.5.5.5h1.5 1.5 1 1l.5-.5.5-.5.5-.5.5-.5 1-1 1-1" style="fill:#6a7d4f;stroke:#6a7d4f"/></g></svg>