<svg xmlns="http://www.w3.org/2000/svg" viewBox="0 0 528 960"><g style="fill:#a5514b"><path d="m0 0h528v960h-528z"/><path d="m0 959v1h10.5 10.5 8.5 8.5 9 9 9 9 9 9 9 9 8.5 8.5 9 9 9 9 9 9 8.5 8.5 9 9 9 9 9 9 8.5 8.5 9 9 9 9 9 9 2.5 2.5v-.5-.5h-1.5-1.5-1-1l.5-.5.5-.5v-1-1-1-1h1 1l1-.5 1-.5h1 1 1 1 1 1l1 .5 1 .5.5.5.5.5-.5.5-.5.5-.5.5-.5.5.5 1 .5 1h-1-1l-1 .5-1 .5h1.5 1.5 2.5 2.5 2 2 1.5 1.5v-.5-.5l2-1.5 2-1.5-5-1.5-5-1.5 4.5-.5 4.5-.5 4.5-3.5 4.5-3.5 5.5-1.5 5.5-1.5 4-3.5 4-3.5v-6-6l-4.5-3.5-4.5-3.5-6.5.5-6.5.5-2.5-1-2.5-1-1.5-4.5-1.5-4.5 6-1 6-1 3.5-3.5 3.5-3.5.5 6 .5 6 2-2 2-2 4-3 4-3v-4-4l-3-1.5-3-1.5 1.5-2.5 1.5-2.5 3.5-1.5 3.5-1.5 1.5-2.5 1.5-2.5-5.5 1.5-5.5 1.5-7-.5-7-.5-2 2-2 2-5.5 2.5-5.5 2.5-4-2-4-2-7-.5-7-.5-4 2-4 2-5.5 3.5-5.5 3.5-4-2-4-2-2 2.5-2 2.5 1.5-5.5 1.5-5.5 7-1 7-1 6-2 6-2 6.5-2 6.5-2 5-2 5-2 5.5-1.5 5.5-1.5-1-5-1-5-6 .5-6 .5-1.5 1.5-1.5 1.5-6.5.5-6.5.5-6 1-6 1-6 .5-6 .5-4.5-.5-4.5-.5-1 3-1 3-6 1-6 1-3-2.5-3-2.5-3.5 3.5-3.5 3.5-5-2-5-2 1 1 1 1 .5 1 .5 1-.5 1.5-.5 1.5-1.5-.5-1.5-.5h-1.5-1.5-1.5-1.5l.5-1 .5-1 1.5-.5 1.5-.5 1.5-1.5 1.5-1.5-7.5 1-7.5 1-1.5 3-1.5 3-5.5.5-5.5.5 1-3 1-3-3.5-2.5-3.5-2.5 6 .5 6 .5 1-1 1-1 6-1 6-1-5-1-5-1-.5-5-.5-5 6-2 6-2 4.5-.5 4.5-.5h6 6l5-1.5 5-1.5 1.5-3.5 1.5-3.5h7 7l6.5-.5 6.5-.5 5-3 5-3 6-.5 6-.5-5-1-5-1-4.5-1.5-4.5-1.5-1.5 2.5-1.5 2.5-3.5-1-3.5-1-2.5 2.5-2.5 2.5.5-4.5.5-4.5-5-1-5-1-4 2.5-4 2.5-6.5-1.5-6.5-1.5.5-.5.5-.5 8-1 8-1 5.5-2 5.5-2 6.5-2.5 6.5-2.5-5.5.5-5.5.5-7.5 1.5-7.5 1.5-6 .5-6 .5-5.5.5-5.5.5 4.5-3.5 4.5-3.5 4-2 4-2-5-2.5-5-2.5-5.5-1-5.5-1-1 1-1 1h-1.5-1.5l-1.5-.5-1.5-.5-1 1-1 1-2-.5-2-.5-1.5-.5-1.5-.5 1.5-.5 1.5-.5 1.5-1 1.5-1 1.5-.5 1.5-.5h1 1l2 .5 2 .5 1 1 1 1 3.5-3.5 3.5-3.5h2.5 2.5 5 5l-2.5 3.5-2.5 3.5 5 4 5 4 3-4.5 3-4.5 2-4 2-4-2.5-1.5-2.5-1.5 2.5-4.5 2.5-4.5-3-3.5-3-3.5-4.5-2.5-4.5-2.5 4.5-1.5 4.5-1.5-3.5-2.5-3.5-2.5-2 1-2 1-4 2.5-4 2.5-4.5-3.5-4.5-3.5-6 1-6 1 5-3 5-3 6.5-1 6.5-1 1-3 1-3-3.5-2.5-3.5-2.5 4-3 4-3 6.5-2 6.5-2-4 4-4 4 1 2 1 2 5.5-3.5 5.5-3.5 2-4.5 2-4.5 6.5-2.5 6.5-2.5v-2-2l-5.5.5-5.5.5 1-3.5 1-3.5-.5-.5-.5-.5 6.5-2.5 6.5-2.5 2.5-4.5 2.5-4.5-5 1.5-5 1.5-3.5 1.5-3.5 1.5h-3-3l-7 1-7 1-5.5-.5-5.5-.5-5 1.5-5 1.5-3.5.5-3.5.5 2.5-1.5 2.5-1.5 4.5-3.5 4.5-3.5 3 1.5 3 1.5 1-3 1-3-2-2-2-2-6.5.5-6.5.5-7 1.5-7 1.5 6.5-2.5 6.5-2.5 6.5-1.5 6.5-1.5 6.5-2.5 6.5-2.5 5 1.5 5 1.5-6.5 1.5-6.5 1.5.5 4.5.5 4.5 3.5-3.5 3.5-3.5.5 2 .5 2 4.5-2.5 4.5-2.5 6.5-1.5 6.5-1.5v-4-4l-1-2-1-2 6-.5 6-.5-1-3-1-3-7 1-7 1h-1-1l5-2.5 5-2.5-1.5-2.5-1.5-2.5 3.5-3.5 3.5-3.5-2.5-.5-2.5-.5 1.5-2 1.5-2-2-4-2-4 2.5-2.5 2.5-2.5 6-3 6-3-1-1.5-1-1.5-5.5 1.5-5.5 1.5 1-4 1-4 6-2 6-2-6-.5-6-.5-10.5.5-10.5.5-.5 1-.5 1-1 1-1 1-1.5.5-1.5.5-1.5 1-1.5 1-1.5-.5-1.5-.5 1-1.5 1-1.5 1.5-.5 1.5-.5h1.5 1.5l2-1 2-1 4.5-5 4.5-5-2-1-2-1-6 2-6 2 4-4 4-4-2-.5-2-.5-6.5 2.5-6.5 2.5-7 2-7 2h-5-5l6.5-2 6.5-2 3.5-3.5 3.5-3.5 5.5-3.5 5.5-3.5 1.5-3.5 1.5-3.5 2-3.5 2-3.5 3.5-4.5 3.5-4.5-5.5 2.5-5.5 2.5-7 2-7 2-4.5 1.5-4.5 1.5-11 1.5-11 1.5-1-.5-1-.5h-1.5-1.5-1-1l-2 .5-2 .5-1 1-1 1-1.5 1-1.5 1-1.5.5-1.5.5-1.5 1-1.5 1-1.5.5-1.5.5-1 .5-1 .5-1.5 1-1.5 1-.5.5-.5.5-.5.5-.5.5-.5.5-.5.5-1 .5-1 .5-.5.5-.5.5-.5.5-.5.5h-1-1l-.5-.5-.5-.5-1.5.5-1.5.5-1 1-1 1h-1.5-1.5l1 .5 1 .5-1 2-1 2h1.5 1.5l-.5 1.5-.5 1.5h-1-1l-1-.5-1-.5-1 .5-1 .5-5 4-5 4-6.5 9-6.5 9 1 .5 1 .5 1 1.5 1 1.5 1 1 1 1 1 1.5 1 1.5 1 1 1 1 .5 2 .5 2h-1-1l-1-.5-1-.5-6.5-3-6.5-3-5.5 1.5-5.5 1.5-6 3-6 3 4 4 4 4-6.5-1-6.5-1-5 4-5 4-5.5 3.5-5.5 3.5-3 5-3 5h6.5 6.5l.5 5.5.5 5.5-6-3-6-3-5 2-5 2-7.5 5-7.5 5-1.5 1.5-1.5 1.5-1 1-1 1-2 1-2 1-7 3.5-7 3.5-6 3-6 3-7 1.5-7 1.5-5.5 3.5-5.5 3.5-5.5 5-5.5 5 1 .5 1 .5.5 1 .5 1 .5.5.5.5 1 .5 1 .5h-1.5-1.5-1.5-1.5l-.5-.5-.5-.5-1 .5-1 .5-1.5-.5-1.5-.5-.5-1-.5-1-2.5-.5-2.5-.5-1 .5-1 .5v3 3 .5.5l7 3.5 7 3.5-2 11.5-2 11.5-1-.5-1-.5-.5-.5-.5-.5-.5 1-.5 1h-1-1l-.5-.5-.5-.5-1.5-.5-1.5-.5v1.5 1.5 1.5 1.5l1.5.5 1.5.5 2 .5 2 .5 1 1 1 1 1.5.5 1.5.5.5-.5.5-.5h1.5 1.5l1 1 1 1-.5.5-.5.5h-1.5-1.5l-1 1-1 1-.5.5-.5.5h-1.5-1.5-2-2-1-1l-1-.5-1-.5v10.5 10.5 9 9 9 9 8.5 8.5 9 9 9 9 9 9 8.5 8.5 9 9 1.5 1.5" style="stroke:#a5514b;stroke-linejoin:round;stroke-width:.7"/></g><g style="stroke-linejoin:round;stroke-width:.7"><g style="fill:#863733;stroke:#863733"><path d="m328 959v1h1.5 1.5.5.5l1-.5 1-.5h1 1l-.5-1-.5-1 .5-.5.5-.5.5-.5.5-.5-.5-.5-.5-.5-1-.5-1-.5h-1-1-1-1-1-1l-1 .5-1 .5h-1-1v1 1 1 1l-.5.5-.5.5h1 1 1.5 1.5"/><path d="m347 959v1h1 1v-.5-.5h9 9l-2-.5-2-.5-3.5-4.5-3.5-4.5 5 4 5 4 5-3 5-3 4-.5 4-.5 7-1 7-1 3-1 3-1 6.5-1.5 6.5-1.5 3 1.5 3 1.5 4.5 2.5 4.5 2.5 5-1 5-1 5 3 5 3 1-2.5 1-2.5 1.5-2.5 1.5-2.5 3.5 7.5 3.5 7.5h9.5 9.5 9 9 9 9 4.5 4.5v-4-4-9-9-9-9-9-9-8.5-8.5-9-9-9-9-9-9-9-9-8.5-8.5-9-9-9-9-9-9-8.5-8.5-.5-.5h-1-1-1.5-1.5l-1.5-1-1.5-1-.5-.5-.5-.5 1.5-1 1.5-1-1-1-1-1v-1-1l1.5-1 1.5-1 1-1 1-1 1.5.5 1.5.5v-2-2-2-2h-1.5-1.5l-.5.5-.5.5v.5.5l.5 1.5.5 1.5-.5.5-.5.5h-1-1-1-1l-1 .5-1 .5h-1-1l-.5.5-.5.5-.5.5-.5.5h-1.5-1.5l-.5.5-.5.5-.5.5-.5.5v1 1l-1 .5-1 .5-.5.5-.5.5h-1-1-1-1l-7-1-7-1-.5-5.5-.5-5.5h-3-3l-1-3.5-1-3.5 5.5-1.5 5.5-1.5 6.5 1.5 6.5 1.5h1 1l3-4 3-4-3-.5-3-.5h-4-4l-4.5-4.5-4.5-4.5-3.5-.5-3.5-.5h-2.5-2.5l-1 4-1 4 4.5-1.5 4.5-1.5v4 4h-5.5-5.5l-3.5-4.5-3.5-4.5-6.5-1.5-6.5-1.5 3 3 3 3-8 1-8 1 2 .5 2 .5.5-.5.5-.5h1.5 1.5l1 1 1 1v1 1h-2.5-2.5l-1.5-.5-1.5-.5-1-1.5-1-1.5-5-1-5-1-3.5-4-3.5-4 .5-2.5.5-2.5 2.5 1.5 2.5 1.5h5 5l1-1.5 1-1.5 2.5-3.5 2.5-3.5.5 4.5.5 4.5 5-3 5-3-3.5-4-3.5-4v-4-4l5.5-3.5 5.5-3.5 5.5-2.5 5.5-2.5 2.5-4 2.5-4-2-5-2-5 5-1 5-1-5.5-.5-5.5-.5-6.5 2-6.5 2 1-3 1-3-.5-1.5-.5-1.5-5.5 2.5-5.5 2.5-1 2-1 2h4.5 4.5l4.5 3.5 4.5 3.5-7 1-7 1 4.5.5 4.5.5-3 3.5-3 3.5-2.5-1.5-2.5-1.5-4.5-.5-4.5-.5 1.5-3.5 1.5-3.5h-5.5-5.5l-9 .5-9 .5-6 2.5-6 2.5 2-3 2-3 4-5 4-5 4.5 2 4.5 2 5.5-1.5 5.5-1.5 2-4 2-4h-5-5l3.5-3 3.5-3-1-3-1-3-5 4-5 4-5 4-5 4-4.5 4-4.5 4-9 6.5-9 6.5h2 2l.5-.5.5-.5 1 .5 1 .5.5.5.5.5.5.5.5.5.5.5.5.5 1-.5 1-.5v1 1h-1-1l-2-.5-2-.5h-1-1-1-1-1-1v-1.5-1.5l-6 2-6 2 2-4 2-4 5.5-1.5 5.5-1.5 3.5-5 3.5-5 5-4 5-4 5.5-3.5 5.5-3.5 4-5 4-5 4.5-3 4.5-3h-2-2l-5.5 3.5-5.5 3.5-4 4-4 4-5 4-5 4-5.5 3-5.5 3 3-3 3-3 4.5-4.5 4.5-4.5 5.5-3.5 5.5-3.5 4.5-4 4.5-4 5.5-3.5 5.5-3.5 3-1 3-1-.5 3.5-.5 3.5 5-3.5 5-3.5 3.5-3.5 3.5-3.5-1.5-1.5-1.5-1.5.5-3.5.5-3.5h-4.5-4.5l5.5-1.5 5.5-1.5 4.5-1.5 4.5-1.5-2.5 3.5-2.5 3.5 4.5-1 4.5-1 5-4 5-4 6-3 6-3 4-3 4-3 1.5 2 1.5 2 2.5 1.5 2.5 1.5 5-3 5-3-4-1-4-1-3-4.5-3-4.5 5.5 1.5 5.5 1.5h5 5v-2-2-.5-.5l-1 .5-1 .5v-1-1l-1-.5-1-.5-.5-.5-.5-.5h-1-1l-.5.5-.5.5-.5.5-.5.5-1 .5-1 .5h-1-1-1-1-1-1l2.5-2 2.5-2 3-5 3-5 3-2 3-2v-10-10-9-9-9-9-9-9-8.5-8.5-9-9-3.5-3.5l-2.5 2.5-2.5 2.5-2 5.5-2 5.5-3.5 5.5-3.5 5.5-4 5-4 5-3 6-3 6-3.5 5-3.5 5-4 5-4 5-3.5 5.5-3.5 5.5-1 2-1 2 4.5-4 4.5-4 4-5 4-5 4.5-4.5 4.5-4.5 1.5-1.5 1.5-1.5-3.5 5.5-3.5 5.5-4 4.5-4 4.5-4 5-4 5-4.5 4.5-4.5 4.5-4.5 4.5-4.5 4.5v.5.5l-2.5 4-2.5 4-3.5 5.5-3.5 5.5-6.5 2.5-6.5 2.5-5.5 3.5-5.5 3.5-5 4-5 4-5 3.5-5 3.5-5.5 3.5-5.5 3.5-5 3-5 3-4 2-4 2-12 .5-12 .5-6.5-2-6.5-2-7.5-.5-7.5-.5-6.5.5-6.5.5-.5-1.5-.5-1.5-6 .5-6 .5-5.5-1.5-5.5-1.5-7.5 1.5-7.5 1.5-1.5 1-1.5 1h-2-2l-1 1.5-1 1.5.5 1.5.5 1.5-1.5 1.5-1.5 1.5-.5 1-.5 1-.5.5-.5.5-1 .5-1 .5-1 1-1 1v2 2h1 1 1.5 1.5l1 1 1 1-.5.5-.5.5h-1.5-1.5l-1 1-1 1h-1-1l-1 .5-1 .5-2-.5-2-.5-1.5-1.5-1.5-1.5-1.5 1-1.5 1 .5 1 .5 1 11-1.5 11-1.5 4.5-1.5 4.5-1.5 7-2 7-2 5.5-2.5 5.5-2.5-3.5 4.5-3.5 4.5-2 3.5-2 3.5-1.5 3.5-1.5 3.5-5.5 3.5-5.5 3.5-3.5 3.5-3.5 3.5-6.5 2-6.5 2h5 5l7-2 7-2 6.5-2.5 6.5-2.5 2 .5 2 .5-4 4-4 4 6-2 6-2 2 1 2 1-4.5 5-4.5 5 10.5-.5 10.5-.5 6 .5 6 .5-6 2-6 2-1 4-1 4 5.5-1.5 5.5-1.5 1 1.5 1 1.5-6 3-6 3-2.5 2.5-2.5 2.5 2 4 2 4-1.5 2-1.5 2 2.5.5 2.5.5-3.5 3.5-3.5 3.5 1.5 2.5 1.5 2.5-5 2.5-5 2.5h1 1l7-1 7-1 1 3 1 3-6 .5-6 .5 1 2 1 2v4 4l-6.5 1.5-6.5 1.5-4.5 2.5-4.5 2.5-.5-2-.5-2-3.5 3.5-3.5 3.5-.5-4.5-.5-4.5 6.5-1.5 6.5-1.5-5-1.5-5-1.5-6.5 2.5-6.5 2.5-6.5 1.5-6.5 1.5-6.5 2.5-6.5 2.5 7-1.5 7-1.5 6.5-.5 6.5-.5 2 2 2 2-1 3-1 3-3-1.5-3-1.5-4.5 3.5-4.5 3.5-2.5 1.5-2.5 1.5 3.5-.5 3.5-.5 5-1.5 5-1.5 5.5.5 5.5.5 7-1 7-1h3 3l3.5-1.5 3.5-1.5 5-1.5 5-1.5-2.5 4.5-2.5 4.5-6.5 2.5-6.5 2.5.5.5.5.5-1 3.5-1 3.5 5.5-.5 5.5-.5v2 2l-6.5 2.5-6.5 2.5-2 4.5-2 4.5-5.5 3.5-5.5 3.5-1-2-1-2 4-4 4-4-6.5 2-6.5 2-4 3-4 3 3.5 2.5 3.5 2.5-1 3-1 3-6.5 1-6.5 1-5 3-5 3 6-1 6-1 4.5 3.5 4.5 3.5 4-2.5 4-2.5 2-1 2-1 3.5 2.5 3.5 2.5-4.5 1.5-4.5 1.5 4.5 2.5 4.5 2.5 3 3.5 3 3.5-2.5 4.5-2.5 4.5 2.5 1.5 2.5 1.5-2 4-2 4-3 4.5-3 4.5-5-4-5-4 2.5-3.5 2.5-3.5h-5-5-2.5-2.5l-3.5 3.5-3.5 3.5 5.5 1 5.5 1 5 2.5 5 2.5-4 2-4 2-4.5 3.5-4.5 3.5 5.5-.5 5.5-.5 6-.5 6-.5 7.5-1.5 7.5-1.5 5.5-.5 5.5-.5-6.5 2.5-6.5 2.5-5.5 2-5.5 2-8 1-8 1-.5.5-.5.5 6.5 1.5 6.5 1.5 4-2.5 4-2.5 5 1 5 1-.5 4.5-.5 4.5 2.5-2.5 2.5-2.5 3.5 1 3.5 1 1.5-2.5 1.5-2.5 4.5 1.5 4.5 1.5 5 1 5 1-6 .5-6 .5-5 3-5 3-6.5.5-6.5.5h-7-7l-1.5 3.5-1.5 3.5-5 1.5-5 1.5h-6-6l-4.5.5-4.5.5-6 2-6 2 .5 5 .5 5 5 1 5 1-6 1-6 1-1 1-1 1-6-.5-6-.5 3.5 2.5 3.5 2.5-1 3-1 3 5.5-.5 5.5-.5 1.5-3 1.5-3 7.5-1 7.5-1 5 2 5 2 3.5-3.5 3.5-3.5 3 2.5 3 2.5 6-1 6-1 1-3 1-3 4.5.5 4.5.5 6-.5 6-.5 6-1 6-1 6.5-.5 6.5-.5 1.5-1.5 1.5-1.5 6-.5 6-.5 1 5 1 5-5.5 1.5-5.5 1.5-5 2-5 2-6.5 2-6.5 2-6 2-6 2-7 1-7 1-1.5 5.5-1.5 5.5 2-2.5 2-2.5 4 2 4 2 5.5-3.5 5.5-3.5 4-2 4-2 7 .5 7 .5 4 2 4 2 5.5-2.5 5.5-2.5 2-2 2-2 7 .5 7 .5 5.5-1.5 5.5-1.5-1.5 2.5-1.5 2.5-3.5 1.5-3.5 1.5-1.5 2.5-1.5 2.5 3 1.5 3 1.5v4 4l-4 3-4 3-2 2-2 2-.5-6-.5-6-3.5 3.5-3.5 3.5-6 1-6 1 1.5 4.5 1.5 4.5 2.5 1 2.5 1 6.5-.5 6.5-.5 4.5 3.5 4.5 3.5v6 6l-4 3.5-4 3.5-5.5 1.5-5.5 1.5-4.5 3.5-4.5 3.5-4.5.5-4.5.5 5 1.5 5 1.5-2 1.5-2 1.5"/></g><path d="m349 959v1h1.5 1.5 2 2 2.5 2.5 2 2 2.5 2.5 2 2v-.5-.5l1-.5 1-.5h2 2l2-.5 2-.5 1.5.5 1.5.5.5 1 .5 1h1.5 1.5 2 2 2.5 2.5 2 2 2.5 2.5 2 2 2 2 2.5 2.5 1 1v-.5-.5l6.5-2 6.5-2 4 2 4 2-6.5.5-6.5.5h2 2 2 2 2.5 2.5 2 2 2.5 2.5 2 2 2.5 2.5.5.5l-3.5-7.5-3.5-7.5-1.5 2.5-1.5 2.5-1 2.5-1 2.5-5-3-5-3-5 1-5 1-4.5-2.5-4.5-2.5-3-1.5-3-1.5-6.5 1.5-6.5 1.5-3 1-3 1-7 1-7 1-4 .5-4 .5-5 3-5 3-5-4-5-4 3.5 4.5 3.5 4.5 2 .5 2 .5h-9-9" style="fill:#a5514b;stroke:#a5514b"/><g style="fill:#863733;stroke:#863733"><path d="m374 959v1h1.5 1.5 2 2 2.5 2.5 1 1l-.5-1-.5-1-1.5-.5-1.5-.5-2 .5-2 .5h-2-2l-1 .5-1 .5"/><path d="m424 959v1h1.5 1.5 2 2 .5.5l6.5-.5 6.5-.5-4-2-4-2-6.5 2-6.5 2"/></g><g style="fill:#a5514b;stroke:#a5514b"><path d="m502 955h2l1-1 1-1v-1.5-1.5l-1.5-.5-1.5-.5-1-.5-1-.5-.5-1.5-.5-1.5-2 .5-2 .5 1 1 1 1 .5 1.5.5 1.5 1 1.5 1 1.5.5.5.5.5"/><path d="m521 949h2l1-1 1-1v-1.5-1.5l-1.5.5-1.5.5-1 .5-1 .5-1.5.5-1.5.5.5 1 .5 1h1 1 .5.5"/><path d="m462 947h2l1.5-.5 1.5-.5v-1.5-1.5l-1-1-1-1-2 .5-2 .5-1 1-1 1 1 1.5 1 1.5h.5.5"/><path d="m444 946l10-6 5-2.5 5-2.5 6-2 6-2 3-2 3-2-4 2-4 2h-6-6l-6 .5-6 .5-3 2-3 2-4.5.5-4.5.5 2 1 2 1 2.5 3.5 2.5 3.5"/></g><path d="m297 945l8-4h7.5 7.5l2-4 2-4-4.5.5-4.5.5-3 1-3 1-7 1-7 1-1.5 2-1.5 2 2.5 1.5 2.5 1.5" style="fill:#863733;stroke:#863733"/><path d="m384 938h14l5-2.5 5-2.5 3.5-3.5 3.5-3.5.5-3.5.5-3.5-3.5 1.5-3.5 1.5-5 2-5 2h-4.5-4.5l-.5 3.5-.5 3.5-2.5.5-2.5.5v2 2" style="fill:#a5514b;stroke:#a5514b"/><g style="fill:#863733;stroke:#863733"><path d="m353 934l10-4 3-1.5 3-1.5-4-2-4-2-4.5 3.5-4.5 3.5-5-1-5-1 3 2 3 2 2.5 1 2.5 1"/><path d="m375 930h2v-2-2l-1-1.5-1-1.5-1.5.5-1.5.5.5 2 .5 2 1 1 1 1"/></g><g style="fill:#d87269;stroke:#d87269"><path d="m30 925l15-5-2-1.5-2-1.5-4.5 1.5-4.5 1.5-1 2.5-1 2.5"/><path d="m68 919v-10h-5.5-5.5l-2 4-2 4 6.5-.5 6.5-.5 1 1.5 1 1.5"/></g><g style="fill:#a5514b;stroke:#a5514b"><path d="m519 919h2l1-1 1-1 .5-2 .5-2-1.5-.5-1.5-.5-1 1.5-1 1.5-1 1-1 1 1 1 1 1"/><path d="m385 918l8-8-5-1.5-5-1.5-1 1-1 1-2 2-2 2 4 2.5 4 2.5"/><path d="m440 918l3 1 1.5-.5 1.5-.5-.5-2-.5-2-1.5-.5-1.5-.5-1 1.5-1 1.5v1 1"/><path d="m406 913l9-9-5 .5-5 .5.5 4 .5 4"/></g><g style="fill:#863733;stroke:#863733"><path d="m265 895l12-6-4.5 1-4.5 1-1.5 2-1.5 2"/><path d="m282 891l3 1 1.5-.5 1.5-.5-.5-1-.5-1v-2-2l-2 .5-2 .5-.5 1.5-.5 1.5-.5 1-.5 1h.5.5"/></g><g style="fill:#a5514b;stroke:#a5514b"><path d="m397 891h2l1.5-.5 1.5-.5-1-1.5-1-1.5-1-1-1-1-1.5 1-1.5 1 .5 1.5.5 1.5.5.5.5.5"/><path d="m473 889l3 1 1-1 1-1-1-1.5-1-1.5-1.5-.5-1.5-.5-1 1.5-1 1.5 1 1 1 1"/><path d="m423 887h2v-2-2l-1-1.5-1-1.5-1.5-.5-1.5-.5v1.5 1.5l1 1 1 1 .5 1.5.5 1.5"/></g><g style="fill:#863733;stroke:#863733"><path d="m256 874l3 1 .5-1.5.5-1.5-.5-1-.5-1-1-1-1-1-1.5 1.5-1.5 1.5-1.5.5-1.5.5-.5 1-.5 1h1.5 1.5 1.5 1.5"/><path d="m227 861l3 1 1-1 1-1h2.5 2.5l1-1 1-1-1.5-1-1.5-1-1.5-.5-1.5-.5-2 .5-2 .5-1.5.5-1.5.5-1 1-1 1 .5 1 .5 1h1 1"/></g><path d="m396 854l3 1 1-1 1-1 1-1.5 1-1.5-1-1-1-1-1-1.5-1-1.5-1.5-.5-1.5-.5-2 .5-2 .5v2 2 1 1l1 1.5 1 1.5h1 1" style="fill:#a5514b;stroke:#a5514b"/><path d="m403 845h2l.5-1.5.5-1.5v-1.5-1.5l-1-1-1-1-1.5 1-1.5 1v2 2l1 1 1 1" style="fill:#6c221a;stroke:#6c221a"/><g style="fill:#863733;stroke:#863733"><path d="m263 834l9-3h-5.5-5.5l1 1.5 1 1.5"/><path d="m290 833h2l1-1 1-1 1.5-1 1.5-1h-2-2l-1-1.5-1-1.5h-1-1l.5 2 .5 2v1.5 1.5"/></g><g style="fill:#a5514b;stroke:#a5514b"><path d="m366 819h2l1.5-.5 1.5-.5-1-1.5-1-1.5-1.5-.5-1.5-.5-2 .5-2 .5-1.5.5-1.5.5 2 .5 2 .5 1 1 1 1h.5.5"/><path d="m316 811l3 1 1-1 1-1-1-1.5-1-1.5-1.5-.5-1.5-.5-1 1.5-1 1.5-.5.5-.5.5 1.5.5 1.5.5"/></g><g style="fill:#863733;stroke:#863733"><path d="m246 809l7-5-3 1.5-3 1.5-1.5.5-1.5.5 1 .5 1 .5"/><path d="m200 805h2l1-1 1-1 1.5 1 1.5 1 1.5.5 1.5.5 1.5-1 1.5-1-1-1-1-1h-2.5-2.5l-1.5-.5-1.5-.5-1 1-1 1-.5 1-.5 1"/><path d="m228 805h2v-2-2l-2-.5-2-.5-1.5.5-1.5.5h-1.5-1.5-2-2l1 1.5 1 1.5h2 2 1 1l2 .5 2 .5"/><path d="m243 800l4 1 1-1 1-1 1.5.5 1.5.5h1.5 1.5l1-1 1-1-1-1-1-1-2-.5-2-.5h-1-1l-1.5.5-1.5.5-1.5 1-1.5 1-1.5.5-1.5.5 1.5.5 1.5.5"/></g><path d="m2 794h2 2 2 1.5 1.5l.5-.5.5-.5 1-1 1-1h1.5 1.5l.5-.5.5-.5-1-1-1-1h-1.5-1.5l-.5.5-.5.5-1.5-.5-1.5-.5-1-1-1-1-2-.5-2-.5-1.5-.5-1.5-.5v2.5 2.5 2 2l1 .5 1 .5" style="fill:#d87269;stroke:#d87269"/><path d="m299 786h2l.5-1.5.5-1.5.5-2 .5-2-.5-1.5-.5-1.5-2 .5-2 .5.5 1.5.5 1.5v1.5 1.5l-1 1-1 1 1 .5 1 .5" style="fill:#a5514b;stroke:#a5514b"/><g style="fill:#863733;stroke:#863733"><path d="m10 780l4-23-7-3.5-7-3.5v2 2l6 3 6 3-4 8.5-4 8.5-2-.5-2-.5v1 1l1.5.5 1.5.5.5.5.5.5h1 1l.5-1 .5-1 .5.5.5.5 1 .5 1 .5"/><path d="m271 778l4-8-5-1.5-5-1.5-5-1-5-1-3-1-3-1 .5 4.5.5 4.5h4 4l4 .5 4 .5 2.5 2.5 2.5 2.5"/></g><path d="m4 777l8-17-6-3-6-3v2 2 2.5 2.5 2 2 2.5 2.5 2 2l2 .5 2 .5" style="fill:#6c221a;stroke:#6c221a"/><g style="fill:#d87269;stroke:#d87269"><path d="m38 764l13-1-5-3.5-5-3.5-4-1-4-1h-.5-.5l1 1 1 1 1 1 1 1 1 1.5 1 1.5.5 1.5.5 1.5h-.5-.5"/><path d="m22 755h2l1.5-.5 1.5-.5h2.5 2.5l-.5-1.5-.5-1.5v-1.5-1.5l-1-1-1-1-1 1.5-1 1.5-1.5.5-1.5.5v1 1l-2 .5-2 .5 1 1 1 1"/><path d="m17 746h3l-1-.5-1-.5-.5-.5-.5-.5-.5-1-.5-1-1-.5-1-.5-2.5.5-2.5.5-1 .5-1 .5.5 1 .5 1 1.5.5 1.5.5 1-.5 1-.5.5.5.5.5h1.5 1.5"/></g><path d="m0 742v1l1-.5 1-.5 2.5.5 2.5.5 1-.5 1-.5 2.5-.5 2.5-.5 5.5-5 5.5-5 5.5-3.5 5.5-3.5 7-1.5 7-1.5 6-3 6-3 7-3.5 7-3.5-7 2.5-7 2.5-6 3-6 3-1-2-1-2-6.5 2-6.5 2-.5 2.5-.5 2.5-6 3-6 3-11 2.5-11 2.5v2 2l7-2 7-2-7 3.5-7 3.5" style="fill:#863733;stroke:#863733"/><g style="fill:#6c221a;stroke:#6c221a"><path d="m0 741v1l7-3.5 7-3.5-7 2-7 2v1 1"/><path d="m0 734v1l11-2.5 11-2.5 6-3 6-3 .5-2.5.5-2.5 6.5-2 6.5-2 1 2 1 2 6-3 6-3 7-2.5 7-2.5 2-1 2-1 1-1 1-1 1.5-1.5 1.5-1.5v-.5-.5l5-4.5 5-4.5 4.5-4.5 4.5-4.5 4-5 4-5 5-4 5-4 4.5-4 4.5-4v-1-1h-2-2l-3 1-3 1 5.5-8.5 5.5-8.5-5.5 4-5.5 4-4.5 4.5-4.5 4.5-5 3.5-5 3.5-10 7.5-10 7.5-.5 1-.5 1-1.5 1-1.5 1-1.5.5-1.5.5-1 1.5-1 1.5-1.5.5-1.5.5-1.5.5-1.5.5-1.5 1-1.5 1v1 1l-.5.5-.5.5-1 .5-1 .5h-1-1l-.5.5-.5.5h-1-1-1.5-1.5l-1 .5-1 .5-4.5 4-4.5 4 7.5-1.5 7.5-1.5-3 3.5-3 3.5 5.5.5 5.5.5-4.5.5-4.5.5-6.5 2.5-6.5 2.5-7 2-7 2-5 2.5-5 2.5-5.5 1.5-5.5 1.5-1-1-1-1-1.5.5-1.5.5v1.5 1.5 2.5 2.5"/><path d="m479 733h2l-.5-1.5-.5-1.5-1.5-1-1.5-1-1-1-1-1-.5 2-.5 2 .5.5.5.5 2 .5 2 .5v.5.5"/></g><path d="m5 727l11-3 5-2.5 5-2.5 7-2 7-2 6.5-2.5 6.5-2.5 4.5-.5 4.5-.5-5.5-.5-5.5-.5 3-3.5 3-3.5-7.5 1.5-7.5 1.5 4.5-4 4.5-4-5 2.5-5 2.5-6 2.5-6 2.5h-8-8-1.5-1.5l-.5-.5-.5-.5h-1.5-1.5l-1-1-1-1 1-1.5 1-1.5-1.5-.5-1.5-.5h-1.5-1.5v1.5 1.5 2 2 2.5 2.5.5.5l8-1.5 8-1.5h3 3v2.5 2.5l-11 4-11 4v1.5 1.5.5.5l1.5-.5 1.5-.5 1 1 1 1" style="fill:#863733;stroke:#863733"/><path d="m35 727l18-2 6.5-1 6.5-1-5.5-.5-5.5-.5-7.5 1.5-7.5 1.5-2.5 1-2.5 1" style="fill:#d87269;stroke:#d87269"/><path d="m271 724l11-9-6 2.5-6 2.5-1.5 1.5-1.5 1.5 2 .5 2 .5" style="fill:#863733;stroke:#863733"/><g style="fill:#6c221a;stroke:#6c221a"><path d="m0 721v1l11-4 11-4v-2.5-2.5h-3-3l-8 1.5-8 1.5v1.5 1.5 2.5 2.5.5.5"/><path d="m526 720h2v-2-2-2.5-2.5-1.5-1.5l-1.5-.5-1.5-.5-1 1-1 1-1.5 1-1.5 1v1 1l1 1 1 1-1.5 1-1.5 1 .5.5.5.5 1.5 1 1.5 1h1.5 1.5"/><path d="m478 716l3 1 .5-1.5.5-1.5-1-1.5-1-1.5-1.5.5-1.5.5-1.5 1-1.5 1v1 1h2 2"/><path d="m502 715h2 1 1l.5-.5.5-.5 1-.5 1-.5v-1-1l.5-.5.5-.5.5-.5.5-.5h1.5 1.5l.5-.5.5-.5.5-.5.5-.5h1 1l1-.5 1-.5h1 1 1 1l.5-.5.5-.5-.5-1.5-.5-1.5v-.5-.5l.5-.5.5-.5h1.5 1.5v-9.5-9.5-9-9-9-9-8.5-8.5-9-9-9-9-9-9-8.5-8.5-9-9-3.5-3.5h-5-5l-5.5-1.5-5.5-1.5 3 4.5 3 4.5 4 1 4 1-5 3-5 3-2.5-1.5-2.5-1.5-1.5-2-1.5-2-4 3-4 3-6 3-6 3-5 4-5 4-4.5 1-4.5 1 2.5-3.5 2.5-3.5-4.5 1.5-4.5 1.5-5.5 1.5-5.5 1.5h4.5 4.5l-.5 3.5-.5 3.5 1.5 1.5 1.5 1.5-3.5 3.5-3.5 3.5-5 3.5-5 3.5.5-3.5.5-3.5-3 1-3 1-5.5 3.5-5.5 3.5-4.5 4-4.5 4-5.5 3.5-5.5 3.5-4.5 4.5-4.5 4.5-3 3-3 3 5.5-3 5.5-3 5-4 5-4 4-4 4-4 5.5-3.5 5.5-3.5h2 2l-4.5 3-4.5 3-4 5-4 5-5.5 3.5-5.5 3.5-5 4-5 4-3.5 5-3.5 5-5.5 1.5-5.5 1.5-2 4-2 4 6-2 6-2 9-6.5 9-6.5 4.5-4 4.5-4 5-4 5-4 5-4 5-4 1 3 1 3-3.5 3-3.5 3h5 5l-2 4-2 4-5.5 1.5-5.5 1.5-4.5-2-4.5-2-4 5-4 5-2 3-2 3 6-2.5 6-2.5-1-.5-1-.5-1-.5-1-.5v-1-1-1-1l.5-.5.5-.5h1 1l.5 1 .5 1 .5.5.5.5h1 1l.5.5.5.5h1 1l1 .5 1 .5-.5.5-.5.5-.5.5-.5.5h-1-1l-.5-1-.5-1h-1-1l-.5 1-.5 1 9-.5 9-.5h5.5 5.5l-1.5 3.5-1.5 3.5 4.5.5 4.5.5 2.5 1.5 2.5 1.5 3-3.5 3-3.5-4.5-.5-4.5-.5 7-1 7-1-4.5-3.5-4.5-3.5h-4.5-4.5l1-2 1-2 5.5-2.5 5.5-2.5.5 1.5.5 1.5-1 3-1 3 6.5-2 6.5-2 5.5.5 5.5.5-5 1-5 1 2 5 2 5-2.5 4-2.5 4-5.5 2.5-5.5 2.5-5.5 3.5-5.5 3.5v4 4l3.5 4 3.5 4-5 3-5 3-.5-4.5-.5-4.5-2.5 3.5-2.5 3.5-1 1.5-1 1.5h-5-5l-2.5-1.5-2.5-1.5-.5 2.5-.5 2.5 3.5 4 3.5 4 5 1 5 1 8-1 8-1-3-3-3-3 6.5 1.5 6.5 1.5 3.5 4.5 3.5 4.5h5.5 5.5v-4-4l-4.5 1.5-4.5 1.5 1-4 1-4h2.5 2.5l3.5.5 3.5.5 4.5 4.5 4.5 4.5h4 4l3 .5 3 .5-3 4-3 4h-1-1l-6.5-1.5-6.5-1.5-5.5 1.5-5.5 1.5 1 3.5 1 3.5h3 3l.5 5.5.5 5.5 7 1 7 1"/></g><path d="m231 710l3 1h2 2l1.5-1 1.5-1 1.5-.5 1.5-.5-1-.5-1-.5h-2-2l-2 .5-2 .5-1.5.5-1.5.5v.5.5" style="fill:#863733;stroke:#863733"/><path d="m13 706h16l6-2.5 6-2.5 5-2.5 5-2.5 1-.5 1-.5v-.5-.5h1.5 1.5v-1-1l2-.5 2-.5 1-1 1-1 1 .5 1 .5 1.5-1 1.5-1v-.5-.5l1.5-1 1.5-1 1.5-1 1.5-1 1-1 1-1 2-.5 2-.5 1.5-1 1.5-1 10-7.5 10-7.5 5-3.5 5-3.5 4.5-4.5 4.5-4.5 5.5-4 5.5-4 4.5-4 4.5-4 4-3 4-3 4.5-1.5 4.5-1.5-5 3.5-5 3.5h4 4 2 2l1-.5 1-.5 1.5-1 1.5-1 .5-1 .5-1 1-1 1-1v-1-1h1.5 1.5l1-1 1-1 .5-.5.5-.5 1-.5 1-.5 1-1 1-1 .5-.5.5-.5.5-.5.5-.5.5-.5.5-.5h1.5 1.5v-1-1l.5-.5.5-.5h1 1l1-.5 1-.5 1.5.5 1.5.5 1-.5 1-.5 1 .5 1 .5h1 1l.5-1.5.5-1.5h-1.5-1.5l-5-2-5-2-3-1.5-3-1.5-4.5 2-4.5 2-5 2.5-5 2.5-1 .5-1 .5-.5 1-.5 1-1 1-1 1 .5 1.5.5 1.5-2 .5-2 .5-.5 1.5-.5 1.5-2 .5-2 .5-1 1-1 1-1.5 1-1.5 1-1 1.5-1 1.5-5 5.5-5 5.5-5.5 3.5-5.5 3.5-5 4-5 4-4.5 4-4.5 4-5 4-5 4-4 2-4 2 5-4 5-4-.5-1.5-.5-1.5-4.5 4-4.5 4-6 3-6 3-5.5 3.5-5.5 3.5-6.5 2.5-6.5 2.5-6.5 2-6.5 2-8.5.5-8.5.5-.5-.5-.5-.5 1.5-.5 1.5-.5 1.5-1 1.5-1-2-.5-2-.5h-2-2-1-1l-1.5-.5-1.5-.5h-1-1-1.5-1.5l-2 .5-2 .5v2.5 2.5 2 2 1 1h1.5 1.5l1.5.5 1.5.5-1 1.5-1 1.5 1 1 1 1h1.5 1.5l.5.5.5.5h1.5 1.5" style="fill:#b03826;stroke:#b03826"/><g style="fill:#863733;stroke:#863733"><path d="m492 704l3 1 1-1 1-1 1.5-1 1.5-1 1-1 1-1-2-.5-2-.5-1.5-.5-1.5-.5-1 1.5-1 1.5-1.5.5-1.5.5.5 1.5.5 1.5h.5.5"/><path d="m85 700v1l7.5-5 7.5-5 5-2 5-2 6 3 6 3-.5-5.5-.5-5.5h-6.5-6.5l3-5 3-5 5.5-3.5 5.5-3.5 5-4 5-4 6.5 1 6.5 1-4-4-4-4 6-3 6-3 5.5-1.5 5.5-1.5 6.5 3 6.5 3-5.5-4-5.5-4-1.5-3-1.5-3-4.5 4.5-4.5 4.5-2.5-1.5-2.5-1.5 6-5.5 6-5.5h-2-2-4-4l5-3.5 5-3.5-4.5 1.5-4.5 1.5-4 3-4 3-4.5 4-4.5 4-5.5 8.5-5.5 8.5 3-1 3-1h2 2v1 1l-4.5 4-4.5 4-5 4-5 4-4 5-4 5-4.5 4.5-4.5 4.5-5 4.5-5 4.5"/><path d="m53 694v1h1.5 1.5 1 1l.5-.5.5-.5h1 1l1-.5 1-.5.5-.5.5-.5v-1-1l-1-.5-1-.5-1 1-1 1-2 .5-2 .5v1 1h-1.5-1.5"/></g><g style="fill:#a5514b;stroke:#a5514b"><path d="m17 693l17-1 6.5-2 6.5-2 6.5-2.5 6.5-2.5 5.5-3.5 5.5-3.5 6-3 6-3 4.5-4 4.5-4 .5 1.5.5 1.5-5 4-5 4 4-2 4-2 5-4 5-4 4.5-4 4.5-4 5-4 5-4 5.5-3.5 5.5-3.5 5-5.5 5-5.5-1-.5-1-.5 1-1 1-1 1-.5 1-.5.5-.5.5-.5.5-.5.5-.5.5-.5.5-.5 1-.5 1-.5.5-.5.5-.5.5-.5.5-.5.5-.5.5-.5.5-1 .5-1 .5-.5.5-.5 1.5-.5 1.5-.5 1-1 1-1 .5-1 .5-1 1-.5 1-.5h-2-2l-5 4-5 4-5 3.5-5 3.5 4-5 4-5 2-3 2-3 3.5-4.5 3.5-4.5 2.5-3 2.5-3-5 4-5 4-6 4.5-6 4.5.5 1 .5 1h-1-1l-1.5 1-1.5 1-.5 1.5-.5 1.5-1.5.5-1.5.5-1 1.5-1 1.5-1.5.5-1.5.5-1 1.5-1 1.5-1 1-1 1-1.5 1-1.5 1 .5 1.5.5 1.5.5 1.5.5 1.5-4.5 4.5-4.5 4.5-4.5 4-4.5 4-8.5 6.5-8.5 6.5-1.5 1.5-1.5 1.5-1.5.5-1.5.5-2 1.5-2 1.5-6 4-6 4-6.5 2.5-6.5 2.5-6.5 2-6.5 2-8 1-8 1-1.5 1-1.5 1-1.5.5-1.5.5.5.5.5.5"/><path d="m12 688h2 2 2l2 .5 2 .5v-.5-.5l6-3 6-3 6-2.5 6-2.5 6-2.5 6-2.5-4.5.5-4.5.5-2.5-.5-2.5-.5-7 1.5-7 1.5 6.5-2.5 6.5-2.5 2.5-3.5 2.5-3.5 6.5-2.5 6.5-2.5-6 1.5-6 1.5-7 2-7 2-.5-.5-.5-.5 5-4 5-4 6-2.5 6-2.5 7-2 7-2 5.5-3.5 5.5-3.5 5.5-3.5 5.5-3.5 6-3 6-3-6.5 2-6.5 2-6 3-6 3-5.5 3.5-5.5 3.5 1-1.5 1-1.5-1-2-1-2-6 3-6 3-2 3-2 3-1.5 1-1.5 1-6.5 1.5-6.5 1.5-3.5 2.5-3.5 2.5-12.5 3-12.5 3h-1-1-1-1v3 3 2 2 2.5 2.5 2 2 2 2l2-.5 2-.5h1.5 1.5 1 1l1.5.5 1.5.5"/></g><path d="m22 688v1l8-1 8-1 6.5-2 6.5-2 6.5-2.5 6.5-2.5 6-4 6-4-.5-.5-.5-.5.5-1 .5-1 .5-.5.5-.5h1.5 1.5l.5-1.5.5-1.5.5-.5.5-.5 1-.5 1-.5 1 1 1 1 8.5-6.5 8.5-6.5 4.5-4 4.5-4 4.5-4.5 4.5-4.5-.5-1.5-.5-1.5-1.5 1.5-1.5 1.5-1 1-1 1-1.5 1-1.5 1-1 1-1 1-1.5 1-1.5 1-1 1-1 1h-1.5-1.5l1-1 1-1 1-.5 1-.5 1-1 1-1 .5-.5.5-.5 1-.5 1-.5 1-1 1-1 .5-.5.5-.5 1-.5 1-.5 2-1 2-1-.5-1.5-.5-1.5 1.5-1 1.5-1 1-1 1-1 1-1.5 1-1.5 1.5-.5 1.5-.5 1-1.5 1-1.5 1.5-.5 1.5-.5.5-1.5.5-1.5 1.5-1 1.5-1h1 1l-.5-1-.5-1-2 1-2 1-1.5.5-1.5.5-1.5 1-1.5 1-5 4-5 4-5 3.5-5 3.5-8 4-8 4 2-1 2-1 1-1 1-1 1.5-1 1.5-1 1-1.5 1-1.5-6 3-6 3-5.5 3.5-5.5 3.5-5.5 3.5-5.5 3.5-7 2-7 2-6 2.5-6 2.5-5 4-5 4 .5.5.5.5 7-2 7-2 6-1.5 6-1.5-6.5 2.5-6.5 2.5-2.5 3.5-2.5 3.5-6.5 2.5-6.5 2.5 7-1.5 7-1.5 2.5.5 2.5.5 4.5-.5 4.5-.5-6 2.5-6 2.5-6 2.5-6 2.5-6 3-6 3" style="fill:#b03826;stroke:#b03826"/><path d="m444 688l3 1h2.5 2.5v-1-1l-1-1-1-1h-1.5-1.5l-.5.5-.5.5-2-.5-2-.5 1 1.5 1 1.5" style="fill:#6c221a;stroke:#6c221a"/><g style="fill:#863733;stroke:#863733"><path d="m67 687v1l1.5-.5 1.5-.5 1.5-.5 1.5-.5 1-1.5 1-1.5 1.5-.5 1.5-.5 1.5-1 1.5-1 .5-1 .5-1-1.5 1-1.5 1-2 .5-2 .5-1 1-1 1-1.5 1-1.5 1-1.5 1-1.5 1"/><path d="m292 681l3 1h2 2l2-.5 2-.5-1-1-1-1-1.5-1-1.5-1h-2-2l-1 1.5-1 1.5v.5.5"/><path d="m524 674l-1-7-5.5-2-5.5-2-1 4-1 4h6 6l1 1.5 1 1.5"/><path d="m75 669l1 1 2-1.5 2-1.5 1.5-.5 1.5-.5 1.5-1.5 1.5-1.5-1-1-1-1-1 .5-1 .5-.5.5-.5.5-.5 1.5-.5 1.5h-1.5-1.5l-.5.5-.5.5-.5 1-.5 1"/></g><path d="m435 667h2l.5-1.5.5-1.5 1.5-1 1.5-1 1.5-.5 1.5-.5 1-1.5 1-1.5-1.5-.5-1.5-.5-1 1.5-1 1.5-1.5.5-1.5.5-1 1-1 1-1.5 1-1.5 1 1 1 1 1" style="fill:#6c221a;stroke:#6c221a"/><path d="m4 665l25-6 3.5-2.5 3.5-2.5 6.5-1.5 6.5-1.5 1.5-1 1.5-1 2-3 2-3 6-3 6-3 1 2 1 2-1 1.5-1 1.5 5.5-3.5 5.5-3.5 6-3 6-3 6.5-2 6.5-2 1.5-.5 1.5-.5 1-1 1-1 .5-.5.5-.5.5-.5.5-.5h-1-1l.5-1 .5-1 .5-.5.5-.5.5-.5.5-.5.5-.5.5-.5 1-.5 1-.5h1 1 1 1l.5-.5.5-.5 1-.5 1-.5h1 1l.5.5.5.5.5-.5.5-.5 1.5-.5 1.5-.5 1.5-1 1.5-1 1.5-.5 1.5-.5 2-1 2-1 6-4.5 6-4.5 5-4 5-4-2.5 3-2.5 3-3.5 4.5-3.5 4.5-2 3-2 3-4 5-4 5 5-3.5 5-3.5 5-4 5-4h2 2l5-2.5 5-2.5 4.5-2 4.5-2 3 1.5 3 1.5 5 2 5 2 1-2 1-2-1-.5-1-.5v-.5-.5l-1-.5-1-.5-1.5-.5-1.5-.5-.5-.5-.5-.5-1-.5-1-.5-1.5-1.5-1.5-1.5 5.5-5.5 5.5-5.5 5-3.5 5-3.5-.5-1.5-.5-1.5-5.5 3.5-5.5 3.5-8-.5-8-.5h-6.5-6.5l-6 3-6 3-6.5 1.5-6.5 1.5-9 3-9 3 8.5-1 8.5-1 6-2 6-2 8.5-2.5 8.5-2.5 6.5 2 6.5 2-1.5 5.5-1.5 5.5-4 1.5-4 1.5-5 1-5 1v-.5-.5l-.5-1-.5-1 1-1 1-1 1.5-.5 1.5-.5.5-.5.5-.5.5-1 .5-1 1.5-.5 1.5-.5v-1-1l1-.5 1-.5v-1-1-1-1l-1-.5-1-.5-.5-1-.5-1-1 1.5-1 1.5-2 2.5-2 2.5-5.5 3.5-5.5 3.5-5 2-5 2-5 3.5-5 3.5-6 3-6 3-5.5 3.5-5.5 3.5-6 3-6 3-4 1.5-4 1.5-4 1-4 1-6.5 2.5-6.5 2.5-6 3-6 3-6 2.5-6 2.5-7 2-7 2-6.5 2.5-6.5 2.5-7 4.5-7 4.5h1 1" style="fill:#da5f47;stroke:#da5f47"/><path d="m0 664v1h1 1l7-4.5 7-4.5 6.5-2.5 6.5-2.5 7-2 7-2 6-2.5 6-2.5 6-3 6-3 6.5-2.5 6.5-2.5 4-1 4-1 4-1.5 4-1.5 6-3 6-3 5.5-3.5 5.5-3.5 6-3 6-3 5-3.5 5-3.5 5-2 5-2 5.5-3.5 5.5-3.5 2-2.5 2-2.5h-1.5-1.5l-.5.5-.5.5h-.5-.5l-.5.5-.5.5-.5.5-.5.5-.5-.5-.5-.5-.5 1-.5 1-.5-.5-.5-.5-.5 1-.5 1-1 .5-1 .5-.5.5-.5.5-1 .5-1 .5-.5.5-.5.5-.5.5-.5.5h-1-1l-.5 1-.5 1h-1-1-1-1l-.5.5-.5.5-1 .5-1 .5h-1-1l-.5.5-.5.5h-1-1l-1 .5-1 .5h-1-1l-1 .5-1 .5-1 1-1 1-.5.5-.5.5-1 .5-1 .5h-2-2v1 1h-1.5-1.5l-1 1-1 1-.5.5-.5.5-1 .5-1 .5-2.5.5-2.5.5-1.5.5-1.5.5v1 1l-.5-.5-.5-.5-.5.5-.5.5-1 .5-1 .5v1 1h-1-1l-.5.5-.5.5-1.5-.5-1.5-.5 1-.5 1-.5.5-1 .5-1-2-1-2-1-1 1-1 1-1 .5-1 .5-5 4.5-5 4.5-6 3-6 3-7 2-7 2-5.5 1.5-5.5 1.5-6 2.5-6 2.5-2-1-2-1-3 2-3 2-5.5 3.5-5.5 3.5-2-.5-2-.5.5-1.5.5-1.5.5-2 .5-2v-1-1l-2.5-.5-2.5-.5v1.5 1.5 2.5 2.5 2 2 2.5 2.5 2 2 1 1" style="fill:#d87269;stroke:#d87269"/><path d="m7 652l11-7 3-2 3-2 2 1 2 1 6-2.5 6-2.5 5.5-1.5 5.5-1.5 7-2 7-2 6-3 6-3 5-4.5 5-4.5-4 3.5-4 3.5-5.5 1.5-5.5 1.5-6.5.5-6.5.5-5 1-5 1-1.5.5-1.5.5-1.5-.5-1.5-.5.5-.5.5-.5-1 .5-1 .5-.5 1.5-.5 1.5.5.5.5.5-1 .5-1 .5-1 1-1 1h-1-1v-3-3l-3-2-3-2-4 .5-4 .5-3.5 1.5-3.5 1.5-2.5-.5-2.5-.5-3 1.5-3 1.5v3 3 1.5 1.5l2.5.5 2.5.5v1 1l-.5 2-.5 2-.5 1.5-.5 1.5 2 .5 2 .5" style="fill:#d78188;stroke:#d78188"/><path d="m154 651l13-1-7-1.5-7-1.5v2 2h.5.5" style="fill:#d87269;stroke:#d87269"/><g style="fill:#6c221a;stroke:#6c221a"><path d="m178 649h2l-.5-2-.5-2-1-1-1-1-1-1.5-1-1.5-1-1-1-1-1-1.5-1-1.5-1-.5-1-.5-.5-.5-.5-.5-.5-1-.5-1-.5-1.5-.5-1.5.5-.5.5-.5 1-.5 1-.5 1-1 1-1 .5-.5.5-.5.5-1 .5-1-1.5.5-1.5.5-2 1-2 1-.5 1-.5 1-1.5 1-1.5 1-1 .5-1 .5-6 5.5-6 5.5 2.5 1.5 2.5 1.5 4.5-4.5 4.5-4.5 1.5 3 1.5 3 5.5 4 5.5 4 1 .5 1 .5"/><path d="m441 648l3 1 .5-1.5.5-1.5 2-.5 2-.5-.5-1.5-.5-1.5-1.5 1-1.5 1-1.5-.5-1.5-.5-1 .5-1 .5.5 1.5.5 1.5v.5.5"/></g><path d="m102 643h3l1-1 1-1 1.5-1 1.5-1 1-1 1-1 1.5-1 1.5-1 1-1 1-1 1.5-1.5 1.5-1.5-2 1-2 1-1 .5-1 .5-.5.5-.5.5-1 1-1 1-1 .5-1 .5-.5.5-.5.5-1 1-1 1-1 .5-1 .5-1 1-1 1" style="fill:#a5514b;stroke:#a5514b"/><g style="fill:#6c221a;stroke:#6c221a"><path d="m435 643h2l-.5-1.5-.5-1.5-1-1.5-1-1.5-1.5.5-1.5.5-2 .5-2 .5v1 1l1.5 1 1.5 1h2 2 .5.5"/><path d="m398 639h2v-1-1l-1 .5-1 .5-.5-.5-.5-.5-.5-.5-.5-.5-.5-.5-.5-.5-1-.5-1-.5-.5.5-.5.5h-2-2v1.5 1.5h1 1 1 1 1 1l2 .5 2 .5"/></g><path d="m32 636h2l1-1 1-1 1-.5 1-.5-.5-.5-.5-.5.5-1.5.5-1.5 1-.5 1-.5-.5.5-.5.5 1.5.5 1.5.5 1.5-.5 1.5-.5 3.5-2.5 3.5-2.5 4.5-2.5 4.5-2.5-2 3-2 3-5 2-5 2v-1-1l-1 1-1 1 5-1 5-1 6.5-.5 6.5-.5 5.5-1.5 5.5-1.5 4-3.5 4-3.5 1-.5 1-.5 1-1 1-1 2 1 2 1 1-.5 1-.5 1-1 1-1 1-1 1-1 1 .5 1 .5 1 .5 1 .5 2.5-.5 2.5-.5 1-.5 1-.5.5-.5.5-.5 1-1 1-1h1.5 1.5v-1-1h2 2l1-.5 1-.5.5-.5.5-.5 1-1 1-1 1-.5 1-.5h1 1v-.5-.5l1-.5 1-.5.5-.5.5-.5.5-.5.5-.5h1.5 1.5l.5-.5.5-.5.5-.5.5-.5h1 1 .5.5l.5-.5.5-.5h1 1l.5-.5.5-.5-1-.5-1-.5h1 1l.5-.5.5-.5.5-.5.5-.5 1-.5 1-.5h1 1l1 .5 1 .5.5-1 .5-1 .5.5.5.5.5-1 .5-1 .5.5.5.5.5-.5.5-.5.5-.5.5-.5h.5.5l.5-.5.5-.5h1.5 1.5l1-1.5 1-1.5-8.5 2.5-8.5 2.5-6 2-6 2-8.5 1-8.5 1h-1-1l-1 .5-1 .5-1 .5-1 .5-9 1-9 1h-7.5-7.5-6-6l-7 1-7 1-14 1.5-14 1.5-9-1-9-1-1.5-1.5-1.5-1.5h9 9l7.5-.5 7.5-.5 7-1.5 7-1.5 6.5-2.5 6.5-2.5 7-2 7-2 5.5-3.5 5.5-3.5 5.5-3 5.5-3h-2-2l-6 3-6 3-6.5 2.5-6.5 2.5-6 2.5-6 2.5-7 2-7 2-8 1-8 1-8.5.5-8.5.5-8-2-8-2v3.5 3.5 2 2 1.5 1.5h3 3l1.5.5 1.5.5-.5 1-.5 1 1.5.5 1.5.5-2 .5-2 .5h-2-2l-1.5.5-1.5.5v1 1h1.5 1.5 1 1 1.5 1.5 1 1 1 1l.5.5.5.5h1 1l1-.5 1-.5h1 1 1 1 1 1 1 1 1.5 1.5 1 1 1.5 1.5l1.5-.5 1.5-.5 1 .5 1 .5-1 1-1 1-1 1-1 1h-1-1-1.5-1.5-2-2l-1 .5-1 .5 4.5 1 4.5 1-5 1.5-5 1.5-7.5 2.5-7.5 2.5 1-1.5 1-1.5v-1-1l1-.5 1-.5 1.5-.5 1.5-.5 2-.5 2-.5 1.5-.5 1.5-.5 1-.5 1-.5-2.5.5-2.5.5-1.5.5-1.5.5-2.5.5-2.5.5-1 .5-1 .5-1.5.5-1.5.5h-1-1-1.5-1.5v1.5 1.5 2 2 2 2l3-1.5 3-1.5 2.5.5 2.5.5 3.5-1.5 3.5-1.5 4-.5 4-.5 3 2 3 2v3 3" style="fill:#ff9969;stroke:#ff9969"/><path d="m93 636l16-8 5-3.5 5-3.5 5-4 5-4-1.5.5-1.5.5-.5.5-.5.5-.5-.5-.5-.5h-1-1l-1 .5-1 .5-.5.5-.5.5h-1-1-1-1l-1 .5-1 .5-.5.5-.5.5-.5.5-.5.5-.5.5-.5.5-.5 1-.5 1h1 1l-.5.5-.5.5-.5.5-.5.5-1 1-1 1-1.5.5-1.5.5-1 1.5-1 1.5-1.5 1-1.5 1-1 1-1 1-2 1-2 1" style="fill:#a5514b;stroke:#a5514b"/><path d="m168 633l1 1 6.5-9 6.5-9 5-4 5-4-1.5-.5-1.5-.5-1 .5-1 .5h-1-1l-.5.5-.5.5v1 1h-1.5-1.5l-.5.5-.5.5-.5.5-.5.5-.5.5-.5.5-1 1-1 1-1 .5-1 .5-.5.5-.5.5-1 1-1 1h-1.5-1.5v1 1l-1 1-1 1 2-1 2-1 1.5-.5 1.5-.5-.5 1-.5 1-.5.5-.5.5-1 1-1 1-1 .5-1 .5-.5.5-.5.5.5 1.5.5 1.5.5 1 .5 1" style="fill:#863733;stroke:#863733"/><path d="m47 629l10-4 2-3 2-3-4.5 2.5-4.5 2.5-3.5 2.5-3.5 2.5 1-1 1-1v1 1" style="fill:#d78188;stroke:#d78188"/><path d="m414 627l2 1 .5-1 .5-1h1 1l.5 1 .5 1h1 1l.5-.5.5-.5.5-.5.5-.5-1-.5-1-.5h-1-1l-.5-.5-.5-.5h-1-1l-.5-.5-.5-.5-.5-1-.5-1h-1-1l-.5.5-.5.5v1 1 1 1l1 .5 1 .5" style="fill:#863733;stroke:#863733"/><path d="m7 626l15-5 5-1.5 5-1.5-4.5-1-4.5-1-1 .5-1 .5-1.5.5-1.5.5-2 .5-2 .5-1.5.5-1.5.5-1 .5-1 .5v1 1l-1 1.5-1 1.5" style="fill:#d78188;stroke:#d78188"/><path d="m139 626l2 1 1-1.5 1-1.5 1.5-1 1.5-1 1-1 1-1 2-.5 2-.5.5-1.5.5-1.5 2-.5 2-.5-.5-1.5-.5-1.5-1.5.5-1.5.5-.5.5-.5.5-.5 1-.5 1-.5.5-.5.5-.5.5-.5.5-.5.5-.5.5-1 .5-1 .5-.5.5-.5.5-.5.5-.5.5-.5.5-.5.5-1 .5-1 .5-1 1-1 1" style="fill:#da5f47;stroke:#da5f47"/><path d="m3 621h2l1.5-.5 1.5-.5 1-.5 1-.5-1-.5-1-.5 1-.5 1-.5 1.5-.5 1.5-.5 1-.5 1-.5v-.5-.5l-2-.5-2-.5h-2.5-2.5l-1.5-.5-1.5-.5h-1.5-1.5v3 3 1.5 1.5h1.5 1.5" style="fill:#d64c2c;stroke:#d64c2c"/><path d="m283 621l3 1 1.5-1 1.5-1 1.5-.5 1.5-.5 1-1 1-1 .5-1 .5-1-2 1-2 1h-1.5-1.5l-1.5.5-1.5.5-1 1.5-1 1.5" style="fill:#863733;stroke:#863733"/><path d="m8 618l2 1 2.5-.5 2.5-.5 1.5-.5 1.5-.5 2.5-.5 2.5-.5 1-.5 1-.5h2 2 1.5 1.5 1 1l1-1 1-1 1-1 1-1-1-.5-1-.5-1.5.5-1.5.5-2 1-2 1h-2-2l-2 .5-2 .5h-2-2l-1 .5-1 .5-1 .5-1 .5-1.5.5-1.5.5-1 .5-1 .5" style="fill:#d87269;stroke:#d87269"/><path d="m92 618l3 1 .5-.5.5-.5h1 1v-1-1l1-.5 1-.5.5-.5.5-.5.5.5.5.5v-1-1l1.5-.5 1.5-.5-1-.5-1-.5-1-.5-1-.5-1 1-1 1-1 1-1 1-1 .5-1 .5-.5 1-.5 1-1 .5-1 .5" style="fill:#d78188;stroke:#d78188"/><path d="m15 614v1l1-.5 1-.5h2 2l2-.5 2-.5h2 2l2-1 2-1h-1.5-1.5-1-1-1.5-1.5-1-1-1-1-1-1-1-1l-1 .5-1 .5h-1-1l-.5-.5-.5-.5h-1-1-1-1-1.5-1.5-1-1-1.5-1.5v.5.5h1.5 1.5l1.5.5 1.5.5h2.5 2.5l2 .5 2 .5" style="fill:#f67956;stroke:#f67956"/><path d="m83 611l15-3 6.5-2 6.5-2 3.5-2 3.5-2h-1.5-1.5l-1.5.5-1.5.5-1.5.5-1.5.5-1.5.5-1.5.5-.5.5-.5.5-1 .5-1 .5h-2-2l-2 .5-2 .5-1.5.5-1.5.5-1.5-.5-1.5-.5h-.5-.5l-2 .5-2 .5v1.5 1.5l-.5.5-.5.5" style="fill:#d87269;stroke:#d87269"/><path d="m65 610l-5-3-3.5 1-3.5 1 6 .5 6 .5" style="fill:#d78188;stroke:#d78188"/><g style="fill:#ffbe88;stroke:#ffbe88"><path d="m0 608v1l1.5-.5 1.5-.5h2 2l2-.5 2-.5-1.5-.5-1.5-.5.5-1 .5-1-1.5-.5-1.5-.5h-3-3v2.5 2.5"/><path d="m18 607h18l4-1.5 4-1.5h-6-6l-6.5.5-6.5.5-.5 1-.5 1"/></g><path d="m83 606l1 1 2-.5 2-.5 2-1 2-1h2 2l2-.5 2-.5 1.5-.5 1.5-.5h2.5 2.5l2-.5 2-.5 1.5-.5 1.5-.5h1.5 1.5l4-2.5 4-2.5-7 2-7 2-7.5 1.5-7.5 1.5-6.5 2-6.5 2h-.5-.5" style="fill:#f67956;stroke:#f67956"/><path d="m89 606l3 1 1.5-.5 1.5-.5 2-.5 2-.5h2 2l1-.5 1-.5.5-.5.5-.5 1.5-.5 1.5-.5 1.5-.5 1.5-.5-2 .5-2 .5h-2.5-2.5l-1.5.5-1.5.5-2 .5-2 .5h-2-2l-2 1-2 1h.5.5" style="fill:#da5f47;stroke:#da5f47"/><path d="m29 601l28-3 7-1 7-1h6 6 7.5 7.5l9-1 9-1h-3-3l-1.5-.5-1.5-.5-2.5-.5-2.5-.5-1.5.5-1.5.5-.5-1-.5-1 1.5-.5 1.5-.5 1.5-1 1.5-1 1.5-.5 1.5-.5 1.5-.5 1.5-.5 1-.5 1-.5 6-4 6-4-6 2.5-6 2.5 3-3 3-3 5.5-3.5 5.5-3.5-5 1-5 1-5.5 3-5.5 3-5.5 3.5-5.5 3.5-7 2-7 2-7.5.5-7.5.5 7-2 7-2 6.5-2.5 6.5-2.5 5-3.5 5-3.5 5.5-3.5 5.5-3.5 5-4 5-4 4.5-4.5 4.5-4.5 4.5-4 4.5-4-3 1-3 1-6 2-6 2-2 1-2 1-.5 1.5-.5 1.5-1.5 1-1.5 1-1.5 1-1.5 1-5.5 4-5.5 4-5.5 3-5.5 3-7 3-7 3 6-4 6-4 4.5-3.5 4.5-3.5 5-4 5-4 4.5-4.5 4.5-4.5 4.5-4 4.5-4 4-5 4-5 4-5 4-5 3.5-5.5 3.5-5.5 3.5-5.5 3.5-5.5 3-5.5 3-5.5 3-6 3-6 3-6 3-6 3-6 3-6v6 6l.5-1 .5-1 .5-1 .5-1 .5-2 .5-2v-1.5-1.5l.5-1.5.5-1.5 1-1 1-1 .5-2 .5-2 1-1 1-1 1-.5 1-.5 1-1 1-1 .5-2 .5-2 1-1 1-1 .5-1 .5-1v-.5-.5l.5-1 .5-1 .5-1 .5-1v-1-1l.5-.5.5-.5.5-.5.5-.5.5-1 .5-1 .5-1.5.5-1.5.5-.5.5-.5.5-1 .5-1 .5-1 .5-1-3.5 5.5-3.5 5.5-4 5-4 5-3.5 5.5-3.5 5.5-3.5 5-3.5 5v-2-2l-4 1-4 1-3.5 5.5-3.5 5.5-4 4.5-4 4.5-4.5 4.5-4.5 4.5-1 2-1 2-4 1-4 1-3 .5-3 .5-5.5 3.5-5.5 3.5-5 4-5 4-4 5-4 5-4.5 3-4.5 3-6 2-6 2-6 3-6 3-6 3-6 3-5.5 2.5-5.5 2.5-6.5 1-6.5 1-6.5 1.5-6.5 1.5-6 2-6 2-4 2.5-4 2.5v3.5 3.5 2 2 2 2 2.5 2.5l8-1 8-1 2.5-3 2.5-3 7-2 7-2 7.5.5 7.5.5 6.5-2.5 6.5-2.5 8.5-3 8.5-3v-.5-.5l1.5-1 1.5-1 .5-.5.5-.5.5-.5.5-.5.5-.5.5-.5 1-.5 1-.5.5-.5.5-.5h1 1l.5.5.5.5-1 .5-1 .5-1 1-1 1-.5.5-.5.5-1 .5-1 .5-1 1-1 1h-1.5-1.5l-5 4-5 4-6.5 2.5-6.5 2.5 6-2 6-2 6.5-2.5 6.5-2.5-2 2.5-2 2.5-4 4-4 4-5 3-5 3-4.5 2.5-4.5 2.5h7.5 7.5l5-1 5-1-6.5 2.5-6.5 2.5-6.5 2.5-6.5 2.5-4.5 2-4.5 2-11.5 1-11.5 1h-1.5-1.5l-1.5-1-1.5-1-1.5-.5-1.5-.5-1.5-.5-1.5-.5-3-.5-3-.5v2.5 2.5l8 2 8 2 8.5-.5 8.5-.5 8-1 8-1 7-2 7-2 6-2.5 6-2.5 6.5-2.5 6.5-2.5 6-3 6-3h2 2l-5.5 3-5.5 3-5.5 3.5-5.5 3.5-7 2-7 2-6.5 2.5-6.5 2.5-7 1.5-7 1.5-7.5.5-7.5.5h-9-9l1.5 1.5 1.5 1.5 9 1 9 1" style="fill:#f67956;stroke:#f67956"/><path d="m160 601l10-2 4-1.5 4-1.5 1.5-5.5 1.5-5.5-6.5-2-6.5-2 .5 1 .5 1 1 .5 1 .5v1 1 1 1l-1 .5-1 .5v1 1l-1.5.5-1.5.5-.5 1-.5 1-.5.5-.5.5-1.5.5-1.5.5-1 1-1 1 .5 1 .5 1v.5.5" style="fill:#d87269;stroke:#d87269"/><path d="m131 599v1l1-.5 1-.5h1 1l.5-.5.5-.5h1 1l1-.5 1-.5.5-.5.5-.5h1 1 1 1l.5-1 .5-1h1 1l.5-.5.5-.5.5-.5.5-.5 1-.5 1-.5.5-.5.5-.5 1-.5 1-.5-1-.5-1-.5h-1-1l-1 .5-1 .5-.5.5-.5.5-.5.5-.5.5h-1-1l1 .5 1 .5-.5.5-.5.5h-1-1l-.5.5-.5.5h-.5-.5-1-1l-.5.5-.5.5-.5.5-.5.5h-1.5-1.5l-.5.5-.5.5-.5.5-.5.5-1 .5-1 .5" style="fill:#d78188;stroke:#d78188"/><path d="m196 599v1h1.5 1.5l1-1 1-1 1.5-.5 1.5-.5 4.5-5 4.5-5 3.5-5 3.5-5 4.5-4.5 4.5-4.5 3.5-5.5 3.5-5.5 2-4 2-4-4 4.5-4 4.5-4.5 4.5-4.5 4.5-4.5 4.5-4.5 4.5-6 2-6 2-8.5 6-8.5 6 1.5 1.5 1.5 1.5 1 .5 1 .5.5.5.5.5 1.5.5 1.5.5 1 .5 1 .5" style="fill:#b03826;stroke:#b03826"/><path d="m236 599l14-6 1-3.5 1-3.5-4 2-4 2h-7-7l-2.5.5-2.5.5-1 2.5-1 2.5 6.5 1.5 6.5 1.5" style="fill:#d87269;stroke:#d87269"/><path d="m205 598h2l.5-.5.5-.5.5-.5.5-.5 1-.5 1-.5.5-.5.5-.5.5-.5.5-.5.5-.5.5-.5 1.5-1 1.5-1v-.5-.5l4.5-6 4.5-6 4-5 4-5 3.5-5 3.5-5 3.5-5.5 3.5-5.5 3.5-5.5 3.5-5.5-2.5.5-2.5.5-4 4.5-4 4.5-5.5 3.5-5.5 3.5-5 4-5 4-5.5 3.5-5.5 3.5-5.5 3-5.5 3-10.5 2-10.5 2 8 .5 8 .5 5.5-3.5 5.5-3.5.5 1.5.5 1.5-5 3.5-5 3.5-5.5 5.5-5.5 5.5 8.5-6 8.5-6 6-2 6-2 4.5-4.5 4.5-4.5 4.5-4.5 4.5-4.5 4-4.5 4-4.5-2 4-2 4-3.5 5.5-3.5 5.5-4.5 4.5-4.5 4.5-3.5 5-3.5 5-4.5 5-4.5 5 .5.5.5.5" style="fill:#d64c2c;stroke:#d64c2c"/><path d="m449 598l3 1v-1-1l-1.5-1-1.5-1 1-1 1-1 .5-1 .5-1-1.5.5-1.5.5-1.5 1-1.5 1-1 1-1 1 1 1 1 1h1.5 1.5" style="fill:#863733;stroke:#863733"/><path d="m107 593l3 1h3 3l1-.5 1-.5 1-.5 1-.5h-2.5-2.5-1-1l1-1 1-1 .5-.5.5-.5-.5-.5-.5-.5h-1-1l-1 .5-1 .5-1.5.5-1.5.5h-1-1l1-.5 1-.5 1-1 1-1 1-1 1-1-1 .5-1 .5-1.5.5-1.5.5-1.5.5-1.5.5-1.5 1-1.5 1-1.5.5-1.5.5.5 1 .5 1 1.5-.5 1.5-.5 2.5.5 2.5.5" style="fill:#da5f47;stroke:#da5f47"/><g style="fill:#d64c2c;stroke:#d64c2c"><path d="m113 592h2 2.5 2.5 1 1l9-3 9-3 6.5-1.5 6.5-1.5 6-3 6-3h6.5 6.5l5.5-4.5 5.5-4.5v-2-2l-4.5 1.5-4.5 1.5-7.5 1.5-7.5 1.5 1-2 1-2 3-4.5 3-4.5-1.5-1.5-1.5-1.5 2.5-5.5 2.5-5.5 3.5-5.5 3.5-5.5-2.5 1-2.5 1-1.5-3.5-1.5-3.5 3-6 3-6-4 5-4 5-1.5-2-1.5-2 2-5 2-5 2.5-6.5 2.5-6.5 2.5-6.5 2.5-6.5 1.5-7 1.5-7 2-7 2-7 2-8 2-8-1 1.5-1 1.5v1 1l-.5 1-.5 1-.5 1.5-.5 1.5h-1-1-1.5-1.5l-.5 2-.5 2-.5 1-.5 1-.5 1-.5 1-2.5 6.5-2.5 6.5-2.5 6.5-2.5 6.5-3 6.5-3 6.5-1 1.5-1 1.5v1 1l-.5.5-.5.5-.5.5-.5.5-.5.5-.5.5-.5 1-.5 1-.5.5-.5.5v1 1l-1 1-1 1-3.5 6-3.5 6 1.5 1 1.5 1 3.5-5.5 3.5-5.5v2 2l-.5 3.5-.5 3.5-4 5-4 5-4 4.5-4 4.5-4.5 4.5-4.5 4.5-4 5-4 5 5-2 5-2 5-3.5 5-3.5 1.5.5 1.5.5-5 4-5 4-5 4-5 4 5.5-2 5.5-2 5-2 5-2-5 4-5 4-6 3-6 3-8 4-8 4-1 1-1 1-1 1-1 1-1 .5-1 .5h1 1l1.5-.5 1.5-.5 1-.5 1-.5h1 1l.5.5.5.5-.5.5-.5.5-1 1-1 1"/><path d="m196 590h2l1-1 1-1 1.5-1 1.5-1 1-1 1-1-.5-1-.5-1h-1-1l-1 1.5-1 1.5-1 1-1 1-1 1-1 1v.5.5"/></g><path d="m18 589l23-2 4.5-2 4.5-2 6.5-2.5 6.5-2.5 6.5-2.5 6.5-2.5-5 1-5 1h-7.5-7.5l4.5-2.5 4.5-2.5 5-3 5-3 4-4 4-4 2-2.5 2-2.5-6.5 2.5-6.5 2.5-6 2-6 2 6.5-2.5 6.5-2.5 5-4 5-4-8.5 3-8.5 3-6.5 2.5-6.5 2.5-7.5-.5-7.5-.5-7 2-7 2-2.5 3-2.5 3-8 1-8 1v1.5 1.5 2 2 2.5 2.5 1.5 1.5l3 .5 3 .5 1.5.5 1.5.5 1.5.5 1.5.5 1.5 1 1.5 1h1.5 1.5" style="fill:#ff9969;stroke:#ff9969"/><path d="m68 589l15-1 7-2 7-2 5.5-3.5 5.5-3.5 5.5-3 5.5-3 5-1 5-1-5.5 3.5-5.5 3.5-3 3-3 3 6-2.5 6-2.5-6 4-6 4 8-4 8-4 6-3 6-3 5-4 5-4-5 2-5 2-5.5 2-5.5 2 5-4 5-4 5-4 5-4-1.5-.5-1.5-.5-5 3.5-5 3.5-5 2-5 2 4-5 4-5 4.5-4.5 4.5-4.5 4-4.5 4-4.5 4-5 4-5 .5-3.5.5-3.5v-2-2l-3.5 5.5-3.5 5.5-1.5-1-1.5-1 3.5-6 3.5-6-1 1-1 1-1 .5-1 .5v-.5-.5l-4 6-4 6-4 5-4 5-5.5 5-5.5 5 6-2 6-2 3-1 3-1-4.5 4-4.5 4-4.5 4.5-4.5 4.5-5 4-5 4-5.5 3.5-5.5 3.5-5 3.5-5 3.5-6.5 2.5-6.5 2.5-7 2-7 2" style="fill:#da5f47;stroke:#da5f47"/><path d="m217 589v1l1-.5 1-.5 1.5-.5 1.5-.5 1.5-1 1.5-1 1.5-.5 1.5-.5 1.5-1 1.5-1 1-1 1-1 2-.5 2-.5h1 1 1.5 1.5l1 .5 1 .5-.5-1-.5-1 1.5-1 1.5-1-.5-1-.5-1v-1-1l2-.5 2-.5 1-1 1-1 1.5-1 1.5-1 1.5-.5 1.5-.5 1.5-1 1.5-1h1 1l1.5-1.5 1.5-1.5-.5-1.5-.5-1.5 1-1.5 1-1.5h2 2l1.5-1 1.5-1 4.5-4.5 4.5-4.5 5.5-3 5.5-3 3-5.5 3-5.5 2-6 2-6 1-7 1-7v-7-7l.5-7 .5-7 1-6 1-6 .5-13 .5-13v-8-8l.5-8.5.5-8.5-1-2-1-2-1.5 7.5-1.5 7.5-1 6.5-1 6.5-1-8-1-8-2 3-2 3-4 7-4 7v.5.5l-2 8-2 8-2 7-2 7-2.5 6.5-2.5 6.5-1.5 7.5-1.5 7.5-1.5 7-1.5 7-3.5 4.5-3.5 4.5 2-7 2-7 2-7 2-7 3-11 3-11 1.5-7.5 1.5-7.5 2-7 2-7 3.5-9.5 3.5-9.5.5-1 .5-1 .5-1.5.5-1.5.5-.5.5-.5.5-1 .5-1 .5-1.5.5-1.5 1-1.5 1-1.5v-2-2l.5-1 .5-1v-.5-.5l-6-3-6-3-5-3.5-5-3.5-4-4.5-4-4.5-3.5-5.5-3.5-5.5-4.5 1.5-4.5 1.5-3.5 2.5-3.5 2.5-3 6-3 6-5.5.5-5.5.5-.5 1-.5 1-.5 1.5-.5 1.5-.5 1.5-.5 1.5-.5.5-.5.5-.5 1-.5 1-1 1-1 1-.5.5-.5.5-1 .5-1 .5-.5 2.5-.5 2.5-3 6.5-3 6.5-2.5 3.5-2.5 3.5-4.5 4-4.5 4-.5 1-.5 1-.5 1.5-.5 1.5-.5 1.5-.5 1.5-.5 1.5-.5 1.5-2 8-2 8-2 7-2 7-1.5 7-1.5 7-2.5 6.5-2.5 6.5-2.5 6.5-2.5 6.5-2 5-2 5 1.5 2 1.5 2 4-5 4-5-3 6-3 6 1.5 3.5 1.5 3.5 2.5-1 2.5-1-3.5 5.5-3.5 5.5-2.5 5.5-2.5 5.5 1.5 1.5 1.5 1.5-3 4.5-3 4.5-1 2-1 2 7.5-1.5 7.5-1.5 4.5-1.5 4.5-1.5v2 2l-5.5 4.5-5.5 4.5 10.5-2 10.5-2 5.5-3 5.5-3 5.5-3.5 5.5-3.5 5-4 5-4 5.5-3.5 5.5-3.5 4-4.5 4-4.5 2.5-.5 2.5-.5-3.5 5.5-3.5 5.5-3.5 5.5-3.5 5.5-3.5 5-3.5 5-4 5-4 5-4.5 6-4.5 6" style="fill:#b03826;stroke:#b03826"/><path d="m460 586h2l1-1 1-1 1.5-1 1.5-1v-1-1l-1.5-1-1.5-1-1.5.5-1.5.5-1.5 1-1.5 1 1 1 1 1-1 1-1 1 1 .5 1 .5" style="fill:#863733;stroke:#863733"/><path d="m312 582l13-7 4-4.5 4-4.5-1-1-1-1-4 3-4 3-3.5 1.5-3.5 1.5-2 4.5-2 4.5" style="fill:#6c221a;stroke:#6c221a"/><path d="m249 580l4 1 1-.5 1-.5h1 1l1-1 1-1h1.5 1.5l.5-.5.5-.5-1-1-1-1h-1.5-1.5-1-1v-2-2l1-1 1-1 1-.5 1-.5.5-.5.5-.5.5-1 .5-1h-1-1l-1.5 1-1.5 1-1.5.5-1.5.5-1.5 1-1.5 1-1 1-1 1-2 .5-2 .5v1 1l.5 1 .5 1 1.5 1.5 1.5 1.5" style="fill:#a5514b;stroke:#a5514b"/><path d="m79 576l14-6 5.5-3 5.5-3 5.5-4 5.5-4-1-.5-1-.5 4.5-4.5 4.5-4.5 4-5 4-5 4.5-4.5 4.5-4.5 4-5 4-5 4-5 4-5 3-5.5 3-5.5 3-6 3-6v3 3l1-.5 1-.5-.5 2-.5 2-1 1-1 1v1.5 1.5l3-6.5 3-6.5 2.5-6.5 2.5-6.5 2.5-6.5 2.5-6.5v-6-6l-3 6-3 6-3 6-3 6-3 6-3 6-3 5.5-3 5.5-3.5 5.5-3.5 5.5-3.5 5.5-3.5 5.5-4 5-4 5-4 5-4 5-4.5 4-4.5 4-4.5 4.5-4.5 4.5-5 4-5 4-4.5 3.5-4.5 3.5-6 4-6 4" style="fill:#da5f47;stroke:#da5f47"/><path d="m260 571l14-6 2.5-4 2.5-4-5 4-5 4-4.5 3-4.5 3" style="fill:#6c221a;stroke:#6c221a"/><g style="fill:#a5514b;stroke:#a5514b"><path d="m377 570l14-6 5-2.5 5-2.5 5.5-3.5 5.5-3.5 4-4 4-4-2-1-2-1-5 4-5 4-6 2.5-6 2.5-5.5 3.5-5.5 3.5-3 4-3 4"/><path d="m353 560l24-1 4-2 4-2 5-3 5-3 5.5-3.5 5.5-3.5 5-3.5 5-3.5 5-4 5-4 5.5-3.5 5.5-3.5 6.5-2.5 6.5-2.5 3.5-5.5 3.5-5.5-2 .5-2 .5-1.5 1-1.5 1-1 1-1 1-1 1-1 1 .5 1 .5 1-1 1-1 1-2 .5-2 .5-1 1-1 1-2 .5-2 .5-1 1-1 1-2 .5-2 .5-1 1-1 1-1.5 1-1.5 1-1.5.5-1.5.5h-1-1-1.5-1.5l-1 1.5-1 1.5h-1-1l-.5.5-.5.5-.5.5-.5.5v.5.5l-.5.5-.5.5-.5-.5-.5-.5-.5.5-.5.5v1 1h-1.5-1.5l-.5.5-.5.5h-1-1-1-1l.5-1 .5-1h1 1l1.5-1 1.5-1 1-1 1-1 1.5-1 1.5-1 .5-1.5.5-1.5.5-.5.5-.5v1.5 1.5h1 1l1-.5 1-.5 2-1 2-1 1-1.5 1-1.5 1.5-.5 1.5-.5 2 .5 2 .5-5.5.5-5.5.5-3-.5-3-.5-3.5 4.5-3.5 4.5h-3-3l-6.5 1.5-6.5 1.5-13 4-13 4-6 1.5-6 1.5-3.5.5-3.5.5-6.5.5-6.5.5-7.5-1-7.5-1h-8-8l4-2.5 4-2.5 4.5-3.5 4.5-3.5 1.5-.5 1.5-.5 1.5-.5 1.5-.5 2-.5 2-.5h2 2 1.5 1.5l1.5-.5 1.5-.5 1.5-1 1.5-1 1-1 1-1h1 1l5.5-1.5 5.5-1.5 4.5-1.5 4.5-1.5 3.5-5.5 3.5-5.5 2-5.5 2-5.5-1-5-1-5-.5 1.5-.5 1.5.5.5.5.5-.5 1-.5 1-1 1-1 1v-1-1l-.5 1-.5 1-1 1-1 1-1 2.5-1 2.5 1-.5 1-.5v1.5 1.5l-1 1-1 1v1.5 1.5 1 1l-1 .5-1 .5-1.5-.5-1.5-.5.5-1 .5-1v-1-1l.5-.5.5-.5.5-1 .5-1-.5-.5-.5-.5 2.5-6.5 2.5-6.5 2-6.5 2-6.5 2-7 2-7-1-6.5-1-6.5 2.5-6.5 2.5-6.5.5-8.5.5-8.5 1.5-7 1.5-7-3.5.5-3.5.5 2.5-2.5 2.5-2.5v-3.5-3.5l-2.5-3.5-2.5-3.5-3 3-3 3-3.5-4.5-3.5-4.5-2 5-2 5-2.5 6.5-2.5 6.5-3 5.5-3 5.5-2 6.5-2 6.5-2.5 6-2.5 6-2 7-2 7-2.5 6.5-2.5 6.5-3 6-3 6-2.5 6-2.5 6-4.5 10-4.5 10 1-7.5 1-7.5v-8-8l1-6 1-6-1-3.5-1-3.5 2-4 2-4 1.5-7.5 1.5-7.5 3-8.5 3-8.5-1 .5-1 .5-1 1-1 1v1 1l-.5.5-.5.5-.5.5-.5.5-.5 1-.5 1v-1-1l-.5.5-.5.5v1 1l.5 1 .5 1-.5 1.5-.5 1.5-.5.5-.5.5.5 1 .5 1-.5 1.5-.5 1.5-.5.5-.5.5-.5-1-.5-1v-2-2l1-2 1-2-.5-.5-.5-.5h-1-1l-.5 13-.5 13-1 6-1 6-.5 7-.5 7v7 7l-1 7-1 7-2 6-2 6-3 5.5-3 5.5-5.5 3-5.5 3-4.5 4.5-4.5 4.5 7.5-1.5 7.5-1.5 5.5 1.5 5.5 1.5 6-.5 6-.5.5 1.5.5 1.5 6.5-.5 6.5-.5 7.5.5 7.5.5 6.5 2 6.5 2"/></g><path d="m91 556l13-7 5-3.5 5-3.5 4-5 4-5 5-4 5-4 4-5 4-5 3.5-5.5 3.5-5.5 3.5-5 3.5-5 1-4 1-4 1.5-3.5 1.5-3.5.5-4.5.5-4.5-3.5 5-3.5 5-3.5 5.5-3.5 5.5-3.5 5.5-3.5 5.5-4 5-4 5-3.5 5-3.5 5-1.5 3.5-1.5 3.5 4.5-4.5 4.5-4.5-2 4-2 4-4.5 4-4.5 4-5 4-5 4-5 4-5 4-3 2.5-3 2.5" style="fill:#da5f47;stroke:#da5f47"/><path d="m113 555l2 1 1.5-1 1.5-1 1.5-1 1.5-1 .5-1.5.5-1.5 2-1 2-1 5.5-5 5.5-5 4-5 4-5 4-6 4-6 .5-2 .5-2 1-1.5 1-1.5 1-1 1-1 .5-1.5.5-1.5.5-.5.5-.5.5-1 .5-1 .5-1.5.5-1.5.5-.5.5-.5.5-1 .5-1 .5-1.5.5-1.5 1-.5 1-.5v-3-3l-3 6-3 6-3 5.5-3 5.5-4 5-4 5-4 5-4 5-4.5 4.5-4.5 4.5-4 5-4 5-4.5 4.5-4.5 4.5" style="fill:#d64c2c;stroke:#d64c2c"/><path d="m0 548v1l4-2.5 4-2.5 6-2 6-2 6.5-1.5 6.5-1.5 6.5-1 6.5-1 5.5-2.5 5.5-2.5 6-3 6-3 6-3 6-3 6-2 6-2 4.5-3 4.5-3 4-5 4-5 5-4 5-4 5.5-3.5 5.5-3.5 3-.5 3-.5 4-1 4-1 1-2 1-2 4.5-4.5 4.5-4.5 4-4.5 4-4.5 3.5-5.5 3.5-5.5 4-1 4-1v2 2l3.5-5 3.5-5 3.5-5.5 3.5-5.5 4-5 4-5 3.5-5.5 3.5-5.5v-.5-.5l.5-1 .5-1 1-1.5 1-1.5 1-1 1-1 1-1.5 1-1.5 1-1 1-1 .5-1.5.5-1.5 1.5-1 1.5-1 1.5-1.5 1.5-1.5.5-1 .5-1 .5-1 .5-1 1-1 1-1 .5-.5.5-.5.5-1 .5-1 .5-1.5.5-1.5 1-1.5 1-1.5 1.5-1 1.5-1v-1-1l-1 .5-1 .5-1 1-1 1-1 1.5-1 1.5-.5 1.5-.5 1.5-1 1.5-1 1.5-1 1-1 1-1 1-1 1h-1.5-1.5l3-4 3-4 4-4.5 4-4.5 4-5 4-5 2-1 2-1-4.5 6-4.5 6 5.5-4 5.5-4 5-4 5-4 4.5 1 4.5 1 .5 5.5.5 5.5 3.5 5.5 3.5 5.5 4 4.5 4 4.5 8.5 4.5 8.5 4.5.5-1 .5-1h.5.5l.5.5.5.5.5-.5.5-.5v-1-1l.5-1 .5-1 .5-.5.5-.5v-1-1l.5-.5.5-.5.5-1 .5-1 1-1 1-1v-1-1l.5-1 .5-1 1-1 1-1v-1-1l.5-.5.5-.5.5-.5.5-.5.5-2 .5-2-1 1-1 1-.5 1-.5 1-.5 1.5-.5 1.5-.5.5-.5.5-.5 1-.5 1-1 1-1 1v1 1l-.5.5-.5.5-.5.5-.5.5-.5 1-.5 1v1 1l-.5.5-.5.5-.5.5-.5.5h-1-1l-7.5-2-7.5-2-4-5-4-5v-5-5h6 6l5-3.5 5-3.5 6-3 6-3 5-4 5-4 5.5-3.5 5.5-3.5 1-1 1-1 .5-.5.5-.5.5-.5.5-.5 1-1 1-1 1.5-1 1.5-1v-.5-.5l-1-.5-1-.5 4-5 4-5 4-5 4-5 4-5 4-5 3-6 3-6 1-4.5 1-4.5 1.5-6.5 1.5-6.5-5 4-5 4-2.5-2.5-2.5-2.5-1-6.5-1-6.5-4.5-.5-4.5-.5-5 4-5 4-3.5-1.5-3.5-1.5-4.5 4.5-4.5 4.5-4.5 4-4.5 4-6.5 1.5-6.5 1.5-5.5 1.5-5.5 1.5-6.5.5-6.5.5-4.5 1-4.5 1h-6-6l-4-2-4-2-2-3-2-3-3.5 5-3.5 5-4 3-4 3-4.5-2.5-4.5-2.5-3.5-4.5-3.5-4.5-3 5.5-3 5.5-4.5 2.5-4.5 2.5-3 3-3 3-3.5.5-3.5.5-4.5-2.5-4.5-2.5-1.5 5-1.5 5-1-2-1-2 1.5-4.5 1.5-4.5 4.5-2.5 4.5-2.5-6 1.5-6 1.5 4-5 4-5 5-4 5-4-2-5-2-5-2.5-3-2.5-3-6-3-6-3-8.5-.5-8.5-.5-5.5-1.5-5.5-1.5-1-2-1-2-6.5-2-6.5-2-8 3-8 3-2 7.5-2 7.5-1 6-1 6-2.5 6.5-2.5 6.5-2 6.5-2 6.5-2.5 6.5-2.5 6.5-1.5 7.5-1.5 7.5-1.5 7.5-1.5 7.5-2 6.5-2 6.5-2 7-2 7-3.5 9-3.5 9 8.5.5 8.5.5 7-.5 7-.5 6.5 2.5 6.5 2.5 6 3 6 3-3 1-3 1-9-2-9-2h-8-8l-10-.5-10-.5-.5 2-.5 2v1 1l-1 1.5-1 1.5 4.5 3 4.5 3 5 3.5 5 3.5h-5-5l-3.5 4.5-3.5 4.5-1.5 5.5-1.5 5.5-3.5-3-3.5-3-1-4-1-4-3 6-3 6-3.5 5.5-3.5 5.5-3.5 5-3.5 5-4 5-4 5-4 5-4 5-7.5 9.5-7.5 9.5v1.5 1.5 2 2 2.5 2.5 2 2 2.5 2.5 2 2 2.5 2.5l8-1 8-1 8-.5 8-.5 7.5-1.5 7.5-1.5 6.5-2.5 6.5-2.5 6.5-2 6.5-2 6-3 6-3 6-3 6-3 5-4 5-4 1.5-3 1.5-3 6.5-2.5 6.5-2.5-3.5-3.5-3.5-3.5 2.5-5.5 2.5-5.5 4-4 4-4 3.5-3 3.5-3 2.5-3.5 2.5-3.5-.5-1.5-.5-1.5-5-2-5-2 .5-3 .5-3 4-4 4-4-.5-4.5-.5-4.5 3-4 3-4 3-1.5 3-1.5h8 8l7.5 1.5 7.5 1.5 8.5.5 8.5.5h7 7l-3 5.5-3 5.5-4 5-4 5-4 5-4 5-5 3-5 3-4 4.5-4 4.5-4 5-4 5-4 5-4 5-5 2-5 2-5 3.5-5 3.5-5.5 3.5-5.5 3.5-5 4-5 4-5.5 3.5-5.5 3.5-6 2.5-6 2.5-5.5 3.5-5.5 3.5-7 1-7 1-5 3-5 3-6 3-6 3-4-.5-4-.5-7.5 1.5-7.5 1.5-11 1-11 1v2.5 2.5 2.5 2.5 2 2 2 2 2.5 2.5" style="fill:#ff9969;stroke:#ff9969"/><path d="m328 547l13-1 3.5-.5 3.5-.5 6-1.5 6-1.5v-.5-.5l1.5-.5 1.5-.5.5-.5.5-.5h1.5 1.5l1-1 1-1 .5-.5.5-.5h1.5 1.5l1-1 1-1 2-.5 2-.5 1.5-.5 1.5-.5h2 2l1-1 1-1-7.5 1.5-7.5 1.5-7 2-7 2-8.5 1-8.5 1-6-1.5-6-1.5 6-1.5 6-1.5-2-1.5-2-1.5-6.5 1-6.5 1v3 3l-5.5-2.5-5.5-2.5-4.5 3.5-4.5 3.5-4 2.5-4 2.5h8 8l7.5 1 7.5 1" style="fill:#d87269;stroke:#d87269"/><path d="m80 546v1h1.5 1.5l1-1 1-1 1-.5 1-.5.5-.5.5-.5 1-1 1-1 1-.5 1-.5-.5-.5-.5-.5h-1-1l-.5.5-.5.5-1 .5-1 .5-.5.5-.5.5-.5.5-.5.5-.5.5-.5.5-1.5 1-1.5 1" style="fill:#ff9969;stroke:#ff9969"/><path d="m95 546l13-7 4.5-4 4.5-4-5 3-5 3-5 4-5 4-1 .5-1 .5" style="fill:#da5f47;stroke:#da5f47"/><path d="m482 545h2l.5-1.5.5-1.5 1.5-1 1.5-1 1-1 1-1-1-.5-1-.5-1 1-1 1-1.5 1-1.5 1-1.5.5-1.5.5.5 1.5.5 1.5h.5.5" style="fill:#6c221a;stroke:#6c221a"/><path d="m360 541v1l13-4 13-4 6.5-1.5 6.5-1.5h3 3l3.5-4.5 3.5-4.5 3 .5 3 .5 5.5-.5 5.5-.5 2-.5 2-.5 1-1 1-1 2-.5 2-.5 1-1 1-1 2-.5 2-.5 1-1 1-1-.5-1-.5-1h-1.5-1.5l-1 .5-1 .5-.5.5-.5.5h-1-1l-.5.5-.5.5h-1-1l1-.5 1-.5.5-.5.5-.5 1-.5 1-.5v-1-1l.5-.5.5-.5h1 1l.5-.5.5-.5 1-.5 1-.5h1 1l.5-.5.5-.5v-1-1l1-.5 1-.5.5-.5.5-.5h1 1l.5-.5.5-.5 1 .5 1 .5-.5.5-.5.5-.5.5-.5.5-1 1-1 1 2-.5 2-.5 2.5-4 2.5-4v-.5-.5l4.5-4.5 4.5-4.5 4.5-4.5 4.5-4.5 4-5 4-5 4-4.5 4-4.5 3.5-5.5 3.5-5.5-1.5 1.5-1.5 1.5-4.5 4.5-4.5 4.5-4 5-4 5-4.5 4-4.5 4 1-2 1-2 3.5-5.5 3.5-5.5 4-5 4-5 3.5-5 3.5-5 3-6 3-6 4-5 4-5 3.5-5.5 3.5-5.5 2-5.5 2-5.5 2.5-2.5 2.5-2.5v-1.5-1.5-2-2-2.5-2.5-2-2-2-2-2.5-2.5-2-2-2.5-2.5l-.5 1.5-.5 1.5-1 1.5-1 1.5-.5 1.5-.5 1.5-1 1.5-1 1.5h-1-1v-2-2l.5-.5.5-.5.5-1 .5-1 .5-.5.5-.5.5-.5.5-.5.5-.5.5-.5.5-1 .5-1 1-2 1-2v-10-10-9-9-9-9-5.5-5.5l-1 2-1 2-1.5 7.5-1.5 7.5h-1-1l1-6.5 1-6.5-2-2-2-2-2 6-2 6-2-4-2-4-2 5.5-2 5.5-2.5 6.5-2.5 6.5-1.5 6.5-1.5 6.5h-2-2l1.5-6 1.5-6-2.5-3.5-2.5-3.5-3.5 3.5-3.5 3.5-3.5 4.5-3.5 4.5-1.5 7-1.5 7-2 7-2 7-2 7-2 7-1.5 7.5-1.5 7.5-2 7-2 7-2 5.5-2 5.5-1.5 6.5-1.5 6.5-1.5 7.5-1.5 7.5-2 7-2 7-2 5.5-2 5.5-3 6-3 6-5.5 8-5.5 8 1.5-6.5 1.5-6.5 2-4 2-4 3.5-4.5 3.5-4.5-1-4.5-1-4.5 3.5-4.5 3.5-4.5 1-7 1-7v-3-3l1-4.5 1-4.5 2-7 2-7 1.5-6.5 1.5-6.5-2 3-2 3-3.5 5-3.5 5v5 5l-2 7-2 7-3.5-.5-3.5-.5 1.5-6 1.5-6 1.5-5.5 1.5-5.5 1-6 1-6 .5-6.5.5-6.5 1-6 1-6-5.5 3-5.5 3v-5-5l2-7 2-7 1-7 1-7-1.5-1-1.5-1-2.5 5.5-2.5 5.5-3.5 5.5-3.5 5.5-4 2-4 2 .5-4 .5-4 .5-1.5.5-1.5v-5-5l1.5-7.5 1.5-7.5 2.5-6 2.5-6 .5-3.5.5-3.5-3 6-3 6-3 6-3 6-3.5 4.5-3.5 4.5-3 3.5-3 3.5 1.5-7.5 1.5-7.5-2.5-.5-2.5-.5-3.5 5.5-3.5 5.5-2.5 6-2.5 6-2 7-2 7-1-1-1-1-2 1-2 1-4 6.5-4 6.5-.5 2-.5 2-1 1-1 1-.5 1-.5 1v1 1l-.5.5-.5.5-.5 1-.5 1-.5.5-.5.5v-1-1-1-1l.5-1 .5-1v-1-1-1-1l.5-.5.5-.5v-1-1l.5-1 .5-1-.5-1.5-.5-1.5-1 1-1 1-.5 1-.5 1-.5.5-.5.5v1 1l-.5.5-.5.5v1.5 1.5l-1 .5-1 .5 3.5 4.5 3.5 4.5 3-3 3-3 2.5 3.5 2.5 3.5v3.5 3.5l-2.5 2.5-2.5 2.5 3.5-.5 3.5-.5 1-6 1-6 3-4 3-4v6 6l-2 6.5-2 6.5 3.5-4.5 3.5-4.5v7 7 7 7l-1.5 9-1.5 9-1 6.5-1 6.5-1 7-1 7-2.5 5-2.5 5-4 1-4 1 1 5 1 5-2 5.5-2 5.5-3.5 5.5-3.5 5.5-4.5 1.5-4.5 1.5-5.5 1.5-5.5 1.5 7.5.5 7.5.5 4.5-4 4.5-4 3.5-3.5 3.5-3.5 2 1 2 1 4-5 4-5-.5 4-.5 4 3-6 3-6 3-6 3-6 2.5-.5 2.5-.5-2.5 6-2.5 6h2 2l3-6 3-6 3-6 3-6 4.5-.5 4.5-.5-.5 3-.5 3-3.5 5.5-3.5 5.5v5 5l5.5-3.5 5.5-3.5-1.5 4-1.5 4-4 5-4 5 1 2 1 2-6 3-6 3-7 4.5-7 4.5-1 1-1 1h-2-2l-1.5.5-1.5.5-2 .5-2 .5-1 1-1 1h-1.5-1.5l-.5.5-.5.5-1 1-1 1h-1.5-1.5l-.5.5-.5.5-1.5.5-1.5.5" style="fill:#965368;stroke:#965368"/><path d="m342 539l17-2 7-2 7-2 7.5-1.5 7.5-1.5 7-4.5 7-4.5 6-3 6-3-1-2-1-2 4-5 4-5 1.5-4 1.5-4-5.5 3.5-5.5 3.5v-5-5l3.5-5.5 3.5-5.5.5-3 .5-3-4.5.5-4.5.5-3 6-3 6-3 6-3 6h-2-2l2.5-6 2.5-6-2.5.5-2.5.5-3 6-3 6-3 6-3 6 .5-4 .5-4-4 5-4 5-2-1-2-1-3.5 3.5-3.5 3.5-4.5 4-4.5 4-7.5-.5-7.5-.5h-1-1l-1 1-1 1-1.5 1-1.5 1-1.5.5-1.5.5h-1.5-1.5-2-2l-2 .5-2 .5-1.5.5-1.5.5-1.5.5-1.5.5 5.5 2.5 5.5 2.5v-3-3l6.5-1 6.5-1 2 1.5 2 1.5-6 1.5-6 1.5 6 1.5 6 1.5" style="fill:#a16585;stroke:#a16585"/><path d="m399 537h2 1 1l.5-.5.5-.5h1.5 1.5v-1-1l.5-.5.5-.5.5.5.5.5.5-.5.5-.5v-.5-.5l.5-.5.5-.5.5-.5.5-.5h1 1l1-1.5 1-1.5-1 .5-1 .5h-1-1v-1.5-1.5l-.5.5-.5.5-.5 1.5-.5 1.5-1.5 1-1.5 1-1 1-1 1-1.5 1-1.5 1h-1-1l-.5 1-.5 1" style="fill:#965368;stroke:#965368"/><path d="m351 529l19 1 6-1.5 6-1.5.5-1.5.5-1.5-6 2-6 2h-7-7l-3 .5-3 .5" style="fill:#d78188;stroke:#d78188"/><path d="m419 527h2l1.5-.5 1.5-.5 1.5-1 1.5-1 1-1 1-1-2-.5-2-.5-1.5.5-1.5.5-1 1.5-1 1.5-2 1-2 1h1.5 1.5" style="fill:#965368;stroke:#965368"/><path d="m511 527h2 1 1 1 1l1-.5 1-.5.5-.5.5-.5.5-.5.5-.5h1 1l.5.5.5.5 1 .5 1 .5v1 1l1-.5 1-.5v-2-2-2-2-2-2-2.5-2.5-.5-.5l-3 2-3 2-3 5-3 5-2.5 2-2.5 2" style="fill:#6c221a;stroke:#6c221a"/><path d="m0 524v1l11-1 11-1 7.5-1.5 7.5-1.5 4 .5 4 .5 6-3 6-3 5-3 5-3 7-1 7-1 5.5-3.5 5.5-3.5 6-2.5 6-2.5 5.5-3.5 5.5-3.5 5-4 5-4 5.5-3.5 5.5-3.5 5-3.5 5-3.5 5-2 5-2 4-5 4-5 4-5 4-5 4-4.5 4-4.5 5-3 5-3 4-5 4-5 4-5 4-5 3-5.5 3-5.5h-7-7l-8.5-.5-8.5-.5-7.5-1.5-7.5-1.5h-8-8l-3 1.5-3 1.5-3 4-3 4 .5 4.5.5 4.5-4 4-4 4-.5 3-.5 3 5 2 5 2 .5 1.5.5 1.5-2.5 3.5-2.5 3.5-3.5 3-3.5 3-4 4-4 4-2.5 5.5-2.5 5.5 3.5 3.5 3.5 3.5-6.5 2.5-6.5 2.5-1.5 3-1.5 3-5 4-5 4-6 3-6 3-6 3-6 3-6.5 2-6.5 2-6.5 2.5-6.5 2.5-7.5 1.5-7.5 1.5-8 .5-8 .5-8 1-8 1v2 2 1 1" style="fill:#ffbe88;stroke:#ffbe88"/><path d="m448 521h2l1.5-.5 1.5-.5 1-1.5 1-1.5.5-1.5.5-1.5-1-.5-1-.5-1 1-1 1-1 1.5-1 1.5-1 1-1 1v.5.5" style="fill:#a5514b;stroke:#a5514b"/><path d="m316 519l9-11 2-3.5 2-3.5 3.5-3.5 3.5-3.5 3-6 3-6 2-7 2-7 1.5-7.5 1.5-7.5-2.5-4-2.5-4-2 7-2 7-2 7-2 7-2.5 6.5-2.5 6.5-2.5 6-2.5 6-3 6-3 6-2 4.5-2 4.5" style="fill:#863733;stroke:#863733"/><path d="m153 516l2-1 1-1 1-1 1-1 1-1v-1-1l.5-.5.5-.5.5-1 .5-1 .5-.5.5-.5.5-.5.5-.5.5-.5.5-.5v-1-1l1-1.5 1-1.5v-1.5-1.5l1-1 1-1 .5-2 .5-2-1 .5-1 .5-1 .5-1 .5-.5 1.5-.5 1.5-.5 1-.5 1-.5.5-.5.5-.5 1.5-.5 1.5-.5 1-.5 1-.5.5-.5.5-.5 1.5-.5 1.5-1 1-1 1-1 1.5-1 1.5-.5 2-.5 2v.5.5" style="fill:#f67956;stroke:#f67956"/><path d="m306 515l9-20 2.5-6 2.5-6 3-6 3-6 2.5-6.5 2.5-6.5 2-7 2-7 2.5-6 2.5-6 2-6.5 2-6.5 3-5.5 3-5.5 2.5-6.5 2.5-6.5 2-5 2-5 1-.5 1-.5v-1.5-1.5l.5-.5.5-.5v-1-1l.5-.5.5-.5.5-1 .5-1 1-1 1-1v-2.5-2.5l-3.5 6.5-3.5 6.5-3 6-3 6-3 5.5-3 5.5-3.5 5.5-3.5 5.5-3 5-3 5 2-7 2-7 2.5-6 2.5-6 .5-7.5.5-7.5-.5 1-.5 1-1 1-1 1-.5 2-.5 2-1 1-1 1-1 1-1 1-1 1.5-1 1.5-.5 1-.5 1-.5 1-.5 1-.5 1-.5 1-1 1-1 1-.5.5-.5.5-.5 1-.5 1-.5 1.5-.5 1.5-.5.5-.5.5-.5 1-.5 1-.5 1.5-.5 1.5v1 1l-.5.5-.5.5-.5 1.5-.5 1.5-3 8.5-3 8.5-1.5 7.5-1.5 7.5-2 4-2 4 1 3.5 1 3.5-1 6-1 6v8 8l-1 7.5-1 7.5" style="fill:#d87269;stroke:#d87269"/><path d="m435 514h2l.5-.5.5-.5h1 1l.5-.5.5-.5 1-.5 1-.5h1.5 1.5l1-1 1-1 1-1 1-1 1.5-1 1.5-1 1-1 1-1 .5-.5.5-.5.5-.5.5-.5-1-.5-1-.5-.5.5-.5.5h-1-1l-.5.5-.5.5-1 .5-1 .5v1 1l-.5.5-.5.5h-1-1l-1 .5-1 .5-.5.5-.5.5h-1-1l-.5.5-.5.5v1 1l-1 .5-1 .5-.5.5-.5.5-1 .5-1 .5" style="fill:#863733;stroke:#863733"/><path d="m263 513l7-9 1.5-7 1.5-7 1.5-7.5 1.5-7.5 2.5-6.5 2.5-6.5 2-7 2-7 2-8 2-8-1 2-1 2-.5 1.5-.5 1.5-.5 1.5-.5 1.5-.5 2-.5 2-.5 1.5-.5 1.5-1 1.5-1 1.5v2 2l-.5 2-.5 2-.5 1.5-.5 1.5h-1-1l-3 11-3 11-2 7-2 7-2 7-2 7" style="fill:#d64c2c;stroke:#d64c2c"/><path d="m360 512l2-1v-1-1-1.5-1.5l1-1 1-1v-1.5-1.5l-1 .5-1 .5-1 1-1 1-.5 1-.5 1-.5.5-.5.5v1 1l-.5 1-.5 1 1.5.5 1.5.5" style="fill:#965368;stroke:#965368"/><path d="m359 503l1 1 1-1 1-1 1-2.5 1-2.5 1-1 1-1 .5-1 .5-1v1 1l1-1 1-1 .5-1 .5-1-.5-.5-.5-.5.5-1.5.5-1.5v-.5-.5l2.5-8 2.5-8 6-11 6-11 1.5-9 1.5-9v-7-7-7-7l-3.5 4.5-3.5 4.5 2-6.5 2-6.5v-6-6l-3 4-3 4-1 6-1 6-1.5 7-1.5 7-.5 8.5-.5 8.5-2.5 6.5-2.5 6.5 1 6.5 1 6.5-2 7-2 7-2 6.5-2 6.5-2.5 6.5-2.5 6.5" style="fill:#863733;stroke:#863733"/><path d="m426 491l11-16 3-6 3-6 2-5.5 2-5.5 2-7 2-7 1.5-7.5 1.5-7.5 1.5-6.5 1.5-6.5 2-5.5 2-5.5 2-7 2-7 1.5-7.5 1.5-7.5 2-7 2-7 2-7 2-7 1.5-7 1.5-7 3.5-4.5 3.5-4.5 3.5-3.5 3.5-3.5 2.5 3.5 2.5 3.5-1.5 6-1.5 6h2 2l1.5-6.5 1.5-6.5 2.5-6.5 2.5-6.5 2-5.5 2-5.5 2 4 2 4 2-6 2-6 2 2 2 2-1 6.5-1 6.5h1 1l1.5-7.5 1.5-7.5 1-2 1-2v-10-10-8.5-8.5-9-9-9-9-5-5l-2.5 2.5-2.5 2.5h-1-1l-2.5 6-2.5 6-4 2.5-4 2.5 2.5-5.5 2.5-5.5 1-5.5 1-5.5-4.5 4.5-4.5 4.5v-3-3l-4 5-4 5-4 5-4 5-4 4.5-4 4.5-5 4-5 4-4.5 4.5-4.5 4.5-4.5 4.5-4.5 4.5-4.5 4-4.5 4-3.5 5.5-3.5 5.5-4.5 4.5-4.5 4.5-5 7.5-5 7.5.5-1 .5-1 .5-1.5.5-1.5.5-1.5.5-1.5.5-.5.5-.5.5-1 .5-1 .5-1.5.5-1.5-.5-1.5-.5-1.5-4.5 5.5-4.5 5.5-3.5 5.5-3.5 5.5-3.5 5-3.5 5-3 6-3 6-3.5 4.5-3.5 4.5-2.5 5.5-2.5 5.5-4 3-4 3 .5-5 .5-5-5 9.5-5 9.5v2.5 2.5l.5 1.5.5 1.5-.5 1-.5 1v1 1l-.5.5-.5.5v1 1 1 1l-.5 1-.5 1v1 1 1 1l.5-.5.5-.5.5-1 .5-1 .5-.5.5-.5v-1-1l.5-1 .5-1h-1-1l2-7 2-7 3-2.5 3-2.5-2.5 6.5-2.5 6.5 4-6.5 4-6.5 2-1 2-1 1 1 1 1 2-7 2-7 2.5-6 2.5-6 3.5-5.5 3.5-5.5 2.5.5 2.5.5-1.5 7.5-1.5 7.5 3-3.5 3-3.5 3.5-4.5 3.5-4.5 3-6 3-6 3-6 3-6-.5 3.5-.5 3.5-2.5 6-2.5 6-1.5 7.5-1.5 7.5v5 5l-.5 1.5-.5 1.5-.5 4-.5 4 4-2 4-2 3.5-5.5 3.5-5.5 2.5-5.5 2.5-5.5 1.5 1 1.5 1-1 7-1 7-2 7-2 7v5 5l5.5-3 5.5-3-1 6-1 6-.5 6.5-.5 6.5-1 6-1 6-1.5 5.5-1.5 5.5-1.5 6-1.5 6 3.5.5 3.5.5 2-7 2-7v-5-5l3.5-5 3.5-5 2-3 2-3-1.5 6.5-1.5 6.5-2 7-2 7-1 4.5-1 4.5v3 3l-1 7-1 7-3.5 4.5-3.5 4.5 1 4.5 1 4.5-3.5 4.5-3.5 4.5-2 4-2 4-1.5 6.5-1.5 6.5" style="fill:#a16585;stroke:#a16585"/><path d="m457 491h2l1.5-.5 1.5-.5 1.5-1 1.5-1 .5-1.5.5-1.5 1.5-1 1.5-1-1-1-1-1-1.5 1-1.5 1-1 1-1 1-1 1-1 1-1 1.5-1 1.5-.5.5-.5.5" style="fill:#863733;stroke:#863733"/><path d="m385 488l3-11v-5.5-5.5l-2 4-2 4v6 6l.5 1 .5 1" style="fill:#a5514b;stroke:#a5514b"/><path d="m0 487v1l7.5-9.5 7.5-9.5 4-5 4-5 4-5 4-5 3.5-5 3.5-5 3.5-5.5 3.5-5.5 3-6 3-6 1 4 1 4 3.5 3 3.5 3 1.5-5.5 1.5-5.5 3.5-4.5 3.5-4.5h5 5l-5-3.5-5-3.5-4.5-3-4.5-3-.5 1-.5 1-1 1.5-1 1.5-.5 1.5-.5 1.5-1 1.5-1 1.5-.5 1.5-.5 1.5-1.5 1-1.5 1-.5 1.5-.5 1.5-1 .5-1 .5-3.5 6.5-3.5 6.5-3.5 5-3.5 5-3.5 5.5-3.5 5.5-4 5-4 5-4 5-4 5-5.5 7.5-5.5 7.5v.5.5" style="fill:#f67956;stroke:#f67956"/><path d="m370 486v1l4-1 4-1 2.5-5 2.5-5 1-7 1-7 1-6.5 1-6.5-6 11-6 11-2.5 8-2.5 8" style="fill:#a5514b;stroke:#a5514b"/><path d="m0 485v1l5.5-7.5 5.5-7.5 4-5 4-5 4-5 4-5 3.5-5.5 3.5-5.5 3.5-5 3.5-5 3.5-6.5 3.5-6.5v-.5-.5l3-6 3-6 3-6 3-6 2-5.5 2-5.5 3-6 3-6 2.5-6.5 2.5-6.5 1.5-7.5 1.5-7.5 1.5-6 1.5-6 2-7 2-7 1.5-7.5 1.5-7.5 1.5-6.5 1.5-6.5 2-6 2-6 1.5-4.5 1.5-4.5-3-3-3-3-1-5-1-5-4.5-2-4.5-2v-3-3l-1-2-1-2-3.5 1.5-3.5 1.5-2-2.5-2-2.5-.5-3.5-.5-3.5 3-4 3-4-3-1-3-1-4.5 3-4.5 3-3.5 3.5-3.5 3.5-3 5-3 5-3 6-3 6-4 5-4 5-3 5.5-3 5.5-3.5 4.5-3.5 4.5-3.5 4.5-3.5 4.5-5.5 9.5-5.5 9.5v9.5 9.5 8.5 8.5 9 9 9 9 9 9 9 9 8.5 8.5 9 9 9 9 7 7" style="fill:#6c221a;stroke:#6c221a"/><path d="m422 466l9-11 1-5.5 1-5.5.5-5.5.5-5.5-2 6-2 6-2.5 5.5-2.5 5.5-1.5 5-1.5 5" style="fill:#a16585;stroke:#a16585"/><path d="m362 464l5-15 .5-7 .5-7-1 1-1 1-1 8-1 8-1 5.5-1 5.5" style="fill:#863733;stroke:#863733"/><g style="fill:#da5f47;stroke:#da5f47"><path d="m277 463h2l.5-1.5.5-1.5.5-2 .5-2v-2-2l1-1.5 1-1.5.5-1.5.5-1.5.5-2 .5-2 .5-1.5.5-1.5.5-1.5.5-1.5 1-2 1-2v-.5-.5l3-7 3-7 2.5-6.5 2.5-6.5 2.5 2.5 2.5 2.5 1-6.5 1-6.5 4-1.5 4-1.5.5-2 .5-2 .5-1.5.5-1.5.5-2 .5-2v-.5-.5l2-7 2-7 2-6 2-6 3-6 3-6 3.5-5 3.5-5 5.5-4.5 5.5-4.5h-1.5-1.5l-1 .5-1 .5-1.5.5-1.5.5-1.5 1-1.5 1-3.5 6-3.5 6-3 5.5-3 5.5-3 6-3 6-3 6-3 6-3 6-3 6-3.5 5-3.5 5-4.5 10-4.5 10-.5-1-.5-1-3.5 9.5-3.5 9.5-2 7-2 7-1.5 7.5-1.5 7.5"/><path d="m188 451h2l.5-1.5.5-1.5.5-1 .5-1v-1-1l1-1.5 1-1.5.5-1.5.5-1.5.5-1.5.5-1.5.5-1.5.5-1.5.5-1 .5-1v-.5-.5-.5-.5l-1 1-1 1-.5 2-.5 2-1 1-1 1-1 .5-1 .5-1 1-1 1-.5 2-.5 2-1 1-1 1-.5 1.5-.5 1.5v1.5 1.5h1.5 1.5"/></g><path d="m311 447l1-1 .5-1.5.5-1.5-.5-1-.5-1 .5-.5.5-.5.5-1.5.5-1.5-.5-1-.5-1v-1-1l.5-.5.5-.5v1 1l.5-1 .5-1 .5-.5.5-.5.5-.5.5-.5v-1-1l1-1 1-1 1-.5 1-.5.5-1.5.5-1.5.5-.5.5-.5v-1-1l.5-1.5.5-1.5.5-1 .5-1 .5-.5.5-.5.5-1.5.5-1.5.5-1 .5-1 .5-.5.5-.5 1-1 1-1 .5-1 .5-1 .5-1 .5-1v-.5-.5l2.5-6.5 2.5-6.5 1-4 1-4 4.5-6 4.5-6-3.5-3-3.5-3-4.5-.5-4.5-.5-2 5-2 5-1-1.5-1-1.5-4.5 7.5-4.5 7.5-.5 2-.5 2-.5 1.5-.5 1.5-.5 2-.5 2v2 2l-.5 1.5-.5 1.5v1 1 1 1 1 1l-.5 1-.5 1v2 2 1 1 1.5 1.5l-.5 1.5-.5 1.5v1 1 1.5 1.5 2 2 1 1 1.5 1.5 1.5 1.5l-1 2-1 2v2 2l.5 1 .5 1" style="fill:#b03826;stroke:#b03826"/><path d="m272 446h2l.5-1.5.5-1.5.5-2 .5-2-1-1-1-1-1.5 1-1.5 1v2 2 1.5 1.5h.5.5" style="fill:#863733;stroke:#863733"/><path d="m311 436l1 1v-1.5-1.5-1.5-1.5-1-1-2-2-1.5-1.5-1-1l.5-1.5.5-1.5v-1.5-1.5-1-1-2-2l.5-1 .5-1v-1-1-1-1-1-1l.5-1.5.5-1.5v-2-2l-4 1.5-4 1.5-1 6.5-1 6.5-2.5-2.5-2.5-2.5-2.5 6.5-2.5 6.5-3 7-3 7 4-7 4-7 2-3 2-3 1 8 1 8 1-6.5 1-6.5 1.5-7.5 1.5-7.5 1 2 1 2-.5 8.5-.5 8.5v8 8h1 1" style="fill:#d64c2c;stroke:#d64c2c"/><path d="m510 434l10-10-.5-1-.5-1-4 5-4 5-.5 1-.5 1" style="fill:#965368;stroke:#965368"/><path d="m198 429v1l4.5-4 4.5-4 2.5-3.5 2.5-3.5 3-6.5 3-6.5-1 .5-1 .5-1 1.5-1 1.5-.5 1.5-.5 1.5-1 1-1 1-1-.5-1-.5-1 1-1 1-1 1.5-1 1.5-.5 1.5-.5 1.5-1 1.5-1 1.5-.5 1.5-.5 1.5-1 1-1 1-.5 1-.5 1v.5.5" style="fill:#d64c2c;stroke:#d64c2c"/><path d="m199 425v1l1-1 1-1 .5-1.5.5-1.5 1-1.5 1-1.5.5-1.5.5-1.5 1-1.5 1-1.5 1-1 1-1 1 .5 1 .5 1-1 1-1 .5-1.5.5-1.5 1-1.5 1-1.5 1-.5 1-.5.5-2.5.5-2.5 1-.5 1-.5.5-.5.5-.5 1-1 1-1 .5-1 .5-1 .5-.5.5-.5.5-1.5.5-1.5.5-1.5.5-1.5.5-1 .5-1 3-3 3-3 4-2 4-2 3.5-5.5 3.5-5.5 8-.5 8-.5-3.5-3.5-3.5-3.5-5 3.5-5 3.5-5.5 4.5-5.5 4.5h-1-1l-1.5 1-1.5 1-1 1.5-1 1.5-.5 1.5-.5 1.5-.5 1-.5 1-.5.5-.5.5-1 1-1 1-.5 1-.5 1-.5 1-.5 1-.5 1-.5 1-.5 1.5-.5 1.5-1 1.5-1 1.5-1 1-1 1-.5 2-.5 2-1 1-1 1-1.5 1-1.5 1-1 1-1 1-1 .5-1 .5-.5 1-.5 1-.5 1-.5 1-.5.5-.5.5-.5 1.5-.5 1.5-.5 1-.5 1-.5.5-.5.5-.5.5-.5.5v1 1l-.5 1-.5 1-.5 1-.5 1" style="fill:#da5f47;stroke:#da5f47"/><path d="m334 425l6-10 3.5-5.5 3.5-5.5 3-5.5 3-5.5 3-6 3-6 3.5-6.5 3.5-6.5 5-9.5 5-9.5-.5 5-.5 5 4-3 4-3 2.5-5.5 2.5-5.5 3.5-4.5 3.5-4.5 3-6 3-6 3.5-5 3.5-5 3.5-5.5 3.5-5.5 4.5-5.5 4.5-5.5-4.5 3-4.5 3-3 5.5-3 5.5 1.5-5.5 1.5-5.5 4-5 4-5 6-10 6-10-4 5-4 5-4 5-4 5-4.5 3-4.5 3-4.5 4-4.5 4-6.5 5.5-6.5 5.5-.5.5-.5.5-1.5 5.5-1.5 5.5-2 4.5-2 4.5-3.5 5.5-3.5 5.5-3.5 5.5-3.5 5.5-3.5 5.5-3.5 5.5-6 10-6 10-.5 7.5-.5 7.5-2.5 6-2.5 6-2 7-2 7" style="fill:#d78188;stroke:#d78188"/><path d="m292 417l9-20 3.5-5 3.5-5 3-6 3-6 3-6 3-6 3-6 3-6 3-5.5 3-5.5 3.5-6 3.5-6-1 1-1 1-.5.5-.5.5-.5.5-.5.5-1 1-1 1-.5 1-.5 1-.5 1.5-.5 1.5-.5 1-.5 1-.5.5-.5.5-.5.5-.5.5v1 1l-1 .5-1 .5v1 1 1 1l-.5.5-.5.5-1 .5-1 .5-.5.5-.5.5v1 1l-1 .5-1 .5-.5 1-.5 1-1 1-1 1-.5 2-.5 2-.5 2-.5 2-.5.5-.5.5-.5.5-.5.5v1 1l-1 1-1 1-.5 1-.5 1v1 1l-1 1-1 1-.5 1-.5 1-.5.5-.5.5v1 1l-.5.5-.5.5-.5 1-.5 1v1 1l-.5.5-.5.5-.5-.5-.5-.5h-.5-.5l-.5 1-.5 1-.5 1.5-.5 1.5-.5 1-.5 1v2 2l-1 1.5-1 1.5-.5 1.5-.5 1.5-.5 1-.5 1-.5.5-.5.5-.5 1.5-.5 1.5-.5 1-.5 1 .5 1 .5 1" style="fill:#d87269;stroke:#d87269"/><path d="m48 416v1l1-.5 1-.5.5-1.5.5-1.5 1.5-1 1.5-1 .5-1.5.5-1.5 1-1.5 1-1.5.5-1.5.5-1.5 1-1.5 1-1.5.5-1 .5-1 1-1.5 1-1.5v-1-1l.5-2 .5-2 .5-.5.5-.5v-.5-.5l1-1 1-1 2.5-.5 2.5-.5-1-.5-1-.5-1-1-1-1 3.5-9 3.5-9 2-7 2-7 2-6.5 2-6.5 1.5-7.5 1.5-7.5 1.5-7.5 1.5-7.5 2.5-6.5 2.5-6.5 2-6.5 2-6.5 2.5-6.5 2.5-6.5 1-6 1-6 2-7.5 2-7.5 2-7.5 2-7.5 3-6 3-6 4-5 4-5 4-5 4-5 3.5-5.5 3.5-5.5 5.5-9.5 5.5-9.5h-.5-.5l-3.5 5.5-3.5 5.5-3.5 5.5-3.5 5.5-4 5-4 5-5.5 6.5-5.5 6.5v-.5-.5l-1.5 4.5-1.5 4.5-2.5 6-2.5 6-2.5 7-2.5 7-1-1.5-1-1.5v3 3 2 2 2 2l-1 1.5-1 1.5v2 2l-1 1.5-1 1.5-1 2-1 2-1.5 4.5-1.5 4.5-2 6-2 6-1.5 6.5-1.5 6.5-1.5 7.5-1.5 7.5-2 7-2 7-1.5 6-1.5 6-1.5 7.5-1.5 7.5-2.5 6.5-2.5 6.5-3 6-3 6-2 5.5-2 5.5-3 6-3 6-3 6-3 6" style="fill:#b03826;stroke:#b03826"/><path d="m479 413h2l.5-1.5.5-1.5 1-1.5 1-1.5-1-1-1-1-1 .5-1 .5-.5 1.5-.5 1.5-.5 2-.5 2h.5.5" style="fill:#a16585;stroke:#a16585"/><path d="m208 406v1l1-.5 1-.5 1-1 1-1 1.5-1 1.5-1 1-1 1-1 .5-2 .5-2 1-1 1-1 1-1.5 1-1.5.5-1.5.5-1.5.5-1 .5-1-1.5 1.5-1.5 1.5-1.5 1-1.5 1-.5 1.5-.5 1.5-1 1-1 1-1 1.5-1 1.5-1 1-1 1-1 1.5-1 1.5-.5 1-.5 1" style="fill:#f67956;stroke:#f67956"/><path d="m333 400v1l.5-1 .5-1 1-1.5 1-1.5 1-1 1-1 1-1 1-1 .5-2 .5-2 1-1 1-1 .5-1 .5-1v-.5-.5l.5-1.5.5-1.5 1-1.5 1-1.5.5-1.5.5-1.5.5-1.5.5-1.5.5-1.5.5-1.5-.5-.5-.5-.5-4.5 6-4.5 6-1 4-1 4-2.5 6.5-2.5 6.5" style="fill:#a5514b;stroke:#a5514b"/><path d="m299 394v1l.5-1.5.5-1.5-8.5-4.5-8.5-4.5-4-4.5-4-4.5-3.5-5.5-3.5-5.5-1-1.5-1-1.5-8 .5-8 .5-3.5 5.5-3.5 5.5-4 2-4 2-3 3-3 3 5.5-.5 5.5-.5 3-6 3-6 3.5-2.5 3.5-2.5 4.5-1.5 4.5-1.5 3.5 5.5 3.5 5.5 4 4.5 4 4.5 5 3.5 5 3.5 6 3 6 3" style="fill:#d64c2c;stroke:#d64c2c"/><path d="m118 393l6-2-6-3-6-3-6.5-2.5-6.5-2.5-7 .5-7 .5-8.5-.5-8.5-.5 1 1 1 1 1 .5 1 .5h1.5 1.5 1.5 1.5 1 1 1.5 1.5 2 2 1 1 1 1 1 1 1.5 1.5l.5.5.5.5.5.5.5.5-.5.5-.5.5-1.5-.5-1.5-.5-2-.5-2-.5-1 .5-1 .5-1.5.5-1.5.5-2 .5-2 .5h-2-2-2-2-2.5-2.5-1.5-1.5l-.5.5-.5.5 10 .5 10 .5h8 8l9 2 9 2" style="fill:#ffbe88;stroke:#ffbe88"/><path d="m65 386v1h1.5 1.5 2.5 2.5 2 2 2 2l2-.5 2-.5 1.5-.5 1.5-.5 1-.5 1-.5h-2.5-2.5-2-2-2.5-2.5l-2-.5-2-.5-2.5.5-2.5.5-1 1-1 1" style="fill:#ffdfaa;stroke:#ffdfaa"/><path d="m301 386h2l.5-.5.5-.5.5-.5.5-.5v-1-1l.5-1 .5-1 .5-.5.5-.5.5-.5.5-.5v-1-1l1-1 1-1 .5-1 .5-1 .5-.5.5-.5.5-1.5.5-1.5.5-1 .5-1 1-1 1-1 .5-2 .5-2 1-1 1-1 .5-1 .5-1v-.5-.5l1-1.5 1-1.5v-1-1l1-.5 1-.5.5-1.5.5-1.5.5-.5.5-.5.5-1 .5-1 .5-1.5.5-1.5.5-.5.5-.5.5-.5.5-.5 1-1 1-1 .5-1 .5-1-5.5 3.5-5.5 3.5-5 4-5 4-6 3-6 3-5 3.5-5 3.5h-6-6v5 5l4 5 4 5 7.5 2 7.5 2" style="fill:#ffbe88;stroke:#ffbe88"/><path d="m94 385l3 1 .5-.5.5-.5-.5-.5-.5-.5-.5-.5-.5-.5h-1.5-1.5-1-1-1-1-1-1-2-2-1.5-1.5-1-1-1.5-1.5-1.5-1.5l2 .5 2 .5h2.5 2.5 2 2 2.5 2.5l2 .5 2 .5" style="fill:#ffbcac;stroke:#ffbcac"/><path d="m220 383h3l1-1 1-1 1-1 1-1 1-1.5 1-1.5.5-1.5.5-1.5 1-1.5 1-1.5 1-1 1-1 1-.5 1-.5.5-.5.5-.5 4.5-6 4.5-6-2 1-2 1-4 5-4 5-4 4.5-4 4.5-3 4-3 4" style="fill:#ffbe88;stroke:#ffbe88"/><g style="fill:#d87269;stroke:#d87269"><path d="m344 383v1l6-10 6-10 3.5-5.5 3.5-5.5 3.5-5.5 3.5-5.5 3.5-5.5 3.5-5.5 2-4.5 2-4.5 1.5-5.5 1.5-5.5-7 3-7 3-7 1.5-7 1.5-7 2.5-7 2.5v.5.5l1.5-.5 1.5-.5 1-.5 1-.5h1.5 1.5l1-.5 1-.5 6.5-.5 6.5-.5 3.5-2 3.5-2 2 1 2 1-3 5-3 5-2 4-2 4-3.5 5-3.5 5-4.5 10-4.5 10-.5 1.5-.5 1.5-.5 1.5-.5 1.5-.5 1.5-.5 1.5-1 1.5-1 1.5-.5 1.5-.5 1.5"/><path d="m366 383h2l1-1 1-1 .5-2 .5-2 2.5-6.5 2.5-6.5-3 2.5-3 2.5-2 7-2 7"/></g><path d="m318 381v1l4.5-7.5 4.5-7.5 1 1.5 1 1.5 2-5 2-5 4.5.5 4.5.5 3.5 3 3.5 3 2.5-6.5 2.5-6.5 1-5 1-5 2.5-5 2.5-5-4.5-5.5-4.5-5.5-1 .5-1 .5-5.5 4.5-5.5 4.5-3.5 5-3.5 5-3 6-3 6-2 6-2 6-2 7-2 7" style="fill:#a5514b;stroke:#a5514b"/><path d="m520 371h2l1-1.5 1-1.5.5-1.5.5-1.5 1-1.5 1-1.5.5-1.5.5-1.5v-2-2l-1 2-1 2-.5 1-.5 1-.5.5-.5.5-.5.5-.5.5-.5.5-.5.5-.5 1-.5 1-.5.5-.5.5v2 2" style="fill:#863733;stroke:#863733"/><path d="m238 369l11-9 5-3.5 5-3.5 3.5 3.5 3.5 3.5 1 1.5 1 1.5-.5-5.5-.5-5.5-4.5-1-4.5-1-5 4-5 4-5.5 4-5.5 4-.5.5-.5.5v1 1h1 1" style="fill:#f67956;stroke:#f67956"/><path d="m349 367l1 1 4.5-10 4.5-10 3.5-5 3.5-5 2-4 2-4 3-5 3-5-2-1-2-1-3.5 2-3.5 2-6.5.5-6.5.5 4.5 5.5 4.5 5.5-2.5 5-2.5 5-1 5-1 5-2.5 6.5-2.5 6.5" style="fill:#da5f47;stroke:#da5f47"/><g style="fill:#965368;stroke:#965368"><path d="m441 366l1-1 .5-1.5.5-1.5 1-1.5 1-1.5v-2-2l-1-.5-1-.5-.5 1.5-.5 1.5-.5 2-.5 2v2 2 .5.5"/><path d="m458 364h2l1-1 1-1 .5-2 .5-2v-2-2l-.5-2-.5-2-1 1-1 1-.5 2-.5 2-1 1-1 1v2 2l.5 1 .5 1"/></g><path d="m275 359l12-8 3.5-5 3.5-5v-2-2l3.5-5.5 3.5-5.5 3-6 3-6h-3-3l-.5-1-.5-1-3.5 5.5-3.5 5.5-3.5 5.5-3.5 5.5-3.5 5.5-3.5 5.5-3 5.5-3 5.5 1 1.5 1 1.5" style="fill:#f67956;stroke:#f67956"/><path d="m320 355v1l1-.5 1-.5v-1-1l.5-.5.5-.5 1-.5 1-.5.5-.5.5-.5v-1-1-1-1l1-.5 1-.5v-1-1l.5-.5.5-.5.5-.5.5-.5.5-1 .5-1 .5-1.5.5-1.5-1 1-1 1-.5.5-.5.5-.5.5-.5.5-.5 1.5-.5 1.5-.5 1-.5 1-.5.5-.5.5-.5 1.5-.5 1.5-1 .5-1 .5v1 1l-1 1.5-1 1.5" style="fill:#ff9969;stroke:#ff9969"/><path d="m236 353l12-8 4-4.5 4-4.5-5.5 2.5-5.5 2.5-4.5 3.5-4.5 3.5v2.5 2.5" style="fill:#f67956;stroke:#f67956"/><path d="m493 352h2v-2-2-1.5-1.5l.5-.5.5-.5v-1.5-1.5l-1.5.5-1.5.5-.5 2-.5 2 .5 1.5.5 1.5v1.5 1.5" style="fill:#a16585;stroke:#a16585"/><path d="m250 348l15-3-3.5-2-3.5-2-4 3.5-4 3.5" style="fill:#ffbe88;stroke:#ffbe88"/><path d="m465 339h2l.5-1.5.5-1.5.5-2 .5-2 1-1 1-1-.5-2-.5-2v-1-1l-1 1.5-1 1.5-.5 1.5-.5 1.5-1 1-1 1-.5 2-.5 2 .5 1.5.5 1.5" style="fill:#965368;stroke:#965368"/><path d="m504 328l6-14 1.5-5 1.5-5-2 7-2 7-2.5 5-2.5 5" style="fill:#a16585;stroke:#a16585"/><path d="m340 324l2 1 7-2.5 7-2.5 7-1.5 7-1.5 7-3 7-3 .5-.5.5-.5h-2.5-2.5l-1 1-1 1h-1.5-1.5l-1 .5-1 .5-1 .5-1 .5-1 .5-1 .5-.5.5-.5.5h-1.5-1.5-2-2-1-1l1.5-1.5 1.5-1.5.5-1 .5-1-1.5-.5-1.5-.5-1.5-1-1.5-1-.5-.5-.5-.5 1.5-1 1.5-1v1 1l2-.5 2-.5 1-.5 1-.5 2-6.5 2-6.5 4-5 4-5 3-5.5 3-5.5 3.5-5 3.5-5 5-7.5 5-7.5v-.5-.5l3.5-6 3.5-6 3-5.5 3-5.5-2.5-4.5-2.5-4.5-2.5-.5-2.5-.5-3.5-1.5-3.5-1.5-4.5 3-4.5 3-5-3-5-3-6.5-1.5-6.5-1.5-1.5-.5-1.5-.5-5 1.5-5 1.5-3-3-3-3h-4-4l-2 .5-2 .5-2.5.5-2.5.5-1.5.5-1.5.5-1.5.5-1.5.5-2 .5-2 .5-1 1-1 1-6 3-6 3-6.5 2.5-6.5 2.5-6 2.5-6 2.5-6 3-6 3-6.5 2.5-6.5 2.5-7 2-7 2-7.5.5-7.5.5-7.5 1-7.5 1h-9-9l-8.5-.5-8.5-.5-8-1-8-1-3-2.5-3-2.5 6.5-2.5 6.5-2.5 8-1 8-1 6.5-.5 6.5-.5 3.5-4 3.5-4h7 7l8 1 8 1 5.5-3.5 5.5-3.5 3-5.5 3-5.5-2.5-2.5-2.5-2.5-6 2-6 2-1-4-1-4 4.5-4.5 4.5-4.5-2.5-2-2.5-2-6 3-6 3-6 3-6 3-7 2-7 2-6.5 2-6.5 2-2.5-1.5-2.5-1.5 5-4 5-4 5-4 5-4 5.5-3 5.5-3 5.5-3.5 5.5-3.5-2.5-4.5-2.5-4.5-1-7-1-7-5.5-3.5-5.5-3.5-5 3.5-5 3.5-4-1-4-1v-4-4l-2-10-2-10h-.5-.5l-1 1.5-1 1.5-.5 1.5-.5 1.5-1 .5-1 .5-3 6-3 6-3.5 5.5-3.5 5.5-4 8-4 8-5.5 9.5-5.5 9.5-3.5 5.5-3.5 5.5-4 5-4 5-4 5-4 5-3 6-3 6-2 7.5-2 7.5 8-3 8-3 6.5 2 6.5 2 1 2 1 2 5.5 1.5 5.5 1.5 8.5.5 8.5.5 6 3 6 3 2.5 3 2.5 3 2 5 2 5-5 4-5 4-4 5-4 5 6-1.5 6-1.5-4.5 2.5-4.5 2.5-1.5 4.5-1.5 4.5 1 2 1 2 1.5-5 1.5-5 4.5 2.5 4.5 2.5 3.5-.5 3.5-.5 3-3 3-3 4.5-2.5 4.5-2.5 3-5.5 3-5.5 3.5 4.5 3.5 4.5 4.5 2.5 4.5 2.5 4-3 4-3 3.5-5 3.5-5 2 3 2 3 4 2 4 2h6 6l4.5-1 4.5-1 6.5-.5 6.5-.5 5.5-1.5 5.5-1.5 6.5-1.5 6.5-1.5 4.5-4 4.5-4 4.5-4.5 4.5-4.5 3.5 1.5 3.5 1.5 5-4 5-4 4.5.5 4.5.5 1 6.5 1 6.5 2.5 2.5 2.5 2.5 5-4 5-4-1.5 6.5-1.5 6.5-1 4.5-1 4.5-3 6-3 6-4 5-4 5-4 5-4 5-4 5-4 5" style="fill:#ffbe88;stroke:#ffbe88"/><path d="m437 319l8-12-3 1.5-3 1.5-1 4.5-1 4.5" style="fill:#c187a5;stroke:#c187a5"/><path d="m359 316h2 2 2 1.5 1.5l.5-.5.5-.5 1-.5 1-.5 1-.5 1-.5-1-.5-1-.5-1.5.5-1.5.5h-1.5-1.5-1.5-1.5l-1.5 1.5-1.5 1.5" style="fill:#ffbcac;stroke:#ffbcac"/><path d="m365 313h3l1.5-.5 1.5-.5 1 .5 1 .5 1-.5 1-.5v-.5-.5l3.5-5 3.5-5 4-5 4-5 3.5-5.5 3.5-5.5 5-2.5 5-2.5 2-7 2-7 3.5-3.5 3.5-3.5 2.5-6.5 2.5-6.5 3.5-7.5 3.5-7.5-1.5.5-1.5.5 2-8 2-8-.5-5.5-.5-5.5-2.5.5-2.5.5 2.5-6.5 2.5-6.5 2.5-6.5 2.5-6.5 2.5-6 2.5-6 .5-5.5.5-5.5-6.5-1.5-6.5-1.5 3.5-4.5 3.5-4.5 4.5-4 4.5-4-5.5-.5-5.5-.5-.5-1.5-.5-1.5v-4-4l-6-.5-6-.5-3-1-3-1-5 2-5 2-5-1-5-1-3 .5-3 .5-3 5-3 5h-5-5-8-8l2-4 2-4-2.5-5-2.5-5-1.5-6.5-1.5-6.5-3.5-5.5-3.5-5.5-2.5-6.5-2.5-6.5-3-1.5-3-1.5-5.5-.5-5.5-.5-4.5 2.5-4.5 2.5h-6-6l-3-5.5-3-5.5-6-1-6-1-2-6-2-6-4.5-4.5-4.5-4.5 3.5-5.5 3.5-5.5-4-1.5-4-1.5-5.5 3.5-5.5 3.5-4-3-4-3 .5-8.5.5-8.5-4 5.5-4 5.5-4 5-4 5-3.5 5.5-3.5 5.5-3.5 5.5-3.5 5.5-3.5 5-3.5 5-4 5-4 5-3.5 5.5-3.5 5.5-3.5 5.5-3.5 5.5-6.5 9.5-6.5 9.5 2 10 2 10v4 4l4 1 4 1 5-3.5 5-3.5 5.5 3.5 5.5 3.5 1 7 1 7 2.5 4.5 2.5 4.5-5.5 3.5-5.5 3.5-5.5 3-5.5 3-5 4-5 4-5 4-5 4 2.5 1.5 2.5 1.5 6.5-2 6.5-2 7-2 7-2 6-3 6-3 6-3 6-3 2.5 2 2.5 2-4.5 4.5-4.5 4.5 1 4 1 4 6-2 6-2 2.5 2.5 2.5 2.5-3 5.5-3 5.5-5.5 3.5-5.5 3.5-8-1-8-1h-7-7l-3.5 4-3.5 4-6.5.5-6.5.5-8 1-8 1-6.5 2.5-6.5 2.5 3 2.5 3 2.5 8 1 8 1 8.5.5 8.5.5h9 9l7.5-1 7.5-1 7.5-.5 7.5-.5 7-2 7-2 6.5-2.5 6.5-2.5 6-3 6-3 6-2.5 6-2.5 6.5-2.5 6.5-2.5 6-3 6-3-1-1-1-1h-2-2l-.5.5-.5.5-1 .5-1 .5h-2-2l-.5.5-.5.5h-1-1-1-1l-1.5-.5-1.5-.5v-1.5-1.5l-.5-2-.5-2-1-1-1-1-1-1.5-1-1.5-.5-1.5-.5-1.5-.5-1.5-.5-1.5-.5-2-.5-2-.5-1.5-.5-1.5-1-1.5-1-1.5v-2-2l-1-.5-1-.5-1 .5-1 .5-3 6.5-3 6.5 1.5 6.5 1.5 6.5-3.5 4.5-3.5 4.5-.5-1.5-.5-1.5-.5-1-.5-1 1-1 1-1 .5-.5.5-.5v-1.5-1.5l-.5-2.5-.5-2.5-.5-.5-.5-.5-1-1.5-1-1.5h-1-1l-.5-1-.5-1v-2-2l1-1 1-1 1-1 1-1 .5-.5.5-.5v-1.5-1.5l.5-.5.5-.5.5-.5.5-.5.5-.5.5-.5h1 1v-1.5-1.5l1-.5 1-.5 4.5-2.5 4.5-2.5 6.5-2 6.5-2 7.5-1.5 7.5-1.5 6 1 6 1 2-1 2-1 7-.5 7-.5 6-3 6-3h7 7l5 3 5 3 1 6.5 1 6.5-5 4-5 4-6 3-6 3-6.5 1.5-6.5 1.5-1.5 2-1.5 2-7.5 6-7.5 6 2.5-.5 2.5-.5 2-.5 2-.5 5-4 5-4 6.5-2 6.5-2 6.5-1.5 6.5-1.5 6 1.5 6 1.5 5.5-3.5 5.5-3.5 5.5-.5 5.5-.5 5.5-2.5 5.5-2.5 6.5-.5 6.5-.5-1.5 7-1.5 7-2.5 6.5-2.5 6.5-2.5 6.5-2.5 6.5-5 10-5 10v4 4l-2.5 6-2.5 6-4.5 5.5-4.5 5.5.5-2.5.5-2.5.5-2 .5-2 1-1 1-1-.5-1.5-.5-1.5 1.5-1 1.5-1 .5-1.5.5-1.5 1-1.5 1-1.5 1-1 1-1 1-1.5 1-1.5.5-2 .5-2-1 .5-1 .5-.5 1-.5 1-.5.5-.5.5-.5 1-.5 1-.5 1.5-.5 1.5-1 .5-1 .5-5 7.5-5 7.5-3.5 5-3.5 5-3 5.5-3 5.5-4 5-4 5-2 6.5-2 6.5v2.5 2.5l-1 .5-1 .5-.5 1-.5 1h1.5 1.5" style="fill:#ffdfaa;stroke:#ffdfaa"/><g style="fill:#ffbcac;stroke:#ffbcac"><path d="m375 311v1h1.5 1.5l1-1 1-1h2.5 2.5l6.5-5.5 6.5-5.5 4.5-4 4.5-4 4.5-3 4.5-3 4-5 4-5 4-5 4-5 3.5-6 3.5-6 4-5 4-5 4.5-4.5 4.5-4.5 4.5-4.5 4.5-4.5 4-3.5 4-3.5 4-5 4-5 4.5-4.5 4.5-4.5 4-5 4-5 3.5-5 3.5-5 4-5 4-5 7.5-7.5 7.5-7.5v-3-3-2-2-2.5-2.5-2-2-2-2-2.5-2.5-2-2-1.5-1.5l-1-5-1-5-3 6-3 6-3.5 5-3.5 5-3.5 5.5-3.5 5.5-3.5 5.5-3.5 5.5-3.5 3.5-3.5 3.5-3.5 4-3.5 4-3.5 5.5-3.5 5.5-3 6-3 6-3.5 5.5-3.5 5.5-3.5 5-3.5 5-.5-4.5-.5-4.5-3 6-3 6-3 2-3 2 2-6.5 2-6.5 3-6 3-6h-2-2l-3 6-3 6-5 8.5-5 8.5-1 .5-1 .5-1 .5-1 .5-.5.5-.5.5-3.5 7.5-3.5 7.5-2.5 6.5-2.5 6.5-3.5 3.5-3.5 3.5-2 7-2 7-5 2.5-5 2.5-3.5 5.5-3.5 5.5-4 5-4 5-3.5 5-3.5 5"/><path d="m360 310l3 1 1-.5 1-.5v-2.5-2.5l-1 .5-1 .5-2 .5-2 .5v-1-1l-1.5 1-1.5 1 .5.5.5.5 1.5 1 1.5 1"/></g><path d="m0 309v1l5.5-9.5 5.5-9.5 3.5-4.5 3.5-4.5 3.5-4.5 3.5-4.5 3-5.5 3-5.5 4-5 4-5 3-6 3-6 3-5 3-5 3.5-3.5 3.5-3.5 4.5-3 4.5-3 3 1 3 1-3 4-3 4 .5 3.5.5 3.5 2 2.5 2 2.5 3.5-1.5 3.5-1.5 1 2 1 2v3 3l4.5 2 4.5 2 1 5 1 5 3 3 3 3 1-2 1-2 1-1.5 1-1.5v-2-2l1-1.5 1-1.5v-2-2-2-2-3-3l1-9.5 1-9.5.5-8.5.5-8.5.5-7.5.5-7.5.5-8 .5-8-1-5-1-5v-5-5l-4.5 4.5-4.5 4.5-5 3.5-5 3.5-2.5-2.5-2.5-2.5-1-7-1-7-1.5-5.5-1.5-5.5h4.5 4.5l3-4 3-4 3.5-5.5 3.5-5.5 5.5-12 5.5-12 2.5-5.5 2.5-5.5-3.5-5-3.5-5-4.5-1.5-4.5-1.5 2-5 2-5-4-2.5-4-2.5-2-6-2-6-2-6-2-6-1.5-1.5-1.5-1.5-1.5-2-1.5-2-1-1-1-1-3.5-1.5-3.5-1.5-3.5-9.5-3.5-9.5h-2.5-2.5-2-2-2-2-2.5-2.5-.5-.5l2 1 2 1 1.5 5 1.5 5 3 1 3 1 1.5 1.5 1.5 1.5-4.5 7.5-4.5 7.5-1-6-1-6-2.5.5-2.5.5-2.5-3-2.5-3-.5-7.5-.5-7.5h-1.5-1.5-2-2-2.5-2.5-2-2-2.5-2.5-.5-.5l1 .5 1 .5.5 1 .5 1-.5.5-.5.5-.5 1-.5 1h-1-1l-1.5-.5-1.5-.5v-2.5-2.5h-7.5-7.5v2 2 9 9 9 9 8.5 8.5 9 9 9 9 9 9 8.5 8.5 9 9 9 9 9 9 8.5 8.5 9 9 9 9 5.5 5.5l3.5-4.5 3.5-4.5 2-7 2-7 2.5-5 2.5-5 3.5-4.5 3.5-4.5 1 3 1 3 1.5 3.5 1.5 3.5 3 .5 3 .5.5 3.5.5 3.5-3.5 3.5-3.5 3.5-1 3-1 3-2.5 3-2.5 3-3.5 1.5-3.5 1.5 3 5 3 5-3.5-3.5-3.5-3.5v2.5 2.5l-6.5 8.5-6.5 8.5v1.5 1.5 2.5 2.5 2 2 2.5 2.5 2 2 2.5 2.5 2 2 2 2 1.5 1.5" style="fill:#863733;stroke:#863733"/><g style="fill:#c187a5;stroke:#c187a5"><path d="m419 306l10-15 4.5-4.5 4.5-4.5 3.5-5.5 3.5-5.5 4.5-4 4.5-4 4.5-4.5 4.5-4.5 4.5-4.5 4.5-4.5 5-4 5-4 4-4.5 4-4.5 4-5 4-5 4-5 4-5v3 3l4.5-4.5 4.5-4.5-1 5.5-1 5.5-2.5 5.5-2.5 5.5 4-2.5 4-2.5 2.5-6 2.5-6h1 1l2.5-2.5 2.5-2.5v-2-2-2.5-2.5-2-2-2.5-2.5-2-2-.5-.5l-1 1-1 1-.5 1.5-.5 1.5-1 1-1 1-.5.5-.5.5-1 .5-1 .5v1 1l-.5.5-.5.5-.5 1-.5 1-1 1-1 1-.5.5-.5.5-1 .5-1 .5-1 .5-1 .5.5-1 .5-1 1-1 1-1 .5-1.5.5-1.5 1-1.5 1-1.5 1-1 1-1 1.5-1 1.5-1 .5-1.5.5-1.5 1.5-1 1.5-1 1-1.5 1-1.5v-2-2-2.5-2.5-2-2-2.5-2.5-2-2-1.5-1.5l-7.5 7.5-7.5 7.5-4 5-4 5-3.5 5-3.5 5-4 5-4 5-4.5 4.5-4.5 4.5-4 5-4 5-4 3.5-4 3.5-4.5 4.5-4.5 4.5-4.5 4.5-4.5 4.5-4 5-4 5-3.5 6-3.5 6-6 10-6 10-4 5-4 5-1.5 5.5-1.5 5.5 3-5.5 3-5.5 4.5-3 4.5-3 .5 1.5.5 1.5-.5 1.5-.5 1.5-.5 1-.5 1-.5.5-.5.5-.5 1.5-.5 1.5-.5 1.5-.5 1.5-.5 1-.5 1"/><path d="m448 298h12l4-1.5 4-1.5 3.5-5.5 3.5-5.5 4-5 4-5 4-5 4-5 3-4.5 3-4.5 3-6 3-6-4 3-4 3-4 5-4 5-4.5 4-4.5 4-5 3-5 3-4.5 4.5-4.5 4.5-5 4-5 4-.5 4-.5 4"/><path d="m487 284l6-14-.5-2-.5-2-2 7-2 7-.5 2-.5 2"/></g><path d="m455 276l10-10 3-4.5 3-4.5h-1-1l-4 5-4 5-3 4.5-3 4.5" style="fill:#965368;stroke:#965368"/><path d="m0 271v1l6.5-8.5 6.5-8.5v-2.5-2.5l3.5 3.5 3.5 3.5-3-5-3-5 3.5-1.5 3.5-1.5 2.5-3 2.5-3 1-3 1-3 3.5-3.5 3.5-3.5-.5-3.5-.5-3.5-3-.5-3-.5-1.5-3.5-1.5-3.5-1-3-1-3-3.5 4.5-3.5 4.5-2.5 5-2.5 5-2 7-2 7-3.5 4.5-3.5 4.5v2 2 2.5 2.5 2 2 2.5 2.5 2 2 1.5 1.5" style="fill:#6c221a;stroke:#6c221a"/><path d="m394 267l9-11 2.5-6 2.5-6v-4-4l-.5 2-.5 2-1 1.5-1 1.5-1 1-1 1-1 1.5-1 1.5-.5 1.5-.5 1.5-1.5 1-1.5 1 .5 1.5.5 1.5-1 1-1 1-.5 2-.5 2-.5 2.5-.5 2.5" style="fill:#ffecd0;stroke:#ffecd0"/><path d="m400 245v1l1-.5 1-.5.5-1.5.5-1.5.5-1 .5-1 .5-.5.5-.5.5-1 .5-1 1-.5 1-.5 5-10 5-10 2.5-6.5 2.5-6.5 2.5-6.5 2.5-6.5 1.5-7 1.5-7-6.5.5-6.5.5-5.5 2.5-5.5 2.5-5.5.5-5.5.5-5.5 3.5-5.5 3.5-6-1.5-6-1.5-6.5 1.5-6.5 1.5-6.5 2-6.5 2-5 4-5 4h4 4l3 3 3 3 5-1.5 5-1.5 1.5.5 1.5.5 6.5 1.5 6.5 1.5 5 3 5 3 4.5-3 4.5-3 3.5 1.5 3.5 1.5 2.5.5 2.5.5 2.5 4.5 2.5 4.5-3 5.5-3 5.5-3.5 6-3.5 6" style="fill:#ffbcac;stroke:#ffbcac"/><path d="m18 241h2l1-1 1-1 .5-2 .5-2-1-1-1-1-1 1.5-1 1.5-1.5.5-1.5.5.5 2 .5 2h.5.5" style="fill:#863733;stroke:#863733"/><path d="m106 241l5-14 2.5-6 2.5-6 1.5-4.5 1.5-4.5 2-7.5 2-7.5 2.5-6.5 2.5-6.5 2-6.5 2-6.5 3-6 3-6 3.5-8.5 3.5-8.5-1.5-3-1.5-3-2.5-3-2.5-3 3-6 3-6-2.5-3.5-2.5-3.5.5-2.5.5-2.5v-3.5-3.5l-2.5-3.5-2.5-3.5-4 3-4 3-3 3-3 3-1-1.5-1-1.5-2.5 5.5-2.5 5.5-2 2-2 2 1-8 1-8-5.5 12-5.5 12-3.5 5.5-3.5 5.5-3 4-3 4h-4.5-4.5l1.5 5.5 1.5 5.5 1 7 1 7 2.5 2.5 2.5 2.5 5-3.5 5-3.5 4.5-4.5 4.5-4.5v5 5l1 5 1 5-.5 8-.5 8-.5 7.5-.5 7.5-.5 8.5-.5 8.5-1 9.5-1 9.5 1 1.5 1 1.5" style="fill:#a5514b;stroke:#a5514b"/><path d="m21 229h2l.5-1.5.5-1.5 2-.5 2-.5.5-1.5.5-1.5-1-1.5-1-1.5-1 1-1 1-1.5 1-1.5 1v1 1 1 1l-.5 1-.5 1" style="fill:#863733;stroke:#863733"/><path d="m427 227l3-1 .5-.5.5-.5v-.5-.5l.5-1.5.5-1.5.5-1.5.5-1.5.5-2 .5-2 1-1 1-1 1-1.5 1-1.5-.5 1.5-.5 1.5-.5 1.5-.5 1.5-1 1.5-1 1.5.5 2.5.5 2.5 5-8.5 5-8.5 3-6 3-6h2 2l-3 6-3 6-2 6.5-2 6.5 3-2 3-2 3-6 3-6 .5 4.5.5 4.5 3.5-5 3.5-5 3.5-5.5 3.5-5.5 3-6 3-6 3.5-5.5 3.5-5.5 3.5-4 3.5-4 3.5-3.5 3.5-3.5 3.5-5.5 3.5-5.5 3.5-5.5 3.5-5.5 3.5-5 3.5-5 3-6 3-6 1 5 1 5v-9-9-8.5-8.5-9-9-9-9-9-9-8.5-8.5-6.5-6.5h-2.5-2.5-9-9-9-9-8.5-8.5-9-9-9-9-9-9-8.5-8.5-9-9-9-9-9-9-8.5-8.5-9-9-9-9-9-9-7.5-7.5l-.5 1-.5 1-1 1-1 1-.5 1.5-.5 1.5-1 1.5-1 1.5-.5 1-.5 1-.5 8.5-.5 8.5 4 3 4 3 5.5-3.5 5.5-3.5 4 1.5 4 1.5-3.5 5.5-3.5 5.5 4.5 4.5 4.5 4.5 2 6 2 6 6 1 6 1 3 5.5 3 5.5h6 6l4.5-2.5 4.5-2.5 5.5.5 5.5.5 3 1.5 3 1.5 2.5 6.5 2.5 6.5 3.5 5.5 3.5 5.5 1.5 6.5 1.5 6.5 2.5 5 2.5 5-2 4-2 4h8 8 5 5l3-5 3-5 3-.5 3-.5 5 1 5 1 5-2 5-2 3 1 3 1 6 .5 6 .5v4 4l.5 1.5.5 1.5 5.5.5 5.5.5-4.5 4-4.5 4-3.5 4.5-3.5 4.5 6.5 1.5 6.5 1.5-.5 5.5-.5 5.5-2.5 6-2.5 6-2.5 6.5-2.5 6.5-2.5 6.5-2.5 6.5 2.5-.5 2.5-.5.5 5.5.5 5.5-2 8-2 8" style="fill:#ffecd0;stroke:#ffecd0"/><path d="m431 224v1l1-.5 1-.5 1-.5 1-.5-.5-2.5-.5-2.5 1-1.5 1-1.5.5-1.5.5-1.5.5-1.5.5-1.5-1 1.5-1 1.5-1 1-1 1-.5 2-.5 2-.5 1.5-.5 1.5-.5 1.5-.5 1.5" style="fill:#ffdfaa;stroke:#ffdfaa"/><path d="m270 212l7-9-1.5-6.5-1.5-6.5 3-6.5 3-6.5-1-2-1-2-1-1-1-1-1 .5-1 .5v1.5 1.5h-1-1l-.5.5-.5.5-.5.5-.5.5-.5.5-.5.5v1.5 1.5l-.5.5-.5.5-1 1-1 1 1 1.5 1 1.5.5 1.5.5 1.5.5 3 .5 3 .5 2.5.5 2.5v1.5 1.5l-.5.5-.5.5-1 1-1 1 .5 1 .5 1 .5 1.5.5 1.5" style="fill:#ffbe88;stroke:#ffbe88"/><path d="m295 209l3 1h1 1 1 1l.5-.5.5-.5h2 2l1-.5 1-.5.5-.5.5-.5h2 2l1 1 1 1 1-1 1-1 2-.5 2-.5 1.5-.5 1.5-.5 1.5-.5 1.5-.5 7.5-6 7.5-6 1.5-2 1.5-2 6.5-1.5 6.5-1.5 6-3 6-3 5-4 5-4-1-6.5-1-6.5-5-3-5-3h-7-7l-6 3-6 3-7 .5-7 .5-2 1-2 1-6-1-6-1-7.5 1.5-7.5 1.5-6.5 2-6.5 2-4.5 2.5-4.5 2.5 1 1 1 1 1 2 1 2 1-.5 1-.5 1 .5 1 .5v2 2l1 1.5 1 1.5.5 1.5.5 1.5.5 2 .5 2 .5 1.5.5 1.5.5 1.5.5 1.5 1 1.5 1 1.5 1 1 1 1-2-7-2-7 3.5 2 3.5 2 3.5-4.5 3.5-4.5 3.5 4.5 3.5 4.5 6 2 6 2 3 1.5 3 1.5-5.5 1.5-5.5 1.5-1 1-1 1-8.5 1.5-8.5 1.5-1.5-1-1.5-1-1-1.5-1-1.5.5 2 .5 2v1.5 1.5" style="fill:#ffbcac;stroke:#ffbcac"/><path d="m119 207l11-13 4-5 4-5 3.5-5.5 3.5-5.5 3.5-5.5 3.5-5.5v-.5-.5h-.5-.5l-.5-1.5-.5-1.5 1-1.5 1-1.5 1-1 1-1 1-1.5 1-1.5.5-1.5.5-1.5.5-1.5.5-1.5 1-1.5 1-1.5 1.5-.5 1.5-.5v-2-2l-1-.5-1-.5v-1.5-1.5h-1-1l-.5.5-.5.5v1 1l-1 .5-1 .5-.5.5-.5.5-.5.5-.5.5h-1-1l-2.5-.5-2.5-.5-1-.5-1-.5-3.5 8.5-3.5 8.5-3 6-3 6-2 6.5-2 6.5-2.5 6.5-2.5 6.5-2 7.5-2 7.5v.5.5" style="fill:#863733;stroke:#863733"/><g style="fill:#ffbe88;stroke:#ffbe88"><path d="m299 207l17-3 1-1 1-1 5.5-1.5 5.5-1.5-3-1.5-3-1.5-6-2-6-2-3.5-4.5-3.5-4.5-3.5 4.5-3.5 4.5-3.5-2-3.5-2 2 7 2 7 1 1.5 1 1.5 1.5 1 1.5 1"/><path d="m265 204h2v-2-2l-.5-2-.5-2-.5-1.5-.5-1.5-1.5 1-1.5 1v2 2l1 1.5 1 1.5.5 1 .5 1"/></g><path d="m511 201l2-1 1-.5 1-.5.5-.5.5-.5 1-1 1-1 .5-1 .5-1 .5-.5.5-.5v-1-1l1-.5 1-.5.5-.5.5-.5 1-1 1-1 .5-1.5.5-1.5 1-1 1-1v-1.5-1.5l-1 1.5-1 1.5-1.5 1-1.5 1-.5 1.5-.5 1.5-1.5 1-1.5 1-1 1-1 1-1 1.5-1 1.5-.5 1.5-.5 1.5-1 1-1 1-.5 1-.5 1" style="fill:#a16585;stroke:#a16585"/><path d="m269 195l1 1-.5-3-.5-3-.5-1.5-.5-1.5-1-1.5-1-1.5-1 1-1 1v2 2l.5 1 .5 1h1 1l1 1.5 1 1.5" style="fill:#ffbcac;stroke:#ffbcac"/><path d="m164 191l12-6 4-4.5 4-4.5 1-7 1-7-3.5-3.5-3.5-3.5-2.5-2.5-2.5-2.5v-5.5-5.5l-3.5.5-3.5.5-3.5 5.5-3.5 5.5-2.5 5.5-2.5 5.5v4.5 4.5l5-4 5-4 1.5 3.5 1.5 3.5-.5 3.5-.5 3.5-1.5 5-1.5 5v2 2" style="fill:#ffdfaa;stroke:#ffdfaa"/><path d="m152 161v1h.5.5l4-8 4-8 3.5-5.5 3.5-5.5 3-6 3-6v-.5-.5l.5-1 .5-1 .5-.5.5-.5.5-1 .5-1 .5-1.5.5-1.5.5-.5.5-.5.5-.5.5-.5v-1-1l1-1.5 1-1.5-4 6-4 6-5.5 8.5-5.5 8.5v2 2l-1.5.5-1.5.5-1 1.5-1 1.5-.5 1.5-.5 1.5-.5 1.5-.5 1.5-1 1.5-1 1.5-1 1-1 1-1 1.5-1 1.5.5 1.5.5 1.5h.5.5" style="fill:#a5514b;stroke:#a5514b"/><path d="m298 144l17-3 1.5-3 1.5-3-6.5 2.5-6.5 2.5-3.5 2-3.5 2" style="fill:#ffbcac;stroke:#ffbcac"/><path d="m152 138h2l.5-.5.5-.5.5-.5.5-.5 1-.5 1-.5v-1-1l.5-.5.5-.5h1 1v1.5 1.5l1 .5 1 .5 5.5-8.5 5.5-8.5 4-6 4-6 4.5-5.5 4.5-5.5 3-4.5 3-4.5 3.5-5.5 3.5-5.5 4-6.5 4-6.5.5-3 .5-3-3.5-1.5-3.5-1.5-2.5-1.5-2.5-1.5v-5.5-5.5h-5-5l-2 2-2 2-4 5-4 5-3 5.5-3 5.5-4 6.5-4 6.5 2.5-6.5 2.5-6.5 3-5.5 3-5.5 2.5-6.5 2.5-6.5 2.5-5.5 2.5-5.5-2-3.5-2-3.5-4 5-4 5-4 4-4 4-4 1-4 1-3-1.5-3-1.5 2-6 2-6 2.5-2.5 2.5-2.5 2.5-11.5 2.5-11.5h-10.5-10.5-9-9-9-9-8.5-8.5-9-9-4-4l3.5 9.5 3.5 9.5 3.5 1.5 3.5 1.5 1 1 1 1 1.5 2 1.5 2 1.5 1.5 1.5 1.5 2 6 2 6 2 6 2 6 4 2.5 4 2.5-2 5-2 5 4.5 1.5 4.5 1.5 3.5 5 3.5 5-2.5 5.5-2.5 5.5-1 8-1 8 2-2 2-2 2.5-5.5 2.5-5.5 1 1.5 1 1.5 3-3 3-3 4-3 4-3 2.5 3.5 2.5 3.5v3.5 3.5l-.5 2.5-.5 2.5 2.5 3.5 2.5 3.5-3 6-3 6 2.5 3 2.5 3 1.5 3 1.5 3 1 .5 1 .5 2.5.5 2.5.5" style="fill:#965368;stroke:#965368"/><path d="m85 132h2l.5-1.5.5-1.5.5-2 .5-2-1.5-.5-1.5-.5-2 .5-2 .5-1.5-.5-1.5-.5 1 1.5 1 1.5 1.5.5 1.5.5.5 1.5.5 1.5v.5.5" style="fill:#a5514b;stroke:#a5514b"/><path d="m174 122v1l1-.5 1-.5.5-1.5.5-1.5 1-1.5 1-1.5h.5.5l6.5-9.5 6.5-9.5 3.5-5.5 3.5-5.5 3.5-5.5 3.5-5.5 4-5 4-5 3.5-5 3.5-5 3.5-5.5 3.5-5.5 3.5-5.5 3.5-5.5 4-5 4-5 4-5.5 4-5.5.5-1 .5-1 1-1.5 1-1.5.5-1.5.5-1.5 1-1 1-1 .5-1 .5-1h-1-1l-1 1-1 1-1 1-1 1-.5 2-.5 2-1 1-1 1-1 1.5-1 1.5-1 1-1 1-1 1.5-1 1.5-1 .5-1 .5-4 5.5-4 5.5-3.5 5.5-3.5 5.5-3 5.5-3 5.5-4.5 5.5-4.5 5.5-4 6.5-4 6.5-3.5 5.5-3.5 5.5-3 4.5-3 4.5-4.5 5.5-4.5 5.5-1 1.5-1 1.5v1 1l-.5.5-.5.5-.5.5-.5.5-.5 1.5-.5 1.5-.5 1-.5 1-.5.5-.5.5-.5 1-.5 1" style="fill:#d78188;stroke:#d78188"/><path d="m72 118l4-14 2-5.5 2-5.5-4-1-4-1 2-6 2-6 2-6 2-6-3 3.5-3 3.5-3 6-3 6-1 8-1 8 2 6 2 6 1 2 1 2" style="fill:#a5514b;stroke:#a5514b"/><path d="m375 108l3-13h-5.5-5.5l5 2 5 2-1 4.5-1 4.5" style="fill:#ffdfaa;stroke:#ffdfaa"/><path d="m165 78l8-13 3-5.5 3-5.5 4-5 4-5 2-2 2-2h5 5v5.5 5.5l2.5 1.5 2.5 1.5 3.5 1.5 3.5 1.5-.5 3-.5 3 4.5-5.5 4.5-5.5 3-5.5 3-5.5 3.5-5.5 3.5-5.5 4-5.5 4-5.5-1.5.5-1.5.5.5-1 .5-1 .5-.5.5-.5.5-1 .5-1v-2-2l.5-.5.5-.5.5-1 .5-1v-1-1l.5-.5.5-.5v-1.5-1.5l1-1 1-1h-9.5-9.5-9-9-9-9-9-9-4-4l-2.5 11.5-2.5 11.5-2.5 2.5-2.5 2.5-2 6-2 6 3 1.5 3 1.5 4-1 4-1 4-4 4-4 4-5 4-5 2 3.5 2 3.5-2.5 5.5-2.5 5.5-2.5 6.5-2.5 6.5-3 5.5-3 5.5-2.5 6.5-2.5 6.5" style="fill:#a16585;stroke:#a16585"/><path d="m69 53l-3-9h-1.5-1.5l3 4.5 3 4.5" style="fill:#a5514b;stroke:#a5514b"/><path d="m238 46l9-11-2.5 2-2.5 2-2 3.5-2 3.5" style="fill:#ffecd0;stroke:#ffecd0"/><path d="m54 32l9-15-1.5-1.5-1.5-1.5-3-1-3-1-1.5-5-1.5-5-2-1-2-1h-1.5-1.5-1.5-1.5l.5 7.5.5 7.5 2.5 3 2.5 3 2.5-.5 2.5-.5 1 6 1 6" style="fill:#a5514b;stroke:#a5514b"/><path d="m239 20l3-1v-.5-.5l1-2 1-2 1-1 1-1 1-1.5 1-1.5 1-1 1-1 1-1.5 1-1.5 1-2 1-2h-3.5-3.5l-1 1-1 1v1.5 1.5l-.5.5-.5.5v1 1l-.5 1-.5 1-.5.5-.5.5v2 2l-.5 1-.5 1-.5.5-.5.5-.5 1-.5 1" style="fill:#c187a5;stroke:#c187a5"/><path d="m242 18v1l1-.5 1-.5 1-1.5 1-1.5 1-1 1-1 1-1.5 1-1.5 1-1 1-1 .5-2 .5-2 1-1 1-1 1-1 1-1h-1.5-1.5l-1 2-1 2-1 1.5-1 1.5-1 1-1 1-1 1.5-1 1.5-1 1-1 1-1 2-1 2" style="fill:#a16585;stroke:#a16585"/><path d="m15 5l3 1h1 1l.5-1 .5-1 .5-.5.5-.5-.5-1-.5-1-1-.5-1-.5h-1.5-1.5-.5-.5v2.5 2.5" style="fill:#a5514b;stroke:#a5514b"/></g></svg>