<svg xmlns="http://www.w3.org/2000/svg" viewBox="0 0 960 536"><g style="fill:#363226"><path d="m0 0h960v536h-960z"/><path d="m959 536h1v-12.5-12.5-11-11-11.5-11.5-5-5h-.5-.5l-8-4-8-4h-10-10l-3-2-3-2 1-3.5 1-3.5 7.5 3.5 7.5 3.5 2.5-1.5 2.5-1.5 10.5.5 10.5.5v-2.5-2.5-2.5-2.5-2-2-2-2-2.5-2.5-2-2-2.5-2.5-2-2-2.5-2.5-2-2-.5-.5h-.5-.5l-6-2.5-6-2.5h-7-7l-8 3-8 3-2 5-2 5-10.5-1-10.5-1-8-3-8-3v-5-5l-1-3-1-3-2.5-4.5-2.5-4.5-6.5-3-6.5-3-6.5-3.5-6.5-3.5-4.5.5-4.5.5-2.5 1.5-2.5 1.5 3.5 4.5 3.5 4.5-8.5 2-8.5 2-8.5-.5-8.5-.5 2 4 2 4h-9-9l-6.5-4.5-6.5-4.5 1.5-5 1.5-5-3.5-5.5-3.5-5.5-3.5 1.5-3.5 1.5-2.5 2.5-2.5 2.5-4-1-4-1 2.5-5 2.5-5-1-3-1-3-5 4-5 4-1 2-1 2-2 3-2 3-4 4.5-4 4.5-8.5.5-8.5.5-7-3-7-3 4-2 4-2 7.5-.5 7.5-.5 1-.5 1-.5-2-3-2-3-7 3-7 3-2-5-2-5-4-4-4-4h-4.5-4.5l-8.5 1.5-8.5 1.5-6-1-6-1-6 3-6 3-5-1-5-1v-1.5-1.5l5.5-2.5 5.5-2.5 1-3 1-3-5.5 1.5-5.5 1.5-2 3-2 3-5-1.5-5-1.5-1 1-1 1-5.5-1.5-5.5-1.5-5-2-5-2 8-2 8-2 10-.5 10-.5 1-5 1-5 3 1 3 1 6.5 1.5 6.5 1.5 4-3 4-3 8 .5 8 .5 8.5.5 8.5.5 9.5-.5 9.5-.5-2-3-2-3 5 2 5 2 9.5-1 9.5-1 6.5.5 6.5.5h7 7l8.5-.5 8.5-.5 8.5.5 8.5.5 5 2.5 5 2.5 6-2 6-2 8.5-.5 8.5-.5-1-3-1-3 6.5-1.5 6.5-1.5h3.5 3.5l1.5 2.5 1.5 2.5 4-2 4-2-1 2-1 2 5-1 5-1h4.5 4.5l-.5 1.5-.5 1.5 5.5-1.5 5.5-1.5 3-4 3-4 5.5 3.5 5.5 3.5h4.5 4.5l6.5-.5 6.5-.5-1.5-2.5-1.5-2.5 13.5 1.5 13.5 1.5v-3.5-3.5-2-2-1.5-1.5h-.5-.5l-8 .5-8 .5h-9-9l-10.5.5-10.5.5h-11-11-11.5-11.5l-10 1-10 1h-11-11-10-10-9-9l-11 .5-11 .5h-10-10-11-11l-10.5.5-10.5.5h-10-10l-10 .5-10 .5h-10-10-11-11-9-9l-10.5.5-10.5.5-11 .5-11 .5h-11-11-9-9-9-9l-9 1-9 1-10.5 1-10.5 1h-11-11l-8-1-8-1-9.5-.5-9.5-.5h-10-10-11.5-11.5l-9.5.5-9.5.5-10.5-.5-10.5-.5-15.5-.5-15.5-.5-7 4-7 4 1.5 4.5 1.5 4.5 1 5 1 5-1 2-1 2 4.5 3 4.5 3 5.5 4.5 5.5 4.5 5 4 5 4 1.5.5 1.5.5 6 5 6 5 8.5-1 8.5-1 3-3 3-3-3.5-2.5-3.5-2.5 4.5-.5 4.5-.5 5.5 1.5 5.5 1.5 5 2.5 5 2.5 6 1 6 1 7 4 7 4v3 3h-4-4l-7-3.5-7-3.5-9.5 1.5-9.5 1.5-8 3-8 3-7.5 1.5-7.5 1.5-1.5 5.5-1.5 5.5h-4.5-4.5l1.5 6.5 1.5 6.5 7 4 7 4 6.5 2.5 6.5 2.5 6.5-2.5 6.5-2.5 5-6.5 5-6.5 5.5-5.5 5.5-5.5 7.5-3.5 7.5-3.5 7 4 7 4 6.5 4.5 6.5 4.5-7.5 1-7.5 1-8.5-.5-8.5-.5-4.5 4.5-4.5 4.5-7 3-7 3-1 8-1 8 8 1.5 8 1.5 8.5 1.5 8.5 1.5 8 2 8 2 9.5 1.5 9.5 1.5 10 1 10 1 11 1.5 11 1.5 1 .5 1 .5 1 .5 1 .5 1.5 1 1.5 1 1.5.5 1.5.5 2-.5 2-.5h2 2l2-.5 2-.5 1 1 1 1 1.5 2 1.5 2 1.5.5 1.5.5h1 1l.5.5.5.5.5 1 .5 1h1.5 1.5l1-.5 1-.5 1-1 1-1 2 .5 2 .5 1.5.5 1.5.5 2 1 2 1h1.5 1.5l1.5.5 1.5.5 2.5.5 2.5.5 1.5.5 1.5.5h1 1l1 .5 1 .5h2 2l.5.5.5.5h1.5 1.5l1.5.5 1.5.5h2 2l.5.5.5.5 2 .5 2 .5 10 1 10 1 9.5 2 9.5 2 9.5 1.5 9.5 1.5 8 3 8 3 10 1 10 1 7.5 3.5 7.5 3.5 9.5 2 9.5 2 10 1 10 1 6.5 1.5 6.5 1.5 8.5 2.5 8.5 2.5 8 3 8 3 8.5 3 8.5 3 8.5 1.5 8.5 1.5 8 3 8 3 11 2.5 11 2.5h2 2 2.5 2.5 1.5 1.5l-6-2.5-6-2.5h-5-5l1-1.5 1-1.5-3.5-2.5-3.5-2.5-7.5-3.5-7.5-3.5-9.5-1.5-9.5-1.5-9-2-9-2-10-1.5-10-1.5-8.5-2.5-8.5-2.5-9-2-9-2h-9-9l-8.5-2.5-8.5-2.5-7.5-3-7.5-3-8.5-1.5-8.5-1.5-6.5-3.5-6.5-3.5-6-5-6-5-7 2-7 2-7.5-1-7.5-1-7-1-7-1h-10-10l-9-2-9-2-7-3-7-3 3-3.5 3-3.5 6.5.5 6.5.5 4.5-4.5 4.5-4.5 5.5.5 5.5.5 8-1 8-1 7.5-1 7.5-1 9.5.5 9.5.5 6.5-.5 6.5-.5 6-4 6-4 3 6 3 6 5 5.5 5 5.5 6 5 6 5 2.5 6.5 2.5 6.5 4.5-4.5 4.5-4.5 2-7 2-7 5-1.5 5-1.5 7 3 7 3 6.5 4.5 6.5 4.5 9.5 1.5 9.5 1.5 4.5 3.5 4.5 3.5 6-1.5 6-1.5 6.5-4.5 6.5-4.5 7-2 7-2 4 3 4 3-5 3-5 3-5.5 3-5.5 3 7 4 7 4 8.5-.5 8.5-.5-1.5-6.5-1.5-6.5 7.5-1.5 7.5-1.5 8.5 3 8.5 3 6-2 6-2h9 9l3-6 3-6h6 6l8-.5 8-.5 4.5 7 4.5 7 6-1.5 6-1.5 7 4 7 4 1-3 1-3-1.5-6.5-1.5-6.5 8.5 1 8.5 1-2 2-2 2 5.5 4.5 5.5 4.5 5 3 5 3-2 3-2 3-1 6.5-1 6.5-1.5 6.5-1.5 6.5 1 5 1 5 5 7.5 5 7.5-1 .5-1 .5h2 2" style="stroke:#363226;stroke-linejoin:round;stroke-width:.7"/></g><g style="stroke-linejoin:round;stroke-width:.7"><g style="fill:#202017;stroke:#202017"><path d="m959 456h1v-1.5-1.5-2-2-2.5-2.5-1-1l-10.5-.5-10.5-.5-2.5 1.5-2.5 1.5-7.5-3.5-7.5-3.5-1 3.5-1 3.5 3 2 3 2h10 10l8 4 8 4"/><path d="m959 396h1v-1.5-1.5-2-2-2.5-2.5-2-2-2.5-2.5-2-2-2.5-2.5-2-2-2-2-2.5-2.5-.5-.5h-.5-.5l-6-1.5-6-1.5-7.5 2.5-7.5 2.5-1.5-3.5-1.5-3.5-3-4-3-4h9 9l9.5 2.5 9.5 2.5v-1.5-1.5-2-2-2.5-2.5-2-2-2.5-2.5-2-2-2.5-2.5-2-2-1.5-1.5l-13.5-1.5-13.5-1.5 1.5 2.5 1.5 2.5-6.5.5-6.5.5h-4.5-4.5l-5.5-3.5-5.5-3.5-3 4-3 4-5.5 1.5-5.5 1.5.5-1.5.5-1.5h-4.5-4.5l-5 1-5 1 1-2 1-2-4 2-4 2-1.5-2.5-1.5-2.5h-3.5-3.5l-6.5 1.5-6.5 1.5 1 3 1 3-8.5.5-8.5.5-6 2-6 2-5-2.5-5-2.5-8.5-.5-8.5-.5-8.5.5-8.5.5h-7-7l-6.5-.5-6.5-.5-9.5 1-9.5 1-5-2-5-2 2 3 2 3-9.5.5-9.5.5-8.5-.5-8.5-.5-8-.5-8-.5-4 3-4 3-6.5-1.5-6.5-1.5-3-1-3-1-1 5-1 5-10 .5-10 .5-8 2-8 2 5 2 5 2 5.5 1.5 5.5 1.5 1-1 1-1 5 1.5 5 1.5 2-3 2-3 5.5-1.5 5.5-1.5-1 3-1 3-5.5 2.5-5.5 2.5v1.5 1.5l5 1 5 1 6-3 6-3 6 1 6 1 8.5-1.5 8.5-1.5h4.5 4.5l4 4 4 4 2 5 2 5 7-3 7-3 2 3 2 3-1 .5-1 .5-7.5.5-7.5.5-4 2-4 2 7 3 7 3 8.5-.5 8.5-.5 4-4.5 4-4.5 2-3 2-3 1-2 1-2 5-4 5-4 1 3 1 3-2.5 5-2.5 5 4 1 4 1 2.5-2.5 2.5-2.5 3.5-1.5 3.5-1.5 3.5 5.5 3.5 5.5-1.5 5-1.5 5 6.5 4.5 6.5 4.5h9 9l-2-4-2-4 8.5.5 8.5.5 8.5-2 8.5-2-3.5-4.5-3.5-4.5 2.5-1.5 2.5-1.5 4.5-.5 4.5-.5 6.5 3.5 6.5 3.5 6.5 3 6.5 3 2.5 4.5 2.5 4.5 1 3 1 3v5 5l8 3 8 3 10.5 1 10.5 1 2-5 2-5 8-3 8-3h7 7l6 2.5 6 2.5"/></g><path d="m959 352h1v-1.5-1.5-2-2-.5-.5l-9.5-2.5-9.5-2.5h-9-9l3 4 3 4 1.5 3.5 1.5 3.5 7.5-2.5 7.5-2.5 6 1.5 6 1.5" style="fill:#363226;stroke:#363226"/><path d="m959 293h1v-1.5-1.5-2-2-2.5-2.5-2-2-2.5-2.5-2-2-2.5-2.5-2-2-2-2-2.5-2.5-1-1h-.5-.5v1 1l-.5 1-.5 1-8.5-1-8.5-1-12-2-12-2-1 .5-1 .5-1 .5-1 .5h-1-1l-.5.5-.5.5-.5.5-.5.5h-1.5-1.5l-1.5.5-1.5.5-.5-.5-.5-.5h-1-1-1-1l-1 .5-1 .5h-1-1l-.5-.5-.5-.5h-1-1l-1.5-1-1.5-1h-.5-.5l-1-.5-1-.5h-1-1l-.5.5-.5.5h-1-1-1.5-1.5-1-1-1-1-1-1-1.5-1.5-1-1-1.5-1.5l-.5.5-.5.5-2 1-2 1-1.5 1-1.5 1-1.5.5-1.5.5h-.5-.5l-11 2-11 2-12.5 3.5-12.5 3.5-.5.5-.5.5-1 .5-1 .5h-1.5-1.5l-1 1-1 1h-1-1l-.5.5-.5.5h-1-1-1.5-1.5l-.5.5-.5.5h-1-1l-.5.5-.5.5h-1.5-1.5-1-1-1-1-1-1l-1.5-.5-1.5-.5h-1.5-1.5l-1-.5-1-.5-.5-.5-.5-.5h-1-1l-1-1-1-1h-.5-.5l-1-.5-1-.5-1-.5-1-.5-1.5-.5-1.5-.5h-2.5-2.5l-1.5.5-1.5.5-2-.5-2-.5h-2-2l-1.5 1-1.5 1-1 .5-1 .5-.5.5-.5.5-9.5-1.5-9.5-1.5-8-3-8-3-8-1.5-8-1.5h-9-9l-9 1-9 1-10 1-10 1-9.5.5-9.5.5-9.5-1-9.5-1-8.5.5-8.5.5-7-4-7-4-8.5-1.5-8.5-1.5-9.5 1.5-9.5 1.5-9.5 1-9.5 1-8.5 2.5-8.5 2.5-7.5 3.5-7.5 3.5h-10-10l-9-1-9-1-9 1.5-9 1.5-8.5 2.5-8.5 2.5-9.5.5-9.5.5-8-1-8-1-7.5 1.5-7.5 1.5-8.5 1-8.5 1-11 .5-11 .5-6.5 2-6.5 2-.5 5.5-.5 5.5-5 5-5 5 15.5.5 15.5.5 10.5.5 10.5.5 9.5-.5 9.5-.5h11.5 11.5 10 10l9.5.5 9.5.5 8 1 8 1h11 11l10.5-1 10.5-1 9-1 9-1h9 9 9 9 11 11l11-.5 11-.5 10.5-.5 10.5-.5h9 9 11 11 10 10l10-.5 10-.5h10 10l10.5-.5 10.5-.5h11 11 10 10l11-.5 11-.5h9 9 10 10 11 11l10-1 10-1h11.5 11.5 11 11l10.5-.5 10.5-.5h9 9l8-.5 8-.5" style="fill:#343d48;stroke:#343d48"/><path d="m959 248h1v-1.5-1.5-2-2-2.5-2.5-1-1h-.5-.5v-2-2-1-1-1.5-1.5-2-2-1-1-1.5-1.5-2-2-2.5-2.5-2.5-2.5h-.5-.5v2 2 2 2 2.5 2.5 2 2 2.5 2.5l-.5 1.5-.5 1.5v2 2 1 1l-1 .5-1 .5h-2-2-1-1-1.5-1.5-2-2l-.5 1-.5 1 2-.5 2-.5h2.5 2.5 2 2v1 1l-.5.5-.5.5 1 1 1 1-2 .5-2 .5h-1-1-1-1-1-1l-1 .5-1 .5-.5.5-.5.5h-1-1l-.5.5-.5.5h-1-1-1-1l-1 .5-1 .5h-1-1l-1 .5-1 .5 2 1 2 1h2 2l2 .5 2 .5 1.5-.5 1.5-.5 2-.5 2-.5h2 2 2 2l1.5 1.5 1.5 1.5v-1-1" style="fill:#a48e6b;stroke:#a48e6b"/><path d="m959 234h1v-1.5-1.5-2-2-2.5-2.5-2-2-2.5-2.5-2-2-2.5-2.5-1-1h-.5-.5v2.5 2.5 2.5 2.5 2 2 1.5 1.5 1 1 2 2 1.5 1.5 1 1 2 2" style="fill:#99a29f;stroke:#99a29f"/><path d="m959 202h1v-12.5-12.5-11-11-4-4h-.5-.5v12.5 12.5 15 15" style="fill:#79929d;stroke:#79929d"/><path d="m959 147h1v-12.5-12.5-11-11-11.5-11.5-11-11-11-11-11-11-5.5-5.5h-5.5-5.5-11.5-11.5-11-11-11-11-11-11-11-11-11.5-11.5-11-11-11-11-11-11-11-11-11.5-11.5-11-11-11-11-11-11-11-11-11.5-11.5-11-11-11-11-11-11-11-11-9-9l-6.5 4.5-6.5 4.5 7 3 7 3 3.5 5.5 3.5 5.5 6 1 6 1 2.5 6 2.5 6 3 8 3 8 6 4 6 4 6 1 6 1 7.5-1.5 7.5-1.5 9 .5 9 .5 9.5-1.5 9.5-1.5 8-1 8-1 4-3 4-3 5.5-2.5 5.5-2.5 5 6.5 5 6.5 8.5-1.5 8.5-1.5 8.5-1.5 8.5-1.5 6.5-4.5 6.5-4.5 1.5 3.5 1.5 3.5 6.5 1.5 6.5 1.5-2.5 2.5-2.5 2.5-4.5 4.5-4.5 4.5 2 3.5 2 3.5-3 5-3 5 4.5 1.5 4.5 1.5-.5 6.5-.5 6.5 7.5 3.5 7.5 3.5 3 1.5 3 1.5-8 3-8 3-7 4-7 4-6 5-6 5 3.5 1 3.5 1 8-3 8-3h8 8l6 1 6 1 8-3 8-3 5-.5 5-.5 5 1 5 1 9-1 9-1 9-1 9-1 9.5-1.5 9.5-1.5.5 1 .5 1-6.5 3.5-6.5 3.5-6.5 2.5-6.5 2.5 8 1 8 1 9-2 9-2 5 .5 5 .5 9.5-.5 9.5-.5 8 1 8 1 6 3 6 3 4 2 4 2 8-1.5 8-1.5h8 8 7 7l11.5 5.5 11.5 5.5v-2-2-2-2h.5.5" style="fill:#557997;stroke:#557997"/><g style="fill:#7d786d;stroke:#7d786d"><path d="m958 252l1-2-1.5-1.5-1.5-1.5h-2-2-2-2l-2 .5-2 .5-1.5.5-1.5.5-2-.5-2-.5h-2-2l-2-1-2-1-1-.5-1-.5h-.5-.5-1.5-1.5-2-2l-1 .5-1 .5 12 2 12 2 8.5 1 8.5 1"/><path d="m958 202h1v-15-15-12.5-12.5h-.5-.5v2 2 2 2 2 2 2 2 2 2 2.5 2.5 2 2 2.5 2.5 2 2 2.5 2.5 2 2 2.5 2.5 1.5 1.5"/></g><path d="m957 535l-10-15-1-5-1-5 1.5-6.5 1.5-6.5 1-6.5 1-6.5 2-3 2-3-5-3-5-3-5.5-4.5-5.5-4.5 2-2 2-2-8.5-1-8.5-1 1.5 6.5 1.5 6.5-1 3-1 3-7-4-7-4-6 1.5-6 1.5 2.5.5 2.5.5 1.5 1 1.5 1 1.5.5 1.5.5 2 .5 2 .5 1 1 1 1h2.5 2.5l-.5 1.5-.5 1.5-1.5.5-1.5.5-1.5 1-1.5 1-1.5-.5-1.5-.5-2-.5-2-.5-1.5-.5-1.5-.5-2-.5-2-.5-.5-1.5-.5-1.5-1-1-1-1-.5-.5-.5-.5 1-.5 1-.5.5-1 .5-1-4.5-7-4.5-7-8 .5-8 .5h-6-6l-3 6-3 6h-9-9l-6 2-6 2-8.5-3-8.5-3-7.5 1.5-7.5 1.5 1.5 6.5 1.5 6.5-8.5.5-8.5.5-7-4-7-4 5.5-3 5.5-3 5-3 5-3-4-3-4-3-7 2-7 2-6.5 4.5-6.5 4.5-6 1.5-6 1.5-4.5-3.5-4.5-3.5-9.5-1.5-9.5-1.5-6.5-4.5-6.5-4.5-7-3-7-3-5 1.5-5 1.5-2 7-2 7-4.5 4.5-4.5 4.5-2.5-6.5-2.5-6.5-6-5-6-5-5-5.5-5-5.5-3-6-3-6-6 4-6 4-6.5.5-6.5.5-9.5-.5-9.5-.5-7.5 1-7.5 1-8 1-8 1-5.5-.5-5.5-.5-4.5 4.5-4.5 4.5-6.5-.5-6.5-.5-3 3.5-3 3.5 7 3 7 3 9 2 9 2h10 10l7 1 7 1 7.5 1 7.5 1 7-2 7-2 6 5 6 5 6.5 3.5 6.5 3.5 8.5 1.5 8.5 1.5 7.5 3 7.5 3 8.5 2.5 8.5 2.5h9 9l9 2 9 2 8.5 2.5 8.5 2.5 10 1.5 10 1.5 9 2 9 2 9.5 1.5 9.5 1.5 7.5 3.5 7.5 3.5 3.5 2.5 3.5 2.5-1 1.5-1 1.5h5 5l6 2.5 6 2.5h11.5 11.5 11 11 11.5 11.5 11 11 11 11 5.5 5.5l1-.5 1-.5" style="fill:#202017;stroke:#202017"/><path d="m957 227l1-3v-2.5-2.5-2-2-2.5-2.5-2-2-2-2h-.5-.5-12-12l-10.5-.5-10.5-.5-8-1-8-1-1-4-1-4-5-2-5-2h-10.5-10.5-8-8l-4.5-4.5-4.5-4.5-9-1-9-1-4-2-4-2 4.5-4 4.5-4-2-2-2-2-9 2-9 2-.5 1.5-.5 1.5-7.5-1.5-7.5-1.5-9 2.5-9 2.5-7.5-3.5-7.5-3.5-9 2-9 2-8 3-8 3-6.5 3.5-6.5 3.5-9 1.5-9 1.5-6-4-6-4h-9-9l-5-6-5-6-1.5-4.5-1.5-4.5 9.5-2 9.5-2 9.5-.5 9.5-.5 9.5-1.5 9.5-1.5 9.5-1.5 9.5-1.5-3-2-3-2-9.5 1-9.5 1-9.5 1.5-9.5 1.5-10 1-10 1-10 1-10 1-9-2-9-2-10-1.5-10-1.5 6-5 6-5 .5-2.5.5-2.5-8 1-8 1-10.5-.5-10.5-.5-2.5-3-2.5-3-8-2-8-2-1-5-1-5-5.5-4.5-5.5-4.5-7 3-7 3-2 4.5-2 4.5 3.5 5.5 3.5 5.5-7-3-7-3-7-2-7-2 3-7 3-7-2-8.5-2-8.5-1.5-6.5-1.5-6.5v-8-8l-4-4-4-4-8-2-8-2h-8.5-8.5l-3-5-3-5 3-5 3-5 4-10.5 4-10.5h-3-3-2-2-2.5-2.5-2-2-.5-.5v8 8l-1 6-1 6-6 5-6 5-1 6-1 6 6.5 4.5 6.5 4.5-3.5 7-3.5 7 3.5 3.5 3.5 3.5 7.5 3.5 7.5 3.5 7-2 7-2 13 4 13 4-3 8.5-3 8.5-3 7-3 7-5 6-5 6-6.5 4.5-6.5 4.5-8.5 2.5-8.5 2.5-7 3-7 3-9 .5-9 .5-5.5.5-5.5.5 1.5-7.5 1.5-7.5-9.5 1.5-9.5 1.5-7 3-7 3-8.5-1-8.5-1-8-3-8-3-8-3-8-3-7.5-3.5-7.5-3.5-4.5 3.5-4.5 3.5 1 6.5 1 6.5 2.5 5.5 2.5 5.5 7 11.5 7 11.5 1-.5 1-.5.5-2 .5-2 1-1 1-1-.5-2-.5-2-1.5-.5-1.5-.5-1.5-.5-1.5-.5-1.5-1-1.5-1 .5-1.5.5-1.5 1 .5 1 .5.5.5.5.5 1-.5 1-.5 2.5-6 2.5-6 8-1 8-1 6.5 3.5 6.5 3.5h8.5 8.5l7.5 3.5 7.5 3.5.5 5.5.5 5.5h9 9l9.5.5 9.5.5 1.5-5 1.5-5h8 8l2 4 2 4 8 4 8 4 .5 1 .5 1v1 1l-1.5.5-1.5.5 1.5 1 1.5 1 8.5-3.5 8.5-3.5 7-1 7-1-6.5-3.5-6.5-3.5 7.5.5 7.5.5h8 8l-8.5-2-8.5-2-3.5-4.5-3.5-4.5 8.5 2.5 8.5 2.5 8.5 1.5 8.5 1.5 10.5.5 10.5.5 8.5 1 8.5 1 8-3 8-3 .5-4.5.5-4.5-5.5-2.5-5.5-2.5h-10-10l-7.5-2-7.5-2-7.5-2.5-7.5-2.5 4.5-5.5 4.5-5.5 8.5-1.5 8.5-1.5 2 5 2 5 6.5-1 6.5-1 3 3 3 3h8 8l-4 5-4 5 9 1 9 1 9-2.5 9-2.5 9.5-1.5 9.5-1.5-1.5 3.5-1.5 3.5-2.5 8.5-2.5 8.5 6.5 2.5 6.5 2.5 7 1.5 7 1.5 4 2 4 2 9.5.5 9.5.5h10 10l9 1 9 1-5.5 3.5-5.5 3.5-5 3.5-5 3.5-10.5.5-10.5.5-10.5.5-10.5.5-8.5-.5-8.5-.5-9.5-.5-9.5-.5-8 .5-8 .5-10 1-10 1-10.5.5-10.5.5h-9-9l-8.5-.5-8.5-.5 4.5 3 4.5 3 7.5-.5 7.5-.5 8.5 2.5 8.5 2.5 8 1 8 1 5-4 5-4 10-.5 10-.5 4 4 4 4 9 1 9 1-1.5 1.5-1.5 1.5-5 2-5 2-5 3.5-5 3.5 10 1 10 1 9.5.5 9.5.5h10 10l8-1 8-1 8 1.5 8 1.5 8.5-.5 8.5-.5 8 1 8 1 8.5-.5 8.5-.5h10 10 10.5 10.5l9.5-.5 9.5-.5 9.5.5 9.5.5 9.5-.5 9.5-.5h10 10l10 .5 10 .5 8.5.5 8.5.5 16-.5 16-.5.5-1 .5-1h2 2 1.5 1.5 1 1 2 2l1-.5 1-.5v-1-1-2-2" style="fill:#99a29f;stroke:#99a29f"/><path d="m957 202h1v-1.5-1.5-2.5-2.5-2-2-2.5-2.5-2-2-2.5-2.5-2-2-2.5-2.5-2-2-2-2-2-2l-11.5-5.5-11.5-5.5h-7-7-8-8l-8 1.5-8 1.5-4-2-4-2-6-3-6-3-8-1-8-1-9.5.5-9.5.5-5-.5-5-.5-9 2-9 2-8-1-8-1 6.5-2.5 6.5-2.5 6.5-3.5 6.5-3.5-.5-1-.5-1-9.5 1.5-9.5 1.5-9 1-9 1-9 1-9 1-5-1-5-1-5 .5-5 .5-8 3-8 3-6-1-6-1h-8-8l-8 3-8 3-3.5-1-3.5-1 6-5 6-5 7-4 7-4 8-3 8-3-3-1.5-3-1.5-7.5-3.5-7.5-3.5.5-6.5.5-6.5-4.5-1.5-4.5-1.5 3-5 3-5-2-3.5-2-3.5 4.5-4.5 4.5-4.5-2.5.5-2.5.5-1.5-1-1.5-1v-1-1l1.5-1 1.5-1h1 1l1 1 1 1 .5 1 .5 1v.5.5l2.5-2.5 2.5-2.5-6.5-1.5-6.5-1.5-1.5-3.5-1.5-3.5-6.5 4.5-6.5 4.5-8.5 1.5-8.5 1.5-8.5 1.5-8.5 1.5-5-6.5-5-6.5-5.5 2.5-5.5 2.5-4 3-4 3-8 1-8 1-9.5 1.5-9.5 1.5-9-.5-9-.5-7.5 1.5-7.5 1.5-6-1-6-1-6-4-6-4-3-8-3-8-2.5-6-2.5-6-6-1-6-1-3.5-5.5-3.5-5.5-7-3-7-3 6.5-4.5 6.5-4.5h-2.5-2.5-2.5-2.5-2-2-2.5-2.5-1.5-1.5l-4 10.5-4 10.5-3 5-3 5 3 5 3 5h8.5 8.5l8 2 8 2 4 4 4 4v8 8l1.5 6.5 1.5 6.5 2 8.5 2 8.5-3 7-3 7 7 2 7 2 7 3 7 3-3.5-5.5-3.5-5.5 2-4.5 2-4.5 7-3 7-3 5.5 4.5 5.5 4.5 1 5 1 5 8 2 8 2 2.5 3 2.5 3 10.5.5 10.5.5 8-1 8-1-.5 2.5-.5 2.5-6 5-6 5 10 1.5 10 1.5 9 2 9 2 10-1 10-1 10-1 10-1 9.5-1.5 9.5-1.5 9.5-1 9.5-1 3 2 3 2-9.5 1.5-9.5 1.5-9.5 1.5-9.5 1.5-9.5.5-9.5.5-9.5 2-9.5 2 1.5 4.5 1.5 4.5 5 6 5 6h9 9l6 4 6 4 9-1.5 9-1.5 6.5-3.5 6.5-3.5 8-3 8-3 9-2 9-2 7.5 3.5 7.5 3.5 9-2.5 9-2.5 7.5 1.5 7.5 1.5.5-1.5.5-1.5 9-2 9-2 2 2 2 2-4.5 4-4.5 4 4 2 4 2 9 1 9 1 4.5 4.5 4.5 4.5h8 8 10.5 10.5l5 2 5 2 1 4 1 4 8 1 8 1 10.5.5 10.5.5h12 12" style="fill:#79929d;stroke:#79929d"/><path d="m955 240l-2-2-10.5 1-10.5 1-9.5 1.5-9.5 1.5-11 2-11 2 1 .5 1 .5h1 1l.5.5.5.5 1-.5 1-.5h1 1l.5-.5.5-.5.5.5.5.5h1 1 1.5 1.5l.5-.5.5-.5h1 1l.5-.5.5-.5h1 1l1-.5 1-.5.5-.5.5-.5h1 1l.5-.5.5-.5 1 .5 1 .5h1 1 1 1l1 .5 1 .5 1 .5 1 .5 1-.5 1-.5h1 1l1-.5 1-.5h1 1 1 1l.5-.5.5-.5h1 1l.5-.5.5-.5 1-.5 1-.5h1 1 1 1 1 1l2-.5 2-.5" style="fill:#d6ba84;stroke:#d6ba84"/><path d="m954 237v-2h-2-2-2.5-2.5l-2 .5-2 .5-16 .5-16 .5-8.5-.5-8.5-.5-10-.5-10-.5h-10-10l-9.5.5-9.5.5-9.5-.5-9.5-.5-9.5.5-9.5.5h-10.5-10.5-10-10l-8.5.5-8.5.5-8-1-8-1-8.5.5-8.5.5-8-1.5-8-1.5-8 1-8 1h-10-10l-9.5-.5-9.5-.5-10-1-10-1 5-3.5 5-3.5 5-2 5-2 1.5-1.5 1.5-1.5-9-1-9-1-4-4-4-4-10 .5-10 .5-5 4-5 4-8-1-8-1-8.5-2.5-8.5-2.5-7.5.5-7.5.5-4.5-3-4.5-3 8.5.5 8.5.5h9 9l10.5-.5 10.5-.5 10-1 10-1 8-.5 8-.5 9.5.5 9.5.5 8.5.5 8.5.5 10.5-.5 10.5-.5 10.5-.5 10.5-.5 5-3.5 5-3.5 5.5-3.5 5.5-3.5-9-1-9-1h-10-10l-9.5-.5-9.5-.5-4-2-4-2-7-1.5-7-1.5-6.5-2.5-6.5-2.5 2.5-8.5 2.5-8.5 1.5-3.5 1.5-3.5-9.5 1.5-9.5 1.5-9 2.5-9 2.5-9-1-9-1 4-5 4-5h-8-8l-3-3-3-3-6.5 1-6.5 1-2-5-2-5-8.5 1.5-8.5 1.5-4.5 5.5-4.5 5.5 7.5 2.5 7.5 2.5 7.5 2 7.5 2h10 10l5.5 2.5 5.5 2.5-.5 4.5-.5 4.5-8 3-8 3-8.5-1-8.5-1-10.5-.5-10.5-.5-8.5-1.5-8.5-1.5-8.5-2.5-8.5-2.5 3.5 4.5 3.5 4.5 8.5 2 8.5 2h-8-8l-7.5-.5-7.5-.5 6.5 3.5 6.5 3.5-7 1-7 1-8.5 3.5-8.5 3.5-1 .5-1 .5-1.5.5-1.5.5-2 .5-2 .5-1 1-1 1-2 .5-2 .5-2 .5-2 .5 1 .5 1 .5h1.5 1.5l1-1 1-1 1.5.5 1.5.5 1.5-.5 1.5-.5 1-1 1-1 1-.5 1-.5 1-.5 1-.5h2.5 2.5l1-1 1-1 2-.5 2-.5h2 2l2-.5 2-.5 2.5.5 2.5.5 10-.5 10-.5 9.5 1.5 9.5 1.5 7-1 7-1 7 2 7 2 10 3 10 3-6.5 2-6.5 2-8-1-8-1-10 .5-10 .5-9-1-9-1-9.5-.5-9.5-.5h-9-9l-8 3-8 3h-.5-.5l-1.5 1-1.5 1v.5.5l-1.5 1-1.5 1h-1-1l-1 .5-1 .5-1.5.5-1.5.5h-2-2-1-1-1.5-1.5-2-2-1-1-1.5-1.5l-2.5.5-2.5.5-1 .5-1 .5.5 1.5.5 1.5-1.5 2-1.5 2-10.5 3-10.5 3-.5.5-.5.5-1 .5-1 .5-1.5 1-1.5 1 1.5 1.5 1.5 1.5 8-.5 8-.5 8.5 2 8.5 2h14.5 14.5l7.5 3 7.5 3 4.5 2.5 4.5 2.5 2.5-3.5 2.5-3.5 5.5-2.5 5.5-2.5 9-1.5 9-1.5 15.5 3 15.5 3-1.5.5-1.5.5-.5.5-.5.5-8.5 3-8.5 3-11 2-11 2 12-1 12-1 9.5-1.5 9.5-1.5 12.5 4.5 12.5 4.5 8.5-2.5 8.5-2.5 9.5 1.5 9.5 1.5 9 .5 9 .5v.5.5l1-.5 1-.5.5-.5.5-.5.5-.5.5-.5h1 1 1.5 1.5 1 1l.5.5.5.5-.5.5-.5.5 1 .5 1 .5 10.5.5 10.5.5 8.5-2 8.5-2 9.5.5 9.5.5 10 4 10 4-3-4.5-3-4.5 5.5 1.5 5.5 1.5 14 .5 14 .5.5.5.5.5 1-1 1-1 1.5-.5 1.5-.5 2-.5 2-.5v1 1l-1.5.5-1.5.5-.5 1.5-.5 1.5 1.5-1 1.5-1h3 3l-.5-1-.5-1 .5-.5.5-.5h2.5 2.5l2 1 2 1h1.5 1.5l1.5.5 1.5.5 1.5-.5 1.5-.5-2-.5-2-.5.5-.5.5-.5h1.5 1.5l1.5-.5 1.5-.5h1 1 1.5 1.5l1 .5 1 .5 10-.5 10-.5 16-1.5 16-1.5h2 2 1.5 1.5l1.5.5 1.5.5 2-.5 2-.5 1.5-.5 1.5-.5 2-.5 2-.5 1-1 1-1 1-.5 1-.5h1.5 1.5 1 1 1 1 1 1l1-.5 1-.5h1 1 1 1l.5.5.5.5.5-.5.5-.5h1.5 1.5 1 1l1 1 1 1h1.5 1.5l11-2 11-2 9.5-1.5 9.5-1.5 10.5-1 10.5-1 .5-.5.5-.5" style="fill:#b6b4a8;stroke:#b6b4a8"/><path d="m952 368l-13-3-3.5-1.5-3.5-1.5-1 3.5-1 3.5 1 4 1 4 7.5-1.5 7.5-1.5 2.5-3 2.5-3" style="fill:#363226;stroke:#363226"/><path d="m926 245h1l-1-.5-1-.5h-1-1-1-1l-1-.5-1-.5-.5.5-.5.5h-1-1l-.5.5-.5.5-1 .5-1 .5h-1-1l-.5.5-.5.5h-1-1l-.5.5-.5.5h-1.5-1.5-1-1l-.5-.5-.5-.5-.5.5-.5.5h-1-1l-1 .5-1 .5-.5-.5-.5-.5h-1-1l-1-.5-1-.5h-1.5-1.5v.5.5l1.5 1 1.5 1h1 1l.5.5.5.5h1 1l1-.5 1-.5h1 1 1 1l.5.5.5.5 1.5-.5 1.5-.5h1.5 1.5l.5-.5.5-.5.5-.5.5-.5h1 1l1-.5 1-.5 1-.5 1-.5 1-.5 1-.5h2 2 1.5 1.5" style="fill:#a48e6b;stroke:#a48e6b"/><path d="m925 53l-18 4v1 1l8.5-3 8.5-3h.5.5" style="fill:#79929d;stroke:#79929d"/><path d="m920 372l-16-4-1.5 4.5-1.5 4.5 6-3.5 6-3.5 3.5 1 3.5 1" style="fill:#363226;stroke:#363226"/><path d="m919 305l1-3-1.5.5-1.5.5h-1.5-1.5-2-2l.5 2 .5 2h1 1l2 .5 2 .5h1 1v-1.5-1.5" style="fill:#202017;stroke:#202017"/><g style="fill:#363226;stroke:#363226"><path d="m916 481l1-3h-2.5-2.5l-1-1-1-1-2-.5-2-.5-1.5-.5-1.5-.5-1.5-1-1.5-1-2.5-.5-2.5-.5-.5 1-.5 1-1 .5-1 .5.5.5.5.5 1 1 1 1 .5 1.5.5 1.5 2 .5 2 .5 1.5.5 1.5.5 2 .5 2 .5 1.5.5 1.5.5 1.5-1 1.5-1 1.5-.5 1.5-.5"/><path d="m913 345l-16-6-8.5.5-8.5.5-7 1.5-7 1.5 5 2 5 2 6.5-.5 6.5-.5 7-1 7-1-6.5 3.5-6.5 3.5 1 1.5 1 1.5h8 8l1-4 1-4 1.5-.5 1.5-.5"/><path d="m908 381l1-3-1.5.5-1.5.5-1.5 1-1.5 1v1 1l-1 1.5-1 1.5 1.5.5 1.5.5 2-.5 2-.5-.5-1.5-.5-1.5.5-1 .5-1"/></g><path d="m907 420l-13-1-6 2-6 2 8.5 1 8.5 1 2.5-1.5 2.5-1.5 1.5-1 1.5-1" style="fill:#343d48;stroke:#343d48"/><path d="m896 444l-10-12-7.5-1.5-7.5-1.5 1 6.5 1 6.5 1.5 5.5 1.5 5.5 8.5-1.5 8.5-1.5 1.5-3 1.5-3" style="fill:#202017;stroke:#202017"/><path d="m887 248h1v-.5-.5l-1-1-1-1h-1-1-1.5-1.5l-.5.5-.5.5-.5-.5-.5-.5h-1-1-1-1l-1 .5-1 .5h-1-1-1-1-1-1-1.5-1.5l-1 .5-1 .5.5.5.5.5h1.5 1.5 1 1 1.5 1.5 1 1 1 1 1 1 1.5 1.5 1 1l.5-.5.5-.5h1 1l1 .5 1 .5" style="fill:#7d786d;stroke:#7d786d"/><path d="m862 249l1-1-.5-.5-.5-.5-1 1-1 1-2 .5-2 .5-1.5.5-1.5.5-2 .5-2 .5-1.5-.5-1.5-.5h-1.5-1.5-2-2l3 1 3 1h1.5 1.5 1 1l1 .5 1 .5 1.5-.5 1.5-.5 1.5-1 1.5-1 2-1 2-1" style="fill:#99a29f;stroke:#99a29f"/><path d="m858 390l1-3-1.5-.5-1.5-.5h-2.5-2.5l.5 1.5.5 1.5.5 2 .5 2v1 1l1-1.5 1-1.5 1-1 1-1h.5.5" style="fill:#202017;stroke:#202017"/><path d="m858 169l-19-1 5 2 5 2 4.5-1.5 4.5-1.5" style="fill:#99a29f;stroke:#99a29f"/><path d="m853 342v-2h-2-2l-1.5-1-1.5-1h-2-2l-1 1.5-1 1.5 1 1 1 1 1 1.5 1 1.5h1 1l.5-1.5.5-1.5 2-.5 2-.5h1 1" style="fill:#363226;stroke:#363226"/><path d="m851 254h1l-1-.5-1-.5h-1-1-1.5-1.5l-.5.5-.5.5-9.5 1-9.5 1-10.5 4.5-10.5 4.5 12.5-3.5 12.5-3.5 11-2 11-2" style="fill:#7d786d;stroke:#7d786d"/><path d="m844 254l1-1-3-1-3-1-16 1.5-16 1.5-10 .5-10 .5-.5.5-.5.5-1 .5-1 .5h-3.5-3.5l-1.5.5-1.5.5-1.5-.5-1.5-.5h-1.5-1.5l-.5.5-.5.5-1 .5-1 .5h-2-2l-1-.5-1-.5h-3-3l-1.5 1-1.5 1h-2-2l-.5-1-.5-1-.5-.5-.5-.5h-.5-.5l-1 .5-1 .5-.5.5-.5.5 1.5 1 1.5 1h-1-1l-1.5.5-1.5.5h-1-1-.5-.5l-1.5.5-1.5.5.5.5.5.5-1 1.5-1 1.5h1 1l1-1.5 1-1.5h1 1l.5-.5.5-.5h1 1 1.5 1.5 1 1l-.5.5-.5.5h1 1l.5-.5.5-.5 1-.5 1-.5h1 1 1 1l.5.5.5.5h1.5 1.5l.5.5.5.5.5.5.5.5h1 1l.5 1 .5 1 1 1 1 1h1 1l.5.5.5.5 1 .5 1 .5h1.5 1.5 1.5 1.5 1 1 1.5 1.5l1.5-.5 1.5-.5h1 1l1-.5 1-.5h2 2 1 1l1-.5 1-.5 1-1 1-1h1 1 1 1l1.5-.5 1.5-.5 10.5-4.5 10.5-4.5 9.5-1 9.5-1" style="fill:#a48e6b;stroke:#a48e6b"/><path d="m842 78l1-3-1.5.5-1.5.5h-2.5-2.5l-1.5.5-1.5.5-.5 1-.5 1 1 1 1 1 2-.5 2-.5 1.5-.5 1.5-.5 1-.5 1-.5" style="fill:#79929d;stroke:#79929d"/><g style="fill:#202017;stroke:#202017"><path d="m833 408v-2l-1.5-.5-1.5-.5v-1.5-1.5l-1.5-.5-1.5-.5-1 1.5-1 1.5-.5 1.5-.5 1.5 1.5 1 1.5 1h2 2l1-.5 1-.5"/><path d="m829 313l-13-5 3 1 3 1 3.5 1.5 3.5 1.5"/></g><path d="m827 340l-19-3-7.5 1.5-7.5 1.5 8.5 3 8.5 3 6-2 6-2 2.5-1 2.5-1" style="fill:#363226;stroke:#363226"/><g style="fill:#343d48;stroke:#343d48"><path d="m826 383v-2l-1.5.5-1.5.5-2 .5-2 .5.5 1.5.5 1.5-1 1.5-1 1.5.5.5.5.5 2-.5 2-.5v-1-1l.5-1.5.5-1.5 1-.5 1-.5"/><path d="m819 536h1l-11-2.5-11-2.5-8-3-8-3-8.5-1.5-8.5-1.5-8.5-3-8.5-3-8-3-8-3-8.5-2.5-8.5-2.5-6.5-1.5-6.5-1.5-10-1-10-1-9.5-2-9.5-2-7.5-3.5-7.5-3.5-10-1-10-1-8-3-8-3-9.5-1.5-9.5-1.5-9.5-2-9.5-2-10-1-10-1 .5 1 .5 1h1 1 1 1v1 1l-3.5 2-3.5 2-5.5-.5-5.5-.5 6.5-3.5 6.5-3.5-2-.5-2-.5-.5-.5-.5-.5h-2-2l-1.5-.5-1.5-.5h-1.5-1.5l-.5-.5-.5-.5h-2-2l-1-.5-1-.5h-1-1l-1.5-.5-1.5-.5v1.5 1.5l.5.5.5.5-6 1.5-6 1.5-7-1-7-1 7-3.5 7-3.5-2-1-2-1-1.5-.5-1.5-.5-2-.5-2-.5-1 1-1 1-1 .5-1 .5h-1.5-1.5-.5-.5l-6 1-6 1 3.5-1.5 3.5-1.5-.5-1.5-.5-1.5-1.5-2-1.5-2-1-1-1-1-2 .5-2 .5h-2-2l-2 .5-2 .5-1.5-.5-1.5-.5-1.5-1-1.5-1-1-.5-1-.5-1-.5-1-.5-.5 1-.5 1-.5 1-.5 1-.5-2-.5-2h-2-2l-1 1.5-1 1.5 1.5.5 1.5.5-2 .5-2 .5-1 1-1 1 .5 1 .5 1 1.5.5 1.5.5h1 1l1 .5 1 .5 2.5.5 2.5.5 9 3 9 3 9 2 9 2 13 2.5 13 2.5h1.5 1.5l.5-.5.5-.5.5-.5.5-.5-.5-1-.5-1 .5-.5.5-.5h1 1l.5.5.5.5 1 .5 1 .5 1.5.5 1.5.5.5.5.5.5-2 .5-2 .5-.5.5-.5.5 1 .5 1 .5 1 1 1 1 8.5 3 8.5 3 11 2 11 2h1.5 1.5 1.5 1.5l1.5.5 1.5.5 2 .5 2 .5 1.5.5 1.5.5 2 .5 2 .5 1.5.5 1.5.5 2 .5 2 .5 1.5.5 1.5.5 1.5.5 1.5.5 1.5.5 1.5.5 2 .5 2 .5 1.5.5 1.5.5 2 .5 2 .5 1.5.5 1.5.5 1.5.5 1.5.5 1.5.5 1.5.5h2 2l.5.5.5.5 1 .5 1 .5h2 2l.5.5.5.5 1 .5 1 .5 1.5.5 1.5.5h2 2l1.5-2.5 1.5-2.5 4.5 1 4.5 1 6.5 3.5 6.5 3.5h-1.5-1.5l-1 .5-1 .5 1.5 1 1.5 1 1.5.5 1.5.5 1 .5 1 .5 9 2.5 9 2.5h9 9l-1-.5-1-.5-1.5-.5-1.5-.5h-2-2v-1.5-1.5h2 2l1 1 1 1h1 1l1 .5 1 .5 1 1 1 1v2 2l13.5 3.5 13.5 3.5h13.5 13.5 11 11 10 10"/></g><path d="m818 354l-7-3-8.5-.5-8.5-.5-9-1.5-9-1.5 3.5-3.5 3.5-3.5-8.5-1.5-8.5-1.5-1 2-1 2 1 6 1 6 4-2.5 4-2.5 6.5 3.5 6.5 3.5 9.5-.5 9.5-.5-4.5 4.5-4.5 4.5 4.5-.5 4.5-.5 5.5-3 5.5-3 .5-1 .5-1" style="fill:#363226;stroke:#363226"/><g style="fill:#343d48;stroke:#343d48"><path d="m805 390l-17-3 .5.5.5.5 8 1 8 1"/><path d="m804 396l-16-2-9 2-9 2-6 .5-6 .5-1.5 1.5-1.5 1.5.5 1 .5 1 1 .5 1 .5 1.5.5 1.5.5 2-.5 2-.5h1 1l-.5 1.5-.5 1.5-2 .5-2 .5-1.5.5-1.5.5h-1.5-1.5v1 1l8 3.5 8 3.5 7.5-3.5 7.5-3.5-3-1.5-3-1.5 4.5-3.5 4.5-3.5v2 2l5-3 5-3 2-2 2-2"/></g><path d="m803 266l1-1-1.5.5-1.5.5h-1-1-1-1l-1 1-1 1-1 .5-1 .5h-1-1-2-2l-1 .5-1 .5h-1-1l-1.5.5-1.5.5h-1.5-1.5-1-1-1.5-1.5l1.5.5 1.5.5h1 1 1 1 1 1 1.5 1.5l.5-.5.5-.5h1 1l.5-.5.5-.5h1.5 1.5 1 1l.5-.5.5-.5h1 1l1-1 1-1h1.5 1.5l1-.5 1-.5" style="fill:#7d786d;stroke:#7d786d"/><path d="m795 130h-20l-10 1-10 1-1 2.5-1 2.5 9.5-1.5 9.5-1.5 9-1 9-1 2.5-1 2.5-1" style="fill:#99a29f;stroke:#99a29f"/><path d="m789 170l-16 4h7 7l1-2 1-2" style="fill:#b6b4a8;stroke:#b6b4a8"/><path d="m786 256l1-1-1-.5-1-.5h-1.5-1.5-1-1l-1.5.5-1.5.5h-1.5-1.5l-.5.5-.5.5 2 .5 2 .5h3.5 3.5l1-.5 1-.5" style="fill:#d6ba84;stroke:#d6ba84"/><path d="m773 364l-17 3 7.5-.5 7.5-.5 1-1 1-1" style="fill:#343d48;stroke:#343d48"/><path d="m773 328l1-3-1.5-.5-1.5-.5-1.5 1-1.5 1h-1-1l-1 .5-1 .5 1 1 1 1 2-.5 2-.5h1.5 1.5" style="fill:#363226;stroke:#363226"/><path d="m772 393l-6-12-3 1-3 1 2.5 5 2.5 5h3.5 3.5" style="fill:#202017;stroke:#202017"/><path d="m767 258l1-1-2-1-2-1h-2.5-2.5l-.5.5-.5.5.5 1 .5 1 1 .5 1 .5h2 2l1-.5 1-.5" style="fill:#d6ba84;stroke:#d6ba84"/><path d="m767 181l-15-3-5.5 1.5-5.5 1.5 11 .5 11 .5 2-.5 2-.5" style="fill:#79929d;stroke:#79929d"/><path d="m766 408l1-3h-1-1l-2 .5-2 .5-1.5-.5-1.5-.5-1-.5-1-.5-1.5 1.5-1.5 1.5 1.5 1.5 1.5 1.5h1.5 1.5l1.5-.5 1.5-.5 2-.5 2-.5" style="fill:#363226;stroke:#363226"/><path d="m764 186l-21-1-10 1-10 1 2.5 4 2.5 4 8-3 8-3 9-1 9-1 1-.5 1-.5" style="fill:#b6b4a8;stroke:#b6b4a8"/><path d="m761 267h1l-.5-1-.5-1h-1-1l-.5-.5-.5-.5-.5-.5-.5-.5h-1.5-1.5l-.5-.5-.5-.5h-1-1-1-1l-1 .5-1 .5-.5.5-.5.5h-1-1l.5-.5.5-.5h-1-1-1.5-1.5-1-1l-.5.5-.5.5h-1-1l-1 1.5-1 1.5 1-.5 1-.5 1.5-1 1.5-1h2 2l2 .5 2 .5 1.5-.5 1.5-.5h2.5 2.5l1.5.5 1.5.5 1 .5 1 .5 1 .5 1 .5" style="fill:#7d786d;stroke:#7d786d"/><path d="m759 97l-17 3-8 3-8 3 7.5-1 7.5-1 8-3 8-3 1-.5 1-.5" style="fill:#79929d;stroke:#79929d"/><path d="m755 412h1v-1-1l-1.5-1.5-1.5-1.5 1.5-1.5 1.5-1.5-.5-1-.5-1h-1.5-1.5l-.5 1-.5 1v1 1h-1.5-1.5-1-1l-.5-.5-.5-.5-.5-.5-.5-.5-.5-.5-.5-.5-1-.5-1-.5v1 1l.5.5.5.5.5.5.5.5.5 1 .5 1h-1-1l-.5.5-.5.5.5.5.5.5-.5 1-.5 1h-1-1l-.5.5-.5.5h-1-1l-1 1-1 1h-1.5-1.5-1-1-2.5-2.5-1-1-2.5-2.5l-1.5.5-1.5.5-2-.5-2-.5-.5.5-.5.5v1.5 1.5l1.5 5.5 1.5 5.5 6.5 2.5 6.5 2.5 4-6 4-6 8.5-1.5 8.5-1.5 2.5-4 2.5-4" style="fill:#554128;stroke:#554128"/><path d="m754 256v-2l-2 .5-2 .5-1.5.5-1.5.5-1 1-1 1 .5 1 .5 1h2 2l.5-1.5.5-1.5 1.5-.5 1.5-.5" style="fill:#d6ba84;stroke:#d6ba84"/><path d="m753 175l-13-9-7 3-7 3 4.5 2 4.5 2h8 8l1-.5 1-.5" style="fill:#b6b4a8;stroke:#b6b4a8"/><path d="m752 394l-15-7 1 3 1 3 6.5.5 6.5.5" style="fill:#554128;stroke:#554128"/><path d="m751 406v-2l.5-1 .5-1-7.5-1.5-7.5-1.5-4.5-2.5-4.5-2.5v3 3l2.5 6.5 2.5 6.5.5 1 .5 1 1-1 1-1h1 1l.5-.5.5-.5h1 1l.5-1 .5-1-.5-.5-.5-.5.5-.5.5-.5h1 1l-.5-1-.5-1-.5-.5-.5-.5-.5-.5-.5-.5v-1-1l1 .5 1 .5.5.5.5.5.5.5.5.5.5.5.5.5h1 1 1.5 1.5" style="fill:#343d48;stroke:#343d48"/><path d="m751 209l-19-5h-9-9l3.5 2 3.5 2 9.5.5 9.5.5v3 3l5.5-3 5.5-3" style="fill:#b6b4a8;stroke:#b6b4a8"/><path d="m749 536h1l-13.5-3.5-13.5-3.5v-2-2h-.5-.5-1-1-9-9l-9-2.5-9-2.5h-.5-.5l-10-2.5-10-2.5-14-4.5-14-4.5-1.5-.5-1.5-.5-1.5-.5-1.5-.5-1.5-.5-1.5-.5-2-.5-2-.5-1.5-.5-1.5-.5-2-.5-2-.5-1.5-.5-1.5-.5h-.5-.5-1.5-1.5l-1.5-.5-1.5-.5-1.5-.5-1.5-.5-2-.5-2-.5-1.5-.5-1.5-.5-2-.5-2-.5-1.5-.5-1.5-.5-2-.5-2-.5-2.5-.5-2.5-.5-11-2-11-2-8.5-3-8.5-3h-1.5-1.5l-.5-.5-.5-.5-1-.5-1-.5-1.5-.5-1.5-.5-2-.5-2-.5-13-2.5-13-2.5-9-2-9-2-9-3-9-3-11-1.5-11-1.5 2 4 2 4 8.5 2.5 8.5 2.5 7.5 3.5 7.5 3.5 8.5 1.5 8.5 1.5 9.5 2 9.5 2 9.5 1.5 9.5 1.5 8 4 8 4-8 .5-8 .5v-2-2l-6.5-1.5-6.5-1.5-2.5 3.5-2.5 3.5 8.5 2.5 8.5 2.5.5 2.5.5 2.5-8-3.5-8-3.5-8.5-2.5-8.5-2.5-9-2-9-2-8.5-1.5-8.5-1.5-6.5.5-6.5.5-2 4.5-2 4.5 6 5 6 5 7.5 3.5 7.5 3.5 10 1 10 1 7.5.5 7.5.5 5 4.5 5 4.5 8.5-.5 8.5-.5-6.5-4.5-6.5-4.5 6 2 6 2 4.5 7 4.5 7h11.5 11.5 11 11 11 11 11 11 6.5 6.5l-5-6.5-5-6.5 5.5-2.5 5.5-2.5 7 3 7 3 8 2.5 8 2.5 10 3 10 3h-1.5-1.5l-1.5-.5-1.5-.5-2-.5-2-.5h-2-2l-1.5-.5-1.5-.5-2 .5-2 .5.5 1.5.5 1.5h12.5 12.5 11 11 11 11 .5.5" style="fill:#202017;stroke:#202017"/><path d="m743 257h1l-14-.5-14-.5-5.5-1.5-5.5-1.5 3 4.5 3 4.5h1.5 1.5l1.5.5 1.5.5 1.5 1 1.5 1h2 2l2 .5 2 .5 1.5.5 1.5.5 1-1.5 1-1.5-.5-.5-.5-.5 1.5-.5 1.5-.5h.5.5 1 1l1.5-.5 1.5-.5h1 1l-1.5-1-1.5-1 .5-.5.5-.5 1-.5 1-.5" style="fill:#d6ba84;stroke:#d6ba84"/><path d="m735 341v-2l-.5-1.5-.5-1.5-2 .5-2 .5-1.5.5-1.5.5 1 1.5 1 1.5 1 1 1 1h1.5 1.5l.5-1 .5-1" style="fill:#363226;stroke:#363226"/><path d="m732 268l1-1h-1-1l-1.5-.5-1.5-.5-2-.5-2-.5h-2-2l-1.5-1-1.5-1-1.5-.5-1.5-.5h-1.5-1.5l-10-4-10-4-9.5-.5-9.5-.5-8.5 2-8.5 2-10.5-.5-10.5-.5h-.5-.5-1.5-1.5l-1 .5-1 .5h-2-2l-.5.5-.5.5-1-1-1-1-7 .5-7 .5h-5-5l-15-.5-15-.5-12.5-4.5-12.5-4.5-9.5 1.5-9.5 1.5-12 1-12 1-8.5 3-8.5 3-8.5 3-8.5 3-8.5-.5-8.5-.5-8-1-8-1-9 1-9 1-8.5 3-8.5 3-7.5.5-7.5.5-9.5-.5-9.5-.5-9 1-9 1-11.5 1.5-11.5 1.5h-1-1l-11 .5-11 .5h-7-7l-9.5 1-9.5 1-1.5.5-1.5.5h-1.5-1.5l-1 .5-1 .5-.5.5-.5.5h-2.5-2.5l-.5.5-.5.5v.5.5l10-2 10-2 18.5-.5 18.5-.5 11-.5 11-.5 8.5-1 8.5-1 7.5-1.5 7.5-1.5 8 1 8 1 9.5-.5 9.5-.5 8.5-2.5 8.5-2.5 9-1.5 9-1.5 9 1 9 1h10 10l7.5-3.5 7.5-3.5 8.5-2.5 8.5-2.5 9.5-1 9.5-1 9.5-1.5 9.5-1.5 8.5 1.5 8.5 1.5 7 4 7 4 8.5-.5 8.5-.5 9.5 1 9.5 1 9.5-.5 9.5-.5 10-1 10-1 9-1 9-1h9 9l8 1.5 8 1.5 8 3 8 3 9.5 1.5 9.5 1.5" style="fill:#7d786d;stroke:#7d786d"/><path d="m730 488l-14-6 5 4 5 4 2-1 2-1" style="fill:#363226;stroke:#363226"/><path d="m726 380h-14l-4.5-1.5-4.5-1.5-4 1.5-4 1.5h-8-8l7.5 1.5 7.5 1.5 6.5 1.5 6.5 1.5h5 5l4.5-3 4.5-3" style="fill:#202017;stroke:#202017"/><path d="m726 152l-17-1-7.5 3.5-7.5 3.5-5 5.5-5 5.5 4-2 4-2 7.5-3.5 7.5-3.5 8.5-2.5 8.5-2.5 1-.5 1-.5" style="fill:#99a29f;stroke:#99a29f"/><path d="m725 342l-14-4 3 2 3 2h4 4" style="fill:#363226;stroke:#363226"/><path d="m722 525h1l-1-1-1-1-1-.5-1-.5h-1-1l-1-1-1-1h-2-2v1.5 1.5h2 2l1.5.5 1.5.5 1 .5 1 .5h1 1" style="fill:#72512e;stroke:#72512e"/><path d="m720 222l-17-3 6.5 1.5 6.5 1.5h2 2" style="fill:#b6b4a8;stroke:#b6b4a8"/><g style="fill:#363226;stroke:#363226"><path d="m719 351l-1-1-1-1-1-1h-1.5-1.5l-1.5-.5-1.5-.5-1.5 1-1.5 1-1 1-1 1h1.5 1.5l1.5-.5 1.5-.5 1.5.5 1.5.5 2 .5 2 .5.5-.5.5-.5"/><path d="m713 494l-18-4 6.5 2.5 6.5 2.5 2.5-.5 2.5-.5"/></g><path d="m709 416l1-1-4.5-4.5-4.5-4.5v2 2l-5.5-3-5.5-3-7-2-7-2-.5.5-.5.5h1.5 1.5l-1 1-1 1 1 1 1 1 .5 2 .5 2-1.5.5-1.5.5v2 2l1 .5 1 .5 1.5.5 1.5.5v1.5 1.5l-8-3.5-8-3.5 1-6 1-6-7 5-7 5-1-5-1-5-2.5 3-2.5 3-1 8-1 8 6.5 2.5 6.5 2.5 6.5-.5 6.5-.5 7.5-3.5 7.5-3.5 9-1.5 9-1.5 3 1.5 3 1.5v-1.5-1.5" style="fill:#343d48;stroke:#343d48"/><g style="fill:#363226;stroke:#363226"><path d="m702 341l1-3-1-1-1-1-2-.5-2-.5h-2-2-2.5-2.5l-1 1-1 1 1.5 1 1.5 1h1 1l1.5.5 1.5.5 2 .5 2 .5h2 2"/><path d="m699 535l-20-6-8-2.5-8-2.5-7-3-7-3-5.5 2.5-5.5 2.5 5 6.5 5 6.5h3 3 2 2 2.5 2.5 2 2 2.5 2.5 2 2 1.5 1.5l-.5-1.5-.5-1.5 2-.5 2-.5 1.5.5 1.5.5h2 2l2 .5 2 .5 1.5.5 1.5.5h1.5 1.5"/></g><path d="m697 220v-2l-1.5-.5-1.5-.5-2 .5-2 .5h-2-2l.5 2 .5 2h2 2l2-.5 2-.5 1-.5 1-.5" style="fill:#b6b4a8;stroke:#b6b4a8"/><path d="m697 60l-1-2-1-1-1-1h-1-1l-1.5 1-1.5 1v1 1l1.5 1 1.5 1 2.5-.5 2.5-.5v-.5-.5" style="fill:#557997;stroke:#557997"/><path d="m696 358l-17-5-8.5-1.5-8.5-1.5-7 1.5-7 1.5-3.5 2-3.5 2 6.5-.5 6.5-.5 6 2 6 2-4.5 4-4.5 4 6.5-.5 6.5-.5.5-1.5.5-1.5 6.5-2.5 6.5-2.5 6-.5 6-.5" style="fill:#202017;stroke:#202017"/><path d="m683 520h1l-1-.5-1-.5-1.5-.5-1.5-.5-1.5-1-1.5-1-1-1-1-1-1 .5-1 .5h-.5-.5l-2-.5-2-.5-1.5-.5-1.5-.5-2-.5-2-.5-1-.5-1-.5h-1-1-2-2l-1.5-.5-1.5-.5-1-.5-1-.5-.5-.5-.5-.5h-2-2l-1-.5-1-.5-.5-.5-.5-.5h-2-2l14 4.5 14 4.5 10 2.5 10 2.5" style="fill:#363226;stroke:#363226"/><g style="fill:#554128;stroke:#554128"><path d="m681 515l-13-7-4.5-1-4.5-1-1.5 2.5-1.5 2.5h1 1l2-1 2-1 1.5.5 1.5.5 1.5 1 1.5 1 1.5.5 1.5.5.5 1 .5 1 1-.5 1-.5 1 1 1 1 1-.5 1-.5h1.5 1.5"/><path d="m681 419v-3l-1.5-.5-1.5-.5-1-.5-1-.5v-2-2l1.5-.5 1.5-.5-.5-2-.5-2-1-1-1-1 1-1 1-1h-1.5-1.5l-2.5-.5-2.5-.5-1 1-1 1-.5-1-.5-1-1 6-1 6 8 3.5 8 3.5"/></g><path d="m677 381l-17-1 .5 1.5.5 1.5 4.5 5 4.5 5 2.5-5.5 2.5-5.5 1-.5 1-.5" style="fill:#202017;stroke:#202017"/><path d="m672 338v-2l-1-1-1-1-2 .5-2 .5h-2-2l-2-.5-2-.5-1 1-1 1 2 .5 2 .5 1.5.5 1.5.5h1 1 2.5 2.5 1 1" style="fill:#363226;stroke:#363226"/><path d="m671 515h1l-.5-1-.5-1-1.5-.5-1.5-.5-1.5-1-1.5-1-1.5-.5-1.5-.5-2 1-2 1 1 .5 1 .5 2 .5 2 .5 1.5.5 1.5.5 2 .5 2 .5" style="fill:#343d48;stroke:#343d48"/><g style="fill:#99a29f;stroke:#99a29f"><path d="m669 189v-2h-2-2-2.5-2.5l-.5.5-.5.5 1.5 1 1.5 1 1.5.5 1.5.5 2-.5 2-.5v-.5-.5"/><path d="m666 115v-2l-1.5-.5-1.5-.5-1.5 1-1.5 1-1 1-1 1-1.5 1-1.5 1-.5.5-.5.5 1.5 1 1.5 1 1-1 1-1h2 2l1-1.5 1-1.5.5-.5.5-.5"/><path d="m663 97h-10l-.5-7.5-.5-7.5-3-3.5-3-3.5-7.5.5-7.5.5-8 2-8 2-4 3-4 3-3.5 3.5-3.5 3.5 2.5 2 2.5 2 2 3 2 3 7 1 7 1-2.5 2.5-2.5 2.5 3.5 4.5 3.5 4.5 9.5-1 9.5-1 6.5-1.5 6.5-1.5 3-5 3-5v-3.5-3.5"/></g><path d="m660 253l1-3h-2-2l-2 .5-2 .5-1.5.5-1.5.5 1 1.5 1 1.5h2 2l1.5-1 1.5-1h.5.5" style="fill:#d6ba84;stroke:#d6ba84"/><g style="fill:#202017;stroke:#202017"><path d="m642 370v-2l-.5-1.5-.5-1.5v-1.5-1.5l-.5-1.5-.5-1.5.5-1 .5-1-7-3-7-3-4.5 2.5-4.5 2.5-3.5-3.5-3.5-3.5-3-3.5-3-3.5-5 3-5 3-4 4-4 4 7 1 7 1 5.5 1.5 5.5 1.5 8 3.5 8 3.5 5.5 3.5 5.5 3.5 1.5-2.5 1.5-2.5"/><path d="m637 315v-2l-1.5-.5-1.5-.5h-1.5-1.5-1-1l-1.5 1-1.5 1 1.5.5 1.5.5 2 .5 2 .5h1 1l1-.5 1-.5"/></g><path d="m637 183l-18-4-7.5 2.5-7.5 2.5h8.5 8.5l7.5-.5 7.5-.5h.5.5" style="fill:#99a29f;stroke:#99a29f"/><g style="fill:#554128;stroke:#554128"><path d="m635 390v-2l-.5-1.5-.5-1.5-1.5-1-1.5-1h-2-2l-2 .5-2 .5-.5 1.5-.5 1.5 1 1.5 1 1.5 1.5.5 1.5.5.5 1.5.5 1.5v1.5 1.5l2.5-.5 2.5-.5.5-2 .5-2 .5-1 .5-1"/><path d="m633 405v-2l-1-1-1-1-1-1.5-1-1.5-.5-.5-.5-.5-8.5-.5-8.5-.5-5.5 5-5.5 5-.5 1-.5 1 .5 1 .5 1 .5 1 .5 1 1.5.5 1.5.5 1-1 1-1v-2.5-2.5l1.5.5 1.5.5 2 .5 2 .5 1.5.5 1.5.5 2-.5 2-.5 1.5.5 1.5.5h2.5 2.5 1 1l1-1 1-1 .5-1 .5-1"/></g><path d="m633 256h1l-1-.5-1-.5.5-.5.5-.5-.5-.5-.5-.5h-1-1-1.5-1.5-1-1l-.5.5-.5.5-.5.5-.5.5-1 .5-1 .5 1 1 1 1 .5-.5.5-.5h2 2l1-.5 1-.5h1.5 1.5" style="fill:#d6ba84;stroke:#d6ba84"/><g style="fill:#202017;stroke:#202017"><path d="m628 327l-13-7v2 2l6.5 1.5 6.5 1.5"/><path d="m621 374v-2l-1.5-.5-1.5-.5-1.5 1-1.5 1-1.5-.5-1.5-.5-1 1.5-1 1.5.5 1.5.5 1.5 2-.5 2-.5h1 1l1-1 1-1 1-.5 1-.5"/></g><path d="m621 255l-18-1-9.5-1.5-9.5-1.5-8.5 2.5-8.5 2.5 15 .5 15 .5h5 5l7-.5 7-.5v-.5-.5" style="fill:#d6ba84;stroke:#d6ba84"/><path d="m611 499h1l-1.5-.5-1.5-.5-1.5-.5-1.5-.5-2-.5-2-.5-1.5-.5-1.5-.5-2-.5-2-.5-1.5-.5-1.5-.5-2-.5-2-.5-1.5-.5-1.5-.5h-1.5-1.5-1.5-1.5l2.5.5 2.5.5 2 .5 2 .5 1.5.5 1.5.5 2 .5 2 .5 1.5.5 1.5.5 2 .5 2 .5 1.5.5 1.5.5 1.5.5 1.5.5h1.5 1.5" style="fill:#363226;stroke:#363226"/><path d="m609 388v-2h-1-1l-1.5-1-1.5-1-1.5.5-1.5.5-1 1.5-1 1.5 1 1 1 1 2-.5 2-.5 1.5-.5 1.5-.5h.5.5" style="fill:#202017;stroke:#202017"/><path d="m606 424l1-3-.5-1.5-.5-1.5-1-1.5-1-1.5v-1-1l-1.5-.5-1.5-.5-.5-1-.5-1-.5-1-.5-1-1 2-1 2 .5 1.5.5 1.5 1.5.5 1.5.5v1.5 1.5l-1.5.5-1.5.5 1 1.5 1 1.5 1.5.5 1.5.5h1.5 1.5" style="fill:#343d48;stroke:#343d48"/><path d="m599 181l-17-1 1 5 1 5 7-4.5 7-4.5h.5.5" style="fill:#99a29f;stroke:#99a29f"/><path d="m598 198l-10-4 2 3 2 3 3-1 3-1" style="fill:#decfad;stroke:#decfad"/><path d="m593 366l-1-1-.5-1.5-.5-1.5-1.5-1-1.5-1-1-1-1-1-1 1.5-1 1.5-1 1-1 1 1 .5 1 .5 1.5.5 1.5.5 1.5.5 1.5.5h1.5 1.5" style="fill:#343d48;stroke:#343d48"/><path d="m593 342l-4-10-6 1-6 1-3.5-2-3.5-2-5 2-5 2 6.5 2.5 6.5 2.5 7 4 7 4 3-2.5 3-2.5" style="fill:#202017;stroke:#202017"/><path d="m592 416v-2l-1.5-.5-1.5-.5h-.5-.5l-.5 1.5-.5 1.5v1.5 1.5h-1-1l1.5 1.5 1.5 1.5 2-.5 2-.5v-2-2-.5-.5" style="fill:#343d48;stroke:#343d48"/><path d="m591 392l-6-8-7 4-7 4 7 1.5 7 1.5 3-1.5 3-1.5" style="fill:#202017;stroke:#202017"/><g style="fill:#554128;stroke:#554128"><path d="m590 488l1-3-1.5-.5-1.5-.5-2-.5-2-.5-1 1-1 1 .5 2 .5 2 1.5-.5 1.5-.5 2-.5 2-.5v.5.5"/><path d="m587 419v-3l.5-1.5.5-1.5-.5-1.5-.5-1.5-1-1-1-1 1-1.5 1-1.5v-1-1l-2-.5-2-.5-1.5-.5-1.5-.5v-.5-.5h-.5-.5l-7.5.5-7.5.5-7 1-7 1-6 1-6 1-1.5.5-1.5.5-1 1-1 1 1.5 1 1.5 1 1.5.5 1.5.5h1.5 1.5l1-1 1-1 1-.5 1-.5 1.5.5 1.5.5 2 .5 2 .5 1 1 1 1h.5.5l1 .5 1 .5-1 1.5-1 1.5-.5 1.5-.5 1.5v.5.5l1.5.5 1.5.5 1 1.5 1 1.5 1-1 1-1 1-1 1-1 2-.5 2-.5 1-.5 1-.5 2-1 2-1 1.5-.5 1.5-.5 2 .5 2 .5 1.5.5 1.5.5.5 1 .5 1h1 1"/><path d="m580 488l-15-3 7 2 7 2 .5-.5.5-.5"/></g><path d="m580 355l-4-8h-5-5l-1.5 1-1.5 1 3 3 3 3h5.5 5.5" style="fill:#202017;stroke:#202017"/><path d="m579 400h1l-10-2.5-10-2.5-3.5.5-3.5.5-5.5 3-5.5 3-2 1.5-2 1.5 6-1 6-1 7-1 7-1 7.5-.5 7.5-.5" style="fill:#343d48;stroke:#343d48"/><path d="m576 200l-20-6-7-2-7-2-7 1-7 1-9.5-1.5-9.5-1.5-10 .5-10 .5-1 .5-1 .5.5.5.5.5-1 .5-1 .5-1.5-.5-1.5-.5h-1.5-1.5-2-2l-1.5 1-1.5 1h-2-2-3-3l-1 .5-1 .5-1 1-1 1-1.5.5-1.5.5-1.5 1-1.5 1-1.5.5-1.5.5-2 .5-2 .5v1 1l2 .5 2 .5h2 2l1 .5 1 .5 8-3 8-3h9 9l9.5.5 9.5.5 9 1 9 1 10-.5 10-.5 8 1 8 1 6.5-2 6.5-2" style="fill:#decfad;stroke:#decfad"/><g style="fill:#343d48;stroke:#343d48"><path d="m572 424v-2l-1-1-1-1v-1-1l-1 .5-1 .5-2 .5-2 .5-1 1-1 1-1 1-1 1-1-1.5-1-1.5-1.5-.5-1.5-.5v-.5-.5l.5-1.5.5-1.5 1-1.5 1-1.5-1-.5-1-.5-2.5 6-2.5 6 7 2 7 2 3.5-2 3.5-2"/><path d="m571 377l-16-2 4 3 4 3 4-2 4-2"/></g><path d="m566 389l-16-4-6.5-1.5-6.5-1.5-2-5.5-2-5.5v-7-7l2-4 2-4-5 3-5 3-3.5 6.5-3.5 6.5-6 .5-6 .5-2 5-2 5-5 1-5 1 7.5 2.5 7.5 2.5 6.5 4.5 6.5 4.5 6 2.5 6 2.5 6-5 6-5 8 1 8 1 2-1.5 2-1.5" style="fill:#202017;stroke:#202017"/><path d="m560 219l1-3-1-1-1-1h-2.5-2.5l-1.5-.5-1.5-.5h-2.5-2.5l.5 1.5.5 1.5 1 1.5 1 1.5 1.5.5 1.5.5 1.5-.5 1.5-.5h2.5 2.5" style="fill:#decfad;stroke:#decfad"/><path d="m559 476v-2h-1-1-1-1l-.5-1-.5-1-6.5 3.5-6.5 3.5 5.5.5 5.5.5 3.5-2 3.5-2" style="fill:#554128;stroke:#554128"/><g style="fill:#202017;stroke:#202017"><path d="m556 341l-13-5 3.5 2.5 3.5 2.5h3 3"/><path d="m551 363l-11 3 2.5 5.5 2.5 5.5 3-7 3-7"/></g><path d="m551 165l-14-6-8-1-8-1-5 3.5-5 3.5 8.5 1.5 8.5 1.5h9 9l2.5-1 2.5-1" style="fill:#79929d;stroke:#79929d"/><path d="m550 497l-16-8-9.5-1.5-9.5-1.5-9.5-2-9.5-2-8.5-1.5-8.5-1.5-7.5-3.5-7.5-3.5-8.5-2.5-8.5-2.5-2-4-2-4 11 1.5 11 1.5-2.5-.5-2.5-.5-1-.5-1-.5h-1-1l-1.5-.5-1.5-.5-7.5-2-7.5-2-8.5-2.5-8.5-2.5-9-2-9-2-8-2-8-2-8.5-.5-8.5-.5-9-1.5-9-1.5-9.5-1.5-9.5-1.5-9-2-9-2h-5-5l-6-1-6-1 2.5 5 2.5 5 8.5 2.5 8.5 2.5 7.5 3.5 7.5 3.5 7.5 2.5 7.5 2.5 6 4 6 4-6-.5-6-.5-7-4-7-4-6.5-2.5-6.5-2.5-12.5-3.5-12.5-3.5-1-.5-1-.5-1.5-.5-1.5-.5-1.5-.5-1.5-.5h-1-1l-1-.5-1-.5h-2-2l-2-.5-2-.5-1.5-.5-1.5-.5h-2.5-2.5l-1.5-.5-1.5-.5h-2-2l-10.5-1.5-10.5-1.5-10-1-10-1-10.5-.5-10.5-.5-9-1-9-1-11-.5-11-.5h-11-11l-10-1-10-1-10 1-10 1-7 4-7 4-7.5 3-7.5 3-2 5-2 5 6 2 6 2v8 8l-2.5 8.5-2.5 8.5-1.5 7-1.5 7-2 8-2 8-.5 5.5-.5 5.5-9-5-9-5 .5 2 .5 2-1.5.5-1.5.5v1 1l.5.5.5.5.5.5.5.5.5 1 .5 1-.5.5-.5.5-.5.5-.5.5v1 1l.5 1 .5 1h2 2 2.5 2.5 2 2 2.5 2.5 2 2 2 2 1.5 1.5l5.5-6.5 5.5-6.5v-8-8l-3-7-3-7 2.5-8 2.5-8-1-9-1-9 1-9 1-9 6.5-4.5 6.5-4.5 8.5-1.5 8.5-1.5 8 .5 8 .5h9 9l9.5.5 9.5.5h10 10l10 .5 10 .5 10 1 10 1 9.5 1.5 9.5 1.5 10 1 10 1 9 2 9 2 9.5 2 9.5 2 8.5 2.5 8.5 2.5 8 3 8 3 6.5 4.5 6.5 4.5 6.5 5 6.5 5 3 .5 3 .5 9 1 9 1 7 4 7 4 4.5 4.5 4.5 4.5 8.5 3 8.5 3-4.5.5-4.5.5 2.5 3.5 2.5 3.5 4 4 4 4-9-2-9-2-8-2-8-2 4 4 4 4-8.5-2.5-8.5-2.5-7.5-12.5-7.5-12.5 4 8 4 8 2.5 15.5 2.5 15.5h12.5 12.5 11 11 1 1l-8-3.5-8-3.5 15 3.5 15 3.5h12.5 12.5 11.5 11.5 11 11 1.5 1.5l-2-1-2-1 .5-1.5.5-1.5h2.5 2.5l1 1 1 1 1.5.5 1.5.5h1 1l1 .5 1 .5 1.5.5 1.5.5h2.5 2.5 2 2 2.5 2.5l-4.5-7-4.5-7-6-2-6-2 6.5 4.5 6.5 4.5-8.5.5-8.5.5-5-4.5-5-4.5-7.5-.5-7.5-.5-10-1-10-1-7.5-3.5-7.5-3.5-6-5-6-5 2-4.5 2-4.5 6.5-.5 6.5-.5 8.5 1.5 8.5 1.5 9 2 9 2 8.5 2.5 8.5 2.5 8 3.5 8 3.5-.5-2.5-.5-2.5-8.5-2.5-8.5-2.5 2.5-3.5 2.5-3.5 6.5 1.5 6.5 1.5v2 2l8-.5 8-.5" style="fill:#363226;stroke:#363226"/><path d="m542 240l-31-6-9 1.5-9 1.5-5.5 2.5-5.5 2.5 4.5 2 4.5 2 4 1 4 1 13-2.5 13-2.5-8 1-8 1-4.5-1.5-4.5-1.5 14.5-.5 14.5-.5h-2.5-2.5l1.5.5 1.5.5 1.5.5 1.5.5 2-.5 2-.5 2.5-.5 2.5-.5 1.5-.5 1.5-.5" style="fill:#decfad;stroke:#decfad"/><path d="m541 476l-1-1-1.5-.5-1.5-.5-1-.5-1-.5-.5-.5-.5-.5h-1-1l-.5.5-.5.5.5 1 .5 1-.5.5-.5.5-.5.5-.5.5h-1.5-1.5l2 .5 2 .5 1.5.5 1.5.5 1 .5 1 .5.5.5.5.5h1.5 1.5l-1-1-1-1-1-.5-1-.5.5-.5.5-.5 2-.5 2-.5" style="fill:#72512e;stroke:#72512e"/><path d="m541 328v-2l-1 1-1 1-2 .5-2 .5-1.5.5-1.5.5v1.5 1.5l1.5-.5 1.5-.5 2-.5 2-.5 1-1 1-1v-.5-.5" style="fill:#202017;stroke:#202017"/><path d="m541 112l-8-6v5 5l4-2 4-2" style="fill:#b6b4a8;stroke:#b6b4a8"/><path d="m538 242l1-1-2.5.5-2.5.5-2 .5-2 .5-1.5-.5-1.5-.5-1 .5-1 .5-13 2.5-13 2.5-4-1-4-1-4.5-2-4.5-2-2.5 3.5-2.5 3.5-4.5-2.5-4.5-2.5-7.5-3-7.5-3-.5 1-.5 1h-1.5-1.5l2.5 1 2.5 1 1 1 1 1 .5.5.5.5-2 .5-2 .5h-1-1l-.5-.5-.5-.5h-1-1-1.5-1.5-2-2-1-1l-1 .5-1 .5-1.5.5-1.5.5-1-.5-1-.5-8-2-8-2-5.5 1.5-5.5 1.5-8.5-1.5-8.5-1.5-11.5-5-11.5-5 1 .5 1 .5 1 1.5 1 1.5 1.5.5 1.5.5.5 1 .5 1-10-1-10-1 6-2.5 6-2.5-2-1-2-1h-2-2l-2-.5-2-.5.5-1.5.5-1.5h2 2l1-.5 1-.5 2-.5 2-.5h1 1 2 2l9-2.5 9-2.5 15-.5 15-.5-.5-1.5-.5-1.5 1-.5 1-.5-1-1-1-1 2-.5 2-.5 1.5-.5 1.5-.5 1.5-.5 1.5-.5h2.5 2.5 2 2l2.5-.5 2.5-.5-1-.5-1-.5h-2.5-2.5l-1.5.5-1.5.5-2-.5-2-.5-1-.5-1-.5-6 2.5-6 2.5-9 1.5-9 1.5-9 2-9 2-9 2-9 2-9 2-9 2-2.5 2.5-2.5 2.5-2 2.5-2 2.5h-8-8l-8 3-8 3-4 3-4 3h10.5 10.5l5-2 5-2 8 1 8 1 10 1 10 1-6.5.5-6.5.5-9-1.5-9-1.5.5 4.5.5 4.5 8 2 8 2 6 2 6 2-10.5.5-10.5.5-10 .5-10 .5-9.5.5-9.5.5-6.5.5-6.5.5h-7-7l-1.5-1.5-1.5-1.5-2.5-2-2.5-2-5.5-2.5-5.5-2.5h-9-9l-9-2-9-2-9.5-1.5-9.5-1.5-7-4.5-7-4.5-10-1-10-1-9.5-1.5-9.5-1.5-7.5.5-7.5.5-3.5 3.5-3.5 3.5-11-.5-11-.5-2.5-1.5-2.5-1.5-6.5-3.5-6.5-3.5h9 9l10.5 1 10.5 1v-3-3l-9.5-1.5-9.5-1.5 8.5-2.5 8.5-2.5 8-2 8-2 10 1.5 10 1.5-3-3-3-3-6.5-.5-6.5-.5-.5-1.5-.5-1.5 10.5-.5 10.5-.5 6.5-1 6.5-1h9 9l9.5 1.5 9.5 1.5 9.5-.5 9.5-.5 9 1 9 1 10 .5 10 .5 9.5-.5 9.5-.5 8.5-1.5 8.5-1.5 6.5-6.5 6.5-6.5-9-1-9-1 6-3 6-3-6.5-.5-6.5-.5-1.5-8-1.5-8-2.5 6-2.5 6 1.5 6.5 1.5 6.5-6 1-6 1-10.5 1-10.5 1-8-3-8-3-9-2-9-2-8 2-8 2-4 4-4 4 2.5 3 2.5 3-5.5-1.5-5.5-1.5-5 1-5 1-9.5-.5-9.5-.5-9.5.5-9.5.5-10.5 1.5-10.5 1.5h-1.5-1.5l-1.5.5-1.5.5h-1.5-1.5l-.5.5-.5.5v.5.5l1 .5 1 .5h1 1 1.5 1.5 1 1l.5.5.5.5h1 1l1 .5 1 .5h1 1l.5.5.5.5h1 1v1 1l-10.5 1-10.5 1-5 4-5 4 4 2.5 4 2.5-8.5-1.5-8.5-1.5-13.5-3.5-13.5-3.5-9-2-9-2-9-2-9-2-13.5-2.5-13.5-2.5v2 2 2 2l2 .5 2 .5h2.5 2.5l1.5.5 1.5.5h2 2 1.5 1.5 2 2l.5 1 .5 1-1.5.5-1.5.5h-2.5-2.5-2-2l-2-.5-2-.5-1.5-.5-1.5-.5-2.5-.5-2.5-.5v1.5 1.5 2 2 2.5 2.5 2 2 .5.5l9 3.5 9 3.5 9.5 1.5 9.5 1.5 4-2 4-2 9.5 1.5 9.5 1.5 9.5-1 9.5-1h10 10l10 1 10 1 9.5.5 9.5.5 1.5-.5 1.5-.5 2-3.5 2-3.5 10 1 10 1 6 3 6 3h-10-10l4.5 1.5 4.5 1.5 9.5 1.5 9.5 1.5 10.5 1 10.5 1 7 3 7 3 9.5 1.5 9.5 1.5 8 3 8 3h-8-8-8-8l5.5 2 5.5 2 13.5 2 13.5 2v.5.5l9.5-1 9.5-1h7 7l11-.5 11-.5-8.5-2.5-8.5-2.5 10-1 10-1 13.5 1 13.5 1h-9.5-9.5l-4.5 2.5-4.5 2.5 11.5-1.5 11.5-1.5 9-1 9-1 9.5.5 9.5.5 7.5-.5 7.5-.5 8.5-3 8.5-3 9-1 9-1 8 1 8 1 8.5.5 8.5.5 8.5-3 8.5-3 8.5-3 8.5-3 11-2 11-2 8.5-3 8.5-3" style="fill:#d6ba84;stroke:#d6ba84"/><path d="m537 222l-19-3-10 1-10 1h8.5 8.5l8 1 8 1 3-.5 3-.5" style="fill:#99a29f;stroke:#99a29f"/><path d="m531 536h1l-1.5-.5-1.5-.5-1-.5-1-.5h-1-1l-1.5-.5-1.5-.5-1-1-1-1h-2.5-2.5l-.5 1.5-.5 1.5 2 1 2 1h3 3 2.5 2.5 1 1" style="fill:#343d48;stroke:#343d48"/><path d="m529 241l-29 1 4.5 1.5 4.5 1.5 8-1 8-1 1-.5 1-.5-1.5-.5-1.5-.5h2.5 2.5" style="fill:#f6d88a;stroke:#f6d88a"/><path d="m529 178v-2l-1-1-1-1-2-.5-2-.5-1.5.5-1.5.5-.5 1-.5 1 1.5.5 1.5.5h2.5 2.5l1 .5 1 .5" style="fill:#99a29f;stroke:#99a29f"/><g style="fill:#554128;stroke:#554128"><path d="m528 470l-1-1v-1.5-1.5l-2.5-.5-2.5-.5-1.5-.5-1.5-.5h-1.5-1.5l-7 3.5-7 3.5 7 1 7 1 6-1.5 6-1.5"/><path d="m527 411l-14-10 .5 3.5.5 3.5 6.5 1.5 6.5 1.5"/></g><path d="m521 184l-1-1-1.5-.5-1.5-.5-2-.5-2-.5-1.5-.5-1.5-.5-1.5 1-1.5 1 1 1 1 1 2 .5 2 .5h2 2 2 2v-.5-.5" style="fill:#decfad;stroke:#decfad"/><path d="m520 215l-16-2 7 1 7 1h1 1" style="fill:#99a29f;stroke:#99a29f"/><path d="m517 125h-14l7 1 7 1v-1-1" style="fill:#79929d;stroke:#79929d"/><path d="m513 394l-1-1-1-1-1-1-2-.5-2-.5h-2-2l-.5 2-.5 2 1 1 1 1 2 .5 2 .5 1.5-.5 1.5-.5 1.5-.5 1.5-.5v-.5-.5" style="fill:#554128;stroke:#554128"/><g style="fill:#202017;stroke:#202017"><path d="m511 432l-12-10-8 2-8 2-6 2.5-6 2.5-6 4-6 4 4 4 4 4 7 1 7 1 7-2 7-2 6 .5 6 .5 2-6 2-6v-1-1"/><path d="m511 325l-17-1 2.5 1.5 2.5 1.5 6-1 6-1"/></g><path d="m509 207l-15-3-7.5-.5-7.5-.5-2.5 5-2.5 5 4.5.5 4.5.5 8-2 8-2 5-1.5 5-1.5" style="fill:#99a29f;stroke:#99a29f"/><path d="m507 354l1-3h-2-2l-2-.5-2-.5-1.5-.5-1.5-.5-1.5 1-1.5 1 1 1 1 1 2 .5 2 .5 1.5-.5 1.5-.5h1 1l1 .5 1 .5" style="fill:#202017;stroke:#202017"/><path d="m501 528l-15-9-7 1-7 1-1 1.5-1 1.5 8.5 1.5 8.5 1.5 7 .5 7 .5" style="fill:#343d48;stroke:#343d48"/><path d="m497 463h1l-.5-1-.5-1-.5-.5-.5-.5h-1-1l-1.5-.5-1.5-.5.5 1.5.5 1.5-3.5 1.5-3.5 1.5 6-1 6-1" style="fill:#554128;stroke:#554128"/><path d="m497 91l-26-8-7 2-7 2-7.5-3.5-7.5-3.5-3.5-3.5-3.5-3.5 3.5-7 3.5-7-6.5-4.5-6.5-4.5 1-6 1-6 6-5 6-5 1-6 1-6v-8-8h-11.5-11.5-11-11-11-11-6.5-6.5l-.5.5-.5.5-5.5 4.5-5.5 4.5-3 1-3 1-6 3-6 3-7.5 3.5-7.5 3.5-.5 2-.5 2 7.5-.5 7.5-.5 6.5 1.5 6.5 1.5-6.5 2.5-6.5 2.5-2 6-2 6 7.5 3 7.5 3-5 5-5 5 2 2 2 2-3 4-3 4 3 7 3 7-6.5 5-6.5 5-8.5-2.5-8.5-2.5-6.5-4.5-6.5-4.5-7.5-3.5-7.5-3.5-5 1-5 1 1.5-4 1.5-4 .5-5.5.5-5.5-7-1-7-1-6.5-4.5-6.5-4.5-9.5.5-9.5.5-7.5-4-7.5-4 4-4 4-4 3.5-4.5 3.5-4.5-6.5-2.5-6.5-2.5-5.5-4-5.5-4-2-7-2-7h-2-2-2-2-1.5-1.5l-.5 1-.5 1-1 .5-1 .5-1 1.5-1 1.5-.5 1.5-.5 1.5-1.5.5-1.5.5-1.5-1-1.5-1-1-1-1-1-.5-2-.5-2-.5-1-.5-1h-11.5-11.5-11.5-11.5-11-11-11-11l8 4.5 8 4.5 5 6.5 5 6.5 5 3 5 3 7 1 7 1 5.5 3.5 5.5 3.5 7 4 7 4 3.5 3 3.5 3 13.5 3 13.5 3-8.5 3.5-8.5 3.5-6.5.5-6.5.5-7.5-4-7.5-4-7.5-1.5-7.5-1.5 2 6 2 6-.5 4.5-.5 4.5-6.5 4.5-6.5 4.5 2 5.5 2 5.5-10 1-10 1-8.5.5-8.5.5-8-2-8-2 5.5-2.5 5.5-2.5-7-2.5-7-2.5-4 3-4 3-8-1-8-1-9.5-1.5-9.5-1.5-6.5-1.5-6.5-1.5 1-2.5 1-2.5 8-2 8-2-2.5-4.5-2.5-4.5-14-2.5-14-2.5v1.5 1.5 2 2 2 2 2.5 2.5 2 2 2.5 2.5 2 2 2.5 2.5 2 2 1.5 1.5l10.5-.5 10.5-.5 7 4 7 4 9 1 9 1 9.5-1.5 9.5-1.5 7 .5 7 .5 9 1 9 1 8.5 2.5 8.5 2.5 8 1 8 1-2.5-4.5-2.5-4.5 5.5-1 5.5-1 7.5 2.5 7.5 2.5 8.5 2.5 8.5 2.5 4 5 4 5 10.5.5 10.5.5 8.5 3 8.5 3 7.5 3.5 7.5 3.5 8.5 2.5 8.5 2.5 7 4 7 4 13.5 7.5 13.5 7.5-1.5 1-1.5 1-1-.5-1-.5 1.5 8 1.5 8 6.5.5 6.5.5-6 3-6 3 9 1 9 1 9 1.5 9 1.5-4.5-6.5-4.5-6.5-7-11.5-7-11.5-2.5-5.5-2.5-5.5-1-6.5-1-6.5 4.5-3.5 4.5-3.5 7.5 3.5 7.5 3.5 8 3 8 3 8 3 8 3 8.5 1 8.5 1 7-3 7-3 9.5-1.5 9.5-1.5-1.5 7.5-1.5 7.5 5.5-.5 5.5-.5 9-.5 9-.5 7-3 7-3 8.5-2.5 8.5-2.5 6.5-4.5 6.5-4.5 5-6 5-6 3-7 3-7 3-8.5 3-8.5" style="fill:#b6b4a8;stroke:#b6b4a8"/><path d="m491 149v-2h-2-2l-2 .5-2 .5-1.5.5-1.5.5 1 1.5 1 1.5 1.5-.5 1.5-.5 2-.5 2-.5 1-.5 1-.5" style="fill:#79929d;stroke:#79929d"/><path d="m488 192l-1-1 1-.5 1-.5-2.5-.5-2.5-.5-2 .5-2 .5h-2-2l-2 .5-2 .5-1 1-1 1h-2.5-2.5l-1 .5-1 .5h3 3 2 2l1.5-1 1.5-1h2 2 1.5 1.5l1.5.5 1.5.5 1-.5 1-.5" style="fill:#d6ba84;stroke:#d6ba84"/><path d="m486 225l-16-8-5-1-5-1-1 4.5-1 4.5h7 7l7 .5 7 .5" style="fill:#decfad;stroke:#decfad"/><path d="m485 487l-16-8-8-2-8-2 .5 4 .5 4 10 1 10 1 5.5 1 5.5 1" style="fill:#202017;stroke:#202017"/><path d="m483 103l-12 6-5 5-5 5 6.5 1 6.5 1 3-7 3-7 1.5-2 1.5-2" style="fill:#decfad;stroke:#decfad"/><path d="m478 385l-13-9-6.5 1.5-6.5 1.5-5.5-4-5.5-4-2 6-2 6-2 6-2 6 2.5-1.5 2.5-1.5 7.5-2.5 7.5-2.5 9.5-2 9.5-2 3 1 3 1" style="fill:#554128;stroke:#554128"/><path d="m468 172l-13 3 5 1 5 1 1.5-2.5 1.5-2.5" style="fill:#a48e6b;stroke:#a48e6b"/><path d="m465 251v-2l-1.5-.5-1.5-.5-2-.5-2-.5h-2-2l-1.5 1-1.5 1v1 1h2.5 2.5l1.5-.5 1.5-.5h1 1l2 .5 2 .5" style="fill:#f6d88a;stroke:#f6d88a"/><path d="m465 188v-2l-.5-1-.5-1h-.5-.5l-4.5 1-4.5 1-7.5 2.5-7.5 2.5-9.5.5-9.5.5-9.5-4.5-9.5-4.5-.5.5-.5.5-1.5.5-1.5.5-.5.5-.5.5h-1-1l-1-.5-1-.5-.5.5-.5.5h-1-1-1-1l-1 .5-1 .5-.5-.5-.5-.5-.5.5-.5.5-.5.5-.5.5-1-.5-1-.5-.5-.5-.5-.5-1-1-1-1-1 1.5-1 1.5h-2-2l-.5.5-.5.5h-1-1-1-1l-.5-1-.5-1 .5-.5.5-.5v-1-1l-1-1-1-1-.5.5-.5.5v1.5 1.5h-1-1-1.5-1.5-1-1v-1-1l-.5.5-.5.5v1 1l-.5-2-.5-2-10.5-1-10.5-1-6-7-6-7-1 .5-1 .5-.5-.5-.5-.5-1-.5-1-.5-.5 1.5-.5 1.5 1.5 1 1.5 1 1.5.5 1.5.5 1.5.5 1.5.5.5 2 .5 2-1 1-1 1-.5 2-.5 2-1 .5-1 .5 4.5 6.5 4.5 6.5-9-1.5-9-1.5-6.5 6.5-6.5 6.5-8.5 1.5-8.5 1.5-9.5.5-9.5.5-10-.5-10-.5-9-1-9-1-9.5.5-9.5.5-9.5-1.5-9.5-1.5h-9-9l-6.5 1-6.5 1-10.5.5-10.5.5.5 1.5.5 1.5 6.5.5 6.5.5 3 3 3 3-10-1.5-10-1.5-8 2-8 2-8.5 2.5-8.5 2.5 9.5 1.5 9.5 1.5v3 3l-10.5-1-10.5-1h-9-9l6.5 3.5 6.5 3.5 2.5 1.5 2.5 1.5 11 .5 11 .5 3.5-3.5 3.5-3.5 7.5-.5 7.5-.5 9.5 1.5 9.5 1.5 10 1 10 1 7 4.5 7 4.5 9.5 1.5 9.5 1.5 9 2 9 2h9 9l5.5 2.5 5.5 2.5 2.5 2 2.5 2 1.5 1.5 1.5 1.5h7 7l6.5-.5 6.5-.5 9.5-.5 9.5-.5 10-.5 10-.5 10.5-.5 10.5-.5-6-2-6-2-8-2-8-2-.5-4.5-.5-4.5 9 1.5 9 1.5 6.5-.5 6.5-.5-10-1-10-1-8-1-8-1-5 2-5 2h-10.5-10.5l4-3 4-3 8-3 8-3h8 8l2-2.5 2-2.5 2.5-2.5 2.5-2.5 9-2 9-2 9-2 9-2 9-2 9-2 9-1.5 9-1.5 6-2.5 6-2.5 1-.5 1-.5 1.5-.5 1.5-.5 1.5-.5 1.5-.5 1.5-1 1.5-1 1-1 1-1h2.5 2.5l1.5-.5 1.5-.5 2-.5 2-.5 2-.5 2-.5 1-1 1-1 2-.5 2-.5 1.5-.5 1.5-.5 1-.5 1-.5-1.5-1-1.5-1 1.5-.5 1.5-.5" style="fill:#a48e6b;stroke:#a48e6b"/><path d="m463 452l1-2-11-1.5-11-1.5-10-1-10-1-9.5-1.5-9.5-1.5-8-2-8-2-8.5-1.5-8.5-1.5-8-1.5-8-1.5 1-8 1-8 7-3 7-3 4.5-4.5 4.5-4.5 8.5.5 8.5.5 7.5-1 7.5-1-6.5-4.5-6.5-4.5-7-4-7-4-7.5 3.5-7.5 3.5-5.5 5.5-5.5 5.5-5 6.5-5 6.5-6.5 2.5-6.5 2.5-6.5-2.5-6.5-2.5-7-4-7-4-1.5-6.5-1.5-6.5h4.5 4.5l1.5-5.5 1.5-5.5 7.5-1.5 7.5-1.5 8-3 8-3 9.5-1.5 9.5-1.5 7 3.5 7 3.5h4 4v-3-3l-7-4-7-4-6-1-6-1-5-2.5-5-2.5-5.5-1.5-5.5-1.5-4.5.5-4.5.5 3.5 2.5 3.5 2.5-3 3-3 3-8.5 1-8.5 1-6-5-6-5-1.5-.5-1.5-.5-5-4-5-4-5.5-4.5-5.5-4.5-4.5-3-4.5-3 1-2 1-2-1-5-1-5-1.5-4.5-1.5-4.5 7-4 7-4 5-5 5-5 .5-5.5.5-5.5 6.5-2 6.5-2-18.5.5-18.5.5-10 2-10 2-.5.5-.5.5-1-.5-1-.5h-1-1l-1 .5-1 .5h-1-1-1-1l-.5-.5-.5-.5h-2-2l-.5.5-.5.5-9.5 2-9.5 2-1.5 7.5-1.5 7.5-8.5 2.5-8.5 2.5-3.5 4.5-3.5 4.5-6 5-6 5h-7-7l-6 3.5-6 3.5 6.5 1.5 6.5 1.5 3.5 6.5 3.5 6.5-3 7-3 7v6 6l2 6.5 2 6.5h8 8l-1 2-1 2-8-1-8-1-6-4-6-4 2.5-6 2.5-6-2-4-2-4-1-4-1-4 2-4 2-4-6 1-6 1-2.5-4.5-2.5-4.5 2.5-5 2.5-5-3.5-3.5-3.5-3.5-5-3-5-3-7-1-7-1-5.5-1.5-5.5-1.5-1-3.5-1-3.5-5.5-2.5-5.5-2.5-7-3-7-3-7.5-3.5-7.5-3.5-2.5-2.5-2.5-2.5 1-1.5 1-1.5-17.5 1-17.5 1-.5.5-.5.5-1 .5-1 .5-1.5.5-1.5.5-.5.5-.5.5h-1.5-1.5l-1.5-.5-1.5-.5h-1-1-1.5-1.5l-1.5-1-1.5-1h-.5-.5v2 2 2 2 2.5 2.5 2 2 2.5 2.5 2 2 .5.5l8 2.5 8 2.5 6 2 6 2 3 5.5 3 5.5h-8.5-8.5l-8.5-.5-8.5-.5v2.5 2.5 2.5 2.5 2 2 1.5 1.5l3.5-1.5 3.5-1.5 6 5 6 5 10 3 10 3-6.5 4-6.5 4-.5 3.5-.5 3.5v5 5l-12.5 1.5-12.5 1.5v13 13 11 11 11.5 11.5 11 11 .5.5l1 .5 1 .5 1 1.5 1 1.5 1.5.5 1.5.5 1.5 1 1.5 1v1 1h-.5-.5-2-2l-.5-.5-.5-.5-.5-.5-.5-.5-1.5-.5-1.5-.5v1.5 1.5 2 2 2.5 2.5 2 2 1 1l7 2.5 7 2.5 1-4 1-4 4.5 4.5 4.5 4.5h4 4l-8 2.5-8 2.5-8.5-4.5-8.5-4.5v1 1l1 .5 1 .5 1.5.5 1.5.5.5.5.5.5 1 .5 1 .5v1.5 1.5h-1-1-2-2l-1 .5-1 .5v1.5 1.5l1-.5 1-.5 1.5.5 1.5.5h1.5 1.5l2 4 2 4 3.5-4.5 3.5-4.5 2-1 2-1 4 4.5 4 4.5-5.5 1.5-5.5 1.5 10 4.5 10 4.5h1 1l-.5-1-.5-1v-1-1l.5-.5.5-.5.5-.5.5-.5-.5-1-.5-1-.5-.5-.5-.5-.5-.5-.5-.5v-1-1l1.5-.5 1.5-.5-.5-2-.5-2-2-.5-2-.5v-1-1l-.5-.5-.5-.5-.5.5-.5.5-.5-1-.5-1h-1-1v-1-1l.5.5.5.5 1-.5 1-.5v-1-1h1 1l.5.5.5.5 1 .5 1 .5.5.5.5.5.5.5.5.5v1 1l-.5 1.5-.5 1.5 9 5 9 5 .5-5.5.5-5.5 2-8 2-8 1.5-7 1.5-7 2.5-8.5 2.5-8.5v-8-8l-6-2-6-2 2-5 2-5 7.5-3 7.5-3 7-4 7-4 10-1 10-1 10 1 10 1h11 11l11 .5 11 .5 9 1 9 1 10.5.5 10.5.5 10 1 10 1 10.5 1.5 10.5 1.5-9.5-2-9.5-2-10-1-10-1-10-1-10-1-10.5-.5-10.5-.5-18-1-18-1-1 .5-1 .5h-1-1-1.5-1.5l-1.5-.5-1.5-.5h-1-1-1-1-1-1-1.5-1.5-1-1l-.5-.5-.5-.5h-1-1-1.5-1.5-2-2l-.5.5-.5.5-1-.5-1-.5h-2-2-2-2-2-2l-8 3.5-8 3.5-8.5.5-8.5.5 2-6 2-6h-.5-.5-2-2-1.5-1.5l-1-1-1-1 .5-.5.5-.5v-1-1h1 1 1.5 1.5l.5.5.5.5.5.5.5.5.5.5.5.5.5 1 .5 1 10.5-2 10.5-2 1-2 1-2 8.5 2 8.5 2 17 2 17 2h1.5 1.5l1 .5 1 .5 10 .5 10 .5 11 .5 11 .5 10 1 10 1 9.5 1.5 9.5 1.5 10 1 10 1 9.5 1.5 9.5 1.5 9 2.5 9 2.5 13.5 4 13.5 4h-1.5-1.5l-1-.5-1-.5-1.5-.5-1.5-.5h-2.5-2.5l-2.5-.5-2.5-.5 12.5 3.5 12.5 3.5 6.5 2.5 6.5 2.5 7 4 7 4 6 .5 6 .5-6-4-6-4-7.5-2.5-7.5-2.5-7.5-3.5-7.5-3.5-8.5-2.5-8.5-2.5-2.5-5-2.5-5 6 1 6 1h5 5l9 2 9 2 9.5 1.5 9.5 1.5 9 1.5 9 1.5 8.5.5 8.5.5 8 2 8 2 9 2 9 2 8.5 2.5 8.5 2.5 7.5 2 7.5 2-.5-1-.5-1 1-1 1-1 2-.5 2-.5-1.5-.5-1.5-.5 1-1.5 1-1.5h2 2l.5 2 .5 2 .5-1 .5-1" style="fill:#554128;stroke:#554128"/><path d="m463 184h1l-8-4-8-4-2-4-2-4h-8-8l-1.5 5-1.5 5-9.5-.5-9.5-.5h-9-9l-.5-5.5-.5-5.5-7.5-3.5-7.5-3.5h-8.5-8.5l-6.5-3.5-6.5-3.5-8 1-8 1-2.5 6-2.5 6 6 7 6 7 10.5 1 10.5 1 2.5-.5 2.5-.5 1.5-.5 1.5-.5 1 .5 1 .5 1 1 1 1v1 1l-.5.5-.5.5.5 1 .5 1h1 1 1 1l.5-.5.5-.5h2 2l1-1.5 1-1.5 1-.5 1-.5 1.5-.5 1.5-.5h2 2 1.5 1.5l1.5.5 1.5.5 2-.5 2-.5 2.5.5 2.5.5 9.5 4.5 9.5 4.5 9.5-.5 9.5-.5 7.5-2.5 7.5-2.5 4.5-1 4.5-1" style="fill:#7d786d;stroke:#7d786d"/><path d="m462 162l-12-4h-1-1l4 3.5 4 3.5 3-1.5 3-1.5" style="fill:#a48e6b;stroke:#a48e6b"/><g style="fill:#343d48;stroke:#343d48"><path d="m461 522l-18-6-4 1-4 1 8.5 2 8.5 2h4.5 4.5"/><path d="m460 361l1-3-1.5-.5-1.5-.5-2-.5-2-.5-1.5-.5-1.5-.5-.5 2-.5 2h1 1l2 .5 2 .5 1.5.5 1.5.5h.5.5"/><path d="m457 513l-14-8 5.5 4.5 5.5 4.5 1.5-.5 1.5-.5"/></g><path d="m457 350v-2l-1.5-.5-1.5-.5-1.5-1-1.5-1-1-1-1-1-1.5 1-1.5 1v1 1l1.5 1 1.5 1 1.5.5 1.5.5 1.5-.5 1.5-.5 1 .5 1 .5" style="fill:#202017;stroke:#202017"/><path d="m457 245l-1-1-1-1-1-1-2.5-1-2.5-1-1.5 1-1.5 1 .5-.5.5-.5-.5-1-.5-1-.5.5-.5.5v1 1l-.5.5-.5.5h-1-1l-.5-1-.5-1-1.5.5-1.5.5-.5-.5-.5-.5h-1.5-1.5l-1 1-1 1-.5.5-.5.5.5 1 .5 1 1 .5 1 .5 1.5-.5 1.5-.5 1-.5 1-.5h1 1 2 2 1.5 1.5 1 1l.5.5.5.5h1 1l2-.5 2-.5" style="fill:#f6d88a;stroke:#f6d88a"/><path d="m455 206h1l-1-.5-1-.5h-2-2l-2-.5-2-.5v-1-1l2-.5 2-.5 1.5-.5 1.5-.5 1.5-1 1.5-1-1.5-.5-1.5-.5-1 1-1 1h-1.5-1.5l-1-.5-1-.5-1.5.5-1.5.5-1.5.5-1.5.5.5.5.5.5-.5.5-.5.5-.5 1-.5 1 .5.5.5.5.5.5.5.5.5-.5.5-.5 1 .5 1 .5h1 1l.5.5.5.5h1 1l1 .5 1 .5h.5.5l1.5-1 1.5-1" style="fill:#d6ba84;stroke:#d6ba84"/><g style="fill:#decfad;stroke:#decfad"><path d="m452 240l1-2h-14.5-14.5l-8.5-2-8.5-2-8 .5-8 .5-1 .5-1 .5h-1-1l-.5-.5-.5-.5h-1-1l-.5-.5-.5-.5h-1.5-1.5-1-1l-.5-.5-.5-.5.5-.5.5-.5h1.5 1.5 1 1 1 1l.5-.5.5-.5.5-.5.5-.5 1-.5 1-.5.5-.5.5-.5h2 2l10.5-3 10.5-3 1.5-2 1.5-2-15 .5-15 .5-9 2.5-9 2.5-.5 1-.5 1 1.5-.5 1.5-.5 2 .5 2 .5 1.5-.5 1.5-.5.5.5.5.5v1 1l1.5.5 1.5.5-2.5.5-2.5.5h-2-2-2.5-2.5l-1.5-.5-1.5-.5-1.5-.5-1.5-.5-1-.5-1-.5-.5-1-.5-1-1 .5-1 .5h-2-2l-.5 1.5-.5 1.5 2 .5 2 .5h2 2l2 1 2 1 11.5 5 11.5 5 8.5 1.5 8.5 1.5 5.5-1.5 5.5-1.5 8 2 8 2-.5-1-.5-1 .5-.5.5-.5 1-1 1-1h1.5 1.5l.5.5.5.5 1.5-.5 1.5-.5.5 1 .5 1h1 1l.5-.5.5-.5v-1-1l.5-.5.5-.5.5 1 .5 1-.5.5-.5.5 1.5-1 1.5-1h1.5 1.5"/><path d="m452 209v-1h-.5-.5-.5-.5-1.5-1.5l-1.5-.5-1.5-.5-1.5.5-1.5.5-2.5.5-2.5.5h-2-2-2.5-2.5l-1.5.5-1.5.5-1.5.5-1.5.5-2 .5-2 .5 1 1 1 1 2.5-.5 2.5-.5h1.5 1.5 1 1 2 2 1.5 1.5 1 1 2 2l1.5-.5 1.5-.5 1-.5 1-.5h1 1l1.5-1 1.5-1"/></g><path d="m450 208h1l-1-.5-1-.5h-1-1l-.5-.5-.5-.5h-1-1l-1-.5-1-.5-.5.5-.5.5-.5-.5-.5-.5-.5-.5-.5-.5.5-1 .5-1 .5-.5.5-.5-.5-.5-.5-.5 1.5-.5 1.5-.5h-2.5-2.5l-1 1-1 1-1.5 1-1.5 1-1.5.5-1.5.5-1.5.5-1.5.5-1 .5-1 .5 1 .5 1 .5 2 .5 2 .5 1.5-.5 1.5-.5h2.5 2.5l1 .5 1 .5 1.5-.5 1.5-.5 1.5.5 1.5.5h1.5 1.5" style="fill:#b6b4a8;stroke:#b6b4a8"/><path d="m449 229l-1-1h-2-2l-2-.5-2-.5h-2-2l-2 .5-2 .5-.5.5-.5.5 2 .5 2 .5h2 2l1.5.5 1.5.5h2.5 2.5l1-1 1-1" style="fill:#decfad;stroke:#decfad"/><path d="m444 536h1l-15-3.5-15-3.5 8 3.5 8 3.5h2 2 2 2 2 2 .5.5" style="fill:#202017;stroke:#202017"/><path d="m443 157l1-3-1-1-1-1v1.5 1.5l-.5 1.5-.5 1.5h-1.5-1.5l-1 1-1 1v1.5 1.5h1 1 2 2l.5-1 .5-1v-2-2" style="fill:#a48e6b;stroke:#a48e6b"/><path d="m441 111l-13-9-5.5 3.5-5.5 3.5 1 6.5 1 6.5 9-1 9-1 2-4.5 2-4.5" style="fill:#decfad;stroke:#decfad"/><path d="m434 249l-1-1h-2-2l-2-.5-2-.5h-2-2l-2 .5-2 .5 1.5.5 1.5.5 1.5 1 1.5 1h2 2 2 2l1.5-1 1.5-1" style="fill:#b6b4a8;stroke:#b6b4a8"/><path d="m431 383l-8-12-6-4-6-4-2 4.5-2 4.5 5.5 5.5 5.5 5.5 5 2 5 2 1.5-2 1.5-2" style="fill:#554128;stroke:#554128"/><path d="m427 519l-8-8-2.5-3.5-2.5-3.5 4.5-.5 4.5-.5-8.5-3-8.5-3-4.5-4.5-4.5-4.5-7-4-7-4-9-1-9-1-3-.5-3-.5 1 1 1 1 .5.5.5.5.5.5.5.5.5.5.5.5.5 1 .5 1 .5 1.5.5 1.5.5.5.5.5 1 .5 1 .5 7.5 12.5 7.5 12.5 8.5 2.5 8.5 2.5-4-4-4-4 8 2 8 2 9 2 9 2" style="fill:#343d48;stroke:#343d48"/><path d="m420 255l-18-6-8 1-8 1-9.5 1-9.5 1-8.5-.5-8.5-.5v3 3l9-1 9-1 9.5-.5 9.5-.5 7.5 1 7.5 1 7-2 7-2 2 1 2 1" style="fill:#f6d88a;stroke:#f6d88a"/><path d="m413 454l-12-2 4.5 2.5 4.5 2.5 1.5-1.5 1.5-1.5" style="fill:#202017;stroke:#202017"/><path d="m411 200l-19-1-10.5-.5-10.5-.5-9.5-1-9.5-1 1 3 1 3 8.5 2.5 8.5 2.5 9-1 9-1 9-2 9-2 2-.5 2-.5" style="fill:#7d786d;stroke:#7d786d"/><path d="m407 239l-17-1 6 2 6 2 2.5-1.5 2.5-1.5" style="fill:#f6d88a;stroke:#f6d88a"/><path d="m403 348l-1-1h-2-2-1.5-1.5v2 2h1.5 1.5l1.5-.5 1.5-.5 1-1 1-1" style="fill:#202017;stroke:#202017"/><path d="m403 219l-1-1h-1-1-2.5-2.5l-.5 1.5-.5 1.5-2 .5-2 .5 1 1 1 1 2-.5 2-.5.5-1.5.5-1.5h1 1l2-.5 2-.5" style="fill:#fff2c1;stroke:#fff2c1"/><path d="m400 184l1-1-2.5-.5-2.5-.5-2 .5-2 .5-1.5-.5-1.5-.5h-1.5-1.5-2-2l-1.5.5-1.5.5-1 .5-1 .5 1 1 1 1 .5.5.5.5 1 .5 1 .5.5-.5.5-.5.5-.5.5-.5.5.5.5.5 1-.5 1-.5h1 1 1 1l.5-.5.5-.5 1 .5 1 .5h1 1l.5-.5.5-.5 1.5-.5 1.5-.5" style="fill:#99a29f;stroke:#99a29f"/><path d="m393 229l1-1h-2-2l-.5.5-.5.5-1 .5-1 .5-.5.5-.5.5-.5.5-.5.5h-1-1-1-1-1.5-1.5l-.5.5-.5.5.5.5.5.5h1 1 1.5 1.5l.5.5.5.5h1 1l.5.5.5.5h1 1l1-.5 1-.5-1.5-1.5-1.5-1.5 1.5-1 1.5-1 1-.5 1-.5" style="fill:#d6ba84;stroke:#d6ba84"/><g style="fill:#202017;stroke:#202017"><path d="m392 479v-2l-1-1-1-1-1.5-1-1.5-1h-2-2l-1 .5-1 .5 1 1 1 1 2 .5 2 .5 1.5.5 1.5.5 1 .5 1 .5"/><path d="m391 446l-1-1-1.5-.5-1.5-.5-2-.5-2-.5-1.5-.5-1.5-.5-1.5 1-1.5 1-1 1-1 1 1.5 1 1.5 1h2 2 2 2l2-.5 2-.5.5-.5.5-.5"/><path d="m391 434l-13-9-4.5 2.5-4.5 2.5 7 .5 7 .5 4 1.5 4 1.5"/></g><path d="m389 96l-17-5-3.5 5.5-3.5 5.5h7.5 7.5l4.5-3 4.5-3" style="fill:#99a29f;stroke:#99a29f"/><path d="m384 250v-2h-2-2-2.5-2.5l-1.5-.5-1.5-.5-1.5 1-1.5 1-.5.5-.5.5 1.5 1 1.5 1h2 2l1.5-.5 1.5-.5h2.5 2.5l.5-.5.5-.5" style="fill:#a48e6b;stroke:#a48e6b"/><path d="m383 229l-3-1-2-.5-2-.5h-1-1-1.5-1.5-2-2l-.5-.5-.5-.5h-1.5-1.5l-1 .5-1 .5 1 .5 1 .5 1.5.5 1.5.5 1.5.5 1.5.5h2.5 2.5 2 2l2.5-.5 2.5-.5" style="fill:#fff2c1;stroke:#fff2c1"/><path d="m383 178v-2l.5-1.5.5-1.5-1-1.5-1-1.5h-.5-.5l-.5.5-.5.5-2.5.5-2.5.5-1 1-1 1v1.5 1.5l1.5.5 1.5.5h2 2 1.5 1.5" style="fill:#79929d;stroke:#79929d"/><path d="m381 536h1l-2.5-15.5-2.5-15.5-4-8-4-8-1-.5-1-.5-.5-.5-.5-.5-.5-1.5-.5-1.5-.5-1-.5-1-.5-.5-.5-.5-.5-.5-.5-.5-.5-.5-.5-.5-1-1-1-1-6.5-5-6.5-5-6.5-4.5-6.5-4.5-8-3-8-3-8.5-2.5-8.5-2.5-9.5-2-9.5-2-9-2-9-2-10-1-10-1-9.5-1.5-9.5-1.5-10-1-10-1-10-.5-10-.5h-10-10l-9.5-.5-9.5-.5h-9-9l-8-.5-8-.5-8.5 1.5-8.5 1.5-6.5 4.5-6.5 4.5-1 9-1 9 1 9 1 9-2.5 8-2.5 8 3 7 3 7v8 8l-5.5 6.5-5.5 6.5h11.5 11.5 11 11 11.5 11.5 11 11 11 11 1.5 1.5l-1-5-1-5-4-3-4-3-2-9-2-9-.5-9.5-.5-9.5 6-4 6-4 6.5 4 6.5 4 2.5 7.5 2.5 7.5 7 1 7 1 2-9 2-9-3-5-3-5v-4.5-4.5l3 1 3 1-2.5-6.5-2.5-6.5-1-4-1-4 8.5.5 8.5.5 17.5 2.5 17.5 2.5 2 .5 2 .5h2 2l1.5.5 1.5.5 1 .5 1 .5h1 1l.5.5.5.5h1.5 1.5l.5.5.5.5h1 1 1 1l1 .5 1 .5h1 1l.5.5.5.5.5.5.5.5v1 1l-8.5 3-8.5 3-5 6-5 6-5 6-5 6-3 5.5-3 5.5-5.5 5.5-5.5 5.5-6 3-6 3-11 9-11 9h13.5 13.5 11 11 11 11 3 3l7.5-5 7.5-5 13-8 13-8 1-.5 1-.5.5-1 .5-1 1.5-.5 1.5-.5 1-.5 1-.5-1-2-1-2-7 4-7 4-7.5 3.5-7.5 3.5-8 3.5-8 3.5-7.5 3.5-7.5 3.5 4.5-3.5 4.5-3.5 7-4 7-4 7.5-3.5 7.5-3.5 7-4.5 7-4.5 7-4 7-4 5 1 5 1-1.5 1-1.5 1-1.5.5-1.5.5v1 1h2 2l1-1 1-1 2-.5 2-.5.5 1 .5 1 1 1 1 1 .5.5.5.5.5 1 .5 1 .5 1.5.5 1.5v1 1l.5.5.5.5v1 1l.5 1 .5 1v1 1 1 1 1 1l.5 1 .5 1v2 2 1 1 1.5 1.5 2 2 1.5 1.5h1.5 1.5 2.5 2.5 2 2 2.5 2.5 2 2 .5.5" style="fill:#202017;stroke:#202017"/><path d="m380 226l-1-1-1.5.5-1.5.5-2-.5-2-.5-1.5.5-1.5.5.5-1 .5-1h-2-2-1-1l-2 .5-2 .5.5 1 .5 1 1-.5 1-.5h1.5 1.5l.5.5.5.5h2 2 1.5 1.5 1 1l2 .5 2 .5v-1-1" style="fill:#f6d88a;stroke:#f6d88a"/><path d="m380 171l1-1-1.5-1.5-1.5-1.5-1-1.5-1-1.5-1.5.5-1.5.5-2 .5-2 .5-1.5.5-1.5.5-.5 2-.5 2h2 2 2 2 2.5 2.5 1 1" style="fill:#99a29f;stroke:#99a29f"/><path d="m374 128l-13-7-5.5.5-5.5.5-2 4.5-2 4.5 6.5 4.5 6.5 4.5 7.5-3.5 7.5-3.5v-2.5-2.5" style="fill:#decfad;stroke:#decfad"/><path d="m373 239l-1-2-1.5-.5-1.5-.5-1-1.5-1-1.5-1-.5-1-.5-6 2.5-6 2.5 10 1 10 1" style="fill:#b6b4a8;stroke:#b6b4a8"/><path d="m367 452v-2l-1-1-1-1-1-.5-1-.5-1.5.5-1.5.5-1 1.5-1 1.5 1.5.5 1.5.5h2.5 2.5.5.5" style="fill:#554128;stroke:#554128"/><path d="m364 1l1-1h-12-12-11-11-11.5-11.5-11-11-11-11-11-11-11-11-3.5-3.5l2 7 2 7 5.5 4 5.5 4 6.5 2.5 6.5 2.5-3.5 4.5-3.5 4.5-4 4-4 4 7.5 4 7.5 4 9.5-.5 9.5-.5 6.5 4.5 6.5 4.5 7 1 7 1-.5 5.5-.5 5.5-1.5 4-1.5 4 5-1 5-1 7.5 3.5 7.5 3.5 6.5 4.5 6.5 4.5 8.5 2.5 8.5 2.5 6.5-5 6.5-5-3-7-3-7 3-4 3-4-2-2-2-2 5-5 5-5-7.5-3-7.5-3 2-6 2-6 6.5-2.5 6.5-2.5-6.5-1.5-6.5-1.5-7.5.5-7.5.5.5-2 .5-2 7.5-3.5 7.5-3.5 6-3 6-3 3-1 3-1 5.5-4.5 5.5-4.5" style="fill:#99a29f;stroke:#99a29f"/><path d="m363 246v-2l-1-1-1-1-1-.5-1-.5h-.5-.5l-2 .5-2 .5v1.5 1.5h-1.5-1.5l2.5.5 2.5.5h2 2 1.5 1.5" style="fill:#f6d88a;stroke:#f6d88a"/><path d="m363 182l1-1-1-.5-1-.5-1.5.5-1.5.5-2.5.5-2.5.5.5 2 .5 2v-1-1l.5-.5.5-.5v1 1h1 1 1.5 1.5 1 1v-1.5-1.5" style="fill:#99a29f;stroke:#99a29f"/><path d="m358 536h1v-1.5-1.5-2-2-1.5-1.5-1-1-2-2l-.5-1-.5-1v-1-1-1-1-1-1l-.5-1-.5-1v-1-1l-.5-.5-.5-.5v-1-1l-.5-1.5-.5-1.5-.5-1-.5-1-.5-.5-.5-.5-1-1-1-1 2.5 8 2.5 8 1 11.5 1 11.5" style="fill:#363226;stroke:#363226"/><path d="m358 241h1l-.5-1-.5-1h-2-2l-2 .5-2 .5h-1-1l-1.5 1-1.5 1h-2-2l-1.5-1-1.5-1v-1-1l-1.5-.5-1.5-.5-1 .5-1 .5h-.5-.5l-1 2-1 2 1.5.5 1.5.5 1.5.5 1.5.5 2 .5 2 .5 1.5-.5 1.5-.5 2-.5 2-.5 1.5.5 1.5.5.5.5.5.5h1.5 1.5v-1.5-1.5l2-.5 2-.5" style="fill:#decfad;stroke:#decfad"/><path d="m357 536h1l-1-11.5-1-11.5-2.5-8-2.5-8-.5-1-.5-1-2 .5-2 .5-1 1-1 1-1 .5-1 .5-1 1-1 1-1.5 1-1.5 1-1.5.5-1.5.5-1 .5-1 .5-1 .5-1 .5-1.5.5-1.5.5-.5 1-.5 1-1 .5-1 .5-.5.5-.5.5-6.5 5-6.5 5-8 7.5-8 7.5h11.5 11.5 11 11 9 9" style="fill:#343d48;stroke:#343d48"/><path d="m350 269l-27-2-10 1-10 1 8.5 2.5 8.5 2.5h1 1l4.5-2.5 4.5-2.5h9.5 9.5" style="fill:#f6d88a;stroke:#f6d88a"/><path d="m346 493l-10-2-7 4-7 4-7 4.5-7 4.5-7.5 3.5-7.5 3.5-7 4-7 4-4.5 3.5-4.5 3.5 7.5-3.5 7.5-3.5 8-3.5 8-3.5 7.5-3.5 7.5-3.5 7-4 7-4 1 2 1 2 1-.5 1-.5 1.5-.5 1.5-.5 1.5-1 1.5-1 1-1 1-1 1-.5 1-.5h-2-2v-1-1l1.5-.5 1.5-.5 1.5-1 1.5-1" style="fill:#363226;stroke:#363226"/><path d="m345 446l-17-5 6.5 2.5 6.5 2.5h2 2" style="fill:#554128;stroke:#554128"/><path d="m341 252v-2l-1.5-.5-1.5-.5h-2.5-2.5l-1.5-.5-1.5-.5h-2.5-2.5l.5 1.5.5 1.5 2-.5 2-.5 1.5.5 1.5.5 1.5.5 1.5.5h2.5 2.5" style="fill:#f6d88a;stroke:#f6d88a"/><path d="m333 480l1-3-1-1-1-1-1-.5-1-.5 1 1.5 1 1.5v1 1l-5 6.5-5 6.5-7 4.5-7 4.5-3-3-3-3 5-6 5-6 6-6.5 6-6.5-6 3-6 3-4.5 7-4.5 7-4 7-4 7 5.5-.5 5.5-.5 7.5-3.5 7.5-3.5 5-4 5-4 1-4 1-4" style="fill:#363226;stroke:#363226"/><path d="m332 479v-2l-1-1.5-1-1.5-1.5-.5-1.5-.5-1-1-1-1-.5-.5-.5-.5-6 6.5-6 6.5-5 6-5 6 3 3 3 3 7-4.5 7-4.5 5-6.5 5-6.5" style="fill:#554128;stroke:#554128"/><path d="m332 238h1l-1-.5-1-.5h-1-1l-2 .5-2 .5-1.5.5-1.5.5-2 .5-2 .5v1 1h2.5 2.5 2 2 1.5 1.5l1-2 1-2" style="fill:#f6d88a;stroke:#f6d88a"/><path d="m323 511l1-1-13 8-13 8-7.5 5-7.5 5h3 3 2 2 .5.5l8-7.5 8-7.5 6.5-5 6.5-5" style="fill:#363226;stroke:#363226"/><g style="fill:#72512e;stroke:#72512e"><path d="m323 485h-8l-1 5-1 5 5-5 5-5"/><path d="m316 422l1-3-1-1-1-1-1.5 1-1.5 1-1 1-1 1 1 1.5 1 1.5 1.5-.5 1.5-.5.5-.5.5-.5"/></g><path d="m316 52l-14-10-9 1-9 1 5 4.5 5 4.5 6 2 6 2 5-2.5 5-2.5" style="fill:#b6b4a8;stroke:#b6b4a8"/><path d="m311 446l-27-8-9-2.5-9-2.5-9.5-1.5-9.5-1.5-10-1-10-1-9.5-1.5-9.5-1.5-10-1-10-1-11-.5-11-.5-10-.5-10-.5 10.5 1 10.5 1 18.5 2 18.5 2-11.5-.5-11.5-.5-19.5-.5-19.5-.5 18 1 18 1 10.5.5 10.5.5 10 1 10 1 10 1 10 1 9.5 2 9.5 2h2 2l1.5.5 1.5.5h2.5 2.5l1.5.5 1.5.5 2 .5 2 .5h2 2l1 .5 1 .5h1 1l1.5.5 1.5.5 1.5.5 1.5.5 1 .5 1 .5 2.5.5 2.5.5h2.5 2.5l1.5.5 1.5.5 1 .5 1 .5h1.5 1.5" style="fill:#72512e;stroke:#72512e"/><path d="m294 460v-2l-.5-.5-.5-.5-.5-.5-.5-.5h-1-1l-1-.5-1-.5h-1-1-1-1l-.5-.5-.5-.5h-1.5-1.5l-.5-.5-.5-.5h-1-1l-1-.5-1-.5.5 1.5.5 1.5-3.5 8.5-3.5 8.5-4.5 6.5-4.5 6.5-4.5 6.5-4.5 6.5-6.5 4.5-6.5 4.5-7 3-7 3-4.5-3-4.5-3 5.5-5.5 5.5-5.5.5-3.5.5-3.5-2.5-3.5-2.5-3.5 2-7 2-7 7.5 3 7.5 3 4.5-4.5 4.5-4.5-6-4-6-4-5.5-.5-5.5-.5 4.5-3.5 4.5-3.5 14 .5 14 .5-17.5-2.5-17.5-2.5-8.5-.5-8.5-.5 1 4 1 4 2.5 6.5 2.5 6.5-3-1-3-1v4.5 4.5l3 5 3 5-2 9-2 9-7-1-7-1-2.5-7.5-2.5-7.5-6.5-4-6.5-4-6 4-6 4 .5 9.5.5 9.5 2 9 2 9 4 3 4 3 1 5 1 5h3 3 2 2 2.5 2.5 2 2 .5.5l11-9 11-9 6-3 6-3 5.5-5.5 5.5-5.5 3-5.5 3-5.5 5-6 5-6 5-6 5-6 8.5-3 8.5-3" style="fill:#363226;stroke:#363226"/><path d="m294 167l-27-15-7-4-7-4-8.5-2.5-8.5-2.5-7.5-3.5-7.5-3.5-8.5-3-8.5-3-10.5-.5-10.5-.5-4-5-4-5-8.5-2.5-8.5-2.5-7.5-2.5-7.5-2.5-5.5 1-5.5 1 2.5 4.5 2.5 4.5-8-1-8-1-8.5-2.5-8.5-2.5-9-1-9-1-7-.5-7-.5-9.5 1.5-9.5 1.5-9-1-9-1-7-4-7-4-10.5.5-10.5.5v1.5 1.5 2 2 2.5 2.5l8.5 3.5 8.5 3.5 8.5 2.5 8.5 2.5 8 3 8 3 8.5 3 8.5 3 8 3 8 3 8.5 2.5 8.5 2.5 11 5.5 11 5.5 1 .5 1 .5h1 1l.5.5.5.5.5.5.5.5 1 .5 1 .5h1 1l.5.5.5.5.5.5.5.5-11-1.5-11-1.5-12-3-12-3-2-.5-2-.5-1.5-.5-1.5-.5-2-.5-2-.5-1.5.5-1.5.5h-.5-.5-2-2l-1-.5-1-.5-1.5-.5-1.5-.5h-1-1-1-1l-.5 1.5-.5 1.5 1 .5 1 .5 2.5.5 2.5.5h2.5 2.5 2 2l1.5 1 1.5 1 1 1 1 1 2 .5 2 .5v1 1h-9.5-9.5l-17-4-17-4-1.5-.5-1.5-.5h-1-1l-1-.5-1-.5h-1-1-1-1l-.5-.5-.5-.5h-1-1l-1-.5-1-.5h-1-1l-.5-.5-.5-.5h-1-1l-1-.5-1-.5h-1-1-1-1-2-2v1.5 1.5 2 2 2 2 2.5 2.5 1 1h3.5 3.5 2 2l1 .5 1 .5.5.5.5.5.5-.5.5-.5h1 1l1 .5 1 .5.5.5.5.5.5.5.5.5.5.5.5.5h1.5 1.5l1.5.5 1.5.5v1 1h-3-3l-1.5-1-1.5-1-1.5-.5-1.5-.5-2-.5-2-.5-2.5-.5-2.5-.5-1 .5-1 .5-1 1-1 1 1.5.5 1.5.5 1.5.5 1.5.5 2 .5 2 .5h2 2l2 .5 2 .5h2 2l2 .5 2 .5h2.5 2.5l.5.5.5.5h1 1 1 1l1.5.5 1.5.5h1.5 1.5l1.5.5 1.5.5 2.5.5 2.5.5 1 .5 1 .5h1.5 1.5l.5.5.5.5h1 1l.5.5.5.5 1 .5 1 .5.5.5.5.5h1 1v1 1h-1.5-1.5l-1.5-.5-1.5-.5-2-.5-2-.5h-2-2l-1.5-.5-1.5-.5-1.5-.5-1.5-.5-2.5-.5-2.5-.5h-2-2-1-1-1-1l-1-.5-1-.5h-1-1-1-1l-1-.5-1-.5-.5-1-.5-1-2 .5-2 .5-1.5-.5-1.5-.5h-2.5-2.5l-1.5-.5-1.5-.5h-2.5-2.5-2.5-2.5v2 2 1.5 1.5h2 2l1.5.5 1.5.5h1 1l1 .5 1 .5 1.5.5 1.5.5.5.5.5.5-2 .5-2 .5-.5-.5-.5-.5h-1-1l-.5.5-.5.5h-1-1l-.5-.5-.5-.5h-2-2v2.5 2.5 2.5 2.5 2 2 2 2l13.5 2.5 13.5 2.5 9 2 9 2 9 2 9 2 2 .5 2 .5 1.5-.5 1.5-.5v-.5-.5l2-.5 2-.5-9.5-2.5-9.5-2.5-9-2-9-2-9-2-9-2-4-2-4-2 10 1 10 1-4-2.5-4-2.5 2-2 2-2 8.5 2.5 8.5 2.5 4.5 1.5 4.5 1.5 5.5-.5 5.5-.5h10.5 10.5l-8-3-8-3-9-2-9-2-9.5-1.5-9.5-1.5 3.5-.5 3.5-.5 9.5 1.5 9.5 1.5 10 1.5 10 1.5 9.5 1.5 9.5 1.5-4-4-4-4-8.5-2.5-8.5-2.5-8.5-2.5-8.5-2.5-7.5-4-7.5-4-5-3-5-3 10 1 10 1 10.5.5 10.5.5 9.5 1.5 9.5 1.5 10.5 1 10.5 1 9.5 1.5 9.5 1.5 8.5.5 8.5.5 7.5 1.5 7.5 1.5 12.5 8.5 12.5 8.5-10 2.5-10 2.5-10-1-10-1-13 3.5-13 3.5 10.5-1.5 10.5-1.5 9.5-.5 9.5-.5 9.5.5 9.5.5 5-1 5-1 5.5 1.5 5.5 1.5-2.5-3-2.5-3 4-4 4-4 8-2 8-2 9 2 9 2 8 3 8 3 10.5-1 10.5-1 6-1 6-1-1.5-6.5-1.5-6.5 2.5-6 2.5-6 1 .5 1 .5 1.5-1 1.5-1" style="fill:#decfad;stroke:#decfad"/><g style="fill:#363226;stroke:#363226"><path d="m289 406l-5-15-1 7-1 7 3.5.5 3.5.5"/><path d="m286 427l-12-2-1 4-1 4 7-2.5 7-2.5v-.5-.5"/></g><path d="m286 282l1-3h-2-2l-1.5 1-1.5 1-1.5-.5-1.5-.5-2-.5-2-.5-1 1-1 1 2 .5 2 .5 1 1 1 1 1.5-.5 1.5-.5 2-.5 2-.5h1 1" style="fill:#343d48;stroke:#343d48"/><path d="m283 472l1-3v-2-2l-1.5 1-1.5 1-1 1-1 1-1 1.5-1 1.5-.5 1.5-.5 1.5 2-.5 2-.5 1.5-.5 1.5-.5v-.5-.5" style="fill:#363226;stroke:#363226"/><path d="m281 411l-1-1-1.5-.5-1.5-.5-1.5 1-1.5 1-1 1-1 1 1.5 1 1.5 1h2 2l1-1.5 1-1.5v-.5-.5" style="fill:#72512e;stroke:#72512e"/><path d="m276 455l-1-3-1.5-.5-1.5-.5h-2-2l-2-.5-2-.5-14-.5-14-.5-4.5 3.5-4.5 3.5 5.5.5 5.5.5 6 4 6 4-4.5 4.5-4.5 4.5-7.5-3-7.5-3-2 7-2 7 2.5 3.5 2.5 3.5-.5 3.5-.5 3.5-5.5 5.5-5.5 5.5 4.5 3 4.5 3 7-3 7-3 6.5-4.5 6.5-4.5 4.5-6.5 4.5-6.5 4.5-6.5 4.5-6.5 3.5-8.5 3.5-8.5" style="fill:#554128;stroke:#554128"/><path d="m265 276l-27-4-5.5-2-5.5-2h8 8 8 8l-8-3-8-3h1.5 1.5l.5.5.5.5h1 1v1 1l-9 .5-9 .5-18 2-18 2h-2-2-.5-.5-1-1-1-1-1-1-1.5-1.5-.5-.5l-9 2.5-9 2.5-13 1.5-13 1.5 9 3.5 9 3.5 14.5-3.5 14.5-3.5h2 2l2-.5 2-.5h2 2 2 2l2-.5 2-.5 1.5-.5 1.5-.5 2-.5 2-.5h2 2l1.5 1 1.5 1v1 1l1 .5 1 .5 2.5-.5 2.5-.5 1.5-.5 1.5-.5 2 .5 2 .5h1.5 1.5l2.5-.5 2.5-.5h2 2l2 .5 2 .5 1.5.5 1.5.5h2 2 1.5 1.5l1-.5 1-.5h1.5 1.5l1.5-.5 1.5-.5v-.5-.5" style="fill:#f6d88a;stroke:#f6d88a"/><path d="m264 419l-17-7 1.5 1.5 1.5 1.5 3.5 6 3.5 6-8-2-8-2 3 3 3 3 7-2 7-2 1.5-3 1.5-3" style="fill:#363226;stroke:#363226"/><path d="m264 182l-13-11-4.5-4.5-4.5-4.5-7.5-4-7.5-4-5.5-3.5-5.5-3.5-7.5.5-7.5.5-.5 3.5-.5 3.5-7-4-7-4-6.5-1.5-6.5-1.5-8-3.5-8-3.5-6.5 1.5-6.5 1.5-7.5.5-7.5.5-6.5 1.5-6.5 1.5-3 1-3 1 7.5 4 7.5 4 7.5 3.5 7.5 3.5 8 3 8 3 8.5 2.5 8.5 2.5 9.5.5 9.5.5 9 2.5 9 2.5 8.5 2.5 8.5 2.5 9 1 9 1 8.5-1.5 8.5-1.5h1 1" style="fill:#fff2c1;stroke:#fff2c1"/><path d="m264 26l-13 5-7.5-1.5-7.5-1.5-2.5 8-2.5 8 7 1 7 1 2.5-4.5 2.5-4.5 4-4 4-4 3-1.5 3-1.5" style="fill:#b6b4a8;stroke:#b6b4a8"/><g style="fill:#72512e;stroke:#72512e"><path d="m262 473l1-3-1-1-1-1-1.5 1-1.5 1-1 1-1 1-.5 2-.5 2 1.5-.5 1.5-.5 2-.5 2-.5v-.5-.5"/><path d="m258 407l-5-1 2 2 2 2 .5-1.5.5-1.5"/></g><path d="m256 280l1-1h-1.5-1.5-2-2l-1.5-.5-1.5-.5-2-.5-2-.5h-2-2l-2.5.5-2.5.5h1.5 1.5l1.5.5 1.5.5h2 2l.5.5.5.5h1.5 1.5 1.5 1.5 2.5 2.5" style="fill:#d6ba84;stroke:#d6ba84"/><path d="m252 80v-2l-1-1-1-1-2-.5-2-.5-1 1-1 1 1 1.5 1 1.5 1.5.5 1.5.5 1.5-.5 1.5-.5" style="fill:#99a29f;stroke:#99a29f"/><path d="m250 281l1-1h-1.5-1.5-1.5-1.5l-.5-.5-.5-.5h-2-2l-1.5-.5-1.5-.5h-1.5-1.5l-2 .5-2 .5-.5.5-.5.5h-1.5-1.5-1-1l1.5.5 1.5.5h1 1 1.5 1.5l1.5-.5 1.5-.5h1 1 1.5 1.5l1.5.5 1.5.5h1 1 2.5 2.5" style="fill:#a48e6b;stroke:#a48e6b"/><path d="m250 219l-17-7-9.5.5-9.5.5-9-.5-9-.5-8.5-2.5-8.5-2.5-6 1-6 1 8.5 2.5 8.5 2.5 6 2.5 6 2.5 1 1.5 1 1.5h1.5 1.5l1 .5 1 .5h9.5 9.5l5.5-3 5.5-3 8 2 8 2 .5-1 .5-1" style="fill:#7d786d;stroke:#7d786d"/><path d="m249 489l-9-7-1.5 8.5-1.5 8.5 6-2.5 6-2.5v-2.5-2.5" style="fill:#72512e;stroke:#72512e"/><path d="m249 283l1-1v-.5-.5h-2.5-2.5-1-1l-1.5-.5-1.5-.5h-1.5-1.5-1-1l-1.5.5-1.5.5h-1.5-1.5-1-1l-1.5-.5-1.5-.5h1 1 1.5 1.5l.5-.5.5-.5 2-.5 2-.5h-1.5-1.5l-2-.5-2-.5-1.5.5-1.5.5-2.5.5-2.5.5h-.5-.5-1.5-1.5l-1 .5-1 .5h-2-2-1-1l-.5-.5-.5-.5h-1-1-1.5-1.5-1-1-1-1-1-1-1.5-1.5l-.5-.5-.5-.5h-1.5-1.5l-.5.5-.5.5-9 2-9 2-8 3-8 3-12-5-12-5h-1.5-1.5l-1-.5-1-.5-1.5-.5-1.5-.5h-1-1l-1-.5-1-.5-1.5-.5-1.5-.5-2-.5-2-.5h-2-2l-2-.5-2-.5-1.5-.5-1.5-.5h-2-2l-1-.5-1-.5h-.5-.5l-11 .5-11 .5-15 1-15 1 .5 1 .5 1 12-.5 12-.5 9.5-1.5 9.5-1.5 8 3.5 8 3.5 6.5 4.5 6.5 4.5 8.5 2.5 8.5 2.5 7.5 2.5 7.5 2.5 8.5-.5 8.5-.5 7.5-1.5 7.5-1.5 6-5.5 6-5.5 7.5-1.5 7.5-1.5 15 1 15 1h2 2l.5.5.5.5h1 1 1 1l1-.5 1-.5h1 1l1 .5 1 .5" style="fill:#977244;stroke:#977244"/><path d="m249 265v-2h-1-1l-.5-.5-.5-.5h-1.5-1.5l-.5.5-.5.5-10-1-10-1h-8.5-8.5l-6.5 1.5-6.5 1.5-7.5-1.5-7.5-1.5 7.5-3.5 7.5-3.5-9.5-1.5-9.5-1.5-10.5-1-10.5-1-9.5-1.5-9.5-1.5-9.5-.5-9.5-.5-9.5-.5-9.5-.5 6.5 3.5 6.5 3.5h-8.5-8.5l-10.5-.5-10.5-.5-6.5 1.5-6.5 1.5 9 1 9 1v1 1l5.5 3.5 5.5 3.5 9 2.5 9 2.5 8 3 8 3h2 2l-1.5-3-1.5-3-9.5-1.5-9.5-1.5-4.5-5-4.5-5h10 10l9.5-.5 9.5-.5-3-2-3-2 3-1 3-1 10.5 1 10.5 1 8 3 8 3v3 3l14 2.5 14 2.5-1 1-1 1 18-2 18-2 9-.5 9-.5" style="fill:#fff2c1;stroke:#fff2c1"/><path d="m245 404l-15-5-8-2-8-2h-7.5-7.5l6.5 2.5 6.5 2.5 8 2 8 2h8.5 8.5" style="fill:#72512e;stroke:#72512e"/><path d="m242 417l-8-8-9-2-9-2-2 3.5-2 3.5 9.5.5 9.5.5 5.5 2 5.5 2" style="fill:#363226;stroke:#363226"/><path d="m242 263l1-1-9.5-1.5-9.5-1.5-7-3-7-3-10.5-1-10.5-1-9.5-1.5-9.5-1.5-4.5-1.5-4.5-1.5h10 10l-6-3-6-3-10-1-10-1-2 3.5-2 3.5-1.5.5-1.5.5-9.5-.5-9.5-.5-10-1-10-1h-10-10l-9.5 1-9.5 1-9.5-1.5-9.5-1.5-4 2-4 2-9.5-1.5-9.5-1.5-9-3.5-9-3.5v3 3 .5.5l1.5.5 1.5.5h1.5 1.5l1 1 1 1 2.5.5 2.5.5h2 2l1.5.5 1.5.5 2 .5 2 .5-.5.5-.5.5h-1.5-1.5l-.5.5-.5.5 2 .5 2 .5 1 1 1 1v1 1h-2.5-2.5l-.5-.5-.5-.5h-1.5-1.5-2-2l-.5-.5-.5-.5h-1.5-1.5l-1.5-.5-1.5-.5-2.5-.5-2.5-.5v1.5 1.5 1.5 1.5l9.5 1.5 9.5 1.5 9 1 9 1 12 1.5 12 1.5h1.5 1.5 2 2l2 .5 2 .5h2 2l2 .5 2 .5 1.5.5 1.5.5 2 .5 2 .5h2 2l1 .5 1 .5 3 .5 3 .5h2 2l1.5.5 1.5.5h2.5 2.5 2 2l1.5 1 1.5 1 1 .5 1 .5-8-3-8-3-9-2.5-9-2.5-5.5-3.5-5.5-3.5v-1-1l-9-1-9-1 6.5-1.5 6.5-1.5 10.5.5 10.5.5h8.5 8.5l-6.5-3.5-6.5-3.5 9.5.5 9.5.5 9.5.5 9.5.5 9.5 1.5 9.5 1.5 10.5 1 10.5 1 9.5 1.5 9.5 1.5-7.5 3.5-7.5 3.5 7.5 1.5 7.5 1.5 6.5-1.5 6.5-1.5h8.5 8.5l10 1 10 1" style="fill:#f6d88a;stroke:#f6d88a"/><path d="m237 69l-13-9-7.5-1.5-7.5-1.5 5 3.5 5 3.5 7 3 7 3 2-.5 2-.5" style="fill:#99a29f;stroke:#99a29f"/><path d="m233 283l1-1-15-1-15-1-7.5 1.5-7.5 1.5-6 5.5-6 5.5-7.5 1.5-7.5 1.5-8.5.5-8.5.5-7.5-2.5-7.5-2.5-8.5-2.5-8.5-2.5-6.5-4.5-6.5-4.5-8-3.5-8-3.5-9.5 1.5-9.5 1.5-12 .5-12 .5h-.5-.5-2-2l-1.5.5-1.5.5-2 .5-2 .5h-2-2l-1.5.5-1.5.5v.5.5l17.5-1 17.5-1-1 1.5-1 1.5 2.5 2.5 2.5 2.5 7.5 3.5 7.5 3.5 7 3 7 3 5.5 2.5 5.5 2.5 1 3.5 1 3.5 5.5 1.5 5.5 1.5 7 1 7 1 5 3 5 3 3.5 3.5 3.5 3.5-2.5 5-2.5 5 2.5 4.5 2.5 4.5 6-1 6-1-2 4-2 4 1 4 1 4 2 4 2 4-2.5 6-2.5 6 6 4 6 4 8 1 8 1 1-2 1-2h-8-8l-2-6.5-2-6.5v-6-6l3-7 3-7-3.5-6.5-3.5-6.5-6.5-1.5-6.5-1.5 6-3.5 6-3.5h7 7l6-5 6-5 3.5-4.5 3.5-4.5 8.5-2.5 8.5-2.5 1.5-7.5 1.5-7.5 9.5-2 9.5-2" style="fill:#72512e;stroke:#72512e"/><path d="m231 421l-17-5 1.5 4.5 1.5 4.5 7-2 7-2" style="fill:#363226;stroke:#363226"/><path d="m220 36l-13-9-5.5-3.5-5.5-3.5 1.5-2 1.5-2-5.5 1.5-5.5 1.5 1 6 1 6 8 2 8 2 7 .5 7 .5" style="fill:#99a29f;stroke:#99a29f"/><path d="m218 450l1-3-.5-1.5-.5-1.5-2 .5-2 .5v1 1l1 1.5 1 1.5h1 1" style="fill:#554128;stroke:#554128"/><path d="m218 279h1l-1-.5-1-.5v-1-1l-1.5-1-1.5-1h-2-2l-2 .5-2 .5-1.5.5-1.5.5-2 .5-2 .5h-2-2-2-2l-2 .5-2 .5h.5.5 1.5 1.5l.5.5.5.5h1.5 1.5 1 1 1 1 1 1 1.5 1.5 1 1l.5.5.5.5h1 1 2 2l1-.5 1-.5h1.5 1.5" style="fill:#d6ba84;stroke:#d6ba84"/><path d="m214 483l-16-6 2.5 5.5 2.5 5.5 4-1.5 4-1.5 1.5-1 1.5-1" style="fill:#363226;stroke:#363226"/><path d="m211 71l-1-1-1.5-.5-1.5-.5-2-.5-2-.5-1.5.5-1.5.5-.5 2-.5 2 1.5.5 1.5.5 2-.5 2-.5 1.5-.5 1.5-.5 1-.5 1-.5" style="fill:#decfad;stroke:#decfad"/><path d="m206 273l-22-2-2 2-2 2 10-.5 10-.5 3-.5 3-.5" style="fill:#d6ba84;stroke:#d6ba84"/><path d="m205 361l-12-10 5 5 5 5h1 1" style="fill:#72512e;stroke:#72512e"/><path d="m204 510l1-3-.5-1.5-.5-1.5-1.5-1-1.5-1-1.5.5-1.5.5-1 1.5-1 1.5.5 1.5.5 1.5 1 1.5 1 1.5v1 1l1-1 1-1 1.5-1 1.5-1" style="fill:#202017;stroke:#202017"/><g style="fill:#977244;stroke:#977244"><path d="m204 427l-37-4-10.5-1-10.5-1-1-.5-1-.5h-1.5-1.5-.5-.5-11-11-17-17 2 2l2 .5 2 .5h2 2 2 2l.5 1 .5 1-.5.5-.5.5h2 2 2 2l1 .5 1 .5.5-.5.5-.5h2 2 1.5 1.5 1 1l.5.5.5.5h1 1 1.5 1.5 1 1 1 1 1 1l1.5.5 1.5.5h1.5 1.5 1 1l1-.5 1-.5 19.5.5 19.5.5 11.5.5 11.5.5"/><path d="m202 223h1l-1-.5-1-.5h-1.5-1.5l-1-1.5-1-1.5-1 .5-1 .5h-2.5-2.5l-1.5.5-1.5.5-.5 1-.5 1 1 1 1 1h2 2l2-.5 2-.5h2 2l1.5-.5 1.5-.5"/></g><path d="m197 268l-28-5v-3-3l-8-3-8-3-10.5-1-10.5-1-3 1-3 1 3 2 3 2-9.5.5-9.5.5h-10-10l4.5 5 4.5 5 9.5 1.5 9.5 1.5 1.5 3 1.5 3h1.5 1.5l1 .5 1 .5h1 1 1 1l1.5.5 1.5.5 10.5 1 10.5 1 12-4.5 12-4.5h1.5 1.5 1 1 1 1 1 1 .5.5 2 2l1-1 1-1" style="fill:#ffffec;stroke:#ffffec"/><path d="m194 459l1-3-1.5-.5-1.5-.5-1 1.5-1 1.5-1 1-1 1-1 1.5-1 1.5.5 1.5.5 1.5 1 1.5 1 1.5 1-1 1-1v-2-2l1-1.5 1-1.5.5-.5.5-.5" style="fill:#363226;stroke:#363226"/><path d="m194 115l-12-12-8-3-8-3-8.5-3-8.5-3 1.5 2.5 1.5 2.5 8 3 8 3 7.5 3.5 7.5 3.5 5.5 3 5.5 3" style="fill:#decfad;stroke:#decfad"/><path d="m193 57l-27-6-3.5-3-3.5-3-7-4-7-4-5.5-3.5-5.5-3.5-7-1-7-1-5-3-5-3-5-6.5-5-6.5-8-4.5-8-4.5h-3-3-2-2-2.5-2.5-2-2-2-2-2.5-2.5-2-2l1.5 6 1.5 6-5 3-5 3 6.5 4.5 6.5 4.5 10 3.5 10 3.5-7.5 4-7.5 4 4 5 4 5-4.5-3.5-4.5-3.5-6.5-1-6.5-1-8 1-8 1-9-2-9-2-2.5 2.5-2.5 2.5-5 2-5 2v3 3 1.5 1.5l14 2.5 14 2.5 2.5 4.5 2.5 4.5-8 2-8 2-1 2.5-1 2.5 6.5 1.5 6.5 1.5 9.5 1.5 9.5 1.5 8 1 8 1 4-3 4-3 7 2.5 7 2.5-5.5 2.5-5.5 2.5 8 2 8 2 8.5-.5 8.5-.5 10-1 10-1-2-5.5-2-5.5 6.5-4.5 6.5-4.5.5-4.5.5-4.5-2-6-2-6 7.5 1.5 7.5 1.5 7.5 4 7.5 4 6.5-.5 6.5-.5 8.5-3.5 8.5-3.5" style="fill:#99a29f;stroke:#99a29f"/><path d="m192 354l-12-6-1 4-1 4 7-.5 7-.5v-.5-.5" style="fill:#72512e;stroke:#72512e"/><path d="m189 485l-15-1 3.5 7.5 3.5 7.5 4-7 4-7" style="fill:#554128;stroke:#554128"/><path d="m189 420l-19-5-4.5-3.5-4.5-3.5-7 2.5-7 2.5 5 3 5 3 10 1 10 1 6-.5 6-.5" style="fill:#363226;stroke:#363226"/><path d="m189 2l1-2h-2.5-2.5-2.5-2.5-2-2-1-1l.5 1 .5 1 .5 2 .5 2 1 1 1 1 1.5 1 1.5 1 1.5-.5 1.5-.5.5-1.5.5-1.5 1-1.5 1-1.5 1-.5 1-.5" style="fill:#99a29f;stroke:#99a29f"/><path d="m187 279l1-1h-.5-.5-2-2-.5-.5l-8.5 3-8.5 3-9 1-9 1-9-3.5-9-3.5 12 5 12 5 8-3 8-3 9-2 9-2" style="fill:#a48e6b;stroke:#a48e6b"/><path d="m187 197l-25-17-7.5-1.5-7.5-1.5-8.5-.5-8.5-.5-9.5-1.5-9.5-1.5-10.5-1-10.5-1-9.5-1.5-9.5-1.5-10.5-.5-10.5-.5-10-1-10-1 5 3 5 3 7.5 4 7.5 4 8.5 2.5 8.5 2.5 8.5 2.5 8.5 2.5 4 4 4 4-9.5-1.5-9.5-1.5-10-1.5-10-1.5-9.5-1.5-9.5-1.5-3.5.5-3.5.5 9.5 1.5 9.5 1.5 9 2 9 2 8 3 8 3h-10.5-10.5l-5.5.5-5.5.5-4.5-1.5-4.5-1.5-8.5-2.5-8.5-2.5-2 2-2 2 4 2.5 4 2.5-10-1-10-1 4 2 4 2 9 2 9 2 9 2 9 2 9.5 2.5 9.5 2.5 10.5-1 10.5-1 5.5-3 5.5-3h-2-2-2.5-2.5l-1-1-1-1 2-.5 2-.5 1.5.5 1.5.5h2.5 2.5l2.5-.5 2.5-.5h1.5 1.5l1.5-.5 1.5-.5h1.5 1.5l13-3.5 13-3.5 10 1 10 1 10-2.5 10-2.5" style="fill:#fff2c1;stroke:#fff2c1"/><path d="m187 164v-2l-1-1-1-1-1.5-1-1.5-1h-2-2-.5-.5v2 2h2 2l2 .5 2 .5 1 .5 1 .5" style="fill:#ffffec;stroke:#ffffec"/><path d="m182 278h1l-14.5 3.5-14.5 3.5-9-3.5-9-3.5v-.5-.5l-1.5-.5-1.5-.5h-1-1-1-1l-1-.5-1-.5h-1.5-1.5-2-2l-1-.5-1-.5-1.5-1-1.5-1h-2-2-2.5-2.5l-1.5-.5-1.5-.5h-2-2l-3-.5-3-.5v.5.5l1 .5 1 .5h2 2l1.5.5 1.5.5 2 .5 2 .5h2 2l2 .5 2 .5 1.5.5 1.5.5 1 .5 1 .5h1 1l1.5.5 1.5.5 1 .5 1 .5h1.5 1.5l9 3.5 9 3.5 9-1 9-1 8.5-3 8.5-3" style="fill:#d6ba84;stroke:#d6ba84"/><path d="m180 270h1l-12 4.5-12 4.5-10.5-1-10.5-1v.5.5l13-1.5 13-1.5 9-2.5 9-2.5" style="fill:#fff2c1;stroke:#fff2c1"/><path d="m178 447l-13-11-7.5-.5-7.5-.5-11 .5-11 .5-6.5 4.5-6.5 4.5 3.5 4.5 3.5 4.5 6.5 4.5 6.5 4.5 6-3 6-3v2 2l8-.5 8-.5 7.5-3.5 7.5-3.5v-3-3" style="fill:#363226;stroke:#363226"/><path d="m176 158h1l-8-4.5-8-4.5-9 1-9 1-.5 3-.5 3 7.5 3.5 7.5 3.5 8.5-2.5 8.5-2.5 1-.5 1-.5" style="fill:#ffffec;stroke:#ffffec"/><path d="m175 453l-10-14-5.5 4.5-5.5 4.5 1 5.5 1 5.5 8.5-2.5 8.5-2.5 1-.5 1-.5" style="fill:#554128;stroke:#554128"/><path d="m172 197l-12-12-7.5-.5-7.5-.5 3 5.5 3 5.5 5.5 1.5 5.5 1.5 5-.5 5-.5" style="fill:#ffffec;stroke:#ffffec"/><path d="m170 243l-22-2 10 1 10 1h1 1" style="fill:#fff2c1;stroke:#fff2c1"/><path d="m151 440l-21-1-5.5 4.5-5.5 4.5 6-.5 6-.5 7.5 2.5 7.5 2.5 2.5-6 2.5-6" style="fill:#554128;stroke:#554128"/><g style="fill:#72512e;stroke:#72512e"><path d="m140 420h1l-17-2-17-2-8.5-2-8.5-2-1 2-1 2-10.5 2-10.5 2-2 6-2 6 8.5-.5 8.5-.5 8-3.5 8-3.5-10 2.5-10 2.5-6.5-2-6.5-2 10.5-2.5 10.5-2.5h17 17 11 11"/><path d="m135 335v-2l-1.5-.5-1.5-.5-2 .5-2 .5-1 1-1 1 1.5 1 1.5 1 .5 1.5.5 1.5 1.5 1 1.5 1 .5-1.5.5-1.5.5-1.5.5-1.5v-.5-.5"/></g><path d="m134 164l-1-1-.5-.5-.5-.5h-1-1l-1-.5-1-.5-.5-.5-.5-.5-.5-.5-.5-.5h-1-1l-1-.5-1-.5-.5.5-.5.5h-2-2-1-1-1.5-1.5-1-1-1-1-1-1l-.5-.5-.5-.5h-1.5-1.5-1-1l-.5-.5-.5-.5h-1-1l-1-.5-1-.5h-1-1l-.5-.5-.5-.5h-2-2l12 3 12 3 11 1.5 11 1.5" style="fill:#d6ba84;stroke:#d6ba84"/><path d="m132 398l-10 4-5.5 3.5-5.5 3.5-.5 1-.5 1 7.5.5 7.5.5 2.5-3.5 2.5-3.5 1-3.5 1-3.5" style="fill:#363226;stroke:#363226"/><path d="m130 216v-2h-1-1l-.5-.5-.5-.5h-1-1l-1-.5-1-.5h-1-1l-.5-.5-.5-.5h-1-1-1.5-1.5-1-1l-1-.5-1-.5h-1-1l-.5.5-.5.5h-1-1l-5.5 3-5.5 3-10.5 1-10.5 1-2 .5-2 .5v.5.5l-1.5.5-1.5.5-2-.5-2-.5 13.5 3.5 13.5 3.5 8.5 1.5 8.5 1.5-4-2.5-4-2.5 5-4 5-4 10.5-1 10.5-1" style="fill:#f6d88a;stroke:#f6d88a"/><path d="m127 467l-8-4-4.5 4.5-4.5 4.5 4.5 4 4.5 4 3.5-6.5 3.5-6.5h.5.5" style="fill:#363226;stroke:#363226"/><path d="m121 159l1-1-11-5.5-11-5.5-8.5-2.5-8.5-2.5-8-3-8-3-8.5-3-8.5-3-8-3-8-3-8.5-2.5-8.5-2.5-8.5-3.5-8.5-3.5v1.5 1.5 2 2 2 2 2 2l9 1.5 9 1.5 3 4 3 4 11.5 4.5 11.5 4.5h1.5 1.5l1 .5 1 .5h1 1l1 .5 1 .5h2 2l.5.5.5.5h1.5 1.5l1.5.5 1.5.5h1 1l.5.5.5.5h1 1l1 .5 1 .5 1.5-.5 1.5-.5 2 .5 2 .5 1.5.5 1.5.5 2 .5 2 .5h2 2l.5.5.5.5h1 1l1 .5 1 .5h1 1l.5.5.5.5h1 1 1.5 1.5l.5.5.5.5h1 1 1 1 1 1 1.5 1.5 1 1 2 2" style="fill:#b6b4a8;stroke:#b6b4a8"/><path d="m112 357l1-3v-2-2h-2.5-2.5l-.5 1.5-.5 1.5 1.5 1 1.5 1 .5 1.5.5 1.5.5-.5.5-.5" style="fill:#72512e;stroke:#72512e"/><path d="m111 209l1-1-2.5.5-2.5.5h-2.5-2.5l-1.5-.5-1.5-.5-2 .5-2 .5 1 1 1 1h2.5 2.5 2 2 1 1l.5-.5.5-.5h1 1v-.5-.5" style="fill:#decfad;stroke:#decfad"/><path d="m111 190l-13-11-9.5-.5-9.5-.5 2 2.5 2 2.5 8.5 2.5 8.5 2.5 5.5 1 5.5 1" style="fill:#ffffec;stroke:#ffffec"/><g style="fill:#363226;stroke:#363226"><path d="m109 414l1-3-8-2.5-8-2.5 7 4 7 4h.5.5"/><path d="m106 401l1-3-1-1-1-1-1 .5-1 .5-1 1-1 1-2 .5-2 .5 1.5.5 1.5.5 1 1.5 1 1.5 1.5-.5 1.5-.5.5-1 .5-1"/></g><path d="m101 423l-1-2h-2-2-2-2l-2-.5-2-.5h-2-2l-10.5 2.5-10.5 2.5 6.5 2 6.5 2 10-2.5 10-2.5h2 2l.5-.5.5-.5" style="fill:#7d786d;stroke:#7d786d"/><path d="m96 337l-11-5-5 6-5 6 .5 7 .5 7 5-6 5-6 5-4 5-4v-.5-.5" style="fill:#72512e;stroke:#72512e"/><path d="m96 139l-13-9-8.5-2.5-8.5-2.5-1.5 2-1.5 2 8 2 8 2 8 3 8 3h.5.5" style="fill:#fff2c1;stroke:#fff2c1"/><path d="m92 271h1v-.5-.5h-.5-.5-2.5-2.5l-2-.5-2-.5-1.5.5-1.5.5-2-.5-2-.5-1-1-1-1h-2.5-2.5l-1.5-.5-1.5-.5-2.5-.5-2.5-.5h-.5-.5l-11.5-.5-11.5-.5h-10-10l-8 3-8 3 1 .5 1 .5h2.5 2.5l1.5.5 1.5.5h2 2 2.5 2.5l1.5.5 1.5.5h2.5 2.5 2 2l2 .5 2 .5h2 2l15-1 15-1 11-.5 11-.5" style="fill:#a48e6b;stroke:#a48e6b"/><path d="m92 270h1l-1-.5-1-.5h-2-2l-2-.5-2-.5-1.5-.5-1.5-.5-2-.5-2-.5h-2-2l-2-.5-2-.5h-2-2-1.5-1.5l2.5.5 2.5.5 1.5.5 1.5.5h2.5 2.5l1 1 1 1 2 .5 2 .5 1.5-.5 1.5-.5 2 .5 2 .5h2.5 2.5" style="fill:#d6ba84;stroke:#d6ba84"/><path d="m87 237l-20-4-8.5.5-8.5.5 9 2.5 9 2.5 9.5-1 9.5-1" style="fill:#f6d88a;stroke:#f6d88a"/><path d="m84 163v-2l-2-.5-2-.5-1-1-1-1-1.5-1-1.5-1h-2-2-2.5-2.5l-2.5-.5-2.5-.5 1 1 1 1h1 1l.5.5.5.5h1.5 1.5 1 1l.5.5.5.5.5.5.5.5v1 1l-10-1.5-10-1.5-11-2-11-2 17 4 17 4h9.5 9.5" style="fill:#d6ba84;stroke:#d6ba84"/><path d="m78 34l-20-7-6.5-4.5-6.5-4.5 5-3 5-3-1.5-6-1.5-6h-13.5-13.5-11-11-1.5-1.5v9.5 9.5 11 11 4.5 4.5l5-2 5-2 2.5-2.5 2.5-2.5 9 2 9 2 8-1 8-1 6.5 1 6.5 1 4.5 3.5 4.5 3.5-4-5-4-5 7.5-4 7.5-4" style="fill:#79929d;stroke:#79929d"/><path d="m73 243l-18-6-8.5.5-8.5.5 9.5 2 9.5 2 8 .5 8 .5" style="fill:#a48e6b;stroke:#a48e6b"/><path d="m73 162v-2l-.5-.5-.5-.5-.5-.5-.5-.5h-1-1-1.5-1.5l-.5-.5-.5-.5h-1-1l-1-1-1-1-1-.5-1-.5h-2.5-2.5l-1.5-.5-1.5-.5-1.5-.5-1.5-.5-1.5-1-1.5-1-1.5.5-1.5.5-9.5-2-9.5-2-11.5-1.5-11.5-1.5v2.5 2.5h2 2 1 1 1 1l1 .5 1 .5h1 1l.5.5.5.5h1 1l1 .5 1 .5h1 1l.5.5.5.5h1 1 1 1l1 .5 1 .5h1 1l1.5.5 1.5.5 11 2 11 2 10 1.5 10 1.5" style="fill:#b6b4a8;stroke:#b6b4a8"/><path d="m73 153h1l-1-.5-1-.5h-1-1l-.5-.5-.5-.5h-1-1l-1.5-.5-1.5-.5h-1.5-1.5l-.5-.5-.5-.5h-2-2l-1-.5-1-.5h-1-1l-1-.5-1-.5h-1.5-1.5v1 1l-2.5 1-2.5 1 1.5-.5 1.5-.5 1.5 1 1.5 1 1.5.5 1.5.5 1.5.5 1.5.5h2.5 2.5l.5-1.5.5-1.5h1 1 1 1l1.5.5 1.5.5 1 .5 1 .5h2 2" style="fill:#d6ba84;stroke:#d6ba84"/><path d="m70 358l1-3-.5-1.5-.5-1.5-1-.5-1-.5.5 1.5.5 1.5-1 1.5-1 1.5-1.5.5-1.5.5 1 1.5 1 1.5 1.5-.5 1.5-.5.5-1 .5-1" style="fill:#72512e;stroke:#72512e"/><path d="m67 189v-2h-1-1l-.5-.5-.5-.5-1-.5-1-.5-.5-.5-.5-.5h-1-1l-.5-.5-.5-.5h-1.5-1.5l-1-.5-1-.5-.5.5-.5.5-1.5.5-1.5.5-1 .5-1 .5 1.5.5 1.5.5 1.5.5 1.5.5h2 2l2 .5 2 .5 1.5.5 1.5.5h1.5 1.5" style="fill:#d6ba84;stroke:#d6ba84"/><path d="m66 420h1l-.5-1-.5-1-.5-.5-.5-.5-.5-.5-.5-.5-.5-.5-.5-.5h-1.5-1.5-1-1v1 1l-.5.5-.5.5 1 1 1 1h1.5 1.5 2 2" style="fill:#72512e;stroke:#72512e"/><path d="m66 228l-20-4 5 2 5 2h5 5" style="fill:#a48e6b;stroke:#a48e6b"/><path d="m62 357l1-3-1.5-.5-1.5-.5-1.5 1-1.5 1-.5 1.5-.5 1.5 1.5 1 1.5 1 1-1 1-1 .5-.5.5-.5" style="fill:#72512e;stroke:#72512e"/><g style="fill:#d6ba84;stroke:#d6ba84"><path d="m60 265h1l-12-1.5-12-1.5-9-1-9-1-9.5-1.5-9.5-1.5v2.5 2.5 2.5 2.5 1.5 1.5h.5.5l8-3 8-3h10 10l11.5.5 11.5.5"/><path d="m60 257l-20-4 .5 1.5.5 1.5 9.5.5 9.5.5"/></g><path d="m57 120l-17-5-5 2-5 2h10.5 10.5l3 .5 3 .5" style="fill:#fff2c1;stroke:#fff2c1"/><path d="m53 446l-16-4 4.5 3.5 4.5 3.5 2.5 2 2.5 2 1-3.5 1-3.5" style="fill:#72512e;stroke:#72512e"/><path d="m52 183l1-1-2.5-.5-2.5-.5-1.5-.5-1.5-.5h-1.5-1.5-2.5-2.5l-.5.5-.5.5h1.5 1.5 2 2v1 1l-.5.5-.5.5 2.5.5 2.5.5 1-.5 1-.5 1.5-.5 1.5-.5" style="fill:#b6b4a8;stroke:#b6b4a8"/><path d="m49 56l-16-4-4.5.5-4.5.5 9 2.5 9 2.5 3.5-1 3.5-1" style="fill:#79929d;stroke:#79929d"/><path d="m47 149v-2l-11.5-4.5-11.5-4.5-3-4-3-4-9-1.5-9-1.5v2.5 2.5 2.5 2.5 2 2 1.5 1.5l11.5 1.5 11.5 1.5 9.5 2 9.5 2 2.5-1 2.5-1" style="fill:#decfad;stroke:#decfad"/><path d="m44 233l-17 1-8.5-.5-8.5-.5 10 1.5 10 1.5 7-1.5 7-1.5" style="fill:#f6d88a;stroke:#f6d88a"/><path d="m43 516v-2l-.5-.5-.5-.5-.5-.5-.5-.5-1-.5-1-.5-.5-.5-.5-.5h-1-1v1 1l-1 .5-1 .5-.5-.5-.5-.5v1 1h1 1l.5 1 .5 1 .5-.5.5-.5.5.5.5.5v1 1l2 .5 2 .5.5-1.5.5-1.5" style="fill:#363226;stroke:#363226"/><path d="m43 183v-2h-2-2-1.5-1.5l.5-.5.5-.5h2.5 2.5l-1.5-.5-1.5-.5h-1-1-1-1l-.5-.5-.5-.5h-2.5-2.5l1.5.5 1.5.5.5.5.5.5h-1.5-1.5l-2 1-2 1 1 .5 1 .5h1 1 1 1l1 .5 1 .5h1 1 1 1 2 2l.5-.5.5-.5" style="fill:#d6ba84;stroke:#d6ba84"/><path d="m40 276h1l-.5-1-.5-1h-2-2l-2-.5-2-.5h-2-2-2.5-2.5l-1.5-.5-1.5-.5h-2.5-2.5-2-2l-1.5-.5-1.5-.5h-2.5-2.5l-1-.5-1-.5h-.5-.5v2.5 2.5 2 2 1 1h.5.5l1-1 1-1 2-.5 2-.5h1 1 1 1 1 1l1 .5 1 .5 1.5-.5 1.5-.5 1 .5 1 .5h1 1l1.5-.5 1.5-.5h2 2l2-.5 2-.5 1.5-.5 1.5-.5h2 2" style="fill:#7d786d;stroke:#7d786d"/><g style="fill:#363226;stroke:#363226"><path d="m39 536h1l-10-4.5-10-4.5 5.5-1.5 5.5-1.5-4-4.5-4-4.5-2 1-2 1-3.5 4.5-3.5 4.5-2-4-2-4-.5 2-.5 2-.5 1-.5 1-.5.5-.5.5-.5.5-.5.5-.5 1-.5 1v1 1l.5.5.5.5.5.5.5.5.5 2 .5 2h3 3 2.5 2.5 2 2 2.5 2.5 2 2 2.5 2.5 2 2"/><path d="m39 357l-20-6-6-5-6-5-3.5 1.5-3.5 1.5v2.5 2.5 2 2h1.5 1.5l1.5.5 1.5.5 1.5-1 1.5-1 1 1 1 1-.5 1.5-.5 1.5-1 .5-1 .5-.5-.5-.5-.5h-1-1-1.5-1.5l-1-.5-1-.5v3 3 2 2 2.5 2.5 2 2 2.5 2.5 2 2 .5.5l12.5-1.5 12.5-1.5v-5-5l.5-3.5.5-3.5 6.5-4 6.5-4"/><path d="m34 328l-6-11-6-2-6-2-8-2.5-8-2.5v1.5 1.5 2.5 2.5 2 2 2.5 2.5 1 1l8.5.5 8.5.5h8.5 8.5"/><path d="m33 509h-8l-4.5-4.5-4.5-4.5-1 4-1 4-7-2.5-7-2.5v1 1l8.5 4.5 8.5 4.5 8-2.5 8-2.5"/></g><path d="m33 180l-1-1-1.5-.5-1.5-.5-2-.5-2-.5h-2-2l-2-.5-2-.5h-2-2l-2-.5-2-.5-1.5-.5-1.5-.5-1.5-.5-1.5-.5 1-1 1-1 1-.5 1-.5h1.5 1.5l-1.5-1.5-1.5-1.5h-3.5-3.5v2 2 2.5 2.5 1.5 1.5h2.5 2.5 2.5 2.5l1.5.5 1.5.5h2.5 2.5l1.5.5 1.5.5 2-.5 2-.5.5 1 .5 1 2-1 2-1h1.5 1.5" style="fill:#b6b4a8;stroke:#b6b4a8"/><g style="fill:#d6ba84;stroke:#d6ba84"><path d="m28 175v-2l-1.5-.5-1.5-.5h-1.5-1.5l-.5-.5-.5-.5-.5-.5-.5-.5-.5-.5-.5-.5-1-.5-1-.5h-1-1l-.5.5-.5.5-.5-.5-.5-.5-1-.5-1-.5h-2-2l1.5 1.5 1.5 1.5h-1.5-1.5l2.5.5 2.5.5 2 .5 2 .5 1.5.5 1.5.5 1.5 1 1.5 1h3 3"/><path d="m25 255v-2l-1-1-1-1-2-.5-2-.5.5-.5.5-.5h1.5 1.5l.5-.5.5-.5-2-.5-2-.5-1.5-.5-1.5-.5h-2-2l-2.5-.5-2.5-.5 1 .5 1 .5 2 .5 2 .5-.5.5-.5.5h-2.5-2.5l-1.5.5-1.5.5 2 .5 2 .5 1.5.5 1.5.5 1 .5 1 .5h-2-2l-1.5-.5-1.5-.5-2-.5-2-.5h-1.5-1.5v.5.5l2.5.5 2.5.5 1.5.5 1.5.5h1.5 1.5l.5.5.5.5h2 2 1.5 1.5l.5.5.5.5h2.5 2.5"/></g><path d="m24 220l-1-2h-2-2-1.5-1.5-2-2l-1.5-.5-1.5-.5h-2.5-2.5l-2-.5-2-.5v1 1l2.5.5 2.5.5 1.5.5 1.5.5 2 .5 2 .5h2 2 2.5 2.5l1.5-.5 1.5-.5" style="fill:#a48e6b;stroke:#a48e6b"/><path d="m21 281l1-1v-.5-.5h-1-1-.5-.5l-1.5 1-1.5 1-1.5.5-1.5.5h-2-2l-2-.5-2-.5-1-1-1-1-1 1-1 1 1.5 1 1.5 1h1.5 1.5 1 1l1.5.5 1.5.5h1.5 1.5l.5-.5.5-.5 1.5-.5 1.5-.5 1-.5 1-.5" style="fill:#977244;stroke:#977244"/><path d="m19 279h1l-1-.5-1-.5-1.5.5-1.5.5-1-.5-1-.5h-1-1-1-1-1-1l-2 .5-2 .5 1 1 1 1 2 .5 2 .5h2 2l1.5-.5 1.5-.5 1.5-1 1.5-1" style="fill:#a48e6b;stroke:#a48e6b"/><path d="m15 190l-1-1-1.5-.5-1.5-.5-1-.5-1-.5h-1-1l-1.5-.5-1.5-.5h-2-2v2 2h2 2l.5.5.5.5h1 1l.5-.5.5-.5h1 1l.5.5.5.5 2-.5 2-.5" style="fill:#b6b4a8;stroke:#b6b4a8"/><path d="m14 252l-2-1-1.5-.5-1.5-.5-2-.5-2-.5 1.5-.5 1.5-.5h2.5 2.5l.5-.5.5-.5-2-.5-2-.5-1-.5-1-.5-1-1-1-1h-1.5-1.5l-1.5-.5-1.5-.5v3.5 3.5.5.5h1.5 1.5l2 .5 2 .5 1.5.5 1.5.5h2 2" style="fill:#a48e6b;stroke:#a48e6b"/><path d="m10 488v-2l-1.5-1-1.5-1-1.5-.5-1.5-.5-1-1.5-1-1.5-1-.5-1-.5v2.5 2.5.5.5l1.5.5 1.5.5.5.5.5.5.5.5.5.5h2 2 .5.5" style="fill:#363226;stroke:#363226"/><path d="m10 357l1-3-1-1-1-1-1.5 1-1.5 1-1.5-.5-1.5-.5h-1.5-1.5v1.5 1.5l1 .5 1 .5h1.5 1.5 1 1l.5.5.5.5 1-.5 1-.5" style="fill:#554128;stroke:#554128"/><path d="m8 514v-3l-1-.5-1-.5-.5-.5-.5-.5-1.5-.5-1.5-.5-1-.5-1-.5v2.5 2.5 1.5 1.5l1-.5 1-.5h2 2 1 1" style="fill:#a48e6b;stroke:#a48e6b"/><path d="m7 522l1-4h-1.5-1.5l-1.5-.5-1.5-.5-1 .5-1 .5v3.5 3.5 2 2 2.5 2.5 1 1h1 1 2 2l-.5-2-.5-2-.5-.5-.5-.5-.5-.5-.5-.5v-1-1l.5-1 .5-1 .5-.5.5-.5.5-.5.5-.5.5-1 .5-1" style="fill:#202017;stroke:#202017"/></g></svg>