<svg xmlns="http://www.w3.org/2000/svg" viewBox="0 0 528 960"><g style="fill:#bd7850"><path d="m0 0h528v960h-528z"/><path d="m0 959v1h19 19 18 18 18 18 17.5 17.5 18 18 17.5 17.5 18 18 17.5 17.5 18 18 6 6v-.5-.5l6 .5 6 .5h18.5 18.5 18 18 17.5 17.5 18 18 10 10v-.5-.5l-2.5-10.5-2.5-10.5 2.5-5 2.5-5 8.5 15.5 8.5 15.5v-1.5-1.5-2-2-2.5-2.5-2-2-2.5-2.5-2-2-2.5-2.5l-10.5-5-10.5-5-5.5 6-5.5 6-3-2-3-2-3 3-3 3-3 2.5-3 2.5-1-3-1-3 7-10.5 7-10.5 5.5-5.5 5.5-5.5 13.5 9.5 13.5 9.5v-2.5-2.5-2.5-2.5-2-2-2.5-2.5-2-2-2-2-2.5-2.5l-11-.5-11-.5-7.5 2-7.5 2-8 9-8 9-8 2.5-8 2.5-5.5-.5-5.5-.5-7.5 2-7.5 2-11 6-11 6 2-7 2-7 8-3.5 8-3.5-9 1-9 1h-8.5-8.5l-8 5-8 5 3.5 3 3.5 3-4 10-4 10 1-11.5 1-11.5-12.5-3.5-12.5-3.5-13 1.5-13 1.5-13 1-13 1-21.5 6-21.5 6-1 1-1 1h-1.5-1.5-1-1l-1.5-.5-1.5-.5-.5.5-.5.5h-1.5-1.5l-1 1-1 1-1 1.5-1 1.5-1 1-1 1-1 1.5-1 1.5-1.5.5-1.5.5h-1-1v-1.5-1.5-2.5-2.5-2-2l1-.5 1-.5v-1-1l-1-.5-1-.5-1.5-.5-1.5-.5-.5-.5-.5-.5-.5-1-.5-1 .5-.5.5-.5.5.5.5.5h1.5 1.5 2 2l2-1 2-1v-.5-.5l2-.5 2-.5h-2-2-1-1l-.5.5-.5.5-1.5-.5-1.5-.5-1-.5-1-.5-1.5-.5-1.5-.5-.5.5-.5.5.5-1 .5-1v-2-2l-5-1.5-5-1.5-3.5-.5-3.5-.5-12.5 2-12.5 2h-13-13l-12.5 1-12.5 1-26.5 5.5-26.5 5.5-24.5 6-24.5 6-1-.5-1-.5-1.5-1-1.5-1 1-1.5 1-1.5-1.5-.5-1.5-.5 1-1 1-1 1.5-.5 1.5-.5-1.5-1-1.5-1-2 .5-2 .5h-1-1l-.5-1-.5-1v-1-1l.5-.5.5-.5.5-.5.5-.5.5-.5.5-.5.5-1 .5-1-.5-.5-.5-.5.5-.5.5-.5.5-.5.5-.5.5-1 .5-1h1 1l.5-.5.5-.5.5-.5.5-.5.5-1 .5-1h1 1l.5-.5.5-.5 1 .5 1 .5 1-.5 1-.5v-.5-.5l1-.5 1-.5 1.5-1 1.5-1 1-1 1-1-.5-1-.5-1 .5-1.5.5-1.5 2-.5 2-.5 1-1 1-1 2-.5 2-.5h1 1l6-12 6-12 3-22 3-22v-.5-.5-.5-.5-1.5-1.5l1-.5 1-.5 1.5-.5 1.5-.5 1-1 1-1 1.5-1 1.5-1 1-1 1-1-1-1.5-1-1.5-.5-1-.5-1 .5-1.5.5-1.5.5-.5.5-.5.5-.5.5-.5h1 1v-1-1l.5-.5.5-.5 1-.5 1-.5v2 2l1.5-1.5 1.5-1.5 1-1 1-1-1.5-.5-1.5-.5-1-.5-1-.5-13 2.5-13 2.5-7 4-7 4-18.5 8.5-18.5 8.5-1-1-1-1-.5-.5-.5-.5-.5-1-.5-1-.5-.5-.5-.5-.5-.5-.5-.5-.5.5-.5.5-1 .5-1 .5-.5.5-.5.5h-1-1l-.5-.5-.5-.5-1 .5-1 .5-1.5.5-1.5.5-1-.5-1-.5v1.5 1.5 2.5 2.5 2 2 2.5 2.5 2 2 2 2 2.5 2.5 2 2 2 2l1.5-.5 1.5-.5h2 2l.5.5.5.5 1 .5 1 .5 1 1 1 1-.5.5-.5.5-.5 1-.5 1h-1-1-1-1l-.5-1-.5-1-2.5-.5-2.5-.5v2 2 2.5 2.5.5.5l1-.5 1-.5 1.5-.5 1.5-.5 2-.5 2-.5v2 2l-1.5 1-1.5 1h-2-2l-1 .5-1 .5v3 3 .5.5l4.5 7 4.5 7 3-5 3-5 11-.5 11-.5-7 14.5-7 14.5-11.5-3.5-11.5-3.5v2.5 2.5 2 2 2.5 2.5 2 2 .5.5l1.5-.5 1.5-.5v-1-1-1-1h1 1v1 1l.5.5.5.5 1-.5 1-.5.5.5.5.5h1 1l.5.5.5.5-1 .5-1 .5-.5.5-.5.5h-1-1v1 1h-1.5-1.5l-.5.5-.5.5-.5.5-.5.5v1 1l-1 .5-1 .5v2 2 2 2 2.5 2.5 2 2 2.5 2.5.5.5" style="stroke:#bd7850;stroke-linejoin:round;stroke-width:.7"/></g><g style="stroke-linejoin:round;stroke-width:.7"><g style="fill:#9e5834;stroke:#9e5834"><path d="m335 959v1h1.5 1.5 2 2 2.5 2.5l-6-.5-6-.5"/><path d="m511 959v1h1.5 1.5 2 2 2.5 2.5 2 2 .5.5v-.5-.5l-8.5-15.5-8.5-15.5-2.5 5-2.5 5 2.5 10.5 2.5 10.5"/><path d="m243 950l3 1 1.5-.5 1.5-.5 1.5-1 1.5-1 1.5-.5 1.5-.5 1-1.5 1-1.5h-2-2l-2 .5-2 .5-1 1-1 1-1.5.5-1.5.5-.5 1-.5 1"/><path d="m413 950l13-6-4.5-6.5-4.5-6.5-2.5 9-2.5 9 .5.5.5.5"/><path d="m234 945h2l1.5-.5 1.5-.5 1-1.5 1-1.5 1-1 1-1 1-1.5 1-1.5 1-1 1-1h1.5 1.5l.5-.5.5-.5 1.5.5 1.5.5h1 1 1.5 1.5l-1.5-.5-1.5-.5-.5-.5-.5-.5-1-.5-1-.5h-1-1l-.5.5-.5.5h-1-1l-1-.5-1-.5h-1-1-1-1l-.5.5-.5.5.5 1 .5 1-.5.5-.5.5-.5.5-.5.5-1.5-.5-1.5-.5-.5-1.5-.5-1.5-1 .5-1 .5v2 2 2.5 2.5 1.5 1.5"/><path d="m379 945l8-20-3.5-3-3.5-3 8-5 8-5h8.5 8.5l9-1 9-1-8 3.5-8 3.5-2 7-2 7 11-6 11-6 7.5-2 7.5-2 5.5.5 5.5.5 8-2.5 8-2.5 8-9 8-9 7.5-2 7.5-2 11 .5 11 .5v-18.5-18.5-17.5-17.5-18-18-10-10l-15 3-15 3-13.5 2.5-13.5 2.5-13 1.5-13 1.5-10 7-10 7-13 4.5-13 4.5-15 2-15 2-25.5 5.5-25.5 5.5-4-6.5-4-6.5 13-4 13-4 12.5-4 12.5-4 10.5-4.5 10.5-4.5 9-5.5 9-5.5 13-3 13-3 10-2.5 10-2.5 2 4 2 4 12.5-5 12.5-5v-3-3l-2.5-2-2.5-2 10.5-4.5 10.5-4.5 18.5-8 18.5-8v-18-18-17.5-17.5-18-18-17.5-17.5-18-18-17.5-17.5-2-2l-12.5 4.5-12.5 4.5-1-8-1-8 3-7.5 3-7.5-4.5-3.5-4.5-3.5-10 5.5-10 5.5-9 8-9 8-7 4.5-7 4.5-7 9-7 9-8.5 5-8.5 5-10 6-10 6-21.5 4-21.5 4-6-3-6-3 3-9.5 3-9.5 7.5-10.5 7.5-10.5 12-4.5 12-4.5 11.5-5.5 11.5-5.5 7-7.5 7-7.5 10-6 10-6 8.5-6 8.5-6 8.5-7.5 8.5-7.5 1-6.5 1-6.5 8.5-6.5 8.5-6.5 16.5-17.5 16.5-17.5v-18-18-12.5-12.5l-10 2.5-10 2.5-3.5-8-3.5-8-6.5-3.5-6.5-3.5-2.5-9-2.5-9-8.5 8.5-8.5 8.5-2.5-1-2.5-1-6.5 9.5-6.5 9.5.5 9 .5 9-2 9-2 9-1 10.5-1 10.5-.5 9.5-.5 9.5 2.5 8 2.5 8 3 1 3 1-4.5 4-4.5 4v4 4l-9 9-9 9-9.5 2-9.5 2-7 2-7 2-4-4.5-4-4.5-7.5-1.5-7.5-1.5-8.5 9-8.5 9-4 6-4 6-5.5 9-5.5 9-7 10-7 10-14 11.5-14 11.5-1-2.5-1-2.5v2.5 2.5l-2 20-2 20-1 2-1 2-.5 2-.5 2v2 2 1.5 1.5l9.5-6 9.5-6 14-3 14-3 9 1.5 9 1.5 1.5 8.5 1.5 8.5-5 8.5-5 8.5-1 10-1 10 2 8.5 2 8.5-3 11-3 11-3 6.5-3 6.5 4 4 4 4 3 6.5 3 6.5-2 6-2 6-7.5 10-7.5 10 11 1 11 1-4.5 5-4.5 5 3.5 2.5 3.5 2.5 3.5-4 3.5-4 10.5-2.5 10.5-2.5 6.5 2 6.5 2-7 10-7 10-9 7.5-9 7.5-9.5 5.5-9.5 5.5-8.5 2.5-8.5 2.5-15 9-15 9v-1.5-1.5-1.5-1.5l.5-1.5.5-1.5v-1.5-1.5l-.5 1-.5 1-.5 1-.5 1v1 1 1.5 1.5l-.5 1.5-.5 1.5v2.5 2.5l1 .5 1 .5.5 2 .5 2-.5.5-.5.5-.5-.5-.5-.5-.5.5-.5.5-1 1-1 1-1.5 26.5-1.5 26.5.5 1.5.5 1.5.5 1.5.5 1.5.5 2 .5 2-.5 1.5-.5 1.5.5 1.5.5 1.5v2.5 2.5l13.5-1 13.5-1 12-.5 12-.5.5 5.5.5 5.5-7.5 9-7.5 9-21 5-21 5h-.5-.5l-1 .5-1 .5h-1-1l-.5.5-.5.5-1.5 1-1.5 1-1 1-1 1-1 1-1 1h-1.5-1.5l-1.5 1-1.5 1 21.5-6 21.5-6 13-1 13-1 13-1.5 13-1.5 12.5 3.5 12.5 3.5-1 11.5-1 11.5"/><path d="m448 944l3 1 1-1 1-1 2-.5 2-.5 1-1 1-1 1.5-1 1.5-1-.5-1.5-.5-1.5-2 .5-2 .5-1.5.5-1.5.5-1 1-1 1-1.5 1-1.5 1-.5 1.5-.5 1.5"/><path d="m443 941l-3-10 .5 3.5.5 3.5 1 1.5 1 1.5"/></g><path d="m36 939l49-12-1-.5-1-.5 13-4 13-4 13.5-4 13.5-4v-.5-.5h-.5-.5l-25.5 6.5-25.5 6.5-.5.5-.5.5-.5 1.5-.5 1.5-.5.5-.5.5-.5.5-.5.5-1 .5-1 .5-1.5.5-1.5.5h-1-1l-1 .5-1 .5-1.5.5-1.5.5h-1-1l-.5.5-.5.5h-1.5-1.5l-.5.5-.5.5h-1-1l-.5.5-.5.5h-1.5-1.5l-1.5.5-1.5.5-2.5.5-2.5.5h-1.5-1.5l-.5.5-.5.5-1 .5-1 .5h-2.5-2.5" style="fill:#7c5445;stroke:#7c5445"/><g style="fill:#9e5834;stroke:#9e5834"><path d="m34 938l2 1h2.5 2.5l1-.5 1-.5-2.5-.5-2.5-.5-1-1.5-1-1.5v-1-1l2-.5 2-.5h2 2 2 2 2.5 2.5l1.5-.5 1.5-.5 2.5-.5 2.5-.5-1-.5-1-.5-1.5.5-1.5.5h-2.5-2.5l-1.5.5-1.5.5-1.5-.5-1.5-.5h-2.5-2.5l-1.5-.5-1.5-.5-1 .5-1 .5-1.5.5-1.5.5-1 1-1 1 1.5.5 1.5.5-1 1.5-1 1.5 1.5 1 1.5 1"/><path d="m478 938l6-5 3-3 3-3 3 2 3 2 5.5-6 5.5-6 10.5 5 10.5 5v-2.5-2.5-2.5-2.5l-13.5-9.5-13.5-9.5-5.5 5.5-5.5 5.5-7 10.5-7 10.5 1 3 1 3"/></g><path d="m38 937l5 1 .5-.5.5-.5v-.5-.5l-1.5-.5-1.5-.5-.5-.5-.5-.5 2-.5 2-.5h2 2l1.5-.5 1.5-.5h2.5 2.5v-.5-.5h1.5 1.5l1.5-.5 1.5-.5 2.5-1 2.5-1h-1.5-1.5l-1.5.5-1.5.5-2.5.5-2.5.5-1.5.5-1.5.5h-2.5-2.5-2-2-2-2l-2 .5-2 .5v1 1l1 1.5 1 1.5" style="fill:#833e1d;stroke:#833e1d"/><path d="m44 936v1h1.5 1.5l2.5-.5 2.5-.5-1.5-.5-1.5-.5v-.5-.5h1 1l1-.5 1-.5 1.5-.5 1.5-.5h-2.5-2.5l-1.5.5-1.5.5h-2-2l-2 .5-2 .5.5.5.5.5 1.5.5 1.5.5" style="fill:#572e18;stroke:#572e18"/><path d="m0 935v1l1-.5 1-.5v-1-1l.5-.5.5-.5.5-.5.5-.5h1.5 1.5v-1-1h1 1l.5-.5.5-.5 1-.5 1-.5-.5-.5-.5-.5h-1-1l-.5-.5-.5-.5-1 .5-1 .5-.5-.5-.5-.5v-1-1h-1-1v1 1 1 1l-1.5.5-1.5.5v1.5 1.5 2 2" style="fill:#d89e87;stroke:#d89e87"/><path d="m49 935l3 1 1.5-.5 1.5-.5h1.5 1.5l.5-.5.5-.5h1 1l.5-.5.5-.5h1.5 1.5l.5-.5.5-.5h1 1l1.5-.5 1.5-.5.5-1 .5-1-1 .5-1 .5-1.5.5-1.5.5h-2.5-2.5l-1.5.5-1.5.5h-1.5-1.5l-1.5.5-1.5.5-1 .5-1 .5h-1-1v.5.5" style="fill:#361803;stroke:#361803"/><path d="m237 935l3 1 .5-.5.5-.5.5-.5.5-.5-.5-1-.5-1 .5-.5.5-.5h1 1 1 1l1 .5 1 .5h1 1l.5-.5.5-.5h1 1l1 .5 1 .5.5.5.5.5 1.5.5 1.5.5 1-1 1-1 1.5-1 1.5-1h1.5 1.5l1-1 1-1 1-1 1-1h-1-1l-1 .5-1 .5-1 .5-1 .5-2 .5-2 .5-1 1-1 1-1.5-.5-1.5-.5-4.5-3-4.5-3 3.5-2 3.5-2v1 1l-1.5.5-1.5.5h-1-1-1.5-1.5-2-2l-2 1-2 1h-2-2-1.5-1.5l-.5-.5-.5-.5-.5.5-.5.5.5 1 .5 1 .5.5.5.5 1.5.5 1.5.5 1 .5 1 .5v1 1l.5 1.5.5 1.5" style="fill:#833e1d;stroke:#833e1d"/><g style="fill:#572e18;stroke:#572e18"><path d="m56 931v1h1.5 1.5l1.5-.5 1.5-.5h2.5 2.5l1.5-.5 1.5-.5 1-.5 1-.5-.5 1-.5 1 1-.5 1-.5h1 1l1.5-.5 1.5-.5 1-.5 1-.5.5-.5.5-.5.5-.5.5-.5.5-1.5.5-1.5-2 .5-2 .5-1 1-1 1-2 .5-2 .5-1.5.5-1.5.5h-1.5-1.5l-2.5 1-2.5 1-1.5.5-1.5.5h-1.5-1.5"/><path d="m256 930l3 1 1-1 1-1 2-.5 2-.5 1-.5 1-.5 1-.5 1-.5h-1.5-1.5l-1.5.5-1.5.5-.5.5-.5.5-1 .5-1 .5h-2-2-1-1-1-1-1-1l-1.5-.5-1.5-.5h-1.5-1.5l-2-.5-2-.5h2 2 2.5 2.5 2 2l2-.5 2-.5 1.5-.5 1.5-.5 1.5-.5 1.5-.5h2.5 2.5l1.5-.5 1.5-.5-1 1.5-1 1.5h1 1l1.5-1 1.5-1 .5-.5.5-.5h1 1l1-.5 1-.5 10-7 10-7-7-11-7-11v-2.5-2.5l-.5-1.5-.5-1.5.5-1.5.5-1.5-.5-2-.5-2-.5-1.5-.5-1.5-.5-1.5-.5-1.5v2 2l.5 1.5.5 1.5-.5 2-.5 2-.5-.5-.5-.5-1 1.5-1 1.5-1 1-1 1-1.5-.5-1.5-.5-5.5-4.5-5.5-4.5 3.5-7.5 3.5-7.5.5-5 .5-5-7.5-1.5-7.5-1.5 6.5-10 6.5-10 8-5 8-5 1-1 1-1 .5-.5.5-.5.5.5.5.5.5-.5.5-.5-.5-2-.5-2-1.5-.5-1.5-.5-.5-.5-.5-.5-.5-1-.5-1-1 1-1 1-1 1-1 1v1 1l-1 .5-1 .5-.5 1.5-.5 1.5-.5.5-.5.5-1 .5-1 .5-1 1-1 1v1 1l-.5 1-.5 1h-1.5-1.5l.5-1 .5-1 .5-1 .5-1-1-.5-1-.5v1.5 1.5l-1 1.5-1 1.5-.5 1.5-.5 1.5-2 .5-2 .5h-2-2l-.5 1-.5 1v25.5 25.5l.5 1 .5 1v1 1l.5.5.5.5.5.5.5.5 1-.5 1-.5 1.5-.5 1.5-.5.5.5.5.5 1 .5 1 .5 1 1 1 1 .5.5.5.5h1 1l.5.5.5.5 1 1 1 1-11.5 15.5-11.5 15.5h1 1l-3.5 2-3.5 2 4.5 3 4.5 3"/></g><path d="m45 929l3 1 1.5-.5 1.5-.5h2.5 2.5l1.5-.5 1.5-.5 1 .5 1 .5 1.5-.5 1.5-.5h1.5 1.5v-.5-.5l1.5-1 1.5-1-2 .5-2 .5-2 .5-2 .5h-2-2l-2 .5-2 .5h-2-2-1.5-1.5l-2-.5-2-.5-.5-1-.5-1 .5-.5.5-.5h1.5 1.5l1-1 1-1 1.5-1 1.5-1 1-1 1-1h1 1l1-.5 1-.5v-1.5-1.5l1.5-1 1.5-1 .5-1.5.5-1.5 2-.5 2-.5 1-1 1-1 .5-1.5.5-1.5 2-.5 2-.5v-.5-.5l6.5-24.5 6.5-24.5v-.5-.5l1-.5 1-.5-.5-.5-.5-.5-.5-1-.5-1-.5-1.5-.5-1.5v-2.5-2.5-2-2-2-2l-1-1.5-1-1.5-.5-1.5-.5-1.5h-.5-.5v.5.5l-.5 16.5-.5 16.5-4 14-4 14-7.5 10-7.5 10-9.5 10.5-9.5 10.5 1.5.5 1.5.5h2.5 2.5" style="fill:#7c5445;stroke:#7c5445"/><path d="m26 928h2l2-.5 2-.5 1.5 1 1.5 1 1-.5 1-.5 9.5-10.5 9.5-10.5 7.5-10 7.5-10 4-14 4-14 .5-16.5.5-16.5-3 22-3 22-6 12-6 12-.5 1-.5 1-1 1-1 1-.5.5-.5.5-.5 1-.5 1-1 1-1 1h-1-1l-.5 1-.5 1-1 1-1 1-.5.5-.5.5h-1-1-1-1l-1 .5-1 .5-1 .5-1 .5-1.5 1.5-1.5 1.5-1 1-1 1-1 1.5-1 1.5-.5 1.5-.5 1.5v1.5 1.5l-1.5.5-1.5.5-.5.5-.5.5h-2-2l.5 1 .5 1" style="fill:#9c7163;stroke:#9c7163"/><path d="m247 928l3 1h1 1 1 1 1 1 2 2l1-.5 1-.5.5-.5.5-.5 1.5-.5 1.5-.5h1.5 1.5l1-1.5 1-1.5-1.5.5-1.5.5h-2.5-2.5l-1.5.5-1.5.5-1.5.5-1.5.5-2 .5-2 .5h-2-2-2.5-2.5-2-2l2 .5 2 .5h1.5 1.5" style="fill:#361803;stroke:#361803"/><path d="m43 927l4 1v-.5-.5l1-.5 1-.5 1-1 1-1 .5-1.5.5-1.5h2.5 2.5v-2-2l-1 .5-1 .5h-1-1l-1 1-1 1-1.5 1-1.5 1-1 1-1 1h-1.5-1.5l-.5.5-.5.5.5 1 .5 1" style="fill:#833e1d;stroke:#833e1d"/><path d="m47 927v1h1.5 1.5 2 2l2-.5 2-.5h2 2l2-.5 2-.5 2-.5 2-.5 1.5-.5 1.5-.5h1 1 1 1l.5-.5.5-.5.5-.5.5-.5 1-.5 1-.5 1.5-.5 1.5-.5v1 1l25.5-6.5 25.5-6.5 1-.5 1-.5 1-1 1-1 1-1 1-1 1.5-1 1.5-1h-2-2l-1.5.5-1.5.5-.5-.5-.5-.5-.5-1-.5-1 .5-2.5.5-2.5-2.5-23.5-2.5-23.5 1.5 15 1.5 15-6.5 8-6.5 8 6.5 4.5 6.5 4.5-10 4.5-10 4.5-17 2.5-17 2.5 9-9 9-9 7.5-8 7.5-8 1-4 1-4-6-1.5-6-1.5 14-12 14-12v-1.5-1.5l-.5-1-.5-1 .5-2 .5-2 .5-1.5.5-1.5.5-1.5.5-1.5v-1-1l.5-1 .5-1v-3-3l-.5 1.5-.5 1.5-.5 1.5-.5 1.5v1 1 1.5 1.5l-.5 1.5-.5 1.5-.5.5-.5.5h-1.5-1.5l-1 1-1 1-.5.5-.5.5-1 .5-1 .5h-1.5-1.5l8-11 8-11 .5-1 .5-1v-.5-.5-2-2l-.5-1.5-.5-1.5-2 .5-2 .5h-2-2-2.5-2.5-2.5-2.5l-1.5.5-1.5.5-1 1.5-1 1.5-1.5.5-1.5.5-2 .5-2 .5-1 1-1 1-2.5-1-2.5-1-2 1.5-2 1.5-1.5.5-1.5.5-1.5 1-1.5 1-1.5.5-1.5.5h-1-1v-.5-.5l-1 1-1 1 .5 1.5.5 1.5 1 1.5 1 1.5v2 2 2 2l1 1.5 1 1.5 2 .5 2 .5.5 1.5.5 1.5-.5 1.5-.5 1.5-1 1.5-1 1.5h-1.5-1.5v11.5 11.5l-6.5 13.5-6.5 13.5-2 .5-2 .5-.5 1.5-.5 1.5-1 1-1 1-2 .5-2 .5-.5 1.5-.5 1.5-1.5 1-1.5 1v1.5 1.5 2 2h-2.5-2.5l-.5 1.5-.5 1.5-1 1-1 1-1 .5-1 .5" style="fill:#572e18;stroke:#572e18"/><path d="m67 927v1h1.5 1.5l1.5-.5 1.5-.5 2-.5 2-.5 1-1 1-1 2-.5 2-.5.5-.5.5-.5v-1-1l-1.5.5-1.5.5-1 .5-1 .5-.5.5-.5.5-.5.5-.5.5h-1-1-1-1l-1.5.5-1.5.5-1.5 1-1.5 1" style="fill:#833e1d;stroke:#833e1d"/><path d="m29 926l1-1 1.5-.5 1.5-.5v-1.5-1.5l.5-1.5.5-1.5 1-1.5 1-1.5 1-1 1-1 1.5-1.5 1.5-1.5-1-.5-1-.5-.5.5-.5.5h-1-1l-.5 1-.5 1-.5.5-.5.5-.5.5-.5.5h-1-1l-.5 1-.5 1-.5.5-.5.5-.5.5-.5.5.5.5.5.5-.5 1-.5 1-.5.5-.5.5-.5.5-.5.5-.5.5-.5.5v1 1h2 2" style="fill:#bf8886;stroke:#bf8886"/><g style="fill:#9e5834;stroke:#9e5834"><path d="m83 926l2 1 26.5-5.5 26.5-5.5 12.5-1 12.5-1h13 13l12.5-2 12.5-2 3.5.5 3.5.5 5 1.5 5 1.5 1-1.5 1-1.5-.5-1.5-.5-1.5-.5-.5-.5-.5v-1.5-1.5l1.5-.5 1.5-.5 1-1.5 1-1.5v-1.5-1.5l-17.5 1.5-17.5 1.5 2.5-7.5 2.5-7.5 9-4 9-4 8.5-3 8.5-3v-1.5-1.5l.5-3 .5-3-9.5 5.5-9.5 5.5h-9-9l-6.5 4-6.5 4-11-1-11-1-1 6.5-1 6.5-13.5 1-13.5 1-1.5-10.5-1.5-10.5-3-15-3-15 2.5-12.5 2.5-12.5h-.5-.5l-.5 1-.5 1-.5 1.5-.5 1.5v3 3l-.5 1-.5 1v1 1l-.5 1.5-.5 1.5-.5 1.5-.5 1.5-.5 2-.5 2 .5 1 .5 1v1.5 1.5l2.5 23.5 2.5 23.5v7.5 7.5l-13.5 4-13.5 4-13 4-13 4"/><path d="m242 922v1h2 2 1.5 1.5 1 1l1.5-.5 1.5-.5v-1-1h-1-1l-1-.5-1-.5h-1.5-1.5l.5-1.5.5-1.5v-.5-.5l1-1 1-1h-1.5-1.5l-1 1.5-1 1.5-1 1-1 1v.5.5l1.5 1 1.5 1-2 .5-2 .5"/></g><path d="m280 922l42-10 7.5-9 7.5-9-.5-5.5-.5-5.5-12 .5-12 .5-13.5 1-13.5 1 7 11 7 11-10 7-10 7h.5.5" style="fill:#833e1d;stroke:#833e1d"/><path d="m236 921l3 1 .5-.5.5-.5h1 1 2 2l-1.5-1-1.5-1v-.5-.5l1-1 1-1 1-1.5 1-1.5h1.5 1.5l-1.5-8-1.5-8 1-11.5 1-11.5-1-9-1-9 1-19.5 1-19.5-.5-2-.5-2-1-1-1-1-.5-2-.5-2-1-.5-1-.5v2 2l.5 1.5.5 1.5-.5 1-.5 1-.5-1-.5-1-.5-1.5-.5-1.5-.5-.5-.5-.5v-1.5-1.5l1-1 1-1 .5-.5.5-.5 1-.5 1-.5 1 1 1 1 1 1 1 1 1 .5 1 .5 1 .5 1 .5v2.5 2.5 2 2l-1 .5-1 .5h-.5-.5l.5 1 .5 1 1 .5 1 .5.5.5.5.5.5-1 .5-1 1-.5 1-.5 1.5 1 1.5 1h1 1l1.5-1 1.5-1 .5-2.5.5-2.5-1 .5-1 .5-.5 1.5-.5 1.5-2-.5-2-.5h-1-1l-.5-1.5-.5-1.5v-.5-.5l-.5-3.5-.5-3.5-7 4.5-7 4.5.5 23.5.5 23.5-.5 3-.5 3v1.5 1.5l.5 1 .5 1v2 2l-.5 2-.5 2-.5 1.5-.5 1.5v1 1l-.5 2-.5 2-.5 1.5-.5 1.5-1 2-1 2v1.5 1.5l-1 1.5-1 1.5-1.5.5-1.5.5v1.5 1.5l.5.5.5.5.5 1.5.5 1.5-1 1.5-1 1.5v2 2l-.5 1-.5 1 .5-.5.5-.5 1.5.5 1.5.5 1 .5 1 .5" style="fill:#9c7163;stroke:#9c7163"/><path d="m250 919l2 1 11.5-15.5 11.5-15.5h-1.5-1.5l-.5 1.5-.5 1.5-11.5 12-11.5 12-.5 1.5-.5 1.5h1.5 1.5" style="fill:#833e1d;stroke:#833e1d"/><path d="m80 917l34-5 10-4.5 10-4.5-6.5-4.5-6.5-4.5 6.5-8 6.5-8-1.5-15-1.5-15-14 12-14 12 6 1.5 6 1.5-1 4-1 4-7.5 8-7.5 8-9 9-9 9" style="fill:#361803;stroke:#361803"/><path d="m23 916l14-29-11 .5-11 .5-3 5-3 5-4.5-7-4.5-7v1.5 1.5 2 2 2 2 2.5 2.5 2 2 2.5 2.5l11.5 3.5 11.5 3.5" style="fill:#d89e87;stroke:#d89e87"/><path d="m248 915v1l11.5-12 11.5-12-.5-.5-.5-.5-.5-1-.5-1v-.5-.5h-1-1l-.5-.5-.5-.5h-1.5-1.5l-1.5-.5-1.5-.5h-1-1l-.5-.5-.5-.5-.5-.5-.5-.5v-1.5-1.5l-.5-.5-.5-.5.5-1.5.5-1.5v-25.5-25.5l-.5-.5-.5-.5 1.5-1.5 1.5-1.5-.5-1.5-.5-1.5-1 .5-1 .5-.5 1-.5 1-.5-.5-.5-.5-1-.5-1-.5-.5-1-.5-1-.5-.5-.5-.5-1 19.5-1 19.5 1 9 1 9-1 11.5-1 11.5 1.5 8 1.5 8-1 1-1 1" style="fill:#7c5445;stroke:#7c5445"/><path d="m284 914l-1-22-2 10-2 10 2.5 1 2.5 1" style="fill:#361803;stroke:#361803"/><path d="m136 909v1-7.5-7.5l-.5 2.5-.5 2.5.5 1 .5 1 .5.5.5.5 1.5-.5 1.5-.5h2 2l-1.5 1-1.5 1-1 1-1 1-1 1-1 1-1 .5-1 .5h.5.5" style="fill:#833e1d;stroke:#833e1d"/><path d="m43 908v1l1-.5 1-.5h1 1 1 1l.5-.5.5-.5 1-1 1-1 .5-1 .5-1h1 1l1-1 1-1 .5-1 .5-1 .5-.5.5-.5 1-1 1-1 .5-1 .5-1h-1-1l-2 .5-2 .5-1 1-1 1-2 .5-2 .5-.5 1.5-.5 1.5.5 1 .5 1-1 1-1 1-1.5 1-1.5 1-1 .5-1 .5" style="fill:#bf8886;stroke:#bf8886"/><path d="m459 905l8-9-1.5 1.5-1.5 1.5-2.5 3-2.5 3" style="fill:#bd7850;stroke:#bd7850"/><path d="m72 901v1l6.5-13.5 6.5-13.5v-11.5-11.5l-6.5 24.5-6.5 24.5" style="fill:#5b4242;stroke:#5b4242"/><g style="fill:#bd7850;stroke:#bd7850"><path d="m201 900l35-3 1-2 1-2 .5-1.5.5-1.5.5-2 .5-2v-1-1l.5-1.5.5-1.5.5-2 .5-2v-2-2l-.5-1-.5-1-8.5 3-8.5 3-9 4-9 4-2.5 7.5-2.5 7.5"/><path d="m141 894l27-2 1-6.5 1-6.5 11 1 11 1 6.5-4 6.5-4h9 9l9.5-5.5 9.5-5.5-.5-23.5-.5-23.5 7-4.5 7-4.5-1.5-17.5-1.5-17.5-.5-17-.5-17-.5-17.5-.5-17.5 7.5 1.5 7.5 1.5-.5 16-.5 16-1 17-1 17-2 21.5-2 21.5-1-.5-1-.5v.5.5l.5 1.5.5 1.5h1 1l2 .5 2 .5.5-1.5.5-1.5 1-.5 1-.5 1-13.5 1-13.5-.5-15.5-.5-15.5 1.5-16 1.5-16-2-15-2-15-6-10.5-6-10.5-2.5-8.5-2.5-8.5-1.5-16-1.5-16-2-14-2-14 1-6.5 1-6.5 5 2 5 2 7-2.5 7-2.5-1-1-1-1-.5.5-.5.5-.5.5-.5.5h-1-1l-1.5-.5-1.5-.5h-1.5-1.5l-1-.5-1-.5-2 .5-2 .5-1.5-.5-1.5-.5h-1.5-1.5-1.5-1.5l-2-.5-2-.5h-.5-.5-1.5-1.5l-1.5.5-1.5.5-1.5-.5-1.5-.5h-1-1l-6-20-6-20-.5-1-.5-1-.5-1-.5-1v-1-1-1-1l-.5-.5-.5-.5.5-2 .5-2 1-26 1-26 1-1 1-1-1-1-1-1h-1.5-1.5l.5-.5.5-.5 1-1.5 1-1.5v-1-1l.5-2 .5-2h1 1l.5-2.5.5-2.5.5-1 .5-1 .5-1.5.5-1.5-4.5 5.5-4.5 5.5-11 9-11 9-6-12.5-6-12.5v-.5-.5-2-2l-.5-.5-.5-.5-1.5-.5-1.5-.5v2.5 2.5l-.5.5-.5.5.5 1 .5 1-.5 1.5-.5 1.5-.5.5-.5.5-.5 1-.5 1 1 1 1 1 .5 2 .5 2-.5 1.5-.5 1.5.5 1.5.5 1.5 1.5 1 1.5 1v-2-2l-.5-2-.5-2 1.5.5 1.5.5-.5 1.5-.5 1.5 1.5 1 1.5 1 11.5 4.5 11.5 4.5 4 4.5 4 4.5-1.5 17-1.5 17v1.5 1.5l1 2.5 1 2.5.5 2 .5 2v1 1l.5.5.5.5v1 1l.5 1 .5 1v1 1 1 1h-1-1l-.5.5-.5.5v1 1l.5 1 .5 1 .5.5.5.5.5.5.5.5v1 1l.5-1 .5-1 .5-.5.5-.5v1 1l.5.5.5.5.5 2 .5 2 .5 1.5.5 1.5-1 1-1 1v1 1l-.5 1-.5 1-.5 1.5-.5 1.5v1 1 .5.5l-1 1-1 1v.5.5l-6 13.5-6 13.5-6.5 12-6.5 12-3.5 14-3.5 14-4.5 15.5-4.5 15.5 2.5 13.5 2.5 13.5 8.5-1.5 8.5-1.5-10.5 7-10.5 7-1.5 10.5-1.5 10.5 7.5-1 7.5-1 9.5-1.5 9.5-1.5-11 6.5-11 6.5 2 2 2 2-7.5 7-7.5 7-5 2-5 2 3.5 4.5 3.5 4.5-9.5 7-9.5 7 4 1 4 1-9 7-9 7v.5.5l-2.5 12.5-2.5 12.5 3 15 3 15 1.5 10.5 1.5 10.5"/></g><path d="m270 891l1 1 .5-1.5.5-1.5h1.5 1.5l-1-1-1-1-.5-.5-.5-.5h-1-1l-.5-.5-.5-.5-1-1-1-1-1-.5-1-.5-.5-.5-.5-.5-1.5.5-1.5.5-1 .5-1 .5-.5-.5-.5-.5-.5-.5-.5-.5v-1-1l-.5-1-.5-1-.5 1.5-.5 1.5.5.5.5.5v1.5 1.5l.5.5.5.5.5.5.5.5h1 1l1.5.5 1.5.5h1.5 1.5l.5.5.5.5h1 1v.5.5l.5 1 .5 1" style="fill:#5b4242;stroke:#5b4242"/><path d="m287 886l25-8 6.5-6.5 6.5-6.5 6.5-11 6.5-11 .5 9.5.5 9.5 8.5-2.5 8.5-2.5v-3.5-3.5l4.5-7.5 4.5-7.5-4-.5-4-.5-5.5 2.5-5.5 2.5 1-5.5 1-5.5-10 5-10 5-4-3.5-4-3.5-8.5-1.5-8.5-1.5-3.5-6-3.5-6-6 10-6 10v13.5 13.5l1.5 11.5 1.5 11.5" style="fill:#bd7850;stroke:#bd7850"/><path d="m274 879l3 1 1-1 1-1 1-1.5 1-1.5.5.5.5.5.5-2 .5-2-.5-1.5-.5-1.5v-2-2l1.5-26.5 1.5-26.5-8 5-8 5-6.5 10-6.5 10 7.5 1.5 7.5 1.5-.5 5-.5 5-3.5 7.5-3.5 7.5 5.5 4.5 5.5 4.5" style="fill:#361803;stroke:#361803"/><g style="fill:#bf8886;stroke:#bf8886"><path d="m0 876v1l1-.5 1-.5h2 2l1.5-1 1.5-1v-2-2l-2 .5-2 .5-1.5.5-1.5.5-1 .5-1 .5v1.5 1.5"/><path d="m6 866h2 1 1l.5-1 .5-1 .5-.5.5-.5-1-1-1-1-1-.5-1-.5-.5-.5-.5-.5h-2-2l-1.5.5-1.5.5v1.5 1.5l2.5.5 2.5.5.5 1 .5 1"/></g><path d="m418 862l3 1 1.5-.5 1.5-.5.5-2 .5-2h-2-2l-2 .5-2 .5-1.5-.5-1.5-.5v1.5 1.5l1.5.5 1.5.5h.5.5" style="fill:#bd7850;stroke:#bd7850"/><path d="m298 856l3 1-.5-1.5-.5-1.5v-2.5-2.5l1.5-.5 1.5-.5-1.5-1-1.5-1-1.5.5-1.5.5v1.5 1.5l-1 1-1 1 .5 1.5.5 1.5 1 .5 1 .5" style="fill:#9e5834;stroke:#9e5834"/><path d="m85 851v1h1.5 1.5l1-1.5 1-1.5.5-1.5.5-1.5-.5-1.5-.5-1.5-2-.5-2-.5-1-1.5-1-1.5v2.5 2.5l.5 1.5.5 1.5.5 1 .5 1 .5.5.5.5-1 .5-1 .5" style="fill:#5b4242;stroke:#5b4242"/><path d="m119 842h3l1-.5 1-.5.5-.5.5-.5 1-1 1-1h1.5 1.5l.5-.5.5-.5.5-1.5.5-1.5v-1.5-1.5-1-1l.5-1.5.5-1.5.5-1.5.5-1.5.5-1.5.5-1.5-8 11-8 11" style="fill:#361803;stroke:#361803"/><g style="fill:#833e1d;stroke:#833e1d"><path d="m378 838l14-1 2.5-5.5 2.5-5.5 10.5-5 10.5-5 1.5-3.5 1.5-3.5-12.5 5.5-12.5 5.5-8 6.5-8 6.5-1 2.5-1 2.5"/><path d="m407 838h2l1.5-.5 1.5-.5 2-.5 2-.5 1.5-.5 1.5-.5-1-1.5-1-1.5-1.5-.5-1.5-.5h-2.5-2.5l-1 1-1 1h-2-2l1 1.5 1 1.5 1 1 1 1"/></g><path d="m109 836l3 1-.5-1.5-.5-1.5-.5-2-.5-2-1-1-1-1 1-1.5 1-1.5h-1-1l-1.5 1-1.5 1 .5 1.5.5 1.5.5 1.5.5 1.5 1 1.5 1 1.5" style="fill:#361803;stroke:#361803"/><g style="fill:#9e5834;stroke:#9e5834"><path d="m20 826l37-17 7-4 7-4 13-2.5 13-2.5h1.5 1.5l1-.5 1-.5-2-.5-2-.5-1.5-.5-1.5-.5h-1.5-1.5l-1.5-.5-1.5-.5-1.5.5-1.5.5-2 .5-2 .5-1.5.5-1.5.5-2 .5-2 .5-1.5.5-1.5.5-2 .5-2 .5-1.5.5-1.5.5h-1-1l8-9 8-9 12-2 12-2 3-24 3-24-23.5 9.5-23.5 9.5 6-6.5 6-6.5-3-3.5-3-3.5.5-3.5.5-3.5 4.5-3 4.5-3 .5-3.5.5-3.5 5.5-6 5.5-6 16-10.5 16-10.5v-2-2l-1.5-1-1.5-1-.5.5-.5.5h-1.5-1.5-2-2l-2 .5-2 .5-1.5.5-1.5.5-1.5.5-1.5.5h-1-1l-.5 1-.5 1-1.5-.5-1.5-.5h-1-1l-.5 1-.5 1h-1.5-1.5l10.5-6.5 10.5-6.5.5-5 .5-5 4.5-4.5 4.5-4.5 3.5-5.5 3.5-5.5-10 1.5-10 1.5-13 1-13 1h-9.5-9.5l4-4 4-4 14-3.5 14-3.5 17-13.5 17-13.5h-.5-.5l-15.5 3-15.5 3-15.5 1.5-15.5 1.5-27 1-27 1 6-6 6-6 11-5.5 11-5.5 12.5-3 12.5-3 10-7.5 10-7.5 10-4 10-4 2-.5 2-.5 9.5 6 9.5 6 3-15 3-15-3-11-3-11-6 10.5-6 10.5-9 8.5-9 8.5-11.5 6.5-11.5 6.5-12 5.5-12 5.5-12.5 5.5-12.5 5.5-17.5 7.5-17.5 7.5v3.5 3.5 2 2 .5.5l16-2 16-2 16.5-.5 16.5-.5-4.5 3-4.5 3-13 5-13 5-2.5 3.5-2.5 3.5-12.5 6.5-12.5 6.5v19 19 17.5 17.5 2.5 2.5l1.5 4.5 1.5 4.5 13-2.5 13-2.5 3.5 3 3.5 3-3 4-3 4-15 9-15 9v2.5 2.5 2 2 2.5 2.5 2 2l12-2 12-2 13.5-4 13.5-4 13.5-2.5 13.5-2.5-4.5 4-4.5 4-8 5-8 5-12 4.5-12 4.5-14.5 7.5-14.5 7.5v2.5 2.5 2.5 2.5 2 2 2.5 2.5.5.5l1 .5 1 .5 1.5-.5 1.5-.5 1-.5 1-.5.5.5.5.5h1 1l.5-.5.5-.5 1-.5 1-.5.5-.5.5-.5.5.5.5.5.5.5.5.5.5 1 .5 1 .5.5.5.5 1 1 1 1"/><path d="m255 825l1 1 .5-1 .5-1h2 2l2-.5 2-.5.5-1.5.5-1.5 1-1.5 1-1.5v-1.5-1.5l1 .5 1 .5 2-15.5 2-15.5v-15.5-15.5l1-15 1-15 .5-13 .5-13-4.5-12.5-4.5-12.5-6-3.5-6-3.5 2.5-9.5 2.5-9.5 1.5.5 1.5.5-2.5-14-2.5-14-2.5-16-2.5-16-5-2-5-2-1 6.5-1 6.5 2 14 2 14 1.5 16 1.5 16 2.5 8.5 2.5 8.5 6 10.5 6 10.5 2 15 2 15-1.5 16-1.5 16 .5 15.5.5 15.5-1 13.5-1 13.5-.5 2.5-.5 2.5-1.5 1-1.5 1h-1-1l-1.5-1-1.5-1 .5 1.5.5 1.5-1.5 1.5-1.5 1.5"/></g><path d="m80 824v1h.5.5l1-1 1-1 2-1.5 2-1.5 1-1 1-1 1.5-1 1.5-1 1-1 1-1 1.5-.5 1.5-.5.5 2 .5 2 2.5 1 2.5 1 1-1 1-1 2-.5 2-.5 1.5-.5 1.5-.5 1-1.5 1-1.5 1.5-.5 1.5-.5v-.5-.5-.5-.5h1.5 1.5l.5-.5.5-.5.5-.5.5-.5.5-1 .5-1h-1.5-1.5l-.5 1-.5 1-.5.5-.5.5h-1-1l-1 .5-1 .5-1.5.5-1.5.5-.5 1-.5 1-.5.5-.5.5-.5.5-.5.5-1 .5-1 .5h-1.5-1.5-1-1l2-13 2-13 2-14.5 2-14.5 2-15.5 2-15.5-.5-.5-.5-.5v-.5-.5l-1.5 1-1.5 1-3 24-3 24v1.5 1.5 1.5 1.5 1 1l-.5 2-.5 2v2 2l-2 .5-2 .5 2 .5 2 .5-1 .5-1 .5h-1.5-1.5l1 .5 1 .5 1.5.5 1.5.5-1 1-1 1-1.5 1.5-1.5 1.5-.5 1-.5 1 .5.5.5.5h1.5 1.5l-1.5.5-1.5.5-.5.5-.5.5-1 .5-1 .5-1 .5-1 .5-1.5-1-1.5-1 .5 1 .5 1 1 1.5 1 1.5-1 1-1 1-1.5 1-1.5 1-1 1-1 1-1.5.5-1.5.5-1 .5-1 .5v1.5 1.5" style="fill:#9c7163;stroke:#9c7163"/><path d="m83 824h2l1.5-.5 1.5-.5 1.5-1 1.5-1 1.5-.5 1.5-.5 2-1.5 2-1.5-.5-2-.5-2-1.5.5-1.5.5-1 1-1 1-1.5 1-1.5 1-1 1-1 1-2 1.5-2 1.5v.5.5" style="fill:#361803;stroke:#361803"/><g style="fill:#833e1d;stroke:#833e1d"><path d="m322 823l31-6 11-5 11-5-14.5 2-14.5 2-13 5-13 5 1 1 1 1"/><path d="m268 819h3l.5-1 .5-1v-1-1l1-1 1-1 1-.5 1-.5.5-.5.5-.5.5-1.5.5-1.5 1-.5 1-.5v-1-1l1-1 1-1 1-1 1-1 .5 1 .5 1 .5.5.5.5 1.5.5 1.5.5-1-.5-1-.5v-2.5-2.5l.5-1.5.5-1.5v-1.5-1.5-1-1l.5-1 .5-1 .5-1 .5-1v-1.5-1.5-1.5-1.5l.5-1.5.5-1.5.5-2 .5-2v-2-2l.5-2 .5-2v-2-2l.5-2 .5-2v-2-2-2-2l.5-1 .5-1v-.5-.5l-2-30-2-30-5.5-21-5.5-21-.5-.5-.5-.5 2.5-29.5 2.5-29.5-1-.5-1-.5v-1-1l.5-2 .5-2v-1.5-1.5-2-2l.5-2 .5-2 1-2 1-2-1-1-1-1v-1-1l-.5-.5-.5-.5-.5 1-.5 1v1 1l-.5.5-.5.5-.5.5-.5.5-.5 1-.5 1h-1-1l-.5-.5-.5-.5-.5-.5-.5-.5h-1.5-1.5v1 1 1 1l-1 1-1 1v2 2l.5.5.5.5-.5 2-.5 2-1 1.5-1 1.5-7 2.5-7 2.5 2.5 16 2.5 16 2.5 14 2.5 14-1.5-.5-1.5-.5-2.5 9.5-2.5 9.5 6 3.5 6 3.5 4.5 12.5 4.5 12.5-.5 13-.5 13-1 15-1 15v15.5 15.5l-2 15.5-2 15.5-.5 1-.5 1-.5 1-.5 1"/></g><path d="m62 818h2l1.5-.5 1.5-.5 1.5-1 1.5-1-1.5-.5-1.5-.5-1-.5-1-.5v-2-2l-2 .5-2 .5-.5 1.5-.5 1.5v1 1l1 1.5 1 1.5" style="fill:#9e5834;stroke:#9e5834"/><path d="m251 818l2-1v-2-2-2.5-2.5l-1-.5-1-.5-1-.5-1-.5-1.5 1-1.5 1v1.5 1.5l1 1 1 1 .5 2 .5 2 .5.5.5.5h.5.5" style="fill:#361803;stroke:#361803"/><path d="m136 817v1h.5.5v-.5-.5-.5-.5l4.5-15 4.5-15 5-12.5 5-12.5 4-14 4-14 3-22 3-22 4.5-15.5 4.5-15.5 3.5-14 3.5-14 6.5-12 6.5-12v-.5-.5-2-2l.5-1 .5-1 .5-1.5.5-1.5.5-.5.5-.5.5-1 .5-1 .5-1.5.5-1.5 1-1 1-1 .5-.5.5-.5.5-1 .5-1 1-1 1-1v-1-1l.5-1 .5-1v-.5-.5l-1 .5-1 .5-.5 1-.5 1-.5.5-.5.5h-1-1l-1 1-1 1-.5.5-.5.5h-.5-.5l-1 1-1 1-.5.5-.5.5-.5 1-.5 1 1 1 1 1v1 1l-.5 1-.5 1-2-.5-2-.5v-2-2l-.5-1.5-.5-1.5-.5-1-.5-1h-1-1l-1.5.5-1.5.5-1-1-1-1h-1-1-1.5-1.5l-1.5.5-1.5.5h-1-1-1.5-1.5l-1.5.5-1.5.5h-1-1l-.5.5-.5.5h-1-1l-1.5 1-1.5 1 7.5 9.5 7.5 9.5-2.5 15-2.5 15-7 11-7 11 5 4.5 5 4.5-5 13-5 13-1 14.5-1 14.5-4 14-4 14-5 12.5-5 12.5-10 16-10 16v.5.5h2.5 2.5 2.5 2.5 2 2l2-.5 2-.5.5 1.5.5 1.5v2 2" style="fill:#833e1d;stroke:#833e1d"/><path d="m137 816v1l9-7 9-7-4-1-4-1 9.5-7 9.5-7-3.5-4.5-3.5-4.5 5-2 5-2 7.5-7 7.5-7-2-2-2-2 11-6.5 11-6.5-9.5 1.5-9.5 1.5-7.5 1-7.5 1 1.5-10.5 1.5-10.5 10.5-7 10.5-7-8.5 1.5-8.5 1.5-2.5-13.5-2.5-13.5-3 22-3 22-4 14-4 14-5 12.5-5 12.5-4.5 15-4.5 15" style="fill:#9e5834;stroke:#9e5834"/><path d="m101 815h2 1.5 1.5v-.5-.5l1.5-11.5 1.5-11.5 2-11.5 2-11.5 2-15 2-15 5-12.5 5-12.5-4-2-4-2-.5 2-.5 2-.5 1.5-.5 1.5-.5.5-.5.5-.5 1-.5 1-.5 1.5-.5 1.5v1 1 1.5 1.5l-.5 1-.5 1-2 15.5-2 15.5-2 14.5-2 14.5-2 13-2 13" style="fill:#f0b197;stroke:#f0b197"/><path d="m243 815l1-2-.5-1.5-.5-1.5v-2-2l1 .5 1 .5.5 2 .5 2v-1.5-1.5l1.5-1 1.5-1-1-1-1-1-1-1-1-1-1 .5-1 .5-.5.5-.5.5-1 1-1 1v1.5 1.5l.5.5.5.5.5 1.5.5 1.5.5 1 .5 1" style="fill:#572e18;stroke:#572e18"/><path d="m73 814l3 1 1.5-.5 1.5-.5.5-2 .5-2v-1-1l-1 .5-1 .5-.5.5-.5.5-2 .5-2 .5v1 1 .5.5" style="fill:#9e5834;stroke:#9e5834"/><path d="m106 814v1l1-.5 1-.5.5-.5.5-.5.5-.5.5-.5.5-1 .5-1 1.5-.5 1.5-.5v-.5-.5l3.5-12 3.5-12 4.5-13 4.5-13 2.5-12 2.5-12-4-21-4-21 3-12 3-12 7.5-13 7.5-13v-.5-.5l2.5-14.5 2.5-14.5-7-8-7-8 2.5 13.5 2.5 13.5-8.5 23.5-8.5 23.5 3.5-27.5 3.5-27.5h-.5-.5l-5.5 28-5.5 28v2 2l1 .5 1 .5v1.5 1.5l-.5 2-.5 2v2 2l.5 1.5.5 1.5v1 1l-.5 1-.5 1v2 2l-.5.5-.5.5v1.5 1.5l-1 1-1 1-.5 1-.5 1v1.5 1.5l4 2 4 2-5 12.5-5 12.5-2 15-2 15-2 11.5-2 11.5-1.5 11.5-1.5 11.5" style="fill:#d89e87;stroke:#d89e87"/><path d="m258 814l4-43 1-17 1-17 .5-16 .5-16-7.5-1.5-7.5-1.5 6.5 7.5 6.5 7.5-1 14.5-1 14.5-3 18.5-3 18.5.5-13.5.5-13.5-3-27-3-27 .5 17.5.5 17.5.5 17 .5 17 1.5 17.5 1.5 17.5.5 3.5.5 3.5 1 .5 1 .5" style="fill:#bf8886;stroke:#bf8886"/><path d="m318 811l51-11 15-2 15-2 13-4.5 13-4.5 10-7 10-7 13-1.5 13-1.5 13.5-2.5 13.5-2.5 15-3 15-3v-2-2-2-2-2.5-2.5-2-2-2-2-2.5-2.5-2-2-2.5-2.5-2-2-2.5-2.5-.5-.5l-18.5 8-18.5 8-10.5 4.5-10.5 4.5 2.5 2 2.5 2v3 3l-12.5 5-12.5 5-2-4-2-4-10 2.5-10 2.5-13 3-13 3-9 5.5-9 5.5-10.5 4.5-10.5 4.5-12.5 4-12.5 4-13 4-13 4 4 6.5 4 6.5" style="fill:#833e1d;stroke:#833e1d"/><g style="fill:#9e5834;stroke:#9e5834"><path d="m92 810l2-1 1-.5 1-.5.5-.5.5-.5 1.5-.5 1.5-.5h-1.5-1.5l-.5-.5-.5-.5.5-1 .5-1v-2-2l-1 .5-1 .5-.5.5-.5.5v1 1h-1-1l-.5.5-.5.5-.5.5-.5.5-.5 1.5-.5 1.5 1.5 1 1.5 1"/><path d="m117 809v1l10-16 10-16 5-12.5 5-12.5 4-14 4-14 1-14.5 1-14.5 5-13 5-13-5-4.5-5-4.5 7-11 7-11 2.5-15 2.5-15-7.5-9.5-7.5-9.5-1.5-.5-1.5-.5-1 .5-1 .5.5.5.5.5 1 .5 1 .5 2.5 12 2.5 12-3.5 13-3.5 13-7.5 10.5-7.5 10.5-5.5 16-5.5 16 1 .5 1 .5 6 6.5 6 6.5 1 14.5 1 14.5-6 12-6 12-6 21.5-6 21.5-.5 1-.5 1-.5.5-.5.5-.5.5-.5.5h-1.5-1.5"/></g><path d="m114 808v1l1-.5 1-.5h1 1l.5-.5.5-.5.5-1 .5-1 3.5-15 3.5-15 5-13 5-13 1-13.5 1-13.5-3-13-3-13-1-.5-1-.5-1-.5-1-.5-1-1-1-1 4 21 4 21-2.5 12-2.5 12-4.5 13-4.5 13-3.5 12-3.5 12" style="fill:#bf8886;stroke:#bf8886"/><g style="fill:#bd7850;stroke:#bd7850"><path d="m7 807l3 1 1.5-.5 1.5-.5 1-1.5 1-1.5-1.5-.5-1.5-.5-1.5-1-1.5-1-1 1-1 1-1 1.5-1 1.5 1 .5 1 .5"/><path d="m120 805h3l6-21.5 6-21.5 6-12 6-12-1-14.5-1-14.5-6-6.5-6-6.5 3 13 3 13-1 13.5-1 13.5-5 13-5 13-3.5 15-3.5 15"/></g><g style="fill:#833e1d;stroke:#833e1d"><path d="m0 801v1l14.5-7.5 14.5-7.5 12-4.5 12-4.5 8-5 8-5 4.5-4 4.5-4-13.5 2.5-13.5 2.5-13.5 4-13.5 4-12 2-12 2v1.5 1.5 2.5 2.5 2 2 2.5 2.5 2 2 1.5 1.5"/><path d="m63 799h2l1.5-.5 1.5-.5 2-.5 2-.5 1.5-.5 1.5-.5 2-.5 2-.5 1.5-.5 1.5-.5 2-.5 2-.5 1.5-.5 1.5-.5 1.5.5 1.5.5h1.5 1.5l1.5.5 1.5.5 2-.5 2-.5v-2-2l.5-2 .5-2v-1-1-1.5-1.5l-1.5-.5-1.5-.5-.5.5-.5.5-.5.5-.5.5h-1-1l-.5 1-.5 1-.5.5-.5.5-.5.5-.5.5.5.5.5.5 1 .5 1 .5-.5.5-.5.5h-1-1-1-1l6-5.5 6-5.5-12 2-12 2-8 9-8 9"/></g><path d="m289 799l30-18 8.5-2.5 8.5-2.5 9.5-5.5 9.5-5.5 9-7.5 9-7.5 7-10 7-10-6.5-2-6.5-2-10.5 2.5-10.5 2.5-3.5 4-3.5 4-3.5-2.5-3.5-2.5 4.5-5 4.5-5-11-1-11-1 7.5-10 7.5-10 2-6 2-6-3-6.5-3-6.5-4-4-4-4 3-6.5 3-6.5 3-11 3-11-2-8.5-2-8.5 1-10 1-10 5-8.5 5-8.5-1.5-8.5-1.5-8.5-9-1.5-9-1.5-14 3-14 3-9.5 6-9.5 6-.5 2-.5 2v1 1l1 .5 1 .5-2 30-2 30 5.5 21 5.5 21 2 30.5 2 30.5-.5 1-.5 1v2 2 2 2l-.5 2-.5 2v2 2l-.5 2-.5 2v2 2l-.5 2-.5 2-.5 1.5-.5 1.5v1.5 1.5 1.5 1.5 1.5 1.5l-.5 1.5-.5 1.5v1.5 1.5 1.5 1.5" style="fill:#bd7850;stroke:#bd7850"/><path d="m91 788h2 1 1l.5-.5.5-.5-1-.5-1-.5-.5-.5-.5-.5.5-.5.5-.5.5-.5.5-.5.5-1 .5-1h1 1l.5-.5.5-.5.5-.5.5-.5 1.5.5 1.5.5v-1.5-1.5l-6 5.5-6 5.5" style="fill:#9e5834;stroke:#9e5834"/><path d="m457 786l14-9-9 4-9 4 2 .5 2 .5" style="fill:#bd7850;stroke:#bd7850"/><path d="m255 783l6-37 1-14.5 1-14.5-6.5-7.5-6.5-7.5 3 27 3 27-.5 13.5-.5 13.5" style="fill:#d89e87;stroke:#d89e87"/><g style="fill:#833e1d;stroke:#833e1d"><path d="m89 759l3 1 1-1 1-1h2.5 2.5l1-1 1-1 1.5-1 1.5-1v-1-1l-2 .5-2 .5-1.5.5-1.5.5-1.5.5-1.5.5-1.5 1-1.5 1-1 1-1 1"/><path d="m0 758v1l15-9 15-9 3-4 3-4-3.5-3-3.5-3-13 2.5-13 2.5-1.5-4.5-1.5-4.5v2 2 2 2 2.5 2.5 2 2 2.5 2.5 2 2 2.5 2.5 2 2"/></g><path d="m62 748l47-19 1.5-1 1.5-1-1-2-1-2v-2-2l1.5-1 1.5-1 1-1 1-1 .5-2 .5-2 .5-1.5.5-1.5 1-1 1-1 .5-1 .5-1 1-1 1-1v-1.5-1.5l.5-.5.5-.5v-2-2l.5-1 .5-1v-1-1l-.5-1.5-.5-1.5v-2-2l.5-2 .5-2v-1.5-1.5l-1-.5-1-.5-16 10.5-16 10.5-5.5 6-5.5 6-.5 3.5-.5 3.5-4.5 3-4.5 3-.5 3.5-.5 3.5 3 3.5 3 3.5-6 6.5-6 6.5" style="fill:#bd7850;stroke:#bd7850"/><path d="m295 747v1l-2-30.5-2-30.5 2 30 2 30" style="fill:#9e5834;stroke:#9e5834"/><path d="m112 728l1 1 .5-1 .5-1v-1.5-1.5-1-1l.5-1.5.5-1.5.5-1 .5-1 .5-.5.5-.5.5-1.5.5-1.5.5-2 .5-2v-1.5-1.5l-1 1-1 1-.5 1.5-.5 1.5-.5 2-.5 2-1 1-1 1-1.5 1-1.5 1v2 2l1 2 1 2v.5.5" style="fill:#bf8886;stroke:#bf8886"/><g style="fill:#bd7850;stroke:#bd7850"><path d="m357 724l22-11-3-5-3-5-8.5 8.5-8.5 8.5.5 2 .5 2"/><path d="m429 708l25-6 7.5-8.5 7.5-8.5-2.5-2.5-2.5-2.5-8 3.5-8 3.5 3-5 3-5-5 .5-5 .5-4.5 10.5-4.5 10.5-3 4.5-3 4.5"/><path d="m385 699h2l1-1 1-1 2-.5 2-.5.5-1.5.5-1.5-1.5 1-1.5 1-1.5-.5-1.5-.5-2 .5-2 .5-1 1-1 1v1 1h1.5 1.5"/><path d="m129 694l2 1 5.5-16 5.5-16 7.5-10.5 7.5-10.5 3.5-13 3.5-13-2.5-12-2.5-12-1 .5-1 .5-2-.5-2-.5-2.5 25-2.5 25-7.5 13-7.5 13-3 12-3 12 1 1 1 1"/></g><path d="m139 692l13-20-5 6-5 6-1.5 4-1.5 4" style="fill:#833e1d;stroke:#833e1d"/><g style="fill:#bd7850;stroke:#bd7850"><path d="m362 686l25-12 6-8 6-8 3-8 3-8-8 3.5-8 3.5-5 9-5 9-4 7.5-4 7.5-4.5 2-4.5 2"/><path d="m436 678l23-12 6.5-6.5 6.5-6.5-10.5 2.5-10.5 2.5-9 6.5-9 6.5 1.5 3.5 1.5 3.5"/><path d="m89 676h3l.5-1 .5-1h1 1l1.5.5 1.5.5.5-1 .5-1h1 1l1.5-.5 1.5-.5 1.5-.5 1.5-.5 2-.5 2-.5h2 2 1.5 1.5l.5-.5.5-.5 1.5 1 1.5 1 5.5-28 5.5-28v-.5-.5l.5-1.5.5-1.5v-2-2-2.5-2.5l-.5-1.5-.5-1.5-.5-1.5-.5-1.5-17 13.5-17 13.5-14 3.5-14 3.5-4 4-4 4h9.5 9.5l13-1 13-1 10-1.5 10-1.5-3.5 5.5-3.5 5.5-4.5 4.5-4.5 4.5-.5 5-.5 5-10.5 6.5-10.5 6.5"/></g><path d="m127 670l17-47-2.5-13.5-2.5-13.5h-.5-.5l-.5 1-.5 1-1 .5-1 .5v1 1 1 1 1 1 1 1 1.5 1.5 1 1l-.5 1.5-.5 1.5-3.5 27.5-3.5 27.5" style="fill:#f0b197;stroke:#f0b197"/><path d="m237 655h2l.5-1.5.5-1.5-.5-2-.5-2v-2-2-2.5-2.5l-.5-.5-.5-.5-1-.5-1-.5-1-1-1-1-.5-1.5-.5-1.5h-1-1v2.5 2.5l1 1 1 1 1.5 1 1.5 1v2 2 2.5 2.5l-.5 1.5-.5 1.5 1 1 1 1" style="fill:#bf8886;stroke:#bf8886"/><path d="m0 644v1l12.5-6.5 12.5-6.5 2.5-3.5 2.5-3.5 13-5 13-5 4.5-3 4.5-3-16.5.5-16.5.5-16 2-16 2v3 3 2 2 2.5 2.5 2 2 2.5 2.5 2 2 1 1" style="fill:#bd7850;stroke:#bd7850"/><path d="m279 644l1 1 2-30 2-30-2.5 29.5-2.5 29.5" style="fill:#9e5834;stroke:#9e5834"/><path d="m438 642l25-8 2-5 2-5 2.5-10.5 2.5-10.5 3.5-8 3.5-8-1-8-1-8 5-9.5 5-9.5 5.5-9.5 5.5-9.5 7.5-7 7.5-7-10-2-10-2-13 3.5-13 3.5-12 6-12 6-3 7.5-3 7.5-1.5 9.5-1.5 9.5-9.5 8-9.5 8-8.5 7.5-8.5 7.5 8-2.5 8-2.5 8.5-.5 8.5-.5h5 5l-1.5 5-1.5 5-1 5-1 5-8 7.5-8 7.5 6.5 6.5 6.5 6.5 2.5.5 2.5.5" style="fill:#bd7850;stroke:#bd7850"/><path d="m148 641v1l2.5-25 2.5-25h-2-2l-2 .5-2 .5-1.5-.5-1.5-.5-1.5.5-1.5.5-.5 1.5-.5 1.5h.5.5l7 8 7 8-2.5 14.5-2.5 14.5" style="fill:#bf8886;stroke:#bf8886"/><path d="m238 638l1 1-1.5-15-1.5-15-5.5-9.5-5.5-9.5v3.5 3.5l1-1.5 1-1.5.5 2 .5 2 1.5.5 1.5.5-1.5 1-1.5 1-.5.5-.5.5.5 2 .5 2 .5 1.5.5 1.5.5 2 .5 2 .5 2 .5 2v2 2 2.5 2.5 2 2 1 1h1 1l.5 1.5.5 1.5 1 1 1 1 1 .5 1 .5" style="fill:#d89e87;stroke:#d89e87"/><path d="m217 624h2l1-1 1-1h1.5 1.5l1.5-.5 1.5-.5v-2.5-2.5-2-2l1.5.5 1.5.5-.5-2-.5-2-.5-1.5-.5-1.5-.5-2-.5-2 .5-.5.5-.5 1.5-1 1.5-1-1.5-.5-1.5-.5-.5-2-.5-2-1 1.5-1 1.5-2.5 8-2.5 8-1.5 5.5-1.5 5.5" style="fill:#f4976b;stroke:#f4976b"/><path d="m133 614v1h.5.5l.5-1.5.5-1.5v-1-1-1.5-1.5-1-1-1-1-1-1-1-1l1-.5 1-.5.5-1 .5-1 .5-1.5.5-1.5 1.5-.5 1.5-.5 1.5.5 1.5.5 2-.5 2-.5h2 2l2 .5 2 .5 1-.5 1-.5-1-.5-1-.5-.5-.5-.5-.5 1-.5 1-.5 1.5.5 1.5.5 1.5-1 1.5-1h1 1l.5-.5.5-.5h1 1l1.5-.5 1.5-.5h1.5 1.5 1 1l1.5-.5 1.5-.5h1.5 1.5 1 1l1 1 1 1 1.5-.5 1.5-.5v-.5-.5l-1-.5-1-.5-1-1-1-1 .5-1.5.5-1.5 1-1.5 1-1.5.5-1.5.5-1.5.5-2 .5-2 .5-1.5.5-1.5.5-2 .5-2 .5-1.5.5-1.5 1-1.5 1-1.5 1-1.5 1-1.5v-1.5-1.5l.5-.5.5-.5.5-1 .5-1v-.5-.5l.5-1 .5-1-.5-2-.5-2-1.5-.5-1.5-.5.5-1 .5-1v-1-1l.5-1.5.5-1.5-1-1.5-1-1.5-1-2-1-2h-1.5-1.5-1.5-1.5l-1.5-.5-1.5-.5h-1-1l-.5-.5-.5-.5h-1-1l-1-.5-1-.5h-1-1-1-1l-.5-.5-.5-.5h-2-2l1.5 1 1.5 1h2 2l2.5 7.5 2.5 7.5 5 9 5 9-.5 1.5-.5 1.5-.5 1.5-.5 1.5-.5 2-.5 2-.5 1.5-.5 1.5-1 1.5-1 1.5-.5 1.5-.5 1.5-.5 2-.5 2-.5 1.5-.5 1.5-1 .5-1 .5-23.5 4-23.5 4 6-27.5 6-27.5-.5-.5-.5-.5 1-1 1-1 .5-.5.5-.5.5-1 .5-1 1-1 1-1 1.5-.5 1.5-.5 1.5-1 1.5-1 1.5-.5 1.5-.5 1.5-1 1.5-1 1.5-.5 1.5-.5h2 2l-1-.5-1-.5h-1-1-1.5-1.5l-2-1-2-1-2-1-2-1h-1.5-1.5-3-3-1.5-1.5-1.5-1.5l-.5-1-.5-1v-2.5-2.5-.5-.5-1.5-1.5-1.5-1.5l-1.5-.5-1.5-.5-1 1.5-1 1.5-.5 2.5-.5 2.5v1.5 1.5l-.5 1-.5 1 1.5.5 1.5.5 1-.5 1-.5 3 11 3 11-3 15-3 15v2 2l-.5 2-.5 2-.5 1.5-.5 1.5v2.5 2.5l-.5 1.5-.5 1.5-.5 1.5-.5 1.5-1.5 1-1.5 1-.5 1.5-.5 1.5 1 1.5 1 1.5h.5.5l.5 1.5.5 1.5.5 1.5.5 1.5v2.5 2.5 2 2l-.5 1.5-.5 1.5" style="fill:#9c7163;stroke:#9c7163"/><path d="m15 607l54-2 15.5-1.5 15.5-1.5 15.5-3 15.5-3-1-1.5-1-1.5.5-1.5.5-1.5 1.5-1 1.5-1 .5-1.5.5-1.5.5-1.5.5-1.5v-2.5-2.5l.5-1.5.5-1.5.5-2 .5-2v-2-2l-9.5-6-9.5-6-2 .5-2 .5-10 4-10 4-10 7.5-10 7.5-12.5 3-12.5 3-11 5.5-11 5.5-6 6-6 6" style="fill:#833e1d;stroke:#833e1d"/><path d="m199 605v1l6-13.5 6-13.5-.5 1-.5 1v1 1l-1 1-1 1-.5 1-.5 1-.5.5-.5.5-1 1-1 1-.5 1.5-.5 1.5-.5 1-.5 1-.5.5-.5.5-.5 1.5-.5 1.5-.5 1-.5 1v2 2" style="fill:#9e5834;stroke:#9e5834"/><path d="m0 601v1l17.5-7.5 17.5-7.5 12.5-5.5 12.5-5.5 12-5.5 12-5.5 11.5-6.5 11.5-6.5 9-8.5 9-8.5 6-10.5 6-10.5-1 .5-1 .5-.5 1-.5 1-1 1-1 1-1 1.5-1 1.5-1 1-1 1-1 1.5-1 1.5-1 1-1 1h-1-1l.5-2 .5-2 1-1 1-1 1.5-.5 1.5-.5 1-1.5 1-1.5-1-1-1-1h-1.5-1.5l.5-1.5.5-1.5 1.5-1 1.5-1 .5-1.5.5-1.5h1.5 1.5l.5-2.5.5-2.5 1-1.5 1-1.5 1.5.5 1.5.5v-.5-.5-2-2-1-1-1-1l.5-.5.5-.5v-1.5-1.5-1-1l.5-.5.5-.5v-1-1l.5-1 .5-1 .5-.5.5-.5-.5-.5-.5-.5-.5-.5-.5-.5.5-1 .5-1 1-1 1-1 .5-30 .5-30v-1.5-1.5l.5-1.5.5-1.5v-2.5-2.5l-11.5 8-11.5 8-13.5 4-13.5 4-14.5 3.5-14.5 3.5-14 3.5-14 3.5-19.5 6.5-19.5 6.5v3 3 2.5 2.5 2 2 2 2l13-5 13-5 14-4 14-4 14-3.5 14-3.5 2 3 2 3-3.5 2-3.5 2-13 4-13 4-8 2.5-8 2.5-18.5 6-18.5 6v2.5 2.5 2 2 2.5 2.5 2 2l12.5-4.5 12.5-4.5 9.5-3 9.5-3v2 2l-22 6.5-22 6.5v2 2l13.5-4.5 13.5-4.5-6 5-6 5h10.5 10.5l14-4 14-4 12.5-4 12.5-4-10.5 5.5-10.5 5.5-12.5 5.5-12.5 5.5-13 4.5-13 4.5 13.5-3.5 13.5-3.5 6-.5 6-.5-9 6-9 6-1 4.5-1 4.5-4 5-4 5 1.5 1 1.5 1-9 7-9 7 9-.5 9-.5-1.5 5.5-1.5 5.5 4 .5 4 .5-18 11-18 11v2.5 2.5" style="fill:#bd7850;stroke:#bd7850"/><path d="m212 599h2l1-1 1-1 1-1.5 1-1.5 1 1 1 1 1-1.5 1-1.5-1.5-.5-1.5-.5-1-.5-1-.5h-1-1l-1 1-1 1-.5 2-.5 2v1 1" style="fill:#f4976b;stroke:#f4976b"/><path d="m0 595v1l18-11 18-11-4-.5-4-.5 1.5-5.5 1.5-5.5-9 .5-9 .5 9-7 9-7-1.5-1-1.5-1 4-5 4-5 1-4.5 1-4.5 9-6 9-6-6 .5-6 .5-13.5 3.5-13.5 3.5 13-4.5 13-4.5 12.5-5.5 12.5-5.5 10.5-5.5 10.5-5.5-12.5 4-12.5 4-14 4-14 4h-10.5-10.5l6-5 6-5-13.5 4.5-13.5 4.5v19 19 17.5 17.5 7 7" style="fill:#9e5834;stroke:#9e5834"/><path d="m194 595l4 1 .5-1 .5-1v-1-1l-1-1-1-1 .5-1 .5-1 .5-.5.5-.5 1-1 1-1h.5.5l.5-.5.5-.5 1-1 1-1 5.5-10.5 5.5-10.5-.5-2-.5-2-.5-.5-.5-.5v-1-1l-.5.5-.5.5-.5 1-.5 1v-1-1l-.5-.5-.5-.5-.5-.5-.5-.5-.5-1-.5-1v-1-1l.5-.5.5-.5h1 1v-1-1-1-1l-.5-1-.5-1v-1-1l-.5-.5-.5-.5v-1-1l-.5-2-.5-2-1 1-1 1-.5 1-.5 1-.5.5-.5.5-.5.5-.5.5-.5.5-.5.5v1.5 1.5l-.5.5-.5.5v1 1l-1 .5-1 .5-.5 1-.5 1-.5.5-.5.5v1.5 1.5l-.5 1.5-.5 1.5v2 2h1.5 1.5l.5.5.5.5v1.5 1.5 2 2 1 1 1 1 1 1 1.5 1.5l-.5.5-.5.5v1 1 1 1h-1-1l-.5-1-.5-1-1-1-1-1 .5-2 .5-2v-2-2l.5-2 .5-2v-3-3l-1 .5-1 .5v1 1l-.5.5-.5.5v1 1l-.5 1-.5 1-.5 1.5-.5 1.5v1 1 .5.5l-.5 1.5-.5 1.5v1 1l-1 .5-1 .5-.5 1.5-.5 1.5h1 1 1 1v1.5 1.5l.5 1 .5 1 .5 1.5.5 1.5v2 2" style="fill:#5b4242;stroke:#5b4242"/><path d="m134 591l47-8v-.5-.5l-5.5-4-5.5-4-4.5-4-4.5-4 2-9 2-9v-7-7l-8.5-1-8.5-1-.5.5-.5.5-.5 1.5-.5 1.5-6 27.5-6 27.5" style="fill:#dac7cb;stroke:#dac7cb"/><path d="m190 585v1h1 1v-1.5-1.5h-1-1-1-1l.5-1.5.5-1.5 1-.5 1-.5v-1-1l.5-1.5.5-1.5v-.5-.5-1-1l.5-1.5.5-1.5.5-1 .5-1v-1-1l.5-.5.5-.5v-1-1l1-.5 1-.5v-2-2l.5-1.5.5-1.5-1 1.5-1 1.5-1 1.5-1 1.5-.5 1.5-.5 1.5-.5 2-.5 2-.5 1.5-.5 1.5-.5 2-.5 2-.5 1.5-.5 1.5-1 1.5-1 1.5-.5 1.5-.5 1.5 1 1 1 1 1 .5 1 .5" style="fill:#7c5445;stroke:#7c5445"/><path d="m181 582v1l1-.5 1-.5.5-1.5.5-1.5.5-2 .5-2 .5-1.5.5-1.5 1-1.5 1-1.5.5-1.5.5-1.5.5-2 .5-2 .5-1.5.5-1.5.5-1.5.5-1.5-.5-2-.5-2-1 1-1 1-2 .5-2 .5-1.5.5-1.5.5-1.5 1-1.5 1-1 1-1 1h-1-1l4.5-8.5 4.5-8.5-3.5-10-3.5-10h-2-2l-1.5-1-1.5-1h-2-2l-1.5.5-1.5.5-1.5 1-1.5 1-1.5.5-1.5.5-1.5 1-1.5 1-1.5.5-1.5.5-1 1-1 1-.5 1-.5 1 8.5 1 8.5 1v7 7l-2 9-2 9 4.5 4 4.5 4 5.5 4 5.5 4" style="fill:#b59ea6;stroke:#b59ea6"/><path d="m198 582h2v-1-1-1-1l.5-.5.5-.5v-1.5-1.5-1-1-1-1-1-1-2-2-1.5-1.5l-.5-.5-.5-.5h-1.5-1.5v3 3l-.5 2-.5 2v2 2l-.5 2-.5 2 1 1 1 1 .5 1 .5 1" style="fill:#7c5445;stroke:#7c5445"/><path d="m207 582l1-1 .5-1 .5-1 1-.5 1-.5 1-1 1-1v-.5-.5-1-1l.5-1.5.5-1.5.5-1 .5-1v-1-1l1-1 1-1-.5-1.5-.5-1.5-5.5 10.5-5.5 10.5h1 1" style="fill:#572e18;stroke:#572e18"/><path d="m262 582h2l.5-.5.5-.5.5-.5.5-.5 1 1 1 1 1-1.5 1-1.5.5-2 .5-2-.5-.5-.5-.5v-2-2l-.5-.5-.5-.5v-1.5-1.5-1-1-1-1l.5-.5.5-.5v-1.5-1.5l-.5-.5-.5-.5v-1-1-1-1l-2-.5-2-.5h-.5-.5l-2 .5-2 .5-.5 2-.5 2 .5 2 .5 2v2 2 2 2l-.5 2-.5 2-.5 1.5-.5 1.5 1 1.5 1 1.5 1 1.5 1 1.5" style="fill:#7c5445;stroke:#7c5445"/><path d="m259 581l3 1-1-1.5-1-1.5-1-1.5-1-1.5.5-1.5.5-1.5.5-2 .5-2v-2-2-2-2l-.5-2-.5-2 .5-2 .5-2-.5-.5-.5-.5-1-.5-1-.5.5-.5.5-.5.5-.5.5-.5.5-1 .5-1-1.5-.5-1.5-.5-.5-.5-.5-.5-.5-1-.5-1v-2-2l-.5-.5-.5-.5-.5-2-.5-2h-.5-.5l-1-.5-1-.5-2.5-.5-2.5-.5-2-1-2-1-1.5-.5-1.5-.5-.5-.5-.5-.5h-1.5-1.5v.5.5l.5 1 .5 1h1 1 1 1l1 .5 1 .5 2.5 9 2.5 9 4 15 4 15 1 .5 1 .5h1.5 1.5" style="fill:#9c7163;stroke:#9c7163"/><path d="m247 580l3 1 2-.5 2-.5-4-15-4-15-2.5-9-2.5-9 3 24 3 24" style="fill:#bf8886;stroke:#bf8886"/><path d="m225 579h2l1.5.5 1.5.5 1.5-.5 1.5-.5h1.5 1.5l-.5-16-.5-16-11-4-11-4 6 20 6 20" style="fill:#dac7cb;stroke:#dac7cb"/><path d="m237 579l4 1h1.5 1.5 1.5 1.5l-3-24-3-24-1-.5-1-.5h-1-1-1-1l-.5-1-.5-1-2-.5-2-.5h-1.5-1.5l-1-.5-1-.5h-1-1l-1-.5-1-.5h-2-2-1.5-1.5-1-1-.5-.5l-.5 2-.5 2 .5.5.5.5v1 1 1 1l.5 1 .5 1 .5 1 .5 1 11 4 11 4 .5 16 .5 16h.5.5" style="fill:#b59ea6;stroke:#b59ea6"/><path d="m269 569l1 1 1-1 1-1v-1-1-1-1h1.5 1.5l.5.5.5.5.5.5.5.5h1 1l.5-1 .5-1 .5-.5.5-.5.5-.5.5-.5v-1-1l.5-1 .5-1 .5.5.5.5v1 1l1 1 1 1 2-20 2-20-2 4.5-2 4.5-10.5 10-10.5 10 2 .5 2 .5v1 1 1 1l.5.5.5.5v1.5 1.5l-.5.5-.5.5v1 1 1 1 1.5 1.5" style="fill:#572e18;stroke:#572e18"/><path d="m175 560h2l1-1 1-1 1.5-1 1.5-1 1.5-.5 1.5-.5 2-.5 2-.5 1-1 1-1 .5 2 .5 2-5-9-5-9-2.5-7.5-2.5-7.5 3.5 10 3.5 10-4.5 8.5-4.5 8.5" style="fill:#bf8886;stroke:#bf8886"/><path d="m286 560l5-26-3.5 6.5-3.5 6.5 1 6.5 1 6.5" style="fill:#361803;stroke:#361803"/><path d="m259 552l1 1 2-.5 2-.5v-.5-.5l1-1.5 1-1.5 1-1 1-1 .5-1.5.5-1.5.5-2 .5-2v-1.5-1.5-.5-.5l1.5-12.5 1.5-12.5-.5-12-.5-12 1.5-15.5 1.5-15.5 1.5-16 1.5-16 1-17 1-17-4.5-13-4.5-13-2-15-2-15-2.5-15.5-2.5-15.5-6-15-6-15-1.5 1.5-1.5 1.5 1 1 1 1 .5 2 .5 2v2 2l.5 2 .5 2-.5 2-.5 2 1-.5 1-.5 3.5 26 3.5 26 2 12 2 12 6 9 6 9 .5 1 .5 1 .5 1.5.5 1.5-.5 1.5-.5 1.5v2.5 2.5l-.5 1.5-.5 1.5v2.5 2.5 2 2 2.5 2.5l-.5 2.5-.5 2.5-.5 2.5-.5 2.5v1.5 1.5l.5 2.5.5 2.5-2 17-2 17-.5 17.5-.5 17.5v1.5 1.5h-1-1l.5 1 .5 1v2 2 1 1 1 1l.5.5.5.5v1.5 1.5 1 1 1 1l-.5.5-.5.5.5 1 .5 1v1 1 1 1 1 1l-1 .5-1 .5v1.5 1.5l-.5.5-.5.5v-1.5-1.5-1.5-1.5-1-1-1-1-1-1l-.5-1-.5-1v-1-1l-.5-.5-.5-.5-.5-.5-.5-.5v-2-2l-.5-.5-.5-.5-1.5-.5-1.5-.5-1 1-1 1-.5 2-.5 2 .5 1.5.5 1.5v2 2 1 1l-.5 1-.5 1-1 .5-1 .5h-.5-.5v1 1l.5 2 .5 2 .5.5.5.5v2 2l.5 1 .5 1 .5.5.5.5 1.5.5 1.5.5-.5 1-.5 1-.5.5-.5.5-.5.5-.5.5 1 .5 1 .5" style="fill:#bd7850;stroke:#bd7850"/><g style="fill:#833e1d;stroke:#833e1d"><path d="m352 552l43-8 10-6 10-6 8.5-5 8.5-5 7-9 7-9 7-4.5 7-4.5 9-8 9-8 10-5.5 10-5.5 4.5 3.5 4.5 3.5-3 7.5-3 7.5 1 8 1 8 12.5-4.5 12.5-4.5v-19.5-19.5-18-18-17.5-17.5-8-8l-16.5 17.5-16.5 17.5-8.5 6.5-8.5 6.5-1 6.5-1 6.5-8.5 7.5-8.5 7.5-8.5 6-8.5 6-10 6-10 6-7 7.5-7 7.5-11.5 5.5-11.5 5.5-12 4.5-12 4.5-7.5 10.5-7.5 10.5-3 9.5-3 9.5 6 3 6 3"/><path d="m264 551v1h.5.5l10.5-10 10.5-10 2-4.5 2-4.5v-2.5-2.5l-.5-4-.5-4-.5 2-.5 2v1 1 1 1l-.5.5-.5.5-.5-1.5-.5-1.5v-1.5-1.5l-.5-.5-.5-.5v-1-1-1-1l-.5-1-.5-1-.5-1.5-.5-1.5v-1-1l-.5-1-.5-1-.5-1.5-.5-1.5v-1-1-1.5-1.5l.5-1.5.5-1.5.5-.5.5-.5v-1.5-1.5l2.5-22 2.5-22v-.5-.5-1.5-1.5-1-1-1-1-1.5-1.5-2-2-1-1-1-1-1-1-1.5-1.5-1-1-1-1-1-1-1.5-1.5-1-1-1-1-1.5-1.5l-2-15.5-2-15.5-3-14.5-3-14.5-3.5-20.5-3.5-20.5-.5-.5-.5-.5-.5-1.5-.5-1.5-.5-1.5-.5-1.5-1-1.5-1-1.5-.5-1.5-.5-1.5v-2.5-2.5l-1-1-1-1-.5-1-.5-1-1.5-.5-1.5-.5-.5-1-.5-1-.5-.5-.5-.5h-1-1l5 13 5 13 3 14.5 3 14.5 2 16 2 16 4 14 4 14-1 16.5-1 16.5-1.5 16.5-1.5 16.5-1.5 15-1.5 15 2.5 13.5 2.5 13.5-5 12.5-5 12.5v1.5 1.5l-.5 2-.5 2-.5 1.5-.5 1.5-1 1-1 1-1 1.5-1 1.5"/></g><path d="m200 546v1l1-.5 1-.5v-1-1l.5-.5.5-.5v-1.5-1.5l.5-.5.5-.5.5-.5.5-.5.5-.5.5-.5.5-1 .5-1 1-1 1-1-1-2.5-1-2.5v-1.5-1.5h-1.5-1.5l-.5 1-.5 1 1 1 1 1v1.5 1.5l-1.5.5-1.5.5h-1-1l1-1.5 1-1.5-1-1-1-1-1-1.5-1-1.5h-1.5-1.5l1 2 1 2 1 1.5 1 1.5-.5 1.5-.5 1.5v1 1l-.5 1-.5 1 1.5.5 1.5.5.5 2 .5 2-.5 1-.5 1" style="fill:#7c5445;stroke:#7c5445"/><path d="m266 538l1-1v-1.5-1.5-.5-.5l.5-1.5.5-1.5-.5-1.5-.5-1.5v-2.5-2.5-2-2l-1.5-1-1.5-1h-.5-.5v2 2l.5.5.5.5.5.5.5.5v1 1l.5 1 .5 1v1 1 1 1 1 1 1.5 1.5 1.5 1.5" style="fill:#f0b197;stroke:#f0b197"/><path d="m21 535l3 1 1.5-.5 1.5-.5 1-1.5 1-1.5 1.5-.5 1.5-.5 1-1.5 1-1.5-1.5.5-1.5.5-2 .5-2 .5-1 1-1 1-1.5.5-1.5.5-.5 1-.5 1" style="fill:#bd7850;stroke:#bd7850"/><path d="m145 535l1 1 .5-1.5.5-1.5-1 1-1 1" style="fill:#dd97a8;stroke:#dd97a8"/><path d="m270 535v1l5-12.5 5-12.5-2.5-13.5-2.5-13.5 1.5-15 1.5-15 1.5-16.5 1.5-16.5 1-16.5 1-16.5-4-14-4-14-2-16-2-16-3-14.5-3-14.5-5-13-5-13-1-.5-1-.5h-1.5-1.5l6 15 6 15 2.5 15.5 2.5 15.5 2 15 2 15 4.5 13 4.5 13-1 17-1 17-1.5 16-1.5 16-1.5 15.5-1.5 15.5.5 12 .5 12-1.5 12.5-1.5 12.5" style="fill:#9e5834;stroke:#9e5834"/><path d="m200 533h2l1.5-.5 1.5-.5v-1.5-1.5l-1-1-1-1 .5-1 .5-1h1.5 1.5l1.5-17 1.5-17-4-4.5-4-4.5-11.5-4.5-11.5-4.5-7.5 17-7.5 17 .5-1.5.5-1.5-.5-.5-.5-.5.5-1 .5-1v-1-1-1-1l-.5-.5-.5-.5.5-1 .5-1v-1-1h-1-1-1-1v1 1 1 1l-.5 1-.5 1v1 1h-1-1-2-2l-1.5.5-1.5.5-1 .5-1 .5h-1.5-1.5l-.5.5-.5.5-.5-.5-.5-.5.5-.5.5-.5v-1.5-1.5l.5-.5.5-.5v-1-1h-1-1l-.5 1-.5 1-.5 1.5-.5 1.5-.5.5-.5.5-.5 1-.5 1v2 2l-.5 1-.5 1v2.5 2.5l.5-1 .5-1 .5.5.5.5h1 1l.5-1 .5-1-.5-.5-.5-.5v-1-1-1-1l.5-.5.5-.5.5.5.5.5 1-.5 1-.5-.5.5-.5.5v1 1l-.5.5-.5.5.5 1 .5 1 .5.5.5.5.5.5.5.5v1 1l-1 .5-1 .5h3 3 1.5 1.5l-1-.5-1-.5.5-1 .5-1 1.5-.5 1.5-.5.5-2 .5-2 1-1 1-1 .5 2 .5 2 .5 1.5.5 1.5 1 1.5 1 1.5v1 1h-1.5-1.5-1-1l2 1 2 1h1.5 1.5 1 1l1 .5 1 .5h2 2l.5.5.5.5h1 1 1 1l1 .5 1 .5h1 1l.5.5.5.5h1 1l1.5.5 1.5.5h1.5 1.5 1.5 1.5 1.5 1.5l1 1.5 1 1.5 1 1 1 1-1 1.5-1 1.5" style="fill:#5b4242;stroke:#5b4242"/><path d="m250 533l2 1v-.5-.5-2-2l-1-.5-1-.5-1.5-.5-1.5-.5v-1.5-1.5h-1-1l-1 1.5-1 1.5-1.5.5-1.5.5.5 1 .5 1 2 1 2 1 2.5.5 2.5.5" style="fill:#9e5834;stroke:#9e5834"/><path d="m252 533v1h.5.5v-1-1-3-3l2.5-15 2.5-15-8-1-8-1-4 17-4 17h1.5 1.5l.5.5.5.5 1.5.5 1.5.5-.5-1-.5-1 1.5-.5 1.5-.5 1-1.5 1-1.5h1 1v1.5 1.5l1.5.5 1.5.5 1 .5 1 .5v2 2" style="fill:#b25767;stroke:#b25767"/><g style="fill:#f4976b;stroke:#f4976b"><path d="m267 533v1l1-.5 1-.5v-1-1-1-1-1-1l-.5-1-.5-1 .5-.5.5-.5v-1-1-1-1-1.5-1.5l-.5-.5-.5-.5v-1-1-1-1-2-2l-1 .5-1 .5.5 1 .5 1h-1.5-1.5v2.5 2.5l1.5 1 1.5 1v2 2 2.5 2.5l.5 1.5.5 1.5-.5 1.5-.5 1.5"/><path d="m254 532l2-1 .5-1 .5-1v-1-1-2-2l-.5-1.5-.5-1.5.5-2 .5-2 1-1 1-1 1.5.5 1.5.5-.5-1.5-.5-1.5-.5-.5-.5-.5-1 .5-1 .5-1 .5-1 .5-.5 1.5-.5 1.5-.5 1-.5 1 .5 1 .5 1v2.5 2.5l-.5 1.5-.5 1.5-.5-1-.5-1v3 3h.5.5"/><path d="m122 529h2l1-1 1-1 1-1.5 1-1.5 1-1 1-1 1-1.5 1-1.5 1-1 1-1 .5-1 .5-1-1.5-.5-1.5-.5.5-1 .5-1v-1.5-1.5h-1.5-1.5l-.5 1.5-.5 1.5-1.5 1-1.5 1-.5 1.5-.5 1.5h1.5 1.5l1 1 1 1-1 1.5-1 1.5-1.5.5-1.5.5-1 1-1 1-.5 2-.5 2"/></g><path d="m230 528l4 1v-.5-.5l4-17 4-17 8 1 8 1-2.5 15-2.5 15 .5 1 .5 1 .5-1.5.5-1.5v-2.5-2.5l-.5-1-.5-1v-.5-.5l4-13 4-13 1.5-17 1.5-17v-2.5-2.5-1-1l-.5.5-.5.5v1 1 1.5 1.5 1 1 1 1 1 1h-.5-.5l-.5.5-.5.5v1 1l-.5.5-.5.5-.5-1-.5-1v-1-1l-.5-.5-.5-.5-.5-1-.5-1-8-10-8-10 2 10 2 10-.5 1-.5 1-1 1-1 1v1.5 1.5l-.5 1.5-.5 1.5-1 .5-1 .5.5 1.5.5 1.5-.5.5-.5.5h-1.5-1.5l-1.5-.5-1.5-.5v-1-1h-1-1l-.5.5-.5.5-1 .5-1 .5v1 1l.5.5.5.5-.5 1.5-.5 1.5.5 12.5.5 12.5-6.5 11-6.5 11h2 2l1 .5 1 .5h1 1l1 .5 1 .5h1.5 1.5" style="fill:#bf8886;stroke:#bf8886"/><path d="m212 526h2 1.5 1.5l6.5-11 6.5-11-.5-12.5-.5-12.5-.5-.5-.5-.5v-1.5-1.5-1-1l-.5-.5-.5-.5-.5-1-.5-1-.5-.5-.5-.5-.5-.5-.5-.5v-1-1-1.5-1.5l-.5-.5-.5-.5-.5-.5-.5-.5v-1-1l-1-.5-1-.5-1-1-1-1-.5-.5-.5-.5-.5 2.5-.5 2.5 1 .5 1 .5 1.5.5 1.5.5.5 2 .5 2-.5 2.5-.5 2.5.5 1 .5 1-.5.5-.5.5-.5.5-.5.5-.5.5-.5.5v1.5 1.5l.5.5.5.5v1 1 1 1l.5.5.5.5-.5 1-.5 1v-1-1l-.5.5-.5.5-.5.5-.5.5-1-.5-1-.5-1-1-1-1-.5-2-.5-2 .5-1.5.5-1.5-.5-1.5-.5-1.5-1 26-1 26h.5.5" style="fill:#dd97a8;stroke:#dd97a8"/><path d="m292 523l28-23 7-10 7-10 5.5-9 5.5-9 4-6 4-6 8.5-9 8.5-9 7.5 1.5 7.5 1.5 4 4.5 4 4.5 7-2 7-2 9.5-2 9.5-2 9-9 9-9v-4-4l4.5-4 4.5-4-3-1-3-1-2.5-8-2.5-8 .5-9.5.5-9.5 1-10.5 1-10.5 2-9 2-9-.5-9-.5-9 6.5-9.5 6.5-9.5 2.5 1 2.5 1 8.5-8.5 8.5-8.5 2.5 9 2.5 9 6.5 3.5 6.5 3.5 3.5 8 3.5 8 10-2.5 10-2.5v-19.5-19.5-17.5-17.5-18-18-18-18-17.5-17.5-18-18-17.5-17.5-18-18-11-11h-6.5-6.5-18-18-17.5-17.5-18-18-17.5-17.5-6.5-6.5l-3.5 13.5-3.5 13.5-4.5 13.5-4.5 13.5-5.5 12-5.5 12-7.5 10.5-7.5 10.5-7.5 10-7.5 10-9 9-9 9-9.5 8-9.5 8-10.5 7.5-10.5 7.5-11 6.5-11 6.5-12 6-12 6-13.5 4.5-13.5 4.5-11.5 6-11.5 6-11.5 4.5-11.5 4.5-7 3.5-7 3.5-3.5-4.5-3.5-4.5-12.5 5-12.5 5-9 4-9 4 13-4.5 13-4.5 4 1 4 1-11 4.5-11 4.5-8 2-8 2-11 3.5-11 3.5-3 5-3 5 7-.5 7-.5 10.5-.5 10.5-.5 3 2.5 3 2.5-12.5 8.5-12.5 8.5 14.5-2.5 14.5-2.5 5 1 5 1-11 5.5-11 5.5 14.5-3.5 14.5-3.5-2 3.5-2 3.5-11 2-11 2-10 5.5-10 5.5-7 4-7 4-7 1.5-7 1.5-5.5-5.5-5.5-5.5-3.5 11-3.5 11v19 19 7.5 7.5l14.5-3 14.5-3 2.5 2 2.5 2-10 6-10 6 10-2 10-2 11 .5 11 .5 5.5 1.5 5.5 1.5-3.5 6-3.5 6 10.5.5 10.5.5 11.5-3 11.5-3 13-5 13-5 8.5 2.5 8.5 2.5 1-17 1-17 6-19 6-19 1-1 1-1v-1-1l-.5-.5-.5-.5-.5-.5-.5-.5-.5-1-.5-1h-1-1l-.5-.5-.5-.5-.5-.5-.5-.5-1-.5-1-.5-.5-.5-.5-.5h-1-1l-.5-.5-.5-.5-.5-1-.5-1-1.5-.5-1.5-.5-.5-.5-.5-.5-1-.5-1-.5-1-.5-1-.5-9-9-9-9-7.5-10.5-7.5-10.5 8-9.5 8-9.5 11-7 11-7 11.5-6.5 11.5-6.5 10-7.5 10-7.5 16.5-5.5 16.5-5.5-.5.5-.5.5 2 3.5 2 3.5-1 1.5-1 1.5-.5 1.5-.5 1.5.5 1 .5 1 12 2.5 12 2.5 9.5 9.5 9.5 9.5 9 18 9 18v1.5 1.5 1.5 1.5l.5 1.5.5 1.5v1 1l-1 .5-1 .5-1.5.5-1.5.5-.5.5-.5.5h-1-1v1 1h-1-1l-.5-1-.5-1v-1-1l-2-.5-2-.5-1-1-1-1-1 1-1 1v1.5 1.5 2 2l.5 2 .5 2 1 1 1 1 .5 2 .5 2 .5 2.5.5 2.5 3.5 20.5 3.5 20.5 3 14.5 3 14.5 2 15.5 2 15.5.5 1 .5 1v2.5 2.5 2 2 2 2 2.5 2.5 2 2 2.5 2.5 2 2 2.5 2.5l-.5 1-.5 1-2.5 22-2.5 22 .5 1 .5 1 .5 1 .5 1v1 1 1 1l.5.5.5.5v1 1 1.5 1.5l.5.5.5.5v1 1 1 1l.5 1 .5 1 .5.5.5.5v2 2l.5 4 .5 4 1 2.5 1 2.5" style="fill:#bd7850;stroke:#bd7850"/><g style="fill:#572e18;stroke:#572e18"><path d="m287 519l1-1v-1-1-1-1l.5-2 .5-2v-2-2l-.5-.5-.5-.5-.5-1-.5-1v-1-1-1-1l-.5-.5-.5-.5v-1.5-1.5-1-1l-.5-.5-.5-.5v-1-1-1-1l-.5-1-.5-1-.5-1-.5-1v1.5 1.5l-.5.5-.5.5-.5 1.5-.5 1.5v1.5 1.5 1 1l.5 1.5.5 1.5.5 1 .5 1v1 1l.5 1.5.5 1.5.5 1 .5 1v1 1 1 1l.5.5.5.5v1.5 1.5l.5 1.5.5 1.5"/><path d="m161 518h3v-1-1l-1-1.5-1-1.5-.5-1.5-.5-1.5-.5-2-.5-2-1 1-1 1-.5 2-.5 2-1.5.5-1.5.5-.5 1-.5 1 1 .5 1 .5 2 1 2 1h1 1"/></g><path d="m254 517v1l.5-1 .5-1 .5-1.5.5-1.5 1-.5 1-.5 1-.5 1-.5 1-.5 1-.5.5-.5.5-.5.5-1 .5-1v-1-1-1-1l-.5-.5-.5-.5.5-1 .5-1v-1-1l1-.5 1-.5 1-15.5 1-15.5 1.5-17.5 1.5-17.5v-1.5-1.5-1.5-1.5-2.5-2.5-2-2l.5-2 .5-2v-1.5-1.5-2.5-2.5-2.5-2.5l.5-2 .5-2-4 20-4 20v1.5 1.5l.5 1.5.5 1.5v2 2 2.5 2.5 2 2l-.5 1.5-.5 1.5-1.5 17-1.5 17-4 13-4 13" style="fill:#f0b197;stroke:#f0b197"/><path d="m140 516h3 1.5 1.5l1-.5 1-.5v-1-1l-.5-.5-.5-.5-.5-.5-.5-.5-.5-1-.5-1 .5-.5.5-.5v-1-1l.5-.5.5-.5-1 .5-1 .5-.5-.5-.5-.5-.5.5-.5.5v1 1 1 1l.5.5.5.5-.5 1-.5 1h-1-1l-.5-.5-.5-.5-.5 1-.5 1 .5 1 .5 1" style="fill:#572e18;stroke:#572e18"/><path d="m262 515l1 1h.5.5v-2.5-2.5h1.5 1.5l-.5-1-.5-1 1-.5 1-.5-.5-1-.5-1h1 1v-1.5-1.5l-.5-.5-.5-.5-.5-1.5-.5-1.5-.5-1-.5-1-1 .5-1 .5v1 1l-.5 1-.5 1 .5.5.5.5v1 1 1 1l-.5 1-.5 1-.5.5-.5.5-1 .5-1 .5.5.5.5.5.5 1.5.5 1.5" style="fill:#d89e87;stroke:#d89e87"/><path d="m68 514l3 1 1.5-.5 1.5-.5.5-2 .5-2-.5-.5-.5-.5h-2.5-2.5l-1.5.5-1.5.5-.5 1-.5 1h2 2l-.5 1-.5 1" style="fill:#9e5834;stroke:#9e5834"/><g style="fill:#7c5445;stroke:#7c5445"><path d="m139 508v1l.5-1 .5-1v-2-2l.5-1 .5-1 .5-.5.5-.5.5-1.5.5-1.5.5-1 .5-1h1 1v1 1l-.5.5-.5.5v1.5 1.5l-.5.5-.5.5.5.5.5.5.5-.5.5-.5h1.5 1.5l1-.5 1-.5-6 .5-6 .5v1.5 1.5 1.5 1.5"/><path d="m164 507l15-34-1.5-1-1.5-1v1.5 1.5 1 1 1 1l.5 1 .5 1 .5.5.5.5v1 1h-1-1l-.5-1-.5-1-.5-1-.5-1-.5-1.5-.5-1.5h-1-1l-1-.5-1-.5-.5 1.5-.5 1.5-.5 1-.5 1-1 1.5-1 1.5h2 2l.5-1.5.5-1.5 1 1 1 1v1 1l.5 1 .5 1-1 1-1 1v1 1l-.5 1-.5 1v1 1l-.5.5-.5.5v1.5 1.5l-.5 1.5-.5 1.5h-1-1l.5-2 .5-2 .5-2 .5-2-.5-1.5-.5-1.5v-1.5-1.5h-2.5-2.5l-.5 1-.5 1-.5 1.5-.5 1.5-.5.5-.5.5-.5 1-.5 1-1.5.5-1.5.5-.5.5-.5.5.5.5.5.5-.5 1-.5 1h2 2 1 1v-1-1l.5-1 .5-1v-1-1-1-1h1 1 1 1v1 1l-.5 1-.5 1 .5.5.5.5v1 1 1 1l-.5 1-.5 1 .5.5.5.5-.5 1.5-.5 1.5"/></g><path d="m0 503v1l22-6.5 22-6.5v-2-2l-9.5 3-9.5 3-12.5 4.5-12.5 4.5v.5.5" style="fill:#9e5834;stroke:#9e5834"/><path d="m268 502l1 1 .5-17.5.5-17.5 2-17 2-17-.5-.5-.5-.5-1-1-1-1-1.5 17.5-1.5 17.5-1 15.5-1 15.5.5 1 .5 1 .5 1.5.5 1.5" style="fill:#f4976b;stroke:#f4976b"/><path d="m139 501v1l6-.5 6-.5 1.5-.5 1.5-.5.5-1 .5-1-.5-.5-.5-.5.5-.5.5-.5 1.5-.5 1.5-.5.5-1 .5-1 .5-.5.5-.5.5-1.5.5-1.5-1.5 1-1.5 1-1 1-1 1-1.5 1-1.5 1-1 1-1 1-1 .5-1 .5v-1.5-1.5l1-1 1-1 1.5-1 1.5-1 .5-1.5.5-1.5 1.5-1 1.5-1 .5-1.5.5-1.5 2-1.5 2-1.5v-.5-.5l-1.5-.5-1.5-.5h-1-1l.5-1.5.5-1.5-1 1-1 1h-1-1l-1 .5-1 .5-1.5.5-1.5.5h-1-1l-.5 1-.5 1-.5 1.5-.5 1.5h-1-1l.5-2.5.5-2.5-.5-2-.5-2-1 1-1 1-.5 1-.5 1 .5.5.5.5.5.5.5.5-.5.5-.5.5-.5 1-.5 1v1 1l-.5.5-.5.5v1 1 1.5 1.5l-.5.5-.5.5v1 1 1 1 2 2" style="fill:#9e5834;stroke:#9e5834"/><path d="m166 501h2l.5-1.5.5-1.5v-1.5-1.5l.5-.5.5-.5v-1-1l.5-1 .5-1v-1-1l1-1 1-1-.5-1-.5-1v-1-1l-1-1-1-1-.5 1.5-.5 1.5h-2-2l-.5 1-.5 1-1 1-1 1h2.5 2.5v1.5 1.5l.5 1.5.5 1.5-.5 2-.5 2-.5 2-.5 2" style="fill:#9c7163;stroke:#9c7163"/><path d="m149 498l2-1 1-1 1-1 1.5-1 1.5-1 1-1 1-1 1.5-1 1.5-1 .5-1 .5-1 1-1 1-1 .5-1 .5-1 1-1.5 1-1.5-.5-1-.5-1-1.5 1-1.5 1-2 1.5-2 1.5-.5 1.5-.5 1.5-1.5 1-1.5 1-.5 1.5-.5 1.5-1.5 1-1.5 1-1 1-1 1v1.5 1.5" style="fill:#bd7850;stroke:#bd7850"/><path d="m218 487l1-1 .5-.5.5-.5v1 1l.5-1 .5-1-.5-.5-.5-.5v-1-1-1-1l-.5-.5-.5-.5v-1.5-1.5l.5-.5.5-.5.5-.5.5-.5.5-.5.5-.5-.5-1-.5-1-.5-.5-.5-.5-1-.5-1-.5-1-.5-1-.5-.5-.5-.5-.5 1-.5 1-.5.5-2.5.5-2.5-1-.5-1-.5h-1-1l-.5 2-.5 2v1 1l-1 1.5-1 1.5-.5.5-.5.5h1.5 1.5l1 1 1 1-1 1-1 1 .5 1.5.5 1.5-.5 1.5-.5 1.5.5 2 .5 2 1 1 1 1 1 .5 1 .5" style="fill:#dac7cb;stroke:#dac7cb"/><path d="m58 486l27-8-1.5-.5-1.5-.5-12.5 3.5-12.5 3.5.5 1 .5 1" style="fill:#9e5834;stroke:#9e5834"/><path d="m144 484h2l.5-1.5.5-1.5.5-1 .5-1h1 1l1.5-.5 1.5-.5 1-.5 1-.5h1 1l1-1 1-1 .5-1 .5-1-1 .5-1 .5-1 .5-1 .5-1.5.5-1.5.5-.5.5-.5.5h-1.5-1.5-1.5-1.5l-1-1-1-1 .5 2 .5 2-.5 2.5-.5 2.5" style="fill:#bd7850;stroke:#bd7850"/><path d="m0 483v1l18.5-6 18.5-6 8-2.5 8-2.5 13-4 13-4 3.5-2 3.5-2-2-3-2-3-14 3.5-14 3.5-14 4-14 4-13 5-13 5v1.5 1.5 2 2 1 1" style="fill:#9e5834;stroke:#9e5834"/><path d="m176 483h2v-1-1l-.5-.5-.5-.5-.5-1-.5-1v-1-1-1-1-1.5-1.5l.5-1.5.5-1.5-1.5-.5-1.5-.5.5 2 .5 2v2 2l-1.5-1-1.5-1-.5-1.5-.5-1.5.5-1.5.5-1.5-1.5 1-1.5 1-.5 1.5-.5 1.5-.5 2-.5 2-1.5.5-1.5.5 1 .5 1 .5.5 1 .5 1 .5-1 .5-1 .5-1.5.5-1.5 1 .5 1 .5h1 1l.5 1.5.5 1.5.5 1 .5 1 .5 1 .5 1" style="fill:#9c7163;stroke:#9c7163"/><path d="m163 479v1l1.5-1 1.5-1-1-.5-1-.5 1.5-.5 1.5-.5.5-2 .5-2 .5-1.5.5-1.5 1.5-1 1.5-1-.5-2-.5-2-1-1-1-1 .5-1 .5-1 .5-.5.5-.5.5-1.5.5-1.5-.5-1-.5-1 .5-.5.5-.5v-2.5-2.5h-.5-.5l-.5 2-.5 2v2.5 2.5l-1 1-1 1-.5 2-.5 2-.5 1.5-.5 1.5-1 1.5-1 1.5-1 1-1 1-1 .5-1 .5v1 1l-.5 1-.5 1-.5 1.5-.5 1.5h1 1l1.5.5 1.5.5" style="fill:#7c5445;stroke:#7c5445"/><path d="m188 479l22-18 4.5-5.5 4.5-5.5 1.5-1.5 1.5-1.5 1-1.5 1-1.5.5-1.5.5-1.5.5-3 .5-3v-1.5-1.5-.5-.5l-1-.5-1-.5v-1-1l.5-1.5.5-1.5.5-2 .5-2 1-1 1-1 .5 2.5.5 2.5.5-1 .5-1v-2.5-2.5-.5-.5l-.5-1-.5-1-.5-2-.5-2v-1-1l-2-1-2-1-2 13.5-2 13.5-12 14.5-12 14.5-9.5-4.5-9.5-4.5-.5.5-.5.5 6 12.5 6 12.5" style="fill:#f4976b;stroke:#f4976b"/><path d="m228 478l1 1 .5-1.5.5-1.5-.5-.5-.5-.5v-1-1l1-.5 1-.5.5-.5.5-.5h1 1v1 1l1.5.5 1.5.5h1.5 1.5l.5-.5.5-.5-.5-1.5-.5-1.5 1-.5 1-.5.5-1.5.5-1.5h-1.5-1.5l-1 1-1 1h-1.5-1.5l-1.5-1-1.5-1-1-.5-1-.5-1-.5-1-.5v-1-1l-.5-.5-.5-.5-1-.5-1-.5-.5-.5-.5-.5-.5-.5-.5-.5-.5-.5-.5-.5-.5-.5-.5-.5h-1.5-1.5l1 1 1 1 1 .5 1 .5v1 1l.5.5.5.5.5.5.5.5v1.5 1.5 1 1l.5.5.5.5.5.5.5.5.5 1 .5 1 .5.5.5.5v1 1 1.5 1.5" style="fill:#d89e87;stroke:#d89e87"/><path d="m146 477h3 1.5 1.5l.5-.5.5-.5 1.5-.5 1.5-.5 1-.5 1-.5 1-.5 1-.5v-1-1-.5-.5l-.5-13-.5-13-6-13.5-6-13.5-1-1-1-1-.5 30-.5 30 1 1 1 1" style="fill:#f4976b;stroke:#f4976b"/><g style="fill:#f0b197;stroke:#f0b197"><path d="m160 470v1l1-.5 1-.5 1-1 1-1 1-1.5 1-1.5.5-1.5.5-1.5.5-2 .5-2 1-1 1-1v-2.5-2.5l.5-2 .5-2-4.5-14-4.5-14-7.5-8-7.5-8v3 3l.5-1.5.5-1.5.5 2 .5 2 .5 1.5.5 1.5.5 2 .5 2 .5 1.5.5 1.5h-.5-.5l-1-1-1-1-1-.5-1-.5 6 13.5 6 13.5.5 13 .5 13"/><path d="m220 470l1 1 .5-2.5.5-2.5-.5-2-.5-2-1.5-.5-1.5-.5-.5 2.5-.5 2.5-1 .5-1 .5.5.5.5.5 1 .5 1 .5 1 .5 1 .5"/></g><path d="m235 468h3l1-1 1-1h1.5 1.5v-1.5-1.5l1-1 1-1 .5-1 .5-1-.5-.5-.5-.5-.5-1.5-.5-1.5-1-1-1-1-1-1.5-1-1.5-1-.5-1-.5 1 1.5 1 1.5.5 2 .5 2-1.5.5-1.5.5-1.5 1-1.5 1-.5 1.5-.5 1.5.5 1 .5 1-1.5 1-1.5 1 1.5 1 1.5 1" style="fill:#dd97a8;stroke:#dd97a8"/><path d="m261 466l1-1v-1-1l.5-.5.5-.5h.5.5v-1-1-1-1-1-1-1.5-1.5-1-1l.5-.5.5-.5v1 1 2.5 2.5l.5-1.5.5-1.5v-2-2-2.5-2.5-2-2l-.5-1.5-.5-1.5v-1.5-1.5l-.5-.5-.5-.5v-2-2-2-2-2.5-2.5-1.5-1.5l-.5-.5-.5-.5-3.5-24-3.5-24-.5-1-.5-1-.5-2-.5-2v-1-1l-1-1.5-1-1.5-.5-1.5-.5-1.5v-1-1l-.5-1.5-.5-1.5v-.5-.5l1-5 1-5-3-12-3-12v-2-2l-1-.5-1-.5.5-1.5.5-1.5-.5-.5-.5-.5-1-.5-1-.5-.5 1.5-.5 1.5.5 1.5.5 1.5.5 1 .5 1 .5 1.5.5 1.5v1 1 1 1 1 1l.5 1 .5 1v1 1 1 1 1 1l.5 1 .5 1v1 1 1 1l.5.5.5.5v1.5 1.5l.5.5.5.5v1 1l-.5.5-.5.5-.5-2-.5-2-.5-.5-.5-.5-.5-1-.5-1-.5-1.5-.5-1.5v-1-1l-.5-1-.5-1v1.5 1.5l-.5.5-.5.5-1-.5-1-.5-.5-1.5-.5-1.5.5-.5.5-.5v-.5-.5l-1-1-1-1-.5-.5-.5-.5-.5-1-.5-1-1.5-1.5-1.5-1.5 6.5 12.5 6.5 12.5 4.5 13.5 4.5 13.5 3 14.5 3 14.5 1 20.5 1 20.5-4-14-4-14-6-11.5-6-11.5-1.5-16.5-1.5-16.5-6-10.5-6-10.5-4-13-4-13 6.5 4.5 6.5 4.5v-1.5-1.5l-.5-1.5-.5-1.5-1-1.5-1-1.5-.5-.5-.5-.5v-1-1l-.5-.5-.5-.5-.5-1-.5-1v-2-2l.5-.5.5-.5.5-1 .5-1 .5-1.5.5-1.5v-1-1l.5 1 .5 1 1 .5 1 .5v.5.5l1.5.5 1.5.5-1-1.5-1-1.5-.5-1.5-.5-1.5v-2-2l.5-1.5.5-1.5 1-1.5 1-1.5.5-1.5.5-1.5.5-1.5.5-1.5 1.5-.5 1.5-.5 2-1 2-1 1 1.5 1 1.5.5 1.5.5 1.5.5 1.5.5 1.5.5.5.5.5.5 1 .5 1v-2-2l-.5-2-.5-2-1-1-1-1 1.5-1.5 1.5-1.5h1.5 1.5l1 .5 1 .5h1 1l-1.5-.5-1.5-.5-.5-.5-.5-.5-.5-.5-.5-.5h-1.5-1.5-1-1-1-1-1-1l-1 .5-1 .5-.5.5-.5.5h-1-1l-.5.5-.5.5-.5 1-.5 1h-1-1l-.5.5-.5.5-1.5-.5-1.5-.5.5-2.5.5-2.5 1-1.5 1-1.5.5-1.5.5-1.5 1.5-1 1.5-1 1-1 1-1 .5-1.5.5-1.5 1-1.5 1-1.5.5-1.5.5-1.5.5-1 .5-1-1 .5-1 .5-1 1-1 1-.5 1.5-.5 1.5-1.5 1-1.5 1-.5 1.5-.5 1.5-1.5 1-1.5 1-1.5.5-1.5.5-1 1-1 1v2.5 2.5 2 2l-.5 1-.5 1-1 .5-1 .5 1 .5 1 .5v2 2l1 .5 1 .5.5.5.5.5-.5 1-.5 1-1 1-1 1-.5.5-.5.5-.5 1.5-.5 1.5-.5 1-.5 1-1 1-1 1-1-.5-1-.5-1 1-1 1-1.5 1-1.5 1v1 1l1-.5 1-.5.5.5.5.5-.5 1.5-.5 1.5v2 2 2 2 2.5 2.5 2 2l.5 2 .5 2 1 2 1 2 8.5 14 8.5 14v1.5 1.5l.5.5.5.5-.5 1-.5 1v2 2l-.5.5-.5.5-.5 1-.5 1 .5 1.5.5 1.5.5 2 .5 2 .5 1.5.5 1.5-.5.5-.5.5-1.5-1-1.5-1-.5 1-.5 1 .5 1 .5 1 .5 1.5.5 1.5.5.5.5.5.5 1 .5 1 1 1 1 1 .5.5.5.5.5.5.5.5v1 1l.5 1 .5 1 .5.5.5.5 1 1 1 1 5.5 13 5.5 13 2.5 15.5 2.5 15.5-.5-.5-.5-.5-.5 1.5-.5 1.5.5 1 .5 1 .5.5.5.5v1 1l.5 1 .5 1" style="fill:#572e18;stroke:#572e18"/><g style="fill:#f0b197;stroke:#f0b197"><path d="m230 465l2 1 1.5-1 1.5-1-.5-1-.5-1 .5-1.5.5-1.5 1.5-1 1.5-1 1.5-.5 1.5-.5-.5-2-.5-2-1-1.5-1-1.5-.5-1-.5-1-.5-1-.5-1-.5-.5-.5-.5-.5-.5-.5-.5-.5-.5-.5-.5-.5-1-.5-1v-1-1l-.5-.5-.5-.5v-1-1h-1-1-1.5-1.5l-.5 3-.5 3-.5 1.5-.5 1.5-1 1.5-1 1.5-1.5 1.5-1.5 1.5-.5 1.5-.5 1.5-.5 1-.5 1 .5.5.5.5h1.5 1.5l.5.5.5.5.5.5.5.5.5.5.5.5.5.5.5.5 1 .5 1 .5.5.5.5.5v1 1l1 .5 1 .5"/><path d="m196 462l24-29 2-13.5 2-13.5-5.5-12.5-5.5-12.5-6.5-11.5-6.5-11.5-5.5-12-5.5-12 8-12.5 8-12.5.5-1.5.5-1.5 1-1 1-1-.5-1.5-.5-1.5-2 1.5-2 1.5-1 2-1 2-1.5 1-1.5 1-1 1-1 1-1.5-.5-1.5-.5-.5-1.5-.5-1.5-1 .5-1 .5-.5 1-.5 1-1 1-1 1-1.5 1-1.5 1-.5 1.5-.5 1.5-1.5 1-1.5 1-1 1-1 1-1 1.5-1 1.5-1.5-.5-1.5-.5-1.5.5-1.5.5 9-4 9-4-2 10-2 10 7 10.5 7 10.5 8 22.5 8 22.5-7-6-7-6-5.5-2-5.5-2-3.5-4.5-3.5-4.5-1.5-3-1.5-3-4-1-4-1-2.5-8-2.5-8 7.5-7 7.5-7-1.5.5-1.5.5h-1.5-1.5l-.5.5-.5.5h-1-1-1-1v1.5 1.5 1 1h-1-1l-.5.5-.5.5-.5.5-.5.5-1-.5-1-.5h-1-1l-1-1-1-1-1.5.5-1.5.5-2-.5-2-.5v-2-2l1-1.5 1-1.5v-1.5-1.5l1 8 1 8-1.5 5-1.5 5-1.5 11.5-1.5 11.5 5.5-8 5.5-8 6.5 6.5 6.5 6.5 6 7.5 6 7.5.5 4.5.5 4.5-8 3.5-8 3.5 3.5 15.5 3.5 15.5 1-1 1-1 1-1.5 1-1.5 1-1.5 1-1.5-3.5-9-3.5-9-2.5-1.5-2.5-1.5 9-5.5 9-5.5-.5 4.5-.5 4.5 1 5.5 1 5.5 6.5-9.5 6.5-9.5 5 11.5 5 11.5-17 12.5-17 12.5.5-1 .5-1 1-1.5 1-1.5 1-1 1-1-1-.5-1-.5h-.5-.5l-1 .5-1 .5-1 1-1 1-.5.5-.5.5-.5 2-.5 2 9.5 4.5 9.5 4.5"/></g><path d="m245 458l1 1-2-10-2-10 8 10 8 10 .5-1.5.5-1.5-6-12.5-6-12.5 1-4 1-4-2.5-11.5-2.5-11.5-1-1-1-1-.5-.5-.5-.5-.5-1-.5-1v-1-1l-.5-.5-.5-.5-.5-.5-.5-.5-1-1-1-1-.5-1-.5-1-.5-.5-.5-.5-.5-1.5-.5-1.5-.5-1-.5-1-1-1-1-1v-1-1l-1-.5-1-.5-.5-.5-.5-.5v-1-1l-.5-.5-.5-.5.5-1 .5-1h-1-1l-.5-.5-.5-.5-.5-.5-.5-.5-.5-1-.5-1-1-1-1-1v-1-1l-.5-1-.5-1-.5-1-.5-1-.5-.5-.5-.5-1-.5-1-.5v-1-1l-1-.5-1-.5-.5-1.5-.5-1.5-.5-.5-.5-.5-1-1-1-1-.5-.5-.5-.5.5-16 .5-16 1-1.5 1-1.5 1 1.5 1 1.5.5 1.5.5 1.5 1 2 1 2v-2-2-2.5-2.5-2-2l-1.5.5-1.5.5-.5-.5-.5-.5-1 .5-1 .5-1 .5-1 .5-1.5-.5-1.5-.5-8 12.5-8 12.5 5.5 12 5.5 12 6.5 11.5 6.5 11.5 5.5 12.5 5.5 12.5 2 1 2 1v1 1l.5 2 .5 2 .5 1 .5 1 .5-1 .5-1 .5.5.5.5 1 .5 1 .5.5 1.5.5 1.5.5.5.5.5.5.5.5.5.5.5.5.5.5 1 .5 1 .5.5.5.5.5.5.5.5.5.5.5.5.5 1 .5 1 .5.5.5.5v1 1l.5.5.5.5 1 .5 1 .5v1 1l.5.5.5.5-.5.5-.5.5-2-1.5-2-1.5-1-1-1-1-1-1-1-1-1.5-1-1.5-1-1-1-1-1-1-1.5-1-1.5-.5-1.5-.5-1.5-.5-2-.5-2v2.5 2.5l-.5 1-.5 1v2 2l-.5 1.5-.5 1.5-1 .5-1 .5v1.5 1.5h1.5 1.5 1 1v1 1l.5.5.5.5v1 1l.5 1 .5 1 .5.5.5.5.5.5.5.5.5.5.5.5.5 1 .5 1 .5 1 .5 1 1 .5 1 .5 1 1.5 1 1.5 1 1 1 1 .5 1.5.5 1.5" style="fill:#d89e87;stroke:#d89e87"/><path d="m260 457l-5-31-5.5-13-5.5-13 2.5 11.5 2.5 11.5-1 4-1 4 6 12.5 6 12.5.5.5.5.5" style="fill:#bf8886;stroke:#bf8886"/><path d="m228 455l-2-15 1 6 1 6v1.5 1.5" style="fill:#fcd1b7;stroke:#fcd1b7"/><path d="m0 454v1l19.5-6.5 19.5-6.5 14-3.5 14-3.5 14.5-3.5 14.5-3.5 13.5-4 13.5-4 11.5-8 11.5-8v-2-2-1-1-2.5-2.5l-12.5 6.5-12.5 6.5-1.5 3-1.5 3-13 5-13 5-13.5 4-13.5 4-20 4.5-20 4.5 9.5-7.5 9.5-7.5 14-3.5 14-3.5 13.5-4.5 13.5-4.5 23.5-8 23.5-8h.5.5l-8.5-2.5-8.5-2.5-13 5-13 5-11.5 3-11.5 3-10.5-.5-10.5-.5 3.5-6 3.5-6-5.5-1.5-5.5-1.5-11-.5-11-.5-10 2-10 2 10-6 10-6-2.5-2-2.5-2-14.5 3-14.5 3v19.5 19.5 10.5 10.5l1.5-1 1.5-1h2.5 2.5l1.5.5 1.5.5v1.5 1.5l-1.5.5-1.5.5-1 1-1 1-.5.5-.5.5-1 .5-1 .5-1.5.5-1.5.5v2.5 2.5.5.5" style="fill:#9e5834;stroke:#9e5834"/><path d="m176 453v1l.5-.5.5-.5.5-2 .5-2 .5-.5.5-.5 1-1 1-1 1-.5 1-.5h.5.5l.5-1 .5-1 .5-1 .5-1 1-1.5 1-1.5.5-1.5.5-1.5.5-1.5.5-1.5-1-.5-1-.5-.5 1.5-.5 1.5-1 1-1 1-1 1.5-1 1.5-1 1.5-1 1.5-1 1-1 1-.5 2-.5 2-1 .5-1 .5v2 2" style="fill:#bf8886;stroke:#bf8886"/><path d="m181 453l34-25-5-11.5-5-11.5-6.5 9.5-6.5 9.5-1-5.5-1-5.5.5-4.5.5-4.5-9 5.5-9 5.5 2.5 1.5 2.5 1.5 3.5 9 3.5 9 1-1 1-1 .5-1.5.5-1.5 1 .5 1 .5-.5 1.5-.5 1.5-.5 1.5-.5 1.5-1 1.5-1 1.5-.5 1-.5 1-.5 1-.5 1 1 .5 1 .5-1 1-1 1-1 1.5-1 1.5-.5 1-.5 1" style="fill:#fcd1b7;stroke:#fcd1b7"/><path d="m175 448l1 1 1-.5 1-.5.5-2 .5-2-3.5-15.5-3.5-15.5 8-3.5 8-3.5-.5-4.5-.5-4.5-6-7.5-6-7.5-6.5-6.5-6.5-6.5-5.5 8-5.5 8 1.5-11.5 1.5-11.5 1.5-5 1.5-5-1-8-1-8h2 2v-1-1-1.5-1.5l.5-1 .5-1v-1.5-1.5l.5-.5.5-.5 1-.5 1-.5.5-.5.5-.5.5-.5.5-.5.5-.5.5-.5 1-.5 1-.5.5-.5.5-.5 1-.5 1-.5-.5-2-.5-2-.5 2-.5 2-1.5 1-1.5 1-1.5.5-1.5.5h-1.5-1.5l.5-.5.5-.5-6 19-6 19-1 17-1 17v2.5 2.5 3 3l7.5 8 7.5 8 4.5 14 4.5 14h.5.5l1.5.5 1.5.5" style="fill:#f4976b;stroke:#f4976b"/><path d="m0 447v1l1.5-.5 1.5-.5 1-.5 1-.5.5-.5.5-.5 1-1 1-1 1.5-.5 1.5-.5v-1.5-1.5l-1.5-.5-1.5-.5h-2.5-2.5l-1.5 1-1.5 1v3.5 3.5" style="fill:#833e1d;stroke:#833e1d"/><path d="m262 442l-2-41-3-14.5-3-14.5-4.5-13.5-4.5-13.5-6.5-12.5-6.5-12.5-6.5-4.5-6.5-4.5 4 13 4 13 6 10.5 6 10.5 1.5 16.5 1.5 16.5 6 11.5 6 11.5 4 14 4 14" style="fill:#361803;stroke:#361803"/><path d="m25 439l40-9 13.5-4 13.5-4 13-5 13-5 1.5-3 1.5-3 12.5-6.5 12.5-6.5v-.5-.5l-23.5 8-23.5 8-13.5 4.5-13.5 4.5-14 3.5-14 3.5-9.5 7.5-9.5 7.5" style="fill:#833e1d;stroke:#833e1d"/><path d="m288 439v1l.5-1 .5-1v-2.5-2.5-2-2-2.5-2.5-2-2-2.5-2.5-2-2-2-2-2.5-2.5l-.5-1-.5-1v1.5 1.5 1 1 1 1 1.5 1.5 1 1 1 1 1 1 1.5 1.5 1 1 1 1 1 1 2 2 1.5 1.5 1 1 1 1 1.5 1.5" style="fill:#9e5834;stroke:#9e5834"/><path d="m247 438l1-1-.5-.5-.5-.5v-1-1l-1-.5-1-.5-.5-.5-.5-.5v-1-1l-.5-.5-.5-.5-.5-1-.5-1-.5-.5-.5-.5-.5-.5-.5-.5-.5-.5-.5-.5-.5-1-.5-1-.5-.5-.5-.5-.5-.5-.5-.5-.5-.5-.5-.5-.5-1.5-.5-1.5-1-.5-1-.5-.5-.5-.5-.5-.5 1-.5 1v.5.5l.5 2 .5 2 .5 1.5.5 1.5 1 1.5 1 1.5 1 1 1 1 1.5 1 1.5 1 1 1 1 1 1 1 1 1 2 1.5 2 1.5" style="fill:#f0b197;stroke:#f0b197"/><g style="fill:#d89e87;stroke:#d89e87"><path d="m264 434l1 1 4-20 4-20 .5 1.5.5 1.5v-2-2l.5-.5.5-.5-.5-1-.5-1 .5-2.5.5-2.5-6-9-6-9-2-12-2-12-.5 1.5-.5 1.5-.5.5-.5.5v-1.5-1.5l-.5.5-.5.5-.5.5-.5.5-1 .5-1 .5v1 1h-1.5-1.5l.5 1.5.5 1.5v1 1l.5 1.5.5 1.5 1 1.5 1 1.5v1 1l.5 2 .5 2 .5 1 .5 1v1 1l4 15.5 4 15.5v2.5 2.5 2.5 2.5 3 3 1.5 1.5 2.5 2.5 2 2 2 2"/><path d="m273 433l1 1-.5-2.5-.5-2.5v-1.5-1.5l.5-2.5.5-2.5-.5-.5-.5-.5-.5-1.5-.5-1.5 1-1 1-1v-1-1-1.5-1.5l-1-.5-1-.5v1.5 1.5l-.5 2-.5 2v2 2 2.5 2.5 1.5 1.5 1.5 1.5l1 1 1 1"/></g><path d="m226 431v1l1-.5 1-.5.5-1.5.5-1.5v-2-2l-.5-2.5-.5-2.5-1 1-1 1-.5 2-.5 2-.5 1.5-.5 1.5v1 1l1 .5 1 .5" style="fill:#bd7850;stroke:#bd7850"/><path d="m151 420h1l-.5-1.5-.5-1.5-.5-2-.5-2-.5-1.5-.5-1.5-.5-2-.5-2-.5 1.5-.5 1.5v-3-3-3-3-2.5-2.5h-.5-.5v.5.5 2.5 2.5 1 1 2 2 2.5 2.5l-.5 1.5-.5 1.5v1.5 1.5l1 1 1 1 1 .5 1 .5 1 1 1 1" style="fill:#fcd1b7;stroke:#fcd1b7"/><path d="m273 420l1 1 .5-2.5.5-2.5v-2.5-2.5-2-2-2.5-2.5l.5-1.5.5-1.5v-2.5-2.5l.5-1.5.5-1.5-.5-1.5-.5-1.5-.5-1-.5-1-.5 2.5-.5 2.5.5 1 .5 1-.5.5-.5.5v2 2l-.5-1.5-.5-1.5-.5 2-.5 2v2.5 2.5 2.5 2.5l1 .5 1 .5v1.5 1.5 1 1l-1 1-1 1 .5 1.5.5 1.5" style="fill:#f4976b;stroke:#f4976b"/><path d="m263 417l1 1v-3-3-2.5-2.5-2.5-2.5l-.5-.5-.5-.5-.5-2.5-.5-2.5-.5-1.5-.5-1.5v-2.5-2.5l-.5-1.5-.5-1.5v-2-2l-.5-2-.5-2-1-1-1-1-.5-2-.5-2v-1-1l3.5 24 3.5 24" style="fill:#bd7850;stroke:#bd7850"/><path d="m163 414l3 1 .5-1.5.5-1.5.5-2 .5-2 .5-1.5.5-1.5-1.5-1-1.5-1-1.5.5-1.5.5.5 2 .5 2-.5 1.5-.5 1.5v1.5 1.5" style="fill:#f0b197;stroke:#f0b197"/><path d="m214 403l-16-45-7-10.5-7-10.5 2-10 2-10-9 4-9 4-.5 1-.5 1-1 .5-1 .5v1 1l.5.5.5.5v1 1h1.5 1.5l.5-.5.5-.5.5-.5.5-.5v-1-1l1-.5 1-.5.5.5.5.5v1 1h1 1 .5.5l.5.5.5.5.5.5.5.5v1 1 1 1l.5.5.5.5-.5 1-.5 1-7.5 7-7.5 7 2.5 8 2.5 8 4 1 4 1 1.5 3 1.5 3 3.5 4.5 3.5 4.5 5.5 2 5.5 2 7 6 7 6" style="fill:#fcd1b7;stroke:#fcd1b7"/><path d="m263 401l1 1-4-15.5-4-15.5.5 2 .5 2 1 1 1 1 .5 2 .5 2v2 2l.5 1.5.5 1.5v2.5 2.5l.5 1.5.5 1.5.5 2.5.5 2.5" style="fill:#bf8886;stroke:#bf8886"/><path d="m236 381l1-1-.5-1.5-.5-1.5-.5-2-.5-2-.5-1.5-.5-1.5.5-1 .5-1 .5-.5.5-.5v-2-2l.5-1 .5-1-.5-.5-.5-.5v-1.5-1.5l-1 .5-1 .5-.5 1-.5 1-.5.5-.5.5-1-1.5-1-1.5-.5-.5-.5-.5-.5-1-.5-1-1-1-1-1-.5-.5-.5-.5-1-.5-1-.5-.5-1.5-.5-1.5-.5-.5-.5-.5-1-.5-1-.5-1-1-1-1-.5-1.5-.5-1.5-.5-1-.5-1-.5 1-.5 1-1-1.5-1-1.5h-1-1l.5 2 .5 2 1 1 1 1 .5 1.5.5 1.5 1 1.5 1 1.5v1 1l.5 1 .5 1 .5 1.5.5 1.5v.5.5l.5 1 .5 1 .5 1 .5 1v1 1l1 1 1 1 .5 1 .5 1 .5.5.5.5.5.5.5.5h1 1l-.5 1-.5 1 .5.5.5.5v1 1l.5.5.5.5 1 .5 1 .5v1 1l1 1 1 1 .5-1 .5-1 1.5 1 1.5 1" style="fill:#bd7850;stroke:#bd7850"/><path d="m219 369l-11-20-2-1-2-1 7 10.5 7 10.5.5.5.5.5" style="fill:#f0b197;stroke:#f0b197"/><g style="fill:#9e5834;stroke:#9e5834"><path d="m13 368l32-3 6.5-2.5 6.5-2.5-13.5 3-13.5 3-9 1-9 1"/><path d="m232 361l1-1 .5-1 .5-1 1-.5 1-.5-8.5-14-8.5-14-.5-1-.5-1-1-.5-1-.5-1 1-1 1-.5.5-.5.5h-1.5-1.5l.5 1.5.5 1.5.5.5.5.5.5 1 .5 1 1 2 1 2 .5 1 .5 1 .5 1.5.5 1.5 1 1 1 1 1 .5 1 .5.5.5.5.5.5 1.5.5 1.5 1 .5 1 .5.5.5.5.5 1 1 1 1 .5 1 .5 1 .5.5.5.5 1 1.5 1 1.5"/></g><path d="m217 357l1 1v-.5-.5l-.5-1.5-.5-1.5-.5-1-.5-1v-1-1l-1-1.5-1-1.5-.5-1.5-.5-1.5-1-1-1-1-.5-2-.5-2h1 1l1 1.5 1 1.5.5-1 .5-1-1-2-1-2-.5-1-.5-1-.5-.5-.5-.5-.5-1.5-.5-1.5h1.5 1.5l.5-.5.5-.5 1-1 1-1 1 .5 1 .5.5 1 .5 1-1-2-1-2h-2-2v-.5-.5l-.5-.5-.5-.5h-1-1l-.5-.5-.5-.5.5-1 .5-1h-1-1l-.5.5-.5.5v1 1l-.5 1-.5 1-1 1-1 1-1 .5-1 .5-1 .5-1 .5v1.5 1.5l.5.5.5.5v1 1l.5.5.5.5.5 1 .5 1 .5.5.5.5.5.5.5.5.5.5.5.5.5 1 .5 1 .5.5.5.5.5 1.5.5 1.5 1 1 1 1 .5.5.5.5.5 1.5.5 1.5 1 .5 1 .5v1 1l1 .5 1 .5" style="fill:#9c7163;stroke:#9c7163"/><path d="m166 349l1-1 .5-.5.5-.5h1 1v-1-1-1.5-1.5h1 1 1 1l.5-.5.5-.5h1.5 1.5l1.5-.5 1.5-.5.5-1 .5-1-.5-.5-.5-.5v-1-1-1-1l-.5-.5-.5-.5-.5-.5-.5-.5h-.5-.5-1-1v-1-1l-.5-.5-.5-.5-1 .5-1 .5v1 1l-.5.5-.5.5-.5.5-.5.5h-1.5-1.5v-1-1l-.5-.5-.5-.5v-1-1l1-.5 1-.5.5-1 .5-1 1.5-.5 1.5-.5 1.5.5 1.5.5 1-1.5 1-1.5 1-1 1-1 1.5-1 1.5-1 .5-1.5.5-1.5 1.5-1 1.5-1 1-1 1-1 .5-1 .5-1 1-.5 1-.5 1-.5 1-.5 1-.5 1-.5.5-.5.5-.5h1.5 1.5l1.5-.5 1.5-.5 2-1.5 2-1.5 1.5-2 1.5-2 1-1 1-1 2-1 2-1 .5-1 .5-1 1-1 1-1 1.5-1 1.5-1 1-1 1-1 1-1.5 1-1.5h-1-1l-1 1-1 1-.5-1-.5-1 1-1 1-1-.5-1-.5-1-1.5.5-1.5.5-1 1.5-1 1.5-1 1-1 1-1.5-.5-1.5-.5v1.5 1.5h1 1 1 1l.5-.5.5-.5h.5.5l-.5.5-.5.5-.5.5-.5.5-.5.5-.5.5-1 .5-1 .5-.5.5-.5.5-.5.5-.5.5-.5.5-.5.5-.5 1-.5 1-16 9-16 9 7-27.5 7-27.5h-.5-.5l-.5 1.5-.5 1.5v1 1 1 1 1.5 1.5 1 1 1 1 1 1 1.5 1.5 1 1 1 1 1 1 1 1 1.5 1.5l-.5.5-.5.5v1 1l-1 .5-1 .5v1.5 1.5l-1 1-1 1h-1-1v-.5-.5l-.5-1-.5-1-1-.5-1-.5.5-1.5.5-1.5 1.5-1 1.5-1-18-11.5-18-11.5-1.5 1-1.5 1h-1-1l.5-1 .5-1h-1-1l-1 .5-1 .5-1-.5-1-.5-1-.5-1-.5-2-.5-2-.5 7-8.5 7-8.5 15-9.5 15-9.5-11.5 6.5-11.5 6.5-10.5 7-10.5 7 3 8 3 8 10.5 7 10.5 7 9.5 6.5 9.5 6.5h.5.5l.5 1 .5 1 .5.5.5.5h-1-1l-.5.5-.5.5-.5 1-.5 1v1 1l-.5.5-.5.5-.5 1-.5 1-1 1-1 1-.5 1-.5 1-.5 1.5-.5 1.5.5 2 .5 2 1 .5 1 .5 1.5 1 1.5 1v1 1l-1.5-.5-1.5-.5h-1.5-1.5-1-1l-1.5 1-1.5 1-.5 1.5-.5 1.5-1 .5-1 .5-.5.5-.5.5h-.5-.5l-.5 1-.5 1v1.5 1.5 1 1h-2-2v1.5 1.5l-1 1.5-1 1.5v2 2l2 .5 2 .5 1.5-.5 1.5-.5 1 1 1 1h1 1l1 .5 1 .5" style="fill:#d89e87;stroke:#d89e87"/><path d="m250 349v1h1.5 1.5v-1-1l1-.5 1-.5.5-.5.5-.5.5-.5.5-.5v1.5 1.5l.5-.5.5-.5.5-1.5.5-1.5-3.5-26-3.5-26 2 10.5 2 10.5-3 10-3 10-.5-1-.5-1-.5-1-.5-1-.5-2-.5-2v-2-2l-.5-3-.5-3 3 12 3 12-1 5-1 5" style="fill:#f4976b;stroke:#f4976b"/><path d="m208 346l1 1-.5-1.5-.5-1.5-.5-.5-.5-.5-.5-1-.5-1-.5-.5-.5-.5-.5-.5-.5-.5-.5-.5-.5-.5-.5-1-.5-1-.5-.5-.5-.5v-1-1l-.5-.5-.5-.5v-1.5-1.5l1-.5 1-.5v-.5-.5l1-.5 1-.5.5-1 .5-1 .5-2 .5-2 .5-1.5.5-1.5 1-1.5 1-1.5-.5 16-.5 16" style="fill:#bf8886;stroke:#bf8886"/><path d="m247 344l1-1v-1-1l-.5-.5-.5-.5v-1.5-1.5l-.5-.5-.5-.5v-1-1-1-1l-.5-1-.5-1v-1-1-1-1-1-1l-.5-1-.5-1v-1-1-1-1-1-1l-.5-1.5-.5-1.5-.5-1-.5-1-.5-1.5-.5-1.5-.5-.5-.5-.5-1-.5-1-.5-.5-.5-.5-.5-1-.5-1-.5-1-1-1-1h-1-1l-.5-1-.5-1v-2.5-2.5l-.5-1-.5-1v1 1l-.5 1.5-.5 1.5-.5 1-.5 1-.5.5-.5.5v2 2l.5 1 .5 1 .5.5.5.5v1 1l.5.5.5.5 1 1.5 1 1.5 1-1 1-1v-.5-.5h1 1l.5-.5.5-.5 1 .5 1 .5 1 1 1 1v1 1l.5 1 .5 1v3 3 2 2l.5 1.5.5 1.5.5 1 .5 1v1 1l.5 1.5.5 1.5.5 1 .5 1 .5.5.5.5.5 2 .5 2" style="fill:#bd7850;stroke:#bd7850"/><path d="m169 340h2l1.5-.5 1.5-.5h2.5 2.5l-.5-1.5-.5-1.5-2-.5-2-.5-1.5.5-1.5.5-1.5 1-1.5 1 .5 1 .5 1" style="fill:#7c5445;stroke:#7c5445"/><path d="m241 334l1-1v-1.5-1.5l-.5-1.5-.5-1.5v-2-2l-.5-.5-.5-.5v-1.5-1.5l-.5-.5-.5-.5-.5-1-.5-1-1.5-.5-1.5-.5v1 1h-1.5-1.5v1.5 1.5l1.5 1.5 1.5 1.5.5 1 .5 1 .5.5.5.5 1 1 1 1v.5.5l-.5.5-.5.5.5 1.5.5 1.5 1 .5 1 .5" style="fill:#833e1d;stroke:#833e1d"/><path d="m250 333l6-20-2-10.5-2-10.5-1 .5-1 .5.5-2 .5-2-.5-2-.5-2-.5-1-.5-1-.5-.5-.5-.5-.5-1.5-.5-1.5-.5-1.5-.5-1.5v1.5 1.5 2.5 2.5 2 2l.5 2 .5 2v2 2l.5 2 .5 2v2 2l-2-.5-2-.5-1.5-.5-1.5-.5h-1-1l-.5-.5-.5-.5-.5-.5-.5-.5-1-1-1-1-.5 1-.5 1 1 1 1 1 1.5.5 1.5.5 1.5 1 1.5 1 1 .5 1 .5.5.5.5.5-.5 1.5-.5 1.5 1 .5 1 .5v2 2l.5 3 .5 3v2 2l.5 2 .5 2 .5 1 .5 1 .5 1 .5 1" style="fill:#d89e87;stroke:#d89e87"/><g style="fill:#bd7850;stroke:#bd7850"><path d="m161 329l1-1 1-.5 1-.5.5-1.5.5-1.5 1.5-1 1.5-1h1 1 1.5 1.5l1.5.5 1.5.5v-1-1l-1.5-1-1.5-1-1-.5-1-.5-1 .5-1 .5-.5.5-.5.5-1 .5-1 .5-.5.5-.5.5-.5.5-.5.5-.5.5-.5.5-1 .5-1 .5-.5.5-.5.5v1.5 1.5h.5.5"/><path d="m202 327v1l1-.5 1-.5 1-1 1-1 .5-1 .5-1v-1-1l.5-.5.5-.5h1 1l-.5 1-.5 1 .5.5.5.5h1 1l.5.5.5.5v.5.5h2 2l-.5-2-.5-2-1-2-1-2-.5-1.5-.5-1.5-1-1.5-1-1.5-1 1.5-1 1.5-1 1.5-1 1.5-.5 1.5-.5 1.5-.5 2-.5 2-.5 1-.5 1-1 .5-1 .5"/></g><g style="fill:#9e5834;stroke:#9e5834"><path d="m0 326v1l3.5-11 3.5-11 5.5 5.5 5.5 5.5 7-1.5 7-1.5 7-4 7-4 10-5.5 10-5.5 11-2 11-2 2-3.5 2-3.5-14.5 3.5-14.5 3.5 11-5.5 11-5.5-5-1-5-1-14.5 2.5-14.5 2.5-21 4-21 4 9-4 9-4h12 12l12.5-8.5 12.5-8.5-3-2.5-3-2.5-10.5.5-10.5.5-7 .5-7 .5 3-5 3-5 11-3.5 11-3.5 8-2 8-2 11-4.5 11-4.5-4-1-4-1-13 4.5-13 4.5 9-4 9-4 12.5-5 12.5-5 3.5 4.5 3.5 4.5 7-3.5 7-3.5 11.5-4.5 11.5-4.5 11.5-6 11.5-6 13.5-4.5 13.5-4.5 12-6 12-6 11-6.5 11-6.5 10.5-7.5 10.5-7.5 9.5-8 9.5-8 9-9 9-9 7.5-10 7.5-10 7.5-10.5 7.5-10.5 5.5-12 5.5-12 4.5-13.5 4.5-13.5 3.5-13.5 3.5-13.5h-19-19-18-18-9-9l-1.5 12-1.5 12 1.5 10 1.5 10-7 9-7 9 2.5-12 2.5-12-2.5-6-2.5-6 4.5-13 4.5-13h-3-3-2-2-2.5-2.5l-3.5 15.5-3.5 15.5-3.5 13-3.5 13-5.5 12.5-5.5 12.5-5.5 11-5.5 11-7 11-7 11-11.5 11.5-11.5 11.5 7-11 7-11 5-12 5-12 4.5-11 4.5-11 5.5-11.5 5.5-11.5-8.5 4-8.5 4 2.5-9.5 2.5-9.5 1.5-11 1.5-11v-12.5-12.5h-2.5-2.5-2.5-2.5l-3.5 11-3.5 11-3.5 8.5-3.5 8.5.5 8 .5 8 2 4 2 4-1 8.5-1 8.5-8 16.5-8 16.5 1.5-8.5 1.5-8.5 4.5-9.5 4.5-9.5-2 1.5-2 1.5-6-1-6-1-5.5-1-5.5-1-4.5 5.5-4.5 5.5-1-13.5-1-13.5-3.5-4.5-3.5-4.5 5-11.5 5-11.5-1-13-1-13-7 8.5-7 8.5-6 10-6 10-6 11.5-6 11.5h2 2l5-7.5 5-7.5 4 2 4 2 1 3.5 1 3.5v10 10l-3.5 11-3.5 11-1.5-2.5-1.5-2.5v-9.5-9.5h-4-4l-8-1.5-8-1.5 2-9 2-9 .5-12 .5-12 3.5-15.5 3.5-15.5h-18-18-13.5-13.5l-5.5 9-5.5 9v9 9l-2.5 2-2.5 2-6 6-6 6-9 9.5-9 9.5v-1-1l1-1.5 1-1.5-.5-1.5-.5-1.5h-2-2v19.5 19.5 18 18 9.5 9.5l7.5-5.5 7.5-5.5 8-2 8-2-6 6.5-6 6.5 1 4 1 4 9.5-3 9.5-3 10.5-5.5 10.5-5.5-6.5 8-6.5 8-11 7-11 7-7.5 7-7.5 7 7 4 7 4 8-2.5 8-2.5-2 7-2 7-18.5 3.5-18.5 3.5v18.5 18.5 17.5 17.5 18 18 2 2"/><path d="m240 322l1 1v-3-3l-.5-1-.5-1v-1-1l-1-1-1-1-1-.5-1-.5-.5.5-.5.5h-1-1v.5.5l-1 1-1 1 .5 1.5.5 1.5h1.5 1.5v-1-1l1.5.5 1.5.5.5 1 .5 1 .5.5.5.5v1.5 1.5"/></g><path d="m160 321h3l1.5-.5 1.5-.5 1.5-1 1.5-1 .5-2 .5-2 .5-1.5.5-1.5v-.5-.5l-.5-1-.5-1v-1-1l1-1 1-1 1-1 1-1v-1-1l.5-1 .5-1 1-1 1-1-9.5-6.5-9.5-6.5-10.5-7-10.5-7-3-8-3-8 10.5-7 10.5-7 11.5-6.5 11.5-6.5-10.5 4-10.5 4-10.5 7-10.5 7-2.5 9.5-2.5 9.5 11.5 6 11.5 6 8 10 8 10-2 6-2 6-10.5-5.5-10.5-5.5.5 1 .5 1 1 .5 1 .5.5.5.5.5 1.5.5 1.5.5.5 1 .5 1 .5.5.5.5h1 1l.5.5.5.5 1 .5 1 .5.5.5.5.5.5.5.5.5h1 1l.5 1 .5 1 .5.5.5.5.5.5.5.5v1 1l-1 1-1 1-.5.5-.5.5" style="fill:#f0b197;stroke:#f0b197"/><g style="fill:#fcd1b7;stroke:#fcd1b7"><path d="m177 312l32-18v-.5-.5l-4-1-4-1-.5-8-.5-8 .5-13.5.5-13.5-5 4.5-5 4.5-7 27.5-7 27.5"/><path d="m163 311l4-12-8-10-8-10-11.5-6-11.5-6 2.5-9.5 2.5-9.5 10.5-7 10.5-7 10.5-4 10.5-4 1.5-1 1.5-1 1.5-.5 1.5-.5-.5 2.5-.5 2.5 2.5-4 2.5-4 3.5-8.5 3.5-8.5-10.5 7.5-10.5 7.5-11 6.5-11 6.5-11 7-11 7-8.5 9-8.5 9 16 18.5 16 18.5 10.5 5.5 10.5 5.5"/></g><g style="fill:#f4976b;stroke:#f4976b"><path d="m193 311l3 1 1-1 1-1 1.5-1 1.5-1 1-2 1-2-1.5.5-1.5.5h-1.5-1.5l-.5.5-.5.5-1 .5-1 .5-1 .5-1 .5.5 1.5.5 1.5"/><path d="m171 310v1l.5-1 .5-1 1-1 1-1 .5-1 .5-1 .5-.5.5-.5v-1-1l.5-1 .5-1 .5-.5.5-.5h1 1l-.5-.5-.5-.5-.5-1-.5-1h-.5-.5l-1 1-1 1-.5 1-.5 1v1 1l-1 1-1 1-1 1-1 1v1 1l.5 1 .5 1"/><path d="m208 310l2-1 1-.5 1-.5.5.5.5.5 1.5-.5 1.5-.5v-2-2l.5-1.5.5-1.5-.5-.5-.5-.5-1 .5-1 .5v-1-1l1.5-1 1.5-1 1-1 1-1 1 .5 1 .5 1-1 1-1 .5-1 .5-1-2-.5-2-.5-1 1-1 1h-1-1l-2 1-2 1-1 1-1 1-1.5 2-1.5 2 .5 1.5.5 1.5-1 1-1 1-.5 1.5-.5 1.5 1.5.5 1.5.5"/><path d="m240 307l1 1 .5-1.5.5-1.5-1.5-1-1.5-1-1.5-.5-1.5-.5-1-1-1-1 .5-1 .5-1-1.5-.5-1.5-.5v-.5-.5l-1-.5-1-.5v2.5 2.5l.5 1 .5 1h1 1l1 1 1 1 1 .5 1 .5.5.5.5.5 1 .5 1 .5"/></g><path d="m244 303l4 1v-2-2l-.5-2-.5-2v-2-2l-.5-2-.5-2v-2-2-2.5-2.5-1.5-1.5l-1-1.5-1-1.5-2 1-2 1 1 1.5 1 1.5.5.5.5.5-.5 1-.5 1v2 2 1 1 1.5 1.5l-.5 1.5-.5 1.5h-1-1-1.5-1.5l-1-.5-1-.5-1-2-1-2v2 2l.5 1.5.5 1.5 1 1.5 1 1.5 1 1 1 1 .5.5.5.5.5.5.5.5h1 1l1.5.5 1.5.5" style="fill:#f0b197;stroke:#f0b197"/><path d="m141 301l2 1-.5-1-.5-1-16-18.5-16-18.5 8.5-9 8.5-9 11-7 11-7 11-6.5 11-6.5 10.5-7.5 10.5-7.5 15-6.5 15-6.5-16.5 5.5-16.5 5.5-10 7.5-10 7.5-11.5 6.5-11.5 6.5-11 7-11 7-8 9.5-8 9.5 7.5 10.5 7.5 10.5 9 9 9 9" style="fill:#bf8886;stroke:#bf8886"/><path d="m270 298l1 1-.5-2.5-.5-2.5-.5-2-.5-2-1-1-1-1-.5-2-.5-2v-2-2-1.5-1.5l1-1 1-1 1 1 1 1 2 .5 2 .5h1.5 1.5l1.5-.5 1.5-.5.5-.5.5-.5.5-1 .5-1 .5-1.5.5-1.5v-1-1l.5-1.5.5-1.5-9-18-9-18-9.5-9.5-9.5-9.5h-2-2v.5.5l.5 1.5.5 1.5h1 1v1 1l-1.5 1-1.5 1 .5 1.5.5 1.5-.5 1-.5 1h-1-1l-1 1.5-1 1.5-1 1-1 1-.5 1-.5 1 1.5 1.5 1.5 1.5 1.5.5 1.5.5 5-9 5-9 7 11 7 11 4.5 11 4.5 11-8.5 6.5-8.5 6.5.5 1 .5 1 1.5.5 1.5.5.5 1 .5 1 1 1 1 1v2.5 2.5l.5 1.5.5 1.5 1 1.5 1 1.5.5 1.5.5 1.5.5 1.5.5 1.5" style="fill:#572e18;stroke:#572e18"/><path d="m182 296h2l1-1 1-1v-1.5-1.5-.5-.5l-1.5-1.5-1.5-1.5-1.5 1-1.5 1-.5 1.5-.5 1.5 1 .5 1 .5.5 1 .5 1v.5.5" style="fill:#f4976b;stroke:#f4976b"/><g style="fill:#f0b197;stroke:#f0b197"><path d="m209 293v1l.5-1 .5-1 .5-.5.5-.5.5-.5.5-.5.5-.5.5-.5 1-.5 1-.5.5-.5.5-.5.5-.5.5-.5.5-.5.5-.5h-.5-.5l-.5.5-.5.5h-1-1-1-1v-1.5-1.5l.5-2.5.5-2.5h-1.5-1.5l-1 1-1 1-1 .5-1 .5v-1-1l1-.5 1-.5v-1-1l.5-.5.5-.5v-1-1l.5-.5.5-.5 1.5-1 1.5-1 .5-2 .5-2v-.5-.5l-5-13-5-13 1.5-10.5 1.5-10.5v1.5 1.5l-.5 1.5-.5 1.5-.5 2-.5 2-.5 1.5-.5 1.5-1 1.5-1 1.5-1 1-1 1h-1-1l-1.5-1.5-1.5-1.5v-1-1l1.5-1 1.5-1 .5-2.5.5-2.5-2.5-2.5-2.5-2.5.5-4 .5-4 5-3 5-3v-.5-.5l1-2 1-2 1-1 1-1 1.5-1 1.5-1 1-1 1-1 1.5-1 1.5-1 2-.5 2-.5.5-.5.5-.5-15 6.5-15 6.5-3.5 8.5-3.5 8.5-2.5 4-2.5 4v1.5 1.5l.5 2 .5 2 1 1 1 1 .5 2 .5 2 .5 1.5.5 1.5 1 1 1 1 1 1.5 1 1.5-.5 1.5-.5 1.5 1 2.5 1 2.5h.5.5l5-4.5 5-4.5-.5 13.5-.5 13.5.5 8 .5 8 4 1 4 1"/><path d="m216 293h2l1-1 1-1 2 .5 2 .5.5-1.5.5-1.5.5-.5.5-.5 1-1 1-1 .5-1 .5-1-.5-.5-.5-.5-1-.5-1-.5-1 1.5-1 1.5-1 1-1 1-1.5 1-1.5 1-1 1-1 1-.5 1-.5 1"/></g><path d="m239 293h2l.5-1.5.5-1.5v-1.5-1.5-1-1-2-2l.5-1 .5-1-.5-.5-.5-.5-1-1.5-1-1.5-1.5.5-1.5.5-.5 1.5-.5 1.5-.5 1.5-.5 1.5-1 1.5-1 1.5-.5 1.5-.5 1.5 1 2 1 2 1 .5 1 .5h1.5 1.5" style="fill:#fcd1b7;stroke:#fcd1b7"/><g style="fill:#bd7850;stroke:#bd7850"><path d="m4 290l42-8h-12-12l-9 4-9 4"/><path d="m186 290v1l1-.5 1-.5v-1-1l.5-.5.5-.5v-1.5-1.5-1-1-1-1-1-1-1-1-1.5-1.5-1-1-1-1-1-1-1.5-1.5-1-1-1-1l.5-1.5.5-1.5-.5-.5-.5-.5-.5-1-.5-1-1-1-1-1-.5-1.5-.5-1.5-.5-2-.5-2-.5-1.5-.5-1.5-1-1.5-1-1.5v-2-2l-.5-2-.5-2v-1.5-1.5l.5-2.5.5-2.5-1.5.5-1.5.5-1.5 1-1.5 1-15 9.5-15 9.5-7 8.5-7 8.5 10-8 10-8 10.5-7 10.5-7-2 6-2 6-9.5 9-9.5 9-1 1-1 1 18 11.5 18 11.5 1.5 1.5 1.5 1.5"/><path d="m212 283l3 1 1-1 1-1 1-1.5 1-1.5 1.5-.5 1.5-.5.5 1 .5 1-1 1-1 1 .5 1 .5 1 1-1 1-1h1 1v-2-2l-1-.5-1-.5-1.5-.5-1.5-.5-1 1-1 1h-1-1l5-12.5 5-12.5 10-3.5 10-3.5v.5.5l1-2 1-2v-2-2l-1-1-1-1-2.5-1-2.5-1-1.5-.5-1.5-.5-1 .5-1 .5-1 .5-1 .5h-1-1v-1.5-1.5l.5-.5.5-.5-.5-.5-.5-.5v-1-1l-1-.5-1-.5v-2-2l-.5-.5-.5-.5-.5-1-.5-1-.5-1.5-.5-1.5-.5-.5-.5-.5-.5-.5-.5-.5-.5-.5-.5-.5-1 .5-1 .5-6 7-6 7 1.5 18 1.5 18-.5 2-.5 2 1 1 1 1-.5 2-.5 2-.5 1-.5 1-.5 2.5-.5 2.5"/></g><path d="m275 282h2v-1-1h1 1l.5-.5.5-.5 1.5-.5 1.5-.5 1-.5 1-.5v-1-1l-.5-1.5-.5-1.5v-1.5-1.5-1.5-1.5l-.5 1.5-.5 1.5v1 1l-.5 1.5-.5 1.5-.5 1-.5 1-.5.5-.5.5-1.5.5-1.5.5h-1.5-1.5v1 1l.5 1 .5 1" style="fill:#9e5834;stroke:#9e5834"/><path d="m206 281l2-1 1-1 1-1h1.5 1.5l.5-1 .5-1 .5-2 .5-2-1-1-1-1-1.5 1-1.5 1-.5.5-.5.5v1 1l-.5.5-.5.5v1 1l-1 .5-1 .5v1 1" style="fill:#d89e87;stroke:#d89e87"/><path d="m217 278h2l1-1 1-1 1.5.5 1.5.5 1-.5 1-.5-.5-.5-.5-.5 11-14.5 11-14.5-10 3.5-10 3.5-5 12.5-5 12.5" style="fill:#9e5834;stroke:#9e5834"/><path d="m225 275l1 1 .5-1 .5-1v-2-2-2.5-2.5l1-1 1-1 1.5-.5 1.5-.5 1.5-1 1.5-1 .5-1.5.5-1.5 1.5-1 1.5-1 .5-1.5.5-1.5 1-1 1-1 1-.5 1-.5 1.5-1 1.5-1v-.5-.5l-11 14.5-11 14.5" style="fill:#833e1d;stroke:#833e1d"/><path d="m230 275l3 1 .5-.5.5-.5h1 1l.5-1 .5-1 .5-.5.5-.5h1 1l.5-.5.5-.5 1-.5 1-.5h1 1 1 1 1 1 1.5 1.5l.5.5.5.5.5.5.5.5 1.5.5 1.5.5.5.5.5.5 8.5-6.5 8.5-6.5-4.5-11-4.5-11-7-11-7-11-5 9-5 9 2.5 1 2.5 1 1 1 1 1v2 2l-1 2-1 2-1.5 1-1.5 1-.5 1-.5 1-.5 1.5-.5 1.5-1 1.5-1 1.5-.5 1.5-.5 1.5-1 1-1 1-1.5 1-1.5 1-.5 1.5-.5 1.5-1 1.5-1 1.5-.5 2.5-.5 2.5" style="fill:#361803;stroke:#361803"/><path d="m142 266h2l1.5-1 1.5-1 1-1 1-1 10-10 10-10-1-1.5-1-1.5-15 12.5-15 12.5 1 .5 1 .5 1-.5 1-.5h1 1l-.5 1-.5 1" style="fill:#833e1d;stroke:#833e1d"/><path d="m214 265v1l-1.5-18-1.5-18 6-7 6-7h-.5-.5l-1-.5-1-.5-1-.5-1-.5-1.5-.5-1.5-.5v-1-1l-.5-.5-.5-.5.5-.5.5-.5 1-.5 1-.5h1 1l.5-.5.5-.5 1.5-.5 1.5-.5-.5-1-.5-1-1.5.5-1.5.5-.5.5-.5.5-1-.5-1-.5-.5.5-.5.5h-1-1l-.5.5-.5.5v1 1l-.5 1-.5 1h-1-1l-.5.5-.5.5h-1-1l-1-.5-1-.5-.5-1.5-.5-1.5 1-1.5 1-1.5-5 3-5 3-.5 4-.5 4 2.5 2.5 2.5 2.5 1-1 1-1 1-1 1-1 2-1 2-1-1.5 10.5-1.5 10.5 5 13 5 13" style="fill:#d89e87;stroke:#d89e87"/><path d="m135 263l2 1 15-12.5 15-12.5 1 1.5 1 1.5-10 10-10 10 9.5-9 9.5-9 2-6 2-6-10.5 7-10.5 7-10 8-10 8 2 .5 2 .5" style="fill:#9e5834;stroke:#9e5834"/><path d="m189 256l1 1-1-2.5-1-2.5.5-1.5.5-1.5-1-1.5-1-1.5-1-1-1-1-.5-1.5-.5-1.5-.5-2-.5-2-1-1-1-1v2 2l1 1.5 1 1.5.5 1.5.5 1.5.5 2 .5 2 .5 1.5.5 1.5 1 1 1 1 .5 1 .5 1" style="fill:#d89e87;stroke:#d89e87"/><path d="m271 256l3 1 1-1 1-1h2.5 2.5l.5-1.5.5-1.5v-1-1l.5-1 .5-1 1-1 1-1 .5-.5.5-.5 1-.5 1-.5.5-1.5.5-1.5.5-.5.5-.5.5-.5.5-.5.5-1 .5-1 6.5-11 6.5-11-2 2-2 2-12 14.5-12 14.5 7-12.5 7-12.5 1-5.5 1-5.5-5 4-5 4 7-10 7-10h-.5-.5l-.5 1-.5 1-.5.5-.5.5-1 .5-1 .5-1 1-1 1-9 11-9 11v12.5 12.5l-.5 1.5-.5 1.5" style="fill:#f4976b;stroke:#f4976b"/><path d="m281 255l3 1h1 1l1.5-1 1.5-1 .5-1.5.5-1.5h1 1l.5-1 .5-1 .5-1.5.5-1.5.5-1.5.5-1.5 1-1.5 1-1.5-1.5.5-1.5.5-1 1.5-1 1.5-1 1-1 1-1.5 1-1.5 1-.5 1.5-.5 1.5h-1-1l1-1.5 1-1.5.5-.5.5-.5.5-1 .5-1 1-1 1-1 .5-.5.5-.5.5-.5.5-.5v-2-2l-.5 1-.5 1-.5.5-.5.5-.5.5-.5.5-.5 1.5-.5 1.5-1 .5-1 .5-.5.5-.5.5-1 1-1 1-.5 1-.5 1v1 1l-.5 1.5-.5 1.5" style="fill:#d89e87;stroke:#d89e87"/><path d="m284 251h2l.5-1.5.5-1.5 1.5-1 1.5-1 1-1 1-1 1-1.5 1-1.5 1.5-.5 1.5-.5-1 1.5-1 1.5-.5 1.5-.5 1.5-.5 1.5-.5 1.5-.5 1-.5 1 1.5-1.5 1.5-1.5 1-1.5 1-1.5 1-1 1-1 .5-2 .5-2 1-1 1-1 .5-1.5.5-1.5-1 1.5-1 1.5h-1-1l-.5-.5-.5-.5v-1-1l1-.5 1-.5.5-.5.5-.5v-1-1h-1-1l-.5 1-.5 1-1 1-1 1-.5.5-.5.5-1.5 1-1.5 1v2 2l-.5.5-.5.5-.5.5-.5.5-1 1-1 1-.5 1-.5 1-.5.5-.5.5-1 1.5-1 1.5" style="fill:#f4976b;stroke:#f4976b"/><path d="m277 248l24-29 2-2 2-2-6.5 11-6.5 11 1.5-1 1.5-1 .5-.5.5-.5 1-1 1-1 .5-1 .5-1h1 1v1 1l-.5.5-.5.5-1 .5-1 .5v1 1l.5.5.5.5h1 1l1-1.5 1-1.5 6.5-12.5 6.5-12.5 5.5-10 5.5-10 4.5-9.5 4.5-9.5 4.5-13 4.5-13 4-14 4-14 3-13.5 3-13.5 2-14 2-14 2-15.5 2-15.5-1.5 1.5-1.5 1.5-2.5 15-2.5 15-3 15-3 15-4 13.5-4 13.5-5 11-5 11-5.5 12-5.5 12-7 11-7 11-7 10.5-7 10.5-1.5 1.5-1.5 1.5-1 5.5-1 5.5-7 12.5-7 12.5" style="fill:#d89e87;stroke:#d89e87"/><path d="m212 246l3 1 1-1 1-1 1-1.5 1-1.5-.5-1.5-.5-1.5-2-.5-2-.5-1 1-1 1-.5 2-.5 2v1 1h.5.5" style="fill:#9e5834;stroke:#9e5834"/><path d="m198 236h2l1-1 1-1 1-1.5 1-1.5.5-1.5.5-1.5.5-2 .5-2 .5-1.5.5-1.5v-1.5-1.5l-2 1-2 1-1 1-1 1-1 1-1 1-.5 2.5-.5 2.5-1.5 1-1.5 1v1 1l1.5 1.5 1.5 1.5" style="fill:#fcd1b7;stroke:#fcd1b7"/><path d="m233 236h2l1-.5 1-.5 1-.5 1-.5-1.5-1.5-1.5-1.5v-.5-.5l-.5-1-.5-1v-1-1l-.5-.5-.5-.5-.5-.5-.5-.5-.5-1-.5-1-.5-1.5-.5-1.5.5-.5.5-.5.5.5.5.5.5.5.5.5.5 1 .5 1 .5.5.5.5.5.5.5.5h1 1l.5-1 .5-1v-1-1-1-1l.5-.5.5-.5 1.5-1 1.5-1-.5-1.5-.5-1.5v-.5-.5h2 2l-12-2.5-12-2.5-1 1.5-1 1.5 1 1.5 1 1.5-.5 2-.5 2h.5.5l1-.5 1-.5.5.5.5.5.5.5.5.5.5.5.5.5.5 1.5.5 1.5.5 1 .5 1 .5.5.5.5v2 2l1 .5 1 .5v1 1l.5.5.5.5-.5.5-.5.5v1.5 1.5" style="fill:#9e5834;stroke:#9e5834"/><g style="fill:#833e1d;stroke:#833e1d"><path d="m236 230v1l.5-1 .5-1 1-1 1-1 1-1.5 1-1.5h1 1l.5-1 .5-1-.5-1.5-.5-1.5 1.5-1 1.5-1v-1-1h-1-1l-1.5 1-1.5 1-.5.5-.5.5v1 1 1 1l-.5 1-.5 1h-1-1l-.5-.5-.5-.5-.5-.5-.5-.5-.5-1-.5-1-.5-.5-.5-.5-.5-.5-.5-.5-.5.5-.5.5.5 1.5.5 1.5.5 1 .5 1 .5.5.5.5.5.5.5.5v1 1l.5 1 .5 1"/><path d="m220 215l2 1 .5-2 .5-2-1-1.5-1-1.5 1-1.5 1-1.5-1.5.5-1.5.5-.5.5-.5.5h-1-1l-1 .5-1 .5-.5.5-.5.5.5.5.5.5v1 1l1.5.5 1.5.5 1 .5 1 .5"/><path d="m0 213v1l18.5-3.5 18.5-3.5 2-7 2-7-8 2.5-8 2.5-7-4-7-4 7.5-7 7.5-7 11-7 11-7 6.5-8 6.5-8-10.5 5.5-10.5 5.5-9.5 3-9.5 3-1-4-1-4 6-6.5 6-6.5-8 2-8 2-7.5 5.5-7.5 5.5v18.5 18.5 9.5 9.5"/><path d="m60 212l29-4-1-5-1-5-11 6.5-11 6.5-2.5.5-2.5.5"/></g><path d="m206 212h2l.5-.5.5-.5h1 1l.5-1 .5-1v-1-1l.5-.5.5-.5h1 1l.5-.5.5-.5 1 .5 1 .5.5-.5.5-.5 1.5-.5 1.5-.5.5-1.5.5-1.5 1-1.5 1-1.5.5-2 .5-2h-1-1l-.5.5-.5.5.5.5.5.5-.5.5-.5.5-.5 1-.5 1-.5.5-.5.5-.5.5-.5.5-.5.5-.5.5-1 .5-1 .5-.5.5-.5.5-.5.5-.5.5h-1-1l-.5-1-.5-1-.5.5-.5.5h-1-1l-.5.5-.5.5h-1.5-1.5l-1 1.5-1 1.5.5 1.5.5 1.5 1 .5 1 .5" style="fill:#f0b197;stroke:#f0b197"/><g style="fill:#833e1d;stroke:#833e1d"><path d="m42 209l24-7-3.5-3.5-3.5-3.5-8.5 7-8.5 7"/><path d="m116 208l17-14-1.5-3.5-1.5-3.5-6 3.5-6 3.5-7 4-7 4-1.5 3-1.5 3h7.5 7.5"/></g><path d="m290 205v1l1-1 1-1 1-.5 1-.5.5-.5.5-.5.5-1 .5-1h.5.5l8-10.5 8-10.5-3 2.5-3 2.5-8 10-8 10-.5.5-.5.5" style="fill:#d89e87;stroke:#d89e87"/><path d="m205 204v1h1.5 1.5l.5-.5.5-.5h1 1l.5-.5.5-.5.5 1 .5 1h1 1l.5-.5.5-.5.5-.5.5-.5 1-.5 1-.5.5-.5.5-.5.5-.5.5-.5.5-.5.5-.5.5-1 .5-1 .5-.5.5-.5-.5-.5-.5-.5.5-.5.5-.5h1 1l-.5 2-.5 2-2-3.5-2-3.5-2 .5-2 .5-1.5 1-1.5 1-1 1-1 1-1.5 1-1.5 1-1 1-1 1-1 2-1 2" style="fill:#f4976b;stroke:#f4976b"/><path d="m320 187l14-23 1-5 1-5-6 11.5-6 11.5-2 5-2 5" style="fill:#bd7850;stroke:#bd7850"/><path d="m175 149l23-23 7-11 7-11 5.5-11 5.5-11 5.5-12.5 5.5-12.5 3.5-13 3.5-13 3.5-15.5 3.5-15.5h-2.5-2.5-2-2-2.5-2.5-1.5-1.5v1.5 1.5 1 1l-.5.5-.5.5-.5 1-.5 1-.5.5-.5.5v1 1l-.5.5-.5.5-.5 1-.5 1 .5.5.5.5v1 1l-.5.5-.5.5-.5.5-.5.5v-1.5-1.5l-.5-2-.5-2v-2-2l1-1 1-1v-3-3h-1.5-1.5-2.5-2.5-2-2-2-2v12.5 12.5l-1.5 11-1.5 11-2.5 9.5-2.5 9.5 8.5-4 8.5-4-5.5 11.5-5.5 11.5-4.5 11-4.5 11-5 12-5 12-7 11-7 11" style="fill:#833e1d;stroke:#833e1d"/><path d="m401 147l3 1-.5-1.5-.5-1.5.5-2 .5-2 .5-1.5.5-1.5.5-2 .5-2-1-1-1-1-1 1.5-1 1.5-1.5-.5-1.5-.5-.5 1.5-.5 1.5v2.5 2.5l.5 1.5.5 1.5 1 1 1 1" style="fill:#d89e87;stroke:#d89e87"/><path d="m75 131l16-19-6 1-6 1-2 8.5-2 8.5" style="fill:#833e1d;stroke:#833e1d"/><path d="m403 131l1 1 1.5-1.5 1.5-1.5.5-2 .5-2v-2-2l2-.5 2-.5v-2-2l-.5-2-.5-2-1-1-1-1 .5-1.5.5-1.5.5-2 .5-2 .5-1 .5-1 .5-1 .5-1-.5-1-.5-1v-1-1l.5-.5.5-.5-1-1-1-1-3.5 9.5-3.5 9.5-.5 10-.5 10" style="fill:#d89e87;stroke:#d89e87"/><path d="m173 113l16-33 1-8.5 1-8.5-2-4-2-4-.5-8-.5-8 3.5-8.5 3.5-8.5 3.5-11 3.5-11h-18-18-18-18-8-8l-3.5 15.5-3.5 15.5-.5 12-.5 12-2 9-2 9 8 1.5 8 1.5h4 4v9.5 9.5l1.5 2.5 1.5 2.5 3.5-11 3.5-11v-10-10l-1-3.5-1-3.5-4-2-4-2-5 7.5-5 7.5h-2-2l6-11.5 6-11.5 6-10 6-10 7-8.5 7-8.5 1 13 1 13-5 11.5-5 11.5 3.5 4.5 3.5 4.5 1 13.5 1 13.5 4.5-5.5 4.5-5.5 5.5 1 5.5 1 6 1 6 1 2-1.5 2-1.5-4.5 9.5-4.5 9.5-1.5 8.5-1.5 8.5" style="fill:#833e1d;stroke:#833e1d"/><path d="m419 109l-3-18-.5-9-.5-9-1.5 1-1.5 1-1 .5-1 .5.5 2 .5 2 1 1 1 1 .5 1.5.5 1.5-.5 1-.5 1-1 .5-1 .5v2 2l1 1 1 1-.5.5-.5.5v1 1l.5 1 .5 1-.5 1-.5 1 1.5 1 1.5 1 1 1.5 1 1.5h1 1v1.5 1.5" style="fill:#bf8886;stroke:#bf8886"/><path d="m49 103h2v-2-2-1.5-1.5l-.5-1.5-.5-1.5v-2-2l-.5-.5-.5-.5.5.5.5.5h10 10l5.5-1 5.5-1 4-9 4-9-6 1.5-6 1.5-1-5-1-5-4.5 9-4.5 9-3.5-8.5-3.5-8.5-6.5 4-6.5 4 1 14 1 14 .5 2 .5 2" style="fill:#833e1d;stroke:#833e1d"/><g style="fill:#d89e87;stroke:#d89e87"><path d="m411 87v1l1-.5 1-.5.5-1 .5-1-.5-1.5-.5-1.5-1-1-1-1-.5-2-.5-2-1 1-1 1 1 1.5 1 1.5-.5 1.5-.5 1.5.5 1.5.5 1.5h.5.5"/><path d="m408 74h2l.5-.5.5-.5.5 1 .5 1 1.5-1 1.5-1 1-13.5 1-13.5-2.5 8-2.5 8-2 6-2 6"/></g><path d="m3 71l18-19 6-6 6-6 2.5-2 2.5-2v-9-9l5.5-9 5.5-9h-2.5-2.5-2.5-2.5-2-2-2.5-2.5-2-2-1.5-1.5l-.5 1-.5 1-.5 1-.5 1-.5 1.5-.5 1.5-1 1.5-1 1.5-1 1-1 1-1 1.5-1 1.5v2 2l-1.5 1-1.5 1-.5 1.5-.5 1.5-1 .5-1 .5.5-1 .5-1 .5-1.5.5-1.5v-2-2-1-1l.5-1 .5-1 .5-1.5.5-1.5.5-.5.5-.5.5-1 .5-1 1-1 1-1v-1-1l1.5-1 1.5-1h-1.5-1.5-2.5-2.5-.5-.5l-.5 1-.5 1-.5 1.5-.5 1.5-1 1.5-1 1.5-.5 1.5-.5 1.5-1 1.5-1 1.5-.5 1.5-.5 1.5-1 .5-1 .5v3 3 2.5 2.5 2 2 2.5 2.5 2 2 2.5 2.5 2 2 2 2 2.5 2.5 1.5 1.5h2 2l.5 1.5.5 1.5-1 1.5-1 1.5v1 1" style="fill:#bd7850;stroke:#bd7850"/><g style="fill:#833e1d;stroke:#833e1d"><path d="m259 67l3 1 .5-1.5.5-1.5.5-2 .5-2v-2-2l-1-.5-1-.5-1 1-1 1-.5 2-.5 2-1 1-1 1 .5 1.5.5 1.5h.5.5"/><path d="m254 62l14-18-1.5-10-1.5-10 1.5-12 1.5-12h-1.5-1.5-1-1l-4.5 13-4.5 13 2.5 6 2.5 6-2.5 12-2.5 12"/><path d="m190 60l8-23-3.5 8.5-3.5 8.5-.5 3-.5 3"/></g><path d="m8 25l2-1 .5-1.5.5-1.5 1.5-1 1.5-1v-2-2l1-1.5 1-1.5 1-1 1-1 1-1.5 1-1.5.5-1.5.5-1.5.5-1 .5-1 .5-1 .5-1h-2-2l-1.5 1-1.5 1v1 1l-1 1-1 1-.5 1-.5 1-.5.5-.5.5-.5 1.5-.5 1.5-.5 1-.5 1v1 1 2 2l-.5 1.5-.5 1.5-.5 1-.5 1" style="fill:#d89e87;stroke:#d89e87"/><path d="m225 19l1-1 .5-.5.5-.5v-1-1l-.5-.5-.5-.5.5-1 .5-1 .5-.5.5-.5v-1-1l.5-.5.5-.5.5-1 .5-1 .5-.5.5-.5v-1-1-1.5-1.5h-2.5-2.5v3 3l-1 1-1 1v2 2l.5 2 .5 2v1.5 1.5" style="fill:#9e5834;stroke:#9e5834"/><g style="fill:#d89e87;stroke:#d89e87"><path d="m0 17v1l1-.5 1-.5.5-1.5.5-1.5 1-1.5 1-1.5.5-1.5.5-1.5 1-1.5 1-1.5.5-1.5.5-1.5.5-1 .5-1h-3-3-2-2v2.5 2.5 2 2 2.5 2.5 1.5 1.5"/><path d="m367 14l3 1 1-1 1-1-.5-2-.5-2-1-1-1-1h-1.5-1.5v2 2l.5 1.5.5 1.5"/></g></g></svg>