<svg xmlns="http://www.w3.org/2000/svg" viewBox="0 0 960 536"><g style="fill:#141613"><path d="m0 0h960v536h-960z"/><path d="m959 536h1v-12.5-12.5-11-11-11.5-11.5-10-10h-.5-.5l-5-.5-5-.5-9.5-1.5-9.5-1.5-10-1-10-1 3.5-5.5 3.5-5.5 9.5-1.5 9.5-1.5 9-2 9-2v-7-7l-2.5-5.5-2.5-5.5-6-5.5-6-5.5-6.5-3.5-6.5-3.5-5.5-5.5-5.5-5.5 2-6 2-6 10 1 10 1 8.5 2 8.5 2 1.5-9.5 1.5-9.5.5-10.5.5-10.5v-10-10-11-11-11.5-11.5l.5-9.5.5-9.5v11 11 11 11 11 11 11.5 11.5l.5 17 .5 17v-11.5-11.5-11-11-11.5-11.5-11-11-11-11-11-11-7.5-7.5h-.5-.5l-6.5-4.5-6.5-4.5-3.5-.5-3.5-.5-8-3-8-3-4-4-4-4-6.5-4-6.5-4-2.5-7.5-2.5-7.5-8-3-8-3-6-4-6-4-3.5-.5-3.5-.5-4.5-7-4.5-7v-9-9l-7 4-7 4-.5-9.5-.5-9.5-2.5 1.5-2.5 1.5-3.5 8-3.5 8-3 8-3 8-3.5 7.5-3.5 7.5-3.5 7.5-3.5 7.5-3.5 7.5-3.5 7.5-4 7.5-4 7.5-3.5 7.5-3.5 7.5-3 7-3 7-3.5 7.5-3.5 7.5-3.5 8-3.5 8-4 7-4 7-3 8-3 8-4 7-4 7-4 7-4 7-4 7.5-4 7.5-3.5 7.5-3.5 7.5-4 7-4 7-4.5 6.5-4.5 6.5 2-7 2-7 4.5-7 4.5-7 3-8 3-8 4-7 4-7 3.5-7.5 3.5-7.5 3-7 3-7 3.5-8 3.5-8 3.5-7.5 3.5-7.5 3-8 3-8 3-8 3-8 3-8 3-8 3.5-8 3.5-8 3-8 3-8 2.5-8.5 2.5-8.5 3-8 3-8 2.5-8.5 2.5-8.5 3-8.5 3-8.5 3-8 3-8 2-8 2-8 1-8 1-8-3 8-3 8h-3.5-3.5l-1-2-1-2-3.5 7.5-3.5 7.5-2.5 8.5-2.5 8.5-3.5 7.5-3.5 7.5-4 6.5-4 6.5-2.5 5.5-2.5 5.5-2 8-2 8-3.5 6.5-3.5 6.5-2.5 8.5-2.5 8.5-4.5 7-4.5 7-3 8-3 8-3.5 7.5-3.5 7.5-3.5 6.5-3.5 6.5-3.5 7.5-3.5 7.5-4 7.5-4 7.5-3.5 7.5-3.5 7.5-4 7-4 7-4 7-4 7-4.5 6.5-4.5 6.5-4 7.5-4 7.5-4.5 6.5-4.5 6.5-4 7-4 7-4.5 6.5-4.5 6.5-4.5 6.5-4.5 6.5-5 6.5-5 6.5-6.5 5-6.5 5-.5 1-.5 1-.5 1-.5 1-.5 1-.5 1-5 6.5-5 6.5-6 5-6 5-6.5 4.5-6.5 4.5-7.5 4-7.5 4-8.5 2.5-8.5 2.5-10.5.5-10.5.5-10-1-10-1-9.5-1.5-9.5-1.5-9-2.5-9-2.5-8-3-8-3-8.5-2.5-8.5-2.5-7.5-3.5-7.5-3.5-8-3-8-3-8.5-3-8.5-3-8-3-8-3-7.5-3.5-7.5-3.5-8-3-8-3-7.5-3.5-7.5-3.5-8-3.5-8-3.5-7.5-3.5-7.5-3.5-7.5-3.5-7.5-3.5-7.5-3.5-7.5-3.5-7-4-7-4-7-4.5-7-4.5-6.5-4.5-6.5-4.5-6.5-4.5-6.5-4.5-6-5-6-5-5.5-5.5-5.5-5.5-5.5-6-5.5-6-4.5-6.5-4.5-6.5-4-7-4-7-1.5-9.5-1.5-9.5v-10-10l1-10.5 1-10.5 1.5-9.5 1.5-9.5 2-9 2-9 3-7 3-7 3-8 3-8 4.5-7 4.5-7 4.5-6.5 4.5-6.5 4.5-6.5 4.5-6.5 5.5-5.5 5.5-5.5 6-5 6-5 6-5.5 6-5.5 6.5-4.5 6.5-4.5 7-4 7-4 7.5-3.5 7.5-3.5 7-4 7-4 8-3.5 8-3.5 8-3 8-3 8-3 8-3 8-3 8-3 8.5-2.5 8.5-2.5 8.5-3 8.5-3 8.5-2.5 8.5-2.5 8.5-2.5 8.5-2.5 8.5-2.5 8.5-2.5 8-2 8-2 10-2.5 10-2.5h-12.5-12.5-11-11-11-11-11-11-11.5-11.5-11-11-11-11-11-11-11-11-3-3l11 .5 11 .5-2.5.5-2.5.5-11 .5-11 .5-7.5 3.5-7.5 3.5-7 3-7 3-7.5 3.5-7.5 3.5-7.5 4-7.5 4-4.5 5.5-4.5 5.5-7 4-7 4-5.5 5.5-5.5 5.5-5.5 5.5-5.5 5.5-5.5 6-5.5 6-4.5 6.5-4.5 6.5-4 7-4 7-4 7-4 7-3 8-3 8-2 9.5-2 9.5-2 9-2 9-1 10-1 10-.5 10.5-.5 10.5v10 10 8.5 8.5l.5 9.5.5 9.5 3 8 3 8 4.5 6.5 4.5 6.5 4 7 4 7 5.5 6 5.5 6 5 6 5 6 5 6 5 6 6 5 6 5 5.5 6 5.5 6 6.5 4.5 6.5 4.5 6.5 4.5 6.5 4.5 6.5 4.5 6.5 4.5 7 4 7 4 7 4.5 7 4.5 7 4 7 4 7.5 3.5 7.5 3.5 7.5 3.5 7.5 3.5 7 4 7 4 8 3.5 8 3.5 7.5 3.5 7.5 3.5 7.5 3.5 7.5 3.5 7.5 3.5 7.5 3.5 8 3 8 3 7.5 4 7.5 4 8 3 8 3 7.5 3.5 7.5 3.5 7.5 3.5 7.5 3.5 8 3 8 3 8 3.5 8 3.5 8.5 2.5 8.5 2.5 9.5 3 9.5 3h12.5 12.5 11.5 11.5 11 11 11 11 11 11 11 11 11.5 11.5 11 11 11 11 11 11 11 11 11.5 11.5 11 11 11 11 11 11 11 11 11.5 11.5 11 11 11 11 7.5 7.5" style="stroke:#141613;stroke-linejoin:round;stroke-width:.7"/></g><g style="stroke-linejoin:round;stroke-width:.7"><path d="m959 446h1v-1-1h-.5-.5l-10-1.5-10-1.5-9.5-1.5-9.5-1.5-1.5-3.5-1.5-3.5 9.5-1.5 9.5-1.5 12-2.5 12-2.5v-13-13-11.5-11.5-6.5-6.5l-.5-17-.5-17v-11.5-11.5-11-11-11-11-11-11l-.5 9.5-.5 9.5v11.5 11.5 11 11 10 10l-.5 10.5-.5 10.5-1.5 9.5-1.5 9.5-8.5-2-8.5-2-10-1-10-1-2 6-2 6 5.5 5.5 5.5 5.5 6.5 3.5 6.5 3.5 6 5.5 6 5.5 2.5 5.5 2.5 5.5v7 7l-9 2-9 2-9.5 1.5-9.5 1.5-3.5 5.5-3.5 5.5 10 1 10 1 9.5 1.5 9.5 1.5 5 .5 5 .5" style="fill:#292f32;stroke:#292f32"/><path d="m959 444h1v-1-1h-.5-.5l-10-2-10-2-9.5-1.5-9.5-1.5 7.5-2.5 7.5-2.5 12.5-2.5 12.5-2.5v-1-1l-12 2.5-12 2.5-9.5 1.5-9.5 1.5 1.5 3.5 1.5 3.5 9.5 1.5 9.5 1.5 10 1.5 10 1.5" style="fill:#6f6555;stroke:#6f6555"/><path d="m959 442h1v-1-1h-.5-.5l-9.5-2-9.5-2 10-4.5 10-4.5v-1-1l-12.5 2.5-12.5 2.5-7.5 2.5-7.5 2.5 9.5 1.5 9.5 1.5 10 2 10 2" style="fill:#83786a;stroke:#83786a"/><path d="m959 440h1v-1.5-1.5-2-2-2.5-2.5-.5-.5l-10 4.5-10 4.5 9.5 2 9.5 2" style="fill:#a39685;stroke:#a39685"/><path d="m959 212h1v-12.5-12.5-11-11-11.5-11.5-11-11-11-11-11-11-11-11-5-5h-.5-.5l-2.5-1-2.5-1-4.5-5.5-4.5-5.5-6-4-6-4-3.5-7.5-3.5-7.5-5-4-5-4h-12.5-12.5-11-11-11.5-11.5-11-11-9-9l-.5 1.5-.5 1.5.5 2 .5 2v2 2l.5 1.5.5 1.5v2.5 2.5 2 2l-.5 2-.5 2-1.5 11-1.5 11-2 9-2 9-3 8-3 8-2.5 8.5-2.5 8.5-3 8.5-3 8.5-3 8-3 8-3 9-3 9-.5 1.5-.5 1.5-.5 1.5-.5 1.5-.5 2-.5 2-.5 1.5-.5 1.5-1 1.5-1 1.5-.5 1-.5 1-.5 1-.5 1-.5 1-.5 1-.5 1.5-.5 1.5-.5 2-.5 2-1 1-1 1-.5 1.5-.5 1.5-.5 2-.5 2-.5 1.5-.5 1.5-1 1.5-1 1.5-.5 1.5-.5 1.5-1.5 2-1.5 2-1.5 1.5-1.5 1.5-.5 1.5-.5 1.5-.5 1-.5 1-5 7-5 7-5 6-5 6-4.5 6.5-4.5 6.5-5 6.5-5 6.5-4.5 6.5-4.5 6.5-8.5 12.5-8.5 12.5 5.5-5 5.5-5 4.5-6.5 4.5-6.5 4-7 4-7 4.5-6.5 4.5-6.5 6-7.5 6-7.5 1-1.5 1-1.5 1-1 1-1 1.5-1 1.5-1 1-1 1-1v1.5 1.5l-.5 1.5-.5 1.5-.5.5-.5.5v1 1l-.5 1-.5 1-.5.5-.5.5-.5.5-.5.5v1 1l-.5 1-.5 1-.5.5-.5.5v1 1l-.5.5-.5.5-.5 1-.5 1-.5 1.5-.5 1.5-.5.5-.5.5-.5.5-.5.5v1 1l-1 .5-1 .5-.5 1-.5 1-4 8.5-4 8.5-4 7.5-4 7.5-4 7-4 7-3.5 7.5-3.5 7.5-6 5-6 5-2 6-2 6-4 8-4 8-4.5 7.5-4.5 7.5-4.5 6.5-4.5 6.5-4.5 6.5-4.5 6.5-4.5 6.5-4.5 6.5-6.5 4-6.5 4-.5 1.5-.5 1.5v.5.5 2 2l6.5-5 6.5-5 5-6.5 5-6.5 4.5-6.5 4.5-6.5 4.5-6.5 4.5-6.5 4-7 4-7 4.5-6.5 4.5-6.5 4-7.5 4-7.5 4.5-6.5 4.5-6.5 4-7 4-7 4-7 4-7 3.5-7.5 3.5-7.5 4-7.5 4-7.5 3.5-7.5 3.5-7.5 3.5-6.5 3.5-6.5 3.5-7.5 3.5-7.5 3-8 3-8 4.5-7 4.5-7 2.5-8.5 2.5-8.5 3.5-6.5 3.5-6.5 2-8 2-8 2.5-5.5 2.5-5.5 4-6.5 4-6.5 3.5-7.5 3.5-7.5 2.5-8.5 2.5-8.5 3.5-7.5 3.5-7.5 1 2 1 2h3.5 3.5l3-8 3-8-1 8-1 8-2 8-2 8-3 8-3 8-3 8.5-3 8.5-2.5 8.5-2.5 8.5-3 8-3 8-2.5 8.5-2.5 8.5-3 8-3 8-3.5 8-3.5 8-3 8-3 8-3 8-3 8-3 8-3 8-3.5 7.5-3.5 7.5-3.5 8-3.5 8-3 7-3 7-3.5 7.5-3.5 7.5-4 7-4 7-3 8-3 8-4.5 7-4.5 7-2 7-2 7 4.5-6.5 4.5-6.5 4-7 4-7 3.5-7.5 3.5-7.5 4-7.5 4-7.5 4-7 4-7 4-7 4-7 3-8 3-8 4-7 4-7 3.5-8 3.5-8 3.5-7.5 3.5-7.5 3-7 3-7 3.5-7.5 3.5-7.5 4-7.5 4-7.5 3.5-7.5 3.5-7.5 3.5-7.5 3.5-7.5 3.5-7.5 3.5-7.5 3-8 3-8 3.5-8 3.5-8 2.5-1.5 2.5-1.5.5 9.5.5 9.5 7-4 7-4v9 9l4.5 7 4.5 7 3.5.5 3.5.5 6 4 6 4 8 3 8 3 2.5 7.5 2.5 7.5 6.5 4 6.5 4 4 4 4 4 8 3 8 3 3.5.5 3.5.5 6.5 4.5 6.5 4.5" style="fill:#292f32;stroke:#292f32"/><g style="fill:#415366;stroke:#415366"><path d="m959 44h1v-12.5-12.5-9.5-9.5h-1.5-1.5-11.5-11.5-9-9l5 4 5 4 3.5 7.5 3.5 7.5 6 4 6 4 4.5 5.5 4.5 5.5 2.5 1 2.5 1"/><path d="m806 27l1-4v-2-2-2.5-2.5l-.5-1.5-.5-1.5v-2-2l-.5-2-.5-2 .5-1.5.5-1.5h-2-2l.5 1.5.5 1.5v1 1 1.5 1.5l.5 1.5.5 1.5v1 1 1.5 1.5 2 2 1 1 1.5 1.5l-.5 2-.5 2-1.5 11-1.5 11-2.5 8.5-2.5 8.5-2.5 9-2.5 9-2.5 8.5-2.5 8.5-3 8-3 8-5 14.5-5 14.5.5 1.5.5 1.5 3-9 3-9 3-8 3-8 3-8.5 3-8.5 2.5-8.5 2.5-8.5 3-8 3-8 2-9 2-9 1.5-11 1.5-11"/></g><path d="m803 29l1-4v-1.5-1.5-1-1-2-2-1.5-1.5-1-1l-.5-1.5-.5-1.5v-1.5-1.5-1-1l-.5-1.5-.5-1.5h-1.5-1.5-2-2-2.5-2.5-2-2-2.5-2.5-2-2-2.5-2.5-2-2l-11 .5-11 .5h-11-11-11-11l2.5.5 2.5.5h11 11 11 11l9 2.5 9 2.5 5 6 5 6 7-2 7-2 3 3 3 3-.5 10-.5 10-2 11-2 11-2.5 8.5-2.5 8.5-2.5 8.5-2.5 8.5-3 8-3 8-5 15.5-5 15.5.5 2 .5 2 5-14.5 5-14.5 3-8 3-8 2.5-8.5 2.5-8.5 2.5-9 2.5-9 2.5-8.5 2.5-8.5 1.5-11 1.5-11" style="fill:#56748b;stroke:#56748b"/><path d="m798 41l1-20-3-3-3-3-7 2-7 2-5-6-5-6-9-2.5-9-2.5h-11-11-11-11l-2.5-.5-2.5-.5h11 11 11 11l11-.5 11-.5h-12.5-12.5-11.5-11.5-11-11-11-11-11-11-11-11-11.5-11.5-11-11-11-11-11-11-7.5-7.5l1 .5 1 .5h2 2 2.5 2.5 2 2 2.5 2.5 2 2 2.5 2.5 2 2l.5.5.5.5h-11.5-11.5l-10.5.5-10.5.5-9 2-9 2-8.5 2.5-8.5 2.5-9 2-9 2-8 3-8 3-9.5 1.5-9.5 1.5-15 4-15 4v1.5 1.5 2 2l.5 1.5.5 1.5 1 .5 1 .5 1 .5 1 .5.5-1.5.5-1.5 1 1 1 1 1 1.5 1 1.5 1.5.5 1.5.5v1 1l-3.5 1-3.5 1-1 4-1 4-8.5 10.5-8.5 10.5-.5 1.5-.5 1.5-8.5-1-8.5-1-10-4.5-10-4.5-1-.5-1-.5h-1.5-1.5l-.5.5-.5.5h-1.5-1.5l-1.5-1-1.5-1-.5-1-.5-1h-1-1-1-1-1.5-1.5l-1-1-1-1-.5.5-.5.5-.5-1-.5-1-2-1-2-1-1 .5-1 .5-1.5-.5-1.5-.5-.5-.5-.5-.5h-.5-.5l-1.5.5-1.5.5-.5.5-.5.5-1 .5-1 .5-1.5.5-1.5.5h-2-2-1.5-1.5l-1.5 1.5-1.5 1.5-.5.5-.5.5-1 .5-1 .5-1 1-1 1-1 1-1 1h-2-2l-.5.5-.5.5-1-.5-1-.5-1 1-1 1-1-.5-1-.5-1.5 1.5-1.5 1.5-1.5 1-1.5 1-1 1-1 1-1.5 1-1.5 1-1.5.5-1.5.5-1 1-1 1-1.5 1-1.5 1-1.5.5-1.5.5-1.5 1-1.5 1-1 .5-1 .5 1 .5 1 .5h1.5 1.5l.5-.5.5-.5.5-.5.5-.5.5.5.5.5h1.5 1.5l.5.5.5.5h1 1l.5.5.5.5v1 1l-.5 1-.5 1 1.5-.5 1.5-.5h2 2 2 2l2 .5 2 .5 1.5.5 1.5.5 1.5 1 1.5 1v2 2l.5 2 .5 2v2 2l-.5 1.5-.5 1.5-2.5 9-2.5 9-5.5-3-5.5-3-3.5-.5-3.5-.5-1 1-1 1-5 3-5 3-3-8-3-8 5.5-10.5 5.5-10.5-1-.5-1-.5-.5-.5-.5-.5-1-2-1-2-7 5-7 5-6.5 4.5-6.5 4.5-5.5 5.5-5.5 5.5-5 6-5 6-5 6.5-5 6.5-8 13-8 13v1.5 1.5l-.5.5-.5.5-.5 1-.5 1-.5 1.5-.5 1.5-.5.5-.5.5v1.5 1.5l-1 1-1 1 1 1.5 1 1.5 3-8.5 3-8.5 4-7 4-7 5-6 5-6 5.5-5.5 5.5-5.5 6-5 6-5 7.5-3 7.5-3 4.5 6.5 4.5 6.5 8 3 8 3 10-1 10-1 5-1.5 5-1.5 10 1 10 1 8 3 8 3h11 11 11 11l8.5-3 8.5-3 3 1 3 1 .5 1.5.5 1.5 9.5-.5 9.5-.5 6.5 2.5 6.5 2.5 7-.5 7-.5 9 2 9 2 8-2 8-2 8.5 2.5 8.5 2.5 6 2 6 2 8.5 1 8.5 1h5 5l10 1 10 1 8-3 8-3 7 4 7 4h6.5 6.5l10.5-.5 10.5-.5 7 4 7 4h8 8l8.5-2.5 8.5-2.5 7-2.5 7-2.5 4.5.5 4.5.5 5-1 5-1 5.5-.5 5.5-.5 8.5-6 8.5-6 8-3.5 8-3.5 15.5 2.5 15.5 2.5 5-15.5 5-15.5 3-8 3-8 2.5-8.5 2.5-8.5 2.5-8.5 2.5-8.5 2-11 2-11" style="fill:#5c91bb;stroke:#5c91bb"/><path d="m769 154l1-3-.5-1.5-.5-1.5-.5-2-.5-2-15.5-2.5-15.5-2.5-8 3.5-8 3.5v.5.5h2 2l2-.5 2-.5 1.5-1 1.5-1 1-1 1-1h1 1 1.5 1.5l.5 1.5.5 1.5h1 1l1-.5 1-.5 1-1 1-1h3 3 1.5 1.5l1 .5 1 .5 1 1 1 1 .5.5.5.5 1 .5 1 .5 1.5.5 1.5.5v1 1l-1 2-1 2v1.5 1.5l-1 1-1 1-.5 2-.5 2-.5 1.5-.5 1.5-1.5 1-1.5 1-.5.5-.5.5v.5.5 1 1 2.5 2.5l.5-1 .5-1 .5-.5.5-.5.5-.5.5-.5.5-1 .5-1 .5-.5.5-.5h.5.5l1-.5 1-.5.5-1 .5-1 1-1.5 1-1.5.5-1.5.5-1.5.5-2 .5-2 .5-1.5.5-1.5" style="fill:#7d8fa8;stroke:#7d8fa8"/><path d="m765 150v-2l-1.5-.5-1.5-.5-1-.5-1-.5-.5-.5-.5-.5-1-1-1-1-1-.5-1-.5h-1.5-1.5l.5 1 .5 1 1.5 1 1.5 1 1 1 1 1v1 1l.5.5.5.5.5 1 .5 1 .5 1 .5 1-9 .5-9 .5-7-5-7-5-2 .5-2 .5h-2-2l-1 1.5-1 1.5-.5 1.5-.5 1.5.5 1 .5 1-.5 1.5-.5 1.5.5 1 .5 1 1.5.5 1.5.5 1.5.5 1.5.5 1 .5 1 .5 1.5.5 1.5.5 2 .5 2 .5 1 .5 1 .5 1.5.5 1.5.5.5-.5.5-.5.5.5.5.5h1 1l1 .5 1 .5.5.5.5.5h1 1 1 1l1-.5 1-.5h2 2l1.5-1 1.5-1 .5-1.5.5-1.5.5-2 .5-2 1-1 1-1v-1.5-1.5l1-2 1-2" style="fill:#b8c2c8;stroke:#b8c2c8"/><path d="m762 171l1-2-1 .5-1 .5-.5 1-.5 1-.5 1-.5 1-1 1.5-1 1.5-.5 1.5-.5 1.5-.5 2-.5 2-.5 1.5-.5 1.5-1 1.5-1 1.5-.5 1.5-.5 1.5-.5 2-.5 2-1 1-1 1v1.5 1.5l1.5-2 1.5-2 .5-1.5.5-1.5 1-1.5 1-1.5.5-1.5.5-1.5.5-2 .5-2 .5-1.5.5-1.5 1-1 1-1 .5-2 .5-2 .5-1.5.5-1.5.5-1 .5-1" style="fill:#415366;stroke:#415366"/><path d="m761 155l-1-2-.5-1-.5-1-.5-.5-.5-.5v-1-1l-1-1-1-1-1.5-1-1.5-1-.5-1-.5-1h-3-3l-1 1-1 1-1 .5-1 .5h-1-1l-.5-1.5-.5-1.5h-1.5-1.5-1-1l-1 1-1 1-1.5 1-1.5 1 7 5 7 5 9-.5 9-.5" style="fill:#d4d2cb;stroke:#d4d2cb"/><path d="m760 172l1-2h-.5-.5l-.5.5-.5.5-.5 1-.5 1-.5.5-.5.5-.5.5-.5.5-.5 1-.5 1-.5 1-.5 1v1.5 1.5l-.5.5-.5.5-.5 1-.5 1-.5.5-.5.5v1 1l-.5.5-.5.5v1.5 1.5l-1 1-1 1v1 1l-.5.5-.5.5v1 1l-.5 1-.5 1-.5.5-.5.5-.5 1-.5 1-.5 1-.5 1v1 1h.5.5l.5-1.5.5-1.5 1.5-1.5 1.5-1.5v-1.5-1.5l1-1 1-1 .5-2 .5-2 .5-1.5.5-1.5 1-1.5 1-1.5.5-1.5.5-1.5.5-2 .5-2 .5-1.5.5-1.5 1-1.5 1-1.5.5-1 .5-1" style="fill:#56748b;stroke:#56748b"/><path d="m755 169l1-1h-2-2l-1 .5-1 .5h-1-1-1-1l-.5-.5-.5-.5-1-.5-1-.5h-1-1l-.5-.5-.5-.5-.5.5-.5.5-1.5-.5-1.5-.5 1 1 1 1 1.5 1 1.5 1h2 2 2.5 2.5 2.5 2.5v-.5-.5" style="fill:#95bfd4;stroke:#95bfd4"/><path d="m754 179l1-2v-2.5-2.5h-.5-.5l-.5 1-.5 1-1 1.5-1 1.5-.5 1.5-.5 1.5-.5 2-.5 2-.5 1.5-.5 1.5-.5 2-.5 2-1 1-1 1-.5 1.5-.5 1.5-.5 2-.5 2-.5 1.5-.5 1.5-.5 1.5-.5 1.5 1.5-1 1.5-1 .5-1 .5-1 .5-.5.5-.5.5-1 .5-1v-1-1l.5-.5.5-.5v-1-1l1-1 1-1v-1.5-1.5l.5-.5.5-.5v-1-1l.5-.5.5-.5.5-1 .5-1 .5-.5.5-.5v-1.5-1.5" style="fill:#5c91bb;stroke:#5c91bb"/><path d="m754 172h1v-1-1h-2.5-2.5-2.5-2.5-2-2l-1.5-1-1.5-1-1-1-1-1h-.5-.5l-8-.5-8-.5v-7.5-7.5l1-1.5 1-1.5v-.5-.5l-8.5 6-8.5 6-5.5.5-5.5.5-5 1-5 1-4.5-.5-4.5-.5-7 2.5-7 2.5-8.5 2.5-8.5 2.5h-8-8l-7-4-7-4-10.5.5-10.5.5h-6.5-6.5l-7-4-7-4-8 3-8 3-10-1-10-1h-5-5l-8.5-1-8.5-1-6-2-6-2-8.5-2.5-8.5-2.5-8 2-8 2-9-2-9-2-7 .5-7 .5-6.5-2.5-6.5-2.5-9.5.5-9.5.5-.5-1.5-.5-1.5-3-1-3-1-8.5 3-8.5 3h-11-11-11-11l-8-3-8-3-10-1-10-1-5 1.5-5 1.5-10 1-10 1-8-3-8-3-4.5-6.5-4.5-6.5-7.5 3-7.5 3-6 5-6 5-5.5 5.5-5.5 5.5-5 6-5 6-4 7-4 7-3 8.5-3 8.5v1 1h1 1 1 1l1-.5 1-.5.5-.5.5-.5h1 1 1 1l.5-.5.5-.5 1-.5 1-.5h1 1l.5-.5.5-.5h1 1l.5-1 .5-1h1 1l.5-.5.5-.5 1.5-.5 1.5-.5 1-1.5 1-1.5 1.5.5 1.5.5 2-.5 2-.5 1-1 1-1 1-.5 1-.5h2 2l1.5 1 1.5 1 2 1 2 1 1 1 1 1 1 .5 1 .5h2 2l.5.5.5.5 1 .5 1 .5 1.5.5 1.5.5 1.5 1 1.5 1 2 1 2 1 6.5 3 6.5 3 7-.5 7-.5h10 10l10.5.5 10.5.5 10 1 10 1-5 2-5 2h10.5 10.5 11 11l10 1 10 1 10.5.5 10.5.5 7.5 3.5 7.5 3.5 11 .5 11 .5h10 10l7.5 3.5 7.5 3.5 8.5-1.5 8.5-1.5 7.5 3.5 7.5 3.5 8 .5 8 .5 9.5 1.5 9.5 1.5 10.5.5 10.5.5 9.5 1.5 9.5 1.5 10 1 10 1h10.5 10.5l9.5 1.5 9.5 1.5 8.5 2.5 8.5 2.5 3.5 3.5 3.5 3.5 2 7 2 7 8-2.5 8-2.5 8-3 8-3 5-6.5 5-6.5 5-6 5-6 5-6.5 5-6.5v-1-1l.5-1.5.5-1.5 1-1 1-1 1-1.5 1-1.5 1-1.5 1-1.5.5-1.5.5-1.5.5-1.5.5-1.5.5-2 .5-2 .5-1.5.5-1.5 1-1 1-1 .5-2 .5-2 .5-1.5.5-1.5.5-2 .5-2 .5-1.5.5-1.5 1-1.5 1-1.5.5-1 .5-1" style="fill:#78b0ce;stroke:#78b0ce"/><path d="m743 210l1-2h-.5-.5l-1 1-1 1-.5.5-.5.5-.5 1-.5 1-.5.5-.5.5-.5.5-.5.5-.5.5-.5.5-1 1.5-1 1.5-5 6.5-5 6.5-5 6-5 6-5 6.5-5 6.5-.5 1-.5 1-5 7-5 7-5 6.5-5 6.5-8.5 9.5-8.5 9.5h2 2l-.5 1.5-.5 1.5-.5 2-.5 2-1 1.5-1 1.5-.5 1-.5 1v.5.5l1 2 1 2 .5 1 .5 1 1-.5 1-.5 1 1.5 1 1.5 1.5.5 1.5.5.5 1 .5 1v-1.5-1.5l-1-.5-1-.5-.5-1-.5-1-1-1-1-1-1-1.5-1-1.5.5-1 .5-1 .5-1.5.5-1.5 1-1 1-1 .5-2 .5-2 1-1 1-1 1-2.5 1-2.5 8.5-12.5 8.5-12.5 4.5-6.5 4.5-6.5 5-6.5 5-6.5 4.5-6.5 4.5-6.5 5-6 5-6 5-7 5-7" style="fill:#6f6555;stroke:#6f6555"/><path d="m743 206l1-2-1.5 1-1.5 1-1 1.5-1 1.5-1 1.5-1 1.5-1 1-1 1-.5 1.5-.5 1.5v1 1l1-1.5 1-1.5.5-.5.5-.5.5-.5.5-.5.5-.5.5-.5.5-1 .5-1 .5-.5.5-.5 1-1 1-1v-1-1" style="fill:#7d8fa8;stroke:#7d8fa8"/><path d="m740 158v-2l-1.5.5-1.5.5-1 1.5-1 1.5h-2-2l-1 .5-1 .5 1 1 1 1h2.5 2.5l1-1 1-1v-1-1l1-.5 1-.5" style="fill:#d4d2cb;stroke:#d4d2cb"/><path d="m736 229v-3l-1 1-1 1-1.5 1-1.5 1-1 1-1 1-1 1.5-1 1.5v1 1l.5 1 .5 1v1.5 1.5l-.5.5-.5.5-.5.5-.5.5v1 1l-.5.5-.5.5-.5 1-.5 1-.5.5-.5.5-.5.5-.5.5v1 1l-.5 1-.5 1-.5.5-.5.5-.5 1.5-.5 1.5v.5.5l1-.5 1-.5.5-1 .5-1 1-.5 1-.5v-1-1l.5-.5.5-.5.5-.5.5-.5.5-1.5.5-1.5.5-1 .5-1 .5-.5.5-.5v-1-1l.5-.5.5-.5.5-1 .5-1v-1-1l.5-.5.5-.5.5-.5.5-.5.5-1 .5-1v-1-1l.5-.5.5-.5.5-1.5.5-1.5" style="fill:#6f6555;stroke:#6f6555"/><path d="m735 166h1l-1-.5-1-.5-2-.5-2-.5-1.5-.5-1.5-.5-1-.5-1-.5-1.5-.5-1.5-.5-1.5-.5-1.5-.5-.5-1-.5-1 .5-1.5.5-1.5-.5-1-.5-1 .5-1.5.5-1.5v7.5 7.5l8 .5 8 .5" style="fill:#95bfd4;stroke:#95bfd4"/><path d="m732 170l-17-1 .5 2.5.5 2.5-3.5 4-3.5 4 6.5 2.5 6.5 2.5 4.5-6.5 4.5-6.5.5-2 .5-2" style="fill:#5c91bb;stroke:#5c91bb"/><path d="m728 239l-1-2-.5.5-.5.5-.5 1.5-.5 1.5-.5.5-.5.5-1 .5-1 .5-.5 1.5-.5 1.5-.5.5-.5.5-1 .5-1 .5v1.5 1.5l1-.5 1-.5.5-.5.5-.5-.5 1.5-.5 1.5-.5 1-.5 1-.5 1.5-.5 1.5-1 1.5-1 1.5 1.5-.5 1.5-.5.5-1.5.5-1.5.5-.5.5-.5.5-1 .5-1v-1-1l.5-.5.5-.5.5-.5.5-.5.5-1 .5-1 .5-.5.5-.5v-1-1l.5-.5.5-.5.5-.5.5-.5v-1.5-1.5" style="fill:#83786a;stroke:#83786a"/><path d="m726 238l1-1v-1-1l-6 7.5-6 7.5-4.5 6.5-4.5 6.5-4 7-4 7-4.5 6.5-4.5 6.5-5.5 5-5.5 5-1 2.5-1 2.5-1 1-1 1-.5 2-.5 2-1 1-1 1-.5 1.5-.5 1.5-.5 1-.5 1 1 1.5 1 1.5.5-1 .5-1 .5-1 .5-1 .5-.5.5-.5v-1-1l1-.5 1-.5v-1-1l.5-1 .5-1 .5-1.5.5-1.5.5-.5.5-.5.5-1 .5-1 1.5-.5 1.5-.5-.5 1.5-.5 1.5-.5 1-.5 1-.5 1-.5 1-.5 1-.5 1v1.5 1.5l-1 2-1 2-.5 1.5-.5 1.5-1 2-1 2 1 .5 1 .5v1.5 1.5h-.5-.5l-.5 2-.5 2 .5 1 .5 1-.5 1.5-.5 1.5h-1-1l-1.5-1-1.5-1-1-1-1-1-.5-1.5-.5-1.5-.5-.5-.5-.5-1-.5-1-.5.5 1.5.5 1.5.5 1.5.5 1.5.5 2 .5 2 .5 1 .5 1 .5 2.5.5 2.5.5 1 .5 1v1 1l-1 1.5-1 1.5-.5 1.5-.5 1.5v1 1l4-8 4-8 2-6 2-6 6-5 6-5 3.5-7.5 3.5-7.5 4-7 4-7 4-7.5 4-7.5 4-8.5 4-8.5-1 .5-1 .5-.5 1-.5 1-4.5 8.5-4.5 8.5-4 7-4 7-4 7-4 7-3.5 7.5-3.5 7.5-2-4-2-4 3.5-8 3.5-8 4-7 4-7 4.5-7 4.5-7 1-.5 1-.5v-1-1l.5-1 .5-1 1-1 1-1v-1-1l1-.5 1-.5.5-1.5.5-1.5.5-.5.5-.5.5-1 .5-1 1-1.5 1-1.5v-1.5-1.5l1-.5 1-.5.5-.5.5-.5.5-1.5.5-1.5 1-.5 1-.5.5-.5.5-.5.5-1.5.5-1.5" style="fill:#415366;stroke:#415366"/><path d="m720 252l1-3-.5.5-.5.5-1 .5-1 .5-1 1.5-1 1.5-.5 1-.5 1-.5.5-.5.5-.5 1.5-.5 1.5-1 .5-1 .5v1 1l-1 1-1 1-.5 1-.5 1v1 1l-1 .5-1 .5 1.5.5 1.5.5 1-1 1-1 1-1.5 1-1.5.5-1.5.5-1.5 1-1.5 1-1.5 1-1.5 1-1.5.5-1.5.5-1.5.5-1 .5-1" style="fill:#7d8fa8;stroke:#7d8fa8"/><path d="m718 262l1-2v-.5-.5l-1.5.5-1.5.5-1 1.5-1 1.5-.5 1.5-.5 1.5-1 1.5-1 1.5-1 1-1 1-1.5-.5-1.5-.5-4.5 7-4.5 7-4 7-4 7-3.5 8-3.5 8 2 4 2 4 3.5-7.5 3.5-7.5 4-7 4-7 4-7 4-7 4.5-8.5 4.5-8.5" style="fill:#56748b;stroke:#56748b"/><g style="fill:#95bfd4;stroke:#95bfd4"><path d="m703 259l1-2-8 3-8 3-8 2.5-8 2.5-2-7-2-7-3.5-3.5-3.5-3.5-8.5-2.5-8.5-2.5-9.5-1.5-9.5-1.5h-10.5-10.5l-10-1-10-1-9.5-1.5-9.5-1.5-10.5-.5-10.5-.5-9.5-1.5-9.5-1.5-8-.5-8-.5-7.5-3.5-7.5-3.5-8.5 1.5-8.5 1.5-7.5-3.5-7.5-3.5h-10-10l-11-.5-11-.5-7.5-3.5-7.5-3.5-10.5-.5-10.5-.5-10-1-10-1h-11-11-10.5-10.5l5-2 5-2-10-1-10-1-10.5-.5-10.5-.5h-10-10l-7 .5-7 .5-6.5-3-6.5-3 .5 1 .5 1 1 .5 1 .5 1 1 1 1 1.5 1 1.5 1 .5 1 .5 1 1 1 1 1 6.5 5 6.5 5 9 2 9 2 8 2.5 8 2.5h11 11 9 9l19-1 19-1 1-.5 1-.5h1.5 1.5 1 1 1 1 1 1l1 .5 1 .5.5.5.5.5 1.5.5 1.5.5h2 2 1.5 1.5 1 1 1 1 1 1 1 1 1.5 1.5l.5.5.5.5.5.5.5.5.5.5.5.5h1.5 1.5 1 1 1 1 1 1l1 .5 1 .5h1 1l.5-.5.5-.5 1.5.5 1.5.5 1.5-1 1.5-1 1 1 1 1 2 .5 2 .5h2 2l1 1.5 1 1.5 1.5.5 1.5.5.5 1.5.5 1.5 8 3.5 8 3.5 7 3 7 3 6.5 4.5 6.5 4.5 7-4 7-4 7.5-1.5 7.5-1.5 7.5 4 7.5 4 6.5 4.5 6.5 4.5 7.5 1.5 7.5 1.5 5.5 4.5 5.5 4.5 6.5 1.5 6.5 1.5 7.5 3 7.5 3 12.5 8 12.5 8 1-.5 1-.5h1 1l.5.5.5.5 1 .5 1 .5h1 1 1 1 1 1l1-.5 1-.5.5-.5.5-.5h1 1l1 .5 1 .5h1.5 1.5l1.5.5 1.5.5 1 .5 1 .5 1.5.5 1.5.5h1.5 1.5l8.5-9.5 8.5-9.5 5-6.5 5-6.5 5-7 5-7"/><path d="m694 170l-10-6 3.5 3.5 3.5 3.5 1.5-.5 1.5-.5"/></g><path d="m682 305l1-3-1.5.5-1.5.5-.5 1-.5 1-.5.5-.5.5-.5 1.5-.5 1.5-.5 1-.5 1v1 1l1.5-1 1.5-1 .5-1 .5-1 .5-1 .5-1 .5-1 .5-1" style="fill:#6f6555;stroke:#6f6555"/><path d="m679 314v-3l-1.5 1-1.5 1-1 .5-1 .5v1 1l-.5.5-.5.5-.5 1-.5 1-.5 1-.5 1 1 1 1 1 .5 1 .5 1 1-2 1-2 .5-1.5.5-1.5 1-2 1-2" style="fill:#292f32;stroke:#292f32"/><path d="m675 329h1l-.5-1-.5-1-1.5-.5-1.5-.5-1-1.5-1-1.5-1 .5-1 .5-.5-1-.5-1v1.5 1.5l1 1 1 1 .5 1.5.5 1.5.5 2 .5 2 .5-1.5.5-1.5 1 1 1 1 .5-2 .5-2" style="fill:#83786a;stroke:#83786a"/><g style="fill:#56748b;stroke:#56748b"><path d="m674 338l1-3-.5-1-.5-1-1-1-1-1-.5 1.5-.5 1.5-.5-2-.5-2-.5-1.5-.5-1.5-1-1-1-1v-1.5-1.5l-1-2-1-2-1 1-1 1-1 1.5-1 1.5-.5 1-.5 1v1 1l-.5.5-.5.5h1 1l.5 1 .5 1v1 1l.5.5.5.5 1 1 1 1-.5-1.5-.5-1.5-.5-1.5-.5-1.5 1 .5 1 .5.5.5.5.5.5 1.5.5 1.5 1 1 1 1 1.5 1 1.5 1h1 1"/><path d="m669 350v-2l-.5-1-.5-1-.5-2.5-.5-2.5h-.5-.5-.5-.5l.5 1.5.5 1.5-.5 2-.5 2v1 1l.5 1 .5 1v.5.5h.5.5l1-1.5 1-1.5"/></g><path d="m669 308l1-3h-2-2-1.5-1.5l-1.5-.5-1.5-.5-1-.5-1-.5-1.5-.5-1.5-.5h-1.5-1.5-.5-.5l-1.5 1-1.5 1-1.5.5-1.5.5-2 .5-2 .5h-2-2l-1.5-1-1.5-1-1-1-1-1-12.5-8-12.5-8-7.5-3-7.5-3-6.5-1.5-6.5-1.5-5.5-4.5-5.5-4.5-7.5-1.5-7.5-1.5-6.5-4.5-6.5-4.5-7.5-4-7.5-4-7.5 1.5-7.5 1.5-7 4-7 4-6.5-4.5-6.5-4.5-7-3-7-3-8-3.5-8-3.5h-.5-.5-1-1-.5-.5l6 5 6 5 6 2 6 2 6.5 3.5 6.5 3.5 8 .5 8 .5 6.5-3.5 6.5-3.5h8 8l5.5 5.5 5.5 5.5 7 3 7 3 7.5 3 7.5 3 7 4 7 4 8 2 8 2 7 3 7 3 6 5 6 5 8 1.5 8 1.5 11.5 4.5 11.5 4.5 1-1.5 1-1.5.5-2 .5-2" style="fill:#9a9da4;stroke:#9a9da4"/><path d="m666 356l1-3h-.5-.5l-.5 1-.5 1-4.5 7-4.5 7-4.5 6.5-4.5 6.5-4.5 6.5-4.5 6.5-5 3-5 3-3 8-3 8-9.5 3-9.5 3h1.5 1.5l1.5-.5 1.5-.5 2-.5 2-.5h1 1l1-.5 1-.5 6.5-4 6.5-4 4.5-6.5 4.5-6.5 4.5-6.5 4.5-6.5 4.5-6.5 4.5-6.5 4.5-7.5 4.5-7.5v-1-1" style="fill:#6f6555;stroke:#6f6555"/><g style="fill:#83786a;stroke:#83786a"><path d="m666 341h1l-.5-1-.5-1-.5-2-.5-2-1-1-1-1-.5-.5-.5-.5v-1-1l-.5-1-.5-1h-1-1l.5-.5.5-.5v-1-1l.5-1 .5-1-1 1-1 1-.5.5-.5.5-.5.5-.5.5v1.5 1.5l1.5.5 1.5.5.5 1.5.5 1.5.5.5.5.5.5 1 .5 1 1 2 1 2h.5.5"/><path d="m665 355l1-2v-.5-.5h-.5-.5l-.5 1-.5 1-.5-.5-.5-.5-.5-1-.5-1-.5-.5-.5-.5-.5-.5-.5-.5-.5-.5-.5-.5v-1.5-1.5l-.5-.5-.5-.5-.5-.5-.5-.5v-1-1l-.5-1-.5-1-.5-1.5-.5-1.5-2.5-3-2.5-3-5-3-5-3h-5-5l-5.5.5-5.5.5-2.5-.5-2.5-.5-3 4-3 4-2.5 1.5-2.5 1.5 4 2.5 4 2.5 6 6.5 6 6.5 1 .5 1 .5 1.5-.5 1.5-.5.5.5.5.5.5 1 .5 1-.5.5-.5.5.5.5.5.5h1 1v1 1l-1 .5-1 .5-.5 1-.5 1-.5.5-.5.5-.5 1-.5 1h-.5-.5l-.5 2.5-.5 2.5-.5 1-.5 1v1 1l.5.5.5.5v1.5 1.5l-.5.5-.5.5v1 1l-.5.5-.5.5v1.5 1.5l-.5.5-.5.5v1 1l-.5.5-.5.5v1.5 1.5l-.5.5-.5.5.5.5.5.5-.5.5-.5.5h-1-1l-.5.5-.5.5-1 .5-1 .5-1 1-1 1-.5.5-.5.5v1 1l1-.5 1-.5v.5.5 2 2l-.5 1.5-.5 1.5v2.5 2.5l-.5 1.5-.5 1.5h-2-2v-1.5-1.5l1-1 1-1 .5-2 .5-2v-1-1l.5-2 .5-2h-.5-.5l-8-2.5-8-2.5-8-3-8-3-8.5-2.5-8.5-2.5-9-2.5-9-2.5-9-2-9-2-8.5-2.5-8.5-2.5-9-2-9-2-8.5-2.5-8.5-2.5-8-1.5-8-1.5-9-2-9-2-15.5-3-15.5-3 9.5 2.5 9.5 2.5 7.5 1.5 7.5 1.5 8.5 2 8.5 2 8 3 8 3 7.5 1.5 7.5 1.5 6 1 6 1 8 3 8 3 9 2.5 9 2.5 9 2 9 2 6 4 6 4 5 1 5 1 7 2.5 7 2.5 8 3.5 8 3.5-6.5 4-6.5 4-7.5-2-7.5-2-6 3-6 3 7.5 1.5 7.5 1.5.5 7 .5 7 .5-2 .5-2 .5-1.5.5-1.5 1-1.5 1-1.5 2-.5 2-.5 1.5-.5 1.5-.5.5-.5.5-.5 1-.5 1-.5h2 2l1-.5 1-.5 9.5-3 9.5-3 3-8 3-8 5-3 5-3 4.5-6.5 4.5-6.5 4.5-6.5 4.5-6.5 4.5-7 4.5-7"/></g><path d="m665 352h1l-.5-1-.5-1v-1-1l.5-2 .5-2-.5-1.5-.5-1.5-1-2-1-2-.5-1-.5-1-.5-.5-.5-.5-.5-1.5-.5-1.5-1.5-.5-1.5-.5-1 .5-1 .5v1.5 1.5 1 1l.5 1.5.5 1.5.5 1 .5 1v1 1l.5.5.5.5.5.5.5.5v1.5 1.5l.5.5.5.5.5.5.5.5.5.5.5.5.5 1 .5 1 .5.5.5.5.5-1 .5-1" style="fill:#7d8fa8;stroke:#7d8fa8"/><path d="m665 317l1-2-11.5-4.5-11.5-4.5-8-1.5-8-1.5-6-5-6-5-7-3-7-3-8-2-8-2-7-4-7-4-7.5-3-7.5-3-7-3-7-3-5.5-5.5-5.5-5.5h-8-8l-6.5 3.5-6.5 3.5-8-.5-8-.5-6.5-3.5-6.5-3.5-6-2-6-2-6-5-6-5-9.5 1-9.5 1-7.5-.5-7.5-.5-7.5-.5-7.5-.5-5-2-5-2h8.5 8.5 16.5 16.5l-1.5-1-1.5-1-1.5-.5-1.5-.5h-.5-.5l-1 .5-1 .5h-1.5-1.5-2.5-2.5-2-2l-2-.5-2-.5-1.5-.5-1.5-.5-1.5-1-1.5-1h-2-2-2-2-2.5-2.5-2.5-2.5-1.5-1.5l-1.5.5-1.5.5h-2.5-2.5-2.5-2.5l-1.5-.5-1.5-.5-5.5 5-5.5 5-7 1-7 1-5.5 3.5-5.5 3.5-4.5-1.5-4.5-1.5-5.5-5.5-5.5-5.5h-5-5l-4-2-4-2h-7-7l-2.5-.5-2.5-.5-.5-1.5-.5-1.5-7.5-4-7.5-4-9-5-9-5h-.5-.5l-.5.5-.5.5-3-.5-3-.5-1.5.5-1.5.5-1.5-.5-1.5-.5-1-1-1-1h-.5-.5l-1.5.5-1.5.5-.5.5-.5.5-1-.5-1-.5-1-1-1-1 .5-.5.5-.5.5-1 .5-1 1 1 1 1h1 1l.5-.5.5-.5h1 1v1.5 1.5l1-1 1-1 2 .5 2 .5 1-.5 1-.5h2.5 2.5l1 1 1 1h2 2l-9-2-9-2-2.5-3-2.5-3 .5 1.5.5 1.5v1 1h-1.5-1.5l-1-1-1-1-2-.5-2-.5-1.5-.5-1.5-.5 2-.5 2-.5 1.5.5 1.5.5 2-.5 2-.5-1-1-1-1-2-.5-2-.5-1-1-1-1-1-1.5-1-1.5-1.5-.5-1.5-.5-1 .5-1 .5-1 1-1 1-1 .5-1 .5h-.5-.5l-7 4-7 4-4 3.5-4 3.5-7-1.5-7-1.5-.5.5-.5.5v2 2l-.5 1.5-.5 1.5-.5 2-.5 2v1 1l1 1.5 1 1.5.5-.5.5-.5 1 .5 1 .5 1.5-.5 1.5-.5.5-.5.5-.5.5-.5.5-.5h1 1l1-.5 1-.5h1 1l.5-.5.5-.5 1 .5 1 .5h2 2l.5.5.5.5.5-.5.5-.5.5-1 .5-1 1.5.5 1.5.5.5.5.5.5-.5 1-.5 1-1.5.5-1.5.5-1.5.5-1.5.5-2.5-1-2.5-1-1 .5-1 .5h-2-2l-1 1-1 1-5 2.5-5 2.5 1 3 1 3 5.5-3.5 5.5-3.5 7-2 7-2 8 3 8 3 10.5.5 10.5.5 4 4 4 4 3.5 5 3.5 5 2 5 2 5-5.5 3.5-5.5 3.5h-2-2l7.5 3.5 7.5 3.5 2.5-8 2.5-8 4-7 4-7 3.5-3.5 3.5-3.5 8.5 2.5 8.5 2.5-1 4-1 4 2.5 9 2.5 9h2 2l-2-6-2-6 3-4 3-4 5.5.5 5.5.5 3 4.5 3 4.5-1.5 5-1.5 5h1 1l-1-1-1-1-.5-.5-.5-.5v-1-1l.5-.5.5-.5.5.5.5.5 1 .5 1 .5h1 1 1 1l.5.5.5.5 1 .5 1 .5.5.5.5.5.5.5.5.5-.5 1.5-.5 1.5h-1-1l4.5 5 4.5 5 2 4 2 4 3 2 3 2 .5-5.5.5-5.5 6.5 1.5 6.5 1.5 3.5 3.5 3.5 3.5 7 4.5 7 4.5-8-3-8-3-5 4-5 4-7 1-7 1-3.5-1.5-3.5-1.5-1 5-1 5-1 2.5-1 2.5-2-3-2-3-2.5-1.5-2.5-1.5-5.5-2.5-5.5-2.5-4.5-.5-4.5-.5-4-1.5-4-1.5-5 3-5 3-6-3-6-3-7-2-7-2h-8-8l-5-2.5-5-2.5-5.5.5-5.5.5-8.5-1.5-8.5-1.5-8.5.5-8.5.5.5 5.5.5 5.5v-1.5-1.5l.5-.5.5-.5.5.5.5.5h1 1 1 1l1 .5 1 .5h1 1l.5.5.5.5-.5 1.5-.5 1.5-1 .5-1 .5-1.5.5-1.5.5-1.5-1-1.5-1-1-1-1-1v1 1l-1.5 1-1.5 1-1.5-.5-1.5-.5-2 .5-2 .5.5 2 .5 2h2 2 1 1l.5.5.5.5h1 1 1.5 1.5 1 1 1 1l1.5.5 1.5.5h2 2 2.5 2.5l.5-.5.5-.5h-2-2l1-1.5 1-1.5 1.5.5 1.5.5 2-.5 2-.5 1.5-.5 1.5-.5 1 1.5 1 1.5 1.5.5 1.5.5.5.5.5.5h-1.5-1.5-1.5-1.5l-1.5-.5-1.5-.5h-1-1l.5 1 .5 1 8.5-1.5 8.5-1.5 6.5 1.5 6.5 1.5 1.5.5 1.5.5 10.5.5 10.5.5 11 2 11 2-8-2.5-8-2.5 7.5-.5 7.5-.5 10.5.5 10.5.5 9 1 9 1 2 3 2 3 9.5 1 9.5 1 5 1 5 1-5-4-5-4 6.5 3.5 6.5 3.5 6.5-.5 6.5-.5 7.5 3 7.5 3 10 .5 10 .5-6.5-4-6.5-4-5.5-1.5-5.5-1.5h-1.5-1.5l6.5-3.5 6.5-3.5 7.5-1.5 7.5-1.5 5 5.5 5 5.5-1.5.5-1.5.5-1.5-.5-1.5-.5h-2.5-2.5l-.5 1.5-.5 1.5 1 1.5 1 1.5.5 1.5.5 1.5h2 2l-1 .5-1 .5h-2-2l10 .5 10 .5h1.5 1.5l8 2 8 2 13.5 1 13.5 1 2-6 2-6 2.5-6.5 2.5-6.5 2.5 3.5 2.5 3.5 4 .5 4 .5 6.5.5 6.5.5 7 3 7 3 6.5-.5 6.5-.5 7 3.5 7 3.5-5.5 1-5.5 1-3.5 5.5-3.5 5.5-5.5.5-5.5.5 2-5 2-5-3 2-3 2-7.5-1.5-7.5-1.5h-14-14l9 2 9 2h5 5l3.5 2.5 3.5 2.5 6 1.5 6 1.5 6.5-1.5 6.5-1.5 5.5-.5 5.5-.5 6.5 2.5 6.5 2.5 10.5-.5 10.5-.5 8-.5 8-.5 5.5-.5 5.5-.5 4.5-2.5 4.5-2.5-2 5.5-2 5.5 1.5.5 1.5.5 1-.5 1-.5 1-1 1-1 .5-.5.5-.5v1.5 1.5l.5 1 .5 1-.5 1-.5 1h-1-1-1.5-1.5-1-1l-.5-.5-.5-.5v-1.5-1.5l-.5 1.5-.5 1.5-.5.5-.5.5v1 1h1.5 1.5l.5-.5.5-.5h1 1l.5.5.5.5.5-.5.5-.5h1.5 1.5 1 1l.5.5.5.5h1 1 2 2l-6-6.5-6-6.5-4-2.5-4-2.5 2.5-1.5 2.5-1.5 3-4 3-4 2.5.5 2.5.5 5.5-.5 5.5-.5h5 5l5 3 5 3 2.5 3 2.5 3v-1-1-1.5-1.5l1-.5 1-.5v-1.5-1.5l.5-.5.5-.5.5-.5.5-.5 1-1 1-1 1-1.5 1-1.5 1-1 1-1v-.5-.5" style="fill:#a39685;stroke:#a39685"/><path d="m651 302h1l-1-.5-1-.5h-1-1l-.5.5-.5.5-1 .5-1 .5h-1-1-1-1-1-1l-1-.5-1-.5-.5-.5-.5-.5h-1-1l-1 .5-1 .5 1 1 1 1 1.5 1 1.5 1h2 2l2-.5 2-.5 1.5-.5 1.5-.5 1.5-1 1.5-1" style="fill:#b8c2c8;stroke:#b8c2c8"/><g style="fill:#a39685;stroke:#a39685"><path d="m646 346l-9-1-3.5 2.5-3.5 2.5 6 .5 6 .5 2-2.5 2-2.5"/><path d="m632 360v-2h-1-1l-.5-.5-.5-.5.5-.5.5-.5-.5-1-.5-1-.5-.5-.5-.5-1.5.5-1.5.5v1 1l-1 .5-1 .5-1 .5-1 .5-.5.5-.5.5-1 .5-1 .5-1 1-1 1-.5 1.5-.5 1.5v.5.5 2 2l-.5 2-.5 2 1 1 1 1 1 1.5 1 1.5v1 1h-2.5-2.5l-1-1-1-1-1 1-1 1 1.5.5 1.5.5h1 1l.5.5.5.5h1 1l1-.5 1-.5.5.5.5.5v1 1l-.5 1.5-.5 1.5h-1-1l-1 1-1 1v1 1 1.5 1.5l-1.5-.5-1.5-.5-1.5 1-1.5 1 1.5.5 1.5.5.5 1.5.5 1.5 1-1 1-1 1-.5 1-.5.5-.5.5-.5h1 1l.5-.5.5-.5-.5-.5-.5-.5.5-.5.5-.5v-1.5-1.5l.5-.5.5-.5v-1-1l.5-.5.5-.5v-1.5-1.5l.5-.5.5-.5v-1-1l.5-.5.5-.5v-1.5-1.5l-.5-.5-.5-.5v-1-1l.5-1 .5-1h-.5-.5-.5-.5l-.5 2-.5 2-1 1-1 1-1.5-1-1.5-1 .5-1.5.5-1.5.5-2 .5-2-.5-1-.5-1 .5-1 .5-1 1.5-.5 1.5-.5h2 2l.5 1.5.5 1.5.5-1 .5-1 .5-.5.5-.5.5-1 .5-1 1-.5 1-.5"/></g><path d="m631 337l-9 3 3.5-1.5 3.5-1.5h1 1" style="fill:#6f6555;stroke:#6f6555"/><path d="m629 88l1-2h-.5-.5l-1.5.5-1.5.5-1.5-1-1.5-1-1.5-.5-1.5-.5 1-1.5 1-1.5h1 1l-.5 1-.5 1h1 1l1-1 1-1 1.5 1 1.5 1-7 1.5-7 1.5h-5-5l8.5 1.5 8.5 1.5 3-.5 3-.5" style="fill:#78b0ce;stroke:#78b0ce"/><path d="m629 86h1v-1.5-1.5l-1.5-1-1.5-1-1 1-1 1h-1-1l.5-1 .5-1h-1-1l-1 1.5-1 1.5 1.5.5 1.5.5 1.5 1 1.5 1 1.5-.5 1.5-.5" style="fill:#95bfd4;stroke:#95bfd4"/><path d="m628 2l-23-1h-11-11l1 .5 1 .5h11 11 10.5 10.5" style="fill:#56748b;stroke:#56748b"/><path d="m626 366h1l-.5-1.5-.5-1.5h-2-2l-1.5.5-1.5.5-.5 1-.5 1 2 1 2 1h1 1v1.5 1.5h.5.5l.5-2.5.5-2.5" style="fill:#415366;stroke:#415366"/><path d="m625 356v-2l-1-.5-1-.5h-2-2-1-1l-.5-.5-.5-.5h-1-1-1.5-1.5l-.5.5-.5.5-.5-.5-.5-.5h-1-1l-.5.5-.5.5h-1.5-1.5v-1-1l.5-.5.5-.5.5-1.5.5-1.5 2-5.5 2-5.5-4.5 2.5-4.5 2.5-5.5.5-5.5.5-8 .5-8 .5-10.5.5-10.5.5-6.5-2.5-6.5-2.5-5.5.5-5.5.5-6.5 1.5-6.5 1.5-6-1.5-6-1.5-3.5-2.5-3.5-2.5h-5-5l-9-2-9-2-1-.5-1-.5-13.5-1-13.5-1-8-2-8-2h-1.5-1.5l-10-.5-10-.5-10-.5-10-.5-7.5-3-7.5-3-6.5.5-6.5.5-6.5-3.5-6.5-3.5 5 4 5 4-5-1-5-1-9.5-1-9.5-1-2-3-2-3-9-1-9-1-10.5-.5-10.5-.5-7.5.5-7.5.5 8 2.5 8 2.5-2 .5-2 .5-2 .5-2 .5h-2-2l-2 .5-2 .5h-1.5-1.5l-10 .5-10 .5-9.5.5-9.5.5-10.5 1-10.5 1 6 2 6 2 10 1 10 1 9.5 1.5 9.5 1.5 10 1 10 1 10 1.5 10 1.5 9.5 1.5 9.5 1.5 11 1.5 11 1.5h1.5 1.5 2 2l1.5.5 1.5.5h2.5 2.5l1.5.5 1.5.5h2.5 2.5l1.5.5 1.5.5 2 .5 2 .5h2 2l1 .5 1 .5 10.5 1.5 10.5 1.5 9.5 1.5 9.5 1.5 9.5 1.5 9.5 1.5 9 2 9 2 9.5 2 9.5 2 9 2 9 2 8.5 2.5 8.5 2.5 9 2 9 2 8.5 2.5 8.5 2.5 9.5 2 9.5 2 8.5 2.5 8.5 2.5 8.5 2.5 8.5 2.5 13 4.5 13 4.5.5-.5.5-.5-.5-1.5-.5-1.5-1.5-.5-1.5-.5 1.5-1 1.5-1 1.5.5 1.5.5v-1.5-1.5-1-1l1-1 1-1-8 .5-8 .5-7-3-7-3 1-6 1-6 10 5 10 5 1-1 1-1 1 1 1 1h2.5 2.5v-1-1l-1-1.5-1-1.5-1-1-1-1 .5-2 .5-2v-2-2h-.5-.5l-4 5-4 5-4.5-3-4.5-3 9-2.5 9-2.5.5-1.5.5-1.5 1-1 1-1 1-.5 1-.5.5-.5.5-.5 1-.5 1-.5 1-.5 1-.5" style="fill:#c8baa5;stroke:#c8baa5"/><path d="m623 371h1v-1.5-1.5h-1-1l-2-1-2-1 .5 1 .5 1-.5 2-.5 2-.5 1.5-.5 1.5 1.5 1 1.5 1 1-1 1-1 .5-2 .5-2" style="fill:#292f32;stroke:#292f32"/><path d="m619 388l1-3v-1-1l-.5-.5-.5-.5-1 .5-1 .5h-1-1l-.5-.5-.5-.5h-1-1l-1.5-.5-1.5-.5-10-5-10-5-1 6-1 6 7 3 7 3 8-.5 8-.5h1 1" style="fill:#83786a;stroke:#83786a"/><path d="m616 423l1-3-1 .5-1 .5h-1-1l-2 .5-2 .5-1.5.5-1.5.5h-1.5-1.5l-1 .5-1 .5h-2-2l-1 .5-1 .5-.5.5-.5.5-1.5.5-1.5.5-.5 1-.5 1-.5 1.5-.5 1.5-1 1.5-1 1.5-1 2-1 2v1.5 1.5l-.5 1.5-.5 1.5.5.5.5.5-1 .5-1 .5-.5 1.5-.5 1.5 6.5-.5 6.5-.5v-4-4l7.5-3.5 7.5-3.5h-1.5-1.5l-1-.5-1-.5-.5-.5-.5-.5-.5-.5-.5-.5-.5-.5-.5-.5-.5-1-.5-1 .5-.5.5-.5.5-.5.5-.5.5-.5.5-.5h1.5 1.5l1.5-.5 1.5-.5h1 1 2 2v-.5-.5" style="fill:#415366;stroke:#415366"/><g style="fill:#6f6555;stroke:#6f6555"><path d="m615 430l1-2v-2-2h-2-2-1-1l-1.5.5-1.5.5h-1.5-1.5l-.5.5-.5.5-.5.5-.5.5-.5.5-.5.5.5 1 .5 1 .5.5.5.5.5.5.5.5.5.5.5.5 1 .5 1 .5h1.5 1.5l1-.5 1-.5 1-.5 1-.5.5-1 .5-1"/><path d="m614 403v-1l-1 .5-1 .5-.5 2-.5 2v1 1l-.5 2-.5 2-1 1-1 1v1.5 1.5h2 2l.5-1.5.5-1.5v-2.5-2.5l.5-1.5.5-1.5v-2-2"/></g><path d="m614 366h1v-.5-.5l-9 2.5-9 2.5 4.5 3 4.5 3 4-5 4-5" style="fill:#d4d2cb;stroke:#d4d2cb"/><path d="m614 349l-1-2v-1.5-1.5l-.5.5-.5.5-1 1-1 1-1 .5-1 .5-1.5-.5-1.5-.5v1.5 1.5l.5.5.5.5h1 1 1.5 1.5 1 1l.5-1 .5-1" style="fill:#83786a;stroke:#83786a"/><path d="m613 434l1-2-1 .5-1 .5-1 .5-1 .5-7.5 3.5-7.5 3.5v4 4l-6.5.5-6.5.5-4.5 7.5-4.5 7.5-7.5 3.5-7.5 3.5-9 2-9 2-10.5.5-10.5.5-10-1-10-1-9-2.5-9-2.5-8.5-2.5-8.5-2.5-8.5-2.5-8.5-2.5-8-3-8-3-8.5-3-8.5-3-8-3-8-3-8-3-8-3-7.5-3.5-7.5-3.5-8-3-8-3-8-3.5-8-3.5-7.5-3.5-7.5-3.5-7.5-3.5-7.5-3.5-7.5-3.5-7.5-3.5-7.5-3.5-7.5-3.5-7.5-4-7.5-4-7-4-7-4-6.5-4.5-6.5-4.5-6.5-4.5-6.5-4.5-6.5-4.5-6.5-4.5-6-5.5-6-5.5-6-5-6-5-4.5-6.5-4.5-6.5-5-6-5-6-2.5-8.5-2.5-8.5-1-9.5-1-9.5 1-10 1-10 1-11 1-11 2-10 2-10 2.5-8.5 2.5-8.5 5.5-10.5 5.5-10.5 4.5-8 4.5-8 5-6.5 5-6.5 5-6 5-6 5.5-5.5 5.5-5.5 6-5 6-5 6.5-4.5 6.5-4.5 6.5-5 6.5-5 7-4 7-4 7.5-3.5 7.5-3.5 7.5-3.5 7.5-3.5 7.5-3.5 7.5-3.5 8.5-3 8.5-3 8-3 8-3 8.5-2.5 8.5-2.5 8.5-2.5 8.5-2.5 8.5-2.5 8.5-2.5 8.5-3 8.5-3 8.5-2.5 8.5-2.5 9-2 9-2 8.5-2.5 8.5-2.5 13.5-3 13.5-3h-1.5-1.5-2-2-2.5-2.5-2-2-1-1l-10 2.5-10 2.5-8 2-8 2-8.5 2.5-8.5 2.5-8.5 2.5-8.5 2.5-8.5 2.5-8.5 2.5-8.5 3-8.5 3-8.5 2.5-8.5 2.5-8 3-8 3-8 3-8 3-8 3-8 3-8 3.5-8 3.5-7 4-7 4-7.5 3.5-7.5 3.5-7 4-7 4-6.5 4.5-6.5 4.5-6 5.5-6 5.5-6 5-6 5-5.5 5.5-5.5 5.5-4.5 6.5-4.5 6.5-4.5 6.5-4.5 6.5-4.5 7-4.5 7-3 8-3 8-3 7-3 7-2 9-2 9-1.5 9.5-1.5 9.5-1 10.5-1 10.5v10 10l1.5 9.5 1.5 9.5 4 7 4 7 4.5 6.5 4.5 6.5 5.5 6 5.5 6 5.5 5.5 5.5 5.5 6 5 6 5 6.5 4.5 6.5 4.5 6.5 4.5 6.5 4.5 7 4.5 7 4.5 7 4 7 4 7.5 3.5 7.5 3.5 7.5 3.5 7.5 3.5 7.5 3.5 7.5 3.5 8 3.5 8 3.5 7.5 3.5 7.5 3.5 8 3 8 3 7.5 3.5 7.5 3.5 8 3 8 3 8.5 3 8.5 3 8 3 8 3 7.5 3.5 7.5 3.5 8.5 2.5 8.5 2.5 8 3 8 3 9 2.5 9 2.5 9.5 1.5 9.5 1.5 10 1 10 1 10.5-.5 10.5-.5 8.5-2.5 8.5-2.5 7.5-4 7.5-4 6.5-4.5 6.5-4.5 6-5 6-5 5-6.5 5-6.5" style="fill:#292f32;stroke:#292f32"/><path d="m612 320l-11-9 3 5 3 5 2.5-.5 2.5-.5" style="fill:#c8baa5;stroke:#c8baa5"/><path d="m611 403h1v-1-1l-13-4.5-13-4.5-8.5-2.5-8.5-2.5-8.5-2.5-8.5-2.5-9.5-2-9.5-2-8.5-2.5-8.5-2.5-9-2-9-2-8.5-2.5-8.5-2.5-9-2-9-2-9.5-2-9.5-2-9-2-9-2-9.5-1.5-9.5-1.5-9.5-1.5-9.5-1.5-10.5-1.5-10.5-1.5v.5.5l10 2 10 2 11 1.5 11 1.5 15.5 3 15.5 3 9 2 9 2 8 1.5 8 1.5 8.5 2.5 8.5 2.5 9 2 9 2 8.5 2.5 8.5 2.5 9 2 9 2 9 2.5 9 2.5 8.5 2.5 8.5 2.5 8 3 8 3 8 2.5 8 2.5" style="fill:#a39685;stroke:#a39685"/><path d="m607 411l-16-7-7-2.5-7-2.5-5-1-5-1-6-4-6-4-9-2-9-2-9-2.5-9-2.5-8-3-8-3-6-1-6-1-7.5-1.5-7.5-1.5-8-3-8-3-8.5-2-8.5-2-7.5-1.5-7.5-1.5-9.5-2.5-9.5-2.5-11-1.5-11-1.5-10-2-10-2h-.5-.5l-10-1.5-10-1.5h-9.5-9.5l-8-1-8-1-8-1-8-1-9-1-9-1-7-1-7-1-8.5-1-8.5-1-8.5-1.5-8.5-1.5-9.5-1.5-9.5-1.5-9.5-1.5-9.5-1.5-2-3.5-2-3.5 5-1 5-1 8.5-.5 8.5-.5h10 10l9.5.5 9.5.5 10-1.5 10-1.5-10.5-.5-10.5-.5-10-1-10-1-15-1-15-1h-2-2-1-1-1-1-1-1-1-1l-1-.5-1-.5-1.5-.5-1.5-.5h-1-1-1-1-1.5-1.5-1-1l-.5-.5-.5-.5h-1-1-2-2l-4-8.5-4-8.5 4.5-4.5 4.5-4.5 2 .5 2 .5 6.5-.5 6.5-.5 3-2 3-2 4.5.5 4.5.5 5.5-2.5 5.5-2.5-4.5-1-4.5-1-2.5-2.5-2.5-2.5-7 3-7 3 5-4 5-4-4-2.5-4-2.5-2 4-2 4-8.5 1.5-8.5 1.5 1.5-3.5 1.5-3.5 5.5-4.5 5.5-4.5 5-4.5 5-4.5 1-5 1-5-.5-1.5-.5-1.5-8 2-8 2-5.5-9.5-5.5-9.5-.5 1-.5 1v1 1l-.5.5-.5.5v1 1l-.5 1-.5 1-1 11-1 11-1 10-1 10 1 9.5 1 9.5 2.5 8.5 2.5 8.5 5 6 5 6 4.5 6.5 4.5 6.5 6 5 6 5 6 5.5 6 5.5 6.5 4.5 6.5 4.5 6.5 4.5 6.5 4.5 6.5 4.5 6.5 4.5 7 4 7 4 7.5 4 7.5 4 7.5 3.5 7.5 3.5 7.5 3.5 7.5 3.5 7.5 3.5 7.5 3.5 7.5 3.5 7.5 3.5 8 3.5 8 3.5 8 3 8 3 7.5 3.5 7.5 3.5 8 3 8 3 8 3 8 3 8.5 3 8.5 3 8 3 8 3 8.5 2.5 8.5 2.5 8.5 2.5 8.5 2.5 9 2.5 9 2.5 10 1 10 1 10.5-.5 10.5-.5 9-2 9-2 7.5-3.5 7.5-3.5 4.5-7.5 4.5-7.5.5-1.5.5-1.5 1-.5 1-.5-.5-.5-.5-.5.5-1.5.5-1.5v-1.5-1.5l-1-.5-1-.5-.5-7-.5-7-7.5-1.5-7.5-1.5 6-3 6-3 7.5 2 7.5 2 6.5-4 6.5-4" style="fill:#6f6555;stroke:#6f6555"/><path d="m601 88l-11-5-3-3-3-3 6.5 4 6.5 4 2 1.5 2 1.5" style="fill:#78b0ce;stroke:#78b0ce"/><path d="m596 334l-12-6-7-1-7-1-6-.5-6-.5.5 4.5.5 4.5-1 4-1 4 4.5-2.5 4.5-2.5 5.5-2.5 5.5-2.5 1.5 4 1.5 4 5-2 5-2 3-1 3-1" style="fill:#83786a;stroke:#83786a"/><path d="m594 423l-18-6 3 2 3 2 6 1 6 1" style="fill:#a39685;stroke:#a39685"/><path d="m590 429l1-2-2 .5-2 .5-1 1.5-1 1.5-.5 1.5-.5 1.5-.5 2-.5 2 1 .5 1 .5 1-2 1-2 1-1.5 1-1.5.5-1.5.5-1.5" style="fill:#56748b;stroke:#56748b"/><path d="m581 369v-2l-1.5.5-1.5.5h-1.5-1.5-2-2l-1 1.5-1 1.5 1 1 1 1 2-.5 2-.5 1.5-.5 1.5-.5 1.5-.5 1.5-.5v-.5-.5" style="fill:#a39685;stroke:#a39685"/><path d="m581 351l-14-4-2.5 3.5-2.5 3.5 7.5-1 7.5-1 2-.5 2-.5" style="fill:#d4d2cb;stroke:#d4d2cb"/><path d="m569 445l-6-12-3 5-3 5-2 1-2 1 .5 1 .5 1h1.5 1.5l1-1 1-1 1.5-1 1.5-1 .5 1.5.5 1.5.5 1.5.5 1.5 1.5-1 1.5-1 1-1 1-1" style="fill:#83786a;stroke:#83786a"/><path d="m567 375v-2l-1.5-.5-1.5-.5 1.5-1 1.5-1-1-1-1-1-1.5-1-1.5-1h-1.5-1.5-.5-.5l-2-.5-2-.5-1-1-1-1h-1-1l-.5 1-.5 1 .5.5.5.5h-2.5-2.5l-1.5-.5-1.5-.5-2 .5-2 .5-2-1-2-1-3.5 1-3.5 1 5 3 5 3 9.5 1.5 9.5 1.5 5.5.5 5.5.5v-.5-.5" style="fill:#6f6555;stroke:#6f6555"/><path d="m563 79l-13-3-3.5 4.5-3.5 4.5 9-1.5 9-1.5 1-1.5 1-1.5" style="fill:#95bfd4;stroke:#95bfd4"/><path d="m562 2l-1-1h-2-2-2.5-2.5-2-2-2.5-2.5-2-2-2.5-2.5-2-2l-1-.5-1-.5h-3-3-2-2-2.5-2.5-.5-.5l-.5.5-.5.5-8.5 2-8.5 2-9.5 2-9.5 2-8.5 2.5-8.5 2.5-9 2-9 2-8.5 2.5-8.5 2.5-8.5 2.5-8.5 2.5-9.5 2-9.5 2 .5.5.5.5 2-.5 2-.5 1.5-.5 1.5-.5 1.5.5 1.5.5 1 .5 1 .5 15-4 15-4 9.5-1.5 9.5-1.5 8-3 8-3 9-2 9-2 8.5-2.5 8.5-2.5 9-2 9-2 10.5-.5 10.5-.5h11.5 11.5" style="fill:#56748b;stroke:#56748b"/><path d="m561 398l1-3h-2-2l-1.5 1-1.5 1h-2-2l-1.5-1-1.5-1-1 1-1 1 2 .5 2 .5h1 1 2 2 2.5 2.5" style="fill:#83786a;stroke:#83786a"/><path d="m561 371l-20-4-5.5-1.5-5.5-1.5 7 2.5 7 2.5 8.5 1.5 8.5 1.5v-.5-.5" style="fill:#292f32;stroke:#292f32"/><path d="m559 80l1-3-1.5-.5-1.5-.5-2 .5-2 .5-1.5.5-1.5.5-2 .5-2 .5-1 1-1 1 1.5 1 1.5 1 1.5-.5 1.5-.5 1.5-.5 1.5-.5 2-.5 2-.5h1 1" style="fill:#b8c2c8;stroke:#b8c2c8"/><g style="fill:#a39685;stroke:#a39685"><path d="m558 366h1l-1-.5-1-.5-1-1-1-1-1.5-1-1.5-1h-1-1l-2 .5-2 .5-1.5.5-1.5.5-2 .5-2 .5-1.5.5-1.5.5-1-.5-1-.5 2 1 2 1 2-.5 2-.5 1.5.5 1.5.5h2.5 2.5l-.5-.5-.5-.5.5-1 .5-1h1 1l1 1 1 1 2 .5 2 .5"/><path d="m553 353l-10 2 1 1 1 1 4-2 4-2"/></g><g style="fill:#83786a;stroke:#83786a"><path d="m552 445h1l-5.5-7-5.5-7-3.5-.5-3.5-.5-8-1.5-8-1.5-8-1-8-1-5.5.5-5.5.5h-4-4l1.5-4.5 1.5-4.5 2.5 1 2.5 1 4.5.5 4.5.5h4 4l4-2 4-2-6-1-6-1-7.5-2-7.5-2-5.5 3.5-5.5 3.5-3 1-3 1 .5 3.5.5 3.5-6-3-6-3-6.5-1-6.5-1-2.5-4.5-2.5-4.5-6.5-.5-6.5-.5 6 4 6 4v5 5l-1 2.5-1 2.5.5 4.5.5 4.5-3-1-3-1 .5 4.5.5 4.5 6 4.5 6 4.5 7.5 2.5 7.5 2.5 5.5-2.5 5.5-2.5 4 2 4 2 4.5-.5 4.5-.5 8-1.5 8-1.5 9 1 9 1-3-4-3-4-3.5-1.5-3.5-1.5-8-2-8-2-8-1.5-8-1.5-3 5-3 5-3-5-3-5v-2-2l4.5-2.5 4.5-2.5-6 .5-6 .5 3-1 3-1 8 1 8 1 5.5 1.5 5.5 1.5 3.5 1.5 3.5 1.5 6.5-2 6.5-2 3.5 1.5 3.5 1.5 3.5-.5 3.5-.5 3.5 3.5 3.5 3.5 6 1 6 1"/><path d="m549 338v-2l.5-1.5.5-1.5-1-1.5-1-1.5-1.5.5-1.5.5-1.5 1-1.5 1 1 1 1 1h1.5 1.5l.5 1.5.5 1.5h.5.5"/><path d="m547 471l-9-11 3 6 3 6 1.5-.5 1.5-.5"/><path d="m542 326l-14-7-6.5.5-6.5.5-7-3-7-3-6.5-.5-6.5-.5-4-.5-4-.5-2.5-3.5-2.5-3.5-2.5 6.5-2.5 6.5-2 6-2 6 1 .5 1 .5h14 14l7.5 1.5 7.5 1.5 3-2 3-2-2 5-2 5 5.5-.5 5.5-.5 3.5-5.5 3.5-5.5 5.5-1 5.5-1"/><path d="m541 425l1-3-1-1-1-1-1.5 1-1.5 1-1.5-.5-1.5-.5-1-.5-1-.5 1 1 1 1 1.5 1 1.5 1h1 1l1 1 1 1v-.5-.5"/></g><g style="fill:#78b0ce;stroke:#78b0ce"><path d="m539 132v-2l-1-1-1-1-2-.5-2-.5-1.5-.5-1.5-.5-2-.5-2-.5-1.5-.5-1.5-.5-1.5-1-1.5-1-1-1-1-1h-2-2l-1.5.5-1.5.5h2.5 2.5l1.5 1 1.5 1 1 1 1 1-1.5 1-1.5 1-1.5.5-1.5.5 1 1.5 1 1.5 1.5.5 1.5.5v1 1h-9.5-9.5l-2-3-2-3 6-3 6-3-8.5 2-8.5 2-1.5 3.5-1.5 3.5 8 1 8 1 10 1 10 1 7-2.5 7-2.5"/><path d="m539 62v-2l-1-1-1-1-2-.5-2-.5-1-1-1-1h-2.5-2.5l-.5 1.5-.5 1.5-1.5 1-1.5 1v2 2l.5 1.5.5 1.5 2-.5 2-.5h.5.5l-1-.5-1-.5h-1-1v-1.5-1.5l1-1 1-1 .5-.5.5-.5 1-.5 1-.5h2 2l.5.5.5.5 1 .5 1 .5v1.5 1.5l-1 .5-1 .5-1.5.5-1.5.5-1 .5-1 .5h3.5 3.5l1.5-.5 1.5-.5v-1.5-1.5"/></g><path d="m536 63v-3l-1-.5-1-.5-.5-.5-.5-.5h-2-2l-1 .5-1 .5-.5.5-.5.5-1 1-1 1v1.5 1.5h1 1l1 .5 1 .5h.5.5l1-.5 1-.5 1.5-.5 1.5-.5 1-.5 1-.5" style="fill:#95bfd4;stroke:#95bfd4"/><path d="m527 285l-17-7-6-3-6-3 4 3.5 4 3.5 6 3 6 3h4.5 4.5" style="fill:#c8baa5;stroke:#c8baa5"/><path d="m522 470l-12-6-7.5-1.5-7.5-1.5 3.5 5 3.5 5 4.5-2.5 4.5-2.5 5.5 2 5.5 2" style="fill:#83786a;stroke:#83786a"/><path d="m520 134v-2l-1.5-.5-1.5-.5-1-1.5-1-1.5 1.5-.5 1.5-.5 1.5-1 1.5-1-1-1-1-1-1.5-1-1.5-1h-2.5-2.5l-1 .5-1 .5-6 3-6 3 2 3 2 3h9.5 9.5" style="fill:#95bfd4;stroke:#95bfd4"/><path d="m518 536h1l-9.5-3-9.5-3-8.5-2.5-8.5-2.5-8-3.5-8-3.5-8-3-8-3-7.5-3.5-7.5-3.5-7.5-3.5-7.5-3.5-8-3-8-3-7.5-4-7.5-4-8-3-8-3-7.5-3.5-7.5-3.5-7.5-3.5-7.5-3.5-7.5-3.5-7.5-3.5-8-3.5-8-3.5-7-4-7-4-7.5-3.5-7.5-3.5-7.5-3.5-7.5-3.5-7-4-7-4-7-4.5-7-4.5-7-4-7-4-6.5-4.5-6.5-4.5-6.5-4.5-6.5-4.5-6.5-4.5-6.5-4.5-5.5-6-5.5-6-6-5-6-5-5-6-5-6-5-6-5-6-5.5-6-5.5-6-4-7-4-7-4.5-6.5-4.5-6.5-3-8-3-8-.5-9.5-.5-9.5v-8.5-8.5-10-10l.5-10.5.5-10.5 1-10 1-10 2-9 2-9 2-9.5 2-9.5 3-8 3-8 4-7 4-7 4-7 4-7 4.5-6.5 4.5-6.5 5.5-6 5.5-6 5.5-5.5 5.5-5.5 5.5-5.5 5.5-5.5 7-4 7-4 4.5-5.5 4.5-5.5 7.5-4 7.5-4 7.5-3.5 7.5-3.5 7-3 7-3 7.5-3.5 7.5-3.5 11-.5 11-.5 2.5-.5 2.5-.5-11-.5-11-.5h-1.5-1.5-2.5-2.5-2-2-2.5-2.5-2-2-1.5-1.5v1 1l-8 4-8 4-7 4-7 4-7 4.5-7 4.5-6 5-6 5-6 5-6 5-5.5 5.5-5.5 5.5-5 6-5 6-5 6.5-5 6.5-4.5 6.5-4.5 6.5-4 7-4 7-3.5 7.5-3.5 7.5-3.5 9.5-3.5 9.5-2 9.5-2 9.5-1.5 9.5-1.5 9.5-1 9.5-1 9.5-.5 9.5-.5 9.5v10 10 10 10l.5 9.5.5 9.5 3.5 8 3.5 8 4.5 6.5 4.5 6.5 4.5 6.5 4.5 6.5 4.5 6.5 4.5 6.5 5.5 5.5 5.5 5.5 5.5 6 5.5 6 5.5 5.5 5.5 5.5 6 5 6 5 6.5 4.5 6.5 4.5 6 5 6 5 7 4.5 7 4.5 7 4 7 4 7 4 7 4 7 4 7 4 7.5 3.5 7.5 3.5 7.5 4 7.5 4 7.5 3.5 7.5 3.5 7 4 7 4 8 3 8 3 8 3.5 8 3.5 5 2 5 2 6 3 6 3 7.5 3.5 7.5 3.5 8 3 8 3 7.5 4 7.5 4 7 3 7 3 8 3 8 3 7.5 3.5 7.5 3.5 8 3 8 3 12 3.5 12 3.5h2.5 2.5" style="fill:#292f32;stroke:#292f32"/><path d="m518 125v-2h-2-2-1.5-1.5l-.5 1.5-.5 1.5 1.5 1 1.5 1 1.5-.5 1.5-.5 1-1 1-1" style="fill:#b8c2c8;stroke:#b8c2c8"/><path d="m512 536h1l-12-3.5-12-3.5-8-3-8-3-7.5-3.5-7.5-3.5-8-3-8-3-7-3-7-3-7.5-4-7.5-4-8-3-8-3-7.5-3.5-7.5-3.5-6-3-6-3-5-2-5-2-8-3.5-8-3.5-8-3-8-3-7-4-7-4-7.5-3.5-7.5-3.5-7.5-4-7.5-4-7.5-3.5-7.5-3.5-7-4-7-4-7-4-7-4-7-4-7-4-7-4.5-7-4.5-6-5-6-5-6.5-4.5-6.5-4.5-6-5-6-5-5.5-5.5-5.5-5.5-5.5-6-5.5-6-5.5-5.5-5.5-5.5-4.5-6.5-4.5-6.5-4.5-6.5-4.5-6.5-4.5-6.5-4.5-6.5-3.5-8-3.5-8-.5-9.5-.5-9.5v-10-10-10-10l.5-9.5.5-9.5 1-9.5 1-9.5 1.5-9.5 1.5-9.5 2-9.5 2-9.5v-2-2l.5-1.5.5-1.5-.5-1.5-.5-1.5-.5 2-.5 2v1.5 1.5l-.5 1-.5 1v1 1 1 1l-.5.5-.5.5-.5 1-.5 1v1 1 1 1l-.5.5-.5.5v1 1 1.5 1.5l-.5 1.5-.5 1.5-.5 1-.5 1-1.5 11.5-1.5 11.5-.5 8.5-.5 8.5v8.5 8.5l-1 10-1 10 1 11 1 11 .5 10 .5 10 4 7 4 7 4 7 4 7 5 6.5 5 6.5 5 6 5 6 5 6 5 6 5.5 5.5 5.5 5.5 6 5 6 5 6 5.5 6 5.5 5 5 5 5 3.5 1.5 3.5 1.5 6 5 6 5 7.5 3.5 7.5 3.5 6 4.5 6 4.5 7 3 7 3 7 4 7 4 7 4 7 4 7.5 3.5 7.5 3.5 7.5 4 7.5 4 7 4 7 4 6 2 6 2 3 4 3 4 6 1 6 1h.5.5l8 2.5 8 2.5 7 3 7 3 1 1.5 1 1.5 8 2 8 2 4.5 2.5 4.5 2.5 8.5 3.5 8.5 3.5 1 1.5 1 1.5 2 .5 2 .5 1 1 1 1 1 1 1 1h2 2l8 2.5 8 2.5 8 3 8 3 10 4 10 4h3 3 2 2" style="fill:#6f6555;stroke:#6f6555"/><path d="m511 1l1-1h-3-3-2.5-2.5-1.5-1.5l-13.5 3-13.5 3-8.5 2.5-8.5 2.5-9 2-9 2-8.5 2.5-8.5 2.5-8.5 3-8.5 3-8.5 2.5-8.5 2.5-8.5 2.5-8.5 2.5-8.5 2.5-8.5 2.5-8 3-8 3-8.5 3-8.5 3-7.5 3.5-7.5 3.5-7.5 3.5-7.5 3.5-7.5 3.5-7.5 3.5-7 4-7 4-6.5 5-6.5 5-6.5 4.5-6.5 4.5-6 5-6 5-5.5 5.5-5.5 5.5-5 6-5 6-5 6.5-5 6.5-4.5 8-4.5 8 4.5-7 4.5-7 5-6 5-6 5-6.5 5-6.5 5.5-5.5 5.5-5.5 6-5 6-5 6.5-4.5 6.5-4.5 6.5-4.5 6.5-4.5 7-4.5 7-4.5 7.5-3.5 7.5-3.5 7.5-3.5 7.5-3.5 8-3.5 8-3.5 8.5-3.5 8.5-3.5 8.5-3 8.5-3 17-5 17-5 9.5-2 9.5-2 8.5-2.5 8.5-2.5 8.5-2.5 8.5-2.5 9-2 9-2 8.5-2.5 8.5-2.5 9.5-2 9.5-2 8.5-2 8.5-2" style="fill:#415366;stroke:#415366"/><path d="m504 363l-7-9-2 5-2 5 5.5-.5 5.5-.5" style="fill:#d4d2cb;stroke:#d4d2cb"/><path d="m501 536h1l-10-4-10-4-8-3-8-3-8-2.5-8-2.5-.5 1-.5 1-1 3.5-1 3.5-2-5-2-5-3.5-3.5-3.5-3.5-8.5-3.5-8.5-3.5-4.5-2.5-4.5-2.5-8-2-8-2 1 1 1 1-1.5 6-1.5 6-6 2-6 2-5.5 3.5-5.5 3.5v5 5l1 4 1 4h1.5 1.5 2.5 2.5 2 2 1 1l.5-1 .5-1-.5-1.5-.5-1.5.5-1.5.5-1.5h1.5 1.5v1 1l-.5 1-.5 1 1.5.5 1.5.5 2-.5 2-.5v1 1l-.5 1-.5 1h3 3 1.5 1.5l-1.5-1.5-1.5-1.5-1-1-1-1 1.5-1 1.5-1 1 1 1 1 2 .5 2 .5.5 1.5.5 1.5 1.5-.5 1.5-.5 1 1 1 1h2.5 2.5 2.5 2.5.5.5l-1.5-5-1.5-5 2 2 2 2 4.5-1 4.5-1-1.5-3.5-1.5-3.5 6.5 3.5 6.5 3.5 6 1.5 6 1.5h-1.5-1.5l-1 1.5-1 1.5-1-1-1-1-2-.5-2-.5h-1-1-2-2l-2 .5-2 .5-.5 2-.5 2h13 13 11 11 9 9" style="fill:#83786a;stroke:#83786a"/><path d="m500 453l-13-3 6 1 6 1 .5.5.5.5" style="fill:#6f6555;stroke:#6f6555"/><path d="m493 66l-10-14 3-6 3-6-2.5-7-2.5-7-8.5.5-8.5.5-8 3-8 3-5 4-5 4-1 7-1 7 7 3.5 7 3.5-5.5 2.5-5.5 2.5 5.5 3.5 5.5 3.5 8 1 8 1h.5.5l-1-.5-1-.5h-2.5-2.5l-2-1-2-1-2-.5-2-.5-2.5.5-2.5.5h-1-1l-1.5-.5-1.5-.5-.5-.5-.5-.5-.5-1-.5-1 1-1 1-1h1 1l1 .5 1 .5 1.5.5 1.5.5.5-.5.5-.5.5-1 .5-1 1.5-1.5 1.5-1.5h1 1l1.5.5 1.5.5h1 1 1.5 1.5l1.5.5 1.5.5.5.5.5.5 1 .5 1 .5 1.5.5 1.5.5h1 1l.5.5.5.5.5 1.5.5 1.5.5 1 .5 1-2 .5-2 .5-1.5.5-1.5.5h-2-2l8 .5 8 .5-5-5.5-5-5.5-7.5-3.5-7.5-3.5 7 1 7 1 7 2 7 2 2 .5 2 .5" style="fill:#78b0ce;stroke:#78b0ce"/><path d="m488 34v-2l-1.5-.5-1.5-.5-2-.5-2-.5h-2-2-1.5-1.5-2-2l1 .5 1 .5h1 1 1.5 1.5l1 1 1 1 2-.5 2-.5 1 1 1 1-.5 1.5-.5 1.5-5.5 6-5.5 6-16.5 1.5-16.5 1.5 8.5 2 8.5 2 8 1 8 1 2.5-4 2.5-4 4-6 4-6 1-2 1-2" style="fill:#b8c2c8;stroke:#b8c2c8"/><path d="m484 37l1-3-1-1-1-1-2 .5-2 .5-1-1-1-1h-1.5-1.5-1-1l-1-.5-1-.5-8 1.5-8 1.5-3.5 4-3.5 4-3.5 5.5-3.5 5.5 16.5-1.5 16.5-1.5 5.5-6 5.5-6" style="fill:#d4d2cb;stroke:#d4d2cb"/><path d="m481 74l-1-2-.5.5-.5.5-2 .5-2 .5-1.5.5-1.5.5-2-.5-2-.5h-2-2l-1.5-1-1.5-1-1 .5-1 .5 2 1 2 1h2.5 2.5l1 .5 1 .5h2 2l1.5-.5 1.5-.5 2-.5 2-.5" style="fill:#95bfd4;stroke:#95bfd4"/><path d="m479 73l1-1-.5-1.5-.5-1.5-.5-.5-.5-.5h-1-1l-1.5-.5-1.5-.5-1-.5-1-.5-.5-.5-.5-.5-1.5-.5-1.5-.5h-1.5-1.5-1-1l-1.5-.5-1.5-.5h-1-1l-.5.5-.5.5-.5 1-.5 1v1.5 1.5l-.5.5-.5.5.5 1 .5 1 2 .5 2 .5 1-.5 1-.5 1.5 1 1.5 1h2 2l2 .5 2 .5 1.5-.5 1.5-.5 2-.5 2-.5" style="fill:#b8c2c8;stroke:#b8c2c8"/><g style="fill:#d4d2cb;stroke:#d4d2cb"><path d="m475 72l-17-7 6 4 6 4 2.5-.5 2.5-.5"/><path d="m469 354h-8v1 1l4-1 4-1"/></g><g style="fill:#83786a;stroke:#83786a"><path d="m466 393v-2h-1-1l-2-.5-2-.5-1.5-.5-1.5-.5v2.5 2.5l1.5-.5 1.5-.5 1.5 1 1.5 1 1.5-.5 1.5-.5v-.5-.5"/><path d="m460 319l-17-5-5.5.5-5.5.5 7.5 1 7.5 1 2.5 2.5 2.5 2.5 3.5 1.5 3.5 1.5.5-3 .5-3"/></g><path d="m457 531l-12-3-6.5-3.5-6.5-3.5 1.5 3.5 1.5 3.5-4.5 1-4.5 1-2-2-2-2 1.5 5 1.5 5h3 3 2 2l.5-2 .5-2 2-.5 2-.5h2 2 1 1l2 .5 2 .5 1 1 1 1 1-1.5 1-1.5h1.5 1.5" style="fill:#a39685;stroke:#a39685"/><path d="m456 282l-16-8 .5 1.5.5 1.5 7.5 2.5 7.5 2.5" style="fill:#c8baa5;stroke:#c8baa5"/><path d="m456 64l1-1-1.5 1.5-1.5 1.5-.5 1-.5 1-.5.5-.5.5-1.5-.5-1.5-.5-1-.5-1-.5h-1-1l-1 1-1 1 .5 1 .5 1 .5.5.5.5 1.5.5 1.5.5h1 1l2.5-.5 2.5-.5-.5-1-.5-1 .5-.5.5-.5v-1.5-1.5l.5-1 .5-1" style="fill:#95bfd4;stroke:#95bfd4"/><path d="m452 237h1l-.5-1.5-.5-1.5-1.5-.5-1.5-.5-1-1.5-1-1.5h-2-2l-2-.5-2-.5-1-1-1-1-1.5 1-1.5 1v.5.5l1.5.5 1.5.5 1.5 1 1.5 1 1.5-.5 1.5-.5.5-.5.5-.5 1 .5 1 .5.5.5.5.5.5.5.5.5.5.5.5.5.5 1 .5 1h1 1" style="fill:#b8c2c8;stroke:#b8c2c8"/><path d="m451 387l-8-2-6-2-6-2-2 2.5-2 2.5 7 3 7 3 5-2.5 5-2.5" style="fill:#83786a;stroke:#83786a"/><path d="m449 519l1-2h-2-2l-1-1-1-1-1-1-1-1-2-.5-2-.5-1-1.5-1-1.5 3.5 3.5 3.5 3.5 2 5 2 5 1-3.5 1-3.5" style="fill:#a39685;stroke:#a39685"/><g style="fill:#c8baa5;stroke:#c8baa5"><path d="m449 267v-2l-1.5-.5-1.5-.5-1-.5-1-.5h-1-1l-1-.5-1-.5.5 1.5.5 1.5 1 1.5 1 1.5 1.5-.5 1.5-.5 1.5.5 1.5.5v-.5-.5"/><path d="m449 237h1l-.5-1-.5-1-.5-.5-.5-.5-.5-.5-.5-.5-.5-.5-.5-.5-1-.5-1-.5-.5.5-.5.5-1.5.5-1.5.5h-16.5-16.5-8.5-8.5l5 2 5 2 7.5.5 7.5.5 7.5.5 7.5.5 9.5-1 9.5-1"/></g><path d="m434 334l1-3-1.5-.5-1.5-.5-1.5-1-1.5-1-.5 1.5-.5 1.5 1 1.5 1 1.5 1.5.5 1.5.5.5-.5.5-.5" style="fill:#d4d2cb;stroke:#d4d2cb"/><path d="m433 230h1v-.5-.5l-1.5-.5-1.5-.5-.5.5-.5.5h-1-1l-1-.5-1-.5h-1-1-1-1-1-1-1.5-1.5l-.5-.5-.5-.5-.5-.5-.5-.5-.5-.5-.5-.5h-1.5-1.5-1-1-1-1-1-1-1-1-1.5-1.5-2-2l-.5.5-.5.5-2 .5-2 .5h2.5 2.5 2.5 2.5 2 2 2 2l1.5 1 1.5 1 1.5.5 1.5.5 2 .5 2 .5h2 2 2.5 2.5 1.5 1.5l1-.5 1-.5" style="fill:#9a9da4;stroke:#9a9da4"/><path d="m431 517l-10-12-4.5 2.5-4.5 2.5-.5.5-.5.5 1 .5 1 .5 1-1 1-1v-1-1h1.5 1.5l.5 1 .5 1-.5.5-.5.5v2 2l-1-1-1-1-1 1.5-1 1.5-1.5-.5-1.5-.5v-2-2h-1.5-1.5l-1 .5-1 .5.5.5.5.5.5 1 .5 1-1 1-1 1h-.5-.5l2 2 2 2h2 2l1.5 2.5 1.5 2.5 1-4 1-4 4.5-1.5 4.5-1.5 2 1 2 1" style="fill:#a39685;stroke:#a39685"/><path d="m422 428l-4-4 .5 6.5.5 6.5 1.5-4.5 1.5-4.5" style="fill:#83786a;stroke:#83786a"/><path d="m422 349l-8-8 2.5 3.5 2.5 3.5 1.5.5 1.5.5" style="fill:#d4d2cb;stroke:#d4d2cb"/><g style="fill:#83786a;stroke:#83786a"><path d="m421 417l-10 2-4.5 1.5-4.5 1.5 4 2.5 4 2.5 3-4 3-4 2.5-1 2.5-1"/><path d="m419 510l-1-2h-1.5-1.5v1 1l-1 1-1 1-1-.5-1-.5v2 2l1.5.5 1.5.5 1-1.5 1-1.5 1 1 1 1v-2-2l.5-.5.5-.5"/></g><path d="m413 536h1l-1-1-1-1-1.5.5-1.5.5-.5-1.5-.5-1.5-2-.5-2-.5-1-1-1-1-1.5 1-1.5 1 1 1 1 1 1.5 1.5 1.5 1.5h3.5 3.5 1 1" style="fill:#a39685;stroke:#a39685"/><path d="m413 50v-2l-1.5-.5-1.5-.5-1-1.5-1-1.5-1-1-1-1-.5 1.5-.5 1.5-1-.5-1-.5h-.5-.5v1.5 1.5h-1.5-1.5l-.5-.5-.5-.5-.5.5-.5.5-.5.5-.5.5 1 .5 1 .5-.5.5-.5.5-.5.5-.5.5-.5 1-.5 1-.5.5-.5.5v.5.5l1.5-.5 1.5-.5 1.5 1 1.5 1 1.5.5 1.5.5-.5 1.5-.5 1.5-.5 1.5-.5 1.5h-.5-.5v2.5 2.5l-1 1.5-1 1.5-1.5.5-1.5.5-2 .5-2 .5-1.5.5-1.5.5-.5 1.5-.5 1.5v2 2l8.5-10.5 8.5-10.5 1-4 1-4 3.5-1 3.5-1" style="fill:#78b0ce;stroke:#78b0ce"/><path d="m411 503l-10-6-2 4-2 4 6.5-1 6.5-1h.5.5" style="fill:#a39685;stroke:#a39685"/><g style="fill:#83786a;stroke:#83786a"><path d="m411 313l-10-11-7.5 1.5-7.5 1.5-6.5 3.5-6.5 3.5h1.5 1.5l5.5 1.5 5.5 1.5 6.5 4 6.5 4h2 2l1-.5 1-.5h-2-2l-.5-1.5-.5-1.5-1-1.5-1-1.5.5-1.5.5-1.5h2.5 2.5l1.5.5 1.5.5 1.5-.5 1.5-.5"/><path d="m408 289l-15-5-7.5-2.5-7.5-2.5.5 3 .5 3 7 3 7 3 7.5-1 7.5-1"/><path d="m405 413l-9-7-7 2-7 2 10 .5 10 .5 1.5 1 1.5 1"/></g><path d="m404 517h1l-6-2.5-6-2.5-1.5 5.5-1.5 5.5 4 .5 4 .5 3-3.5 3-3.5" style="fill:#a39685;stroke:#a39685"/><path d="m402 259v-2l-1.5-.5-1.5-.5-.5-2-.5-2-1.5-.5-1.5-.5-1.5 1-1.5 1 .5.5.5.5 1 1.5 1 1.5 1.5.5 1.5.5 1 1 1 1 1-.5 1-.5" style="fill:#c8baa5;stroke:#c8baa5"/><g style="fill:#95bfd4;stroke:#95bfd4"><path d="m402 60l1-3-1.5-.5-1.5-.5-1.5-1-1.5-1-1.5.5-1.5.5-.5 2-.5 2 1.5-.5 1.5-.5 1 .5 1 .5 1 1 1 1 .5 1 .5 1 .5-1.5.5-1.5"/><path d="m402 47v-3l-1-.5-1-.5-1-.5-1-.5v-1.5-1.5l-.5 1-.5 1-.5.5-.5.5-.5 1-.5 1-.5.5-.5.5-.5.5-.5.5v1 1l.5 1 .5 1-.5.5-.5.5-1 1-1 1h2 2l.5-1 .5-1 .5-.5.5-.5.5-.5.5-.5-1-.5-1-.5.5-.5.5-.5.5-.5.5-.5.5.5.5.5h1.5 1.5"/></g><path d="m402 44h1l-1-.5-1-.5-.5-1.5-.5-1.5v-2-2-1.5-1.5l-1-.5-1-.5-1.5-.5-1.5-.5-1.5.5-1.5.5-2 .5-2 .5-.5-.5-.5-.5-17 5-17 5-8.5 3-8.5 3-8.5 3.5-8.5 3.5v1 1l-1 .5-1 .5-1 1-1 1-1.5 1-1.5 1-1.5.5-1.5.5-2 .5-2 .5-1 1-1 1-1 .5-1 .5h2 2l1.5-.5 1.5-.5 1-.5 1-.5.5-.5.5-.5 1.5-.5 1.5-.5h.5.5l.5.5.5.5 1.5.5 1.5.5 1-.5 1-.5 4.5-5.5 4.5-5.5 8-3 8-3 8.5-2.5 8.5-2.5 8.5-2.5 8.5-2.5 9 2.5 9 2.5 1 .5 1 .5 1 .5 1 .5" style="fill:#7d8fa8;stroke:#7d8fa8"/><path d="m400 63h1l-.5-1-.5-1-1-1-1-1-1-.5-1-.5-1.5.5-1.5.5-2 .5-2 .5v-1-1l-.5-.5-.5-.5-.5-.5-.5-.5.5-1 .5-1 1.5-.5 1.5-.5 1-1 1-1 .5-.5.5-.5-.5-1-.5-1v-1-1l.5-.5.5-.5.5-.5.5-.5.5-1 .5-1 .5-.5.5-.5.5-1 .5-1-7.5-1-7.5-1-4.5 3-4.5 3-8.5 1.5-8.5 1.5-8 3-8 3-8.5 5-8.5 5 2.5.5 2.5.5 2 .5 2 .5 1.5.5 1.5.5 2 .5 2 .5 1.5.5 1.5.5 2 .5 2 .5 1.5.5 1.5.5.5 1 .5 1 1 2 1 2 1.5.5 1.5.5-.5 1-.5 1h2 2 2.5 2.5l1.5.5 1.5.5 1 .5 1 .5 1-.5 1-.5 1 .5 1 .5h1 1l1 .5 1 .5 1.5.5 1.5.5h1 1 .5.5l1-1 1-1 .5-.5.5-.5.5-1 .5-1 .5-1.5.5-1.5 1.5-.5 1.5-.5 2-.5 2-.5 1.5-.5 1.5-.5 1-1.5 1-1.5v-2.5-2.5" style="fill:#b8c2c8;stroke:#b8c2c8"/><path d="m398 42l-18-5-8.5 2.5-8.5 2.5-8.5 2.5-8.5 2.5-8 3-8 3-4.5 5.5-4.5 5.5 1.5-1 1.5-1 8.5-5 8.5-5 8-3 8-3 8.5-1.5 8.5-1.5 4.5-3 4.5-3 7.5 1 7.5 1v1.5 1.5" style="fill:#9a9da4;stroke:#9a9da4"/><g style="fill:#a39685;stroke:#a39685"><path d="m396 534v-2l-2 .5-2 .5-1.5-.5-1.5-.5.5-1 .5-1v-1-1h-1.5-1.5l-.5 1.5-.5 1.5.5 1.5.5 1.5-.5 1-.5 1h3 3 1.5 1.5l.5-1 .5-1"/><path d="m396 495l-2-2-1-1.5-1-1.5-1.5 1-1.5 1 .5.5.5.5h1 1l.5 1 .5 1-.5.5-.5.5v1 1l-5.5-2.5-5.5-2.5-9.5-7-9.5-7h-.5-.5l3 5 3 5 7 3.5 7 3.5-6-.5-6-.5-.5 2.5-.5 2.5 5.5 2.5 5.5 2.5-3.5 2.5-3.5 2.5-6-2.5-6-2.5-8-2-8-2 4-5 4-5-7 1-7 1 6-3.5 6-3.5-6.5-3.5-6.5-3.5v4 4l-3.5.5-3.5.5-7-2-7-2-1.5-7-1.5-7-.5 3.5-.5 3.5-5 3-5 3 5.5 1.5 5.5 1.5 4.5 4.5 4.5 4.5 1-.5 1-.5-4.5 4.5-4.5 4.5-1.5 3.5-1.5 3.5 3-4 3-4h7 7l2.5-1 2.5-1 4.5 1.5 4.5 1.5 3 6 3 6 2-4 2-4 3 2 3 2-2 2.5-2 2.5-1.5 4.5-1.5 4.5.5-.5.5-.5 6-4 6-4 .5 4.5.5 4.5v5.5 5.5h1.5 1.5l-1-4-1-4v-5-5l5.5-3.5 5.5-3.5 6-2 6-2 1.5-6 1.5-6"/></g><path d="m395 226l1-1-1.5-.5-1.5-.5-.5-.5-.5-.5-1-.5-1-.5h-1-1-1-1-1-1-1.5-1.5l-1 .5-1 .5-.5.5-.5.5-1 .5-1 .5v.5.5l-.5 1-.5 1h2.5 2.5 2.5 2.5l1.5-.5 1.5-.5h1.5 1.5l2-.5 2-.5" style="fill:#c8baa5;stroke:#c8baa5"/><path d="m395 68l-10-10-4.5-4.5-4.5-4.5-7 .5-7 .5-8 2-8 2-5 3-5 3 7.5 2.5 7.5 2.5 9 2 9 2 9 1.5 9 1.5 4-2 4-2" style="fill:#d4d2cb;stroke:#d4d2cb"/><path d="m394 54l1-1h-2-2l-1.5.5-1.5.5-.5 1-.5 1 .5.5.5.5.5.5.5.5v1 1l2-.5 2-.5.5-2 .5-2v-.5-.5" style="fill:#9a9da4;stroke:#9a9da4"/><path d="m392 498v-2l.5-.5.5-.5-.5-1-.5-1h-1-1l-.5-.5-.5-.5 1.5-1 1.5-1-7-3-7-3-8-2.5-8-2.5 9.5 7 9.5 7 5.5 2.5 5.5 2.5" style="fill:#83786a;stroke:#83786a"/><path d="m392 39l-1-1h-2-2l-2 .5-2 .5-1 1-1 1 1.5 1 1.5 1 1.5.5 1.5.5 2-.5 2-.5.5-1.5.5-1.5v-.5-.5" style="fill:#d4d2cb;stroke:#d4d2cb"/><path d="m387 520l-6 4 2.5.5 2.5.5.5-2.5.5-2.5" style="fill:#a39685;stroke:#a39685"/><path d="m387 344v-2h-2-2l-1.5-1-1.5-1-1.5.5-1.5.5h-1.5-1.5l.5.5.5.5 2 .5 2 .5 1.5.5 1.5.5h2 2 .5.5" style="fill:#d4d2cb;stroke:#d4d2cb"/><path d="m386 84l1-3h-.5-.5l-.5 1-.5 1-.5.5-.5.5h-1.5-1.5l-.5-.5-.5-.5h-1-1-1-1l-1-.5-1-.5h-1-1l-.5-.5-.5-.5-1-.5-1-.5h-.5-.5l-2-.5-2-.5h-2-2l-2 .5-2 .5-1-1-1-1-1.5-1-1.5-1-.5-1.5-.5-1.5.5-1 .5-1h-.5-.5l-.5 1-.5 1 10 4.5 10 4.5 8.5 1 8.5 1" style="fill:#78b0ce;stroke:#78b0ce"/><path d="m386 81h1v-2-2l-.5 1-.5 1-.5.5-.5.5-1 1-1 1h-.5-.5-1-1l-1.5-.5-1.5-.5-1-.5-1-.5h-1-1l-1-.5-1-.5-1 .5-1 .5 1 .5 1 .5.5.5.5.5h1 1l1 .5 1 .5h1 1 1 1l.5.5.5.5h1.5 1.5l.5-.5.5-.5.5-1 .5-1" style="fill:#95bfd4;stroke:#95bfd4"/><path d="m381 496l-14-7-3-5-3-5-6-1-6-1-3-4-3-4-6-2-6-2-7-4-7-4-7.5-4-7.5-4-7.5-3.5-7.5-3.5-7-4-7-4-7-4-7-4-7-3-7-3-6-4.5-6-4.5-7.5-3.5-7.5-3.5-6-5-6-5-3.5-1.5-3.5-1.5-5-5-5-5-6-5.5-6-5.5-6-5-6-5-5.5-5.5-5.5-5.5-5-6-5-6-5-6-5-6-5-6.5-5-6.5-4-7-4-7-4-7-4-7-.5-10-.5-10-5 5.5-5 5.5-8.5.5-8.5.5-9.5-.5-9.5-.5-8.5.5-8.5.5-8.5.5-8.5.5-13.5.5-13.5.5v11.5 11.5 11 11 11 11 11 11 11 11 11.5 11.5 6 6l1.5.5 1.5.5 1.5.5 1.5.5v1 1l-1 .5-1 .5h-1-1l-.5 1-.5 1-.5 1.5-.5 1.5v3 3 2.5 2.5 2 2 2 2 2.5 2.5 2 2 2.5 2.5 2 2 2.5 2.5 2 2 .5.5l2-4.5 2-4.5 2 8.5 2 8.5-1.5 1-1.5 1-1.5-1-1.5-1-1-.5-1-.5v3 3 2 2 1.5 1.5h2 2v1 1h.5.5l1.5-.5 1.5-.5.5-.5.5-.5 1 .5 1 .5 1.5.5 1.5.5v1 1l-.5 1.5-.5 1.5h-1.5-1.5-2-2-1-1l.5-.5.5-.5-.5-.5-.5-.5-2-.5-2-.5v3.5 3.5 2 2 2.5 2.5 2 2 2.5 2.5l1-.5 1-.5 1.5-.5 1.5-.5.5-2 .5-2h1 1l-.5 1-.5 1 1 1 1 1-.5 1.5-.5 1.5-1.5.5-1.5.5-.5.5-.5.5-.5 1.5-.5 1.5h11.5 11.5 11 11 11 11 11 11 11.5 11.5 11 11 11 11 11 11 5.5 5.5v-1.5-1.5-2-2l1 1 1 1 1.5 1 1.5 1 1 1 1 1h.5.5v.5.5h1.5 1.5 2.5 2.5 2 2 .5.5l.5-1 .5-1h1 1l1-.5 1-.5 1 1 1 1 1.5-1 1.5-1 .5-1.5.5-1.5 1.5-1 1.5-1 1 1 1 1v1.5 1.5l.5.5.5.5 1 1 1 1h2.5 2.5 2 2 2.5 2.5 2 2 2.5 2.5.5.5l-2-4.5-2-4.5-5-5-5-5v-6-6l-1-4-1-4 3-1 3-1 2 11 2 11-1.5-.5-1.5-.5v-1-1l-.5.5-.5.5h-1-1l-1 1-1 1 6 2.5 6 2.5.5-5.5.5-5.5 1.5 5.5 1.5 5.5 3 6.5 3 6.5v.5.5h3 3 2 2 2.5 2.5 2 2 2.5 2.5 2 2 .5.5l5-1.5 5-1.5 8 1.5 8 1.5h1.5 1.5 1 1l-.5-6.5-.5-6.5-3.5-1.5-3.5-1.5h3 3l6 3.5 6 3.5-2-1-2-1 1 1 1 1 .5 1.5.5 1.5-1.5 2-1.5 2 1-.5 1-.5h1 1l1-1 1-1 .5-.5.5-.5 1-5.5 1-5.5-1.5-4.5-1.5-4.5.5-.5.5-.5 6 3 6 3 3 10.5 3 10.5h1.5 1.5 2 2 2.5 2.5 1 1v-5.5-5.5l-.5-4.5-.5-4.5-6 4-6 4-.5.5-.5.5 1.5-4.5 1.5-4.5 2-2.5 2-2.5-3-2-3-2-2 4-2 4-3-6-3-6-4.5-1.5-4.5-1.5-2.5 1-2.5 1h-7-7l-3 4-3 4 1.5-3.5 1.5-3.5 4.5-4.5 4.5-4.5-1 .5-1 .5-4.5-4.5-4.5-4.5-5.5-1.5-5.5-1.5 5-3 5-3 .5-3.5.5-3.5 1.5 7 1.5 7 7 2 7 2 3.5-.5 3.5-.5v-4-4l6.5 3.5 6.5 3.5-6 3.5-6 3.5 7-1 7-1-4 5-4 5 8 2 8 2 6 2.5 6 2.5 3.5-2.5 3.5-2.5-5.5-2.5-5.5-2.5.5-2.5.5-2.5 6 .5 6 .5" style="fill:#83786a;stroke:#83786a"/><path d="m381 64l1-3h-.5-.5l-.5-1-.5-1v-1-1l-1-.5-1-.5-1.5-.5-1.5-.5-.5-.5-.5-.5-1 .5-1 .5-.5 1.5-.5 1.5v1.5 1.5l1 2 1 2 1.5.5 1.5.5 2-.5 2-.5.5-.5.5-.5" style="fill:#f6f9f3;stroke:#f6f9f3"/><path d="m381 61h1v-1.5-1.5l-.5-1.5-.5-1.5-1.5-1-1.5-1-1.5-.5-1.5-.5-2-.5-2-.5-1 1-1 1v1.5 1.5l.5 1.5.5 1.5.5 1 .5 1v-1.5-1.5l.5-1.5.5-1.5 1-.5 1-.5.5.5.5.5 1.5.5 1.5.5 1 .5 1 .5v1 1l.5 1 .5 1" style="fill:#ccdfeb;stroke:#ccdfeb"/><path d="m378 224l1-1-19 1-19 1h-9-9-11-11v1 1l9.5-.5 9.5-.5 9.5.5 9.5.5h17 17-.5-.5l1.5.5 1.5.5.5-1 .5-1v-.5-.5l1-.5 1-.5" style="fill:#b8c2c8;stroke:#b8c2c8"/><path d="m373 227h-34l-9.5-.5-9.5-.5-9.5.5-9.5.5h-.5-.5l-1 .5-1 .5 4 2 4 2h5 5l5.5 5.5 5.5 5.5 4.5 1.5 4.5 1.5 5.5-3.5 5.5-3.5 7-1 7-1 5.5-5 5.5-5h.5.5" style="fill:#c8baa5;stroke:#c8baa5"/><path d="m372 295l-14-9-3.5-3.5-3.5-3.5-6.5-1.5-6.5-1.5-.5 5.5-.5 5.5-3-2-3-2-2-4-2-4-4.5-5-4.5-5-1-.5-1-.5-.5-.5-.5-.5h-1-1l-1-.5-1-.5h-1-1l1.5 1 1.5 1 1 1 1 1-.5 1.5-.5 1.5-.5 2-.5 2-1 1-1 1-.5-.5-.5-.5-.5-.5-.5-.5-.5-.5-.5-.5v-1.5-1.5l-.5-.5-.5-.5-.5-.5-.5-.5v-1-1l.5-1 .5-1 1.5-.5 1.5-.5 1.5-5 1.5-5-3-4.5-3-4.5-5.5-.5-5.5-.5-3 4-3 4 2 6 2 6h-2-2l-2.5-9-2.5-9 1-4 1-4-8.5-2.5-8.5-2.5-3.5 3.5-3.5 3.5-4 7-4 7-2.5 8-2.5 8-7.5-3.5-7.5-3.5h2 2l5.5-3.5 5.5-3.5-2-5-2-5-3.5-5-3.5-5-4-4-4-4-10.5-.5-10.5-.5-8-3-8-3-7 2-7 2-5.5 3.5-5.5 3.5-1-3-1-3 5-2.5 5-2.5-1-.5-1-.5h-1.5-1.5l-1-.5-1-.5-.5.5-.5.5-1-1.5-1-1.5v-1-1l.5-2 .5-2 .5-1.5.5-1.5v-2-2l-.5 2-.5 2-1 1.5-1 1.5-.5 1.5-.5 1.5 5.5 9.5 5.5 9.5 8-2 8-2 .5 1.5.5 1.5-1 5-1 5-5 4.5-5 4.5-5.5 4.5-5.5 4.5-1.5 3.5-1.5 3.5 8.5-1.5 8.5-1.5 2-4 2-4 4 2.5 4 2.5-5 4-5 4 7-3 7-3 2.5 2.5 2.5 2.5 4.5 1 4.5 1-5.5 2.5-5.5 2.5-4.5-.5-4.5-.5-3 2-3 2-6.5.5-6.5.5-2-.5-2-.5-4.5 4.5-4.5 4.5 4 8.5 4 8.5-.5-2-.5-2 2-.5 2-.5 1.5.5 1.5.5 1.5-1 1.5-1v-1-1l-.5-5.5-.5-5.5 8.5-.5 8.5-.5 8.5 1.5 8.5 1.5 5.5-.5 5.5-.5 5 2.5 5 2.5h8 8l7 2 7 2 6 3 6 3 5-3 5-3 4 1.5 4 1.5 4.5.5 4.5.5 5.5 2.5 5.5 2.5 2.5 1.5 2.5 1.5 2 3 2 3 1-2.5 1-2.5 1-5 1-5 3.5 1.5 3.5 1.5 7-1 7-1 5-4 5-4 8 3 8 3" style="fill:#83786a;stroke:#83786a"/><path d="m368 80h1l-1-.5-1-.5-1.5-.5-1.5-.5h-2.5-2.5-2-2l.5-1 .5-1-1.5-.5-1.5-.5-1-2-1-2-.5 1-.5 1 .5 1.5.5 1.5 1.5 1 1.5 1 1 1 1 1 2-.5 2-.5h2 2l2 .5 2 .5" style="fill:#95bfd4;stroke:#95bfd4"/><path d="m366 344h1v-.5-.5h-.5-.5-1.5-1.5-1-1l-.5-.5-.5-.5h-1.5-1.5l-1.5-.5-1.5-.5h-1-1-1.5-1.5l-1.5-.5-1.5-.5h-1-1-1.5-1.5l-1.5-.5-1.5-.5h-1-1-1-1l-1.5-.5-1.5-.5h-.5-.5l-11-1-11-1-10-1.5-10-1.5-10-1-10-1-9.5-1.5-9.5-1.5-10-1-10-1-9.5-1.5-9.5-1.5-10-1.5-10-1.5 5-2 5-2 10.5-.5 10.5-.5 19-.5 19-.5h1.5 1.5l2-.5 2-.5h2 2l2-.5 2-.5 2-.5 2-.5-11-2-11-2-10.5-.5-10.5-.5-1.5-.5-1.5-.5-6.5-1.5-6.5-1.5-8.5 1.5-8.5 1.5 15 1 15 1 10 1 10 1 10.5.5 10.5.5-10 1.5-10 1.5-9.5-.5-9.5-.5h-10-10l-8.5.5-8.5.5-5 1-5 1 2 3.5 2 3.5 9.5 1.5 9.5 1.5 9.5 1.5 9.5 1.5 8.5 1.5 8.5 1.5 8.5 1 8.5 1 7 1 7 1 9 1 9 1 8 1 8 1 8 1 8 1h9.5 9.5l10 1.5 10 1.5" style="fill:#83786a;stroke:#83786a"/><path d="m366 343h1l-1-.5-1-.5h-2-2l-2-.5-2-.5-1.5-.5-1.5-.5h-2.5-2.5l-1.5-.5-1.5-.5h-2.5-2.5l-1.5-.5-1.5-.5h-2-2-1.5-1.5l1.5.5 1.5.5h1 1 1 1l1.5.5 1.5.5h1.5 1.5 1 1l1.5.5 1.5.5h1.5 1.5 1 1l1.5.5 1.5.5h1.5 1.5l.5.5.5.5h1 1 1.5 1.5" style="fill:#a39685;stroke:#a39685"/><path d="m366 314l-16-6 3.5 2.5 3.5 2.5 4.5.5 4.5.5" style="fill:#c8baa5;stroke:#c8baa5"/><path d="m363 504l1-3v-1-1l-.5-2-.5-2-1-1-1-1-1 1.5-1 1.5-.5 1.5-.5 1.5 1.5 1 1.5 1-.5 1.5-.5 1.5 1 1 1 1 .5-1 .5-1" style="fill:#a39685;stroke:#a39685"/><g style="fill:#c8baa5;stroke:#c8baa5"><path d="m363 297v-2l-1-1-1-1h-2.5-2.5-2-2l.5 2 .5 2 1.5.5 1.5.5h2.5 2.5l1-.5 1-.5"/><path d="m358 273l-6-12-2.5 3.5-2.5 3.5-7-.5-7-.5 5.5 3.5 5.5 3.5 7-.5 7-.5"/></g><path d="m354 536h1l-3-10.5-3-10.5-6-3-6-3-.5.5-.5.5 1.5 4.5 1.5 4.5-1 5.5-1 5.5 2-.5 2-.5v1.5 1.5l.5 1.5.5 1.5 1-.5 1-.5 1-1 1-1-1-1-1-1 1.5-1 1.5-1h2 2l-.5 1.5-.5 1.5-1 1.5-1 1.5.5 1 .5 1h2.5 2.5" style="fill:#a39685;stroke:#a39685"/><path d="m350 531l1-3h-2-2l-1.5 1-1.5 1 1 1 1 1-1 1-1 1-1 .5-1 .5.5.5.5.5h2.5 2.5.5.5l-.5-1-.5-1 1-1.5 1-1.5" style="fill:#83786a;stroke:#83786a"/><path d="m350 71h1l-.5-1-.5-1-1.5-.5-1.5-.5-2-.5-2-.5-1.5-.5-1.5-.5-2-.5-2-.5-1.5-.5-1.5-.5-2-.5-2-.5-2.5-.5-2.5-.5-1.5 1-1.5 1 2 1 2 1 .5 1 .5 1 .5-.5.5-.5 1 1 1 1h1.5 1.5 1 1 1 1l1-.5 1-.5h1 1 1 1 1 1l-.5 1-.5 1 .5 1 .5 1h1.5 1.5l1 .5 1 .5.5-1 .5-1" style="fill:#7d8fa8;stroke:#7d8fa8"/><path d="m344 250v-2l-1.5.5-1.5.5h-2.5-2.5l-1.5.5-1.5.5.5 1 .5 1 1 1 1 1 2-.5 2-.5 1-1 1-1 1-.5 1-.5" style="fill:#c8baa5;stroke:#c8baa5"/><path d="m343 308l-13-5 5.5 2.5 5.5 2.5h1 1" style="fill:#83786a;stroke:#83786a"/><path d="m343 73l1-1-.5-1-.5-1 .5-1 .5-1h-1-1-1-1-1-1l-1 .5-1 .5.5 1 .5 1 1.5 1 1.5 1h1.5 1.5" style="fill:#78b0ce;stroke:#78b0ce"/><path d="m342 536h1l-.5-.5-.5-.5-.5-1.5-.5-1.5v-1.5-1.5l-2 .5-2 .5-.5.5-.5.5-1 1-1 1h-1-1l-1 .5-1 .5h-1.5-1.5l-.5 1-.5 1h3 3 2.5 2.5 2 2 .5.5" style="fill:#6f6555;stroke:#6f6555"/><path d="m336 96l1-3v-2-2l-1-1.5-1-1.5h-1-1l-2-.5-2-.5-1.5-.5-1.5-.5.5 2 .5 2 .5.5.5.5 1 1 1 1 1 1 1 1v1 1h-10-10l-3.5-3.5-3.5-3.5-1-.5-1-.5v6.5 6.5l9.5-1 9.5-1 7-1 7-1" style="fill:#78b0ce;stroke:#78b0ce"/><path d="m335 2l-23-1 1.5.5 1.5.5h10 10" style="fill:#292f32;stroke:#292f32"/><g style="fill:#a39685;stroke:#a39685"><path d="m334 527l-12-7h-3-3l3.5 1.5 3.5 1.5.5 6.5.5 6.5h1 1l.5-1 .5-1h1.5 1.5l1.5-2 1.5-2-.5-1.5-.5-1.5-1-1-1-1 2 1 2 1"/><path d="m334 484l-5-5v2 2l2.5.5 2.5.5"/><path d="m332 328v-2l-1-1-1-1-2 .5-2 .5-.5 1.5-.5 1.5 2 .5 2 .5 1.5-.5 1.5-.5"/></g><path d="m332 95v-2l-1-1-1-1-1-1-1-1 .5 1 .5 1v1 1h-10-10l9-2.5 9-2.5-.5-2-.5-2-1-1-1-1-.5 1.5-.5 1.5-1.5-1-1.5-1-.5-1.5-.5-1.5-2-.5-2-.5v1 1l-.5.5-.5.5-1-.5-1-.5-.5-1.5-.5-1.5-1 .5-1 .5-1.5 1.5-1.5 1.5-1 1.5-1 1.5-.5 1-.5 1 1 .5 1 .5 3.5 3.5 3.5 3.5h10 10" style="fill:#95bfd4;stroke:#95bfd4"/><g style="fill:#a39685;stroke:#a39685"><path d="m330 338h1l-11-1.5-11-1.5-9.5-1.5-9.5-1.5-10-1.5-10-1.5-10-1-10-1-9.5-1.5-9.5-1.5-10-1-10-1-6-2-6-2 10.5-1 10.5-1 9.5-.5 9.5-.5 10-.5 10-.5-19 .5-19 .5-10.5.5-10.5.5-5 2-5 2 10 1.5 10 1.5 9.5 1.5 9.5 1.5 10 1 10 1 9.5 1.5 9.5 1.5 10 1 10 1 10 1.5 10 1.5 11 1 11 1"/><path d="m329 515l1-3-1.5-.5-1.5-.5-1-.5-1-.5h-1-1v1.5 1.5l1 1 1 1h1.5 1.5.5.5"/></g><path d="m329 93v-2l-.5-1-.5-1-.5-.5-.5-.5-9 2.5-9 2.5h10 10" style="fill:#b8c2c8;stroke:#b8c2c8"/><path d="m323 85l1-3-1-1-1-1-1.5-1-1.5-1-1-1-1-1-1-1.5-1-1.5-1.5-.5-1.5-.5-2 .5-2 .5-1.5.5-1.5.5-.5 1.5-.5 1.5 1.5 1 1.5 1h1 1l1-.5 1-.5.5 1.5.5 1.5 1 .5 1 .5.5-.5.5-.5v-1-1l2 .5 2 .5.5 1.5.5 1.5 1.5 1 1.5 1" style="fill:#78b0ce;stroke:#78b0ce"/><path d="m320 265l1-3-.5-.5-.5-.5-.5-.5-.5-.5-1-.5-1-.5-.5-.5-.5-.5h-1-1-1-1l-1-.5-1-.5-.5-.5-.5-.5-.5.5-.5.5v1 1l.5.5.5.5 1 1 1 1 1 .5 1 .5h1 1l.5.5.5.5 1 .5 1 .5h1 1" style="fill:#c8baa5;stroke:#c8baa5"/><path d="m319 57v-2l-8 3.5-8 3.5-7.5 3.5-7.5 3.5-7.5 3.5-7.5 3.5-7 4.5-7 4.5-6.5 4.5-6.5 4.5-6.5 4.5-6.5 4.5-6 5-6 5-5.5 5.5-5.5 5.5-5 6.5-5 6.5-5 6-5 6-4.5 7-4.5 7-.5 1-.5 1-.5 1.5-.5 1.5-1 1.5-1 1.5-.5 2.5-.5 2.5 8-13 8-13 5-6.5 5-6.5 5-6 5-6 5.5-5.5 5.5-5.5 6.5-4.5 6.5-4.5 7-5 7-5 1-.5 1-.5 1.5-1 1.5-1 1.5-.5 1.5-.5 1.5-1 1.5-1 1-1 1-1 1.5-.5 1.5-.5 1.5-1 1.5-1 1-1 1-1 1.5-1 1.5-1 1.5-1.5 1.5-1.5 1-.5 1-.5.5-1.5.5-1.5 1.5-.5 1.5-.5 2-.5 2-.5 1.5-.5 1.5-.5 1.5-.5 1.5-.5 1 .5 1 .5 1.5-1.5 1.5-1.5h1.5 1.5l1-.5 1-.5 1-1 1-1 2-.5 2-.5 1.5-.5 1.5-.5 1.5-1 1.5-1 1-1 1-1 1-.5 1-.5" style="fill:#56748b;stroke:#56748b"/><path d="m318 536h1l-8-1.5-8-1.5-5 1.5-5 1.5h3 3 2.5 2.5 2 2 2.5 2.5 2 2 .5.5" style="fill:#a39685;stroke:#a39685"/><path d="m313 269l1-3-1-1-1-1-1.5-1-1.5-1-1.5.5-1.5.5-.5 1-.5 1v1 1l.5.5.5.5.5.5.5.5v1.5 1.5l.5.5.5.5.5.5.5.5.5.5.5.5 1-1 1-1 .5-2 .5-2" style="fill:#6f6555;stroke:#6f6555"/><g style="fill:#a39685;stroke:#a39685"><path d="m312 500l-9-13 1 4 1 4 3.5 2.5 3.5 2.5"/><path d="m305 325l-5-7-3 4-3 4 5.5-.5 5.5-.5"/><path d="m304 523v-2h-2-2l-1.5 1-1.5 1 .5 1.5.5 1.5 2 .5 2 .5 1 1 1 1-1-1.5-1-1.5.5-1.5.5-1.5h.5.5"/><path d="m304 508l-11-7 4.5 4.5 4.5 4.5-5 1.5-5 1.5-.5 1.5-.5 1.5-7-2-7-2 1 3 1 3 5.5 3.5 5.5 3.5 1-1.5 1-1.5 6-5 6-5v-2-2"/></g><path d="m300 227h1v-1-1l-8-2.5-8-2.5-9-2-9-2-6.5-5-6.5-5h-.5-.5l-1 .5-1 .5h-2-2l-1-.5-1-.5 9 5 9 5 7.5 4 7.5 4 .5 1.5.5 1.5 2.5.5 2.5.5h7 7l1-.5 1-.5" style="fill:#9a9da4;stroke:#9a9da4"/><path d="m297 484v-2-1-1l-1 1.5-1 1.5-1.5.5-1.5.5-1 1.5-1 1.5 1 1 1 1 1 .5 1 .5 1-1 1-1 .5-1.5.5-1.5v-.5-.5" style="fill:#a39685;stroke:#a39685"/><path d="m294 71l1-1-1-.5-1-.5-1.5.5-1.5.5-1.5.5-1.5.5-2 .5-2 .5-1.5.5-1.5.5-.5 1.5-.5 1.5-1 .5-1 .5 1 .5 1 .5 1-1 1-1 1 .5 1 .5.5-.5.5-.5h2 2l1-1 1-1 1-1 1-1 1-.5 1-.5" style="fill:#7d8fa8;stroke:#7d8fa8"/><g style="fill:#a39685;stroke:#a39685"><path d="m290 447l-9-7 .5 3.5.5 3.5-.5 6-.5 6-4.5.5-4.5.5-3-2-3-2 2 3 2 3h3 3l5-2.5 5-2.5 2-5 2-5"/><path d="m286 508l-1-7-5.5 1.5-5.5 1.5 6 2 6 2"/><path d="m285 486l-3-9-4 3-4 3 2.5 3 2.5 3 3-1.5 3-1.5"/></g><path d="m285 119l1-3v-2-2l-.5-2-.5-2v-2-2l-1.5-1-1.5-1-1.5-.5-1.5-.5-2-.5-2-.5h-2-2-2-2l-1.5.5-1.5.5-2 .5-2 .5-2.5-.5-2.5-.5-5.5 10.5-5.5 10.5 3 8 3 8 5-3 5-3 1-1 1-1 3.5.5 3.5.5 5.5 3 5.5 3 2.5-9 2.5-9" style="fill:#56748b;stroke:#56748b"/><path d="m284 527l-5-3-5-2-5-2-2.5-5-2.5-5-4-2-4-2 2-2 2-2-3-5-3-5-.5 4.5-.5 4.5 3 5.5 3 5.5 2.5 3.5 2.5 3.5 3 5 3 5 4.5 1.5 4.5 1.5 2.5-2.5 2.5-2.5" style="fill:#a39685;stroke:#a39685"/><path d="m280 129l-2-22-9.5-.5-9.5-.5-5.5 6-5.5 6 2.5 7.5 2.5 7.5 1.5-8.5 1.5-8.5 8 2 8 2-2 4-2 4 6 1.5 6 1.5v-1-1" style="fill:#5c91bb;stroke:#5c91bb"/><path d="m271 489v-2h-1-1l-2-.5-2-.5-1 1-1 1-.5 1-.5 1 .5 1.5.5 1.5 2 .5 2 .5h1 1l1-1 1-1-.5-1-.5-1 .5-.5.5-.5" style="fill:#a39685;stroke:#a39685"/><path d="m268 253l-8-8 1 3 1 3-1.5 3-1.5 3 4.5-2 4.5-2" style="fill:#6f6555;stroke:#6f6555"/><path d="m265 228v-2h-1-1l-1.5-1-1.5-1-1.5-.5-1.5-.5-1-1.5-1-1.5v-1-1l-1-.5-1-.5-1-1-1-1h-.5-.5l-1 .5-1 .5h-1-1l-1 .5-1 .5-1 1-1 1h-1.5-1.5l-.5-.5-.5-.5-2.5.5-2.5.5v1.5 1.5l1.5-.5 1.5-.5.5.5.5.5-1 1.5-1 1.5h1.5 1.5l1-1 1-1 2 .5 2 .5 1.5.5 1.5.5 1.5-1 1.5-1 1.5.5 1.5.5 2 .5 2 .5 1.5.5 1.5.5 1 1 1 1h1.5 1.5" style="fill:#c8baa5;stroke:#c8baa5"/><path d="m265 99v-2l-.5-.5-.5-.5h-1-1l-.5-.5-.5-.5h-1.5-1.5l-.5-.5-.5-.5-.5.5-.5.5-.5.5-.5.5h-1.5-1.5l-1-.5-1-.5 1 2 1 2 .5.5.5.5 1 .5 1 .5 2.5.5 2.5.5 2-.5 2-.5.5-1 .5-1" style="fill:#78b0ce;stroke:#78b0ce"/><g style="fill:#a39685;stroke:#a39685"><path d="m264 535l-6-13-1.5-5.5-1.5-5.5-.5 5.5-.5 5.5-6-2.5-6-2.5 5 5 5 5 2 4.5 2 4.5h2 2 2 2v-.5-.5"/><path d="m259 444v-2h-1-1l-1.5 1-1.5 1-1 1-1 1 .5 2 .5 2 1 1 1 1 1-1.5 1-1.5 1-1 1-1v-1-1-.5-.5"/></g><path d="m259 240v-2l-1.5.5-1.5.5-1 .5-1 .5-1.5-.5-1.5-.5-1.5 1-1.5 1 1 1 1 1 2-.5 2-.5 1 1 1 1 1-1 1-1 .5-1 .5-1" style="fill:#83786a;stroke:#83786a"/><g style="fill:#c8baa5;stroke:#c8baa5"><path d="m253 206h1l-1-1-1-1h-.5-.5-1.5-1.5-2-2l-1-1-1-1h-2.5-2.5v1 1l1 .5 1 .5h1 1l1.5.5 1.5.5h.5.5l1 .5 1 .5h2 2l1-.5 1-.5"/><path d="m252 261l1-3-1-1-1-1-1.5 1-1.5 1-1 1-1 1 .5 1 .5 1-.5 1.5-.5 1.5 2-.5 2-.5 1-1 1-1v-.5-.5"/></g><path d="m251 204h1l-.5-1-.5-1-1.5-1-1.5-1-1-1-1-1-1-.5-1-.5-.5-1-.5-1-2-1-2-1-1.5-1-1.5-1-1.5-.5-1.5-.5-1-.5-1-.5-.5-.5-.5-.5h-2-2l-1-.5-1-.5-1-1-1-1-.5.5-.5.5-1-.5-1-.5-2 .5-2 .5 1 1.5 1 1.5 1 1 1 1 2 .5 2 .5 1 1 1 1 2.5 3 2.5 3 9 2 9 2h1.5 1.5" style="fill:#9a9da4;stroke:#9a9da4"/><path d="m250 517l-4-22-3 1-3 1 1 4 1 4v6 6l1-1 1-1h1 1l.5-.5.5-.5v1 1l1.5.5 1.5.5" style="fill:#a39685;stroke:#a39685"/><path d="m250 300v-2l-1.5-.5-1.5-.5-2 .5-2 .5-1.5.5-1.5.5 1 1.5 1 1.5 1.5.5 1.5.5 2 .5 2 .5.5-1.5.5-1.5v-.5-.5" style="fill:#83786a;stroke:#83786a"/><path d="m250 215h1l-1-.5-1-.5-1-1-1-1-1 .5-1 .5.5.5.5.5-2-.5-2-.5-1 1-1 1 1 1.5 1 1.5v.5.5l1-1 1-1 1-.5 1-.5h1 1l1-.5 1-.5" style="fill:#9a9da4;stroke:#9a9da4"/><path d="m249 453l-7 1-7 1-7 1v1.5 1.5l2 1 2 1 3 1 3 1 2.5-2.5 2.5-2.5 3-2.5 3-2.5" style="fill:#a39685;stroke:#a39685"/><path d="m248 2v-2h-2-2-2-2l-.5.5-.5.5-1 .5-1 .5-1.5.5-1.5.5-2 .5-2 .5-1.5.5-1.5.5-1 1-1 1-2 1-2 1-.5.5-.5.5-1.5.5-1.5.5-.5.5-.5.5-.5.5-.5.5-.5 1-.5 1v.5.5l-1.5.5-1.5.5-.5.5-.5.5-.5.5-.5.5-.5.5-.5.5-1 .5-1 .5-.5.5-.5.5h-1-1l-.5.5-.5.5-.5.5-.5.5v1 1l-.5-1.5-.5-1.5-1 1.5-1 1.5-1 .5-1 .5h-.5-.5l-1 .5-1 .5-1 1-1 1-.5 1-.5 1-1.5.5-1.5.5-1 1.5-1 1.5-.5 1.5-.5 1.5-1.5.5-1.5.5-.5.5-.5.5-1 .5-1 .5-1 1-1 1-1 1-1 1h-.5-.5l-1 1-1 1-1 .5-1 .5h-1-1l-.5.5-.5.5-.5.5-.5.5-.5.5-.5.5-.5 1-.5 1v1 1l-.5.5-.5.5-.5.5-.5.5-1 1-1 1v.5.5l1-1 1-1 .5-.5.5-.5.5-.5.5-.5 1-.5 1-.5.5-.5.5-.5v-1-1l.5-.5.5-.5 1-.5 1-.5.5-.5.5-.5.5-.5.5-.5.5-.5.5-.5.5.5.5.5-6 6.5-6 6.5-7 7-7 7-1 .5-1 .5-.5 1.5-.5 1.5-1 1-1 1-.5.5-.5.5-.5 1-.5 1-.5 1-.5 1 .5.5.5.5-.5 1-.5 1-.5 1.5-.5 1.5-1 1.5-1 1.5-1 1-1 1-.5 2-.5 2-1 1-1 1-.5 2-.5 2-1 1-1 1-.5 1.5-.5 1.5-.5 2-.5 2-.5-1-.5-1-8 1.5-8 1.5-10-1.5-10-1.5-10.5-.5-10.5-.5-9.5-.5-9.5-.5-8-3.5-8-3.5-.5.5-.5.5h-.5-.5l1 .5 1 .5h1 1l.5.5.5.5 1 .5 1 .5h1 1 1 1l.5.5.5.5 1 .5 1 .5 1 1 1 1 .5.5.5.5.5.5.5.5h1 1 1.5 1.5 1 1 1 1 1 1 1.5 1.5 1 1 2 2 2.5 2.5l11 1 11 1 13.5 2 13.5 2-1 .5-1 .5v1 1l-.5.5-.5.5v1 1l-.5 1-.5 1-.5.5-.5.5v1.5 1.5l.5 1.5.5 1.5-.5 1.5-.5 1.5v2 2l3.5-9.5 3.5-9.5 3.5-7.5 3.5-7.5 4-7 4-7 4.5-6.5 4.5-6.5 5-6.5 5-6.5 5-6 5-6 5.5-5.5 5.5-5.5 6-5 6-5 6-5 6-5 7-4.5 7-4.5 7-4 7-4 8-4 8-4" style="fill:#415366;stroke:#415366"/><path d="m243 207l1-1-1.5-.5-1.5-.5h-1-1l-1-.5-1-.5v-1-1l-1 .5-1 .5-2-.5-2-.5-1 1-1 1 1 1 1 1 1.5.5 1.5.5 1.5-.5 1.5-.5 3 .5 3 .5" style="fill:#9a9da4;stroke:#9a9da4"/><path d="m242 279l-5-5-4.5 3.5-4.5 3.5h6.5 6.5l.5-1 .5-1" style="fill:#6f6555;stroke:#6f6555"/><g style="fill:#a39685;stroke:#a39685"><path d="m240 510l-2 2-1 2-1 2 2-3 2-3"/><path d="m240 443l-1-1-.5-1.5-.5-1.5h-2.5-2.5v2 2l-1.5 1-1.5 1 1 1 1 1 1-1.5 1-1.5 1-1 1-1 .5 1.5.5 1.5 1.5-1 1.5-1"/><path d="m239 529l1-3-1-1-1-1-1-1.5-1-1.5h-1-1l-1 1.5-1 1.5-1.5-.5-1.5-.5-.5 1-.5 1 1.5.5 1.5.5 1 1 1 1 2 .5 2 .5h1 1"/></g><path d="m239 1l1-1h-12-12-11-11-11.5-11.5-11-11-11-11-11-11-2.5-2.5l8.5 3 8.5 3 10.5 1 10.5 1 7 4 7 4 8.5-1.5 8.5-1.5 8.5-.5 8.5-.5 17.5-1.5 17.5-1.5 2-1 2-1 1-1 1-1 1.5-.5 1.5-.5 2-.5 2-.5 1.5-.5 1.5-.5 1-.5 1-.5" style="fill:#f6f9f3;stroke:#f6f9f3"/><path d="m237 222l-1-1-1.5.5-1.5.5v-1.5-1.5l2.5-.5 2.5-.5h-1.5-1.5l-.5-.5-.5-.5 2-.5 2-.5-1-1-1-1h-1-1l-2 .5-2 .5.5 1.5.5 1.5-1 1.5-1 1.5 1.5.5 1.5.5 1 1.5 1 1.5h.5.5l1-1.5 1-1.5" style="fill:#9a9da4;stroke:#9a9da4"/><path d="m231 536h1l-1-1-1-1-.5-.5-.5-.5v-1.5-1.5l-1-1-1-1-1.5 1-1.5 1-.5 1.5-.5 1.5-1.5 1-1.5 1-1-1-1-1-1 .5-1 .5h-1-1l-.5 1-.5 1h2 2 2.5 2.5 2 2 2.5 2.5" style="fill:#a39685;stroke:#a39685"/><path d="m228 204h1v-1.5-1.5h-1-1l-.5.5-.5.5h-1-1l-1-1-1-1-.5 1-.5 1-.5.5-.5.5 1 1 1 1 1 .5 1 .5.5-.5.5-.5 1.5-.5 1.5-.5" style="fill:#9a9da4;stroke:#9a9da4"/><g style="fill:#a39685;stroke:#a39685"><path d="m227 447l-4-12 .5 5.5.5 5.5 1.5.5 1.5.5"/><path d="m226 417v-2h-2-2-1.5-1.5l-1.5-.5-1.5-.5 1 1.5 1 1.5 1.5.5 1.5.5 1 1.5 1 1.5 1-1 1-1 .5-1 .5-1"/></g><path d="m226 300l1-3-1-1-1-1-2 .5-2 .5-1.5.5-1.5.5 1 1.5 1 1.5 1.5.5 1.5.5 1.5-.5 1.5-.5" style="fill:#83786a;stroke:#83786a"/><path d="m226 240l-12-8 2 5 2 5 4-1 4-1" style="fill:#a39685;stroke:#a39685"/><path d="m226 199v-2l-.5-1.5-.5-1.5-2 .5-2 .5-1.5-.5-1.5-.5-2 .5-2 .5 1.5.5 1.5.5 2 .5 2 .5 1 1 1 1h1.5 1.5" style="fill:#9a9da4;stroke:#9a9da4"/><path d="m224 219l-1-1-1-1-1-1-1-1.5-1-1.5-1.5-.5-1.5-.5-1-1.5-1-1.5h-1-1l-2 .5-2 .5v1 1l1.5 1.5 1.5 1.5-.5 1-.5 1h-2-2l1.5 1 1.5 1h2 2l1.5 1 1.5 1 1.5-.5 1.5-.5h2.5 2.5v-.5-.5" style="fill:#c8baa5;stroke:#c8baa5"/><path d="m221 186l1-1-2-1-2-1-1.5-1-1.5-1h-2-2l-1 .5-1 .5-1 1-1 1-2 .5-2 .5-1.5-.5-1.5-.5-1 1.5-1 1.5 1 .5 1 .5h2 2l1 .5 1 .5 1-.5 1-.5 1-1 1-1 1-.5 1-.5 1.5.5 1.5.5 2-.5 2-.5 1 .5 1 .5" style="fill:#b8c2c8;stroke:#b8c2c8"/><g style="fill:#a39685;stroke:#a39685"><path d="m220 453l-11-13 3 6 3 6 2.5.5 2.5.5"/><path d="m220 424l-13 1 1.5 1.5 1.5 1.5 4.5-2 4.5-2h.5.5"/></g><path d="m220 10l1-1-17.5 1.5-17.5 1.5-8.5.5-8.5.5-8.5 1.5-8.5 1.5-7-4-7-4-10.5-1-10.5-1-8.5-3-8.5-3h-1.5-1.5-2.5-2.5-2-2-2.5-2.5-2-2-2-2-2.5-2.5-2-2l9.5 2 9.5 2 13 5.5 13 5.5-4 .5-4 .5-8.5-2.5-8.5-2.5h-9-9l-.5 3-.5 3 6.5.5 6.5.5 1.5 3.5 1.5 3.5h-6-6-7-7l-8-1.5-8-1.5-9.5.5-9.5.5-11-1.5-11-1.5v1.5 1.5 2 2 1 1l10-1 10-1 8.5-.5 8.5-.5 9.5 1.5 9.5 1.5h9 9l10.5-1 10.5-1 3-3 3-3 7.5 3.5 7.5 3.5h8 8l-2-4-2-4 3-2.5 3-2.5 4 4 4 4 7 4 7 4 6.5.5 6.5.5 2.5 7 2.5 7 1-1 1-1 1-1 1-1 1-.5 1-.5.5-.5.5-.5 1.5-.5 1.5-.5.5-1.5.5-1.5 1-1.5 1-1.5 1.5-.5 1.5-.5.5-1 .5-1-2-.5-2-.5-1-1-1-1 .5-1 .5-1 1.5-.5 1.5-.5 2-.5 2-.5 1.5.5 1.5.5v1.5 1.5l1-.5 1-.5 1-1.5 1-1.5.5-1 .5-1 1-1 1-1 1.5-.5 1.5-.5 1.5-1 1.5-1 2.5-.5 2.5-.5.5-1 .5-1 .5-.5.5-.5.5-.5.5-.5 1.5-.5 1.5-.5" style="fill:#ccdfeb;stroke:#ccdfeb"/><g style="fill:#a39685;stroke:#a39685"><path d="m218 516v-2l-1.5-.5-1.5-.5-1.5-1-1.5-1-1.5.5-1.5.5-.5 2-.5 2 1-1 1-1 1.5 1 1.5 1h1 1l1.5.5 1.5.5v-.5-.5"/><path d="m215 472l-11-9-5 1-5 1 5.5 3 5.5 3 5 .5 5 .5"/></g><path d="m215 247l-12-6 .5 4.5.5 4.5 5.5-2 5.5-2v.5.5" style="fill:#6f6555;stroke:#6f6555"/><path d="m214 16v-1l-2.5.5-2.5.5-1.5 1-1.5 1-1.5.5-1.5.5-1 1-1 1-.5 1-.5 1 .5 1.5.5 1.5v-1-1l.5-.5.5-.5.5-.5.5-.5h1 1l.5-.5.5-.5 1-.5 1-.5.5-.5.5-.5.5-.5.5-.5.5-.5.5-.5 1.5-.5 1.5-.5" style="fill:#95bfd4;stroke:#95bfd4"/><path d="m212 304l-1-1-1.5-.5-1.5-.5-1-1.5-1-1.5-1.5.5-1.5.5-2 .5-2 .5-1.5-.5-1.5-.5-1 1.5-1 1.5h2 2l-.5.5-.5.5h-2.5-2.5-2-2l1 .5 1 .5h1 1 1 1 1 1 1 1 2 2l-.5-1-.5-1h1 1l1.5.5 1.5.5h1.5 1.5 1.5 1.5" style="fill:#c8baa5;stroke:#c8baa5"/><path d="m209 203v-2l-1.5-.5-1.5-.5-1-1.5-1-1.5h-1-1l-7 3-7 3 7.5-1 7.5-1 2.5 5.5 2.5 5.5v-1-1l-.5-1.5-.5-1.5 1-1.5 1-1.5v-.5-.5" style="fill:#9a9da4;stroke:#9a9da4"/><path d="m207 196v-2l-1.5.5-1.5.5-2-.5-2-.5-1.5-.5-1.5-.5-1 1.5-1 1.5.5.5.5.5 2-.5 2-.5 1 .5 1 .5h1 1l1-.5 1-.5h.5.5" style="fill:#c8baa5;stroke:#c8baa5"/><path d="m205 189h1l-1-.5-1-.5h-2-2l-1-.5-1-.5-1.5.5-1.5.5-.5.5-.5.5h-1-1l-.5 1-.5 1h-1-1l-.5.5-.5.5h-1-1l-1 .5-1 .5-.5.5-.5.5h-1-1-1-1l-.5.5-.5.5-1 .5-1 .5h-1-1-1-1l-1 1.5-1 1.5-.5 1-.5 1 7 1.5 7 1.5 4-3.5 4-3.5 7-4 7-4" style="fill:#9a9da4;stroke:#9a9da4"/><path d="m201 527v-2l-1.5-.5-1.5-.5-2-.5-2-.5-1 1-1 1 .5 1 .5 1 1.5.5 1.5.5 1-.5 1-.5h1.5 1.5" style="fill:#6f6555;stroke:#6f6555"/><path d="m200 535h-1l-1-1-1-1-1.5-1-1.5-1-1-1-1-1v2 2 1.5 1.5h3 3 1 1v-.5-.5" style="fill:#a39685;stroke:#a39685"/><path d="m200 252l-9-5 3.5 3.5 3.5 3.5 1-1 1-1" style="fill:#6f6555;stroke:#6f6555"/><path d="m197 487v-2-1-1-1.5-1.5l-1-1-1-1-1.5 1-1.5 1-1-1-1-1v1.5 1.5l.5 1.5.5 1.5v2 2h2.5 2.5l.5-.5.5-.5" style="fill:#a39685;stroke:#a39685"/><path d="m196 214l-1-1-1.5-.5-1.5-.5-.5 1-.5 1-.5.5-.5.5-.5-.5-.5-.5h-2-2-.5-.5v1 1l2.5 1 2.5 1 1.5-.5 1.5-.5 1.5-.5 1.5-.5.5-1 .5-1" style="fill:#c8baa5;stroke:#c8baa5"/><path d="m195 27h1v-1.5-1.5l-1.5-.5-1.5-.5-2 .5-2 .5-1.5.5-1.5.5-.5 1-.5 1 1 1 1 1 2 .5 2 .5 1-1 1-1 1-.5 1-.5" style="fill:#f6f9f3;stroke:#f6f9f3"/><path d="m189 511l1-3-1.5-.5-1.5-.5h-1.5-1.5l-1-1-1-1-2 .5-2 .5v1 1h2.5 2.5l1.5.5 1.5.5 1 1 1 1h.5.5" style="fill:#6f6555;stroke:#6f6555"/><path d="m188 296l1-3-.5-.5-.5-.5h-1-1l-1-.5-1-.5h-1-1-1-1l-.5-.5-.5-.5-.5.5-.5.5v1.5 1.5l1 1 1 1 1.5 1 1.5 1 1.5-.5 1.5-.5 1-.5 1-.5" style="fill:#83786a;stroke:#83786a"/><path d="m184 214h1l-1-.5-1-.5-.5.5-.5.5h-1-1l-1 .5-1 .5h-1-1l-.5.5-.5.5-.5.5-.5.5-1.5.5-1.5.5h1.5 1.5l1 .5 1 .5 1-1 1-1h2 2l1-.5 1-.5v-1-1" style="fill:#9a9da4;stroke:#9a9da4"/><g style="fill:#a39685;stroke:#a39685"><path d="m181 504l-6-10 2 4 2 4 1 1 1 1"/><path d="m181 489l-8-8-2 1-2 1h4.5 4.5l1.5 3 1.5 3"/></g><path d="m180 165l1-2-5.5 10.5-5.5 10.5-2.5 8.5-2.5 8.5-2 10-2 10 .5-1 .5-1v-1-1l.5-.5.5-.5v-1-1l.5-1 .5-1 .5-1.5.5-1.5 1-1.5 1-1.5.5-2 .5-2 .5-.5.5-.5.5-1 .5-1 1-1.5 1-1.5v-1-1l-1-1.5-1-1.5 1-1 1-1v-1.5-1.5l.5-.5.5-.5.5-1.5.5-1.5.5-1 .5-1 .5-.5.5-.5v-1.5-1.5l.5-2.5.5-2.5 1-1.5 1-1.5.5-1.5.5-1.5" style="fill:#415366;stroke:#415366"/><g style="fill:#a39685;stroke:#a39685"><path d="m178 459l-12-2-1.5 4.5-1.5 4.5 6-2.5 6-2.5 1.5-1 1.5-1"/><path d="m177 405l1-3-1-1-1-1h-1.5-1.5-1-1l-1.5 1-1.5 1-.5.5-.5.5 1 .5 1 .5 1 1 1 1 1.5.5 1.5.5 1.5-1 1.5-1"/><path d="m175 530l1-3-1-1-1-1-1-1.5-1-1.5-1 1-1 1h-1.5-1.5l-1.5.5-1.5.5 1 1.5 1 1.5h2 2l1 1 1 1h1.5 1.5"/></g><path d="m173 49l-1-1-.5.5-.5.5-.5.5-.5.5-.5.5-.5.5-1 .5-1 .5-.5.5-.5.5v1 1l-.5.5-.5.5-1 .5-1 .5-.5.5-.5.5-.5.5-.5.5-1 1-1 1-.5.5-.5.5-.5 1-.5 1-1 1-1 1-1 1.5-1 1.5-1 1-1 1-1 1.5-1 1.5-1 1-1 1 7-7 7-7 6-6.5 6-6.5" style="fill:#b8c2c8;stroke:#b8c2c8"/><path d="m173 46h1l-2.5-7-2.5-7-6.5-.5-6.5-.5-7-4-7-4-4-4-4-4-3 2.5-3 2.5 2 4 2 4h-8-8l-7.5-3.5-7.5-3.5-3 3-3 3-10.5 1-10.5 1h-9-9l-9.5-1.5-9.5-1.5-8.5.5-8.5.5-10 1-10 1v1.5 1.5 2 2 2.5 2.5 2 2 1 1l10 1 10 1 7.5-3 7.5-3 9 2 9 2 7.5-3.5 7.5-3.5 6.5-3.5 6.5-3.5 6 5 6 5 7.5 2 7.5 2 10.5.5 10.5.5 3.5 5.5 3.5 5.5 11.5.5 11.5.5 1-1 1-1 .5-.5.5-.5.5-.5.5-.5v-1-1l.5-1 .5-1 .5-.5.5-.5.5-.5.5-.5.5-.5.5-.5h1 1l1-.5 1-.5 1-1 1-1" style="fill:#f6f9f3;stroke:#f6f9f3"/><g style="fill:#a39685;stroke:#a39685"><path d="m171 372h-14l.5 1.5.5 1.5 6.5-1.5 6.5-1.5"/><path d="m164 409l-13-5 1.5 4.5 1.5 4.5 3-3.5 3-3.5 2 1.5 2 1.5"/><path d="m160 385l1-3-1-1-1-1-1 1.5-1 1.5-1.5.5-1.5.5-.5 1-.5 1 1.5.5 1.5.5 2-.5 2-.5v-.5-.5"/></g><path d="m159 21v-2h-1-1l-1 1.5-1 1.5-.5 1.5-.5 1.5 1.5 1 1.5 1 .5-1.5.5-1.5.5-1.5.5-1.5" style="fill:#f6f9f3;stroke:#f6f9f3"/><path d="m158 62l1-1v-.5-.5l-11.5-.5-11.5-.5-3.5-5.5-3.5-5.5-10.5-.5-10.5-.5-7.5-2-7.5-2-6-5-6-5-6.5 3.5-6.5 3.5-7.5 3.5-7.5 3.5-9-2-9-2-7.5 3-7.5 3-10-1-10-1v3.5 3.5 2 2 1.5 1.5l8.5 2 8.5 2 7.5-.5 7.5-.5 8.5 1 8.5 1-7-3-7-3 8-1 8-1 11 2.5 11 2.5-4.5 5-4.5 5-2.5 7.5-2.5 7.5-8.5 1.5-8.5 1.5-3-3.5-3-3.5-6-4-6-4-7.5 1.5-7.5 1.5-4.5 4-4.5 4v2 2 2 2 2.5 2.5 1.5 1.5h.5.5 1 1 2 2 2.5 2.5l1.5.5 1.5.5h2.5 2.5l1.5.5 1.5.5h2.5 2.5l2.5.5 2.5.5 8 3.5 8 3.5 9.5.5 9.5.5 10.5.5 10.5.5 10 1.5 10 1.5 8-1.5 8-1.5.5-2 .5-2 .5-.5.5-.5.5-1 .5-1 .5-1.5.5-1.5 1-1.5 1-1.5.5-1.5.5-1.5.5-1.5.5-1.5.5-.5.5-.5.5-1 .5-1 1-1 1-1v-1-1l1-1 1-1 .5-1 .5-1 .5-1 .5-1 .5-.5.5-.5 1-1 1-1 .5-1.5.5-1.5-5.5-2-5.5-2h-8-8l4-4 4-4 11.5 2 11.5 2h-.5-.5-1-1l-1 .5-1 .5 1.5.5 1.5.5-.5 1.5-.5 1.5-.5 1.5-.5 1.5 1-.5 1-.5 1-1 1-1 1-1.5 1-1.5 1-1 1-1 1-1.5 1-1.5 1-1 1-1 .5-1 .5-1" style="fill:#ccdfeb;stroke:#ccdfeb"/><path d="m154 516v-2l-1.5-.5-1.5-.5-1.5-1-1.5-1-.5-1.5-.5-1.5-2 .5-2 .5.5 1.5.5 1.5 2 .5 2 .5 1 1 1 1 .5.5.5.5h1.5 1.5" style="fill:#6f6555;stroke:#6f6555"/><g style="fill:#a39685;stroke:#a39685"><path d="m153 497l-14-6-.5-.5-.5-.5.5 3 .5 3 6.5 1.5 6.5 1.5.5-1 .5-1"/><path d="m149 457l1-3-1-1-1-1-1 1.5-1 1.5-1 1-1 1-1 1.5-1 1.5 1.5.5 1.5.5 1.5-1 1.5-1 .5-1 .5-1"/></g><path d="m149 69l-23-4-4 4-4 4h8 8l5.5 2 5.5 2 .5-1.5.5-1.5.5-1.5.5-1.5-1.5-.5-1.5-.5 1-.5 1-.5h1 1 .5.5" style="fill:#f6f9f3;stroke:#f6f9f3"/><g style="fill:#a39685;stroke:#a39685"><path d="m146 403v-2l-1.5-.5-1.5-.5-1-.5-1-.5-1-1-1-1-1 1.5-1 1.5 1 1 1 1 1.5 1 1.5 1 1.5.5 1.5.5.5-1 .5-1"/><path d="m144 521l1-3-1-1-1-1-1-1.5-1-1.5h-1-1l-.5 2-.5 2-.5 1.5-.5 1.5 1 1.5 1 1.5 1-1 1-1h1.5 1.5"/><path d="m141 421l1-3-.5-1.5-.5-1.5-2 .5-2 .5-1.5.5-1.5.5 1 1.5 1 1.5 1.5.5 1.5.5h1 1"/></g><path d="m140 88l-1-1-1 1-1 1v1 1l-1 1-1 1-.5 1-.5 1-.5.5-.5.5-.5 1.5-.5 1.5-.5 1.5-.5 1.5-1 1.5-1 1.5-.5 1.5-.5 1.5-.5 1-.5 1-.5.5-.5.5-.5 2-.5 2 .5 1 .5 1 .5-2 .5-2 .5-1.5.5-1.5 1-1 1-1 .5-2 .5-2 1-1 1-1 .5-2 .5-2 1-1 1-1 1-1.5 1-1.5.5-1.5.5-1.5.5-1 .5-1" style="fill:#95bfd4;stroke:#95bfd4"/><g style="fill:#a39685;stroke:#a39685"><path d="m131 477l-7-9 2.5 4.5 2.5 4.5h1 1"/><path d="m128 439v-2l-1.5.5-1.5.5-1.5-1-1.5-1-1.5.5-1.5.5-1.5 1-1.5 1-1 1-1 1 1 .5 1 .5 1.5-.5 1.5-.5 1-1 1-1h2.5 2.5 1 1"/></g><path d="m123 122l-27-4-11-1-11-1-1.5.5-1.5.5v2.5 2.5l.5 1.5.5 1.5 1 1.5 1 1.5h2 2l.5.5.5.5h-2-2l-1 1-1 1 .5 1.5.5 1.5 1 1 1 1 1 .5 1 .5 1.5.5 1.5.5h1 1l.5.5.5.5-.5.5-.5.5 1 .5 1 .5.5.5.5.5h1 1 1 1l.5 1 .5 1 1.5.5 1.5.5 1 .5 1 .5h1.5 1.5l-.5-1-.5-1h-1.5-1.5l-.5-.5-.5-.5.5-.5.5-.5h1 1l.5-.5.5-.5.5-.5.5-.5h1.5 1.5l.5.5.5.5h1 1 1 1l.5-1 .5-1 .5-.5.5-.5.5.5.5.5.5.5.5.5 1 1.5 1 1.5 1-1 1-1 .5-.5.5-.5v-1-1l.5-1 .5-1 .5-1 .5-1v-1.5-1.5l.5-.5.5-.5.5-1 .5-1v-1-1l.5-.5.5-.5v-1-1l1-.5 1-.5" style="fill:#7d8fa8;stroke:#7d8fa8"/><path d="m119 463l-3-9-5 3-5 3-1.5 4-1.5 4 6.5-.5 6.5-.5 1.5-2 1.5-2" style="fill:#a39685;stroke:#a39685"/><path d="m117 138l1-4-.5 1-.5 1-.5 1-.5 1v1 1l-.5.5-.5.5-1 1-1 1 .5 1 .5 1-.5 1-.5 1v.5.5l-.5 2.5-.5 2.5v1.5 1.5l-.5 1-.5 1 .5 2.5.5 2.5.5-1.5.5-1.5v-1.5-1.5-1-1l.5-.5.5-.5v-1-1-1-1l.5-1 .5-1 .5-.5.5-.5v-1-1-1-1l.5-1 .5-1v-1.5-1.5" style="fill:#83786a;stroke:#83786a"/><path d="m113 147l1-2-.5-1-.5-1-1-1.5-1-1.5-.5-.5-.5-.5-.5-.5-.5-.5-.5.5-.5.5-.5 1-.5 1h-1-1-1-1l-.5-.5-.5-.5h-1.5-1.5l-.5.5-.5.5-.5.5-.5.5h-1-1l-.5.5-.5.5.5.5.5.5h1.5 1.5l.5 1 .5 1 1 .5 1 .5h1.5 1.5l.5.5.5.5 1 1 1 1h1.5 1.5 1 1l.5-1 .5-1v-.5-.5" style="fill:#9a9da4;stroke:#9a9da4"/><g style="fill:#a39685;stroke:#a39685"><path d="m112 153l1-5-.5 1-.5 1h-1-1-1.5-1.5l-.5.5-.5.5-2.5-.5-2.5-.5-1.5-1-1.5-1-1.5.5-1.5.5-1.5-.5-1.5-.5-1-2-1-2-1 1-1 1 .5 1.5.5 1.5.5.5.5.5 1.5 1 1.5 1 1 1 1 1 1 1.5 1 1.5 1.5-.5 1.5-.5 1 1 1 1 1-.5 1-.5 1 1 1 1 2 .5 2 .5-.5 1.5-.5 1.5-2 .5-2 .5-1.5.5-1.5.5-1.5-.5-1.5-.5h-1-1l-1 .5-1 .5h-2-2-2.5-2.5-2-2l-2 .5-2 .5h-1.5-1.5l-.5 2-.5 2 .5 1.5.5 1.5v2.5 2.5 2 2 2.5 2.5l.5 1.5.5 1.5v1 1l-.5 1.5-.5 1.5.5 2.5.5 2.5v2 2 2.5 2.5l3.5 3.5 3.5 3.5h7.5 7.5l3 7 3 7-.5 1.5-.5 1.5.5 6 .5 6-.5 1.5-.5 1.5v1 1l-9.5 1.5-9.5 1.5-6.5-1.5-6.5-1.5 4 7 4 7v.5.5l1 .5 1 .5 1.5.5 1.5.5 2 1.5 2 1.5.5 1 .5 1-1 .5-1 .5-1 .5-1 .5h-2-2l-.5-.5-.5-.5-1 .5-1 .5-.5-.5-.5-.5-2 .5-2 .5h-2-2-3.5-3.5l-2.5-.5-2.5-.5h-1-1v-1-1l-.5-2-.5-2-1.5-.5-1.5-.5-2-.5-2-.5-1.5-1-1.5-1 .5 1 .5 1-.5.5-.5.5-1 .5-1 .5h1 1l-.5 1-.5 1 1 1 1 1 1 .5 1 .5-.5 1-.5 1h-1.5-1.5l-.5.5-.5.5-1.5.5-1.5.5-1.5-.5-1.5-.5h-2-2-1.5-1.5l-2.5-.5-2.5-.5h-2-2l-.5 1-.5 1h-1-1v-.5-.5l.5-.5.5-.5-.5-.5-.5-.5-.5-1-.5-1v-1.5-1.5l-1-.5-1-.5h-2-2-2-2l-1 1.5-1 1.5 1 1 1 1 2 .5 2 .5 1.5.5 1.5.5.5.5.5.5-2 .5-2 .5h-2.5-2.5-2-2l1-1 1-1-.5-1-.5-1-1-.5-1-.5v3 3 .5.5l13.5-.5 13.5-.5 8.5-.5 8.5-.5 8.5-.5 8.5-.5 9.5.5 9.5.5 8.5-.5 8.5-.5 5-5.5 5-5.5-1-11-1-11 1-10 1-10-1-7-1-7-2.5-6-2.5-6-.5-1.5-.5-1.5 3-6 3-6 3.5-9 3.5-9-.5-2.5-.5-2.5.5-1 .5-1v-1.5-1.5"/><path d="m111 476l-17 1 3.5 1.5 3.5 1.5 1.5-2 1.5-2h3.5 3.5"/></g><path d="m111 165l1-2-3.5 9-3.5 9-3 6-3 6 .5 1.5.5 1.5 2.5 6 2.5 6 1 7 1 7v-8.5-8.5l.5-8.5.5-8.5 1.5-11.5 1.5-11.5" style="fill:#83786a;stroke:#83786a"/><path d="m111 15l-26-11-9.5-2-9.5-2h-3.5-3.5-1.5-1.5l-.5 1-.5 1-.5 1-.5 1h-2-2l-1.5-.5-1.5-.5-.5 1-.5 1-1 1-1 1-2-.5-2-.5-1-1-1-1-.5-2-.5-2h-13-13-5.5-5.5v5.5 5.5 4.5 4.5l11 1.5 11 1.5 9.5-.5 9.5-.5 8 1.5 8 1.5h7 7 6 6l-1.5-3.5-1.5-3.5-6.5-.5-6.5-.5.5-3 .5-3h9 9l8.5 2.5 8.5 2.5 4-.5 4-.5" style="fill:#95bfd4;stroke:#95bfd4"/><path d="m109 163l1-3-2-.5-2-.5-1-1-1-1-1 .5-1 .5-1-1-1-1-1.5.5-1.5.5-1-1.5-1-1.5-1-1-1-1-1.5-1-1.5-1-.5-.5-.5-.5-.5-1.5-.5-1.5-2-.5-2-.5-.5-1.5-.5-1.5-1-1-1-1h-2.5-2.5l.5 1 .5 1 1 1 1 1 .5 1.5.5 1.5 1.5 1 1.5 1 1 1 1 1 1.5 1 1.5 1 1.5.5 1.5.5 1.5 1 1.5 1 1 1 1 1 .5.5.5.5h-2.5-2.5l-1.5.5-1.5.5h-2.5-2.5-2-2l-2-.5-2-.5-1-.5-1-.5.5 1 .5 1 1 .5 1 .5.5 1 .5 1-1 .5-1 .5-1-.5-1-.5.5 1.5.5 1.5h1.5 1.5l2-.5 2-.5h2 2 2.5 2.5 2 2l1-.5 1-.5h1 1l1.5.5 1.5.5 1.5-.5 1.5-.5 2-.5 2-.5" style="fill:#c8baa5;stroke:#c8baa5"/><path d="m106 513v-2l-1-1-1-1-.5 1-.5 1-1.5.5-1.5.5-.5 2-.5 2 1.5.5 1.5.5 1-1.5 1-1.5 1-.5 1-.5" style="fill:#a39685;stroke:#a39685"/><path d="m106 151l1-1-1-1-1-1-.5-.5-.5-.5h-1.5-1.5l-1-.5-1-.5h-1.5-1.5l-1-.5-1-.5-1.5-.5-1.5-.5h-.5-.5l1 2 1 2 1.5.5 1.5.5 1.5-.5 1.5-.5 1.5 1 1.5 1 2.5.5 2.5.5" style="fill:#83786a;stroke:#83786a"/><g style="fill:#c8baa5;stroke:#c8baa5"><path d="m105 272l1-3v-2-2l-.5-2-.5-2h-.5-.5l-.5 1.5-.5 1.5v.5.5l-1 .5-1 .5-1.5.5-1.5.5 2 .5 2 .5 1 1 1 1-.5 1.5-.5 1.5 1-.5 1-.5"/><path d="m104 245l-1-12 .5-1.5.5-1.5-3-7-3-7h-7.5-7.5l-3.5-3.5-3.5-3.5v2.5 2.5 1 1 1 1 1 1h-1.5-1.5l-.5.5-.5.5-1.5-.5-1.5-.5-2-.5-2-.5h-1.5-1.5l.5 1 .5 1 1 .5 1 .5 1.5.5 1.5.5h-1-1l-1.5.5-1.5.5h-1.5-1.5-1.5-1.5l-.5-1.5-.5-1.5h-1-1l-1 .5-1 .5h-1-1l-.5-.5-.5-.5-1-.5-1-.5v1 1l-2-1-2-1h-1-1l-.5 1-.5 1-1-.5-1-.5-1-.5-1-.5-1.5 1-1.5 1-1 1-1 1v-1.5-1.5l-1-1-1-1-2-.5-2-.5-1 1-1 1 1 1 1 1 1 1 1 1 1.5 1.5 1.5 1.5 7.5 3.5 7.5 3.5 4.5 8 4.5 8-1.5-.5-1.5-.5-.5.5-.5.5h-1-1-1.5-1.5l-1 1-1 1 .5.5.5.5.5 1 .5 1-1 1-1 1 6 1.5 6 1.5 5 1 5 1-2-4-2-4-.5-3.5-.5-3.5 4 2 4 2h5.5 5.5l12-1.5 12-1.5.5-1.5.5-1.5"/></g><g style="fill:#d4d2cb;stroke:#d4d2cb"><path d="m103 264l1-3-1.5-.5-1.5-.5-1.5-1-1.5-1-1.5-.5-1.5-.5-2-.5-2-.5h-1-1l.5 1 .5 1 1.5.5 1.5.5 1.5.5 1.5.5 1.5 1 1.5 1 1 1 1 1 1 .5 1 .5v-.5-.5"/><path d="m103 250v-2l-12 1.5-12 1.5h-5.5-5.5l-4-2-4-2 .5 3.5.5 3.5 2 4 2 4-5-1-5-1-6-1.5-6-1.5-.5-.5-.5-.5-3-1-3-1 .5 1 .5 1v1 1 1.5 1.5l-1.5.5-1.5.5-2 .5-2 .5-1.5.5-1.5.5v.5.5l.5 1.5.5 1.5h1 1 1 1 1 1v-1.5-1.5-1-1h1 1l-.5 1-.5 1 1 1 1 1v1 1l-.5 1-.5 1 1.5.5 1.5.5-.5.5-.5.5.5.5.5.5h2 2 1.5 1.5l.5-1 .5-1h-.5-.5-1.5-1.5l-.5-.5-.5-.5-.5-.5-.5-.5v-1.5-1.5l-.5-.5-.5-.5-.5-.5-.5-.5h1 1l.5-1 .5-1-.5-.5-.5-.5-.5-.5-.5-.5-.5-.5-.5-.5h1 1l.5.5.5.5 1 1 1 1 1.5 1 1.5 1 2 .5 2 .5 1.5.5 1.5.5.5 2 .5 2v1 1h1 1l2.5.5 2.5.5 6-3.5 6-3.5 2.5-1.5 2.5-1.5-4-7-4-7 6.5 1.5 6.5 1.5 9.5-1.5 9.5-1.5"/></g><path d="m101 492l1-3h-2-2l1.5-1 1.5-1-.5-1.5-.5-1.5-2-.5-2-.5-1.5.5-1.5.5.5 2 .5 2 1 1 1 1 1 1 1 1h1.5 1.5" style="fill:#6f6555;stroke:#6f6555"/><path d="m101 457l1-3-1.5-.5-1.5-.5-1.5-1-1.5-1-1 1-1 1 1.5 1 1.5 1 .5 1.5.5 1.5 1.5-.5 1.5-.5" style="fill:#a39685;stroke:#a39685"/><path d="m97 265l-13-5 4 4 4 4 2.5-1.5 2.5-1.5" style="fill:#83786a;stroke:#83786a"/><g style="fill:#a39685;stroke:#a39685"><path d="m97 159l-1-1-1-1-1-1-1.5-1-1.5-1-1.5-.5-1.5-.5-1.5-1-1.5-1-1-1-1-1-1.5-1-1.5-1-.5-1.5-.5-1.5-1-1-1-1-.5-1-.5-1h-2-2v2.5 2.5 1.5 1.5 1.5 1.5l.5 1 .5 1 .5 2.5.5 2.5 1 .5 1 .5 2 .5 2 .5h2 2 2.5 2.5l1.5-.5 1.5-.5h2.5 2.5"/><path d="m96 526l-16-2 4.5 2.5 4.5 2.5 3.5-1.5 3.5-1.5"/><path d="m92 466l-6-10-5 4-5 4-9-.5-9-.5-2.5 1-2.5 1 5.5 2.5 5.5 2.5 4.5-.5 4.5-.5 6.5-.5 6.5-.5 3-1 3-1"/><path d="m92 450l-5-3-2.5 3.5-2.5 3.5 5-2 5-2"/></g><path d="m90 144h1l-.5-1-.5-1h-1-1-1-1l-.5-.5-.5-.5-1-.5-1-.5.5-.5.5-.5-.5-.5-.5-.5h-1-1l-1.5-.5-1.5-.5-1-.5-1-.5-1-1-1-1-.5.5-.5.5-.5 1-.5 1h-.5-.5v3 3l.5 2.5.5 2.5v-1.5-1.5-2.5-2.5h2 2 2.5 2.5l1 1 1 1 .5 1.5.5 1.5 2 .5 2 .5 1-1 1-1" style="fill:#9a9da4;stroke:#9a9da4"/><path d="m89 410v-2l-1-1-1-1h-1.5-1.5v1 1l-1 1.5-1 1.5 1.5.5 1.5.5.5 1 .5 1 1-1 1-1 .5-1 .5-1" style="fill:#a39685;stroke:#a39685"/><path d="m89 272l-1-2-.5.5-.5.5h-1.5-1.5l-.5 1-.5 1-1.5-.5-1.5-.5.5-.5.5-.5-1-.5-1-.5-.5-1.5-.5-1.5.5-1 .5-1v-.5-.5l-2.5 1.5-2.5 1.5-6 3.5-6 3.5h3.5 3.5 2 2l2-.5 2-.5.5.5.5.5 1-.5 1-.5.5.5.5.5h2 2l1-.5 1-.5 1-.5 1-.5" style="fill:#c8baa5;stroke:#c8baa5"/><path d="m87 419l-11-5 3.5 3.5 3.5 3.5 2-1 2-1" style="fill:#a39685;stroke:#a39685"/><path d="m87 271l1-1-2-1.5-2-1.5-1.5-.5-1.5-.5-1-.5-1-.5-.5 1-.5 1 .5 1.5.5 1.5 1 .5 1 .5-.5.5-.5.5 1.5.5 1.5.5.5-1 .5-1h1.5 1.5" style="fill:#d4d2cb;stroke:#d4d2cb"/><path d="m85 385l-10 2 2.5.5 2.5.5 2.5-1.5 2.5-1.5" style="fill:#a39685;stroke:#a39685"/><path d="m85 71l-1-1-1.5-.5-1.5-.5-1.5-1-1.5-1-.5 1.5-.5 1.5-1 1.5-1 1.5 1 1 1 1 2-.5 2-.5 1-1 1-1 1-.5 1-.5" style="fill:#f6f9f3;stroke:#f6f9f3"/><path d="m79 129l-1-1h-2-2l-1-1.5-1-1.5-.5-1.5-.5-1.5v-2.5-2.5l1.5-.5 1.5-.5h-2.5-2.5v1 1 1 1l.5 2.5.5 2.5.5 1.5.5 1.5v1.5 1.5l1.5 1.5 1.5 1.5-.5-1.5-.5-1.5 1-1 1-1h2 2" style="fill:#9a9da4;stroke:#9a9da4"/><path d="m78 163l-1-2-1-.5-1-.5-.5-1-.5-1-.5-2.5-.5-2.5-.5-1-.5-1v2 2 1 1 1.5 1.5 1 1 1 1 1 1l.5 1 .5 1v2 2 1 1 1.5 1.5l.5 1.5.5 1.5v1 1 1.5 1.5 2 2 1 1 1 1l.5 1 .5 1 .5-1.5.5-1.5v-1-1l-.5-1.5-.5-1.5v-2.5-2.5-2-2-2.5-2.5l-.5-1.5-.5-1.5.5-2 .5-2-.5-1.5-.5-1.5 1 .5 1 .5 1-.5 1-.5" style="fill:#83786a;stroke:#83786a"/><path d="m76 220v-2-1-1-1-1-2.5-2.5-2.5-2.5-2-2l-.5-2.5-.5-2.5-.5-1-.5-1v-1-1-1-1-2-2-1.5-1.5-1-1l-.5-1.5-.5-1.5v-1.5-1.5-1-1-2-2l-.5-1-.5-1v-1-1-1-1-1-1-1.5-1.5-1-1-2-2-1.5-1.5l-.5-2.5-.5-2.5v-3-3l-.5-1-.5-1v-1.5-1.5l-1-1.5-1-1.5v3 3 1.5 1.5 2.5 2.5l.5 1.5.5 1.5v2.5 2.5 2.5 2.5l.5 1.5.5 1.5v2 2l-.5 2-.5 2v2 2 2 2 1 1l.5 1 .5 1v2 2 1 1 .5.5 2 2l.5.5.5.5v1.5 1.5l.5 2 .5 2v2.5 2.5 2 2 2.5 2.5l.5 1.5.5 1.5v1.5 1.5 1 1h1.5 1.5" style="fill:#6f6555;stroke:#6f6555"/><path d="m73 135l1-1-1.5-1.5-1.5-1.5v-1.5-1.5l-.5-1.5-.5-1.5-.5-2.5-.5-2.5-.5-1-.5-1h-1-1v2.5 2.5l.5 1.5.5 1.5-.5 1.5-.5 1.5v1.5 1.5l1 1.5 1 1.5v-3-3l1 1.5 1 1.5v1.5 1.5l.5 1 .5 1h.5.5l.5-1 .5-1" style="fill:#83786a;stroke:#83786a"/><path d="m73 63l-22-5-8 1-8 1 7 3 7 3-8.5-1-8.5-1-7.5.5-7.5.5-8.5-2-8.5-2v1.5 1.5 2.5 2.5 2 2 2.5 2.5 2 2 2.5 2.5l4.5-4 4.5-4 7.5-1.5 7.5-1.5 6 4 6 4 3 3.5 3 3.5 8.5-1.5 8.5-1.5 2.5-7.5 2.5-7.5 4.5-5 4.5-5" style="fill:#f6f9f3;stroke:#f6f9f3"/><path d="m72 221l1-1v-1-1h-.5-.5v-1.5-1.5l-1-1.5-1-1.5-.5-1.5-.5-1.5 1-1.5 1-1.5v-2-2-2-2-2-2-1.5-1.5l-.5-.5-.5-.5v-2-2-.5-.5-1-1-2-2l-.5-1-.5-1v-1-1-2-2-2-2l.5-2 .5-2v-2-2h-.5-.5l-8.5 3-8.5 3-10.5.5-10.5.5-15.5.5-15.5.5v12 12 11 11 2.5 2.5l1.5-.5 1.5-.5.5-1.5.5-1.5 1-1.5 1-1.5 1.5.5 1.5.5v1 1 1.5 1.5l1-.5 1-.5 1-.5 1-.5 4-4.5 4-4.5 5.5 3.5 5.5 3.5 7.5 3.5 7.5 3.5 1 .5 1 .5.5.5.5.5h1 1l1-.5 1-.5h1 1l.5 1.5.5 1.5h1.5 1.5 1.5 1.5l-1-.5-1-.5h-1-1l-1-.5-1-.5v-1.5-1.5h-.5-.5l-1.5-.5-1.5-.5-1.5-1-1.5-1 .5 1.5.5 1.5-1.5-.5-1.5-.5-.5-2-.5-2 1-1 1-1 1.5-1 1.5-1 1 1 1 1v1.5 1.5l1 1 1 1 .5 1 .5 1 .5-1 .5-1 1-.5 1-.5-1-1.5-1-1.5-1-1-1-1 1-1.5 1-1.5 1.5-.5 1.5-.5h1.5 1.5l.5 1.5.5 1.5 1 1 1 1 .5 1 .5 1-.5 1.5-.5 1.5-2 .5-2 .5-.5.5-.5.5h1.5 1.5l2 .5 2 .5 1.5.5 1.5.5" style="fill:#a39685;stroke:#a39685"/><path d="m72 218h1v-1.5-1.5l-.5-1.5-.5-1.5v-2.5-2.5-2-2-2.5-2.5l-.5-2-.5-2v2 2 2 2 2 2l-1 1.5-1 1.5.5 1.5.5 1.5 1 1.5 1 1.5v1.5 1.5" style="fill:#83786a;stroke:#83786a"/><path d="m69 159h1l-.5-1.5-.5-1.5-.5 1-.5 1h-1-1l-1.5-.5-1.5-.5v1 1l.5.5.5.5 1-.5 1-.5h1 1l-.5 1.5-.5 1.5h-1.5-1.5l-1.5.5-1.5.5-.5.5-.5.5-1-.5-1-.5-1.5-.5-1.5-.5-.5-.5-.5-.5h-1.5-1.5v-1-1h1 1 1 1 1 1 1.5 1.5l-.5-1-.5-1-7.5-4-7.5-4-1.5 1.5-1.5 1.5h-3.5-3.5l6.5 3.5 6.5 3.5-8.5.5-8.5.5-15-.5-15-.5v3 3 1 1l15.5-.5 15.5-.5 10.5-.5 10.5-.5 8.5-3 8.5-3" style="fill:#c8baa5;stroke:#c8baa5"/><path d="m69 118v-2h-2-2-1-1-1.5-1.5-1-1-1-1-1-1-1.5-1.5-1-1l-.5-.5-.5-.5-.5-.5-.5-.5-1-1-1-1-1-.5-1-.5-.5-.5-.5-.5h-1-1-1-1l-1-.5-1-.5-.5-.5-.5-.5h-1-1l-1-.5-1-.5-2.5-.5-2.5-.5h-2.5-2.5l-1.5-.5-1.5-.5h-2.5-2.5l-1.5-.5-1.5-.5h-2-2l-2.5-.5-2.5-.5h-.5-.5v3.5 3.5 2 2 1 1l4.5-2 4.5-2 5 5 5 5h-1-1l1 1 1 1 1.5 1 1.5 1h1 1l-.5-1-.5-1 .5-.5.5-.5 1.5.5 1.5.5 1.5 1 1.5 1h2.5 2.5l1.5.5 1.5.5 2-.5 2-.5h1 1l1.5 1 1.5 1 1.5.5 1.5.5 1 .5 1 .5 2.5.5 2.5.5 1.5-.5 1.5-.5h2.5 2.5l-1.5.5-1.5.5-1 .5-1 .5h2 2 1 1v-1.5-1.5l.5-1.5.5-1.5-.5-1.5-.5-1.5v-2.5-2.5h1 1l.5 1 .5 1v-1-1" style="fill:#7d8fa8;stroke:#7d8fa8"/><path d="m68 502v-2l-1.5-.5-1.5-.5-1.5-1-1.5-1-1 1-1 1v1.5 1.5l1 1 1 1 1.5-1 1.5-1h1.5 1.5" style="fill:#a39685;stroke:#a39685"/><path d="m68 214l-1-2-1-1-1-1-.5-1.5-.5-1.5h-1.5-1.5l-1.5.5-1.5.5-1 1.5-1 1.5 1 1 1 1 1 1.5 1 1.5-1 .5-1 .5-.5 1-.5 1v1.5 1.5l1 .5 1 .5h1 1l1 .5 1 .5 1.5-.5 1.5-.5h1 1l-1.5-.5-1.5-.5-1-.5-1-.5-.5-1-.5-1 .5-.5.5-.5 2-.5 2-.5.5-1.5.5-1.5" style="fill:#83786a;stroke:#83786a"/><path d="m68 158l1-2v-2.5-2.5-2.5-2.5l-.5-1.5-.5-1.5v-2.5-2.5-1.5-1.5l-1-1.5-1-1.5h-1-1l1 .5 1 .5-.5.5-.5.5v1 1h-1.5-1.5l-1-1-1-1-1.5-1-1.5-1-1 1-1 1-1.5-2-1.5-2-1-.5-1-.5-1.5-.5-1.5-.5-1.5-1-1.5-1h-1-1l-2 .5-2 .5-1.5-.5-1.5-.5h-2.5-2.5l-1 .5-1 .5h-1.5-1.5l-.5 1.5-.5 1.5 2 1 2 1 8.5-1 8.5-1 10.5 7.5 10.5 7.5-8.5-2-8.5-2-2.5 2.5-2.5 2.5-7-5-7-5-.5.5-.5.5-1-.5-1-.5-.5 1-.5 1-1-1-1-1v1 1l-.5-.5-.5-.5-.5-.5-.5-.5v-.5-.5h-1-1l-.5-.5-.5-.5v-1-1l.5-.5.5-.5-.5-1-.5-1-.5-.5-.5-.5-.5-.5-.5-.5 1-.5 1-.5-1-.5-1-.5h-.5-.5l-1 .5-1 .5h-.5-.5-1-1-1.5-1.5-2-2-2-2v1.5 1.5h3 3l.5 1 .5 1-1.5.5-1.5.5 1.5 1 1.5 1v1 1l1.5 1 1.5 1v1 1l-1-.5-1-.5-.5-.5-.5-.5-.5.5-.5.5-.5.5-.5.5-1 .5-1 .5h-1.5-1.5v1.5 1.5 2 2 2.5 2.5 2 2 1 1l15 .5 15 .5 8.5-.5 8.5-.5-6.5-3.5-6.5-3.5h3.5 3.5l1.5-1.5 1.5-1.5 7.5 4 7.5 4h2 2l1.5.5 1.5.5h1 1" style="fill:#a39685;stroke:#a39685"/><path d="m67 162l1-3h-1-1l-1 .5-1 .5-.5-.5-.5-.5v-1-1h-2-2l.5 1 .5 1h-1.5-1.5-1-1-1-1-1-1v1 1h1.5 1.5l.5.5.5.5 1.5.5 1.5.5 1 .5 1 .5.5-.5.5-.5 1.5-.5 1.5-.5h1.5 1.5" style="fill:#9a9da4;stroke:#9a9da4"/><path d="m66 145l-21-15-8.5 1-8.5 1 1 2 1 2 7 5 7 5 2.5-2.5 2.5-2.5 8.5 2 8.5 2" style="fill:#c8baa5;stroke:#c8baa5"/><path d="m65 136v-2l.5-.5.5-.5-1-.5-1-.5h-2-2l1-.5 1-.5 1.5-.5 1.5-.5h-2.5-2.5l-1.5.5-1.5.5-2.5-.5-2.5-.5 1.5 2 1.5 2 1-1 1-1 1.5 1 1.5 1 1 1 1 1h1.5 1.5" style="fill:#9a9da4;stroke:#9a9da4"/><path d="m63 391l-14 2 2.5 2.5 2.5 2.5.5-3 .5-3 4-.5 4-.5" style="fill:#a39685;stroke:#a39685"/><path d="m56 219h1l-.5-1-.5-1-1-1-1-1v-1.5-1.5l-1-1-1-1-1.5 1-1.5 1-1 1-1 1 .5 2 .5 2 1.5.5 1.5.5-.5-1.5-.5-1.5 1.5 1 1.5 1 1.5.5 1.5.5" style="fill:#83786a;stroke:#83786a"/><path d="m55 477v-2l-.5-1.5-.5-1.5-1 .5-1 .5h-1-1l-.5-2-.5-2 1.5-.5 1.5-.5.5-1.5.5-1.5-4.5-2-4.5-2-.5 4.5-.5 4.5 4.5 2.5 4.5 2.5 1.5 1 1.5 1" style="fill:#a39685;stroke:#a39685"/><path d="m55 2l1-2h-2.5-2.5-2.5-2.5-2-2-2.5-2.5l.5 2 .5 2 1 1 1 1 2 .5 2 .5 1-1 1-1 .5-1 .5-1 1.5.5 1.5.5h2 2l.5-1 .5-1" style="fill:#ccdfeb;stroke:#ccdfeb"/><path d="m54 250l-9-16-7.5-3.5-7.5-3.5-.5 1-.5 1-1.5.5-1.5.5 1.5.5 1.5.5.5.5.5.5 1 .5 1 .5-.5.5-.5.5h-1-1l-.5-.5-.5-.5v1 1l-.5 1-.5 1 .5.5.5.5h1 1l.5-.5.5-.5 1-.5 1-.5.5 1 .5 1 2 1 2 1-.5 1.5-.5 1.5 1 1 1 1 1 1.5 1 1.5.5.5.5.5-.5 2-.5 2 .5 1.5.5 1.5.5.5.5.5 1-1 1-1-.5-1-.5-1-.5-.5-.5-.5 1-1 1-1h1.5 1.5 1 1l.5-.5.5-.5 1.5.5 1.5.5" style="fill:#a39685;stroke:#a39685"/><path d="m47 222v-2l-7.5-3.5-7.5-3.5-5.5-3.5-5.5-3.5-4 4.5-4 4.5 1.5 4.5 1.5 4.5 5 3 5 3 1.5-.5 1.5-.5.5-1 .5-1-1.5-1.5-1.5-1.5-1-1-1-1-1-1-1-1-1.5 1-1.5 1-.5-1-.5-1 1.5-.5 1.5-.5-.5-1.5-.5-1.5h2.5 2.5 1 1l1.5 1 1.5 1h2 2l2 .5 2 .5 1 .5 1 .5h1 1l2 1 2 1" style="fill:#83786a;stroke:#83786a"/><g style="fill:#c8baa5;stroke:#c8baa5"><path d="m46 272h1l-1-.5-1-.5-1-1-1-1 .5-1 .5-1h-1-1l1-.5 1-.5.5-.5.5-.5-.5-1-.5-1-1-1-1-1-.5-.5-.5-.5h-1-1l.5.5.5.5.5.5.5.5.5.5.5.5-.5 1-.5 1h-1-1l.5.5.5.5.5.5.5.5v1.5 1.5l.5.5.5.5.5.5.5.5h1.5 1.5"/><path d="m42 275l1-1h-2-2l-.5-.5-.5-.5.5-.5.5-.5-1.5-.5-1.5-.5.5-1 .5-1v-1-1l-1-1-1-1 .5-1 .5-1h-1-1v1 1 1.5 1.5h-1-1-1-1-1-1l-.5-1.5-.5-1.5v-.5-.5l-1-.5-1-.5h-1.5-1.5l-.5-1.5-.5-1.5.5-.5.5-.5v-.5-.5l-1.5.5-1.5.5-.5-.5-.5-.5.5-1.5.5-1.5h-1.5-1.5l-.5 2-.5 2 1 .5 1 .5 1.5.5 1.5.5-.5 1.5-.5 1.5v1 1l-1-.5-1-.5.5 1 .5 1 .5.5.5.5-.5.5-.5.5-1 1-1 1 .5 1 .5 1 .5.5.5.5-.5.5-.5.5v.5.5h1 1l.5-1 .5-1-.5-1.5-.5-1.5 1.5.5 1.5.5v-1-1l-.5-1-.5-1h1 1l1.5 1 1.5 1 1 1 1 1h1.5 1.5l1.5.5 1.5.5.5.5.5.5-3 .5-3 .5h1.5 1.5 2 2l1.5.5 1.5.5 1.5-.5 1.5-.5"/><path d="m42 249l-1-1-1-1.5-1-1.5-1-1-1-1 .5-1.5.5-1.5-2-1-2-1v1.5 1.5 1 1h-.5-.5l.5 1 .5 1 1 1.5 1 1.5 1.5 1 1.5 1v1.5 1.5l-1.5.5-1.5.5 3 1 3 1-.5-1.5-.5-1.5.5-2 .5-2"/></g><g style="fill:#a39685;stroke:#a39685"><path d="m41 392v-2l-.5-1.5-.5-1.5-1.5-1-1.5-1-1-1-1-1-.5 2-.5 2 .5 1.5.5 1.5 2 .5 2 .5 1 .5 1 .5"/><path d="m40 222l1-2-1-.5-1-.5-2-.5-2-.5h-2-2l-1.5-1-1.5-1h-1-1-2.5-2.5l.5 1.5.5 1.5-1.5.5-1.5.5.5 1 .5 1 1.5-1 1.5-1 1-1 1-1 2 .5 2 .5 1 1 1 1v1.5 1.5l1-1 1-1 1.5-1 1.5-1 1 .5 1 .5 1 .5 1 .5"/></g><path d="m39 253v-3l-.5 1-.5 1-2 .5-2 .5-.5 1.5-.5 1.5-.5.5-.5.5-1-.5-1-.5h-1-1l-1-.5-1-.5h-2-2-1.5-1.5l-.5 1.5-.5 1.5.5.5.5.5 1.5-.5 1.5-.5v.5.5l-.5.5-.5.5.5 1.5.5 1.5h1.5 1.5l1 .5 1 .5 1.5-.5 1.5-.5 2-.5 2-.5 1.5-.5 1.5-.5v-1.5-1.5-1-1l-.5-1-.5-1 1.5-.5 1.5-.5" style="fill:#9a9da4;stroke:#9a9da4"/><path d="m38 252l1-2-1.5-1-1.5-1-1-1.5-1-1.5-.5-1-.5-1-1.5-1.5-1.5-1.5-1.5-.5-1.5-.5h-1.5-1.5v1 1l-1 1-1 1-.5 2-.5 2v2 2l-1 1.5-1 1.5-1.5.5-1.5.5h1.5 1.5 1.5 1.5 2 2l1 .5 1 .5h1 1l1 .5 1 .5.5-.5.5-.5.5-1.5.5-1.5 2-.5 2-.5" style="fill:#a39685;stroke:#a39685"/><path d="m36 191l-11-5 5 3 5 3 .5-.5.5-.5" style="fill:#83786a;stroke:#83786a"/><path d="m35 274l-1-1-1.5-.5-1.5-.5h-1.5-1.5l-1-1-1-1-1.5-1-1.5-1h-1-1l.5 1 .5 1v1 1l-1.5-.5-1.5-.5.5 1.5.5 1.5h2 2l2.5.5 2.5.5 3-.5 3-.5" style="fill:#d4d2cb;stroke:#d4d2cb"/><path d="m34 489l-4-2 1.5 2.5 1.5 2.5.5-1.5.5-1.5" style="fill:#a39685;stroke:#a39685"/><path d="m34 243v-2-1.5-1.5l-.5-1-.5-1-1 .5-1 .5-.5.5-.5.5h-1-1l-.5-.5-.5-.5.5-1 .5-1v-1-1l.5.5.5.5h1 1l.5-.5.5-.5-1-.5-1-.5-.5-.5-.5-.5-1.5-.5-1.5-.5-5-3-5-3-1.5-4.5-1.5-4.5-1 .5-1 .5-1 .5-1 .5-1 1.5-1 1.5.5 1 .5 1v1 1l-1 1.5-1 1.5-.5 1.5-.5 1.5-.5 2-.5 2-1 1-1 1-1 .5-1 .5v2 2 2 2 2.5 2.5 2 2 2.5 2.5 2 2 2.5 2.5.5.5l1-.5 1-.5 1-1 1-1 1.5-1 1.5-1-1.5-.5-1.5-.5-1-1.5-1-1.5.5-.5.5-.5 1-.5 1-.5 1.5.5 1.5.5h3.5 3.5l.5-2 .5-2 1.5-.5 1.5-.5 1-1.5 1-1.5v-2-2l.5-2 .5-2 1-1 1-1v-1-1h1.5 1.5l1.5.5 1.5.5 1.5 1.5 1.5 1.5h.5.5" style="fill:#6f6555;stroke:#6f6555"/><path d="m32 107l1-1-2.5-.5-2.5-.5h-2.5-2.5l-1.5-.5-1.5-.5h-2.5-2.5l-1.5-.5-1.5-.5h-2.5-2.5-2-2-1-1l2.5.5 2.5.5h2 2l1.5.5 1.5.5h2.5 2.5l1.5.5 1.5.5h2.5 2.5l2.5.5 2.5.5h.5.5" style="fill:#95bfd4;stroke:#95bfd4"/><path d="m30 526l-10 4 2.5-.5 2.5-.5 2.5-1.5 2.5-1.5" style="fill:#a39685;stroke:#a39685"/><path d="m29 137l1-1-1-2-1-2-2-1-2-1 .5-1.5.5-1.5h1.5 1.5l1-.5 1-.5-1.5-1-1.5-1-1.5-.5-1.5-.5-.5.5-.5.5.5 1 .5 1h-1-1l-1.5-1-1.5-1-1-1-1-1-1 1-1 1 1 .5 1 .5 1 .5 1 .5 1.5.5 1.5.5.5 1.5.5 1.5.5 1.5.5 1.5 1.5 1.5 1.5 1.5 1 .5 1 .5" style="fill:#9a9da4;stroke:#9a9da4"/><path d="m27 494l-11-9 3.5 4.5 3.5 4.5h2 2" style="fill:#a39685;stroke:#a39685"/><path d="m26 138l1-2-1.5-1.5-1.5-1.5-.5-1.5-.5-1.5-.5-1.5-.5-1.5-1.5-.5-1.5-.5-1 .5-1 .5.5.5.5.5.5.5.5.5.5 1 .5 1-.5.5-.5.5v1 1l.5.5.5.5h1 1v.5.5l.5.5.5.5.5.5.5.5v-1-1l1 1 1 1" style="fill:#83786a;stroke:#83786a"/><path d="m22 238l1-3-.5-1.5-.5-1.5-1.5-1-1.5-1-1-1-1-1-1.5-1-1.5-1v-1-1l-1 1.5-1 1.5-1.5-.5-1.5-.5v.5.5l.5 1 .5 1h1.5 1.5l.5.5.5.5.5.5.5.5.5.5.5.5 1 .5 1 .5.5.5.5.5h1 1l-.5 1.5-.5 1.5-.5 1-.5 1v1.5 1.5l-1 1.5-1 1.5-.5 1.5-.5 1.5v2 2l1.5-.5 1.5-.5v-2-2l.5-2 .5-2 .5-1.5.5-1.5.5-1 .5-1" style="fill:#415366;stroke:#415366"/><path d="m20 237l1-3h-1-1l-.5-.5-.5-.5-1-.5-1-.5-.5-.5-.5-.5-.5-.5-.5-.5-.5-.5-.5-.5h-1.5-1.5l-.5-1-.5-1-.5 1-.5 1-.5 2-.5 2-1 1-1 1-.5 1.5-.5 1.5v2.5 2.5l-.5 1.5-.5 1.5-.5 2-.5 2h2 2l2 .5 2 .5 1.5.5 1.5.5h1.5 1.5v-2-2l.5-1.5.5-1.5 1-1.5 1-1.5v-1.5-1.5l.5-1 .5-1" style="fill:#292f32;stroke:#292f32"/><path d="m19 266v-2l.5-1.5.5-1.5-1.5-.5-1.5-.5-1-.5-1-.5-1 .5-1 .5-1 1-1 1-1.5.5-1.5.5 1 1.5 1 1.5 2 .5 2 .5 1 .5 1 .5v1.5 1.5l1-1 1-1 .5-.5.5-.5-.5-.5-.5-.5-.5-1-.5-1 1 .5 1 .5" style="fill:#d4d2cb;stroke:#d4d2cb"/><path d="m19 122l-10-10-4.5 2-4.5 2v2 2 .5.5l1-.5 1-.5.5-1 .5-1h1 1l.5.5.5.5.5.5.5.5h1.5 1.5 1 1l.5.5.5.5h1 1l1 .5 1 .5h1 1" style="fill:#9a9da4;stroke:#9a9da4"/><path d="m16 125h1l-1-.5-1-.5 1-1 1-1-1-.5-1-.5h-1-1l-.5-.5-.5-.5h-1-1-1.5-1.5l-.5-.5-.5-.5-.5-.5-.5-.5h-1-1l-.5 1-.5 1-1 .5-1 .5v1.5 1.5 1 1h2 2 2 2 1.5 1.5 1 1 .5.5l1-.5 1-.5" style="fill:#c8baa5;stroke:#c8baa5"/><path d="m14 505v-2l-1.5-.5-1.5-.5-1-.5-1-.5-.5.5-.5.5-1.5.5-1.5.5h-.5-.5v-1-1h-2-2v2 2l2 .5 2 .5.5.5.5.5-.5.5-.5.5h1 1 2 2 1.5 1.5l.5-1.5.5-1.5" style="fill:#a39685;stroke:#a39685"/><path d="m14 275l-1-1-1.5-.5-1.5-.5-2-.5-2-.5-1-1-1-1 1-1.5 1-1.5h2 2 2 2l-2-.5-2-.5-1-1.5-1-1.5 1.5-.5 1.5-.5 1-1 1-1 1-.5 1-.5h-3.5-3.5l-1.5-.5-1.5-.5-1 .5-1 .5-.5.5-.5.5 1 1.5 1 1.5 1.5.5 1.5.5-1.5 1-1.5 1-1 1-1 1-1 .5-1 .5v1 1l1 .5 1 .5.5 1 .5 1-1 1-1 1h2 2 2.5 2.5l2-.5 2-.5" style="fill:#c8baa5;stroke:#c8baa5"/><path d="m12 467v-2l-1.5-.5-1.5-.5-1.5 1-1.5 1 1 1 1 1 1 1.5 1 1.5h1 1v-2-2" style="fill:#a39685;stroke:#a39685"/><path d="m10 140v-2l-1.5-1-1.5-1v-1-1l-1.5-1-1.5-1 1.5-.5 1.5-.5-.5-1-.5-1h-3-3v3 3 2.5 2.5.5.5h1.5 1.5l1-.5 1-.5.5-.5.5-.5.5-.5.5-.5.5.5.5.5 1 .5 1 .5" style="fill:#83786a;stroke:#83786a"/><path d="m9 214v-2l-1.5-.5-1.5-.5-1 1.5-1 1.5-.5 1.5-.5 1.5-1.5.5-1.5.5v2.5 2.5 2.5 2.5 2 2 2 2 .5.5l1-.5 1-.5 1-1 1-1 .5-2 .5-2 .5-1.5.5-1.5 1-1.5 1-1.5v-1-1l-.5-1-.5-1 1-1.5 1-1.5v-1.5-1.5" style="fill:#c8baa5;stroke:#c8baa5"/><g style="fill:#a39685;stroke:#a39685"><path d="m8 531l1-3-1-1-1-1 .5-1 .5-1h-1-1l-.5 2-.5 2-1.5.5-1.5.5-1 .5-1 .5v3 3h1.5 1.5l.5-1.5.5-1.5.5-.5.5-.5 1.5-.5 1.5-.5"/><path d="m8 489l-4-17-2 4.5-2 4.5v3 3 .5.5l1 .5 1 .5 1.5 1 1.5 1 1.5-1 1.5-1"/><path d="m6 428v-2l-1.5-.5-1.5-.5-1.5-.5-1.5-.5v2.5 2.5 2.5 2.5l.5-1.5.5-1.5.5-1 .5-1h1 1l1-.5 1-.5"/></g></g></svg>