<svg xmlns="http://www.w3.org/2000/svg" viewBox="0 0 528 960"><path d="m0 0h528v960h-528z" style="fill:#3d1712"/><g style="stroke-linejoin:round;stroke-width:.7"><path d="m0 959v1h1.5 1.5 2 2 2.5 2.5 2 2 1.5 1.5v-.5-.5-1.5-1.5l-2-6-2-6 1.5-7.5 1.5-7.5-1-5.5-1-5.5-1.5-5.5-1.5-5.5-.5-3.5-.5-3.5v-4-4l3.5-5 3.5-5-2-4-2-4-.5-4.5-.5-4.5-7-4-7-4v9 9 9 9 8.5 8.5 9 9 9 9 6.5 6.5" style="fill:#812c1f;stroke:#812c1f"/><path d="m19 959v1h1.5 1.5 2 2 .5.5v-.5-.5l-.5-1-.5-1 .5-1.5.5-1.5-2-4-2-4 1-6.5 1-6.5-1.5-7-1.5-7 .5-6.5.5-6.5v-7-7l-2-2-2-2 .5 5 .5 5-.5 6.5-.5 6.5.5 6.5.5 6.5-.5 7.5-.5 7.5v8.5 8.5 1.5 1.5" style="fill:#c85639;stroke:#c85639"/><path d="m27 959v1h1.5 1.5 2 2 1.5 1.5v-.5-.5l-1-.5-1-.5-.5-.5-.5-.5-.5-.5-.5-.5-.5-2-.5-2-.5-1.5-.5-1.5-.5-1-.5-1-1-1-1-1v2 2l-.5 2.5-.5 2.5-.5 1.5-.5 1.5.5 1 .5 1" style="fill:#812c1f;stroke:#812c1f"/><path d="m37 959v1h1.5 1.5 1 1v-.5-.5l-1-7-1-7-1-7-1-7-2-6.5-2-6.5-1.5-6.5-1.5-6.5-1.5-5.5-1.5-5.5-.5-3.5-.5-3.5-1-5.5-1-5.5 2.5-12 2.5-12v2.5 2.5 2 2l-.5.5-.5.5-1 .5-1 .5-.5 1.5-.5 1.5-.5.5-.5.5-2.5-2.5-2.5-2.5-5-2-5-2 5-7 5-7-1-.5-1-.5-1.5.5-1.5.5-2 .5-2 .5-1.5.5-1.5.5-.5 2-.5 2-1 1-1 1-1.5 1-1.5 1-1 .5-1 .5v1 1l7 4 7 4 .5 4.5.5 4.5 2 4 2 4-3.5 5-3.5 5v4 4l.5 3.5.5 3.5 1.5 5.5 1.5 5.5 1 5.5 1 5.5-1.5 7.5-1.5 7.5 2 6 2 6v-8.5-8.5l.5-7.5.5-7.5-.5-6.5-.5-6.5.5-6.5.5-6.5-.5-5-.5-5 2 2 2 2v7 7l-.5 6.5-.5 6.5 1.5 7 1.5 7-1 6.5-1 6.5 2 4 2 4 .5-2.5.5-2.5v-2-2l1 1 1 1 .5 1 .5 1-.5-2-.5-2-.5-1.5-.5-1.5v-1-1l.5-.5.5-.5.5-.5.5-.5h.5.5l.5 1.5.5 1.5.5.5.5.5.5 1 .5 1 .5 1.5.5 1.5v1 1l.5 1 .5 1-.5 1.5-.5 1.5-.5.5-.5.5-1.5-1.5-1.5-1.5.5 2 .5 2 .5.5.5.5.5.5.5.5 1 .5 1 .5" style="fill:#b83b1b;stroke:#b83b1b"/><path d="m42 959v1h1.5 1.5 2 2 2.5 2.5 2 2 2.5 2.5 2 2 2.5 2.5v-.5-.5l-2.5-6-2.5-6 1-6 1-6-2.5-4-2.5-4 2.5-4.5 2.5-4.5-2.5-4.5-2.5-4.5-2-4-2-4 1.5-4 1.5-4 2-5 2-5-4-4-4-4-4-4-4-4 2.5-3 2.5-3v-4-4l-6.5-2.5-6.5-2.5-4-1-4-1 3-3.5 3-3.5-4-4-4-4 6-3 6-3 6-2 6-2 7.5 1 7.5 1 2.5 2.5 2.5 2.5.5 1.5.5 1.5 4.5 3.5 4.5 3.5 4.5 4 4.5 4 6 3 6 3-4 4-4 4 1.5 3.5 1.5 3.5 4.5 3.5 4.5 3.5v2.5 2.5l7 1 7 1 2 3 2 3 2 4 2 4 8-.5 8-.5 4.5 3.5 4.5 3.5 5.5 3.5 5.5 3.5 2.5-4.5 2.5-4.5h-6.5-6.5l5-2 5-2 3-5 3-5 2.5-6.5 2.5-6.5 3.5-4.5 3.5-4.5-1 1-1 1h-1-1l-1 .5-1 .5-.5.5-.5.5h-1-1l-.5.5-.5.5h-.5-.5v-2-2l-1.5.5-1.5.5h-1-1-1.5-1.5v-1-1h-1-1l-1 .5-1 .5-1.5.5-1.5.5h-1-1-1.5-1.5l-1.5.5-1.5.5h-1-1-1.5-1.5l-2-.5-2-.5.5-2 .5-2-.5-4-.5-4-2.5-3.5-2.5-3.5-5.5-3.5-5.5-3.5-5.5-3.5-5.5-3.5 2-3 2-3-7-1.5-7-1.5-5.5-2.5-5.5-2.5-5-3-5-3-4.5-3.5-4.5-3.5-8-.5-8-.5 2-2 2-2-5-2-5-2-7.5-.5-7.5-.5 5-3.5 5-3.5-5-3-5-3-7.5-1.5-7.5-1.5-1-3-1-3-1-1.5-1-1.5-2.5 8.5-2.5 8.5 2 7.5 2 7.5 1 8 1 8 1.5 9 1.5 9v3 3l.5 1 .5 1v2 2l.5 2 .5 2-2.5 12-2.5 12 1 5.5 1 5.5.5 3.5.5 3.5 1.5 5.5 1.5 5.5 1.5 6.5 1.5 6.5 2 6.5 2 6.5 1 7 1 7 1 7 1 7" style="fill:#812c1f;stroke:#812c1f"/><path d="m72 959v1h10.5 10.5 8.5 8.5 9 9 9 9 9 9 8.5 8.5 9 9 9 9 9 9 9 9 8.5 8.5 9 9 9 9 9 9 8.5 8.5 4.5 4.5v-.5-.5l3-5 3-5 2-2.5 2-2.5 2-5.5 2-5.5 3.5-4.5 3.5-4.5 3-5 3-5 2-5 2-5 3.5-5.5 3.5-5.5 3-5.5 3-5.5 3-4 3-4 1.5-6.5 1.5-6.5 3.5-3.5 3.5-3.5 1.5-5 1.5-5 3-5 3-5 2.5-4.5 2.5-4.5 1.5-4.5 1.5-4.5-1-3.5-1-3.5 5-4 5-4 2-5 2-5-1-3-1-3 3.5-4 3.5-4 1.5-5.5 1.5-5.5 2-6 2-6v-5-5l2.5-6 2.5-6 1.5-6.5 1.5-6.5 1.5-6.5 1.5-6.5-1.5-4.5-1.5-4.5-2.5 6-2.5 6-3 6-3 6-5-1-5-1-1.5-1.5-1.5-1.5h-6-6l-1-4.5-1-4.5 5-4 5-4-2-1-2-1-6 1-6 1 1-2.5 1-2.5-5 1-5 1 6-3 6-3 3-3 3-3v-1.5-1.5l-6.5 2.5-6.5 2.5-6.5 2.5-6.5 2.5-6 3-6 3-5.5 3-5.5 3-6.5 2.5-6.5 2.5-6 3-6 3-1 2-1 2 6-2.5 6-2.5 6-2 6-2-6 3-6 3 1 1 1 1-5 3.5-5 3.5 1.5 1.5 1.5 1.5-6 3-6 3-2.5-.5-2.5-.5-6.5 2.5-6.5 2.5-6.5 2-6.5 2-6.5 2.5-6.5 2.5-6.5 2.5-6.5 2.5-6.5 2.5-6.5 2.5-2.5 3-2.5 3-7 5-7 5-2 4-2 4-8 8-8 8-5 5-5 5-3.5 4.5-3.5 4.5-2.5 5-2.5 5-5 4.5-5 4.5 1 1.5 1 1.5.5.5.5.5-1 .5-1 .5-1.5.5-1.5.5-.5 1.5-.5 1.5.5 1 .5 1-1 1-1 1h-1-1l-.5.5-.5.5-.5.5-.5.5.5 1 .5 1v1 1l-.5.5-.5.5-.5.5-.5.5-1 .5-1 .5-.5.5-.5.5-.5.5-.5.5-.5.5-.5.5v2 2h.5.5l-3.5 4.5-3.5 4.5-2.5 6.5-2.5 6.5-3 5-3 5-5 2-5 2h6.5 6.5l-2.5 4.5-2.5 4.5-5.5-3.5-5.5-3.5-4.5-3.5-4.5-3.5-8 .5-8 .5-2-4-2-4-2-3-2-3-7-1-7-1v-2.5-2.5l-4.5-3.5-4.5-3.5-1.5-3.5-1.5-3.5 4-4 4-4-6-3-6-3-4.5-4-4.5-4-4.5-3.5-4.5-3.5-.5-1.5-.5-1.5-2.5-2.5-2.5-2.5-7.5-1-7.5-1-6 2-6 2-6 3-6 3 4 4 4 4-3 3.5-3 3.5 4 1 4 1 6.5 2.5 6.5 2.5v4 4l-2.5 3-2.5 3 4 4 4 4 4 4 4 4-2 5-2 5-1.5 4-1.5 4 2 4 2 4 2.5 4.5 2.5 4.5-2.5 4.5-2.5 4.5 2.5 4 2.5 4-1 6-1 6 2.5 6 2.5 6" style="fill:#3d1712;stroke:#3d1712"/><path d="m350 959v1h1.5 1.5 2 2 2.5 2.5 2 2 2.5 2.5 2 2 1 1v-.5-.5l2.5-5.5 2.5-5.5 2-5.5 2-5.5 3-6 3-6 3-5 3-5 2.5-6.5 2.5-6.5 2-5 2-5 2.5-6 2.5-6 3.5-5.5 3.5-5.5 1.5-5.5 1.5-5.5 1.5-5.5 1.5-5.5 2.5-6 2.5-6 1-5 1-5 2-6 2-6 2.5-5.5 2.5-5.5.5-4 .5-4 3-5 3-5 1.5-7.5 1.5-7.5 1.5-4.5 1.5-4.5 1-5.5 1-5.5 2-6 2-6 .5-6.5.5-6.5 2-6 2-6 .5-6 .5-6 1.5-5.5 1.5-5.5 2-6 2-6 1-7 1-7-.5-4.5-.5-4.5 2.5-6 2.5-6 .5-3.5.5-3.5.5-4.5.5-4.5v-1-1l1-3.5 1-3.5 4.5-4.5 4.5-4.5 4.5-4.5 4.5-4.5v-2-2l-5 3.5-5 3.5-3.5 2.5-3.5 2.5 4.5-4.5 4.5-4.5-4 1-4 1-.5-4-.5-4-1-2-1-2 3-5 3-5v-5-5l-3-2.5-3-2.5 3-6 3-6 3.5-5.5 3.5-5.5-1.5-2.5-1.5-2.5-4.5.5-4.5.5 2-6.5 2-6.5 3-6 3-6-2.5-1.5-2.5-1.5v-7-7l1.5-7 1.5-7v-6-6l-1.5-4.5-1.5-4.5.5-6.5.5-6.5v-5.5-5.5l1-7 1-7 .5-7.5.5-7.5-2.5 3.5-2.5 3.5 1-6.5 1-6.5 1.5-7.5 1.5-7.5 2-7 2-7 2-7 2-7 .5-3 .5-3v-4-4l2.5-6.5 2.5-6.5 2.5-6.5 2.5-6.5 3-5.5 3-5.5 5.5-10 5.5-10v-3.5-3.5l-3.5 6-3.5 6-5.5 9-5.5 9 3-6.5 3-6.5 3-6 3-6 3-6 3-6v-3-3-2-2-2-2-2-2l-2.5 7-2.5 7-2.5 6-2.5 6-4.5 5-4.5 5 2.5-6.5 2.5-6.5 2.5-6 2.5-6 2.5-6.5 2.5-6.5 2-4 2-4v-3.5-3.5-2-2-2.5-2.5-2-2-2.5-2.5l-4 6.5-4 6.5-3 6-3 6-2 6.5-2 6.5-2.5 6.5-2.5 6.5-3 6-3 6-2.5 6.5-2.5 6.5-2 6.5-2 6.5-4 10.5-4 10.5 2-7.5 2-7.5 2-7 2-7 3-6 3-6 2.5-6.5 2.5-6.5 2.5-6 2.5-6 2.5-6.5 2.5-6.5 2.5-6.5 2.5-6.5 2-7 2-7 4-9.5 4-9.5v-10.5-10.5-9-9-9-9-9-9-8.5-8.5-9-9-9-9-9-9-1-1l-1-5.5-1-5.5-3 6-3 6-2 7-2 7-1.5 6.5-1.5 6.5-1.5 3-1.5 3 1-8 1-8 .5-7.5.5-7.5.5-6.5.5-6.5-2 2.5-2 2.5-2 7-2 7-2.5 6.5-2.5 6.5v-7-7-5.5-5.5l-2.5-1.5-2.5-1.5-2 6-2 6-3.5 3.5-3.5 3.5-2 6.5-2 6.5-1.5 7.5-1.5 7.5-2 7-2 7-2.5 9.5-2.5 9.5-.5-8.5-.5-8.5-1-8-1-8-3-2.5-3-2.5v-2-2l-3.5 3.5-3.5 3.5-3.5 2.5-3.5 2.5-1 1.5-1 1.5-6 6-6 6-3.5 5.5-3.5 5.5-.5 3-.5 3 4.5-4.5 4.5-4.5 5-4 5-4h1 1l-3.5 5-3.5 5-4 5-4 5-3.5 5.5-3.5 5.5-1 4-1 4-3.5 5-3.5 5v3 3l-1.5 3.5-1.5 3.5 4.5-4.5 4.5-4.5 4.5-4 4.5-4 4.5-4.5 4.5-4.5 4.5-4.5 4.5-4.5 5-3 5-3-4.5 4-4.5 4-4 5-4 5-.5 5.5-.5 5.5-4.5 4.5-4.5 4.5-4.5 4.5-4.5 4.5-4.5 4-4.5 4-4 5-4 5-4.5 4.5-4.5 4.5-5 4-5 4-4 4.5-4 4.5-5 4-5 4-5 4-5 4-5 4-5 4-4.5 4-4.5 4-5 4-5 4-5 4-5 4-5 4-5 4-4.5 4-4.5 4-5 4-5 4-5.5 5.5-5.5 5.5-1 1.5-1 1.5v1 1l-.5.5-.5.5-.5.5-.5.5-1 1.5-1 1.5-3.5 6.5-3.5 6.5-4.5 4.5-4.5 4.5 1 7.5 1 7.5-2.5 6.5-2.5 6.5-3.5 5.5-3.5 5.5-8.5 4-8.5 4-1.5 1-1.5 1-1.5-1-1.5-1-1.5.5-1.5.5h-2.5-2.5l-1.5.5-1.5.5-2 .5-2 .5-1.5.5-1.5.5-1.5-.5-1.5-.5 3.5-5.5 3.5-5.5-1.5-2-1.5-2 2-3.5 2-3.5-2.5-1.5-2.5-1.5 4.5-4.5 4.5-4.5-4-3.5-4-3.5 2.5-3.5 2.5-3.5-3.5-.5-3.5-.5-1.5-2.5-1.5-2.5-2.5-2-2.5-2-6 3-6 3-7.5 1.5-7.5 1.5-6.5-.5-6.5-.5-7 2-7 2-6.5-1-6.5-1-5.5 4.5-5.5 4.5 7.5 2.5 7.5 2.5 9.5 7 9.5 7 5.5 4.5 5.5 4.5 5 4 5 4 5.5 5.5 5.5 5.5-2-5-2-5 5 3.5 5 3.5h5.5 5.5 6.5 6.5l6-2 6-2-3 4-3 4 5 1 5 1 2.5.5 2.5.5 3-1.5 3-1.5 6-3 6-3 3 1 3 1-1.5-.5-1.5-.5.5-1 .5-1-.5-.5-.5-.5.5-.5.5-.5.5-.5.5-.5 1-.5 1-.5.5-.5.5-.5.5-.5.5-.5h1 1l.5 1 .5 1-.5.5-.5.5-.5.5-.5.5-.5.5-.5.5h-1.5-1.5l-.5.5-.5.5.5 1.5.5 1.5 5.5-4 5.5-4 1.5 6.5 1.5 6.5-2 6.5-2 6.5-2.5 5.5-2.5 5.5h3 3l5.5-3.5 5.5-3.5 5-3.5 5-3.5 5.5-3.5 5.5-3.5 4.5-4.5 4.5-4.5 2-4 2-4 4.5-.5 4.5-.5 5-3.5 5-3.5h2 2l-4.5 4.5-4.5 4.5 1.5 2.5 1.5 2.5-.5 2-.5 2 4 2 4 2-2 6-2 6 5-3 5-3 1-4.5 1-4.5 3-6 3-6 4.5-4.5 4.5-4.5 3.5-.5 3.5-.5 5-4 5-4 4-4.5 4-4.5 5-3.5 5-3.5 4-1 4-1-5 4-5 4 6-3 6-3 5-3.5 5-3.5 5-4 5-4 5.5-1.5 5.5-1.5-5.5 3.5-5.5 3.5-4.5 4-4.5 4-5.5 3.5-5.5 3.5-4.5 4.5-4.5 4.5-5 4.5-5 4.5-3.5 4.5-3.5 4.5-4 3-4 3 2 1 2 1 4.5-4 4.5-4 4.5-4.5 4.5-4.5 3 1 3 1h2.5 2.5l5-4 5-4 5.5-3.5 5.5-3.5 5.5-1.5 5.5-1.5 1.5-4 1.5-4 2.5-.5 2.5-.5 2-5 2-5 4 1 4 1 4.5-1 4.5-1 3.5 1.5 3.5 1.5 1 8 1 8v9 9l.5 8 .5 8-1.5 9.5-1.5 9.5-4 4-4 4-6 3-6 3-5.5 3.5-5.5 3.5-5.5 3-5.5 3-5 4-5 4-5.5 3.5-5.5 3.5-5 4-5 4-4.5 4-4.5 4-5 4-5 4-5.5 3.5-5.5 3.5-5 4-5 4-5 4-5 4-4 3.5-4 3.5v2 2l-6 3-6 3-5 6-5 6 1 1 1 1-.5.5-.5.5-.5.5-.5.5v1 1l-1-.5-1-.5v1 1l-.5.5-.5.5v1 1h1.5 1.5l.5-.5.5-.5h1 1v1 1l-.5.5-.5.5.5 1 .5 1-.5.5-.5.5.5.5.5.5-.5.5-.5.5v1 1l-1 .5-1 .5-1 .5-1 .5-1 1-1 1-.5.5-.5.5.5 1 .5 1-1 1-1 1-1.5-.5-1.5-.5.5-1 .5-1 .5-1 .5-1-1 .5-1 .5-.5.5-.5.5-.5 1-.5 1-.5 1.5-.5 1.5v1 1l-.5 1-.5 1v6.5 6.5l-.5 4.5-.5 4.5-3 5.5-3 5.5-1.5 6-1.5 6-.5 2.5-.5 2.5-1 1.5-1 1.5-.5 1.5-.5 1.5-.5 1.5-.5 1.5-1 1.5-1 1.5-.5 2.5-.5 2.5-.5 7-.5 7-3 5.5-3 5.5v4 4 5 5l5-1 5-1-5 3.5-5 3.5-3 5-3 5-1 5-1 5 6-3 6-3 1 1.5 1 1.5-4 5-4 5-4 5-4 5v3 3h2.5 2.5l4.5-.5 4.5-.5-5 4-5 4-3.5 4.5-3.5 4.5-3.5 4-3.5 4-3.5 4.5-3.5 4.5-3.5 5.5-3.5 5.5-4 4-4 4-4 5-4 5-3.5 5-3.5 5-5 6-5 6-1 1.5-1 1.5-1 1-1 1-.5 2-.5 2-1 1-1 1-1.5 1-1.5 1-1 1-1 1-1 .5-1 .5-2.5 6-2.5 6-6.5 9.5-6.5 9.5v1.5 1.5l-1 1.5-1 1.5-1.5.5-1.5.5-1.5 1-1.5 1h2 2l-.5 1-.5 1v2 2h.5.5l.5-.5.5-.5h1 1l.5-.5.5-.5 1-.5 1-.5h1 1l1-1 1-1h-.5-.5-1.5-1.5-1-1v-1-1l.5-1.5.5-1.5 1-1 1-1 1.5-1 1.5-1 .5-1.5.5-1.5 1-1.5 1-1.5 1-1 1-1 .5-1 .5-1h1 1l1-.5 1-.5.5-1.5.5-1.5 1.5-.5 1.5-.5 1-.5 1-.5-.5-.5-.5-.5-1-1.5-1-1.5v-.5-.5l4-3 4-3 .5-5.5.5-5.5 3.5-4.5 3.5-4.5 8-5.5 8-5.5v-.5-.5l4.5-5 4.5-5 3-3 3-3 2.5-3.5 2.5-3.5 7-5 7-5 2.5-3 2.5-3 6.5-2.5 6.5-2.5 6.5-2.5 6.5-2.5 6.5-2.5 6.5-2.5 6.5-2 6.5-2 6.5-2.5 6.5-2.5 2.5.5 2.5.5 6-3 6-3-1.5-1.5-1.5-1.5 5-3.5 5-3.5-1-1-1-1 6-3 6-3-6 2-6 2-6 2.5-6 2.5 1-2 1-2 6-3 6-3 6.5-2.5 6.5-2.5 5.5-3 5.5-3 6-3 6-3 6.5-2.5 6.5-2.5 6.5-2.5 6.5-2.5v1.5 1.5l-3 3-3 3-6 3-6 3 5-1 5-1-1 2.5-1 2.5 6-1 6-1 2 1 2 1-5 4-5 4 1 4.5 1 4.5h6 6l1.5 1.5 1.5 1.5 5 1 5 1 3-6 3-6 2.5-6 2.5-6 1.5 4.5 1.5 4.5-1.5 6.5-1.5 6.5-1.5 6.5-1.5 6.5-2.5 6-2.5 6v5 5l-2 6-2 6-1.5 5.5-1.5 5.5-3.5 4-3.5 4 1 3 1 3-2 5-2 5-5 4-5 4 1 3.5 1 3.5-1.5 4.5-1.5 4.5-2.5 4.5-2.5 4.5-3 5-3 5-1.5 5-1.5 5-3.5 3.5-3.5 3.5-1.5 6.5-1.5 6.5-3 4-3 4-3 5.5-3 5.5-3.5 5.5-3.5 5.5-2 5-2 5-3 5-3 5-3.5 4.5-3.5 4.5-2 5.5-2 5.5-2 2.5-2 2.5-3 5-3 5" style="fill:#6d3947;stroke:#6d3947"/><path d="m377 959v1h10.5 10.5 8.5 8.5 9 9 9 9 9 9 9 9 8.5 8.5 9 9 3 3v-6-6-9-9-8.5-8.5-9-9-9-9-9-9-8.5-8.5-9-9-9-9-9-9-8.5-8.5-9-9-9-9-9-9-8.5-8.5-9-9-9-9-9-9-9-9-8.5-8.5-9-9-9-9-9-9-8.5-8.5-9-9-9-9-9-9-8.5-8.5-9-9-9-9-9-9-8.5-8.5-9-9-9-9-9-9-8.5-8.5-9-9-9-9-2.5-2.5l-5.5 10-5.5 10-3 5.5-3 5.5-2.5 6.5-2.5 6.5-2.5 6.5-2.5 6.5v4 4l-.5 3-.5 3-2 7-2 7-2 7-2 7-1.5 7.5-1.5 7.5-1 6.5-1 6.5 2.5-3.5 2.5-3.5-.5 7.5-.5 7.5-1 7-1 7v5.5 5.5l-.5 6.5-.5 6.5 1.5 4.5 1.5 4.5v6 6l-1.5 7-1.5 7v7 7l2.5 1.5 2.5 1.5-3 6-3 6-2 6.5-2 6.5 4.5-.5 4.5-.5 1.5 2.5 1.5 2.5-3.5 5.5-3.5 5.5-3 6-3 6 3 2.5 3 2.5v5 5l-3 5-3 5 1 2 1 2 .5 4 .5 4 4-1 4-1-4.5 4.5-4.5 4.5 3.5-2.5 3.5-2.5 5-3.5 5-3.5v2 2l-4.5 4.5-4.5 4.5-4.5 4.5-4.5 4.5-1 3.5-1 3.5v1 1l-.5 4.5-.5 4.5-.5 3.5-.5 3.5-2.5 6-2.5 6 .5 4.5.5 4.5-1 7-1 7-2 6-2 6-1.5 5.5-1.5 5.5-.5 6-.5 6-2 6-2 6-.5 6.5-.5 6.5-2 6-2 6-1 5.5-1 5.5-1.5 4.5-1.5 4.5-1.5 7.5-1.5 7.5-3 5-3 5-.5 4-.5 4-2.5 5.5-2.5 5.5-2 6-2 6-1 5-1 5-2.5 6-2.5 6-1.5 5.5-1.5 5.5-1.5 5.5-1.5 5.5-3.5 5.5-3.5 5.5-2.5 6-2.5 6-2 5-2 5-2.5 6.5-2.5 6.5-3 5-3 5-3 6-3 6-2 5.5-2 5.5-2.5 5.5-2.5 5.5" style="fill:#3d1712;stroke:#3d1712"/><path d="m35 955l1-1 .5-1.5.5-1.5-.5-1-.5-1v-1-1l-.5-1.5-.5-1.5-.5-1-.5-1-.5-.5-.5-.5-.5-1.5-.5-1.5h-.5-.5l-.5.5-.5.5-.5.5-.5.5v1 1l.5 1.5.5 1.5.5 2 .5 2 .5 1.5.5 1.5 1.5 1.5 1.5 1.5" style="fill:#c85639;stroke:#c85639"/><path d="m254 896l10-8 4.5-4 4.5-4 3.5-5.5 3.5-5.5-4.5 2.5-4.5 2.5-6 3-6 3-2 5-2 5-2.5 3-2.5 3h2 2" style="fill:#6d3947;stroke:#6d3947"/><path d="m25 867l1-1 .5-1.5.5-1.5 1-.5 1-.5.5-.5.5-.5v-2-2-2.5-2.5l-.5-2-.5-2v-2-2l-.5-1-.5-1h-1.5-1.5l-.5.5-.5.5-.5.5-.5.5h-1.5-1.5l-5 7-5 7 5 2 5 2 2.5 2.5 2.5 2.5" style="fill:#c85639;stroke:#c85639"/><path d="m147 865l4 1h1.5 1.5 1 1l1.5-.5 1.5-.5h1.5 1.5 1 1l1.5-.5 1.5-.5 1-.5 1-.5h1 1v1 1h1.5 1.5 1 1l1.5-.5 1.5-.5.5-1 .5-1h-2-2l1.5-1 1.5-1 1.5-.5 1.5-.5 1-1.5 1-1.5v-1.5-1.5l-2-.5-2-.5-3-2.5-3-2.5-3-3-3-3-2-3-2-3 .5-4 .5-4-2.5-3.5-2.5-3.5 7.5-1.5 7.5-1.5h6 6l7.5 2.5 7.5 2.5 1-.5 1-.5 1-1 1-1-4.5-2.5-4.5-2.5-7-.5-7-.5-6 1-6 1-7.5 1.5-7.5 1.5-4 3-4 3h-1.5-1.5-8-8l-7-2-7-2-.5-1.5-.5-1.5-2.5-2-2.5-2-7-2-7-2-6.5-2.5-6.5-2.5-3-3-3-3-7-1-7-1-1.5-4-1.5-4-4.5-3.5-4.5-3.5-4.5-3.5-4.5-3.5-3.5-4.5-3.5-4.5-3-3.5-3-3.5-5-2-5-2-.5 4.5-.5 4.5 1 12 1 12 2.5-8.5 2.5-8.5 1 1.5 1 1.5 1 3 1 3 7.5 1.5 7.5 1.5 5 3 5 3-5 3.5-5 3.5 7.5.5 7.5.5 5 2 5 2-2 2-2 2 8 .5 8 .5 4.5 3.5 4.5 3.5 5 3 5 3 5.5 2.5 5.5 2.5 7 1.5 7 1.5-2 3-2 3 5.5 3.5 5.5 3.5 5.5 3.5 5.5 3.5 2.5 3.5 2.5 3.5.5 4 .5 4-.5 2-.5 2" style="fill:#b83b1b;stroke:#b83b1b"/><g style="fill:#812c1f;stroke:#812c1f"><path d="m184 863h2 1.5 1.5v-2-2l.5-.5.5-.5.5-.5.5-.5.5-.5.5-.5 1-.5 1-.5.5-.5.5-.5.5-.5.5-.5v-1-1l-.5-1-.5-1 .5-.5.5-.5.5-.5.5-.5h1 1l1-1 1-1-.5-1-.5-1-1 .5-1 .5h-1-1l-.5 1-.5 1-1 1-1 1-1 1.5-1 1.5-.5 1.5-.5 1.5-1.5 1-1.5 1-1 1-1 1-.5 1.5-.5 1.5v1 1"/><path d="m0 854v1l1-.5 1-.5 1.5-1 1.5-1 1-1 1-1 .5-2 .5-2 1.5-.5 1.5-.5 2-.5 2-.5 1.5-.5 1.5-.5 1 .5 1 .5v-.5-.5-3-3l-2-2-2-2-4-1.5-4-1.5h-2-2-2-2v2.5 2.5 2.5 2.5 2 2 2.5 2.5 2 2 .5.5"/><path d="m180 852l4 1 6.5-9.5 6.5-9.5 2.5-6 2.5-6-7.5-2.5-7.5-2.5h-6-6l-7.5 1.5-7.5 1.5 2.5 3.5 2.5 3.5-.5 4-.5 4 2 3 2 3 3 3 3 3 3 2.5 3 2.5"/></g><path d="m20 843v1h1.5 1.5l.5-.5.5-.5.5-.5.5-.5h1.5 1.5v-3-3l-1 .5-1 .5-2-1-2-1-1-1-1-1-.5-1-.5-1-1.5-.5-1.5-.5h-2-2-2-2l4 1.5 4 1.5 2 2 2 2v3 3" style="fill:#b83b1b;stroke:#b83b1b"/><path d="m26 837l2-1-1.5-9-1.5-9-1-8-1-8-2-7.5-2-7.5-1-12-1-12 .5-4.5.5-4.5 5 2 5 2 3 3.5 3 3.5 3.5 4.5 3.5 4.5 4.5 3.5 4.5 3.5 4.5 3.5 4.5 3.5 1.5 4 1.5 4 7 1 7 1 3 3 3 3 6.5 2.5 6.5 2.5 7 2 7 2 2.5 2 2.5 2 .5 1.5.5 1.5 7 2 7 2h8 8 1.5 1.5l4-3 4-3 7.5-1.5 7.5-1.5 6-1 6-1 7 .5 7 .5 4.5 2.5 4.5 2.5 1.5-1 1.5-1 1-1 1-1 .5-2 .5-2 1-1 1-1 1-1.5 1-1.5v-.5-.5l.5-2 .5-2 .5-.5.5-.5.5-.5.5-.5v-1-1l1-.5 1-.5.5-.5.5-.5.5-.5.5-.5v-1-1l.5-.5.5-.5.5-.5.5-.5.5-1 .5-1 .5-1.5.5-1.5h-7-7l-7.5-1.5-7.5-1.5-6-2.5-6-2.5-7-2-7-2-5-3-5-3-5-3-5-3-8.5-.5-8.5-.5h-8.5-8.5l-2-1-2-1 5-2 5-2-6-1-6-1-1-2.5-1-2.5-7-1-7-1-6.5-1.5-6.5-1.5-4-1-4-1-4-1.5-4-1.5h-8-8l-6 1-6 1 3.5-.5 3.5-.5 6 1.5 6 1.5 5 2 5 2 2 4 2 4 3.5 2.5 3.5 2.5 7.5 1 7.5 1-6 1-6 1-6.5 1.5-6.5 1.5 3 2 3 2 1.5 3 1.5 3 5 4 5 4 .5 3.5.5 3.5 6.5 1.5 6.5 1.5 2.5 1 2.5 1 3.5 1.5 3.5 1.5 3 3 3 3 1.5 5 1.5 5-7.5-2-7.5-2-6-3-6-3-5.5-3-5.5-3-6.5-2.5-6.5-2.5-5-4-5-4-5-4-5-4-4.5-4-4.5-4-4.5-4.5-4.5-4.5-4.5-4.5-4.5-4.5-5.5-2.5-5.5-2.5 3.5-3 3.5-3-4-2-4-2-.5-8.5-.5-8.5-1-8-1-8-1-7.5-1-7.5-.5-8.5-.5-8.5-.5-7.5-.5-7.5-1-8-1-8 3.5-3 3.5-3 4 5 4 5 5 4 5 4 4 3 4 3 5 4 5 4h5.5 5.5l6.5.5 6.5.5 6.5.5 6.5.5 5 1 5 1 3-3.5 3-3.5 6.5 1.5 6.5 1.5 4.5-1.5 4.5-1.5 2 2 2 2 3.5-1 3.5-1 1.5-2.5 1.5-2.5 7.5 1.5 7.5 1.5 7 1 7 1 7 1.5 7 1.5 8 1 8 1 15.5 1.5 15.5 1.5-2-3-2-3-7.5.5-7.5.5-7.5-.5-7.5-.5-8-1-8-1-7-1.5-7-1.5-8-1-8-1-8-1-8-1-8.5-.5-8.5-.5-8-.5-8-.5-8.5-.5-8.5-.5-8-1-8-1-7.5-1.5-7.5-1.5-7-1.5-7-1.5-6-3-6-3-5-4-5-4-4.5-12-4.5-12 2-6.5 2-6.5h8 8l2-2 2-2 3-1 3-1 7-1.5 7-1.5 6.5.5 6.5.5 5.5-.5 5.5-.5 6.5-.5 6.5-.5-2 3.5-2 3.5h7 7l5.5 1.5 5.5 1.5 7.5-1.5 7.5-1.5-1.5 3-1.5 3 8.5-.5 8.5-.5 6.5-.5 6.5-.5 5.5-2.5 5.5-2.5 6.5-2 6.5-2 7-1 7-1 6.5-1.5 6.5-1.5 2.5 2.5 2.5 2.5-5 .5-5 .5-6.5 1.5-6.5 1.5-6 3-6 3-6.5 1.5-6.5 1.5-6.5 1-6.5 1 2 1 2 1 7.5-.5 7.5-.5 8-1 8-1 6-2 6-2 6.5-1 6.5-1 5-2 5-2 7-1 7-1 7.5-.5 7.5-.5 5 1.5 5 1.5 2 1 2 1-6.5 1.5-6.5 1.5.5 3.5.5 3.5 7-.5 7-.5 2.5-3.5 2.5-3.5 6.5.5 6.5.5 6-1 6-1 5.5-9 5.5-9v-1.5-1.5l.5-1 .5-1 .5-1.5.5-1.5v-1-1l-.5-1-.5-1-.5 1.5-.5 1.5v2 2l-.5 2-.5 2-.5 1.5-.5 1.5-1 1.5-1 1.5-.5 1.5-.5 1.5-1 1.5-1 1.5h-1-1l-2-.5-2-.5-3.5-3.5-3.5-3.5-5-.5-5-.5-1 2-1 2h-7-7l-7-1-7-1 1-3.5 1-3.5-7 1-7 1-6.5.5-6.5.5-7 1-7 1 5.5-2.5 5.5-2.5-7 1.5-7 1.5-8 1-8 1-6.5-.5-6.5-.5-4.5 1.5-4.5 1.5-7 .5-7 .5-4-2-4-2-3.5 2.5-3.5 2.5-2.5-1.5-2.5-1.5-7-.5-7-.5-7-2-7-2-4.5-.5-4.5-.5 4-2 4-2h-5.5-5.5l-4.5-2.5-4.5-2.5-4.5-2.5-4.5-2.5-7 1-7 1v-4.5-4.5l-4-2-4-2-7.5.5-7.5.5-1.5 1.5-1.5 1.5-.5 4-.5 4-2 4-2 4-4 3-4 3-1-4-1-4-1-4.5-1-4.5 1.5-1.5 1.5-1.5-.5-3.5-.5-3.5-.5-5.5-.5-5.5.5-6 .5-6 3.5-4.5 3.5-4.5 8-1 8-1 7.5-.5 7.5-.5-5.5-1.5-5.5-1.5h-6.5-6.5-7-7l3.5-5.5 3.5-5.5-4-4-4-4-1-7.5-1-7.5-4.5-13-4.5-13v.5.5l2.5 6.5 2.5 6.5 1.5 7 1.5 7 1 8 1 8v10.5 10.5 2 2 2 2 2.5 2.5l-.5 1.5-.5 1.5v2 2l-.5 2-.5 2-.5 1-.5 1-1 1-1 1 .5.5.5.5-.5 1-.5 1v2 2l-.5.5-.5.5-.5 1-.5 1v2 2 1 1l-.5 1-.5 1v2 2l-1 .5-1 .5v10.5 10.5 8.5 8.5 9 9 9 9 1.5 1.5l1.5 7 1.5 7-.5 7.5-.5 7.5 1 6 1 6 1.5 7 1.5 7v7 7l2 7 2 7-2 6-2 6-.5 6-.5 6 3 6 3 6-4.5 3-4.5 3 1 1 1 1h1 1l1 .5 1 .5 1 1 1 1 .5.5.5.5.5 1 .5 1 1 1 1 1-.5.5-.5.5h-1.5-1.5-2-2l-2-.5-2-.5-.5 1.5-.5 1.5-1 .5-1 .5v1.5 1.5 1.5 1.5l2 1 2 1h1.5 1.5l2 .5 2 .5 1.5 1 1.5 1 .5 1.5.5 1.5-1.5 1-1.5 1h-2-2l-1.5 1-1.5 1-1.5.5-1.5.5-1 .5-1 .5v2 2h2 2l.5.5.5.5h1.5 1.5l2.5.5 2.5.5 2 .5 2 .5 1 1 1 1-.5 1-.5 1h-2-2l-2 .5-2 .5-1.5.5-1.5.5h-2-2l-.5 1-.5 1-1 .5-1 .5v3 3 2 2 1 1h2 2 2 2 2 2 2 2l1.5.5 1.5.5.5 1 .5 1 1 1 1 1 2 1 2 1" style="fill:#c85639;stroke:#c85639"/><path d="m203 833v1l5-4.5 5-4.5 2.5-5 2.5-5 3.5-4.5 3.5-4.5 5-5 5-5-8 5.5-8 5.5-3.5 4.5-3.5 4.5-.5 5.5-.5 5.5-4 3-4 3" style="fill:#812c1f;stroke:#812c1f"/><path d="m24 829h2l-.5-1.5-.5-1.5-2-.5-2-.5-1.5-.5-1.5-.5-.5 1-.5 1 1 1 1 1 2 .5 2 .5h.5.5" style="fill:#9b5e74;stroke:#9b5e74"/><path d="m0 817v1l1-.5 1-.5.5-1 .5-1h2 2l1.5-.5 1.5-.5 2-.5 2-.5h2 2l.5-1 .5-1-1-1-1-1-2-.5-2-.5-2.5-.5-2.5-.5 1 1 1 1h1.5 1.5l.5.5.5.5.5.5.5.5h-1-1-1.5-1.5-1-1-1-1l-.5.5-.5.5-1.5-.5-1.5-.5h-1-1v2.5 2.5.5.5" style="fill:#b83b1b;stroke:#b83b1b"/><path d="m123 814l-3-10-3-3-3-3-3.5-1.5-3.5-1.5-2.5-1-2.5-1-6.5-1.5-6.5-1.5-.5-3.5-.5-3.5-5-4-5-4-1.5-3-1.5-3-3-2-3-2 6.5-1.5 6.5-1.5 6-1 6-1-7.5-1-7.5-1-3.5-2.5-3.5-2.5-2-4-2-4-5-2-5-2-6-1.5-6-1.5-3.5.5-3.5.5 6-1 6-1h8 8l4 1.5 4 1.5 4 1 4 1 6.5 1.5 6.5 1.5 7 1 7 1 1 2.5 1 2.5 6 1 6 1-5 2-5 2 2 1 2 1h8.5 8.5l8.5.5 8.5.5 5 3 5 3 5 3 5 3 7 2 7 2 6 2.5 6 2.5 7.5 1.5 7.5 1.5h7 7l.5-1.5.5-1.5 1-2 1-2h-1.5-1.5-1-1-1.5-1.5l-1-.5-1-.5-1-4.5-1-4.5-7-2-7-2-7-2-7-2-2-1.5-2-1.5 7.5-1.5 7.5-1.5 4-1 4-1-8.5.5-8.5.5-4.5-3-4.5-3h-7-7l1-2 1-2 7.5-1.5 7.5-1.5 3-1 3-1 3-1.5 3-1.5-7-1-7-1-7 1-7 1 7-2 7-2 4.5-1 4.5-1h7 7 7 7l-6 2-6 2 5 1.5 5 1.5 8.5-.5 8.5-.5 2.5 1.5 2.5 1.5-4.5 1.5-4.5 1.5 6 1.5 6 1.5v3 3l2-6.5 2-6.5 4.5-12 4.5-12h-1-1l-3.5-2-3.5-2-5-3-5-3-6.5-1.5-6.5-1.5-5-2.5-5-2.5-6.5-2.5-6.5-2.5-2.5-3.5-2.5-3.5 5 2 5 2 5-3 5-3h5.5 5.5 4 4l-.5-1-.5-1-1.5-.5-1.5-.5-.5-.5-.5-.5-1-.5-1-.5-1-1-1-1v-.5-.5h-.5-.5l-15.5-1.5-15.5-1.5-8-1-8-1-7-1.5-7-1.5-7-1-7-1-7.5-1.5-7.5-1.5-1.5 2.5-1.5 2.5-3.5 1-3.5 1-2-2-2-2-4.5 1.5-4.5 1.5-6.5-1.5-6.5-1.5-3 3.5-3 3.5-5-1-5-1-6.5-.5-6.5-.5-6.5-.5-6.5-.5h-5.5-5.5l-5-4-5-4-4-3-4-3-5-4-5-4-4-5-4-5-3.5 3-3.5 3 1 8 1 8 .5 7.5.5 7.5.5 8.5.5 8.5 1 7.5 1 7.5 1 8 1 8 .5 8.5.5 8.5 4 2 4 2-3.5 3-3.5 3 5.5 2.5 5.5 2.5 4.5 4.5 4.5 4.5 4.5 4.5 4.5 4.5 4.5 4 4.5 4 5 4 5 4 5 4 5 4 6.5 2.5 6.5 2.5 5.5 3 5.5 3 6 3 6 3 7.5 2 7.5 2" style="fill:#e57350;stroke:#e57350"/><path d="m162 812l3 1 1.5-.5 1.5-.5 2-.5 2-.5 1.5-.5 1.5-.5-.5-1-.5-1h-2-2l-2 .5-2 .5-1.5.5-1.5.5-.5 1-.5 1" style="fill:#b83b1b;stroke:#b83b1b"/><path d="m2 811l3 1 .5-.5.5-.5h1 1 1 1 1.5 1.5 1 1l-.5-.5-.5-.5-.5-.5-.5-.5h-1.5-1.5l-1-1-1-1h-1.5-1.5l-.5-.5-.5-.5h-2-2v2 2 .5.5h1 1" style="fill:#812c1f;stroke:#812c1f"/><path d="m173 806h2 2 2l1.5-1 1.5-1 1.5-.5 1.5-.5 1.5-1 1.5-1h-2-2-2.5-2.5l-1.5.5-1.5.5h-2-2l.5 1 .5 1v1 1" style="fill:#b83b1b;stroke:#b83b1b"/><path d="m216 805v1l5-6 5-6 3.5-5 3.5-5 4-5 4-5 4-4 4-4 3.5-5.5 3.5-5.5 3.5-4.5 3.5-4.5 3.5-4 3.5-4 3.5-4.5 3.5-4.5 5-4 5-4-4.5.5-4.5.5h-2.5-2.5v-3-3l4-5 4-5 4-5 4-5-1-1.5-1-1.5-6 3-6 3 1-5 1-5 3-5 3-5 5-3.5 5-3.5-5 1-5 1v-5-5-4-4l3-5.5 3-5.5.5-7 .5-7-.5-1-.5-1-.5-.5-.5-.5-.5-1-.5-1-.5-1.5-.5-1.5v1 1l-.5 1-.5 1-.5 1.5-.5 1.5v1 1l-.5 1-.5 1-.5 1.5-.5 1.5-.5 1.5-.5 1.5v.5.5l-.5 2.5-.5 2.5-1 1-1 1-.5 2-.5 2v1 1l-.5 2-.5 2-.5 1.5-.5 1.5-.5 1.5-.5 1.5-.5 1.5-.5 1.5-1 1.5-1 1.5v2.5 2.5l-.5 1.5-.5 1.5-1 1.5-1 1.5v2 2l-1.5 2-1.5 2v2 2l-.5 1-.5 1h-1.5-1.5v.5.5l1 .5 1 .5-.5 1.5-.5 1.5v1 1l-1 .5-1 .5v2 2l-.5.5-.5.5v1.5 1.5l-1 1-1 1-4.5 12-4.5 12-2 6.5-2 6.5-.5 1-.5 1-.5 1.5-.5 1.5-.5 1.5-.5 1.5-1 1.5-1 1.5-.5 1.5-.5 1.5-1 1-1 1-.5 2-.5 2-1 1-1 1-1 1.5-1 1.5-.5 1.5-.5 1.5-1 2-1 2-.5 1.5-.5 1.5-.5 1.5-.5 1.5-.5 1-.5 1-.5.5-.5.5-.5.5-.5.5v1 1l-.5.5-.5.5-.5.5-.5.5-1 .5-1 .5v1 1l-.5.5-.5.5-.5.5-.5.5-.5 2-.5 2" style="fill:#9b5e74;stroke:#9b5e74"/><path d="m0 801v1l1-.5 1-.5 1.5-.5 1.5-.5 1.5-1 1.5-1h2 2l1.5-1 1.5-1-.5-1.5-.5-1.5-1.5-1-1.5-1-2-.5-2-.5.5 1 .5 1-1.5.5-1.5.5-1 1-1 1h-1.5-1.5v1.5 1.5 1.5 1.5" style="fill:#b83b1b;stroke:#b83b1b"/><g style="fill:#812c1f;stroke:#812c1f"><path d="m235 795v1l8-8 8-8 2-4 2-4-2.5 3.5-2.5 3.5-3 3-3 3-4.5 5-4.5 5"/><path d="m0 794v1h1.5 1.5l1-1 1-1 1.5-.5 1.5-.5-.5-1-.5-1h-1.5-1.5l-2-1-2-1v3 3"/></g><path d="m18 793l1-1-.5-1.5-.5-1.5-.5-2-.5-2-1-1-1-1-.5 1-.5 1v2 2l1 1.5 1 1.5 1 .5 1 .5" style="fill:#e57350;stroke:#e57350"/><g style="fill:#b83b1b;stroke:#b83b1b"><path d="m154 790l16-2 7.5-1 7.5-1-6-1-6-1-7 2-7 2-2.5 1-2.5 1"/><path d="m143 785l19-1 6.5-2 6.5-2-8.5.5-8.5.5-7.5.5-7.5.5-7.5-1.5-7.5-1.5 4 2.5 4 2.5 3.5.5 3.5.5"/><path d="m0 781v1l1-.5 1-.5.5-1.5.5-1.5 2 .5 2 .5h2 2 1.5 1.5l.5-.5.5-.5-1-1-1-1-1.5.5-1.5.5h-1-1-2-2-2-2v2 2"/></g><path d="m8 777h2l1.5-.5 1.5-.5-.5-1-.5-1-.5-.5-.5-.5-1-1-1-1-1-.5-1-.5h-1-1l-1-1-1-1-1-.5-1-.5-.5-.5-.5-.5v2 2 2 2 1.5 1.5h2 2 2 2" style="fill:#812c1f;stroke:#812c1f"/><path d="m220 777l2 1h1.5 1.5 1 1 1.5 1.5l.5-1.5.5-1.5 1-1.5 1-1.5 1-1 1-1 .5-2 .5-2 1-1 1-1 .5-1.5.5-1.5 1-1.5 1-1.5.5-1.5.5-1.5.5-1.5.5-1.5.5-1 .5-1v-3-3l-6-1.5-6-1.5 4.5-1.5 4.5-1.5-2.5-1.5-2.5-1.5-8.5.5-8.5.5-5-1.5-5-1.5 6-2 6-2h-7-7-7-7l-4.5 1-4.5 1-7 2-7 2 7-1 7-1 7 1 7 1-3 1.5-3 1.5-3 1-3 1-7.5 1.5-7.5 1.5-1 2-1 2h7 7l4.5 3 4.5 3 8.5-.5 8.5-.5-4 1-4 1-7.5 1.5-7.5 1.5 2 1.5 2 1.5 7 2 7 2 7 2 7 2 1 4.5 1 4.5" style="fill:#c85639;stroke:#c85639"/><g style="fill:#b83b1b;stroke:#b83b1b"><path d="m114 770l18-2h-5.5-5.5l-3.5 1-3.5 1"/><path d="m1 767l2 1 4.5-3 4.5-3-3-6-3-6 .5-6 .5-6 2-6 2-6-2-7-2-7v-7-7l-1.5-7-1.5-7-1-6-1-6 .5-7.5.5-7.5-1.5-7-1.5-7v2.5 2.5 2.5 2.5 2 2 2.5 2.5 2 2 2.5 2.5 2 2 2 2 2.5 2.5 1.5 1.5l1.5 1 1.5 1 .5 2 .5 2 .5 1.5.5 1.5v2.5 2.5l-1 1-1 1h-1.5-1.5v.5.5l2.5 7 2.5 7 .5 5.5.5 5.5-3 4.5-3 4.5v1.5 1.5 2.5 2.5.5.5l1 .5 1 .5.5 1 .5 1 1.5 1 1.5 1 .5 1.5.5 1.5-.5 2-.5 2-.5 1.5-.5 1.5-1.5-.5-1.5-.5h-1-1v2 2 .5.5l.5.5.5.5"/></g><path d="m2 761l3 1 .5-1.5.5-1.5.5-2 .5-2-.5-1.5-.5-1.5-1.5-1-1.5-1-.5-1-.5-1-1-.5-1-.5v1.5 1.5 2 2 2 2 1.5 1.5h1 1" style="fill:#812c1f;stroke:#812c1f"/><path d="m333 752h2l1-1 1-1 2-.5 2-.5 1-1 1-1 1.5-1 1.5-1 .5-.5.5-.5 1.5-1 1.5-1-1-1-1-1-1-1-1-1h-2.5-2.5-1-1l-1.5 1-1.5 1-.5 1.5-.5 1.5-.5 2-.5 2v1 1l-.5 1.5-.5 1.5" style="fill:#6d3947;stroke:#6d3947"/><path d="m298 739l14-6 3-2.5 3-2.5-6 3-6 3-4 2.5-4 2.5" style="fill:#3d1712;stroke:#3d1712"/><path d="m348 739v1h1.5 1.5l1-1 1-1 1.5-1 1.5-1 1.5-.5 1.5-.5-1-.5-1-.5h-1-1l-2 .5-2 .5-1 1-1 1-.5.5-.5.5v.5.5" style="fill:#6d3947;stroke:#6d3947"/><path d="m0 737v1l3-4.5 3-4.5-.5-5.5-.5-5.5-2.5-7-2.5-7v2.5 2.5 2.5 2.5 2 2 2 2 2.5 2.5 2 2 2.5 2.5.5.5" style="fill:#812c1f;stroke:#812c1f"/><g style="fill:#c85639;stroke:#c85639"><path d="m161 728l3 1h2 2l2-.5 2-.5h2 2l2-.5 2-.5v-1-1l-2 .5-2 .5h-2-2-2-2l-2 .5-2 .5-1.5.5-1.5.5"/><path d="m190 727l8-4-3-1.5-3-1.5 6.5.5 6.5.5 6.5-2.5 6.5-2.5-1.5-1.5-1.5-1.5-5.5-1-5.5-1 6.5-1.5 6.5-1.5-3-1-3-1-5-2-5-2-6-3-6-3h-8.5-8.5l-4.5-1.5-4.5-1.5-6.5-1.5-6.5-1.5-6.5 2.5-6.5 2.5-2 3.5-2 3.5 6.5 2.5 6.5 2.5 6.5.5 6.5.5-2 3-2 3 2 .5 2 .5 8.5.5 8.5.5h5 5l-7 2-7 2 3 1.5 3 1.5 4.5.5 4.5.5 1.5 1.5 1.5 1.5"/></g><path d="m255 713h2l1-1 1-1v-1.5-1.5l.5-.5.5-.5v-2-2l1-.5 1-.5v-1-1l.5-1.5.5-1.5-1-.5-1-.5-1-.5-1-.5-1-.5-1-.5-1-.5-1-.5-1-1-1-1h-1-1l-1-.5-1-.5-1-1-1-1-.5-.5-.5-.5-1-.5-1-.5-1.5-.5-1.5-.5-.5-.5-.5-.5-1-.5-1-.5-1-1-1-1h-4-4-5.5-5.5l-5 3-5 3-5-2-5-2 2.5 3.5 2.5 3.5 6.5 2.5 6.5 2.5 5 2.5 5 2.5 6.5 1.5 6.5 1.5 5 3 5 3 3.5 2 3.5 2" style="fill:#fe9a6c;stroke:#fe9a6c"/><path d="m0 702v1h1.5 1.5l1-1 1-1v-2.5-2.5l-.5-1.5-.5-1.5-.5-2-.5-2-1.5-1-1.5-1v2 2 2 2 2 2 1.5 1.5" style="fill:#812c1f;stroke:#812c1f"/><path d="m259 695l2 1v-.5-.5l-.5-.5-.5-.5-1.5-1-1.5-1-.5-.5-.5-.5-1-.5-1-.5-1.5-1-1.5-1-1.5-.5-1.5-.5-1-1-1-1h-1-1l-.5-1-.5-1-1.5-.5-1.5-.5-1.5-1-1.5-1-1-1-1-1-1.5-1-1.5-1-2-1-2-1h-.5-.5l1 1 1 1 1 .5 1 .5.5.5.5.5 1.5.5 1.5.5.5 1 .5 1 1 1 1 1 1 .5 1 .5.5.5.5.5 1.5.5 1.5.5 1 .5 1 .5.5.5.5.5 1 1 1 1 1 .5 1 .5h1 1l1 1 1 1 1 .5 1 .5 1 .5 1 .5" style="fill:#c85639;stroke:#c85639"/><path d="m260 694l1 1h1.5 1.5l.5-1 .5-1v-2-2l-2-.5-2-.5-.5.5-.5.5-.5 1-.5 1-1 .5-1 .5 1.5 1 1.5 1" style="fill:#b83b1b;stroke:#b83b1b"/><path d="m256 691l1 1 1-.5 1-.5.5-1 .5-1 .5-.5.5-.5 2 .5 2 .5 1.5-2 1.5-2v-2-2l1-1.5 1-1.5.5-1.5.5-1.5v-2.5-2.5l1-1.5 1-1.5-6-2.5-6-2.5-7.5 1.5-7.5 1.5-3-3-3-3 1.5-2 1.5-2-7.5 9.5-7.5 9.5 2 1 2 1 1.5 1 1.5 1 1 1 1 1 1.5 1 1.5 1 1.5.5 1.5.5.5 1 .5 1h1 1l1 1 1 1 1.5.5 1.5.5 1.5 1 1.5 1 1 .5 1 .5" style="fill:#812c1f;stroke:#812c1f"/><path d="m452 677l10-10-2-2.5-2-2.5-6 3-6 3 3.5.5 3.5.5 1.5 2.5 1.5 2.5-2 1.5-2 1.5" style="fill:#9b5e74;stroke:#9b5e74"/><path d="m227 673v1h.5.5l7.5-9.5 7.5-9.5-1.5 2-1.5 2 3 3 3 3 7.5-1.5 7.5-1.5 6 2.5 6 2.5.5-1.5.5-1.5v-.5-.5l-4-2-4-2 1.5-2 1.5-2 4-4.5 4-4.5-5-1-5-1h-7.5-7.5l-2-3-2-3 5.5-3.5 5.5-3.5-1.5-2.5-1.5-2.5 9-6 9-6 1-.5 1-.5 1-1 1-1 1-1 1-1 1.5-1 1.5-1 1-1 1-1 1.5-1 1.5-1 1-1 1-1 .5-.5.5-.5.5-1 .5-1 1-1 1-1 .5 1.5.5 1.5.5.5.5.5v1.5 1.5l1 1 1 1v2 2l1.5-6 1.5-6 3-5.5 3-5.5.5-4.5.5-4.5v-6.5-6.5l-1 2.5-1 2.5-.5 1-.5 1-.5 2-.5 2-1 1-1 1-1 1-1 1-.5 1-.5 1v-2-2l-5.5 9-5.5 9-6 1-6 1-6.5-.5-6.5-.5-2.5 3.5-2.5 3.5-7 .5-7 .5-.5-3.5-.5-3.5 6.5-1.5 6.5-1.5-2-1-2-1-5-1.5-5-1.5-7.5.5-7.5.5-7 1-7 1-5 2-5 2-6.5 1-6.5 1-6 2-6 2-8 1-8 1-7.5.5-7.5.5-2-1-2-1 6.5-1 6.5-1 6.5-1.5 6.5-1.5 6-3 6-3 6.5-1.5 6.5-1.5 5-.5 5-.5-2.5-2.5-2.5-2.5-6.5 1.5-6.5 1.5-7 1-7 1-6.5 2-6.5 2-5.5 2.5-5.5 2.5-6.5.5-6.5.5-8.5.5-8.5.5 1.5-3 1.5-3-7.5 1.5-7.5 1.5-5.5-1.5-5.5-1.5h-7-7l2-3.5 2-3.5-6.5.5-6.5.5-5.5.5-5.5.5-6.5-.5-6.5-.5-7 1.5-7 1.5-3 1-3 1-2 2-2 2h-8-8l-2 6.5-2 6.5 6.5-.5 6.5-.5 8-1 8-1 7.5-1.5 7.5-1.5 8-1 8-1 8 .5 8 .5h8 8l7.5.5 7.5.5 7.5-.5 7.5-.5 5 3.5 5 3.5 8.5-.5 8.5-.5 8-1 8-1 5 3 5 3 1.5 4 1.5 4 8.5.5 8.5.5 7.5-.5 7.5-.5 5.5.5 5.5.5v3 3h6.5 6.5l-4.5 3.5-4.5 3.5-5 4-5 4-4.5 4.5-4.5 4.5-6.5 1-6.5 1-6.5-.5-6.5-.5-7-1-7-1-7 1-7 1-6.5-1-6.5-1h-8-8l-7 2-7 2h-12-12l-9.5-1-9.5-1-7.5-1-7.5-1-7-2-7-2-6.5-2.5-6.5-2.5-5.5-3.5-5.5-3.5-2-6.5-2-6.5-4.5-6-4.5-6 4.5 12 4.5 12 5 4 5 4 6 3 6 3 7 1.5 7 1.5 7.5 1.5 7.5 1.5 8 1 8 1 8.5.5 8.5.5 8 .5 8 .5 8.5.5 8.5.5 8 1 8 1 8 1 8 1 7 1.5 7 1.5 8 1 8 1 7.5.5 7.5.5 7.5-.5 7.5-.5 2 3 2 3h.5.5" style="fill:#b83b1b;stroke:#b83b1b"/><path d="m274 663v1l.5-1.5.5-1.5.5-1.5.5-1.5.5-2 .5-2v-1-1l.5-2 .5-2 1-1 1-1 .5-2.5.5-2.5-1.5.5-1.5.5-8.5-.5-8.5-.5 2-3 2-3 9-.5 9-.5.5-1 .5-1v-1-1l.5-1.5.5-1.5.5-1 .5-1v-1-1l.5 1.5.5 1.5.5 1 .5 1 .5.5.5.5.5 1 .5 1 .5-2.5.5-2.5 1-1.5 1-1.5.5-1.5.5-1.5.5-1.5.5-1.5 1-1.5 1-1.5.5-2.5.5-2.5v-2-2l-1-1-1-1v-1.5-1.5l-.5-.5-.5-.5-.5-1.5-.5-1.5-1 1-1 1-.5 1-.5 1-.5.5-.5.5-1 1-1 1 1 .5 1 .5-.5 2-.5 2-.5 1.5-.5 1.5-1 1.5-1 1.5-.5 1.5-.5 1.5-.5 1.5-.5 1.5-.5 2-.5 2-1.5.5-1.5.5-2-.5-2-.5-.5-1-.5-1 2-.5 2-.5 1.5-.5 1.5-.5-.5-1-.5-1-1.5-.5-1.5-.5-1.5.5-1.5.5-.5-2-.5-2-9 6-9 6 1.5 2.5 1.5 2.5-5.5 3.5-5.5 3.5 2 3 2 3h7.5 7.5l5 1 5 1-4 4.5-4 4.5-1.5 2-1.5 2 4 2 4 2" style="fill:#c85639;stroke:#c85639"/><path d="m89 654h24l7-2 7-2h8 8l6.5 1 6.5 1 7-1 7-1 7 1 7 1 6.5.5 6.5.5 6.5-1 6.5-1 4.5-4.5 4.5-4.5 5-4 5-4 4.5-3.5 4.5-3.5h-6.5-6.5v-3-3l-5.5-.5-5.5-.5-7.5.5-7.5.5-8.5-.5-8.5-.5-1.5-4-1.5-4-5-3-5-3-8 1-8 1-8.5.5-8.5.5-5-3.5-5-3.5-7.5.5-7.5.5-7.5-.5-7.5-.5h-8-8l-8-.5-8-.5-8 1-8 1-7.5 1.5-7.5 1.5-8 1-8 1-6.5.5-6.5.5 4.5 6 4.5 6 2 6.5 2 6.5 5.5 3.5 5.5 3.5 6.5 2.5 6.5 2.5 7 2 7 2 7.5 1 7.5 1 9.5 1 9.5 1" style="fill:#812c1f;stroke:#812c1f"/><g style="fill:#9b5e74;stroke:#9b5e74"><path d="m442 653l17-3 2-3.5 2-3.5-1.5-.5-1.5-.5-3-.5-3-.5 3 1 3 1-4 3-4 3-5 2-5 2"/><path d="m388 649l13-7 6.5-2 6.5-2 6-3 6-3 7-2 7-2 7-2 7-2 6.5-2 6.5-2 3-6 3-6 1.5-7.5 1.5-7.5 1-8 1-8 .5-7.5.5-7.5.5-8 .5-8v-9-9l-.5-4.5-.5-4.5-3.5 2.5-3.5 2.5-2 4.5-2 4.5-2.5 4.5-2.5 4.5-3 6-3 6-2.5 4.5-2.5 4.5-3 5.5-3 5.5-2.5 4.5-2.5 4.5-3.5 4.5-3.5 4.5-2 4-2 4-.5 5-.5 5-4.5 4.5-4.5 4.5-4.5 4.5-4.5 4.5-5 4-5 4-4.5 4-4.5 4-2 2.5-2 2.5"/></g><path d="m67 642l1-3-4-4.5-4-4.5h-7-7l1.5 3.5 1.5 3.5 5.5-.5 5.5-.5v2.5 2.5l3.5.5 3.5.5" style="fill:#3d1712;stroke:#3d1712"/><path d="m278 642l3-1v-.5-.5l.5-1.5.5-1.5.5-1.5.5-1.5-9 .5-9 .5-2 3-2 3 8.5.5 8.5.5" style="fill:#e57350;stroke:#e57350"/><path d="m419 642l16-4 7-.5 7-.5h5 5l-2.5 2-2.5 2 6.5-3 6.5-3v-5.5-5.5l-5 1-5 1-7 2-7 2-6.5 2.5-6.5 2.5-6.5 2.5-6.5 2.5 1 1 1 1" style="fill:#9b5e74;stroke:#9b5e74"/><path d="m276 624l4 1 1.5-.5 1.5-.5.5-2 .5-2 .5-1.5.5-1.5.5-1.5.5-1.5 1-1.5 1-1.5.5-1.5.5-1.5.5-2 .5-2-1-.5-1-.5-1.5 1-1.5 1-1 1-1 1-1.5 1-1.5 1-1 1-1 1-1 1-1 1-1 .5-1 .5.5 2 .5 2 1.5-.5 1.5-.5 1.5.5 1.5.5.5 1 .5 1-1.5.5-1.5.5-2 .5-2 .5.5 1 .5 1" style="fill:#e57350;stroke:#e57350"/><path d="m192 614l16-2 2-1.5 2-1.5-5.5 1.5-5.5 1.5h-6-6l1.5 1 1.5 1" style="fill:#c85639;stroke:#c85639"/><path d="m286 587l4 1h1 1l1-1.5 1-1.5.5-1.5.5-1.5 1-1.5 1-1.5.5-1.5.5-1.5.5-2 .5-2v-2-2l-.5 1-.5 1h-2.5-2.5l-1.5-.5-1.5-.5-1 .5-1 .5-1.5-.5-1.5-.5-1 .5-1 .5 1-3 1-3 2.5-3 2.5-3-7 1-7 1h-5-5-2.5-2.5-5-5l2.5-1.5 2.5-1.5-4-3-4-3-5.5 1-5.5 1h-6-6l-6-1-6-1-6-2-6-2v2 2l-7-1.5-7-1.5-6.5-.5-6.5-.5-2.5-1.5-2.5-1.5 6-1 6-1h-5.5-5.5l-6-1-6-1-3.5 1.5-3.5 1.5h-5-5l-4.5.5-4.5.5 1.5.5 1.5.5.5.5.5.5 1 .5 1 .5h-1-1l-.5.5-.5.5h-1-1-1.5-1.5-1-1-1-1-1-1l-1.5-.5-1.5-.5h1.5 1.5l1.5-.5 1.5-.5h2 2l.5-1 .5-1-2-.5-2-.5-1-.5-1-.5-.5 1-.5 1-1.5.5-1.5.5-2-.5-2-.5h-2-2-1.5-1.5v-1-1l2 .5 2 .5 1-1 1-1h2.5 2.5l2 .5 2 .5 7-1.5 7-1.5 7.5-1.5 7.5-1.5-2.5-1.5-2.5-1.5-7 1.5-7 1.5-1-2-1-2h7 7l6-2 6-2-1.5-1.5-1.5-1.5-5-1.5-5-1.5-4 2-4 2-1.5-2.5-1.5-2.5 6-1 6-1 6-2.5 6-2.5 5.5-.5 5.5-.5 5.5-2.5 5.5-2.5-7-1-7-1-7 1.5-7 1.5-8.5.5-8.5.5-7.5 1.5-7.5 1.5-7 1-7 1h-8.5-8.5l-6-1-6-1 6.5-1.5 6.5-1.5 7.5-.5 7.5-.5h7 7l6-.5 6-.5 5.5-1.5 5.5-1.5 6-1 6-1-.5-3.5-.5-3.5 5-3.5 5-3.5-3.5-1.5-3.5-1.5-6.5-1.5-6.5-1.5h-7-7l-6-.5-6-.5-5 4-5 4h-8-8l-7-2-7-2-.5-3-.5-3 3-2 3-2 2.5-1.5 2.5-1.5-7.5-.5-7.5-.5-6-1-6-1 6.5-1 6.5-1-6.5-2.5-6.5-2.5 6-1 6-1 .5-1.5.5-1.5-4.5-2-4.5-2 1-1 1-1 5.5.5 5.5.5-6-3-6-3-5-1.5-5-1.5 5-1 5-1-7.5-.5-7.5-.5-1-3-1-3-5-2.5-5-2.5 1-2 1-2 4-2 4-2-5.5-2.5-5.5-2.5-1-3-1-3-3.5-3-3.5-3 5-1 5-1-1.5-4.5-1.5-4.5-6-2-6-2-5.5-2-5.5-2-7-7.5-7-7.5v2 2 2.5 2.5 2 2 1.5 1.5l2-4.5 2-4.5 4 5 4 5-1 2-1 2 4.5 4.5 4.5 4.5-3 1.5-3 1.5v3 3l-3 4-3 4v3.5 3.5l-1-.5-1-.5-1.5-1-1.5-1-1-.5-1-.5v2.5 2.5 2.5 2.5 2 2 2.5 2.5 2 2 2.5 2.5.5.5l4.5 13 4.5 13 1 7.5 1 7.5 4 4 4 4-3.5 5.5-3.5 5.5h7 7 6.5 6.5l5.5 1.5 5.5 1.5-7.5.5-7.5.5-8 1-8 1-3.5 4.5-3.5 4.5-.5 6-.5 6 .5 5.5.5 5.5.5 3.5.5 3.5-1.5 1.5-1.5 1.5 1 4.5 1 4.5 1 4 1 4 4-3 4-3 2-4 2-4 .5-4 .5-4 1.5-1.5 1.5-1.5 7.5-.5 7.5-.5 4 2 4 2v4.5 4.5l7-1 7-1 4.5 2.5 4.5 2.5 4.5 2.5 4.5 2.5h5.5 5.5l-4 2-4 2 4.5.5 4.5.5 7 2 7 2 7 .5 7 .5 2.5 1.5 2.5 1.5 3.5-2.5 3.5-2.5 4 2 4 2 7-.5 7-.5 4.5-1.5 4.5-1.5 6.5.5 6.5.5 8-1 8-1 7-1.5 7-1.5-5.5 2.5-5.5 2.5 7-1 7-1 6.5-.5 6.5-.5 7-1 7-1-1 3.5-1 3.5 7 1 7 1h7 7l1-2 1-2 5 .5 5 .5 3.5 3.5 3.5 3.5" style="fill:#e57350;stroke:#e57350"/><path d="m299 581l1-2 1-1 1-1 1-1 1-1 .5-2 .5-2 .5-1 .5-1-1.5.5-1.5.5.5-1 .5-1-1-2-1-2v-.5-.5l2.5-5.5 2.5-5.5 2-6 2-6 4.5-5 4.5-5v-.5-.5-3-3l-.5-1.5-.5-1.5-.5-2-.5-2-.5-1.5-.5-1.5-1.5-1-1.5-1h-2-2l-2.5-.5-2.5-.5-7.5-2.5-7.5-2.5-5.5-1-5.5-1-7-2.5-7-2.5-1-.5-1-.5-.5-.5-.5-.5-1-.5-1-.5-1.5-.5-1.5-.5-.5-.5-.5-.5-1.5-.5-1.5-.5-.5-.5-.5-.5.5-1 .5-1v-1-1l.5-.5.5-.5.5-.5.5-.5.5-.5.5-.5v-1-1l1-.5 1-.5 1-7 1-7-2-6.5-2-6.5 1-7 1-7-4-4.5-4-4.5-9.5-4.5-9.5-4.5-1.5.5-1.5.5-1 1-1 1-1.5 1-1.5 1-1.5.5-1.5.5-1.5 1-1.5 1-1.5-.5-1.5-.5h-1.5-1.5-1-1v-1-1l-.5-.5-.5-.5-.5-.5-.5-.5-1-.5-1-.5-.5-.5-.5-.5-.5-.5-.5-.5v-1-1l-.5-.5-.5-.5-.5-1-.5-1-.5-.5-.5-.5-.5-.5-.5-.5-.5-.5-.5-.5-1-1-1-1-1-1.5-1-1.5-1-1-1-1-1.5-1-1.5-1-1-1-1-1-1.5-1.5-1.5-1.5-5.5-5.5-5.5-5.5-5-4-5-4-5.5-4.5-5.5-4.5-1-.5-1-.5-6.5-3.5-6.5-3.5-9.5-5.5-9.5-5.5 5.5-4.5 5.5-4.5 6.5 1 6.5 1 7-2 7-2 6.5.5 6.5.5 7.5-1.5 7.5-1.5 6-3 6-3 2.5 2 2.5 2 1.5 2.5 1.5 2.5 3.5.5 3.5.5-2.5 3.5-2.5 3.5 4 3.5 4 3.5-4.5 4.5-4.5 4.5 2.5 1.5 2.5 1.5-2 3.5-2 3.5 1-.5 1-.5h1 1 1 1 1 1v1.5 1.5l-.5.5-.5.5-.5.5-.5.5-.5 1.5-.5 1.5 3-2 3-2 5.5.5 5.5.5-1.5 3.5-1.5 3.5 2 .5 2 .5 8.5-4 8.5-4 3.5-5.5 3.5-5.5 2.5-6.5 2.5-6.5-1-7.5-1-7.5 4.5-4.5 4.5-4.5 3.5-6.5 3.5-6.5-1 1-1 1-.5.5-.5.5-.5.5-.5.5-.5.5-.5.5-.5 1-.5 1-.5.5-.5.5v1 1l-.5.5-.5.5-1 .5-1 .5-.5 1.5-.5 1.5h-1-1v-5-5l4-5 4-5 1-6 1-6 1-3.5 1-3.5-2.5-.5-2.5-.5 4.5-4.5 4.5-4.5-5 2-5 2 1.5-3 1.5-3 2.5-4.5 2.5-4.5-5 4-5 4-4 2-4 2 4.5-4.5 4.5-4.5 1-1.5 1-1.5-5 4-5 4 2.5-3.5 2.5-3.5 2.5-4.5 2.5-4.5 4-4.5 4-4.5-5 4-5 4-5 3-5 3 4-5 4-5 2-2.5 2-2.5-5 4-5 4v-5-5l4.5-4.5 4.5-4.5 4.5-4 4.5-4v-1-1l-5 4-5 4-4.5 1.5-4.5 1.5-2-4.5-2-4.5h-.5-.5v1.5 1.5l-.5 1.5-.5 1.5-.5 2-.5 2-.5 1.5-.5 1.5-.5 2-.5 2-3 7.5-3 7.5-3 6-3 6-3.5 5-3.5 5-5.5 3.5-5.5 3.5-5 4-5 4-6 3-6 3-6 2.5-6 2.5-.5-1.5-.5-1.5-6.5 2.5-6.5 2.5-6.5 2.5-6.5 2.5-6.5 2.5-6.5 2.5-5 1.5-5 1.5-7.5 2.5-7.5 2.5h-1-1v-.5-.5l-.5 1-.5 1-.5.5-.5.5-.5 1-.5 1-.5.5-.5.5v1 1l-.5.5-.5.5-.5 1-.5 1v1 1 1 1l.5.5.5.5.5 1 .5 1 .5.5.5.5.5 1 .5 1 1.5 1 1.5 1 6.5 2.5 6.5 2.5 6 2.5 6 2.5 6 3 6 3 5 4 5 4 4.5 4 4.5 4 4.5 4.5 4.5 4.5 4.5 4.5 4.5 4.5 4.5 4.5 4.5 4.5 4 5 4 5 6 1.5 6 1.5 5.5-3.5 5.5-3.5 6 2 6 2 5 4 5 4 .5 6 .5 6 1 13 1 13v1.5 1.5l-.5.5-.5.5-.5 1-.5 1-.5 1.5-.5 1.5-.5 1.5-.5 1.5v1.5 1.5 1.5 1.5l1.5 1 1.5 1 1.5.5 1.5.5 1.5 1 1.5 1 1.5.5 1.5.5 1.5 1.5 1.5 1.5 1 .5 1 .5h1 1l1 .5 1 .5h1 1 1 1l.5.5.5.5h1 1l1 .5 1 .5.5.5.5.5h1 1l.5.5.5.5h1.5 1.5 1 1l1 .5 1 .5 1 .5 1 .5 1 .5 1 .5h1 1l.5.5.5.5 1.5.5 1.5.5h2.5 2.5 1 1l.5.5.5.5h1 1 1.5 1.5l.5 1.5.5 1.5v7 7l-6 10-6 10-.5 1.5-.5 1.5-1 1-1 1v2 2l-.5 2.5-.5 2.5.5 1 .5 1v1 1l-.5 1.5-.5 1.5-.5 1-.5 1v1.5 1.5 2 2" style="fill:#9b5e74;stroke:#9b5e74"/><path d="m283 570l2-1 1.5.5 1.5.5 1-.5 1-.5 1.5.5 1.5.5h2.5 2.5l.5-1 .5-1 .5-1.5.5-1.5.5-2.5.5-2.5v-2-2l1-1 1-1 .5-1.5.5-1.5-2-.5-2-.5h-2-2-1.5-1.5l-1.5-4.5-1.5-4.5-7-2-7-2-7 .5-7 .5 2-2 2-2-5.5-2.5-5.5-2.5-5.5-.5-5.5-.5-5.5-1-5.5-1 1.5-4.5 1.5-4.5-3.5-2.5-3.5-2.5-5-3-5-3 4-1.5 4-1.5 3-1 3-1-2.5-2.5-2.5-2.5-8 1-8 1 1-4 1-4 2.5-3 2.5-3-3.5-3.5-3.5-3.5-6-3-6-3-4-3-4-3-1-2.5-1-2.5 7.5-1.5 7.5-1.5-4.5-2.5-4.5-2.5-7-2-7-2-2.5-2-2.5-2-4.5-2.5-4.5-2.5-3-2-3-2-5.5-2.5-5.5-2.5 1.5-2.5 1.5-2.5-6-2.5-6-2.5-2-5-2-5-3.5-3.5-3.5-3.5-4-2-4-2-1.5-3-1.5-3-5-4-5-4-3-4-3-4 .5-3.5.5-3.5-4-3.5-4-3.5v-3-3l-4-4-4-4-2.5-3.5-2.5-3.5-7.5-2.5-7.5-2.5h-3-3l-1.5 1-1.5 1 1 .5 1 .5 1 1 1 1-.5.5-.5.5v1.5 1.5l1.5.5 1.5.5-.5.5-.5.5h-1.5-1.5-1.5-1.5l-1-1.5-1-1.5-1-1-1-1-1-2-1-2-7.5.5-7.5.5-6.5 1-6.5 1-12.5 2.5-12.5 2.5v2 2 2 2 2.5 2.5 2 2 2.5 2.5 1 1l7 7.5 7 7.5 5.5 2 5.5 2 6 2 6 2 1.5 4.5 1.5 4.5-5 1-5 1 3.5 3 3.5 3 1 3 1 3 5.5 2.5 5.5 2.5-4 2-4 2-1 2-1 2 5 2.5 5 2.5 1 3 1 3 7.5.5 7.5.5-5 1-5 1 5 1.5 5 1.5 6 3 6 3-5.5-.5-5.5-.5-1 1-1 1 4.5 2 4.5 2-.5 1.5-.5 1.5-6 1-6 1 6.5 2.5 6.5 2.5-6.5 1-6.5 1 6 1 6 1 7.5.5 7.5.5-2.5 1.5-2.5 1.5-3 2-3 2 .5 3 .5 3 7 2 7 2h8 8l5-4 5-4 6 .5 6 .5h7 7l6.5 1.5 6.5 1.5 3.5 1.5 3.5 1.5-5 3.5-5 3.5.5 3.5.5 3.5-6 1-6 1-5.5 1.5-5.5 1.5-6 .5-6 .5h-7-7l-7.5.5-7.5.5-6.5 1.5-6.5 1.5 6 1 6 1h8.5 8.5l7-1 7-1 7.5-1.5 7.5-1.5 8.5-.5 8.5-.5 7-1.5 7-1.5 7 1 7 1-5.5 2.5-5.5 2.5-5.5.5-5.5.5-6 2.5-6 2.5-6 1-6 1 1.5 2.5 1.5 2.5 4-2 4-2 5 1.5 5 1.5 1.5 1.5 1.5 1.5-6 2-6 2h-7-7l1 2 1 2 7-1.5 7-1.5 2.5 1.5 2.5 1.5-7.5 1.5-7.5 1.5-7 1.5-7 1.5 1 .5 1 .5 2 .5 2 .5 4.5-.5 4.5-.5h5 5l3.5-1.5 3.5-1.5 6 1 6 1h5.5 5.5l-6 1-6 1 2.5 1.5 2.5 1.5 6.5.5 6.5.5 7 1.5 7 1.5v-2-2l6 2 6 2 6 1 6 1h6 6l5.5-1 5.5-1 4 3 4 3-2.5 1.5-2.5 1.5h5 5 2.5 2.5 5 5l7-1 7-1-2.5 3-2.5 3-1 3-1 3" style="fill:#fe9a6c;stroke:#fe9a6c"/><path d="m303 570l3-1 1-2.5 1-2.5v-2-2l-2 .5-2 .5v1 1l-1 .5-1 .5 1 2 1 2-.5 1-.5 1" style="fill:#812c1f;stroke:#812c1f"/><path d="m0 565v1l1-.5 1-.5v-2-2l.5-1 .5-1v-1-1-2-2l.5-1 .5-1 .5-.5.5-.5v-2-2l.5-1 .5-1-.5-.5-.5-.5 1-1 1-1v-.5-.5l-.5-1-.5-1-1 1.5-1 1.5-1 1-1 1-.5 2-.5 2-.5 1-.5 1v3 3 2 2 2.5 2.5.5.5" style="fill:#6d3947;stroke:#6d3947"/><path d="m302 563v1l1-.5 1-.5v-1-1l2-.5 2-.5v2 2l.5-1 .5-1v-1-1l.5-1.5.5-1.5.5-1 .5-1 .5-.5.5-.5 1-.5 1-.5-.5-2-.5-2 1.5-1.5 1.5-1.5 1-.5 1-.5 1-1 1-1 1 1 1 1-1 1.5-1 1.5-.5 1.5-.5 1.5 1-.5 1-.5 1-.5 1-.5v-1-1l.5-.5.5-.5-.5-.5-.5-.5.5-.5.5-.5-.5-1-.5-1 .5-.5.5-.5v-1-1h-1-1l-.5.5-.5.5h-1.5-1.5v-1-1l.5-.5.5-.5v-1-1l1 .5 1 .5v-1-1l.5-.5.5-.5.5-.5.5-.5-1-1-1-1h-.5-.5l-4.5 5-4.5 5-2 6-2 6-2.5 5.5-2.5 5.5" style="fill:#b83b1b;stroke:#b83b1b"/><path d="m312 557l3 1 1-1 1-1-.5-1-.5-1 .5-.5.5-.5 1-1 1-1-1.5-.5-1.5-.5v-2-2l-1.5 1.5-1.5 1.5.5 2 .5 2-.5 1-.5 1-.5 1-.5 1" style="fill:#c85639;stroke:#c85639"/><path d="m293 550h3 2 2l2 .5 2 .5 6-10 6-10v-7-7l-1.5 1.5-1.5 1.5-.5 2-.5 2-.5 1.5-.5 1.5v1.5 1.5l1 1 1 1h-1-1l-8-1.5-8-1.5-2.5-4-2.5-4-4-3-4-3-8-6.5-8-6.5-1.5-1.5-1.5-1.5-1.5-.5-1.5-.5-1.5-1-1.5-1-1.5-.5-1.5-.5-1.5-1-1.5-1v-1.5-1.5-1.5-1.5l-1 1.5-1 1.5-1.5-.5-1.5-.5-1-7-1-7-6-3-6-3-6-3-6-3-.5-3.5-.5-3.5-2-2.5-2-2.5-6-3-6-3-6.5-2.5-6.5-2.5-5-4-5-4-4-3.5-4-3.5-5-3-5-3-6-3-6-3-2.5-4.5-2.5-4.5-4.5-4.5-4.5-4.5-3.5-5-3.5-5-3-3-3-3-4-5-4-5 .5-4.5.5-4.5-1.5-1-1.5-1-1-.5-1-.5-1-.5-1-.5-.5-1-.5-1-1.5-.5-1.5-.5-.5-.5-.5-.5-1-.5-1-.5-.5-1.5-.5-1.5-1.5-1-1.5-1-1-1-1-1-1-1.5-1-1.5-1.5-.5-1.5-.5v-1-1-1-1l-1.5-1-1.5-1-2.5.5-2.5.5-1.5.5-1.5.5-2 .5-2 .5h-2-2-1.5-1.5l7.5 2.5 7.5 2.5 2.5 3.5 2.5 3.5 4 4 4 4v3 3l4 3.5 4 3.5-.5 3.5-.5 3.5 3 4 3 4 5 4 5 4 1.5 3 1.5 3 4 2 4 2 3.5 3.5 3.5 3.5 2 5 2 5 6 2.5 6 2.5-1.5 2.5-1.5 2.5 5.5 2.5 5.5 2.5 3 2 3 2 4.5 2.5 4.5 2.5 2.5 2 2.5 2 7 2 7 2 4.5 2.5 4.5 2.5-7.5 1.5-7.5 1.5 1 2.5 1 2.5 4 3 4 3 6 3 6 3 3.5 3.5 3.5 3.5-2.5 3-2.5 3-1 4-1 4 8-1 8-1 2.5 2.5 2.5 2.5-3 1-3 1-4 1.5-4 1.5 5 3 5 3 3.5 2.5 3.5 2.5-1.5 4.5-1.5 4.5 5.5 1 5.5 1 5.5.5 5.5.5 5.5 2.5 5.5 2.5-2 2-2 2 7-.5 7-.5 7 2 7 2 1.5 4.5 1.5 4.5" style="fill:#ffd494;stroke:#ffd494"/><path d="m316 550l3 1 .5-1.5.5-1.5 1-1.5 1-1.5-1-1-1-1-1 1-1 1-1 .5-1 .5v2 2" style="fill:#6d3947;stroke:#6d3947"/><path d="m0 548v1l.5-1 .5-1 .5-2 .5-2 1-1 1-1 1-1.5 1-1.5.5-1.5.5-1.5v-2-2l.5-2 .5-2 .5-1.5.5-1.5v-2-2l.5-2.5.5-2.5v-10.5-10.5l-1-8-1-8-1.5-7-1.5-7-2.5-6.5-2.5-6.5v10.5 10.5 8.5 8.5 9 9 9 9 9 9 2.5 2.5" style="fill:#812c1f;stroke:#812c1f"/><path d="m36 547l13-3-4.5-4-4.5-4-2.5-.5-2.5-.5 5-2 5-2-.5-4.5-.5-4.5-7 1-7 1 1.5 3 1.5 3-4 2-4 2 2 5 2 5 2.5.5 2.5.5 1 1 1 1" style="fill:#c85639;stroke:#c85639"/><g style="fill:#fe9a6c;stroke:#fe9a6c"><path d="m121 547l3 1h1 1 1 1 1 1 1.5 1.5 1 1l.5-.5.5-.5h1 1l-1-.5-1-.5-.5-.5-.5-.5-1.5-.5-1.5-.5-.5 1-.5 1h-2-2l-1.5.5-1.5.5h-1.5-1.5"/><path d="m111 544h3 2 2l2 .5 2 .5 1.5-.5 1.5-.5.5-1 .5-1-2-.5-2-.5h-2.5-2.5l-1 1-1 1-2-.5-2-.5v1 1"/></g><path d="m7 540v1l.5-1 .5-1 .5-2 .5-2v-2-2l.5-1.5.5-1.5v-2.5-2.5-2-2-2-2l-.5 2.5-.5 2.5v2 2l-.5 1.5-.5 1.5-.5 2-.5 2v2 2l-.5 1.5-.5 1.5.5 1 .5 1" style="fill:#b83b1b;stroke:#b83b1b"/><path d="m113 538l3 1 1.5-.5 1.5-.5h2.5 2.5l1.5-.5 1.5-.5-1.5-1-1.5-1-1.5.5-1.5.5-2 .5-2 .5h-2-2v.5.5" style="fill:#fe9a6c;stroke:#fe9a6c"/><path d="m16 535l3 1 1.5-.5 1.5-.5-.5-1-.5-1v-2-2l.5-2 .5-2-.5-.5-.5-.5-2 .5-2 .5-.5 1.5-.5 1.5 1 1 1 1-1 1.5-1 1.5v1 1" style="fill:#c85639;stroke:#c85639"/><path d="m311 532h2l-1-1-1-1v-1.5-1.5l.5-1.5.5-1.5.5-2 .5-2 1.5-1.5 1.5-1.5-.5-1.5-.5-1.5h-1.5-1.5-1-1l-.5-.5-.5-.5h-1-1-2.5-2.5v1.5 1.5l-1.5.5-1.5.5-1.5-.5-1.5-.5-1-.5-1-.5-.5-.5-.5-.5v-1-1l-.5-.5-.5-.5h-1-1l-.5-1-.5-1h1.5 1.5l-1-.5-1-.5h-1-1-1.5-1.5l-.5-.5-.5-.5h-1-1l-.5-.5-.5-.5-1-.5-1-.5h-1-1l-.5-.5-.5-.5h-1-1-1-1l-1-.5-1-.5h-1-1l-1-.5-1-.5 8 6.5 8 6.5 4 3 4 3 2.5 4 2.5 4 8 1.5 8 1.5" style="fill:#fff6bd;stroke:#fff6bd"/><path d="m320 529v1h.5.5l5-6 5-6 6-3 6-3v-2-2l4-3.5 4-3.5 5-4 5-4 5-4 5-4 5.5-3.5 5.5-3.5 5-4 5-4 4.5-4 4.5-4 5-4 5-4 5.5-3.5 5.5-3.5 5-4 5-4 5.5-3 5.5-3 5.5-3.5 5.5-3.5 6-3 6-3 4-4 4-4-6 3-6 3-5.5 3-5.5 3-5.5 3.5-5.5 3.5-5.5 3.5-5.5 3.5-5 3.5-5 3.5-5 4-5 4-5 4-5 4-5 4-5 4-5 4-5 4-5 3.5-5 3.5-5 4-5 4-5 4-5 4-8 4.5-8 4.5-2-6-2-6-1-6.5-1-6.5 3-6 3-6-3.5-5.5-3.5-5.5 4-2.5 4-2.5 2.5-4.5 2.5-4.5 3.5-3.5 3.5-3.5 2.5-5.5 2.5-5.5 4.5-4 4.5-4 3.5-5.5 3.5-5.5 5-4 5-4 7.5-7 7.5-7h-2-2l-.5-1-.5-1 1.5-.5 1.5-.5 1.5-1 1.5-1h1 1l.5.5.5.5 1.5-.5 1.5-.5 1-1 1-1 .5-.5.5-.5 1-.5 1-.5 1-1 1-1h-2.5-2.5l-3-1-3-1-4.5 4.5-4.5 4.5-4.5 4-4.5 4-2-1-2-1 4-3 4-3 3.5-4.5 3.5-4.5-1 1-1 1-2 .5-2 .5-1 1-1 1-1.5.5-1.5.5-1.5 1-1.5 1-1 1-1 1-1.5 1-1.5 1-1.5.5-1.5.5-1.5 1-1.5 1-1.5.5-1.5.5h-1-1l.5-1 .5-1 .5-.5.5-.5.5-.5.5-.5.5-.5.5-.5 1-.5 1-.5.5-.5.5-.5.5-.5.5-.5.5-.5.5-.5.5-.5.5-.5.5-2 .5-2-3.5.5-3.5.5-4.5 4.5-4.5 4.5-3 6-3 6-1 4.5-1 4.5-5 3-5 3 2-6 2-6-4-2-4-2 .5-2 .5-2-1.5-2.5-1.5-2.5 4.5-4.5 4.5-4.5h-2-2l-5 3.5-5 3.5-4.5.5-4.5.5-2 4-2 4-4.5 4.5-4.5 4.5-5.5 3.5-5.5 3.5-5 3.5-5 3.5-5.5 3.5-5.5 3.5h-3-3l2.5-5.5 2.5-5.5 2-6.5 2-6.5-1.5-6.5-1.5-6.5-5.5 4-5.5 4-3-1-3-1-6 3-6 3-3 1.5-3 1.5-2.5-.5-2.5-.5-5-1-5-1 3-4 3-4-6 2-6 2h-6.5-6.5-5.5-5.5l-5-3.5-5-3.5 2 5 2 5 1.5 1.5 1.5 1.5 1 1 1 1 1.5 1 1.5 1 1 1 1 1 1 1.5 1 1.5 4.5 3.5 4.5 3.5 4-.5 4-.5 9 2 9 2 9.5 4.5 9.5 4.5 4 4.5 4 4.5-1 7-1 7 2 6.5 2 6.5-1 7-1 7-.5 2-.5 2 1.5 1 1.5 1v1 1l-1 1-1 1h-1-1l-1-.5-1-.5-.5 1-.5 1 1.5.5 1.5.5.5.5.5.5 1.5.5 1.5.5 1 .5 1 .5.5.5.5.5 1 .5 1 .5 4.5-2 4.5-2 5 1 5 1 4.5 2 4.5 2 8.5 5.5 8.5 5.5h2 2l1.5 1 1.5 1 .5 1.5.5 1.5.5 2 .5 2 .5 1.5.5 1.5v3 3" style="fill:#812c1f;stroke:#812c1f"/><path d="m296 516l3 1 1.5-.5 1.5-.5v-1.5-1.5l-1.5-.5-1.5-.5-.5-.5-.5-.5h-1-1l-1-.5-1-.5-1-.5-1-.5h-1.5-1.5l.5 1 .5 1h1 1l.5.5.5.5v1 1l.5.5.5.5 1 .5 1 .5" style="fill:#fffdf3;stroke:#fffdf3"/><path d="m305 510l5 1-8.5-5.5-8.5-5.5-4.5-2-4.5-2-5-1-5-1-4.5 2-4.5 2 7 2.5 7 2.5 5.5 1 5.5 1 7.5 2.5 7.5 2.5" style="fill:#b83b1b;stroke:#b83b1b"/><path d="m333 509l16-9 5-4 5-4 5-4 5-4 5-3.5 5-3.5 5-4 5-4 5-4 5-4 5-4 5-4 5-4 5-4 5-3.5 5-3.5 5.5-3.5 5.5-3.5 5.5-3.5 5.5-3.5 5.5-3 5.5-3 6-3 6-3 1.5-9.5 1.5-9.5-.5-8-.5-8v-9-9l-1-8-1-8-3.5-1.5-3.5-1.5-4.5 1-4.5 1-4-1-4-1-2 5-2 5-2.5.5-2.5.5-1.5 4-1.5 4-5.5 1.5-5.5 1.5-5.5 3.5-5.5 3.5-5 4-5 4-1 1-1 1-1 .5-1 .5-.5.5-.5.5-1 1-1 1-1.5.5-1.5.5-1.5 1-1.5 1-.5 1-.5 1-7.5 7-7.5 7-5 4-5 4-3.5 5.5-3.5 5.5-4.5 4-4.5 4-2.5 5.5-2.5 5.5-3.5 3.5-3.5 3.5-2.5 4.5-2.5 4.5-4 2.5-4 2.5 3.5 5.5 3.5 5.5-3 6-3 6 1 6.5 1 6.5 2 6 2 6" style="fill:#3d1712;stroke:#3d1712"/><path d="m122 501h18l3-2.5 3-2.5-5.5-.5-5.5-.5-4.5 1.5-4.5 1.5h-2-2v1.5 1.5" style="fill:#fe9a6c;stroke:#fe9a6c"/><path d="m252 491l1 1 .5-1 .5-1 1 .5 1 .5h1 1l1-1 1-1v-1-1l-1.5-1-1.5-1 .5-2 .5-2-1 .5-1 .5v1 1l-.5.5-.5.5-.5.5-.5.5-.5.5-.5.5v1 1l-.5 1-.5 1" style="fill:#b83b1b;stroke:#b83b1b"/><path d="m246 489l3 1 1-1.5 1-1.5.5-1.5.5-1.5.5-1.5.5-1.5.5-1 .5-1 .5-.5.5-.5v-1.5-1.5l-1 .5-1 .5-5-4-5-4-5.5-3.5-5.5-3.5-4-5-4-5-5-4-5-4-5.5-3-5.5-3 4-1 4-1 5 4 5 4 5.5 3.5 5.5 3.5 3 5.5 3 5.5 8.5 7 8.5 7-1-13-1-13-.5-6-.5-6-5-4-5-4-6-2-6-2-5.5 3.5-5.5 3.5-6-1.5-6-1.5-4-5-4-5-4.5-4.5-4.5-4.5-4.5-4.5-4.5-4.5-4.5-4.5-4.5-4.5-4.5-4-4.5-4-5-4-5-4-6-3-6-3-6-2.5-6-2.5-6.5-2.5-6.5-2.5-.5 4.5-.5 4.5 4 5 4 5 3 3 3 3 3.5 5 3.5 5 4.5 4.5 4.5 4.5 2.5 4.5 2.5 4.5 6 3 6 3 5 3 5 3 4 3.5 4 3.5 5 4 5 4 6.5 2.5 6.5 2.5 6 3 6 3 2 2.5 2 2.5.5 3.5.5 3.5 6 3 6 3 6 3 6 3 1 7 1 7" style="fill:#fff6bd;stroke:#fff6bd"/><path d="m129 479l5-9 2-1.5 2-1.5h-6-6l6.5-2.5 6.5-2.5-5-2-5-2-2-2-2-2 1-1.5 1-1.5.5-2.5.5-2.5-3-3-3-3-7 1-7 1-7.5 1-7.5 1 6 1 6 1 3 1 3 1-7.5.5-7.5.5-5.5 1-5.5 1 5.5 1.5 5.5 1.5 7.5.5 7.5.5-6 2-6 2 1.5 3 1.5 3 6.5 1.5 6.5 1.5-2.5 1.5-2.5 1.5 1 2 1 2-.5 1.5-.5 1.5 7-.5 7-.5 2 1 2 1" style="fill:#e57350;stroke:#e57350"/><path d="m253 476l2-1-8.5-7-8.5-7-3-5.5-3-5.5-5.5-3.5-5.5-3.5-5-4-5-4-4 1-4 1 5.5 3 5.5 3 5 4 5 4 4 5 4 5 5.5 3.5 5.5 3.5 5 4 5 4" style="fill:#fffdf3;stroke:#fffdf3"/><path d="m98 432l9-7-6.5-1-6.5-1-.5 2.5-.5 2.5-7.5.5-7.5.5 6 1 6 1 4 .5 4 .5" style="fill:#e57350;stroke:#e57350"/><path d="m214 429l3 1 1.5-1 1.5-1 1.5-.5 1.5-.5 1.5-1 1.5-1 1-1 1-1 1.5-.5 1.5-.5-9-2-9-2-4 .5-4 .5-4.5-3.5-4.5-3.5 1 1 1 1 .5.5.5.5.5.5.5.5.5.5.5.5.5 1 .5 1 .5.5.5.5v1 1l.5.5.5.5.5.5.5.5 1 .5 1 .5.5.5.5.5.5.5.5.5v1 1h1 1 1.5 1.5" style="fill:#b83b1b;stroke:#b83b1b"/><path d="m62 426l3 1 1.5-.5 1.5-.5 1-.5 1-.5-1.5-.5-1.5-.5h-1.5-1.5l-1.5-.5-1.5-.5-.5-1-.5-1-.5 1.5-.5 1.5 1 1 1 1h.5.5" style="fill:#e57350;stroke:#e57350"/><path d="m7 425v-7l3-4 3-4v-3-3l3-1.5 3-1.5-4.5-4.5-4.5-4.5 1-2 1-2-4-5-4-5-2 4.5-2 4.5v3 3 2 2 2 2 2.5 2.5 2 2 2.5 2.5 2 2 1 1l1 .5 1 .5 1.5 1 1.5 1 1 .5 1 .5" style="fill:#fe9a6c;stroke:#fe9a6c"/><path d="m337 424h2l1-1 1-1 1.5-1 1.5-1 .5-1.5.5-1.5 1-1.5 1-1.5-1-1-1-1-1 1.5-1 1.5-1 1-1 1-.5 1.5-.5 1.5-1 1.5-1 1.5-.5.5-.5.5" style="fill:#6d3947;stroke:#6d3947"/><path d="m101 411l-1-3-7.5 1-7.5 1 8 .5 8 .5" style="fill:#e57350;stroke:#e57350"/><g style="fill:#812c1f;stroke:#812c1f"><path d="m275 407l15-5 5.5-3 5.5-3 5-4 5-4 5-4 5-4 4-5 4-5-.5-.5-.5-.5-5 3.5-5 3.5-6 3-6 3-6.5 1.5-6.5 1.5.5 2.5.5 2.5-3 3.5-3 3.5-5.5 2.5-5.5 2.5-1 2.5-1 2.5"/><path d="m256 396l3 1-.5-1.5-.5-1.5.5-.5.5-.5h1.5 1.5l.5-.5.5-.5.5-.5.5-.5.5-.5.5-.5-.5-1-.5-1h-1-1l-.5.5-.5.5-.5.5-.5.5-1 .5-1 .5-.5.5-.5.5-.5.5-.5.5.5.5.5.5-.5 1-.5 1"/></g><path d="m202 392l3 1 1.5-.5 1.5-.5 2-.5 2-.5 1.5-.5 1.5-.5h2.5 2.5l1.5-.5 1.5-.5 1.5 1 1.5 1 1.5-1 1.5-1-2-.5-2-.5h-1.5-1.5-2-2l-2 .5-2 .5-1.5.5-1.5.5-1.5-.5-1.5-.5 1-1 1-1 .5-1.5.5-1.5.5-1.5.5-1.5.5-.5.5-.5.5-.5.5-.5v-1.5-1.5h-1-1-1-1-1-1l-1 .5-1 .5 1.5 2 1.5 2-3.5 5.5-3.5 5.5" style="fill:#b83b1b;stroke:#b83b1b"/><path d="m358 391h2l1.5-.5 1.5-.5 1.5-1 1.5-1 1.5-.5 1.5-.5 1.5-1 1.5-1 1-1 1-1 1.5-1 1.5-1 1.5-.5 1.5-.5 1-1 1-1 2-.5 2-.5 1-1 1-1 5-4.5 5-4.5 4.5-4.5 4.5-4.5 5.5-3.5 5.5-3.5 4.5-4 4.5-4 5.5-3.5 5.5-3.5-5.5 1.5-5.5 1.5-5 4-5 4-5 3.5-5 3.5-6 3-6 3 5-4 5-4-4 1-4 1-5 3.5-5 3.5-4 4.5-4 4.5-5 4-5 4-.5 2-.5 2-.5.5-.5.5-.5.5-.5.5-.5.5-.5.5-.5.5-.5.5-1 .5-1 .5-.5.5-.5.5-.5.5-.5.5-.5.5-.5.5-.5 1-.5 1" style="fill:#3d1712;stroke:#3d1712"/><path d="m208 389l3 1 1.5-.5 1.5-.5 2-.5 2-.5h2 2 1.5 1.5l1.5-3.5 1.5-3.5-5.5-.5-5.5-.5-3 2-3 2-.5 1.5-.5 1.5-1 1-1 1" style="fill:#c85639;stroke:#c85639"/><path d="m388 388h4l.5-1 .5-1 1.5-1 1.5-1-.5-.5-.5-.5h-1-1l-1.5 1-1.5 1-1.5.5-1.5.5.5 1 .5 1" style="fill:#6d3947;stroke:#6d3947"/><path d="m150 371l2 1-9.5-7-9.5-7-7.5-2.5-7.5-2.5 9.5 5.5 9.5 5.5 6.5 3.5 6.5 3.5" style="fill:#c85639;stroke:#c85639"/><path d="m398 369l14-6 4.5-4 4.5-4 5.5-3.5 5.5-3.5 1-1 1-1v-.5-.5l-.5-.5-.5-.5-6 4-6 4-5 3-5 3-5 3.5-5 3.5-1.5 2-1.5 2" style="fill:#812c1f;stroke:#812c1f"/><path d="m67 366l1-9-4-3.5-4-3.5-1 4-1 4 4.5 4 4.5 4" style="fill:#ffd494;stroke:#ffd494"/><path d="m111 357l2 1-.5-1-.5-1-.5-.5-.5-.5-.5-1-.5-1-.5-.5-.5-.5v-1-1-1-1l.5-1 .5-1 .5-.5.5-.5v-1-1l.5-.5.5-.5.5-1 .5-1 .5-.5.5-.5.5-1 .5-1 .5-2 .5-2 1-1.5 1-1.5.5-1.5.5-1.5 1-1.5 1-1.5 1-1 1-1 1-2.5 1-2.5h-1.5-1.5l-1.5-1-1.5-1-1.5-1-1.5-1-.5-1.5-.5-1.5-1-1.5-1-1.5v-3-3l-3.5 6-3.5 6-3.5 5.5-3.5 5.5-5.5 5-5.5 5 1.5 1 1.5 1v1 1 1 1l1.5.5 1.5.5 1 1.5 1 1.5 1 1 1 1 1.5 1 1.5 1 .5 1.5.5 1.5 1 .5 1 .5.5.5.5.5 1.5.5 1.5.5.5 1 .5 1 1 .5 1 .5" style="fill:#fff6bd;stroke:#fff6bd"/><path d="m62 348h3l.5-.5.5-.5-1.5-.5-1.5-.5v-1.5-1.5l.5-.5.5-.5-1-1-1-1-1-.5-1-.5-2.5-.5-2.5-.5-1 .5-1 .5 1 2 1 2 1 1 1 1 1 1.5 1 1.5h1.5 1.5" style="fill:#ffd494;stroke:#ffd494"/><path d="m0 346v1l12.5-2.5 12.5-2.5 6.5-1 6.5-1 7.5-.5 7.5-.5 1-.5 1-.5 2.5.5 2.5.5 1.5-1 1.5-1h3 3 1.5 1.5 2 2l2-.5 2-.5 1.5-.5 1.5-.5 2.5-.5 2.5-.5 5.5-5 5.5-5 3.5-5.5 3.5-5.5 3.5-6 3.5-6 .5-1 .5-1 .5-.5.5-.5.5-.5.5-.5 1-1 1-1 .5-1 .5-1 1-1 1-1 1-1 1-1 1-1.5 1-1.5 1-1 1-1 1-1 1-1 1.5-1 1.5-1 1-1 1-1 3.5-6 3.5-6 3.5-5.5 3.5-5.5 4.5-9 4.5-9-1 1-1 1-.5 1-.5 1-.5.5-.5.5-1-1-1-1-3 6-3 6-4 5-4 5-4.5 7.5-4.5 7.5-3.5 5.5-3.5 5.5-4.5 4.5-4.5 4.5-3.5 5.5-3.5 5.5-3.5 5-3.5 5-3.5 5.5-3.5 5.5-6.5 2.5-6.5 2.5-8.5.5-8.5.5h-7.5-7.5-3-3l-2.5 1.5-2.5 1.5-7.5 1.5-7.5 1.5-9 1.5-9 1.5-1 .5-1 .5v.5.5" style="fill:#9b5e74;stroke:#9b5e74"/><path d="m434 345v1l7-3.5 7-3.5 6.5-2 6.5-2 5.5-1.5 5.5-1.5-2-1-2-1h-3-3l5-4 5-4-1-7.5-1-7.5-1.5 1.5-1.5 1.5-3.5 3.5-3.5 3.5-5 4-5 4-2 4.5-2 4.5-4 4-4 4-2.5 1-2.5 1 .5.5.5.5" style="fill:#3d1712;stroke:#3d1712"/><path d="m0 344v1l1-.5 1-.5v-.5-.5l8.5-2 8.5-2 2-2 2-2-2.5-1.5-2.5-1.5h-3.5-3.5l-5.5 3-5.5 3v2 2 1 1" style="fill:#812c1f;stroke:#812c1f"/><path d="m2 343v1l9-1.5 9-1.5 7.5-1.5 7.5-1.5 2.5-1.5 2.5-1.5h3 3 7.5 7.5l8.5-.5 8.5-.5 6.5-2.5 6.5-2.5 3.5-5.5 3.5-5.5 3.5-5 3.5-5 3.5-5.5 3.5-5.5 4.5-4.5 4.5-4.5 3.5-5.5 3.5-5.5-2 .5-2 .5-1 1.5-1 1.5-1 1-1 1h-1-1l-5-4-5-4-4.5-4.5-4.5-4.5-3-4.5-3-4.5-5-3-5-3-5-4-5-4-4-5-4-5-3-4-3-4-3.5-4-3.5-4-1.5-4.5-1.5-4.5-4.5-4.5-4.5-4.5-3-5-3-5-3.5-5-3.5-5-2.5-4.5-2.5-4.5-3.5-3.5-3.5-3.5-2.5-5.5-2.5-5.5-5-4-5-4v9.5 9.5 9 9 8.5 8.5 9 9 9 9 2 2l4.5 3.5 4.5 3.5 1 6 1 6v4 4l2.5 4 2.5 4 4.5 4.5 4.5 4.5 1 5 1 5-4.5 3.5-4.5 3.5-4 4.5-4 4.5-4 4-4 4-1 4.5-1 4.5v2.5 2.5 2 2 2 2l5.5-3 5.5-3h3.5 3.5l2.5 1.5 2.5 1.5-2 2-2 2-8.5 2-8.5 2" style="fill:#6d3947;stroke:#6d3947"/><path d="m115 338h2l3-5 3-5 5.5-3 5.5-3 5-3.5 5-3.5 6.5-2.5 6.5-2.5 6-3 6-3 7-2 7-2 5-3.5 5-3.5 6.5-2.5 6.5-2.5 3.5-.5 3.5-.5-4 3-4 3 6.5-1 6.5-1 5-4 5-4 4-5 4-5 5-9 5-9 .5-2 .5-2 .5-1.5.5-1.5.5-2 .5-2 .5-1.5.5-1.5v-1.5-1.5l-2.5 7-2.5 7-2.5 1-2.5 1-4-.5-4-.5 2.5-4 2.5-4 2.5-3.5 2.5-3.5 2-5 2-5 4.5-4.5 4.5-4.5 2-5 2-5 2-6.5 2-6.5.5-3.5.5-3.5 4.5-4.5 4.5-4.5-4 1-4 1-5.5 3-5.5 3-5.5 3.5-5.5 3.5-5.5 3.5-5.5 3.5-5.5 3.5-5.5 3.5-5.5 3-5.5 3-5.5 3.5-5.5 3.5-5.5 3.5-5.5 3.5-4.5 4.5-4.5 4.5 5.5-3 5.5-3 6-3 6-3 6.5-2.5 6.5-2.5 6-3 6-3-1.5 1.5-1.5 1.5-5.5 3-5.5 3-.5 2.5-.5 2.5-5.5 3.5-5.5 3.5-4.5 3.5-4.5 3.5-5 3.5-5 3.5-5.5 3.5-5.5 3.5-4.5 4.5-4.5 4.5-5 4-5 4v2.5 2.5l5.5-3.5 5.5-3.5-1.5 3.5-1.5 3.5-9 4-9 4-.5 1-.5 1-.5 1.5-.5 1.5-1 1.5-1 1.5-.5 1-.5 1 1 1 1 1v-1-1l.5-.5.5-.5v-1-1l.5-.5.5-.5.5-.5.5-.5h.5.5v1 1l.5.5.5.5-.5.5-.5.5-.5 1-.5 1-.5.5-.5.5-.5.5-.5.5-.5.5-.5.5-1 .5-1 .5-.5.5-.5.5-1 1-1 1-1 1.5-1 1.5-.5.5-.5.5-.5.5-.5.5-.5.5-.5.5-.5 1-.5 1-1 1-1 1-.5 1-.5 1-1 2.5-1 2.5-1 1-1 1-1 1.5-1 1.5-.5 1.5-.5 1.5-1 1.5-1 1.5-.5 2-.5 2v.5.5" style="fill:#e59eac;stroke:#e59eac"/><g style="fill:#bd7f96;stroke:#bd7f96"><path d="m117 338l15-5 5-1.5 5-1.5 6.5-2.5 6.5-2.5 6.5-2.5 6.5-2.5 6.5-2.5 6.5-2.5.5 1.5.5 1.5 6-2.5 6-2.5 6-3 6-3 5-4 5-4 5.5-3.5 5.5-3.5 3.5-5 3.5-5 3-6 3-6 3-7.5 3-7.5-5 9-5 9-4 5-4 5-5 4-5 4-6.5 1-6.5 1 4-3 4-3-3.5.5-3.5.5-6.5 2.5-6.5 2.5-5 3.5-5 3.5-7 2-7 2-6 3-6 3-6.5 2.5-6.5 2.5-5 3.5-5 3.5-5.5 3-5.5 3-3 5-3 5"/><path d="m259 335h2l.5-1.5.5-1.5 1-.5 1-.5.5-.5.5-.5v-1-1l.5-.5.5-.5.5-1 .5-1 .5-.5.5-.5.5-.5.5-.5.5-.5.5-.5 1-1 1-1 1-1.5 1-1.5.5-.5.5-.5.5-.5.5-.5v-1-1l1-1.5 1-1.5v-.5-.5l4-5.5 4-5.5 4-5 4-5v-2-2l-4.5 4-4.5 4 1-5 1-5 3-6 3-6 4-5 4-5 4.5-4 4.5-4 4-5 4-5 3.5-4.5 3.5-4.5-4.5 4.5-4.5 4.5-5 4-5 4-4.5 4-4.5 4 1-3 1-3 4.5-4.5 4.5-4.5 5-4 5-4 4-4.5 4-4.5 4.5-4.5 4.5-4.5-2.5 1.5-2.5 1.5-5 4-5 4-4 4.5-4 4.5-2.5.5-2.5.5 4.5-4.5 4.5-4.5 1-4 1-4-4 4.5-4 4.5-1.5-1.5-1.5-1.5 5-4 5-4 4.5-4.5 4.5-4.5 4-5 4-5 3-4.5 3-4.5 4.5-2.5 4.5-2.5 4.5-4.5 4.5-4.5 4.5-4.5 4.5-4.5 4-4.5 4-4.5 4-5 4-5 4-5 4-5v-2-2l-4.5 4-4.5 4-4.5 4.5-4.5 4.5-3.5 4.5-3.5 4.5-5 4-5 4-4 5-4 5-4 4.5-4 4.5-4.5 4.5-4.5 4.5-4.5 4.5-4.5 4.5.5-2.5.5-2.5 4-4.5 4-4.5-.5-.5-.5-.5 3.5-4.5 3.5-4.5 4.5-4.5 4.5-4.5 5-3.5 5-3.5 4-5 4-5 4-5 4-5 3-4 3-4 4-4.5 4-4.5-5.5 2.5-5.5 2.5-.5 1.5-.5 1.5-.5 1-.5 1-1 1-1 1-1 1-1 1-.5.5-.5.5-.5 1-.5 1-1 1-1 1-.5.5-.5.5-1 .5-1 .5-1 1-1 1-.5.5-.5.5-.5 1-.5 1-1 1-1 1h-1-1l1.5-1.5 1.5-1.5 1-1.5 1-1.5 1-1 1-1 1-1 1-1 1-1.5 1-1.5 1-1 1-1 1.5-1 1.5-1 1-1 1-1 1.5-2 1.5-2 4-5 4-5 2.5-5.5 2.5-5.5 2.5-5 2.5-5-1.5-.5-1.5-.5-4 5-4 5-2.5.5-2.5.5 4-4.5 4-4.5 3-6 3-6 2-5 2-5 3.5-5.5 3.5-5.5 2-6.5 2-6.5 7.5-10 7.5-10v-.5-.5l3-7 3-7 .5-11.5.5-11.5h-3-3-2.5-2.5-2-2-2-2-2.5-2.5-2-2-2.5-2.5-2-2-1-1l-2 7.5-2 7.5-2.5 6.5-2.5 6.5-1.5 6.5-1.5 6.5-2 6.5-2 6.5-1 7-1 7-1.5 6.5-1.5 6.5-2.5 6.5-2.5 6.5-2.5 5.5-2.5 5.5v3.5 3.5l-3 6-3 6-2 5-2 5 1 1 1 1-3.5 5-3.5 5-4 5-4 5-4 5-4 5-3 6-3 6-2 5.5-2 5.5 4-5 4-5 3-1 3-1-3.5 5.5-3.5 5.5-4 4.5-4 4.5-.5 2.5-.5 2.5-1 3-1 3-3 6-3 6-2 5-2 5-1.5 6-1.5 6-3.5 6.5-3.5 6.5v-6.5-6.5-6-6l-4.5 4.5-4.5 4.5 1.5-3.5 1.5-3.5 3-6 3-6 .5-4 .5-4-5 4-5 4-4.5 4.5-4.5 4.5-5 4-5 4-4 2.5-4 2.5-3-2-3-2 2 4.5 2 4.5 4.5-1.5 4.5-1.5 5-4 5-4v1 1l-4.5 4-4.5 4-4.5 4.5-4.5 4.5v5 5l5-4 5-4-2 2.5-2 2.5-4 5-4 5 5-3 5-3 5-4 5-4-4 4.5-4 4.5-2.5 4.5-2.5 4.5-2.5 3.5-2.5 3.5 5-4 5-4-1 1.5-1 1.5-4.5 4.5-4.5 4.5 4-2 4-2 5-4 5-4-2.5 4.5-2.5 4.5-1.5 3-1.5 3 5-2 5-2-4.5 4.5-4.5 4.5 2.5.5 2.5.5-1 3.5-1 3.5-1 6-1 6-4 5-4 5v5 5"/></g><g style="fill:#3d1712;stroke:#3d1712"><path d="m500 331l7-13h-.5-.5l-3 6-3 6v.5.5"/><path d="m482 329l8-21 2-6.5 2-6.5 2.5-6.5 2.5-6.5 3-6 3-6 2.5-6.5 2.5-6.5 2-6.5 2-6.5 3-6 3-6 4-6.5 4-6.5v-3-3-2-2-2.5-2.5l-4 9.5-4 9.5-2 7-2 7-2.5 6.5-2.5 6.5-2.5 6.5-2.5 6.5-2.5 6-2.5 6-2.5 6.5-2.5 6.5-3 6-3 6-2 7-2 7-2 7.5-2 7.5"/><path d="m0 324v1l1-4.5 1-4.5 4-4 4-4 4-4.5 4-4.5 4.5-3.5 4.5-3.5-1-5-1-5-4.5-4.5-4.5-4.5-2.5-4-2.5-4v-4-4l-1-6-1-6-4.5-3.5-4.5-3.5v10.5 10.5 8.5 8.5 9 9 9 9 6 6"/></g><path d="m136 323l16-4 5.5-1 5.5-1 1-4 1-4-5.5 2.5-5.5 2.5-6 3-6 3-3 1.5-3 1.5" style="fill:#e59eac;stroke:#e59eac"/><path d="m122 317h3l.5-1 .5-1 1-1 1-1v-.5-.5-1.5-1.5l-1-1-1-1-.5-.5-.5-.5-.5-.5-.5-.5-.5-.5-.5-.5-.5-1-.5-1v-1-1l-.5-.5-.5-.5-.5-.5-.5-.5-1-1.5-1-1.5-1 1-1 1-.5.5-.5.5-.5.5-.5.5-.5 1-.5 1v3 3l1 1.5 1 1.5.5 1.5.5 1.5 1.5 1 1.5 1 1.5 1 1.5 1" style="fill:#fffdf3;stroke:#fffdf3"/><path d="m432 314l13-7 5.5-3 5.5-3 5-4 5-4-1-4-1-4-4.5 4.5-4.5 4.5-4 5-4 5-5 3.5-5 3.5-2.5 1.5-2.5 1.5" style="fill:#3d1712;stroke:#3d1712"/><path d="m128 312v1l.5-1 .5-1 .5-.5.5-.5.5-.5.5-.5.5-.5.5-.5 1-1.5 1-1.5-.5-.5-.5-.5 1-1.5 1-1.5 1-2 1-2 .5-1 .5-1 1-1.5 1-1.5.5-1.5.5-1.5.5-1 .5-1v-.5-.5l.5-1.5.5-1.5-1-.5-1-.5-2-.5-2-.5-1.5-1.5-1.5-1.5-1 1-1 1-1.5 1-1.5 1-1 1-1 1-1 1-1 1-1 1.5-1 1.5-1 1-1 1-1 1-1 1-.5 1-.5 1 1 1.5 1 1.5.5.5.5.5.5.5.5.5v1 1l.5 1 .5 1 .5.5.5.5.5.5.5.5.5.5.5.5 1 1 1 1v1.5 1.5" style="fill:#fff6bd;stroke:#fff6bd"/><path d="m278 309v1l5.5-5.5 5.5-5.5 5-4 5-4 4.5-4 4.5-4 5-4 5-4 5-4 5-4 5-4 5-4 4.5-4 4.5-4 5-4 5-4 5-4 5-4 5-4 5-4 4-4.5 4-4.5 5-4 5-4 4.5-4.5 4.5-4.5 4-5 4-5 4.5-4 4.5-4 4.5-4.5 4.5-4.5 4.5-4.5 4.5-4.5.5-5.5.5-5.5 4-5 4-5 4.5-4 4.5-4-5 3-5 3-4.5 4.5-4.5 4.5-4.5 4.5-4.5 4.5-4.5 4-4.5 4-4.5 4.5-4.5 4.5 1.5-3.5 1.5-3.5v-3-3l3.5-5 3.5-5 1-4 1-4 3.5-5.5 3.5-5.5 4-5 4-5 3.5-5 3.5-5h-1-1l-5 4-5 4-4.5 4.5-4.5 4.5.5-3 .5-3 3.5-5.5 3.5-5.5 1.5-5 1.5-5 3.5-5.5 3.5-5.5 3-5.5 3-5.5 4.5-4.5 4.5-4.5 1.5-4.5 1.5-4.5-4 4-4 4-2 1.5-2 1.5 3.5-4.5 3.5-4.5 2-5 2-5-4.5 3.5-4.5 3.5-1-.5-1-.5-1.5-2.5-1.5-2.5 4.5-4.5 4.5-4.5 1.5-9.5 1.5-9.5-3.5-6-3.5-6-2.5-1-2.5-1-3.5 4.5-3.5 4.5-2-1-2-1-6.5 7.5-6.5 7.5-7.5 10-7.5 10-2 6.5-2 6.5-3.5 5.5-3.5 5.5-2 5-2 5-3 6-3 6-4 4.5-4 4.5 2.5-.5 2.5-.5 4-5 4-5 1.5.5 1.5.5-2.5 5-2.5 5-2.5 5.5-2.5 5.5-4 5-4 5 5.5-2.5 5.5-2.5-4 4.5-4 4.5-3 4-3 4-4 5-4 5-4 5-4 5-5 3.5-5 3.5-4.5 4.5-4.5 4.5-3.5 4.5-3.5 4.5.5.5.5.5-4 4.5-4 4.5-.5 2.5-.5 2.5 4.5-4.5 4.5-4.5 4.5-4.5 4.5-4.5 4-4.5 4-4.5 4-5 4-5 5-4 5-4 3.5-4.5 3.5-4.5 4.5-4.5 4.5-4.5 4.5-4 4.5-4v2 2l-4 5-4 5-4 5-4 5-4 4.5-4 4.5-4.5 4.5-4.5 4.5-4.5 4.5-4.5 4.5-4.5 2.5-4.5 2.5-3 4.5-3 4.5-4 5-4 5-4.5 4.5-4.5 4.5-5 4-5 4 1.5 1.5 1.5 1.5 4-4.5 4-4.5-1 4-1 4-4.5 4.5-4.5 4.5 2.5-.5 2.5-.5 4-4.5 4-4.5 5-4 5-4 2.5-1.5 2.5-1.5-4.5 4.5-4.5 4.5-4 4.5-4 4.5-5 4-5 4-4.5 4.5-4.5 4.5-1 3-1 3 4.5-4 4.5-4 5-4 5-4 4.5-4.5 4.5-4.5-3.5 4.5-3.5 4.5-4 5-4 5-4.5 4-4.5 4-4 5-4 5-3 6-3 6-1 5-1 5 4.5-4 4.5-4v2 2l-4 5-4 5-4 5.5-4 5.5" style="fill:#9b5e74;stroke:#9b5e74"/><path d="m510 309l11-18 3.5-6 3.5-6v-1.5-1.5-2-2l-3 6-3 6-3 6-3 6-3 6.5-3 6.5" style="fill:#3d1712;stroke:#3d1712"/><path d="m133 304l1 1 1-1 1-1 .5-.5.5-.5 1-.5 1-.5.5-.5.5-.5.5-.5.5-.5.5-.5.5-.5.5-1 .5-1 .5-.5.5-.5-.5-.5-.5-.5v-1-1h-.5-.5l-.5.5-.5.5-.5.5-.5.5v1 1l-.5.5-.5.5v1 1l-1-1-1-1-1 2-1 2-1 1.5-1 1.5" style="fill:#f4c1ce;stroke:#f4c1ce"/><path d="m159 304l16-4 5-3.5 5-3.5-7 2-7 2-6 3-6 3v.5.5" style="fill:#bd7f96;stroke:#bd7f96"/><path d="m477 301l7-11 1.5-7 1.5-7 2-7 2-7 1.5-6.5 1.5-6.5 2-7 2-7 1.5-7.5 1.5-7.5h-.5-.5l-2.5 6.5-2.5 6.5-2.5 6.5-2.5 6.5-2.5 6.5-2.5 6.5-2.5 6-2.5 6-2.5 6.5-2.5 6.5 1 7 1 7v1.5 1.5" style="fill:#3d1712;stroke:#3d1712"/><path d="m153 293l14-6 6-2.5 6-2.5h-2-2l-6.5 2.5-6.5 2.5-4.5 3-4.5 3" style="fill:#bd7f96;stroke:#bd7f96"/><path d="m509 290l9-10 2.5-6 2.5-6 2.5-7 2.5-7v-1.5-1.5-2.5-2.5-1-1l-2 4-2 4-2.5 6.5-2.5 6.5-2.5 6-2.5 6-2.5 6.5-2.5 6.5" style="fill:#3d1712;stroke:#3d1712"/><path d="m142 286v1l9-4 9-4 1.5-3.5 1.5-3.5-5.5 3.5-5.5 3.5v-2.5-2.5l5-4 5-4 4.5-4.5 4.5-4.5 5.5-3.5 5.5-3.5 5-3.5 5-3.5 4.5-3.5 4.5-3.5 5.5-3.5 5.5-3.5.5-2.5.5-2.5 5.5-3 5.5-3 1.5-1.5 1.5-1.5-6 3-6 3-6.5 2.5-6.5 2.5-6 3-6 3-5.5 3-5.5 3 4.5-4.5 4.5-4.5 5.5-3.5 5.5-3.5 5.5-3.5 5.5-3.5 5.5-3 5.5-3 5.5-3.5 5.5-3.5 5.5-3.5 5.5-3.5 5.5-3.5 5.5-3.5 5.5-3 5.5-3 4-1 4-1-4.5 4.5-4.5 4.5-.5 3.5-.5 3.5-2 6.5-2 6.5-2 5-2 5-4.5 4.5-4.5 4.5-2 5-2 5-2.5 3.5-2.5 3.5-2.5 4-2.5 4 4 .5 4 .5 2.5-1 2.5-1 2.5-7 2.5-7 2.5-5.5 2.5-5.5 5.5-6.5 5.5-6.5-1.5 1.5-1.5 1.5-.5 1-.5 1-1 1-1 1-1 1-1 1-1 .5-1 .5.5-1 .5-1 1-1.5 1-1.5.5-1.5.5-1.5 1-1.5 1-1.5 1.5-1 1.5-1 3.5-5.5 3.5-5.5 2-4.5 2-4.5 4.5-4.5 4.5-4.5 3-4 3-4 4.5-4.5 4.5-4.5 3.5-5 3.5-5 4-3 4-3v3 3l-2.5 5.5-2.5 5.5-.5 2-.5 2 2 2 2 2-3 6-3 6-2.5 6.5-2.5 6.5 2 2.5 2 2.5.5 2.5.5 2.5 1-5 1-5 2.5-5.5 2.5-5.5 3-6 3-6 3-5.5 3-5.5 3-6 3-6 3.5-5.5 3.5-5.5 3-6 3-6 .5-5 .5-5 .5-3.5.5-3.5 3-5 3-5 2.5-5.5 2.5-5.5 2.5-6 2.5-6-4 3-4 3 2-7 2-7 2.5-6.5 2.5-6.5 2.5-6 2.5-6 2-7 2-7-1.5.5-1.5.5-1-1-1-1 2.5-6.5 2.5-6.5 2.5-6 2.5-6-.5-3.5-.5-3.5h-2.5-2.5-2-2-2.5-2.5-2-2-2-2-.5-.5l-3 6-3 6-1.5 6-1.5 6-2 6-2 6-1.5 7-1.5 7-2.5 5.5-2.5 5.5-3 6-3 6-2.5 6.5-2.5 6.5-3 6-3 6-3 5.5-3 5.5-1.5-1.5-1.5-1.5v-3-3l-2-5-2-5-1-6.5-1-6.5-5.5-.5-5.5-.5-5 2-5 2-5 4-5 4-5.5 2-5.5 2-5.5 3.5-5.5 3.5-3.5 5.5-3.5 5.5-4 5-4 5-2.5 5-2.5 5-2 6-2 6-3.5 5.5-3.5 5.5-3 6-3 6 1.5 3.5 1.5 3.5-3.5 5-3.5 5-3 5-3 5-4 5-4 5-3 6-3 6 1 1.5 1 1.5 5-4 5-4-1.5 2.5-1.5 2.5-4.5 4.5-4.5 4.5-4.5 4-4.5 4-3.5 5.5-3.5 5.5-4 5-4 5-4 5-4 5-6 10.5-6 10.5-.5 1.5-.5 1.5" style="fill:#f4c1ce;stroke:#f4c1ce"/><path d="m189 284l15-5 6-2.5 6-2.5-6 2-6 2-6.5 2.5-6.5 2.5-1 .5-1 .5" style="fill:#bd7f96;stroke:#bd7f96"/><path d="m118 283h2l1-1 1-1 1-1.5 1-1.5 2-.5 2-.5 4.5-7.5 4.5-7.5 4-5 4-5 3-6 3-6-.5-7-.5-7-2-7-2-7-1.5-2-1.5-2-2-5.5-2-5.5-3-5.5-3-5.5-2-6-2-6-4-5-4-5-2-3-2-3-.5-2-.5-2-4-5-4-5-3.5-3.5-3.5-3.5-5-3-5-3-3-5.5-3-5.5-1-5-1-5-3.5-2.5-3.5-2.5-4.5-3.5-4.5-3.5-2.5-4-2.5-4-2.5-3.5-2.5-3.5-1-3-1-3-3.5-1.5-3.5-1.5-3.5-4.5-3.5-4.5-2.5-4-2.5-4-2-6-2-6-4-2-4-2 2.5-4.5 2.5-4.5-5-3.5-5-3.5-2.5-2.5-2.5-2.5 1.5 5.5 1.5 5.5 2.5 6.5 2.5 6.5 2.5 6 2.5 6 3 6 3 6 2.5 6.5 2.5 6.5 3 6 3 6 2.5 6 2.5 6 2.5 6.5 2.5 6.5 3.5 5.5 3.5 5.5 2.5 6.5 2.5 6.5 3 6 3 6 2.5 6 2.5 6 2.5 6.5 2.5 6.5 2.5 6.5 2.5 6.5-2.5-.5-2.5-.5-3-5.5-3-5.5-3.5-5.5-3.5-5.5-3-6-3-6-3.5-5.5-3.5-5.5-3-5.5-3-5.5-3-6-3-6-3-6-3-6-3-6-3-6-3-5.5-3-5.5-3-6-3-6-3-6-3-6-2.5-6.5-2.5-6.5-4.5-5-4.5-5v9.5 9.5 9 9 8.5 8.5 9 9 9 9 6.5 6.5l5 4 5 4 2.5 5.5 2.5 5.5 3.5 3.5 3.5 3.5 2.5 4.5 2.5 4.5 3.5 5 3.5 5 3 5 3 5 4.5 4.5 4.5 4.5 1.5 4.5 1.5 4.5 3.5 4 3.5 4 3 4 3 4 4 5 4 5 5 4 5 4 5 3 5 3 3 4.5 3 4.5 4.5 4.5 4.5 4.5 5 4 5 4" style="fill:#6f5889;stroke:#6f5889"/><path d="m141 282l2 1 6-10.5 6-10.5 4-5 4-5 4-5 4-5 3.5-5.5 3.5-5.5 4.5-4 4.5-4 4.5-4.5 4.5-4.5 1.5-2.5 1.5-2.5-5 4-5 4-1-1.5-1-1.5 3-6 3-6 4-5 4-5 3-5 3-5 3.5-5 3.5-5-1.5-3.5-1.5-3.5 3-6 3-6 3.5-5.5 3.5-5.5 2-6 2-6 2.5-5 2.5-5 4-5 4-5 3.5-5.5 3.5-5.5 5.5-3.5 5.5-3.5 5.5-2 5.5-2 5-4 5-4 5-2 5-2 5.5.5 5.5.5 1 6.5 1 6.5 2 5 2 5v3 3l1.5 1.5 1.5 1.5 3-5.5 3-5.5 3-6 3-6 2.5-6.5 2.5-6.5 3-6 3-6 2.5-5.5 2.5-5.5 1.5-7 1.5-7 2-6 2-6 1.5-6 1.5-6 3-6 3-6h-2-2-2-2-1-1l-2 8-2 8-2.5 6.5-2.5 6.5-4 10.5-4 10.5 2-7 2-7 2-7 2-7 2.5-11 2.5-11h-2-2-2-2-2.5-2.5-2-2-1.5-1.5l-1 8.5-1 8.5-3.5 5.5-3.5 5.5-4.5 6.5-4.5 6.5-3.5 5.5-3.5 5.5-4.5 4-4.5 4-6.5 1.5-6.5 1.5-5.5 3-5.5 3-8.5 4.5-8.5 4.5-1.5 1.5-1.5 1.5-1.5 1-1.5 1-1.5.5-1.5.5-1.5 1-1.5 1-1 1-1 1-1 .5-1 .5-1.5 1.5-1.5 1.5-1 1-1 1-1.5 1-1.5 1-1 1-1 1-1.5 1-1.5 1-1 1-1 1-1 1.5-1 1.5-1 1-1 1-1 .5-1 .5-.5 1.5-.5 1.5-.5.5-.5.5-.5.5-.5.5-.5 1-.5 1-1 .5-1 .5-.5 2-.5 2-.5 1.5-.5 1.5-1 1.5-1 1.5v2 2l-1 1.5-1 1.5v2 2l-1 1.5-1 1.5-.5 1.5-.5 1.5-.5 1-.5 1-2 8-2 8-2.5 6.5-2.5 6.5-2 6.5-2 6.5-2.5 6.5-2.5 6.5-2.5 6.5-2.5 6.5-3 6-3 6-3 6-3 6-4.5 9-4.5 9-3.5 5.5-3.5 5.5-3.5 6-3.5 6 1.5 1.5 1.5 1.5 2 .5 2 .5" style="fill:#fffdf3;stroke:#fffdf3"/><path d="m359 280l12-8 4.5-4 4.5-4 4.5-4.5 4.5-4.5 5-4 5-4 4.5-4.5 4.5-4.5 4-5 4-5-4 2.5-4 2.5-5 4-5 4-4.5 4.5-4.5 4.5-5 4-5 4-4 4.5-4 4.5-4.5 4.5-4.5 4.5-1.5 2-1.5 2" style="fill:#9b5e74;stroke:#9b5e74"/><path d="m471 279l7-13 1.5-7 1.5-7 1-5 1-5 .5-6.5.5-6.5-2.5 5.5-2.5 5.5-2.5 6.5-2.5 6.5-2 6.5-2 6.5.5 6.5.5 6.5" style="fill:#3d1712;stroke:#3d1712"/><path d="m171 271l14-6 3.5-4 3.5-4-6 3-6 3-3.5 3.5-3.5 3.5-1 .5-1 .5" style="fill:#f4c1ce;stroke:#f4c1ce"/><path d="m354 269l12-4 4.5-4 4.5-4 5-4 5-4 4.5-4.5 4.5-4.5 5-4 5-4 5-4 5-4 4-4.5 4-4.5h-1-1l-.5-.5-.5-.5 4.5-4.5 4.5-4.5 2.5-4 2.5-4-5 4-5 4-5.5 3.5-5.5 3.5-4.5 4.5-4.5 4.5-4.5 4-4.5 4-4.5 4.5-4.5 4.5-4.5 4.5-4.5 4.5-5 4-5 4-4 4.5-4 4.5-2 2.5-2 2.5" style="fill:#9b5e74;stroke:#9b5e74"/><g style="fill:#e59eac;stroke:#e59eac"><path d="m293 255l7-13 1.5-6 1.5-6 2-5 2-5 3-6 3-6 1-3 1-3 .5-2.5.5-2.5 4-4.5 4-4.5 3.5-5.5 3.5-5.5-3 1-3 1-4 5-4 5 2-5.5 2-5.5 3-6 3-6 4-5 4-5 4-5 4-5 3.5-5 3.5-5-1-1-1-1 2-5 2-5 3-6 3-6v-3.5-3.5l2.5-5.5 2.5-5.5 2.5-6.5 2.5-6.5 1.5-6.5 1.5-6.5 1-7 1-7 2-6.5 2-6.5 1.5-6.5 1.5-6.5 2.5-6.5 2.5-6.5 2-7.5 2-7.5h-1.5-1.5-2-2-2.5-2.5l.5 3.5.5 3.5-2.5 6-2.5 6-2.5 6.5-2.5 6.5 1 1 1 1 1.5-.5 1.5-.5-2 7-2 7-2.5 6-2.5 6-2.5 6.5-2.5 6.5-2 7-2 7 4-3 4-3-2.5 6-2.5 6-2.5 5.5-2.5 5.5-3 5-3 5-.5 3.5-.5 3.5-.5 5-.5 5-3 6-3 6-3.5 5.5-3.5 5.5-3 6-3 6-3 5.5-3 5.5-3 6-3 6-2.5 5.5-2.5 5.5-1 5-1 5-.5-2.5-.5-2.5-2-2.5-2-2.5 2.5-6.5 2.5-6.5 3-6 3-6-2-2-2-2 .5-2 .5-2 2.5-5.5 2.5-5.5v-3-3l-4 3-4 3-3.5 5-3.5 5-4.5 4.5-4.5 4.5-3 4-3 4-4.5 4.5-4.5 4.5-2 4.5-2 4.5-3.5 5.5-3.5 5.5 4.5-4.5 4.5-4.5 4-4.5 4-4.5 4.5-4.5 4.5-4.5 3.5-2.5 3.5-2.5-5 7-5 7 .5 1 .5 1-1 1-1 1-1 1.5-1 1.5-1 1-1 1-1 1.5-1 1.5-1.5.5-1.5.5-1 1.5-1 1.5-1 1-1 1h-1-1v-.5-.5l.5-.5.5-.5.5-1 .5-1 1-1 1-1 1-1 1-1-1.5.5-1.5.5-.5 1-.5 1-.5.5-.5.5-.5.5-.5.5-.5.5-.5.5-1 .5-1 .5-.5.5-.5.5-.5.5-.5.5-.5 1-.5 1-5.5 6.5-5.5 6.5-2.5 5.5-2.5 5.5h.5.5l3 2 3 2 4-2.5 4-2.5 5-4 5-4 4.5-4.5 4.5-4.5 5-4 5-4-.5 4-.5 4-3 6-3 6-1.5 3.5-1.5 3.5 4.5-4.5 4.5-4.5v6 6 6.5 6.5"/><path d="m171 250l13-7 5.5-3 5.5-3-1.5-.5-1.5-.5-5.5 3.5-5.5 3.5-5 3.5-5 3.5"/></g><path d="m153 242l1-1 .5-1 .5-1v-.5-.5l2.5-6.5 2.5-6.5 2.5-6 2.5-6 2.5-6.5 2.5-6.5 2.5-6.5 2.5-6.5 2-7 2-7 1.5-7 1.5-7 1.5-7.5 1.5-7.5 1-7 1-7v-7-7l-3-4.5-3-4.5-3-4-3-4-5-2-5-2h-5-5l-1.5-5-1.5-5-3-4-3-4-3.5-1.5-3.5-1.5h-5-5l-2-5.5-2-5.5-2.5-2.5-2.5-2.5-3-4-3-4-5-4-5-4-2.5-4-2.5-4-3-3-3-3-2-5-2-5-3.5-3.5-3.5-3.5-4.5-5.5-4.5-5.5h-10.5-10.5-8.5-8.5-9-9-8.5-8.5v.5.5 8.5 8.5l1.5 1 1.5 1 .5 1.5.5 1.5 1 1.5 1 1.5.5 1.5.5 1.5 1 1.5 1 1.5.5 1.5.5 1.5.5 2 .5 2 1 1 1 1-1 .5-1 .5-.5-1.5-.5-1.5-1-1-1-1-.5-.5-.5-.5v-1.5-1.5l-1-1-1-1-.5-.5-.5-.5-.5-1-.5-1-.5-1.5-.5-1.5-.5-.5-.5-.5-.5-1-.5-1v2 2 2 2 2.5 2.5 2 2 1 1l4.5 5 4.5 5 2.5 6.5 2.5 6.5 3 6 3 6 3 6 3 6 3 5.5 3 5.5 3 6 3 6 3 6 3 6 3 6 3 6 3 5.5 3 5.5 3.5 5.5 3.5 5.5 3 6 3 6 3.5 5.5 3.5 5.5 3 5.5 3 5.5 2.5.5 2.5.5-2.5-6.5-2.5-6.5-2.5-6.5-2.5-6.5-2.5-6-2.5-6-3-6-3-6-2.5-6.5-2.5-6.5-3.5-5.5-3.5-5.5-2.5-6.5-2.5-6.5-2.5-6-2.5-6-3-6-3-6-2.5-6.5-2.5-6.5-3-6-3-6-2.5-6-2.5-6-2.5-6.5-2.5-6.5-1.5-5.5-1.5-5.5 2.5 2.5 2.5 2.5 5 3.5 5 3.5-2.5 4.5-2.5 4.5 4 2 4 2 2 6 2 6 2.5 4 2.5 4 3.5 4.5 3.5 4.5 3.5 1.5 3.5 1.5 1 3 1 3 2.5 3.5 2.5 3.5 2.5 4 2.5 4 4.5 3.5 4.5 3.5 3.5 2.5 3.5 2.5 1 5 1 5 3 5.5 3 5.5 5 3 5 3 3.5 3.5 3.5 3.5 4 5 4 5 .5 2 .5 2 2 3 2 3 4 5 4 5 2 6 2 6 3 5.5 3 5.5 2 5.5 2 5.5 1.5 2 1.5 2 2 7 2 7 .5 7 .5 7 1 1 1 1" style="fill:#8374a9;stroke:#8374a9"/><path d="m155 238v1l1-1 1-1 3-6 3-6 3-6 3-6 2.5-6.5 2.5-6.5 2.5-6.5 2.5-6.5 2-6.5 2-6.5 2.5-6.5 2.5-6.5 2-8 2-8v-.5-.5l.5-1 .5-1v-2-2l.5-.5.5-.5.5-1 .5-1 .5-1.5.5-1.5.5-2 .5-2 .5-1.5.5-1.5.5-2 .5-2 .5-1.5.5-1.5 1-1 1-1 1-.5 1-.5.5-1 .5-1 .5-.5.5-.5.5-.5.5-.5.5-1.5.5-1.5v-.5-.5l1-1 1-1 1-1.5 1-1.5 1-1 1-1 1.5-1 1.5-1 1-1 1-1 1-1.5 1-1.5 1.5-.5 1.5-.5 1-1 1-1 1.5-.5 1.5-.5v-.5-.5l.5-1 .5-1 1.5-.5 1.5-.5.5-.5.5-.5 1-.5 1-.5.5-1.5.5-1.5.5.5.5.5.5-1 .5-1h1 1l1-1 1-1 1 .5 1 .5 8.5-4.5 8.5-4.5 5.5-3 5.5-3 6.5-1.5 6.5-1.5 4.5-4 4.5-4 3.5-5.5 3.5-5.5v-.5-.5l3.5-7 3.5-7 4-13 4-13h-10-10-9-9-8.5-8.5-9-9-9-9-9-9-8.5-8.5-9-9-9-9-9-9-8.5-8.5-9-9-9-9-5.5-5.5l4.5 5.5 4.5 5.5 3.5 3.5 3.5 3.5 2 5 2 5 3 3 3 3 2.5 4 2.5 4 5 4 5 4 3 4 3 4 2.5 2.5 2.5 2.5 2 5.5 2 5.5h5 5l3.5 1.5 3.5 1.5 3 4 3 4 1.5 5 1.5 5h5 5l5 2 5 2 3 4 3 4 3 4.5 3 4.5v7 7l-1 7-1 7-1.5 7.5-1.5 7.5-1.5 7-1.5 7-2 7-2 7-2.5 6.5-2.5 6.5-2.5 6.5-2.5 6.5-2.5 6-2.5 6-2.5 6.5-2.5 6.5" style="fill:#9e96c7;stroke:#9e96c7"/><path d="m340 237l12-8 1.5-2 1.5-2-5 3-5 3-2.5 3-2.5 3" style="fill:#6f5889;stroke:#6f5889"/><path d="m375 232l12-8 5-3.5 5-3.5 4.5-4.5 4.5-4.5 4.5-4.5 4.5-4.5h-2-2l-4 4.5-4 4.5-5 4-5 4-5 4-5 4-4 4-4 4" style="fill:#9b5e74;stroke:#9b5e74"/><path d="m224 230l15-5-1-.5-1-.5-6 3-6 3h-.5-.5" style="fill:#bd7f96;stroke:#bd7f96"/><path d="m256 224l2-1 1-1 1-1 1-1 1-1 .5-1 .5-1-1.5.5-1.5.5.5-1 .5-1 1-1 1-1 .5-.5.5-.5.5-1 .5-1-1.5 1-1.5 1-1 1.5-1 1.5-.5 1.5-.5 1.5-1 1.5-1 1.5-.5 1-.5 1" style="fill:#e59eac;stroke:#e59eac"/><g style="fill:#bd7f96;stroke:#bd7f96"><path d="m260 218l3-1 1.5-1.5 1.5-1.5.5-1 .5-1 .5-.5.5-.5.5-.5.5-.5 1-.5 1-.5.5-.5.5-.5.5-.5.5-.5.5-.5.5-.5.5-1 .5-1 1.5-.5 1.5-.5 1-1 1-1 1-1.5 1-1.5 1-1 1-1 2-1.5 2-1.5 5-7 5-7-3.5 2.5-3.5 2.5-4.5 4.5-4.5 4.5-4 4.5-4 4.5-4.5 4.5-4.5 4.5-.5 1-.5 1-.5.5-.5.5-1 1-1 1-.5 1-.5 1"/><path d="m272 218l11-9 3.5-4 3.5-4-5 4-5 4-4 4.5-4 4.5"/></g><path d="m272 211h2l1-1 1-1 1-1.5 1-1.5 1.5-.5 1.5-.5 1-1.5 1-1.5 1-1 1-1 1-1.5 1-1.5 1-1 1-1-.5-1-.5-1-2 1.5-2 1.5-1 1-1 1-1 1.5-1 1.5-1 1-1 1-1 1-1 1-1 1-1 1-.5 1-.5 1-.5.5-.5.5v.5.5" style="fill:#f4c1ce;stroke:#f4c1ce"/><g style="fill:#e59eac;stroke:#e59eac"><path d="m201 202l13-7 5.5-3 5.5-3 5.5-3.5 5.5-3.5 5.5-3.5 5.5-3.5 5.5-3.5 5.5-3.5-1 2.5-1 2.5-1.5 1.5-1.5 1.5 5.5-3.5 5.5-3.5 5-4 5-4 3-4.5 3-4.5 4-5 4-5 3.5-5.5 3.5-5.5-2.5 1.5-2.5 1.5 2-4.5 2-4.5 2-4 2-4-5 4-5 4-4.5 4.5-4.5 4.5-4.5 4-4.5 4-5.5 3.5-5.5 3.5-5 4-5 4-5.5 3.5-5.5 3.5-5 3.5-5 3.5-5 4-5 4-4.5 4.5-4.5 4.5-1.5 2.5-1.5 2.5 5.5-3 5.5-3 5-4 5-4-2.5 2.5-2.5 2.5-5 4-5 4-4.5 4-4.5 4-1 1-1 1"/><path d="m222 201l14-6 5-3.5 5-3.5 6-3 6-3 5-4 5-4 4.5-4.5 4.5-4.5-5.5 3-5.5 3-5 4-5 4-5.5 3.5-5.5 3.5-5.5 3.5-5.5 3.5-5 3.5-5 3.5-1 .5-1 .5"/></g><path d="m346 196l11-9 3.5-5 3.5-5-4.5 4.5-4.5 4.5-4.5 4.5-4.5 4.5v.5.5" style="fill:#bd7f96;stroke:#bd7f96"/><path d="m354 157h2l1-1 1-1 .5-1 .5-1 .5-.5.5-.5 1-1 1-1 1-.5 1-.5.5-.5.5-.5 1-1 1-1 .5-1 .5-1 .5-.5.5-.5 1-1 1-1 1-1 1-1 .5-1 .5-1 .5-1.5.5-1.5-1.5 2-1.5 2-1 1-1 1-1.5 1-1.5 1-1 1-1 1-1 1.5-1 1.5-1 1-1 1-1 1-1 1-1 1.5-1 1.5-1.5 1.5-1.5 1.5" style="fill:#9b5e74;stroke:#9b5e74"/><path d="m290 154l9-11 3-5.5 3-5.5 3.5-5.5 3.5-5.5 1.5-5.5 1.5-5.5-1 1-1 1-3 5.5-3 5.5-3.5 5.5-3.5 5.5-3.5 5.5-3.5 5.5-1.5 4.5-1.5 4.5" style="fill:#fffdf3;stroke:#fffdf3"/><path d="m255 148l13-7 4.5-4 4.5-4-3 1-3 1-5 4-5 4-3 2.5-3 2.5" style="fill:#e59eac;stroke:#e59eac"/><path d="m192 144v1l.5-1 .5-1 .5-1.5.5-1.5 1-1.5 1-1.5v-2-2l1-1.5 1-1.5v-2-2l1-1.5 1-1.5.5-1.5.5-1.5.5-2 .5-2-1 1-1 1-.5 1.5-.5 1.5-.5 2-.5 2-.5 1.5-.5 1.5-.5 2-.5 2-.5 1.5-.5 1.5-.5 1-.5 1-.5.5-.5.5v2 2l-.5 1-.5 1" style="fill:#f4c1ce;stroke:#f4c1ce"/><path d="m307 140l11-9 3.5-5 3.5-5-.5-1.5-.5-1.5-4 5-4 5-4 5-4 5-.5 1-.5 1" style="fill:#e59eac;stroke:#e59eac"/><path d="m469 130l5-19 2-7 2-7 1.5-7.5 1.5-7.5 2-6.5 2-6.5 3.5-3.5 3.5-3.5 2-6 2-6 2.5 1.5 2.5 1.5v5.5 5.5 7 7l2.5-6.5 2.5-6.5 2-7 2-7 2-2.5 2-2.5-.5 6.5-.5 6.5-.5 7.5-.5 7.5-1 8-1 8 1.5-3 1.5-3 1.5-6.5 1.5-6.5 2-7 2-7 3-6 3-6 1 5.5 1 5.5v-10.5-10.5-8.5-8.5-9-9h-9-9-9-9-8.5-8.5-5.5-5.5l-.5 1-.5 1v1.5 1.5 2 2 1 1l-.5 1-.5 1v2 2l-.5 2-.5 2v2 2l-.5 2-.5 2v2 2l-1 .5-1 .5-.5-2-.5-2-1.5 9.5-1.5 9.5-4.5 4.5-4.5 4.5 1.5 2.5 1.5 2.5 1 .5 1 .5 4.5-3.5 4.5-3.5-2 5-2 5-3.5 4.5-3.5 4.5 2-1.5 2-1.5 4-4 4-4-1.5 4.5-1.5 4.5-4.5 4.5-4.5 4.5-3 5.5-3 5.5-3.5 5.5-3.5 5.5-1.5 5-1.5 5 6-6 6-6 1-1.5 1-1.5 3.5-2.5 3.5-2.5 3.5-3.5 3.5-3.5v2 2l3 2.5 3 2.5 1 8 1 8 .5 8.5.5 8.5" style="fill:#6f5889;stroke:#6f5889"/><g style="fill:#e59eac;stroke:#e59eac"><path d="m280 124l11-9-1-.5-1-.5-4.5 4.5-4.5 4.5v.5.5"/><path d="m267 114l12-8 4-4.5 4-4.5-.5-1.5-.5-1.5-4.5 4.5-4.5 4.5-4.5 4.5-4.5 4.5-.5 1-.5 1"/><path d="m321 109l10-10 3-5.5 3-5.5 1-3 1-3-3.5 5.5-3.5 5.5-3.5 5.5-3.5 5.5-2 2.5-2 2.5"/></g><path d="m208 107v1l1-.5 1-.5 1-1 1-1 1-1.5 1-1.5 1-1 1-1 1.5-1 1.5-1 1-1 1-1 1.5-1 1.5-1 1-1 1-1 1.5-1.5 1.5-1.5-1.5.5-1.5.5-1 1-1 1-1.5.5-1.5.5-1 1.5-1 1.5-1 1-1 1-1.5 1-1.5 1-1 1-1 1-1 1.5-1 1.5-1 1-1 1" style="fill:#f4c1ce;stroke:#f4c1ce"/><path d="m397 94h2 1 1l1-1.5 1-1.5.5-1.5.5-1.5 1-1.5 1-1.5-.5-.5-.5-.5-1.5 1-1.5 1-.5 1.5-.5 1.5-1 1-1 1-1 1.5-1 1.5" style="fill:#bd7f96;stroke:#bd7f96"/><path d="m345 89l7-13 1.5-6 1.5-6 2-7 2-7 2-7 2-7-3 6-3 6-2 6.5-2 6.5-2.5 6.5-2.5 6.5-1.5 7.5-1.5 7.5" style="fill:#fffdf3;stroke:#fffdf3"/><g style="fill:#f4c1ce;stroke:#f4c1ce"><path d="m229 88v1l1-.5 1-.5 1-1 1-1 1.5-1 1.5-1 1.5-.5 1.5-.5 1.5-1 1.5-1 1.5-1.5 1.5-1.5-1-.5-1-.5-1 1-1 1h-1-1l-.5 1-.5 1-.5-.5-.5-.5-.5 1.5-.5 1.5-1 .5-1 .5-.5.5-.5.5-1.5.5-1.5.5-.5 1-.5 1"/><path d="m327 50l8-21 2.5-6.5 2.5-6.5 2-8 2-8h-2-2l-2.5 11-2.5 11-2 7-2 7-2 7-2 7"/></g><path d="m11 42l2-1-1-1-1-1-.5-2-.5-2-.5-1.5-.5-1.5-1-1.5-1-1.5-.5-1.5-.5-1.5-1-1.5-1-1.5-.5-1.5-.5-1.5-1.5-1-1.5-1v1.5 1.5.5.5l.5 1 .5 1 .5.5.5.5.5 1.5.5 1.5.5 1 .5 1 .5.5.5.5 1 1 1 1v1.5 1.5l.5.5.5.5 1 1 1 1 .5 1.5.5 1.5" style="fill:#9e96c7;stroke:#9e96c7"/><path d="m302 40v1l4.5-6.5 4.5-6.5 3.5-5.5 3.5-5.5 1-8.5 1-8.5h-1.5-1.5l-4 13-4 13-3.5 7-3.5 7" style="fill:#f4c1ce;stroke:#f4c1ce"/><g style="fill:#8374a9;stroke:#8374a9"><path d="m421 37v1l6.5-7.5 6.5-7.5 2 1 2 1 3.5-4.5 3.5-4.5 2.5 1 2.5 1 3.5 6 3.5 6 .5 2 .5 2 1-.5 1-.5v-2-2l.5-2 .5-2v-2-2l.5-2 .5-2v-2-2l.5-1 .5-1v-1-1-2-2-1.5-1.5l.5-1 .5-1h-1.5-1.5-2-2-2.5-2.5-2-2-2.5-2.5-2-2-2-2-2.5-2.5-1-1l-.5 11.5-.5 11.5-3 7-3 7"/><path d="m437 30h2l1-1 1-1 1-1.5 1-1.5 1-1 1-1-.5-2-.5-2-.5 1.5-.5 1.5-1.5 1-1.5 1-1 1-1 1-.5 1.5-.5 1.5v.5.5"/></g></g></svg>